<svg version="1.1" id="Layer_1" xmlns="http://www.w3.org/2000/svg" xmlns:xlink="http://www.w3.org/1999/xlink" x="0px" y="0px"
	 width="100%" viewBox="0 0 456 325" enable-background="new 0 0 456 325" xml:space="preserve">
<path fill="#1A1A1A" opacity="1.000000" stroke="none" 
	d="
M1.000000,292.000000 
	C1.000000,200.977997 1.000000,109.955978 1.367828,18.520714 
	C4.851641,9.231851 12.120358,4.789807 20.000000,1.000000 
	C158.355347,1.000000 296.710693,1.000000 435.690125,1.321854 
	C449.557922,6.816134 455.932220,15.262375 455.936859,28.041241 
	C455.967621,112.613602 455.969696,197.185989 455.943817,281.758362 
	C455.940002,294.274170 449.314545,303.689758 437.485718,307.939545 
	C433.766876,309.275665 429.836548,310.023163 425.541565,310.960175 
	C421.271545,310.902832 417.460571,311.016205 413.655426,310.914246 
	C411.321899,310.851715 410.100861,311.428711 410.873535,314.427887 
	C410.108215,318.356049 412.506561,322.637390 407.658081,325.114105 
	C391.069489,325.106598 374.953033,325.171021 358.542419,325.142151 
	C357.501740,324.365662 356.755249,323.682434 356.052490,322.536377 
	C356.096222,318.469330 356.096222,314.865051 356.096222,310.936768 
	C353.925171,310.936768 352.291626,310.936737 350.658081,310.936768 
	C269.594696,310.938202 188.531281,310.938599 107.467888,310.949066 
	C105.974945,310.949280 104.482025,311.069214 102.550339,311.072510 
	C101.390694,312.116028 100.202049,313.154266 100.034874,314.336884 
	C99.489281,318.196228 99.316307,322.108246 99.000000,326.000000 
	C98.555557,326.000000 98.111115,326.000000 97.099625,325.639343 
	C80.306305,325.253418 64.080025,325.228149 47.527435,325.022217 
	C46.287006,320.347565 45.372887,315.853516 44.379852,310.971527 
	C42.983334,310.971527 41.173203,311.121582 39.395794,310.944031 
	C33.515938,310.356750 27.582478,309.999939 21.789902,308.913330 
	C11.924340,307.062683 5.776827,300.290436 1.000000,292.000000 
M6.590000,34.518051 
	C6.590000,34.518051 6.827204,34.908131 6.681133,35.847374 
	C6.673733,117.279701 6.666106,198.712021 6.661576,280.144348 
	C6.661520,281.143066 6.675272,282.143158 6.726447,283.140320 
	C7.212218,292.605927 11.884065,299.399872 21.018711,301.897278 
	C27.182699,303.582550 33.740643,304.527649 40.130527,304.569916 
	C76.432068,304.810028 112.736107,304.703949 149.039230,304.662354 
	C166.348724,304.642517 183.658096,304.504913 201.876755,304.679016 
	C273.613403,304.692627 345.350037,304.710114 417.086670,304.695282 
	C418.722107,304.694946 420.357513,304.328888 422.835724,304.305634 
	C440.517731,303.022705 449.759430,296.210205 449.618439,275.664215 
	C449.074554,196.403854 449.417664,117.137398 449.429535,37.873211 
	C449.429657,37.040623 449.369324,36.204533 449.425690,35.376099 
	C449.609070,32.681667 448.214264,32.243633 445.091858,32.674290 
	C348.822815,32.663383 252.553757,32.650806 156.284698,32.642265 
	C108.150085,32.637997 60.015446,32.626068 11.880953,32.703156 
	C10.190907,32.705860 8.502331,33.626762 6.590000,34.518051 
M6.992394,25.607494 
	C7.555957,25.635378 8.119519,25.663261 9.412354,25.843342 
	C155.926163,25.843342 302.439972,25.843342 448.993591,25.843342 
	C448.131958,15.010741 440.808258,8.172400 428.536926,6.243034 
	C427.023346,6.183791 425.509735,6.124547 423.345520,5.856015 
	C422.896484,5.895585 422.447418,5.935155 421.354523,5.717071 
	C420.904968,5.782805 420.455383,5.848539 419.270294,5.684932 
	C418.511597,5.762157 417.752930,5.839381 416.089844,5.652660 
	C291.542725,5.638874 166.995636,5.619474 42.448524,5.634010 
	C37.962837,5.634533 33.477192,5.969494 28.226082,6.064492 
	C25.705194,6.755643 23.095860,7.223272 20.679787,8.179308 
	C13.032587,11.205292 7.641520,16.174744 6.992394,25.607494 
z"/>
<path fill="#FEFEFE" opacity="1.000000" stroke="none" 
	d="
M99.468658,326.000000 
	C99.316307,322.108246 99.489281,318.196228 100.034874,314.336884 
	C100.202049,313.154266 101.390694,312.116028 102.582642,311.475098 
	C104.828140,312.628082 106.600922,313.914642 108.377258,313.919586 
	C148.161163,314.029968 187.945450,313.996399 227.729675,313.996246 
	C268.013275,313.996094 308.297028,314.049500 348.580292,313.932220 
	C352.520905,313.920715 354.506378,314.730682 354.104919,319.117645 
	C353.992767,320.343140 355.334167,321.701691 356.008728,322.999207 
	C356.755249,323.682434 357.501740,324.365662 358.526184,325.345520 
	C358.804077,325.642151 359.000000,326.000000 359.000000,326.000000 
	C272.645782,326.000000 186.291550,326.000000 99.468658,326.000000 
z"/>
<path fill="#FDFDFD" opacity="1.000000" stroke="none" 
	d="
M408.130157,325.186035 
	C412.506561,322.637390 410.108215,318.356049 411.339264,314.425659 
	C415.186523,313.994751 418.507721,314.301361 421.727722,313.863617 
	C423.252594,313.656311 424.583984,312.025787 426.003052,311.040039 
	C429.836548,310.023163 433.766876,309.275665 437.485718,307.939545 
	C449.314545,303.689758 455.940002,294.274170 455.943817,281.758362 
	C455.969696,197.185989 455.967621,112.613602 455.936859,28.041241 
	C455.932220,15.262375 449.557922,6.816134 436.157104,1.321854 
	C442.992249,1.000000 449.984467,1.000000 456.942047,1.000000 
	C456.942047,109.333351 456.942047,217.666687 456.942047,326.000000 
	C440.901825,326.000000 424.919586,326.000000 408.528809,325.800934 
	C408.120331,325.601868 408.130157,325.186035 408.130157,325.186035 
z"/>
<path fill="#FDFDFD" opacity="1.000000" stroke="none" 
	d="
M1.000000,292.468658 
	C5.776827,300.290436 11.924340,307.062683 21.789902,308.913330 
	C27.582478,309.999939 33.515938,310.356750 39.395794,310.944031 
	C41.173203,311.121582 42.983334,310.971527 44.379852,310.971527 
	C45.372887,315.853516 46.287006,320.347565 47.510521,325.231323 
	C47.819923,325.621063 48.000000,326.000000 48.000000,326.000000 
	C32.418442,326.000000 16.836885,326.000000 1.000000,326.000000 
	C1.000000,314.980408 1.000000,303.958862 1.000000,292.468658 
z"/>
<path fill="#F9F9F9" opacity="1.000000" stroke="none" 
	d="
M19.530624,1.000000 
	C12.120358,4.789807 4.851641,9.231851 1.367828,18.053728 
	C1.000000,12.403369 1.000000,6.806738 1.000000,1.000000 
	C7.019274,1.000000 13.040261,1.000000 19.530624,1.000000 
z"/>
<path fill="#929292" opacity="1.000000" stroke="none" 
	d="
M48.468658,326.000000 
	C48.000000,326.000000 47.819923,325.621063 47.836838,325.411987 
	C64.080025,325.228149 80.306305,325.253418 96.766289,325.639343 
	C80.979103,326.000000 64.958214,326.000000 48.468658,326.000000 
z"/>
<path fill="#929292" opacity="1.000000" stroke="none" 
	d="
M407.658081,325.114105 
	C408.130157,325.186035 408.120331,325.601868 408.060181,325.800934 
	C391.979095,326.000000 375.958221,326.000000 359.468658,326.000000 
	C359.000000,326.000000 358.804077,325.642151 358.820312,325.438782 
	C374.953033,325.171021 391.069489,325.106598 407.658081,325.114105 
z"/>
<path fill="#FDFDFD" opacity="1.000000" stroke="none" 
	d="
M446.001038,32.921501 
	C448.214264,32.243633 449.609070,32.681667 449.425690,35.376099 
	C449.369324,36.204533 449.429657,37.040623 449.429535,37.873211 
	C449.417664,117.137398 449.074554,196.403854 449.618439,275.664215 
	C449.759430,296.210205 440.517731,303.022705 422.321381,303.820312 
	C419.824005,302.889557 417.841370,302.056610 415.857910,302.054718 
	C346.224213,301.987671 276.590485,301.998474 206.956726,302.000854 
	C205.624588,302.000885 204.196609,301.744781 202.993179,302.146667 
	C202.157959,302.425598 201.631775,303.629852 200.967514,304.420685 
	C183.658096,304.504913 166.348724,304.642517 149.039230,304.662354 
	C112.736107,304.703949 76.432068,304.810028 40.130527,304.569916 
	C33.740643,304.527649 27.182699,303.582550 21.018711,301.897278 
	C11.884065,299.399872 7.212218,292.605927 6.726447,283.140320 
	C6.675272,282.143158 6.661520,281.143066 6.661576,280.144348 
	C6.666106,198.712021 6.673733,117.279701 7.232766,35.332451 
	C152.639923,34.819942 297.495422,34.822224 442.350952,34.827015 
	C443.682220,34.827061 445.013519,34.866871 446.344482,34.853294 
	C446.390564,34.852825 446.480316,34.469128 446.452759,34.278011 
	C446.442078,34.203819 446.162323,34.168415 446.003540,33.816887 
	C446.001648,33.319454 446.001343,33.120480 446.001038,32.921501 
M283.118378,174.014236 
	C282.358948,174.918716 280.957642,175.812714 280.942688,176.729340 
	C280.833527,183.421829 281.002838,190.118851 281.228485,197.624527 
	C282.522491,198.083755 283.815979,198.942642 285.110626,198.944458 
	C333.081116,199.011887 381.051697,199.015503 429.022095,198.918137 
	C430.352173,198.915451 431.679810,197.714035 433.854095,196.934555 
	C436.704224,197.375977 437.007477,195.734375 436.968506,193.438278 
	C436.859924,187.042557 436.914429,180.644043 436.855896,173.434921 
	C434.766144,172.623489 432.678528,171.110199 430.586365,171.103912 
	C385.498260,170.968063 340.409698,171.000641 295.321198,171.000610 
	C292.326385,171.000610 289.323364,171.136887 286.339355,170.957108 
	C283.951508,170.813263 283.386047,171.761154 283.118378,174.014236 
M436.931610,61.112499 
	C436.931610,59.191982 436.931610,57.271465 436.931610,55.339420 
	C384.555969,55.339420 332.860718,55.339420 281.185181,55.339420 
	C281.185181,90.007652 281.185181,124.382408 281.185181,158.806229 
	C283.351044,158.911484 285.168762,158.999802 287.242950,159.841232 
	C288.427795,160.225357 289.612213,160.943832 290.797546,160.945358 
	C335.877197,161.003113 380.956940,161.011429 426.036438,160.915100 
	C427.362732,160.912277 428.686462,159.714737 430.867798,158.950623 
	C433.593231,158.668289 437.606628,160.416641 437.840546,154.766876 
	C438.224182,153.749359 438.940796,152.732544 438.942963,151.714218 
	C439.004211,122.970566 439.015839,94.226669 438.913269,65.483261 
	C438.909119,64.317078 437.715790,63.155132 436.931610,61.112499 
M215.172028,274.695190 
	C261.103729,241.448425 280.506470,196.869080 269.726868,140.995377 
	C256.659821,73.265274 188.601761,28.986483 120.862953,41.777454 
	C64.691162,52.384254 20.033440,101.295959 16.925491,159.180496 
	C14.659168,201.390060 29.164991,236.778793 61.010555,264.469421 
	C104.640808,302.407166 166.055084,306.339966 215.172028,274.695190 
M436.825623,212.846710 
	C435.094025,212.563889 433.362671,212.035538 431.630829,212.034027 
	C383.299469,211.992020 334.968048,212.003403 286.636658,212.005966 
	C284.844940,212.006058 283.053192,212.005966 281.211853,212.005966 
	C281.211853,219.794662 281.211853,227.142853 281.211853,234.455688 
	C333.242920,234.455688 384.837921,234.455688 436.932739,234.455688 
	C436.932739,227.366898 436.932739,220.581421 436.825623,212.846710 
M346.500183,249.702484 
	C324.741394,249.702484 302.982605,249.702484 281.099579,249.702484 
	C281.099579,257.495483 281.099579,264.738068 281.099579,272.077332 
	C333.093323,272.077332 384.810425,272.077332 436.646973,272.077332 
	C436.646973,264.565796 436.646973,257.339996 436.646973,249.702469 
	C406.751801,249.702469 377.126038,249.702469 346.500183,249.702484 
M425.442444,274.994049 
	C428.569672,274.994049 431.696930,274.994049 434.824158,274.994049 
	C434.817474,274.748871 434.810822,274.503662 434.804138,274.258484 
	C384.268402,274.258484 333.732635,274.258484 283.196899,274.258484 
	C283.196259,274.504303 283.195648,274.750092 283.195007,274.995911 
	C330.283295,274.995911 377.371552,274.995911 425.442444,274.994049 
z"/>
<path fill="#FEFEFE" opacity="1.000000" stroke="none" 
	d="
M421.998383,5.974723 
	C422.447418,5.935155 422.896484,5.895585 423.756409,6.311467 
	C425.804077,6.770226 427.440918,6.773533 429.077728,6.776840 
	C440.808258,8.172400 448.131958,15.010741 448.993591,25.843342 
	C302.439972,25.843342 155.926163,25.843342 8.663147,25.552311 
	C7.635036,25.170170 7.356132,25.079060 7.077228,24.987947 
	C7.641520,16.174744 13.032587,11.205292 20.679787,8.179308 
	C23.095860,7.223272 25.705194,6.755643 28.731770,6.482736 
	C31.767406,7.272358 34.297230,7.967666 36.827324,7.968637 
	C161.264450,8.016368 285.701599,8.004555 410.138733,7.997848 
	C411.637817,7.997767 413.194580,8.220015 414.615082,7.880744 
	C415.513275,7.666231 416.208160,6.600536 416.994232,5.916609 
	C417.752930,5.839381 418.511597,5.762157 419.679443,6.096105 
	C420.482758,6.838052 420.876984,7.168827 421.271179,7.499602 
	C421.513580,6.991309 421.755981,6.483015 421.998383,5.974723 
M444.889191,23.549788 
	C443.682983,23.379593 442.476776,23.209396 441.270599,23.039202 
	C441.249634,23.318266 441.228668,23.597330 441.207733,23.876394 
	C442.282288,23.876394 443.356842,23.876394 444.889191,23.549788 
M15.608813,23.157164 
	C14.744256,23.157164 13.879699,23.157164 13.015141,23.157164 
	C13.017387,23.401728 13.019633,23.646292 13.021880,23.890856 
	C14.000200,23.780022 14.978520,23.669188 15.608813,23.157164 
z"/>
<path fill="#F0F0F0" opacity="1.000000" stroke="none" 
	d="
M356.052490,322.536377 
	C355.334167,321.701691 353.992767,320.343140 354.104919,319.117645 
	C354.506378,314.730682 352.520905,313.920715 348.580292,313.932220 
	C308.297028,314.049500 268.013275,313.996094 227.729675,313.996246 
	C187.945450,313.996399 148.161163,314.029968 108.377258,313.919586 
	C106.600922,313.914642 104.828140,312.628082 103.021393,311.535889 
	C104.482025,311.069214 105.974945,310.949280 107.467888,310.949066 
	C188.531281,310.938599 269.594696,310.938202 350.658081,310.936768 
	C352.291626,310.936737 353.925171,310.936768 356.096222,310.936768 
	C356.096222,314.865051 356.096222,318.469330 356.052490,322.536377 
z"/>
<path fill="#F4F4F4" opacity="1.000000" stroke="none" 
	d="
M416.542053,5.784636 
	C416.208160,6.600536 415.513275,7.666231 414.615082,7.880744 
	C413.194580,8.220015 411.637817,7.997767 410.138733,7.997848 
	C285.701599,8.004555 161.264450,8.016368 36.827324,7.968637 
	C34.297230,7.967666 31.767406,7.272358 29.114494,6.524785 
	C33.477192,5.969494 37.962837,5.634533 42.448524,5.634010 
	C166.995636,5.619474 291.542725,5.638874 416.542053,5.784636 
z"/>
<path fill="#F4F4F4" opacity="1.000000" stroke="none" 
	d="
M201.422134,304.549866 
	C201.631775,303.629852 202.157959,302.425598 202.993179,302.146667 
	C204.196609,301.744781 205.624588,302.000885 206.956726,302.000854 
	C276.590485,301.998474 346.224213,301.987671 415.857910,302.054718 
	C417.841370,302.056610 419.824005,302.889557 421.899963,303.734192 
	C420.357513,304.328888 418.722107,304.694946 417.086670,304.695282 
	C345.350037,304.710114 273.613403,304.692627 201.422134,304.549866 
z"/>
<path fill="#BFBFBF" opacity="1.000000" stroke="none" 
	d="
M446.005096,34.115341 
	C446.162323,34.168415 446.442078,34.203819 446.452759,34.278011 
	C446.480316,34.469128 446.390564,34.852825 446.344482,34.853294 
	C445.013519,34.866871 443.682220,34.827061 442.350952,34.827015 
	C297.495422,34.822224 152.639923,34.819942 7.305801,34.862827 
	C6.827204,34.908131 6.590000,34.518051 7.181848,34.357193 
	C60.741116,34.188820 113.708534,34.183449 166.675949,34.173325 
	C259.785675,34.155529 352.895386,34.134827 446.005096,34.115341 
z"/>
<path fill="#FFFFFF" opacity="1.000000" stroke="none" 
	d="
M446.003540,33.816887 
	C352.895386,34.134827 259.785675,34.155529 166.675949,34.173325 
	C113.708534,34.183449 60.741116,34.188820 7.293383,34.158020 
	C8.502331,33.626762 10.190907,32.705860 11.880953,32.703156 
	C60.015446,32.626068 108.150085,32.637997 156.284698,32.642265 
	C252.553757,32.650806 348.822815,32.663383 445.546448,32.797897 
	C446.001343,33.120480 446.001648,33.319454 446.003540,33.816887 
z"/>
<path fill="#F0F0F0" opacity="1.000000" stroke="none" 
	d="
M425.541565,310.960205 
	C424.583984,312.025787 423.252594,313.656311 421.727722,313.863617 
	C418.507721,314.301361 415.186523,313.994751 411.441132,313.995728 
	C410.100861,311.428711 411.321899,310.851715 413.655426,310.914246 
	C417.460571,311.016205 421.271545,310.902832 425.541565,310.960205 
z"/>
<path fill="#F4F4F4" opacity="1.000000" stroke="none" 
	d="
M428.807312,6.509937 
	C427.440918,6.773533 425.804077,6.770226 424.081726,6.416111 
	C425.509735,6.124547 427.023346,6.183791 428.807312,6.509937 
z"/>
<path fill="#F4F4F4" opacity="1.000000" stroke="none" 
	d="
M421.676453,5.845896 
	C421.755981,6.483015 421.513580,6.991309 421.271179,7.499602 
	C420.876984,7.168827 420.482758,6.838052 420.047180,6.210775 
	C420.455383,5.848539 420.904968,5.782805 421.676453,5.845896 
z"/>
<path fill="#E3E3E3" opacity="1.000000" stroke="none" 
	d="
M7.034811,25.297722 
	C7.356132,25.079060 7.635036,25.170170 8.298511,25.476215 
	C8.119519,25.663261 7.555957,25.635378 7.034811,25.297722 
z"/>
<path fill="#191919" opacity="1.000000" stroke="none" 
	d="
M214.847794,274.854675 
	C166.055084,306.339966 104.640808,302.407166 61.010555,264.469421 
	C29.164991,236.778793 14.659168,201.390060 16.925491,159.180496 
	C20.033440,101.295959 64.691162,52.384254 120.862953,41.777454 
	C188.601761,28.986483 256.659821,73.265274 269.726868,140.995377 
	C280.506470,196.869080 261.103729,241.448425 214.847794,274.854675 
M252.342117,111.202644 
	C246.165588,102.455200 240.929382,92.819107 233.648743,85.115105 
	C203.153198,52.846233 165.326126,40.189346 121.828499,48.265690 
	C54.994686,60.674942 13.670400,124.490860 24.735405,188.627869 
	C34.359489,244.412735 83.285568,287.709076 139.827393,289.162323 
	C181.162292,290.224731 215.593765,275.081451 240.510742,242.214355 
	C271.172699,201.769226 274.427002,157.710861 252.342117,111.202644 
z"/>
<path fill="#161616" opacity="1.000000" stroke="none" 
	d="
M437.081573,155.009460 
	C437.606628,160.416641 433.593231,158.668289 429.977905,158.921692 
	C393.017853,158.886963 356.947662,158.864166 320.877502,158.885391 
	C309.580475,158.892029 298.283478,159.017212 286.986481,159.088135 
	C285.168762,158.999802 283.351044,158.911484 281.185181,158.806229 
	C281.185181,124.382408 281.185181,90.007652 281.185181,55.339420 
	C332.860718,55.339420 384.555969,55.339420 436.931610,55.339420 
	C436.931610,57.271465 436.931610,59.191982 436.906616,62.012199 
	C436.872742,70.712776 436.838531,78.513718 436.859711,86.314507 
	C436.921844,109.212860 437.006012,132.111145 437.081573,155.009460 
M285.804962,81.910706 
	C285.879974,105.277855 285.955017,128.645004 285.961670,152.527267 
	C286.041962,152.680771 286.122223,152.834259 286.252472,153.572525 
	C286.805023,153.537994 287.357544,153.503464 288.445099,153.649902 
	C288.620300,153.580948 288.795471,153.511978 289.879486,153.701569 
	C334.612427,153.710220 379.345337,153.720688 424.078278,153.715515 
	C425.063446,153.715408 426.048645,153.536560 427.822266,153.656754 
	C431.772980,154.536652 431.620483,152.014374 431.617432,149.301514 
	C431.585327,120.836685 431.617157,92.371788 431.606567,63.906918 
	C431.606110,62.662777 431.365753,61.418728 431.252258,60.320999 
	C382.612701,60.320999 334.407928,60.320999 286.016083,60.320999 
	C286.016083,67.394737 286.016083,74.194000 285.804962,81.910706 
z"/>
<path fill="#202020" opacity="1.000000" stroke="none" 
	d="
M436.879181,213.321320 
	C436.932739,220.581421 436.932739,227.366898 436.932739,234.455688 
	C384.837921,234.455688 333.242920,234.455688 281.211853,234.455688 
	C281.211853,227.142853 281.211853,219.794662 281.211853,212.005966 
	C283.053192,212.005966 284.844940,212.006058 286.636658,212.005966 
	C334.968048,212.003403 383.299469,211.992020 431.630829,212.034027 
	C433.362671,212.035538 435.094025,212.563889 436.879181,213.321320 
M337.499939,229.164764 
	C368.748108,229.164764 399.996277,229.164764 431.379639,229.164764 
	C431.379639,224.854874 431.379639,221.104813 431.379639,217.344009 
	C382.826721,217.344009 334.487732,217.344009 286.280792,217.344009 
	C286.280792,221.460968 286.280792,225.210648 286.280792,229.164764 
	C303.237274,229.164764 319.868591,229.164764 337.499939,229.164764 
z"/>
<path fill="#202020" opacity="1.000000" stroke="none" 
	d="
M436.904572,174.246643 
	C436.914429,180.644043 436.859924,187.042557 436.968506,193.438278 
	C437.007477,195.734375 436.704224,197.375977 432.970398,196.908844 
	C381.752563,196.860245 331.418396,196.837341 281.084229,196.814453 
	C281.002838,190.118851 280.833527,183.421829 280.942688,176.729340 
	C280.957642,175.812714 282.358948,174.918716 284.020203,174.014435 
	C332.420441,174.020203 379.918793,174.021713 427.417175,174.040558 
	C430.579681,174.041809 433.742096,174.174881 436.904572,174.246643 
M285.981873,180.495438 
	C286.019165,180.658554 286.056488,180.821671 285.923889,181.656067 
	C285.982849,182.109619 286.041809,182.563171 285.980011,183.934174 
	C285.980011,186.368423 285.980011,188.802689 285.980011,191.071289 
	C334.806061,191.071289 383.029144,191.071289 431.591736,191.071289 
	C431.591736,187.748306 431.510681,184.766983 431.615051,181.792175 
	C431.714905,178.946594 430.098267,178.918198 427.132202,179.177307 
	C402.370209,179.174988 377.608215,179.150269 352.846252,179.177017 
	C330.912567,179.200714 308.978912,179.281631 286.531677,179.132263 
	C286.406128,179.429596 286.280609,179.726913 285.981873,180.495438 
z"/>
<path fill="#161616" opacity="1.000000" stroke="none" 
	d="
M347.000214,249.702484 
	C377.126038,249.702469 406.751801,249.702469 436.646973,249.702469 
	C436.646973,257.339996 436.646973,264.565796 436.646973,272.077332 
	C384.810425,272.077332 333.093323,272.077332 281.099579,272.077332 
	C281.099579,264.738068 281.099579,257.495483 281.099579,249.702484 
	C302.982605,249.702484 324.741394,249.702484 347.000214,249.702484 
M429.089142,254.894272 
	C381.482697,254.894272 333.876251,254.894272 285.908234,254.894272 
	C285.908234,258.628754 285.803589,261.930115 286.003235,265.212952 
	C286.039825,265.814484 287.313538,266.340790 288.940186,267.056244 
	C336.405273,267.056244 383.870331,267.056244 431.764923,267.056244 
	C431.593597,263.246735 431.453613,260.134033 431.603455,256.439423 
	C431.073029,255.985519 430.542633,255.531601 429.089142,254.894272 
z"/>
<path fill="#F9F9F9" opacity="1.000000" stroke="none" 
	d="
M436.880249,173.840790 
	C433.742096,174.174881 430.579681,174.041809 427.417175,174.040558 
	C379.918793,174.021713 332.420441,174.020203 284.459351,173.933716 
	C283.386047,171.761154 283.951508,170.813263 286.339355,170.957108 
	C289.323364,171.136887 292.326385,171.000610 295.321198,171.000610 
	C340.409698,171.000641 385.498260,170.968063 430.586365,171.103912 
	C432.678528,171.110199 434.766144,172.623489 436.880249,173.840790 
z"/>
<path fill="#E9E9E9" opacity="1.000000" stroke="none" 
	d="
M281.156372,197.219482 
	C331.418396,196.837341 381.752563,196.860245 432.547668,196.977356 
	C431.679810,197.714035 430.352173,198.915451 429.022095,198.918137 
	C381.051697,199.015503 333.081116,199.011887 285.110626,198.944458 
	C283.815979,198.942642 282.522491,198.083755 281.156372,197.219482 
z"/>
<path fill="#E3E3E3" opacity="1.000000" stroke="none" 
	d="
M287.114716,159.464691 
	C298.283478,159.017212 309.580475,158.892029 320.877502,158.885391 
	C356.947662,158.864166 393.017853,158.886963 429.549683,158.983490 
	C428.686462,159.714737 427.362732,160.912277 426.036438,160.915100 
	C380.956940,161.011429 335.877197,161.003113 290.797546,160.945358 
	C289.612213,160.943832 288.427795,160.225357 287.114716,159.464691 
z"/>
<path fill="#E9E9E9" opacity="1.000000" stroke="none" 
	d="
M437.461060,154.888168 
	C437.006012,132.111145 436.921844,109.212860 436.859711,86.314507 
	C436.838531,78.513718 436.872742,70.712776 436.979065,62.451553 
	C437.715790,63.155132 438.909119,64.317078 438.913269,65.483261 
	C439.015839,94.226669 439.004211,122.970566 438.942963,151.714218 
	C438.940796,152.732544 438.224182,153.749359 437.461060,154.888168 
z"/>
<path fill="#DDDDDD" opacity="1.000000" stroke="none" 
	d="
M424.951141,274.994995 
	C377.371552,274.995911 330.283295,274.995911 283.195007,274.995911 
	C283.195648,274.750092 283.196259,274.504303 283.196899,274.258484 
	C333.732635,274.258484 384.268402,274.258484 434.804138,274.258484 
	C434.810822,274.503662 434.817474,274.748871 434.824158,274.994049 
	C431.696930,274.994049 428.569672,274.994049 424.951141,274.994995 
z"/>
<path fill="#E3E3E3" opacity="1.000000" stroke="none" 
	d="
M444.660278,23.713091 
	C443.356842,23.876394 442.282288,23.876394 441.207733,23.876394 
	C441.228668,23.597330 441.249634,23.318266 441.270599,23.039202 
	C442.476776,23.209396 443.682983,23.379593 444.660278,23.713091 
z"/>
<path fill="#E3E3E3" opacity="1.000000" stroke="none" 
	d="
M15.782827,23.357759 
	C14.978520,23.669188 14.000200,23.780022 13.021880,23.890856 
	C13.019633,23.646292 13.017387,23.401728 13.015141,23.157164 
	C13.879699,23.157164 14.744256,23.157164 15.782827,23.357759 
z"/>
<path fill="#F0F0F0" opacity="1.000000" stroke="none" 
	d="
M252.540222,111.516914 
	C274.427002,157.710861 271.172699,201.769226 240.510742,242.214355 
	C215.593765,275.081451 181.162292,290.224731 139.827393,289.162323 
	C83.285568,287.709076 34.359489,244.412735 24.735405,188.627869 
	C13.670400,124.490860 54.994686,60.674942 121.828499,48.265690 
	C165.326126,40.189346 203.153198,52.846233 233.648743,85.115105 
	C240.929382,92.819107 246.165588,102.455200 252.540222,111.516914 
M76.626221,94.100853 
	C76.856728,94.107658 77.087227,94.114456 77.006828,94.818344 
	C79.866066,98.363747 82.725311,101.909142 85.489487,105.336662 
	C88.010498,103.831589 89.799713,102.763405 91.588921,101.695221 
	C91.810173,102.013756 92.031425,102.332291 92.252678,102.650826 
	C90.877014,104.177338 89.501343,105.703842 87.700371,107.702301 
	C91.644341,110.880859 95.270767,113.803490 99.212097,117.295197 
	C99.552704,117.556793 99.893311,117.818390 100.128754,118.760216 
	C103.738663,122.576645 106.112343,128.036804 112.213409,128.566025 
	C112.127411,134.777283 118.552513,136.287323 120.494926,139.430527 
	C127.303207,136.981812 133.290390,134.859375 139.247604,132.655960 
	C140.266205,132.279205 141.156784,131.556366 142.696472,131.384354 
	C144.196487,133.436066 145.367096,135.453354 141.933456,136.191269 
	C141.711212,135.792175 141.352997,135.022247 141.286072,135.046783 
	C135.644592,137.115128 130.011398,139.210419 124.460297,141.503967 
	C124.250069,141.590851 124.850304,143.639297 124.945816,146.310791 
	C124.733437,147.837524 124.521057,149.364258 123.997299,150.335159 
	C122.481682,149.117661 120.966072,147.900162 118.312386,145.768448 
	C115.656471,152.240540 113.216599,158.186172 110.449516,164.929153 
	C115.739464,164.929153 119.355873,164.929153 123.006378,165.816315 
	C122.964989,167.295105 122.923592,168.773895 121.975121,170.208633 
	C118.595123,170.208633 115.215118,170.208633 110.160217,170.208633 
	C113.218277,177.396576 115.721199,183.279678 118.430870,189.648743 
	C121.224739,187.176117 123.043106,185.566818 125.448738,184.343048 
	C126.450760,185.304916 127.452782,186.266785 128.154633,187.865875 
	C126.621162,189.508255 125.087685,191.150635 123.384140,192.975159 
	C128.914185,197.824585 135.013321,200.178925 142.411789,201.362701 
	C143.958847,201.024734 145.505890,200.686768 147.660141,200.643021 
	C154.595749,200.286545 160.509781,197.565613 165.936539,193.013687 
	C163.857666,190.746506 161.995773,188.715988 161.174957,186.414383 
	C162.518753,185.921738 163.862534,185.429108 165.822510,185.147659 
	C166.856079,186.765106 167.889648,188.382538 168.923218,189.999985 
	C169.670120,189.660828 170.417023,189.321671 171.163925,188.982529 
	C173.398560,183.640701 175.633194,178.298874 178.716171,173.056946 
	C178.997070,173.103485 179.277985,173.150024 179.495193,174.000366 
	C177.264526,179.781998 175.033859,185.563629 172.660370,191.715439 
	C175.222321,194.330109 178.337051,197.508911 181.761124,201.003418 
	C189.178268,192.021729 193.871307,182.339661 194.134262,169.956741 
	C189.882935,169.956741 185.939606,169.956741 181.900833,169.260559 
	C181.300049,167.770767 180.699265,166.280975 181.012970,164.901413 
	C185.375320,164.901413 189.737671,164.901413 194.322266,164.901413 
	C193.397964,152.916351 189.373779,143.126221 182.283554,135.253387 
	C178.598969,138.499664 175.179077,141.512726 172.822540,143.588943 
	C175.301559,150.361084 177.425613,156.163513 178.654343,162.023788 
	C178.355850,162.042130 178.057358,162.060471 177.255600,161.543655 
	C175.226120,156.476334 173.196655,151.409012 170.948364,145.795349 
	C167.947037,148.107529 166.041931,149.575180 163.443207,150.909119 
	C162.232468,150.245895 161.021713,149.582657 160.078293,148.298965 
	C162.175735,146.533340 164.273178,144.767715 166.370621,143.002090 
	C166.276871,142.320862 166.183105,141.639618 166.089355,140.958389 
	C160.348068,138.842484 154.606796,136.726593 148.936279,133.705566 
	C148.965912,133.404373 148.995529,133.103195 149.851456,132.738037 
	C155.958832,134.937012 162.066208,137.135986 167.750244,139.182541 
	C170.699341,136.572510 174.116364,133.548370 177.576706,130.485886 
	C169.754120,123.408989 160.705292,119.690392 150.648132,118.060822 
	C149.714890,117.909607 148.970505,116.592796 149.097137,115.872566 
	C160.746552,116.579109 170.649216,121.492989 178.551361,127.942413 
	C182.341522,124.789833 185.858994,121.864067 189.479279,118.852791 
	C177.349167,107.818306 163.523102,102.353760 146.728699,101.187378 
	C147.283279,106.348427 147.795563,111.115974 148.643570,117.281288 
	C148.234283,117.530487 147.824997,117.779686 146.870102,117.106476 
	C145.291580,116.074203 143.713043,115.041931 141.944153,113.100571 
	C141.944153,109.194702 141.944153,105.288841 141.944153,101.275597 
	C130.936569,101.836441 121.295143,104.833046 111.931023,108.497383 
	C111.866714,108.134354 111.802414,107.771317 112.263451,106.991722 
	C121.909172,103.770454 131.554901,100.549179 141.626312,97.185745 
	C141.626312,93.984207 141.626312,89.570213 141.626312,85.015099 
	C123.467148,84.797668 108.181755,92.380173 92.256783,102.293823 
	C93.079765,100.143463 93.123772,99.377693 93.512932,99.105621 
	C107.971405,88.997177 123.905319,82.979675 141.699066,82.436150 
	C141.699066,77.463371 141.699066,73.025406 141.699066,68.276024 
	C140.015106,68.276024 138.497925,68.009254 137.109390,68.319099 
	C127.744682,70.408752 118.422028,72.688782 109.045921,74.723564 
	C107.540482,75.050262 105.835648,74.458252 105.044792,73.837265 
	C117.118713,70.620422 129.192642,67.403572 141.578430,64.103638 
	C141.578430,61.089214 141.578430,56.867214 141.578430,52.370937 
	C111.923141,53.674751 86.588966,64.082718 65.154137,84.255066 
	C68.012375,87.296295 70.507233,89.950890 73.006226,93.317940 
	C73.251022,94.030327 73.495819,94.742722 73.740623,95.455109 
	C74.471970,95.009872 75.203323,94.564636 76.626221,94.100853 
M104.666779,203.768829 
	C108.884811,199.510712 113.102852,195.252609 116.677673,191.643829 
	C113.649025,184.262344 110.866142,177.479828 108.000648,170.495987 
	C104.116501,170.495987 99.697617,170.495987 94.961090,170.495987 
	C95.230080,178.770920 97.806358,185.965302 101.571793,192.876694 
	C102.224648,194.075012 101.880524,195.816498 101.358421,196.975769 
	C96.759705,189.583923 93.503189,181.732269 92.739304,172.939758 
	C92.656036,171.981293 91.406860,170.400253 90.617424,170.348679 
	C86.570312,170.084320 82.496643,170.226318 78.161369,170.226318 
	C79.264107,186.840714 84.856468,200.663925 95.880424,212.652679 
	C98.824532,209.536469 101.419891,206.789368 104.666779,203.768829 
M205.206894,111.341171 
	C201.878799,114.486382 198.550690,117.631592 195.033035,120.955948 
	C206.667358,133.571320 212.263916,148.262238 213.418228,164.531723 
	C218.355759,164.531723 222.881104,164.531723 227.500793,164.531723 
	C226.981796,147.966934 221.462387,133.495316 213.375717,119.733070 
	C213.627655,119.380341 213.879593,119.027611 214.739029,119.025696 
	C224.427597,132.730972 228.930405,148.244919 230.073029,164.588440 
	C235.071411,164.588440 239.460022,164.588440 244.042007,164.588440 
	C243.412735,143.365311 236.414001,124.787521 224.749283,107.383064 
	C226.356415,108.743370 228.598419,109.786255 229.463882,111.517365 
	C233.883652,120.357941 238.741425,129.106812 241.900894,138.412384 
	C244.736649,146.764465 245.568619,155.796890 247.307632,164.646759 
	C251.170151,164.646759 255.410080,164.646759 259.996460,164.646759 
	C258.654785,135.028839 248.249847,109.684364 228.986481,89.163612 
	C225.301346,92.149895 222.000092,94.825096 218.652023,97.538246 
	C220.011551,99.171768 221.002060,100.277023 221.808914,101.503143 
	C221.869171,101.594711 220.614700,102.551468 219.722610,102.445152 
	C218.710526,101.491104 217.698456,100.537048 216.327652,99.244850 
	C213.108353,103.066673 210.204453,106.514069 206.794800,110.126602 
	C206.481277,110.536118 206.167740,110.945633 205.206894,111.341171 
M180.277740,92.845909 
	C169.903229,87.953453 159.134644,84.825218 147.481018,85.019989 
	C147.481018,89.925224 147.481018,94.314407 147.481018,98.833549 
	C164.278839,100.030006 178.889496,105.862091 191.721176,117.542618 
	C193.765732,115.226524 195.744980,113.203766 197.453232,110.973450 
	C198.623291,109.445831 199.416092,107.629257 200.929092,105.910339 
	C201.308197,105.541931 201.687302,105.173523 202.754593,104.928467 
	C206.074097,101.625313 209.393600,98.322151 213.175766,94.892265 
	C213.454208,94.358360 213.732651,93.824455 214.739136,93.330978 
	C217.820694,90.396675 220.902252,87.462372 224.233810,84.290001 
	C202.410431,64.098206 177.104614,53.543961 147.453232,52.369560 
	C147.453232,56.985283 147.453232,61.209648 147.453232,65.664986 
	C162.837814,66.675293 177.490143,69.761749 190.971970,77.864410 
	C190.947235,78.359924 190.922501,78.855446 190.186661,79.161064 
	C176.730133,72.479424 162.622589,68.511665 147.498306,68.279785 
	C147.498306,73.311821 147.498306,77.705139 147.498306,82.364716 
	C159.373795,83.237045 170.747696,85.031181 181.039505,91.574806 
	C181.024277,92.020485 181.009048,92.466156 180.277740,92.845909 
M183.423508,223.586502 
	C177.726715,226.713898 172.282730,230.513336 166.261536,232.778290 
	C160.326157,235.010941 153.806259,235.689667 147.592529,237.039368 
	C147.592529,241.508636 147.592529,246.036835 147.592529,250.768188 
	C168.379044,249.375504 186.184464,242.333542 200.315811,229.044159 
	C197.008270,225.250702 194.098770,221.913788 191.220627,218.612808 
	C189.716568,219.642242 188.359802,220.570847 186.376450,221.067993 
	C187.155426,219.513214 187.934402,217.958435 188.608185,216.613602 
	C185.719910,213.431213 182.648880,210.047455 179.404739,206.472946 
	C170.150436,214.915543 159.231903,218.721069 147.477448,219.945114 
	C147.477448,224.872360 147.477448,229.287262 147.477448,234.043976 
	C158.607330,233.604858 168.549347,230.463440 177.917877,225.178329 
	C179.723175,224.159897 181.809998,223.640533 183.423508,223.586502 
M77.001625,241.757339 
	C76.957626,242.313538 76.913628,242.869751 76.256119,243.095673 
	C75.260399,242.980652 73.818390,242.386108 73.342186,242.829315 
	C70.493095,245.480927 67.866417,248.371521 64.997673,251.356232 
	C87.108986,271.108582 112.101540,282.155243 141.660843,282.996552 
	C141.660843,278.283295 141.660843,274.058746 141.660843,269.604156 
	C140.288712,269.444061 139.163757,269.238373 138.032303,269.192322 
	C126.122101,268.707642 114.747688,265.853760 103.902657,261.050690 
	C100.382385,259.491608 97.260841,257.032227 94.290634,254.079819 
	C96.683907,255.167709 99.090271,256.227783 101.468262,257.348145 
	C114.160408,263.327728 127.375198,267.007721 141.638214,266.969482 
	C141.638214,262.113037 141.638214,257.716980 141.638214,253.093918 
	C120.325294,251.872437 101.819389,244.339630 85.623016,229.528625 
	C82.592575,233.547501 79.812592,237.234222 77.001625,241.757339 
M62.993607,110.740173 
	C51.892578,126.985970 45.820713,144.848328 45.098907,164.729568 
	C50.111362,164.729568 54.544529,164.729568 59.442368,164.729568 
	C59.785400,148.737274 64.929420,134.353439 73.738892,120.680450 
	C73.927490,121.646881 74.564323,122.823883 74.226494,123.543015 
	C72.821152,126.534508 70.941711,129.305222 69.563652,132.307236 
	C64.857529,142.559204 61.762104,153.197708 61.953613,164.662766 
	C66.854111,164.662766 71.270950,164.662766 75.819122,164.662766 
	C76.928322,147.856247 82.972244,133.308167 93.458351,121.560814 
	C90.230423,117.864609 87.293106,114.501175 84.864433,111.720169 
	C82.382553,112.685829 80.552101,113.398026 78.887550,113.413445 
	C79.947395,112.020355 81.007240,110.627258 82.339966,108.875488 
	C78.762711,105.699181 75.388428,102.703094 71.918762,99.157814 
	C71.345276,98.768562 70.771790,98.379303 70.059204,97.299950 
	C67.222221,94.319138 64.385231,91.338326 61.246319,88.040291 
	C40.996487,109.774849 30.561646,135.118561 29.259588,164.563110 
	C34.006687,164.563110 38.375645,164.563110 42.668419,164.563110 
	C44.010265,143.933762 49.378273,125.086136 62.192223,109.283524 
	C62.547352,109.551628 62.902485,109.819740 62.993607,110.740173 
M222.211304,231.312881 
	C222.567413,231.572128 222.923523,231.831360 222.995041,232.719818 
	C221.552612,234.451309 220.110184,236.182800 219.091614,237.405472 
	C222.516068,240.806549 225.431854,243.702423 228.545929,246.795242 
	C248.243698,225.434738 258.831055,200.152603 259.955322,170.478485 
	C255.253632,170.478485 251.042267,170.478485 246.501282,170.478485 
	C245.765915,186.315918 242.264786,201.193680 233.952469,214.942062 
	C233.429123,214.914291 232.905792,214.886536 232.666183,214.158264 
	C239.617188,200.435410 243.948410,186.076553 243.913925,170.441681 
	C238.991364,170.441681 234.720520,170.441681 230.069595,170.441681 
	C228.769440,191.663971 221.516693,210.313446 207.209213,225.742340 
	C210.623169,229.119125 213.853928,232.314682 217.041367,235.467407 
	C218.611664,233.932877 220.253494,232.328415 222.211304,231.312881 
M80.584549,222.677368 
	C83.372055,223.860352 85.546524,223.485062 87.601860,220.904938 
	C89.431625,218.607971 91.910851,216.828369 94.296997,214.643173 
	C82.566803,201.842819 76.932182,186.952621 75.729370,170.433136 
	C70.840637,170.433136 66.577774,170.433136 61.676754,170.433136 
	C61.992298,173.964966 62.111198,177.238907 62.603287,180.455750 
	C64.403557,192.224167 68.738953,203.026352 75.062256,213.105209 
	C75.822807,214.317474 78.954712,216.395996 74.910973,217.231842 
	C65.341545,203.104568 59.917477,187.534103 59.317062,170.196686 
	C56.502113,170.196686 54.354733,170.196701 52.207348,170.196701 
	C49.940506,170.196701 47.673668,170.196686 45.026833,170.196686 
	C46.246758,195.896332 55.178135,217.544083 71.689194,235.286240 
	C75.206329,232.017410 78.549858,228.909958 81.862389,225.831284 
	C81.159927,224.828369 80.505981,223.894714 80.584549,222.677368 
M203.079468,199.275055 
	C207.656235,190.240982 210.842300,180.859512 210.801071,170.509735 
	C205.859360,170.509735 201.465866,170.509735 196.714401,170.509735 
	C195.877609,182.802765 191.329941,193.395508 182.968811,203.245590 
	C187.565781,206.766418 191.768326,209.985138 195.444305,213.658142 
	C195.486465,214.088333 195.528610,214.518509 196.099762,215.416138 
	C198.898605,218.435181 201.697449,221.454224 204.802521,224.803604 
	C219.179840,208.846832 226.780533,191.219299 227.482178,170.512726 
	C222.427277,170.512726 218.025009,170.512726 213.464813,170.512726 
	C212.493103,181.082352 210.547470,191.073929 204.361038,200.025940 
	C203.894608,200.014618 203.428192,200.003296 203.079468,199.275055 
M202.922592,249.364944 
	C202.946487,249.888901 202.970383,250.412857 202.492493,251.396774 
	C186.016296,263.211029 167.350525,268.634766 147.179657,269.615234 
	C147.179657,272.264130 147.179657,274.254486 147.179657,276.244873 
	C147.179657,278.354309 147.179657,280.463715 147.179657,283.079468 
	C177.103592,281.814392 202.431534,271.348206 223.632584,251.687576 
	C220.505447,248.330811 217.613129,245.226089 214.746307,242.148743 
	C213.236420,242.993576 211.843933,243.772705 210.451447,244.551834 
	C210.232697,244.235962 210.013931,243.920105 209.795166,243.604248 
	C210.702911,242.365189 211.610641,241.126114 212.235184,240.273621 
	C209.067230,236.787201 205.990616,233.401306 202.903488,230.003845 
	C187.028564,244.815170 168.294739,251.812180 147.414093,253.194366 
	C147.414093,258.061157 147.414093,262.328613 147.414093,266.948792 
	C148.943542,266.948792 150.233200,267.011566 151.514404,266.934265 
	C153.502365,266.814301 155.492432,266.661743 157.467972,266.414185 
	C174.117325,264.327637 189.062286,257.887085 202.922592,249.364944 
M53.348209,213.074448 
	C46.678288,199.693634 43.421120,185.420044 42.649994,170.548553 
	C37.997459,170.548553 33.763378,170.548553 29.192831,170.548553 
	C30.598423,200.220840 40.922001,225.647491 60.450272,246.451309 
	C64.015312,243.393967 67.257751,240.613281 69.769722,238.459045 
	C64.177002,229.818008 58.964207,221.763977 53.348209,213.074448 
M119.755203,231.918945 
	C112.289337,227.707367 104.823471,223.495789 97.360893,219.286057 
	C94.724648,222.017563 91.636879,225.216919 88.341660,228.631226 
	C103.325684,242.221603 120.983879,249.678696 141.631195,250.622650 
	C141.631195,245.686172 141.631195,241.116714 141.631195,237.242798 
	C134.289490,235.455475 127.405945,233.779694 119.755203,231.918945 
M83.064232,142.664581 
	C81.187050,149.887680 79.309868,157.110779 77.369667,164.576340 
	C83.378128,164.576340 87.942963,164.576340 92.585785,164.576340 
	C93.411301,152.318344 98.072723,141.960205 105.123444,133.211502 
	C101.905281,129.740982 98.802940,126.395363 94.943520,122.233299 
	C90.861916,129.149689 87.089050,135.542923 83.064232,142.664581 
M192.451782,147.128403 
	C194.120377,152.968750 195.788956,158.809082 197.468933,164.689301 
	C201.721817,164.689301 206.166534,164.689301 211.042130,164.689301 
	C209.899139,148.542603 204.433975,134.668839 194.039734,123.557465 
	C190.395920,126.813591 187.094727,129.763565 184.034302,132.498383 
	C186.828445,137.300812 189.484055,141.865158 192.451782,147.128403 
M134.318359,233.237701 
	C136.711533,233.511475 139.104706,233.785248 141.715515,234.083908 
	C141.715515,228.983597 141.715515,224.554855 141.715515,219.870224 
	C129.521240,218.881836 118.857643,214.444229 110.291374,207.132339 
	C106.533157,210.465286 103.217133,213.406082 99.702629,216.522888 
	C109.653732,225.376175 120.610329,231.145111 134.318359,233.237701 
M155.561325,216.203751 
	C163.938507,214.374496 171.310318,210.695435 177.236740,205.074081 
	C173.867828,201.506149 170.810593,198.268311 168.435928,195.753342 
	C161.149902,198.703751 154.347488,201.458328 147.499969,204.231171 
	C147.499969,208.262619 147.499969,212.659454 147.499969,217.448349 
	C150.192719,217.101715 152.475281,216.807877 155.561325,216.203751 
M99.272614,146.910599 
	C97.590919,152.672226 95.909225,158.433838 94.098518,164.637466 
	C99.897446,164.637466 104.433769,164.637466 108.012405,164.637466 
	C110.996353,157.410294 113.731842,150.784897 116.575684,143.897064 
	C113.936089,141.210205 110.830688,138.049225 107.141335,134.293808 
	C104.506210,138.512726 102.085777,142.387924 99.272614,146.910599 
M139.739716,202.927567 
	C133.483185,200.617966 127.226669,198.308350 122.026894,196.388855 
	C118.719093,199.124969 115.220413,202.018982 111.599510,205.014099 
	C120.637726,212.458374 130.243210,216.872131 142.594040,217.281342 
	C141.866135,212.106522 141.230331,207.586380 139.739716,202.927567 
M145.003143,107.830315 
	C144.905350,107.243805 144.807556,106.657288 144.709747,106.070778 
	C144.573395,106.084442 144.437027,106.098106 144.300674,106.111771 
	C144.300674,107.670418 144.300674,109.229073 144.300674,110.787727 
	C144.496048,110.790535 144.691406,110.793350 144.886780,110.796158 
	C144.926224,110.030327 144.965668,109.264503 145.003143,107.830315 
M144.549088,205.115646 
	C144.371994,206.663467 144.194901,208.211273 144.017807,209.759094 
	C144.314133,209.771317 144.610474,209.783539 144.906815,209.795746 
	C144.906815,208.400024 144.906815,207.004288 144.549088,205.115646 
z"/>
<path fill="#FEFEFE" opacity="1.000000" stroke="none" 
	d="
M286.202484,152.987732 
	C286.122223,152.834259 286.041962,152.680771 286.354645,152.107452 
	C287.101501,150.847214 287.762024,150.007690 287.764435,149.166290 
	C287.825470,127.638458 287.846680,106.110306 287.744934,84.582825 
	C287.739258,83.383606 286.618042,82.189659 286.016083,80.993263 
	C286.016083,74.194000 286.016083,67.394737 286.016083,60.320999 
	C334.407928,60.320999 382.612701,60.320999 431.252258,60.320999 
	C431.365753,61.418728 431.606110,62.662777 431.606567,63.906918 
	C431.617157,92.371788 431.585327,120.836685 431.617432,149.301514 
	C431.620483,152.014374 431.772980,154.536652 427.383057,153.173126 
	C425.567047,152.127014 424.191254,151.075775 422.813354,151.072998 
	C379.799286,150.986511 336.784943,150.975983 293.771088,151.105347 
	C292.168610,151.110168 290.570709,152.629486 288.970673,153.443024 
	C288.795471,153.511978 288.620300,153.580948 288.006836,153.403412 
	C287.113220,153.100510 286.657867,153.044113 286.202484,152.987732 
z"/>
<path fill="#F4F4F4" opacity="1.000000" stroke="none" 
	d="
M289.425079,153.572296 
	C290.570709,152.629486 292.168610,151.110168 293.771088,151.105347 
	C336.784943,150.975983 379.799286,150.986511 422.813354,151.072998 
	C424.191254,151.075775 425.567047,152.127014 426.988831,153.065308 
	C426.048645,153.536560 425.063446,153.715408 424.078278,153.715515 
	C379.345337,153.720688 334.612427,153.710220 289.425079,153.572296 
z"/>
<path fill="#BFBFBF" opacity="1.000000" stroke="none" 
	d="
M285.910522,81.451981 
	C286.618042,82.189659 287.739258,83.383606 287.744934,84.582825 
	C287.846680,106.110306 287.825470,127.638458 287.764435,149.166290 
	C287.762024,150.007690 287.101501,150.847214 286.388855,151.849884 
	C285.955017,128.645004 285.879974,105.277855 285.910522,81.451981 
z"/>
<path fill="#F4F4F4" opacity="1.000000" stroke="none" 
	d="
M286.227478,153.280121 
	C286.657867,153.044113 287.113220,153.100510 287.739349,153.312927 
	C287.357544,153.503464 286.805023,153.537994 286.227478,153.280121 
z"/>
<path fill="#FEFEFE" opacity="1.000000" stroke="none" 
	d="
M336.999939,229.164764 
	C319.868591,229.164764 303.237274,229.164764 286.280792,229.164764 
	C286.280792,225.210648 286.280792,221.460968 286.280792,217.344009 
	C334.487732,217.344009 382.826721,217.344009 431.379639,217.344009 
	C431.379639,221.104813 431.379639,224.854874 431.379639,229.164764 
	C399.996277,229.164764 368.748108,229.164764 336.999939,229.164764 
z"/>
<path fill="#FEFEFE" opacity="1.000000" stroke="none" 
	d="
M428.055664,179.389175 
	C430.098267,178.918198 431.714905,178.946594 431.615051,181.792175 
	C431.510681,184.766983 431.591736,187.748306 431.591736,191.071289 
	C383.029144,191.071289 334.806061,191.071289 285.980011,191.071289 
	C285.980011,188.802689 285.980011,186.368423 286.502319,183.457367 
	C330.735474,182.973053 374.446350,182.979950 418.157074,182.917114 
	C420.428772,182.913849 422.699585,182.315857 425.266388,182.122467 
	C426.372345,182.501160 427.182770,182.752090 428.226837,182.903900 
	C428.640961,182.180725 428.821442,181.556686 428.910095,180.725098 
	C428.564117,180.141418 428.309875,179.765289 428.055664,179.389175 
z"/>
<path fill="#FEFEFE" opacity="1.000000" stroke="none" 
	d="
M427.993164,183.003036 
	C427.182770,182.752090 426.372345,182.501160 424.958618,181.848480 
	C422.377899,181.304657 420.400604,181.040253 418.423065,181.038498 
	C374.614990,180.999496 330.806885,180.989517 286.998657,180.793335 
	C286.998505,180.612671 287.002625,180.250732 287.029053,180.023102 
	C287.055450,179.795471 287.045258,179.337296 287.045258,179.337296 
	C308.978912,179.281631 330.912567,179.200714 352.846252,179.177017 
	C377.608215,179.150269 402.370209,179.174988 427.593933,179.283234 
	C428.309875,179.765289 428.564117,180.141418 428.675171,180.915970 
	C428.352386,181.877289 428.172791,182.440155 427.993164,183.003036 
z"/>
<path fill="#E3E3E3" opacity="1.000000" stroke="none" 
	d="
M286.998779,180.973999 
	C330.806885,180.989517 374.614990,180.999496 418.423065,181.038498 
	C420.400604,181.040253 422.377899,181.304657 424.663055,181.720734 
	C422.699585,182.315857 420.428772,182.913849 418.157074,182.917114 
	C374.446350,182.979950 330.735474,182.973053 286.562744,182.998627 
	C286.041809,182.563171 285.982849,182.109619 286.235321,181.335144 
	C286.546753,181.014236 286.998779,180.973999 286.998779,180.973999 
z"/>
<path fill="#E3E3E3" opacity="1.000000" stroke="none" 
	d="
M286.788452,179.234772 
	C287.045258,179.337296 287.055450,179.795471 286.820679,179.951431 
	C286.585907,180.107391 286.155060,180.024246 286.155060,180.024246 
	C286.280609,179.726913 286.406128,179.429596 286.788452,179.234772 
z"/>
<path fill="#FEFEFE" opacity="1.000000" stroke="none" 
	d="
M286.068481,180.259842 
	C286.155060,180.024246 286.585907,180.107391 286.794250,180.179062 
	C287.002625,180.250732 286.998505,180.612671 286.998657,180.793335 
	C286.998779,180.973999 286.546753,181.014236 286.320312,180.999512 
	C286.056488,180.821671 286.019165,180.658554 286.068481,180.259842 
z"/>
<path fill="#FFFFFF" opacity="1.000000" stroke="none" 
	d="
M431.313599,257.021301 
	C431.453613,260.134033 431.593597,263.246735 431.764923,267.056244 
	C383.870331,267.056244 336.405273,267.056244 288.465393,266.528076 
	C288.094238,255.519302 286.734253,257.035278 296.956818,257.023560 
	C341.331665,256.972626 385.706604,257.011261 430.286224,257.013000 
	C430.765167,257.010773 431.039398,257.014954 431.313599,257.021301 
z"/>
<path fill="#E3E3E3" opacity="1.000000" stroke="none" 
	d="
M430.081512,257.017334 
	C385.706604,257.011261 341.331665,256.972626 296.956818,257.023560 
	C286.734253,257.035278 288.094238,255.519302 288.003418,266.450867 
	C287.313538,266.340790 286.039825,265.814484 286.003235,265.212952 
	C285.803589,261.930115 285.908234,258.628754 285.908234,254.894272 
	C333.876251,254.894272 381.482697,254.894272 429.545258,255.309418 
	C430.028107,256.155487 430.054810,256.586395 430.081512,257.017334 
z"/>
<path fill="#FDFDFD" opacity="1.000000" stroke="none" 
	d="
M430.286224,257.013000 
	C430.054810,256.586395 430.028107,256.155487 430.006775,255.401123 
	C430.542633,255.531601 431.073029,255.985519 431.458527,256.730347 
	C431.039398,257.014954 430.765167,257.010773 430.286224,257.013000 
z"/>
<path fill="#151515" opacity="1.000000" stroke="none" 
	d="
M202.878555,248.579376 
	C189.062286,257.887085 174.117325,264.327637 157.467972,266.414185 
	C155.492432,266.661743 153.502365,266.814301 151.514404,266.934265 
	C150.233200,267.011566 148.943542,266.948792 147.414093,266.948792 
	C147.414093,262.328613 147.414093,258.061157 147.414093,253.194366 
	C168.294739,251.812180 187.028564,244.815170 202.903488,230.003845 
	C205.990616,233.401306 209.067230,236.787201 212.235184,240.273621 
	C211.610641,241.126114 210.702911,242.365189 209.795166,243.604248 
	C210.013931,243.920105 210.232697,244.235962 210.451447,244.551834 
	C211.843933,243.772705 213.236420,242.993576 214.746307,242.148743 
	C217.613129,245.226089 220.505447,248.330811 223.632584,251.687576 
	C202.431534,271.348206 177.103592,281.814392 147.179657,283.079468 
	C147.179657,280.463715 147.179657,278.354309 147.179657,276.244873 
	C147.179657,274.254486 147.179657,272.264130 147.179657,269.615234 
	C167.350525,268.634766 186.016296,263.211029 203.080841,251.104706 
	C206.153702,248.681198 208.638245,246.549774 211.122787,244.418350 
	C210.694595,243.936737 210.266388,243.455139 209.838181,242.973526 
	C207.518311,244.842148 205.198441,246.710770 202.878555,248.579376 
z"/>
<path fill="#151515" opacity="1.000000" stroke="none" 
	d="
M98.897194,116.726120 
	C95.270767,113.803490 91.644341,110.880859 87.700371,107.702301 
	C89.501343,105.703842 90.877014,104.177338 92.252678,102.650826 
	C92.031425,102.332291 91.810173,102.013756 91.588921,101.695221 
	C89.799713,102.763405 88.010498,103.831589 85.489487,105.336662 
	C82.725311,101.909142 79.866066,98.363747 77.472183,94.362091 
	C81.999580,90.806511 85.899681,87.458687 90.168533,84.676689 
	C94.573639,81.805870 99.351959,79.511070 103.937469,76.912163 
	C105.860497,75.822250 105.825958,75.761307 104.048508,74.441872 
	C104.101967,74.389977 104.222992,74.290932 104.222992,74.290932 
	C105.835648,74.458252 107.540482,75.050262 109.045921,74.723564 
	C118.422028,72.688782 127.744682,70.408752 137.109390,68.319099 
	C138.497925,68.009254 140.015106,68.276024 141.699066,68.276024 
	C141.699066,73.025406 141.699066,77.463371 141.699066,82.436150 
	C123.905319,82.979675 107.971405,88.997177 93.512932,99.105621 
	C93.123772,99.377693 93.079765,100.143463 92.256783,102.293823 
	C108.181755,92.380173 123.467148,84.797668 141.626312,85.015099 
	C141.626312,89.570213 141.626312,93.984207 141.626312,97.185745 
	C131.554901,100.549179 121.909172,103.770454 111.662415,107.325142 
	C110.533775,108.100220 110.006157,108.541885 109.499542,108.976387 
	C109.520546,108.969231 109.524117,108.924995 109.196922,108.960480 
	C108.560341,109.282890 108.250961,109.569809 107.603943,109.939110 
	C104.476601,112.256371 101.686897,114.491249 98.897194,116.726120 
z"/>
<path fill="#FDFDFD" opacity="1.000000" stroke="none" 
	d="
M124.308678,150.890991 
	C124.521057,149.364258 124.733437,147.837524 125.330795,145.687805 
	C128.107132,146.606888 130.498474,148.148956 133.096313,149.995468 
	C136.914459,151.915009 138.557129,149.625214 140.187073,146.734848 
	C140.890625,146.355133 141.400528,146.166763 142.137329,146.118195 
	C142.841476,146.438843 143.318726,146.619705 143.795975,146.800568 
	C143.242294,146.197388 142.688614,145.594223 142.055862,144.553467 
	C142.020813,141.746552 142.064835,139.377213 142.108856,137.007858 
	C145.367096,135.453354 144.196487,133.436066 142.334229,130.746719 
	C142.021606,126.879372 142.071243,123.649666 142.629059,120.476746 
	C144.411972,120.035667 145.686676,119.537788 147.042419,119.438293 
	C147.385635,124.009689 147.647842,128.182693 148.260635,132.921600 
	C148.052414,134.139114 147.493637,134.790726 146.817108,135.006531 
	C146.230026,134.613007 145.760681,134.655258 145.291336,134.697510 
	C145.843521,135.182922 146.395721,135.668335 147.027405,136.696640 
	C146.969635,140.159271 146.832367,143.078995 146.551743,145.832184 
	C146.277130,145.622253 146.145874,145.578873 146.014618,145.535492 
	C146.231018,145.708206 146.447418,145.880920 146.987030,145.911743 
	C150.314163,146.995102 153.272964,148.357941 156.347916,149.366684 
	C157.345947,149.694092 158.647995,149.094833 159.810974,148.919434 
	C161.021713,149.582657 162.232468,150.245895 163.620331,151.314575 
	C163.239716,152.666122 162.008102,153.840027 162.237915,154.519897 
	C163.389679,157.927200 164.857071,161.236908 166.400085,164.492493 
	C166.617981,164.952225 167.860580,164.926270 168.472748,165.589539 
	C168.209717,167.351746 168.102814,168.649521 167.649170,170.061127 
	C165.572525,173.465393 163.842590,176.755829 161.845215,180.054169 
	C161.209061,180.461594 160.840302,180.861099 160.471558,181.260620 
	C160.942719,181.179779 161.413895,181.098953 162.044861,181.297699 
	C163.205215,182.697006 164.205780,183.816742 165.206329,184.936462 
	C163.862534,185.429108 162.518753,185.921738 160.421387,186.404312 
	C158.482559,186.214142 157.297302,186.034042 155.998764,185.516998 
	C154.971664,185.901855 154.057831,186.623657 152.913422,187.602112 
	C150.791122,188.573135 148.899384,189.287476 146.707550,189.909515 
	C145.702011,191.454773 144.996552,193.092331 143.998413,195.409302 
	C143.998413,193.322861 144.190033,191.760681 143.895157,190.296478 
	C143.791000,189.779251 142.498596,189.501328 141.385315,189.100723 
	C138.668167,187.954193 136.314407,186.821091 133.929840,185.385437 
	C133.774292,184.802216 133.649521,184.521515 133.524750,184.240829 
	C133.637817,184.744598 133.750885,185.248352 133.468292,185.847198 
	C131.533371,186.371078 129.994080,186.799881 128.454803,187.228668 
	C127.452782,186.266785 126.450760,185.304916 125.287109,183.820786 
	C125.449844,181.816360 126.312401,180.202744 125.988983,178.878830 
	C125.267815,175.926636 123.954338,173.119141 122.882202,170.252686 
	C122.923592,168.773895 122.964989,167.295105 123.060249,165.010422 
	C123.862579,162.056870 124.157333,159.567703 125.459900,157.837097 
	C127.731247,154.819382 126.553291,152.891434 124.308678,150.890991 
M144.850052,130.277008 
	C144.943512,130.276306 145.036957,130.275604 144.850052,130.277008 
z"/>
<path fill="#151515" opacity="1.000000" stroke="none" 
	d="
M195.970871,213.203873 
	C191.768326,209.985138 187.565781,206.766418 182.968811,203.245590 
	C191.329941,193.395508 195.877609,182.802765 196.714401,170.509735 
	C201.465866,170.509735 205.859360,170.509735 210.801071,170.509735 
	C210.842300,180.859512 207.656235,190.240982 202.742264,199.801056 
	C201.603012,201.810638 200.800964,203.294235 199.690430,205.003357 
	C198.159760,207.082657 196.937592,208.936447 195.715424,210.790237 
	C196.205963,211.136047 196.696518,211.481857 197.187073,211.827682 
	C198.611740,209.933014 200.036407,208.038345 201.725830,205.958664 
	C203.014038,203.857605 204.037476,201.941528 205.060898,200.025452 
	C210.547470,191.073929 212.493103,181.082352 213.464813,170.512726 
	C218.025009,170.512726 222.427277,170.512726 227.482178,170.512726 
	C226.780533,191.219299 219.179840,208.846832 204.802521,224.803604 
	C201.697449,221.454224 198.898605,218.435181 195.805206,214.999481 
	C195.664047,214.123169 195.817459,213.663528 195.970871,213.203873 
z"/>
<path fill="#151515" opacity="1.000000" stroke="none" 
	d="
M219.971405,103.106018 
	C220.614700,102.551468 221.869171,101.594711 221.808914,101.503143 
	C221.002060,100.277023 220.011551,99.171768 218.652023,97.538246 
	C222.000092,94.825096 225.301346,92.149895 228.986481,89.163612 
	C248.249847,109.684364 258.654785,135.028839 259.996460,164.646759 
	C255.410080,164.646759 251.170151,164.646759 247.307632,164.646759 
	C245.568619,155.796890 244.736649,146.764465 241.900894,138.412384 
	C238.741425,129.106812 233.883652,120.357941 229.463882,111.517365 
	C228.598419,109.786255 226.356415,108.743370 224.212997,107.599091 
	C221.283585,107.156601 219.386734,106.107582 219.971405,103.106018 
z"/>
<path fill="#151515" opacity="1.000000" stroke="none" 
	d="
M234.738098,214.970032 
	C242.264786,201.193680 245.765915,186.315918 246.501282,170.478485 
	C251.042267,170.478485 255.253632,170.478485 259.955322,170.478485 
	C258.831055,200.152603 248.243698,225.434738 228.545929,246.795242 
	C225.431854,243.702423 222.516068,240.806549 219.091614,237.405472 
	C220.110184,236.182800 221.552612,234.451309 223.440277,232.274246 
	C227.503036,226.209122 231.120575,220.589569 234.738098,214.970032 
z"/>
<path fill="#151515" opacity="1.000000" stroke="none" 
	d="
M93.956924,254.984650 
	C97.260841,257.032227 100.382385,259.491608 103.902657,261.050690 
	C114.747688,265.853760 126.122101,268.707642 138.032303,269.192322 
	C139.163757,269.238373 140.288712,269.444061 141.660843,269.604156 
	C141.660843,274.058746 141.660843,278.283295 141.660843,282.996552 
	C112.101540,282.155243 87.108986,271.108582 64.997673,251.356232 
	C67.866417,248.371521 70.493095,245.480927 73.342186,242.829315 
	C73.818390,242.386108 75.260399,242.980652 76.702347,243.551025 
	C80.076126,246.342575 82.866920,248.884567 85.974548,250.949829 
	C88.454773,252.598114 91.321053,253.665482 94.000046,254.995636 
	C93.984123,255.000534 93.956917,254.984650 93.956924,254.984650 
z"/>
<path fill="#151515" opacity="1.000000" stroke="none" 
	d="
M61.866547,108.693024 
	C49.378273,125.086136 44.010265,143.933762 42.668419,164.563110 
	C38.375645,164.563110 34.006687,164.563110 29.259588,164.563110 
	C30.561646,135.118561 40.996487,109.774849 61.246319,88.040291 
	C64.385231,91.338326 67.222221,94.319138 69.920227,97.916031 
	C67.143021,101.919083 64.504784,105.306053 61.866547,108.693024 
z"/>
<path fill="#151515" opacity="1.000000" stroke="none" 
	d="
M53.549812,213.392197 
	C58.964207,221.763977 64.177002,229.818008 69.769722,238.459045 
	C67.257751,240.613281 64.015312,243.393967 60.450272,246.451309 
	C40.922001,225.647491 30.598423,200.220840 29.192831,170.548553 
	C33.763378,170.548553 37.997459,170.548553 42.649994,170.548553 
	C43.421120,185.420044 46.678288,199.693634 53.549812,213.392197 
z"/>
<path fill="#151515" opacity="1.000000" stroke="none" 
	d="
M190.989655,77.120415 
	C177.490143,69.761749 162.837814,66.675293 147.453232,65.664986 
	C147.453232,61.209648 147.453232,56.985283 147.453232,52.369560 
	C177.104614,53.543961 202.410431,64.098206 224.233810,84.290001 
	C220.902252,87.462372 217.820694,90.396675 214.158417,93.040627 
	C206.048355,87.540321 198.519012,82.330368 190.989655,77.120415 
z"/>
<path fill="#151515" opacity="1.000000" stroke="none" 
	d="
M104.633896,74.064102 
	C104.222992,74.290932 104.101967,74.389977 103.670349,74.504074 
	C93.091240,79.095657 83.771370,84.818306 75.569527,92.936249 
	C74.472145,92.938026 73.737122,92.771751 73.002090,92.605484 
	C70.507233,89.950890 68.012375,87.296295 65.154137,84.255066 
	C86.588966,64.082718 111.923141,53.674751 141.578430,52.370937 
	C141.578430,56.867214 141.578430,61.089214 141.578430,64.103638 
	C129.192642,67.403572 117.118713,70.620422 104.633896,74.064102 
z"/>
<path fill="#161616" opacity="1.000000" stroke="none" 
	d="
M142.120865,120.419952 
	C142.071243,123.649666 142.021606,126.879372 142.039246,130.551239 
	C141.156784,131.556366 140.266205,132.279205 139.247604,132.655960 
	C133.290390,134.859375 127.303207,136.981812 120.494926,139.430527 
	C118.552513,136.287323 112.127411,134.777283 112.213409,128.566025 
	C106.112343,128.036804 103.738663,122.576645 100.490692,118.311661 
	C103.371040,115.865776 105.889450,113.868446 108.860046,111.612396 
	C109.382866,110.544121 109.453491,109.734558 109.524117,108.924995 
	C109.524117,108.924995 109.520546,108.969231 109.313934,109.431137 
	C110.120232,109.789467 111.133133,109.685898 112.146034,109.582329 
	C121.295143,104.833046 130.936569,101.836441 141.944153,101.275597 
	C141.944153,105.288841 141.944153,109.194702 141.915405,114.022903 
	C141.830200,115.978745 141.773743,117.012260 141.782379,118.280029 
	C141.938614,119.149506 142.029739,119.784729 142.120865,120.419952 
M125.056801,119.306030 
	C122.862289,120.452782 120.667778,121.599533 118.473259,122.746284 
	C118.698715,123.223907 118.924171,123.701530 119.149628,124.179153 
	C124.013184,122.310211 128.876740,120.441261 133.740295,118.572311 
	C133.588303,118.049950 133.436325,117.527580 133.284348,117.005219 
	C130.798996,117.668793 128.313644,118.332359 125.056801,119.306030 
M140.086304,115.997536 
	C137.866730,116.349236 135.647171,116.700928 133.427597,117.052628 
	C133.559921,117.720062 133.692245,118.387497 133.824570,119.054932 
	C136.194107,118.268463 138.563629,117.481995 140.086304,115.997536 
z"/>
<path fill="#151515" opacity="1.000000" stroke="none" 
	d="
M79.852036,222.961075 
	C80.505981,223.894714 81.159927,224.828369 81.862389,225.831284 
	C78.549858,228.909958 75.206329,232.017410 71.689194,235.286240 
	C55.178135,217.544083 46.246758,195.896332 45.026833,170.196686 
	C47.673668,170.196686 49.940506,170.196701 52.207348,170.196701 
	C54.354733,170.196701 56.502113,170.196686 59.317062,170.196686 
	C59.917477,187.534103 65.341545,203.104568 75.016464,217.909332 
	C76.698647,220.044907 78.275337,221.502991 79.852036,222.961075 
z"/>
<path fill="#151515" opacity="1.000000" stroke="none" 
	d="
M221.895309,230.723938 
	C220.253494,232.328415 218.611664,233.932877 217.041367,235.467407 
	C213.853928,232.314682 210.623169,229.119125 207.209213,225.742340 
	C221.516693,210.313446 228.769440,191.663971 230.069595,170.441681 
	C234.720520,170.441681 238.991364,170.441681 243.913925,170.441681 
	C243.948410,186.076553 239.617188,200.435410 232.299866,214.735138 
	C228.587463,220.449310 225.241364,225.586609 221.895309,230.723938 
z"/>
<path fill="#161616" opacity="1.000000" stroke="none" 
	d="
M72.968445,120.898392 
	C64.929420,134.353439 59.785400,148.737274 59.442368,164.729568 
	C54.544529,164.729568 50.111362,164.729568 45.098907,164.729568 
	C45.820713,144.848328 51.892578,126.985970 63.424911,110.276825 
	C66.575523,106.444656 69.294838,103.075836 72.014145,99.707008 
	C75.388428,102.703094 78.762711,105.699181 82.339966,108.875488 
	C81.007240,110.627258 79.947395,112.020355 78.582886,113.986313 
	C76.508301,116.672256 74.738373,118.785324 72.968445,120.898392 
z"/>
<path fill="#151515" opacity="1.000000" stroke="none" 
	d="
M181.038132,90.905891 
	C170.747696,85.031181 159.373795,83.237045 147.498306,82.364716 
	C147.498306,77.705139 147.498306,73.311821 147.498306,68.279785 
	C162.622589,68.511665 176.730133,72.479424 190.737274,79.523453 
	C198.429626,84.930222 205.571365,89.974609 212.713104,95.018997 
	C209.393600,98.322151 206.074097,101.625313 202.294403,104.556229 
	C195.789169,99.558792 189.771820,94.896027 183.645462,90.381180 
	C183.165771,90.027672 181.925125,90.706726 181.038132,90.905891 
z"/>
<path fill="#151515" opacity="1.000000" stroke="none" 
	d="
M77.032600,240.920959 
	C79.812592,237.234222 82.592575,233.547501 85.623016,229.528625 
	C101.819389,244.339630 120.325294,251.872437 141.638214,253.093918 
	C141.638214,257.716980 141.638214,262.113037 141.638214,266.969482 
	C127.375198,267.007721 114.160408,263.327728 101.468262,257.348145 
	C99.090271,256.227783 96.683907,255.167709 94.123779,254.532227 
	C93.956917,254.984650 93.984123,255.000534 94.335503,254.744156 
	C88.802116,249.965500 82.917358,245.443237 77.032600,240.920959 
z"/>
<path fill="#151515" opacity="1.000000" stroke="none" 
	d="
M219.847015,102.775589 
	C219.386734,106.107582 221.283585,107.156601 223.993958,107.897995 
	C236.414001,124.787521 243.412735,143.365311 244.042007,164.588440 
	C239.460022,164.588440 235.071411,164.588440 230.073029,164.588440 
	C228.930405,148.244919 224.427597,132.730972 214.368530,118.522873 
	C211.765533,115.333847 209.533035,112.647652 207.300537,109.961456 
	C210.204453,106.514069 213.108353,103.066673 216.327652,99.244850 
	C217.698456,100.537048 218.710526,101.491104 219.847015,102.775589 
z"/>
<path fill="#161616" opacity="1.000000" stroke="none" 
	d="
M73.353668,120.789421 
	C74.738373,118.785324 76.508301,116.672256 78.499939,114.334702 
	C80.552101,113.398026 82.382553,112.685829 84.864433,111.720169 
	C87.293106,114.501175 90.230423,117.864609 93.458351,121.560814 
	C82.972244,133.308167 76.928322,147.856247 75.819122,164.662766 
	C71.270950,164.662766 66.854111,164.662766 61.953613,164.662766 
	C61.762104,153.197708 64.857529,142.559204 69.563652,132.307236 
	C70.941711,129.305222 72.821152,126.534508 74.226494,123.543015 
	C74.564323,122.823883 73.927490,121.646881 73.353668,120.789421 
z"/>
<path fill="#161616" opacity="1.000000" stroke="none" 
	d="
M80.218292,222.819214 
	C78.275337,221.502991 76.698647,220.044907 75.074989,218.253876 
	C78.954712,216.395996 75.822807,214.317474 75.062256,213.105209 
	C68.738953,203.026352 64.403557,192.224167 62.603287,180.455750 
	C62.111198,177.238907 61.992298,173.964966 61.676754,170.433136 
	C66.577774,170.433136 70.840637,170.433136 75.729370,170.433136 
	C76.932182,186.952621 82.566803,201.842819 94.296997,214.643173 
	C91.910851,216.828369 89.431625,218.607971 87.601860,220.904938 
	C85.546524,223.485062 83.372055,223.860352 80.218292,222.819214 
z"/>
<path fill="#161616" opacity="1.000000" stroke="none" 
	d="
M187.003036,221.499451 
	C188.359802,220.570847 189.716568,219.642242 191.220627,218.612808 
	C194.098770,221.913788 197.008270,225.250702 200.315811,229.044159 
	C186.184464,242.333542 168.379044,249.375504 147.592529,250.768188 
	C147.592529,246.036835 147.592529,241.508636 147.592529,237.039368 
	C153.806259,235.689667 160.326157,235.010941 166.261536,232.778290 
	C172.282730,230.513336 177.726715,226.713898 183.881989,223.273453 
	C185.227982,222.473419 186.115509,221.986435 187.003036,221.499451 
z"/>
<path fill="#151515" opacity="1.000000" stroke="none" 
	d="
M200.377533,105.941856 
	C199.416092,107.629257 198.623291,109.445831 197.453232,110.973450 
	C195.744980,113.203766 193.765732,115.226524 191.721176,117.542618 
	C178.889496,105.862091 164.278839,100.030006 147.481018,98.833549 
	C147.481018,94.314407 147.481018,89.925224 147.481018,85.019989 
	C159.134644,84.825218 169.903229,87.953453 180.915146,93.089172 
	C187.827545,97.535576 194.102539,101.738716 200.377533,105.941856 
z"/>
<path fill="#151515" opacity="1.000000" stroke="none" 
	d="
M120.138802,232.011429 
	C127.405945,233.779694 134.289490,235.455475 141.631195,237.242798 
	C141.631195,241.116714 141.631195,245.686172 141.631195,250.622650 
	C120.983879,249.678696 103.325684,242.221603 88.341660,228.631226 
	C91.636879,225.216919 94.724648,222.017563 97.360893,219.286057 
	C104.823471,223.495789 112.289337,227.707367 120.138802,232.011429 
z"/>
<path fill="#151515" opacity="1.000000" stroke="none" 
	d="
M212.807358,120.061569 
	C221.462387,133.495316 226.981796,147.966934 227.500793,164.531723 
	C222.881104,164.531723 218.355759,164.531723 213.418228,164.531723 
	C212.263916,148.262238 206.667358,133.571320 195.033035,120.955948 
	C198.550690,117.631592 201.878799,114.486382 205.620758,111.662292 
	C208.292206,114.676132 210.549789,117.368851 212.807358,120.061569 
z"/>
<path fill="#181818" opacity="1.000000" stroke="none" 
	d="
M186.689743,221.283722 
	C186.115509,221.986435 185.227982,222.473419 184.053711,222.925674 
	C181.809998,223.640533 179.723175,224.159897 177.917877,225.178329 
	C168.549347,230.463440 158.607330,233.604858 147.477448,234.043976 
	C147.477448,229.287262 147.477448,224.872360 147.477448,219.945114 
	C159.231903,218.721069 170.150436,214.915543 179.404739,206.472946 
	C182.648880,210.047455 185.719910,213.431213 188.608185,216.613602 
	C187.934402,217.958435 187.155426,219.513214 186.689743,221.283722 
z"/>
<path fill="#161616" opacity="1.000000" stroke="none" 
	d="
M83.190201,142.300369 
	C87.089050,135.542923 90.861916,129.149689 94.943520,122.233299 
	C98.802940,126.395363 101.905281,129.740982 105.123444,133.211502 
	C98.072723,141.960205 93.411301,152.318344 92.585785,164.576340 
	C87.942963,164.576340 83.378128,164.576340 77.369667,164.576340 
	C79.309868,157.110779 81.187050,149.887680 83.190201,142.300369 
z"/>
<path fill="#151515" opacity="1.000000" stroke="none" 
	d="
M148.307861,115.883514 
	C147.795563,111.115974 147.283279,106.348427 146.728699,101.187378 
	C163.523102,102.353760 177.349167,107.818306 189.479279,118.852791 
	C185.858994,121.864067 182.341522,124.789833 178.551361,127.942413 
	C170.649216,121.492989 160.746552,116.579109 148.636017,115.883026 
	C148.174911,115.893478 148.307861,115.883514 148.307861,115.883514 
z"/>
<path fill="#151515" opacity="1.000000" stroke="none" 
	d="
M104.015244,204.042282 
	C101.419891,206.789368 98.824532,209.536469 95.880424,212.652679 
	C84.856468,200.663925 79.264107,186.840714 78.161369,170.226318 
	C82.496643,170.226318 86.570312,170.084320 90.617424,170.348679 
	C91.406860,170.400253 92.656036,171.981293 92.739304,172.939758 
	C93.503189,181.732269 96.759705,189.583923 101.734711,197.484985 
	C102.745758,200.010223 103.380501,202.026245 104.015244,204.042282 
z"/>
<path fill="#151515" opacity="1.000000" stroke="none" 
	d="
M192.295731,146.778961 
	C189.484055,141.865158 186.828445,137.300812 184.034302,132.498383 
	C187.094727,129.763565 190.395920,126.813591 194.039734,123.557465 
	C204.433975,134.668839 209.899139,148.542603 211.042130,164.689301 
	C206.166534,164.689301 201.721817,164.689301 197.468933,164.689301 
	C195.788956,158.809082 194.120377,152.968750 192.295731,146.778961 
z"/>
<path fill="#151515" opacity="1.000000" stroke="none" 
	d="
M133.895111,233.146973 
	C120.610329,231.145111 109.653732,225.376175 99.702629,216.522888 
	C103.217133,213.406082 106.533157,210.465286 110.291374,207.132339 
	C118.857643,214.444229 129.521240,218.881836 141.715515,219.870224 
	C141.715515,224.554855 141.715515,228.983597 141.715515,234.083908 
	C139.104706,233.785248 136.711533,233.511475 133.895111,233.146973 
z"/>
<path fill="#181818" opacity="1.000000" stroke="none" 
	d="
M104.341011,203.905548 
	C103.380501,202.026245 102.745758,200.010223 102.053955,197.650635 
	C101.880524,195.816498 102.224648,194.075012 101.571793,192.876694 
	C97.806358,185.965302 95.230080,178.770920 94.961090,170.495987 
	C99.697617,170.495987 104.116501,170.495987 108.000648,170.495987 
	C110.866142,177.479828 113.649025,184.262344 116.677673,191.643829 
	C113.102852,195.252609 108.884811,199.510712 104.341011,203.905548 
z"/>
<path fill="#161616" opacity="1.000000" stroke="none" 
	d="
M148.475708,116.582397 
	C148.307861,115.883514 148.174911,115.893478 148.156677,115.855331 
	C148.970505,116.592796 149.714890,117.909607 150.648132,118.060822 
	C160.705292,119.690392 169.754120,123.408989 177.576706,130.485886 
	C174.116364,133.548370 170.699341,136.572510 167.750244,139.182541 
	C162.066208,137.135986 155.958832,134.937012 149.215118,132.567902 
	C148.378296,132.407669 148.177826,132.417572 147.961884,132.398285 
	C147.946442,132.369064 147.910065,132.355682 147.910065,132.355682 
	C147.647842,128.182693 147.385635,124.009689 147.024323,119.405212 
	C146.925201,118.973732 146.876312,118.872658 147.043518,118.682404 
	C147.279068,118.337723 147.347397,118.183304 147.415726,118.028885 
	C147.824997,117.779686 148.234283,117.530487 148.475708,116.582397 
z"/>
<path fill="#161616" opacity="1.000000" stroke="none" 
	d="
M181.996292,169.956741 
	C185.939606,169.956741 189.882935,169.956741 194.134262,169.956741 
	C193.871307,182.339661 189.178268,192.021729 181.761124,201.003418 
	C178.337051,197.508911 175.222321,194.330109 172.660370,191.715439 
	C175.033859,185.563629 177.264526,179.781998 179.689713,173.321762 
	C180.588257,171.747681 181.292267,170.852219 181.996292,169.956741 
z"/>
<path fill="#181818" opacity="1.000000" stroke="none" 
	d="
M155.159576,216.358887 
	C152.475281,216.807877 150.192719,217.101715 147.499969,217.448349 
	C147.499969,212.659454 147.499969,208.262619 147.499969,204.231171 
	C154.347488,201.458328 161.149902,198.703751 168.435928,195.753342 
	C170.810593,198.268311 173.867828,201.506149 177.236740,205.074081 
	C171.310318,210.695435 163.938507,214.374496 155.159576,216.358887 
z"/>
<path fill="#161616" opacity="1.000000" stroke="none" 
	d="
M99.468979,146.586853 
	C102.085777,142.387924 104.506210,138.512726 107.141335,134.293808 
	C110.830688,138.049225 113.936089,141.210205 116.575684,143.897064 
	C113.731842,150.784897 110.996353,157.410294 108.012405,164.637466 
	C104.433769,164.637466 99.897446,164.637466 94.098518,164.637466 
	C95.909225,158.433838 97.590919,152.672226 99.468979,146.586853 
z"/>
<path fill="#151515" opacity="1.000000" stroke="none" 
	d="
M179.549652,161.965942 
	C177.425613,156.163513 175.301559,150.361084 172.822540,143.588943 
	C175.179077,141.512726 178.598969,138.499664 182.283554,135.253387 
	C189.373779,143.126221 193.397964,152.916351 194.322266,164.901413 
	C189.737671,164.901413 185.375320,164.901413 180.549683,164.552643 
	C179.907471,163.457886 179.728561,162.711914 179.549652,161.965942 
z"/>
<path fill="#151515" opacity="1.000000" stroke="none" 
	d="
M140.167114,202.996902 
	C141.230331,207.586380 141.866135,212.106522 142.594040,217.281342 
	C130.243210,216.872131 120.637726,212.458374 111.599510,205.014099 
	C115.220413,202.018982 118.719093,199.124969 122.026894,196.388855 
	C127.226669,198.308350 133.483185,200.617966 140.167114,202.996902 
z"/>
<path fill="#191919" opacity="1.000000" stroke="none" 
	d="
M148.260635,132.921600 
	C147.910065,132.355682 147.946442,132.369064 147.494095,132.860535 
	C147.649673,133.771576 148.257584,134.191132 148.865509,134.610687 
	C154.606796,136.726593 160.348068,138.842484 166.089355,140.958389 
	C166.183105,141.639618 166.276871,142.320862 166.370621,143.002090 
	C164.273178,144.767715 162.175735,146.533340 159.944641,148.609192 
	C158.647995,149.094833 157.345947,149.694092 156.347916,149.366684 
	C153.272964,148.357941 150.314163,146.995102 146.967102,145.883911 
	C146.623962,145.998001 146.695099,145.998718 146.695099,145.998718 
	C146.832367,143.078995 146.969635,140.159271 147.061157,136.603989 
	C147.017014,135.786728 146.990158,135.611359 146.934845,135.442322 
	C147.493637,134.790726 148.052414,134.139114 148.260635,132.921600 
z"/>
<path fill="#1A1A1A" opacity="1.000000" stroke="none" 
	d="
M147.007645,190.001831 
	C148.899384,189.287476 150.791122,188.573135 153.197235,187.570770 
	C154.511765,186.806503 155.311905,186.330215 156.112030,185.853928 
	C157.297302,186.034042 158.482559,186.214142 159.900864,186.539856 
	C161.995773,188.715988 163.857666,190.746506 165.936539,193.013687 
	C160.509781,197.565613 154.595749,200.286545 147.388031,200.041122 
	C147.058990,198.530487 147.002045,197.621750 147.033173,196.474518 
	C147.083389,194.157959 147.045517,192.079895 147.007645,190.001831 
z"/>
<path fill="#181818" opacity="1.000000" stroke="none" 
	d="
M168.628891,165.125122 
	C167.860580,164.926270 166.617981,164.952225 166.400085,164.492493 
	C164.857071,161.236908 163.389679,157.927200 162.237915,154.519897 
	C162.008102,153.840027 163.239716,152.666122 163.967148,151.381439 
	C166.041931,149.575180 167.947037,148.107529 170.948364,145.795349 
	C173.196655,151.409012 175.226120,156.476334 177.485352,162.117523 
	C177.200531,163.451538 176.782166,164.758911 176.153427,164.869431 
	C174.250381,165.203934 172.265762,165.074463 170.109161,165.050415 
	C169.479889,165.025070 169.054382,165.075089 168.628891,165.125122 
z"/>
<path fill="#1A1A1A" opacity="1.000000" stroke="none" 
	d="
M162.112640,180.046265 
	C163.842590,176.755829 165.572525,173.465393 168.077393,170.167068 
	C170.902679,170.091080 172.953033,170.022964 175.345230,170.047272 
	C176.414001,171.078827 177.140915,172.017929 177.867844,172.957047 
	C175.633194,178.298874 173.398560,183.640701 171.163925,188.982529 
	C170.417023,189.321671 169.670120,189.660828 168.923218,189.999985 
	C167.889648,188.382538 166.856079,186.765106 165.514420,185.042053 
	C164.205780,183.816742 163.205215,182.697006 162.121368,181.059326 
	C162.062927,180.376343 162.087799,180.211304 162.112640,180.046265 
z"/>
<path fill="#191919" opacity="1.000000" stroke="none" 
	d="
M124.152985,150.613068 
	C126.553291,152.891434 127.731247,154.819382 125.459900,157.837097 
	C124.157333,159.567703 123.862579,162.056870 123.043205,164.566833 
	C119.355873,164.929153 115.739464,164.929153 110.449516,164.929153 
	C113.216599,158.186172 115.656471,152.240540 118.312386,145.768448 
	C120.966072,147.900162 122.481682,149.117661 124.152985,150.613068 
z"/>
<path fill="#181818" opacity="1.000000" stroke="none" 
	d="
M132.889832,149.691025 
	C130.498474,148.148956 128.107132,146.606888 125.394318,144.919235 
	C124.850304,143.639297 124.250069,141.590851 124.460297,141.503967 
	C130.011398,139.210419 135.644592,137.115128 141.286072,135.046783 
	C141.352997,135.022247 141.711212,135.792175 142.021149,136.599564 
	C142.064835,139.377213 142.020813,141.746552 141.957458,144.790710 
	C141.928909,145.636475 141.919662,145.807434 141.910431,145.978409 
	C141.400528,146.166763 140.890625,146.355133 139.816132,146.689560 
	C137.130981,147.787430 135.010406,148.739227 132.889832,149.691025 
z"/>
<path fill="#181818" opacity="1.000000" stroke="none" 
	d="
M122.428665,170.230652 
	C123.954338,173.119141 125.267815,175.926636 125.988983,178.878830 
	C126.312401,180.202744 125.449844,181.816360 124.993477,183.628021 
	C123.043106,185.566818 121.224739,187.176117 118.430870,189.648743 
	C115.721199,183.279678 113.218277,177.396576 110.160217,170.208633 
	C115.215118,170.208633 118.595123,170.208633 122.428665,170.230652 
z"/>
<path fill="#181818" opacity="1.000000" stroke="none" 
	d="
M133.960632,185.687988 
	C136.314407,186.821091 138.668167,187.954193 141.444366,189.540985 
	C141.953217,192.666275 142.039673,195.337875 142.046814,198.346207 
	C141.935577,199.373825 141.903671,200.064728 141.871765,200.755630 
	C135.013321,200.178925 128.914185,197.824585 123.384140,192.975159 
	C125.087685,191.150635 126.621162,189.508255 128.304718,187.547272 
	C129.994080,186.799881 131.533371,186.371078 133.478241,185.803833 
	C133.883850,185.665359 133.960632,185.687988 133.960632,185.687988 
z"/>
<path fill="#DDDDDD" opacity="1.000000" stroke="none" 
	d="
M75.931877,92.768204 
	C83.771370,84.818306 93.091240,79.095657 103.616898,74.555969 
	C105.825958,75.761307 105.860497,75.822250 103.937469,76.912163 
	C99.351959,79.511070 94.573639,81.805870 90.168533,84.676689 
	C85.899681,87.458687 81.999580,90.806511 77.627625,94.013542 
	C77.087227,94.114456 76.856728,94.107658 76.267563,93.771637 
	C75.916565,93.217690 75.924225,92.992943 75.931877,92.768204 
z"/>
<path fill="#E3E3E3" opacity="1.000000" stroke="none" 
	d="
M212.944427,94.955627 
	C205.571365,89.974609 198.429626,84.930222 191.092834,79.618393 
	C190.922501,78.855446 190.947235,78.359924 190.980804,77.492416 
	C198.519012,82.330368 206.048355,87.540321 213.794403,93.020416 
	C213.732651,93.824455 213.454208,94.358360 212.944427,94.955627 
z"/>
<path fill="#E3E3E3" opacity="1.000000" stroke="none" 
	d="
M200.653320,105.926102 
	C194.102539,101.738716 187.827545,97.535576 181.273193,93.122131 
	C181.009048,92.466156 181.024277,92.020485 181.038818,91.240349 
	C181.925125,90.706726 183.165771,90.027672 183.645462,90.381180 
	C189.771820,94.896027 195.789169,99.558792 201.950317,104.494553 
	C201.687302,105.173523 201.308197,105.541931 200.653320,105.926102 
z"/>
<path fill="#FDFDFD" opacity="1.000000" stroke="none" 
	d="
M178.292007,173.006989 
	C177.140915,172.017929 176.414001,171.078827 175.244690,169.678848 
	C173.305847,167.853928 171.809402,166.489868 170.312943,165.125793 
	C172.265762,165.074463 174.250381,165.203934 176.153427,164.869431 
	C176.782166,164.758911 177.200531,163.451538 177.736969,162.385101 
	C178.057358,162.060471 178.355850,162.042130 179.101990,161.994873 
	C179.728561,162.711914 179.907471,163.457886 180.092438,164.497528 
	C180.699265,166.280975 181.300049,167.770767 181.948563,169.608643 
	C181.292267,170.852219 180.588257,171.747681 179.721558,172.919861 
	C179.277985,173.150024 178.997070,173.103485 178.292007,173.006989 
z"/>
<path fill="#DDDDDD" opacity="1.000000" stroke="none" 
	d="
M222.053284,231.018402 
	C225.241364,225.586609 228.587463,220.449310 232.157990,215.085388 
	C232.905792,214.886536 233.429123,214.914291 234.345276,214.956055 
	C231.120575,220.589569 227.503036,226.209122 223.582581,231.959625 
	C222.923523,231.831360 222.567413,231.572128 222.053284,231.018402 
z"/>
<path fill="#E3E3E3" opacity="1.000000" stroke="none" 
	d="
M77.017113,241.339142 
	C82.917358,245.443237 88.802116,249.965500 94.351425,254.739258 
	C91.321053,253.665482 88.454773,252.598114 85.974548,250.949829 
	C82.866920,248.884567 80.076126,246.342575 77.009102,243.716156 
	C76.913628,242.869751 76.957626,242.313538 77.017113,241.339142 
z"/>
<path fill="#E3E3E3" opacity="1.000000" stroke="none" 
	d="
M71.966454,99.432411 
	C69.294838,103.075836 66.575523,106.444656 63.556915,109.950661 
	C62.902485,109.819740 62.547352,109.551628 62.029385,108.988274 
	C64.504784,105.306053 67.143021,101.919083 69.989777,98.261078 
	C70.771790,98.379303 71.345276,98.768562 71.966454,99.432411 
z"/>
<path fill="#DDDDDD" opacity="1.000000" stroke="none" 
	d="
M213.091537,119.897324 
	C210.549789,117.368851 208.292206,114.676132 205.944427,111.669281 
	C206.167740,110.945633 206.481277,110.536118 207.047668,110.044029 
	C209.533035,112.647652 211.765533,115.333847 214.064789,118.347466 
	C213.879593,119.027611 213.627655,119.380341 213.091537,119.897324 
z"/>
<path fill="#E3E3E3" opacity="1.000000" stroke="none" 
	d="
M108.407860,111.871109 
	C105.889450,113.868446 103.371040,115.865776 100.543274,117.971542 
	C99.893311,117.818390 99.552704,117.556793 99.054642,117.010666 
	C101.686897,114.491249 104.476601,112.256371 107.699478,110.447571 
	C108.224388,111.206139 108.316124,111.538628 108.407860,111.871109 
z"/>
<path fill="#E3E3E3" opacity="1.000000" stroke="none" 
	d="
M202.900574,248.972168 
	C205.198441,246.710770 207.518311,244.842148 209.838181,242.973526 
	C210.266388,243.455139 210.694595,243.936737 211.122787,244.418350 
	C208.638245,246.549774 206.153702,248.681198 203.331726,250.874725 
	C202.970383,250.412857 202.946487,249.888901 202.900574,248.972168 
z"/>
<path fill="#FDFDFD" opacity="1.000000" stroke="none" 
	d="
M142.141785,201.059174 
	C141.903671,200.064728 141.935577,199.373825 142.558563,198.335205 
	C144.414795,197.562653 145.679947,197.137833 146.945099,196.713013 
	C147.002045,197.621750 147.058990,198.530487 147.084442,199.894012 
	C145.505890,200.686768 143.958847,201.024734 142.141785,201.059174 
z"/>
<path fill="#DDDDDD" opacity="1.000000" stroke="none" 
	d="
M204.710968,200.025696 
	C204.037476,201.941528 203.014038,203.857605 201.420746,205.802780 
	C200.566910,205.480545 200.282913,205.129181 199.998932,204.777832 
	C200.800964,203.294235 201.603012,201.810638 202.683411,200.159515 
	C203.428192,200.003296 203.894608,200.014618 204.710968,200.025696 
z"/>
<path fill="#FDFDFD" opacity="1.000000" stroke="none" 
	d="
M147.142914,117.567680 
	C147.347397,118.183304 147.279068,118.337723 146.775681,118.258469 
	C144.799515,118.031784 143.258392,118.038773 141.717285,118.045761 
	C141.773743,117.012260 141.830200,115.978745 142.010590,114.477448 
	C143.713043,115.041931 145.291580,116.074203 147.142914,117.567680 
z"/>
<path fill="#F4F4F4" opacity="1.000000" stroke="none" 
	d="
M75.569527,92.936249 
	C75.924225,92.992943 75.916565,93.217690 75.921791,93.780914 
	C75.203323,94.564636 74.471970,95.009872 73.740623,95.455109 
	C73.495819,94.742722 73.251022,94.030327 73.004158,92.961708 
	C73.737122,92.771751 74.472145,92.938026 75.569527,92.936249 
z"/>
<path fill="#FDFDFD" opacity="1.000000" stroke="none" 
	d="
M145.004120,108.164490 
	C144.965668,109.264503 144.926224,110.030327 144.886780,110.796158 
	C144.691406,110.793350 144.496048,110.790535 144.300674,110.787727 
	C144.300674,109.229073 144.300674,107.670418 144.300674,106.111771 
	C144.437027,106.098106 144.573395,106.084442 144.709747,106.070778 
	C144.807556,106.657288 144.905350,107.243805 145.004120,108.164490 
z"/>
<path fill="#FDFDFD" opacity="1.000000" stroke="none" 
	d="
M144.727951,205.362106 
	C144.906815,207.004288 144.906815,208.400024 144.906815,209.795746 
	C144.610474,209.783539 144.314133,209.771317 144.017807,209.759094 
	C144.194901,208.211273 144.371994,206.663467 144.727951,205.362106 
z"/>
<path fill="#E3E3E3" opacity="1.000000" stroke="none" 
	d="
M112.038528,109.039856 
	C111.133133,109.685898 110.120232,109.789467 109.292938,109.438293 
	C110.006157,108.541885 110.533775,108.100220 111.399750,107.533424 
	C111.802414,107.771317 111.866714,108.134354 112.038528,109.039856 
z"/>
<path fill="#DDDDDD" opacity="1.000000" stroke="none" 
	d="
M195.707581,213.431000 
	C195.817459,213.663528 195.664047,214.123169 195.540710,214.765762 
	C195.528610,214.518509 195.486465,214.088333 195.707581,213.431000 
z"/>
<path fill="#FDFDFD" opacity="1.000000" stroke="none" 
	d="
M148.900894,134.158127 
	C148.257584,134.191132 147.649673,133.771576 147.509552,132.889755 
	C148.177826,132.417572 148.378296,132.407669 148.801956,132.599899 
	C148.995529,133.103195 148.965912,133.404373 148.900894,134.158127 
z"/>
<path fill="#E3E3E3" opacity="1.000000" stroke="none" 
	d="
M428.226837,182.903900 
	C428.172791,182.440155 428.352386,181.877289 428.766968,181.123535 
	C428.821442,181.556686 428.640961,182.180725 428.226837,182.903900 
z"/>
<path fill="#F0F0F0" opacity="1.000000" stroke="none" 
	d="
M108.860046,111.612396 
	C108.316124,111.538628 108.224388,111.206139 108.037109,110.365196 
	C108.250961,109.569809 108.560341,109.282890 109.196922,108.960480 
	C109.453491,109.734558 109.382866,110.544121 108.860046,111.612396 
z"/>
<path fill="#F0F0F0" opacity="1.000000" stroke="none" 
	d="
M147.033173,196.474518 
	C145.679947,197.137833 144.414795,197.562653 142.637878,197.998474 
	C142.039673,195.337875 141.953217,192.666275 141.807739,189.554413 
	C142.498596,189.501328 143.791000,189.779251 143.895157,190.296478 
	C144.190033,191.760681 143.998413,193.322861 143.998413,195.409302 
	C144.996552,193.092331 145.702011,191.454773 146.707550,189.909515 
	C147.045517,192.079895 147.083389,194.157959 147.033173,196.474518 
z"/>
<path fill="#F0F0F0" opacity="1.000000" stroke="none" 
	d="
M170.109161,165.050415 
	C171.809402,166.489868 173.305847,167.853928 174.902832,169.586426 
	C172.953033,170.022964 170.902679,170.091080 168.424118,170.053238 
	C168.102814,168.649521 168.209717,167.351746 168.472748,165.589539 
	C169.054382,165.075089 169.479889,165.025070 170.109161,165.050415 
z"/>
<path fill="#F0F0F0" opacity="1.000000" stroke="none" 
	d="
M133.096313,149.995468 
	C135.010406,148.739227 137.130981,147.787430 139.622498,146.880905 
	C138.557129,149.625214 136.914459,151.915009 133.096313,149.995468 
z"/>
<path fill="#F0F0F0" opacity="1.000000" stroke="none" 
	d="
M141.782379,118.280022 
	C143.258392,118.038773 144.799515,118.031784 146.608459,118.448730 
	C146.876312,118.872658 146.925201,118.973732 146.943298,119.006821 
	C145.686676,119.537788 144.411972,120.035667 142.629059,120.476746 
	C142.029739,119.784729 141.938614,119.149506 141.782379,118.280022 
z"/>
<path fill="#F0F0F0" opacity="1.000000" stroke="none" 
	d="
M155.998764,185.516998 
	C155.311905,186.330215 154.511765,186.806503 153.427811,187.314117 
	C154.057831,186.623657 154.971664,185.901855 155.998764,185.516998 
z"/>
<path fill="#F0F0F0" opacity="1.000000" stroke="none" 
	d="
M142.137329,146.118195 
	C141.919662,145.807434 141.928909,145.636475 142.036530,145.228271 
	C142.688614,145.594223 143.242294,146.197388 143.795975,146.800568 
	C143.318726,146.619705 142.841476,146.438843 142.137329,146.118195 
z"/>
<path fill="#F0F0F0" opacity="1.000000" stroke="none" 
	d="
M146.817108,135.006531 
	C146.990158,135.611359 147.017014,135.786728 146.981674,136.061081 
	C146.395721,135.668335 145.843521,135.182922 145.291336,134.697510 
	C145.760681,134.655258 146.230026,134.613007 146.817108,135.006531 
z"/>
<path fill="#F0F0F0" opacity="1.000000" stroke="none" 
	d="
M161.845230,180.054169 
	C162.087799,180.211304 162.062927,180.376343 161.961548,180.779755 
	C161.413895,181.098953 160.942719,181.179779 160.471558,181.260620 
	C160.840302,180.861099 161.209061,180.461594 161.845230,180.054169 
z"/>
<path fill="#F0F0F0" opacity="1.000000" stroke="none" 
	d="
M144.990234,130.275940 
	C145.036957,130.275604 144.943512,130.276306 144.990234,130.275940 
z"/>
<path fill="#F0F0F0" opacity="1.000000" stroke="none" 
	d="
M133.929840,185.385437 
	C133.960632,185.687988 133.883850,185.665359 133.873901,185.708740 
	C133.750885,185.248352 133.637817,184.744598 133.524750,184.240829 
	C133.649521,184.521515 133.774292,184.802216 133.929840,185.385437 
z"/>
<path fill="#F0F0F0" opacity="1.000000" stroke="none" 
	d="
M146.551743,145.832184 
	C146.695099,145.998718 146.623962,145.998001 146.643890,146.025818 
	C146.447418,145.880920 146.231018,145.708206 146.014618,145.535492 
	C146.145874,145.578873 146.277130,145.622253 146.551743,145.832184 
z"/>
<path fill="#F0F0F0" opacity="1.000000" stroke="none" 
	d="
M199.690430,205.003357 
	C200.282913,205.129181 200.566910,205.480545 201.155975,205.987778 
	C200.036407,208.038345 198.611740,209.933014 197.187073,211.827682 
	C196.696518,211.481857 196.205963,211.136047 195.715424,210.790237 
	C196.937592,208.936447 198.159760,207.082657 199.690430,205.003357 
z"/>
<path fill="#F0F0F0" opacity="1.000000" stroke="none" 
	d="
M125.442551,119.150986 
	C128.313644,118.332359 130.798996,117.668793 133.284348,117.005219 
	C133.436325,117.527580 133.588303,118.049950 133.740295,118.572311 
	C128.876740,120.441261 124.013184,122.310211 119.149628,124.179153 
	C118.924171,123.701530 118.698715,123.223907 118.473259,122.746284 
	C120.667778,121.599533 122.862289,120.452782 125.442551,119.150986 
z"/>
<path fill="#FDFDFD" opacity="1.000000" stroke="none" 
	d="
M140.509735,116.346535 
	C138.563629,117.481995 136.194107,118.268463 133.824570,119.054932 
	C133.692245,118.387497 133.559921,117.720062 133.427597,117.052628 
	C135.647171,116.700928 137.866730,116.349236 140.509735,116.346535 
z"/>
</svg>