<?xml version="1.0" encoding="utf-8"?>
<!-- Svg Vector Icons : http://www.onlinewebfonts.com/icon -->
<!DOCTYPE svg PUBLIC "-//W3C//DTD SVG 1.1//EN" "http://www.w3.org/Graphics/SVG/1.1/DTD/svg11.dtd">
<svg version="1.1" xmlns="http://www.w3.org/2000/svg" xmlns:xlink="http://www.w3.org/1999/xlink" x="0px" y="0px" viewBox="0 0 256 256" enable-background="new 0 0 256 256" xml:space="preserve">
<metadata> Svg Vector Icons : http://www.onlinewebfonts.com/icon </metadata>
<g><g><g><path fill="#000000" d="M15.2,89.9c-2,1-3.2,2.5-2.8,3.7c0.1,0.4,0,0.7-0.4,0.7c-0.9,0-1.1,2.1-1.8,17.2c-1.1,24.4,1.1,47,5.1,52.2c0.7,0.9,1.9,2,2.7,2.5c1.4,0.9,4,0.9,108.6,0.9c70.7,0,107.7-0.2,108.9-0.5c2.5-0.7,5.4-4,6.3-7.2c3.1-11,4.8-35.1,3.7-52c-0.7-9.5-1.4-13.1-3.2-15.5c-2.4-3.2,6.5-3-114.8-3C20.3,88.9,17.2,89,15.2,89.9z M238.5,93.2c2.7,1.5,3.5,7.7,3.5,27.4c0,15.5-0.5,21.5-2.6,33c-1.1,5.7-2.1,8-4.2,9c-0.7,0.4-3,0.6-5.7,0.6c-4.4,0-4.4,0-4.1-1.1c1.2-4,1.7-6.1,1.7-8.5v-2.8H128H28.9v2.2c0,2.2,1,7.6,1.7,9.3c0.3,0.8-0.1,0.9-5,0.9c-5.2,0-5.3,0-6.6-1.3c-2.6-2.5-4.5-14.7-5.1-31.2c-0.3-9.8,0.5-31.9,1.3-34.4c0.3-0.9,1-2,1.7-2.5c1.2-1,1.7-1,111-1C202.2,92.8,237.9,92.9,238.5,93.2z M223,156.9c-0.2,1-0.8,2.8-1.3,4l-1,2.1h-92.9H34.9l-0.8-2.4c-0.4-1.3-0.9-3.1-1-4l-0.3-1.5H128h95.3L223,156.9z"/><path fill="#000000" d="M15.8,133c-0.1,0.4-0.2,1.3-0.1,2l0.1,1.3h112.4h112.4v-1.9v-1.9l-112.3-0.1C31.8,132.3,16,132.4,15.8,133z"/><path fill="#000000" d="M108.3,138.1c-3.2,1.2-3,8.8,0.2,9.9c1,0.3,8,0.5,19.7,0.5c11.7,0,18.7-0.2,19.7-0.5c1.6-0.5,2.5-2.3,2.5-5s-0.9-4.4-2.5-5C146,137.4,110.1,137.4,108.3,138.1z M146.1,143v1.2h-17.9h-17.9V143v-1.2h17.9h17.9V143z"/></g></g></g>
</svg>