<svg version="1.1" id="Layer_1" xmlns="http://www.w3.org/2000/svg" xmlns:xlink="http://www.w3.org/1999/xlink" x="0px" y="0px"
	 width="100%" viewBox="0 0 786 835" enable-background="new 0 0 786 835" xml:space="preserve">
<path fill="#000000" opacity="1.000000" stroke="none" 
	d="
M57.999985,836.000000 
	C39.083508,836.000000 20.167015,836.000000 1.000000,836.000000 
	C1.000000,821.980103 1.000000,807.958679 1.401925,793.312622 
	C1.869923,791.361816 1.993843,790.035583 1.993888,788.709412 
	C2.002261,541.949768 2.003594,295.190063 1.960363,48.430408 
	C1.960104,46.953552 1.333904,45.476799 1.000000,44.000000 
	C1.000000,29.673859 1.000000,15.347718 1.000000,1.041874 
	C263.000000,1.041874 525.000000,1.041874 787.000000,1.041874 
	C787.000000,15.076726 787.000000,29.069704 786.598938,43.688824 
	C786.132324,45.641315 786.009399,46.967659 786.009338,48.294010 
	C785.994080,295.056671 785.985840,541.819336 786.022888,788.582031 
	C786.023071,790.054749 786.660278,791.527344 787.000000,793.000000 
	C787.000000,807.270325 787.000000,821.540710 787.000000,836.000000 
	C768.312866,836.000000 749.625061,836.000000 730.468018,835.554688 
	C729.581970,830.981873 726.405823,833.088928 724.666748,833.088135 
	C504.259766,832.986450 283.852722,832.995483 63.445656,832.999023 
	C62.446079,832.999084 61.211720,832.633179 60.502544,833.087219 
	C59.469994,833.748291 58.815609,835.000061 57.999985,836.000000 
M58.042095,809.551270 
	C58.042095,809.551270 58.166744,809.963013 58.030350,810.895630 
	C58.030350,816.827881 58.030350,822.760193 58.030350,828.684204 
	C282.337921,828.684204 505.995392,828.684204 729.840332,828.684204 
	C729.840332,822.233887 729.840332,816.100464 729.959290,809.551941 
	C729.959290,809.551941 729.939880,809.120544 729.954468,808.450928 
	C729.937622,808.228271 729.920776,808.005615 729.964478,806.880554 
	C730.013611,802.287170 730.062683,797.693848 730.970398,793.012146 
	C735.954102,793.308899 733.916565,789.466064 733.917297,787.429077 
	C734.007629,545.946411 734.002625,304.463715 734.002625,62.980988 
	C734.002625,60.890358 734.002625,58.799732 734.002625,56.709103 
	C734.386353,56.711277 734.770081,56.713455 735.153809,56.715630 
	C735.153809,302.074677 735.153809,547.433716 735.153809,792.725464 
	C751.043091,792.725464 766.309387,792.725464 781.680481,792.725464 
	C781.680481,543.077515 781.680481,293.706787 781.680481,44.180305 
	C766.069092,44.180305 750.788025,44.180305 735.273621,44.180305 
	C735.089539,45.728821 734.923035,47.128872 734.756592,48.528919 
	C734.605408,48.536793 734.454163,48.544666 734.302917,48.552540 
	C734.119141,47.133961 733.935303,45.715382 733.739563,44.204929 
	C732.389465,44.090576 731.251831,43.994221 730.007812,43.005772 
	C730.007812,40.111881 730.007812,37.217991 730.007812,34.136536 
	C727.579956,34.136536 725.790588,34.136536 723.600037,33.362820 
	C721.783813,33.241199 719.967590,33.013195 718.151367,33.013046 
	C500.659302,32.995060 283.167236,32.993931 65.675171,32.991917 
	C63.904484,32.991901 62.133801,32.991917 60.056885,32.991917 
	C60.056885,38.406242 60.056934,43.208721 60.056873,48.011200 
	C60.053837,280.169342 60.112030,512.327576 59.934917,744.485596 
	C59.920277,763.679993 62.034950,782.997864 58.002018,802.895447 
	C58.034882,804.522461 58.067749,806.149475 58.047890,808.447998 
	C58.052322,808.672546 58.056751,808.897034 58.042095,809.551270 
M15.537819,43.999706 
	C12.444586,43.999706 9.351353,43.999706 6.373851,43.999706 
	C6.373851,294.057434 6.373851,543.411499 6.373851,792.737427 
	C22.014332,792.737427 37.278683,792.737427 52.703617,792.737427 
	C52.703617,543.122742 52.703617,293.771027 52.703617,43.999706 
	C40.449806,43.999706 28.487810,43.999706 15.537819,43.999706 
M602.500000,29.140388 
	C644.913696,29.140388 687.327393,29.140388 729.608704,29.140388 
	C729.608704,23.308289 729.608704,18.244354 729.608704,13.271223 
	C505.624695,13.271223 282.031830,13.271223 58.311775,13.271223 
	C58.311775,18.613661 58.311775,23.676643 58.311775,29.140490 
	C239.582352,29.140490 420.541168,29.140490 602.500000,29.140388 
M328.500000,10.000523 
	C460.461700,10.000523 592.423401,10.006106 724.385071,9.944203 
	C726.250793,9.943328 728.116150,9.096379 729.981689,8.644313 
	C728.047119,8.096473 726.112732,7.069414 724.177979,7.068778 
	C503.908600,6.996336 283.639252,7.000291 63.369869,7.000108 
	C62.203541,7.000107 60.991417,6.808507 59.887402,7.071059 
	C59.181583,7.238914 58.635555,8.078680 58.017891,8.617211 
	C58.704475,9.078332 59.340359,9.790257 60.089546,9.941723 
	C61.210075,10.168262 62.410305,10.000578 63.576633,10.000577 
	C151.551086,10.000560 239.525543,10.000541 328.500000,10.000523 
M8.003471,10.726100 
	C8.003471,19.326977 8.003471,27.927853 8.003471,36.688156 
	C22.553728,36.688156 36.582939,36.688156 50.632584,36.688156 
	C50.632584,27.002630 50.632584,17.632315 50.632584,8.010412 
	C36.976357,8.010412 23.684423,7.980166 10.393573,8.085812 
	C9.599049,8.092128 8.813167,9.185719 8.003471,10.726100 
M780.001221,823.377197 
	C780.001221,815.637634 780.001221,807.898132 780.001221,800.262451 
	C765.288879,800.262451 751.373657,800.262451 737.311523,800.262451 
	C737.311523,809.898804 737.311523,819.270142 737.311523,828.816528 
	C751.536987,828.816528 765.450073,828.816528 779.708496,828.816528 
	C779.812988,827.222107 779.907227,825.783691 780.001221,823.377197 
M27.500395,828.999268 
	C35.243782,828.999268 42.987167,828.999268 50.585983,828.999268 
	C50.585983,818.901733 50.585983,809.531616 50.585983,800.262024 
	C36.260170,800.262024 22.348656,800.262024 8.315964,800.262024 
	C8.315964,809.896179 8.315964,819.265503 8.315964,828.999268 
	C14.585494,828.999268 20.543066,828.999268 27.500395,828.999268 
M736.999695,25.482466 
	C736.999695,29.235273 736.999695,32.988079 736.999695,36.599800 
	C751.743713,36.599800 765.775208,36.599800 779.729370,36.599800 
	C779.729370,26.944040 779.729370,17.690727 779.729370,8.308371 
	C765.425964,8.308371 751.396240,8.308371 736.999878,8.308371 
	C736.999878,13.903803 736.999878,19.196838 736.999695,25.482466 
z"/>
<path fill="#FFFFFF" opacity="1.000000" stroke="none" 
	d="
M58.468643,836.000000 
	C58.815609,835.000061 59.469994,833.748291 60.502544,833.087219 
	C61.211720,832.633179 62.446079,832.999084 63.445656,832.999023 
	C283.852722,832.995483 504.259766,832.986450 724.666748,833.088135 
	C726.405823,833.088928 729.581970,830.981873 729.999390,835.554688 
	C506.312439,836.000000 282.624878,836.000000 58.468643,836.000000 
z"/>
<path fill="#FFFFFF" opacity="1.000000" stroke="none" 
	d="
M787.000000,792.537354 
	C786.660278,791.527344 786.023071,790.054749 786.022888,788.582031 
	C785.985840,541.819336 785.994080,295.056671 786.009338,48.294010 
	C786.009399,46.967659 786.132324,45.641315 786.598938,44.157482 
	C787.000000,293.358246 787.000000,542.716492 787.000000,792.537354 
z"/>
<path fill="#FEFEFE" opacity="1.000000" stroke="none" 
	d="
M1.000000,44.462639 
	C1.333904,45.476799 1.960104,46.953552 1.960363,48.430408 
	C2.003594,295.190063 2.002261,541.949768 1.993888,788.709412 
	C1.993843,790.035583 1.869923,791.361816 1.401925,792.843994 
	C1.000000,543.641785 1.000000,294.283508 1.000000,44.462639 
z"/>
<path fill="#868686" opacity="1.000000" stroke="none" 
	d="
M58.121048,802.089783 
	C62.034950,782.997864 59.920277,763.679993 59.934917,744.485596 
	C60.112030,512.327576 60.053837,280.169342 60.056873,48.011200 
	C60.056934,43.208721 60.056885,38.406242 60.056885,32.991917 
	C62.133801,32.991917 63.904484,32.991901 65.675171,32.991917 
	C283.167236,32.993931 500.659302,32.995060 718.151367,33.013046 
	C719.967590,33.013195 721.783813,33.241199 723.832031,34.208652 
	C724.056946,43.356964 724.049866,51.659447 724.001343,60.432007 
	C723.946106,62.400753 723.920288,63.899414 723.920227,65.398079 
	C723.918884,237.281555 723.918701,409.165039 723.924805,581.048523 
	C723.924927,584.044922 724.001465,587.041321 724.001709,590.502441 
	C723.961121,661.181091 723.961121,731.394958 723.961121,801.979370 
	C720.571167,801.979370 718.425110,801.979431 716.279114,801.979431 
	C527.875732,801.978149 339.472382,801.971619 151.069016,801.980713 
	C120.086357,801.982239 89.103706,802.051758 58.121048,802.089783 
M719.409302,106.656982 
	C719.349243,106.151260 719.289185,105.645538 719.577515,104.332703 
	C719.519043,103.170425 719.460510,102.008156 719.637390,100.023331 
	C719.229980,97.550606 719.009338,95.026978 718.353821,92.621872 
	C717.862610,90.819633 716.218750,89.203247 716.120178,87.446236 
	C715.816956,82.041534 716.009705,76.609024 716.009705,70.988411 
	C712.886536,70.988411 710.562561,70.988411 708.238586,70.988403 
	C498.256042,70.987633 288.273468,70.986855 78.290924,70.986130 
	C68.983871,70.986092 69.241852,70.996323 68.871117,80.549606 
	C68.704330,84.847466 71.556084,90.348473 65.284569,93.095955 
	C64.840088,93.290665 64.725151,94.606667 64.729408,95.399811 
	C64.774139,103.722351 64.842796,112.045174 64.998283,120.366173 
	C65.018410,121.443420 65.362320,123.317421 65.902794,123.454338 
	C69.986809,124.488907 68.968315,127.643921 68.969460,130.301575 
	C68.992897,184.630402 68.990105,238.959229 68.978180,293.288055 
	C68.977592,295.956635 69.929665,299.106873 65.656700,299.767120 
	C65.151245,299.845245 64.622871,301.706604 64.611961,302.746674 
	C64.528038,310.744934 64.501091,318.745667 64.639839,326.742432 
	C64.662659,328.057831 65.347313,330.307190 66.130249,330.502228 
	C69.752319,331.404327 68.982208,334.044037 68.982605,336.420288 
	C68.991364,388.915924 69.023140,441.411652 68.904694,493.907013 
	C68.897163,497.245544 71.113724,501.775665 65.541832,503.473053 
	C65.068169,503.617371 65.018776,505.617950 65.012192,506.757599 
	C64.965027,514.923157 64.940880,523.089478 65.017319,531.254578 
	C65.028839,532.485291 65.330650,534.601807 65.959396,534.793152 
	C69.866791,535.982361 68.971870,539.026978 68.972816,541.693542 
	C68.992035,595.522400 68.992409,649.351257 68.975029,703.180115 
	C68.974007,706.351257 69.953934,709.894287 65.604607,711.513184 
	C64.878227,711.783508 64.503288,713.810730 64.483826,715.034302 
	C64.367226,722.365417 64.275162,729.702515 64.487343,737.028625 
	C64.532845,738.599548 65.842636,740.143677 66.608040,741.681213 
	C67.376610,743.225220 68.803940,744.716309 68.878662,746.281433 
	C69.153908,752.046082 68.987961,757.831787 68.987961,763.523315 
	C284.866974,763.523315 500.171814,763.523315 716.011047,763.523315 
	C716.011047,759.270325 716.014709,754.982117 716.010010,750.693909 
	C716.005432,746.524902 715.181152,742.082275 720.070801,739.436401 
	C720.070801,739.436401 720.193115,739.523621 720.193115,739.523621 
	C720.193115,739.523621 719.796692,739.467285 719.695068,738.481384 
	C719.664551,733.713440 719.634094,728.945435 719.825928,723.520081 
	C719.773865,722.406433 719.721863,721.292847 719.655884,719.353271 
	C719.681824,717.715942 719.707764,716.078552 720.051941,714.034790 
	C719.718689,713.000977 719.385498,711.967163 718.309937,710.656067 
	C717.544189,708.744751 716.113647,706.835022 716.109375,704.921997 
	C715.988464,651.278564 715.979370,597.634705 716.087769,543.991211 
	C716.094666,540.576660 714.059082,536.145203 719.226624,534.170105 
	C719.538635,534.050842 719.583130,532.974976 719.586426,532.343384 
	C719.631775,523.708435 719.689636,515.072937 719.623169,506.438538 
	C719.613953,505.244263 719.161194,503.149139 718.562012,503.012360 
	C715.026672,502.205566 716.040161,499.552948 716.038818,497.433929 
	C716.004028,443.457031 715.981995,389.480042 716.111450,335.503418 
	C716.116760,333.288422 717.612000,331.077057 718.413147,328.864014 
	C718.911804,328.973053 719.410522,329.082092 719.909241,329.191162 
	C719.909241,320.208557 719.969849,311.225098 719.836670,302.244476 
	C719.818970,301.049011 718.856445,299.848572 718.262695,298.685516 
	C717.550781,297.291138 716.108643,295.935699 716.105896,294.561188 
	C715.995117,239.251709 716.006287,183.941971 716.045105,128.632309 
	C716.045959,127.388855 716.435364,126.108719 716.837646,124.910858 
	C717.507690,122.915428 718.335083,120.972801 719.509033,118.392990 
	C719.398865,114.638885 719.288635,110.884773 719.409302,106.656982 
M640.977783,791.292419 
	C641.100342,789.895264 641.222961,788.498108 641.330078,787.277466 
	C655.795227,787.277466 669.707825,787.277466 683.675842,787.277466 
	C683.929016,789.286804 684.148560,791.029602 684.405212,793.066406 
	C686.068787,792.899719 687.446899,792.761719 688.726440,792.633545 
	C688.726440,788.943542 688.726440,785.684814 688.726440,782.311890 
	C671.097595,782.311890 653.742310,782.311890 636.340637,782.311890 
	C636.340637,786.023193 636.340637,789.416077 636.340637,793.296997 
	C638.123474,792.856995 639.490173,792.519653 640.977783,791.292419 
M145.144760,793.179932 
	C146.608795,793.469299 148.072845,793.758667 149.641388,794.068726 
	C149.641388,790.031799 149.641388,786.649353 149.641388,783.384216 
	C131.920471,783.384216 114.558762,783.384216 97.253487,783.384216 
	C97.253487,787.047607 97.253487,790.321533 97.253487,793.690918 
	C98.895737,793.690918 100.282921,793.690918 101.683647,793.690918 
	C101.956284,791.676453 102.190308,789.947327 102.423027,788.227783 
	C116.686020,788.227783 130.600464,788.227783 144.822174,788.227783 
	C144.896454,789.721497 144.960327,791.005859 145.144760,793.179932 
M82.173965,773.396912 
	C75.420883,773.454407 75.235283,773.632812 75.134491,780.421082 
	C75.090210,783.403564 75.140755,786.388794 75.037750,789.368896 
	C74.901268,793.317627 77.421646,793.996887 80.544334,794.013855 
	C83.842628,794.031738 85.259018,792.586060 84.995392,789.115540 
	C84.707413,785.324463 85.085556,781.483948 84.820053,777.689636 
	C84.721252,776.277588 83.622841,774.935486 82.173965,773.396912 
M707.205627,774.098328 
	C705.389404,774.057983 703.515625,773.734863 701.779419,774.088013 
	C700.806458,774.285828 699.379883,775.562195 699.327515,776.423706 
	C699.046692,781.039917 698.912415,785.695679 699.267151,790.296082 
	C699.344910,791.304871 701.668884,792.965454 702.865540,792.888062 
	C705.219666,792.735901 709.504456,791.578308 709.505676,790.831116 
	C709.514404,785.339783 708.661133,779.847046 707.205627,774.098328 
M711.940979,52.440750 
	C711.940979,49.385571 711.940979,46.330391 711.940979,43.351555 
	C708.161194,43.351555 705.252991,43.351555 702.261475,43.351555 
	C701.876526,47.115704 701.360474,50.542545 701.210571,53.985317 
	C700.950195,59.967648 701.574646,60.209545 707.548584,60.183243 
	C712.967346,60.159386 711.914368,56.567154 711.940979,52.440750 
M81.470413,58.527851 
	C81.728195,53.511311 81.985970,48.494774 82.251976,43.318130 
	C78.461792,43.318130 75.580002,43.318130 71.984344,43.318130 
	C71.984344,47.170116 72.004211,50.760235 71.980003,54.350060 
	C71.935883,60.892830 74.989143,62.550419 81.470413,58.527851 
z"/>
<path fill="#868686" opacity="1.000000" stroke="none" 
	d="
M730.114197,43.897865 
	C731.251831,43.994221 732.389465,44.090576 733.739563,44.204929 
	C733.935303,45.715382 734.119141,47.133961 734.302917,48.552540 
	C734.454163,48.544666 734.605408,48.536793 734.756592,48.528919 
	C734.923035,47.128872 735.089539,45.728821 735.273621,44.180305 
	C750.788025,44.180305 766.069092,44.180305 781.680481,44.180305 
	C781.680481,293.706787 781.680481,543.077515 781.680481,792.725464 
	C766.309387,792.725464 751.043091,792.725464 735.153809,792.725464 
	C735.153809,547.433716 735.153809,302.074677 735.153809,56.715630 
	C734.770081,56.713455 734.386353,56.711277 734.002625,56.709103 
	C734.002625,58.799732 734.002625,60.890358 734.002625,62.980988 
	C734.002625,304.463715 734.007629,545.946411 733.917297,787.429077 
	C733.916565,789.466064 735.954102,793.308899 730.488342,792.583740 
	C729.996582,791.155823 729.978271,790.156189 729.978271,789.156616 
	C729.977417,545.733215 729.977051,302.309784 729.983887,58.886375 
	C729.984009,53.890205 730.068848,48.894035 730.114197,43.897865 
z"/>
<path fill="#868686" opacity="1.000000" stroke="none" 
	d="
M16.031816,43.999706 
	C28.487810,43.999706 40.449806,43.999706 52.703617,43.999706 
	C52.703617,293.771027 52.703617,543.122742 52.703617,792.737427 
	C37.278683,792.737427 22.014332,792.737427 6.373851,792.737427 
	C6.373851,543.411499 6.373851,294.057434 6.373851,43.999706 
	C9.351353,43.999706 12.444586,43.999706 16.031816,43.999706 
z"/>
<path fill="#868686" opacity="1.000000" stroke="none" 
	d="
M729.840332,809.967102 
	C729.840332,816.100464 729.840332,822.233887 729.840332,828.684204 
	C505.995392,828.684204 282.337921,828.684204 58.030350,828.684204 
	C58.030350,822.760193 58.030350,816.827881 58.275600,810.338501 
	C58.742592,809.616882 58.891613,809.401978 59.428207,809.065308 
	C280.441315,808.985901 500.994110,808.977295 721.546936,808.976685 
	C724.042053,808.976685 726.537170,809.080994 729.117920,809.317749 
	C729.364929,809.724121 729.577148,809.880188 729.840332,809.967102 
z"/>
<path fill="#868686" opacity="1.000000" stroke="none" 
	d="
M602.000000,29.140438 
	C420.541168,29.140490 239.582352,29.140490 58.311775,29.140490 
	C58.311775,23.676643 58.311775,18.613661 58.311775,13.271223 
	C282.031830,13.271223 505.624695,13.271223 729.608704,13.271223 
	C729.608704,18.244354 729.608704,23.308289 729.608704,29.140388 
	C687.327393,29.140388 644.913696,29.140388 602.000000,29.140438 
z"/>
<path fill="#FAFAFA" opacity="1.000000" stroke="none" 
	d="
M730.061035,43.451820 
	C730.068848,48.894035 729.984009,53.890205 729.983887,58.886375 
	C729.977051,302.309784 729.977417,545.733215 729.978271,789.156616 
	C729.978271,790.156189 729.996582,791.155823 730.059082,792.627930 
	C730.062683,797.693848 730.013611,802.287170 729.481079,807.376282 
	C510.196381,807.874023 291.395111,807.876709 72.593811,807.873840 
	C67.762749,807.873779 62.931683,807.810364 58.100616,807.776489 
	C58.067749,806.149475 58.034882,804.522461 58.061531,802.492615 
	C89.103706,802.051758 120.086357,801.982239 151.069016,801.980713 
	C339.472382,801.971619 527.875732,801.978149 716.279114,801.979431 
	C718.425110,801.979431 720.571167,801.979370 723.961121,801.979370 
	C723.961121,731.394958 723.961121,661.181091 724.405029,590.408020 
	C725.240234,587.861267 725.973389,585.873840 725.974060,583.886169 
	C726.027283,433.338074 726.022705,282.789978 726.022705,132.241867 
	C726.022705,109.759575 726.064514,87.277054 725.939148,64.795471 
	C725.930115,63.180817 724.703308,61.572952 724.042786,59.961929 
	C724.049866,51.659447 724.056946,43.356964 724.032654,34.595512 
	C725.790588,34.136536 727.579956,34.136536 730.007812,34.136536 
	C730.007812,37.217991 730.007812,40.111881 730.061035,43.451820 
z"/>
<path fill="#FEFEFE" opacity="1.000000" stroke="none" 
	d="
M328.000000,10.000523 
	C239.525543,10.000541 151.551086,10.000560 63.576633,10.000577 
	C62.410305,10.000578 61.210075,10.168262 60.089546,9.941723 
	C59.340359,9.790257 58.704475,9.078332 58.017891,8.617212 
	C58.635555,8.078680 59.181583,7.238914 59.887402,7.071059 
	C60.991417,6.808507 62.203541,7.000107 63.369869,7.000108 
	C283.639252,7.000291 503.908600,6.996336 724.177979,7.068778 
	C726.112732,7.069414 728.047119,8.096473 729.981689,8.644312 
	C728.116150,9.096379 726.250793,9.943328 724.385071,9.944203 
	C592.423401,10.006106 460.461700,10.000523 328.000000,10.000523 
z"/>
<path fill="#868686" opacity="1.000000" stroke="none" 
	d="
M8.013367,10.249735 
	C8.813167,9.185719 9.599049,8.092128 10.393573,8.085812 
	C23.684423,7.980166 36.976357,8.010412 50.632584,8.010412 
	C50.632584,17.632315 50.632584,27.002630 50.632584,36.688156 
	C36.582939,36.688156 22.553728,36.688156 8.003471,36.688156 
	C8.003471,27.927853 8.003471,19.326977 8.013367,10.249735 
z"/>
<path fill="#868686" opacity="1.000000" stroke="none" 
	d="
M780.001343,823.861267 
	C779.907227,825.783691 779.812988,827.222107 779.708496,828.816528 
	C765.450073,828.816528 751.536987,828.816528 737.311523,828.816528 
	C737.311523,819.270142 737.311523,809.898804 737.311523,800.262451 
	C751.373657,800.262451 765.288879,800.262451 780.001221,800.262451 
	C780.001221,807.898132 780.001221,815.637634 780.001343,823.861267 
z"/>
<path fill="#868686" opacity="1.000000" stroke="none" 
	d="
M27.000517,828.999268 
	C20.543066,828.999268 14.585494,828.999268 8.315964,828.999268 
	C8.315964,819.265503 8.315964,809.896179 8.315964,800.262024 
	C22.348656,800.262024 36.260170,800.262024 50.585983,800.262024 
	C50.585983,809.531616 50.585983,818.901733 50.585983,828.999268 
	C42.987167,828.999268 35.243782,828.999268 27.000517,828.999268 
z"/>
<path fill="#868686" opacity="1.000000" stroke="none" 
	d="
M736.999756,24.986170 
	C736.999878,19.196838 736.999878,13.903803 736.999878,8.308371 
	C751.396240,8.308371 765.425964,8.308371 779.729370,8.308371 
	C779.729370,17.690727 779.729370,26.944040 779.729370,36.599800 
	C765.775208,36.599800 751.743713,36.599800 736.999695,36.599800 
	C736.999695,32.988079 736.999695,29.235273 736.999756,24.986170 
z"/>
<path fill="#131313" opacity="1.000000" stroke="none" 
	d="
M58.074253,808.112183 
	C62.931683,807.810364 67.762749,807.873779 72.593811,807.873840 
	C291.395111,807.876709 510.196381,807.874023 729.450806,807.827515 
	C729.920776,808.005615 729.937622,808.228271 729.719604,808.749878 
	C729.484680,809.048889 729.032288,809.136658 729.032288,809.136658 
	C726.537170,809.080994 724.042053,808.976685 721.546936,808.976685 
	C500.994110,808.977295 280.441315,808.985901 59.202187,809.022095 
	C58.515873,809.050171 58.061176,809.121521 58.061176,809.121521 
	C58.056751,808.897034 58.052322,808.672546 58.074253,808.112183 
z"/>
<path fill="#919191" opacity="1.000000" stroke="none" 
	d="
M58.051636,809.336426 
	C58.061176,809.121521 58.515873,809.050171 58.741894,809.093384 
	C58.891613,809.401978 58.742592,809.616882 58.343796,809.872192 
	C58.166744,809.963013 58.042095,809.551270 58.051636,809.336426 
z"/>
<path fill="#919191" opacity="1.000000" stroke="none" 
	d="
M729.117920,809.317749 
	C729.032288,809.136658 729.484680,809.048889 729.712280,809.084717 
	C729.939880,809.120544 729.959290,809.551941 729.899780,809.759521 
	C729.577148,809.880188 729.364929,809.724121 729.117920,809.317749 
z"/>
<path fill="#040404" opacity="1.000000" stroke="none" 
	d="
M719.733765,714.441223 
	C719.707764,716.078552 719.681824,717.715942 719.313965,719.612549 
	C718.432007,718.932678 717.891907,717.993591 717.172852,716.743347 
	C717.172852,720.656128 717.172852,724.223145 717.172852,727.802673 
	C718.014099,726.548035 718.808838,725.362793 719.603638,724.177490 
	C719.634094,728.945435 719.664551,733.713440 719.774292,738.977722 
	C719.853455,739.474060 719.796021,739.473145 719.796021,739.473145 
	C715.181152,742.082275 716.005432,746.524902 716.010010,750.693909 
	C716.014709,754.982117 716.011047,759.270325 716.011047,763.523315 
	C500.171814,763.523315 284.866974,763.523315 68.987961,763.523315 
	C68.987961,757.831787 69.153908,752.046082 68.878662,746.281433 
	C68.803940,744.716309 67.376610,743.225220 66.608040,741.681213 
	C65.842636,740.143677 64.532845,738.599548 64.487343,737.028625 
	C64.275162,729.702515 64.367226,722.365417 64.483826,715.034302 
	C64.503288,713.810730 64.878227,711.783508 65.604607,711.513184 
	C69.953934,709.894287 68.974007,706.351257 68.975029,703.180115 
	C68.992409,649.351257 68.992035,595.522400 68.972816,541.693542 
	C68.971870,539.026978 69.866791,535.982361 65.959396,534.793152 
	C65.330650,534.601807 65.028839,532.485291 65.017319,531.254578 
	C64.940880,523.089478 64.965027,514.923157 65.012192,506.757599 
	C65.018776,505.617950 65.068169,503.617371 65.541832,503.473053 
	C71.113724,501.775665 68.897163,497.245544 68.904694,493.907013 
	C69.023140,441.411652 68.991364,388.915924 68.982605,336.420288 
	C68.982208,334.044037 69.752319,331.404327 66.130249,330.502228 
	C65.347313,330.307190 64.662659,328.057831 64.639839,326.742432 
	C64.501091,318.745667 64.528038,310.744934 64.611961,302.746674 
	C64.622871,301.706604 65.151245,299.845245 65.656700,299.767120 
	C69.929665,299.106873 68.977592,295.956635 68.978180,293.288055 
	C68.990105,238.959229 68.992897,184.630402 68.969460,130.301575 
	C68.968315,127.643921 69.986809,124.488907 65.902794,123.454338 
	C65.362320,123.317421 65.018410,121.443420 64.998283,120.366173 
	C64.842796,112.045174 64.774139,103.722351 64.729408,95.399811 
	C64.725151,94.606667 64.840088,93.290665 65.284569,93.095955 
	C71.556084,90.348473 68.704330,84.847466 68.871117,80.549606 
	C69.241852,70.996323 68.983871,70.986092 78.290924,70.986130 
	C288.273468,70.986855 498.256042,70.987633 708.238586,70.988403 
	C710.562561,70.988411 712.886536,70.988411 716.009705,70.988411 
	C716.009705,76.609024 715.816956,82.041534 716.120178,87.446236 
	C716.218750,89.203247 717.862610,90.819633 718.353821,92.621872 
	C719.009338,95.026978 719.229980,97.550606 719.246216,100.385056 
	C718.238098,100.656212 717.621155,100.565643 717.004211,100.475082 
	C717.057373,106.229897 717.068542,111.986031 717.246704,117.736984 
	C717.260437,118.179314 718.452026,118.585152 719.096191,119.007950 
	C718.335083,120.972801 717.507690,122.915428 716.837646,124.910858 
	C716.435364,126.108719 716.045959,127.388855 716.045105,128.632309 
	C716.006287,183.941971 715.995117,239.251709 716.105896,294.561188 
	C716.108643,295.935699 717.550781,297.291138 718.262695,298.685516 
	C718.856445,299.848572 719.818970,301.049011 719.836670,302.244476 
	C719.969849,311.225098 719.909241,320.208557 719.909241,329.191162 
	C719.410522,329.082092 718.911804,328.973053 718.413147,328.864014 
	C717.612000,331.077057 716.116760,333.288422 716.111450,335.503418 
	C715.981995,389.480042 716.004028,443.457031 716.038818,497.433929 
	C716.040161,499.552948 715.026672,502.205566 718.562012,503.012360 
	C719.161194,503.149139 719.613953,505.244263 719.623169,506.438538 
	C719.689636,515.072937 719.631775,523.708435 719.586426,532.343384 
	C719.583130,532.974976 719.538635,534.050842 719.226624,534.170105 
	C714.059082,536.145203 716.094666,540.576660 716.087769,543.991211 
	C715.979370,597.634705 715.988464,651.278564 716.109375,704.921997 
	C716.113647,706.835022 717.544189,708.744751 718.697449,711.246704 
	C719.301208,712.705322 719.517456,713.573303 719.733765,714.441223 
M713.761292,716.298706 
	C705.312073,716.287231 696.862854,716.275696 687.517456,715.950134 
	C684.691956,716.577087 681.866394,717.204041 678.262390,717.919128 
	C677.448730,719.274475 676.635071,720.629822 675.207581,721.894043 
	C674.550293,721.562012 673.893066,721.229919 672.863708,720.709900 
	C672.863708,723.421021 672.863708,725.748108 672.863708,728.364502 
	C672.067993,727.748901 671.591125,727.379944 670.986084,726.220764 
	C670.972961,725.387939 670.941833,724.554932 670.949524,723.722290 
	C671.051270,712.770142 671.043884,712.674438 681.866150,711.686401 
	C690.436951,710.903870 699.032654,710.393677 707.574829,709.765686 
	C707.574829,651.293640 707.574829,593.264343 707.574829,535.699829 
	C696.990540,534.850647 686.884644,534.077576 676.786865,533.210693 
	C672.878296,532.875183 670.790344,531.005920 671.130737,526.666138 
	C671.416077,523.027893 671.099731,519.340698 671.020447,515.675842 
	C670.834167,507.065918 672.298035,505.152588 680.946350,504.185303 
	C688.058105,503.389832 695.217712,502.853729 702.368958,502.646606 
	C706.424866,502.529144 708.125122,501.623016 708.110596,497.005188 
	C707.941589,443.511505 708.009705,390.017090 707.998230,336.522888 
	C707.997925,335.078094 707.809937,333.633392 707.677490,331.729034 
	C703.880127,331.729034 700.377869,332.016937 696.940125,331.668488 
	C690.009094,330.966034 683.113281,329.915894 676.202637,329.012299 
	C672.442810,328.520691 670.696777,326.320251 670.686890,322.593353 
	C670.674072,317.769989 670.766968,312.940857 670.561340,308.125031 
	C670.362915,303.478516 672.851868,301.341034 677.008545,300.839386 
	C683.288452,300.081482 689.587891,299.426971 695.897156,298.991821 
	C699.798401,298.722748 703.733337,298.941925 707.701111,298.941925 
	C707.848450,296.955688 707.984863,295.972900 707.985168,294.990021 
	C708.001099,239.829529 707.979370,184.669006 708.075134,129.508667 
	C708.080994,126.113472 707.062012,124.889038 703.625000,124.609039 
	C694.526306,123.867821 685.452942,122.785721 676.385681,121.703171 
	C672.355347,121.221985 670.248779,119.428474 670.928406,114.668968 
	C671.557129,110.266792 671.490112,105.617599 670.816101,101.217102 
	C670.089966,96.476868 672.164978,94.644241 676.218384,94.191422 
	C683.821838,93.342026 691.446350,92.677856 699.065063,91.968773 
	C701.969482,91.698448 704.882141,91.516418 708.101807,91.270409 
	C707.775635,86.466286 707.500366,82.411354 707.214539,78.201622 
	C705.842773,78.124184 704.859131,78.020126 703.875549,78.020050 
	C602.219788,78.011948 500.563995,78.007790 398.908234,78.051758 
	C397.534912,78.052353 396.161896,78.666733 394.112549,78.831009 
	C393.368774,77.573372 392.625031,76.315735 391.631256,74.635353 
	C390.546539,75.992302 389.725098,77.019920 387.979095,78.010674 
	C284.417816,78.010674 180.856567,78.010674 77.417877,78.010674 
	C77.417877,83.141228 77.417877,87.546196 77.417877,92.066330 
	C85.958221,92.439575 94.110855,92.649284 102.241486,93.189888 
	C111.515617,93.806519 113.044861,95.514359 113.023277,104.240532 
	C113.018333,106.239922 113.014244,108.239655 112.975822,110.238579 
	C112.785088,120.162949 111.040833,122.033287 101.204697,122.871346 
	C100.541763,122.927834 99.871010,122.887619 99.206627,122.932655 
	C91.953201,123.424355 84.700317,123.924080 77.298599,124.431824 
	C77.298599,182.300980 77.298599,240.033905 77.298599,298.134094 
	C79.841026,298.311218 82.139977,298.383698 84.417084,298.645935 
	C92.181892,299.540131 99.933769,300.547974 107.701256,301.417145 
	C111.634636,301.857300 113.105896,303.999664 112.941116,307.826904 
	C112.747726,312.318420 112.959763,316.827789 112.755104,321.318390 
	C112.422287,328.621399 111.791832,329.237396 104.351181,329.885925 
	C95.432289,330.663239 86.503792,331.330322 77.342560,332.064148 
	C77.342560,388.678406 77.342560,445.392273 77.342560,502.313385 
	C81.641640,502.561890 85.625237,502.761444 89.604103,503.030823 
	C93.592125,503.300812 97.587448,503.531738 101.558487,503.970520 
	C112.312630,505.158875 113.004402,505.967651 112.947960,516.541748 
	C112.937286,518.541138 112.931511,520.540833 112.894669,522.539856 
	C112.717316,532.162720 111.483757,533.442444 101.973579,533.893799 
	C100.975075,533.941162 99.974319,533.945129 98.976509,534.002380 
	C91.734215,534.418396 84.492401,534.842957 77.400063,535.256165 
	C77.210724,536.040833 77.067162,536.358215 77.067024,536.675598 
	C77.042549,593.326782 77.047028,649.977905 76.960175,706.629028 
	C76.955681,709.559998 78.125931,710.239807 80.770195,710.411011 
	C89.407372,710.970459 98.021149,711.900024 106.659966,712.421570 
	C111.177444,712.694275 112.872948,715.154602 112.768646,719.198547 
	C112.631508,724.515747 112.055878,729.825378 112.025566,735.140381 
	C112.002403,739.200745 109.992889,740.881165 106.283546,741.122253 
	C97.982346,741.661865 89.668991,742.056396 81.385925,742.794434 
	C79.872955,742.929260 77.351471,744.276978 77.230270,745.295105 
	C76.748032,749.346008 77.031670,753.488037 77.031670,757.985535 
	C79.594650,757.985535 81.560570,757.985535 83.526497,757.985535 
	C124.515694,757.986206 165.504898,757.999512 206.494095,757.984680 
	C267.310303,757.962769 328.126526,757.920959 389.358276,758.482178 
	C391.379578,759.416687 393.571503,761.930420 395.979309,757.961304 
	C495.968536,757.970032 595.957764,757.979736 695.947021,757.986389 
	C708.763855,757.987244 708.766541,757.979675 707.859802,745.049377 
	C707.838623,744.746948 707.571838,744.461792 707.223511,743.790894 
	C705.160706,743.557312 702.870239,743.182068 700.566345,743.058472 
	C693.099060,742.657898 685.608582,742.552734 678.167236,741.885315 
	C675.860962,741.678467 673.682922,740.041016 672.187561,739.024658 
	C673.791077,738.395630 675.394592,737.766541 677.767212,737.208862 
	C679.489563,737.519287 681.205261,738.018433 682.936462,738.080078 
	C684.310242,738.128967 685.703064,737.642029 687.786377,737.252625 
	C688.490417,737.330688 689.194397,737.408752 690.025879,738.197693 
	C692.061218,738.035400 694.096619,737.873108 697.005920,737.456848 
	C700.964783,737.543335 704.923706,737.629822 709.027588,738.166504 
	C709.723633,737.982361 710.419678,737.798279 711.833557,737.306152 
	C712.671326,735.896179 713.509094,734.486206 715.072998,732.801880 
	C714.859497,727.503113 714.645996,722.204346 713.761292,716.298706 
M712.654724,96.974411 
	C704.759216,97.041847 696.863708,97.109291 688.198303,97.419922 
	C686.547791,97.614578 684.901672,97.865952 683.246033,97.994141 
	C675.846497,98.567009 675.845581,98.554321 675.713135,105.752693 
	C675.508240,116.889740 675.508179,116.889740 687.108154,119.352890 
	C687.735168,119.257950 688.362122,119.163010 689.925293,118.996040 
	C696.909180,119.247185 703.893066,119.498329 711.035522,120.195496 
	C711.730957,120.001564 712.426331,119.807632 713.867676,119.160500 
	C714.177734,112.926224 714.565186,106.693794 714.713257,100.455688 
	C714.735107,99.533821 713.624084,98.585068 712.654724,96.974411 
M675.248535,318.012817 
	C676.772583,320.332794 677.889893,324.190430 679.887756,324.718872 
	C691.368530,327.755463 703.098633,326.631592 715.227722,326.116547 
	C715.227722,319.939911 715.014343,314.469208 715.298950,309.024567 
	C715.506165,305.061035 713.929382,303.593658 710.141052,303.731659 
	C702.504578,304.009796 694.853699,303.987457 687.226929,304.414459 
	C675.435120,305.074677 675.441589,305.190399 675.248535,318.012817 
M683.512451,529.151489 
	C692.681763,529.463379 701.851013,529.919434 711.020447,529.923950 
	C712.321350,529.924622 714.665527,527.793762 714.743469,526.538696 
	C715.071533,521.254395 714.996155,515.898926 714.433228,510.637421 
	C714.290100,509.299194 711.806763,507.170441 710.407654,507.177643 
	C701.791748,507.221802 693.169373,507.636444 684.567078,508.200684 
	C677.745056,508.648132 676.373962,509.967224 675.868652,515.364014 
	C674.980835,524.845703 676.062988,527.001587 683.512451,529.151489 
M96.957817,304.401398 
	C89.309486,304.096619 81.661606,303.641876 74.012413,303.618500 
	C72.549759,303.614014 69.922089,305.186676 69.810219,306.241516 
	C69.215096,311.853058 69.095886,317.534271 69.202789,323.183990 
	C69.222954,324.249908 71.023224,326.202087 71.981255,326.189240 
	C82.622620,326.046783 93.264771,325.688171 103.891876,325.113403 
	C105.174164,325.044037 107.400551,323.389740 107.430664,322.415649 
	C107.583092,317.485443 107.961433,312.283020 106.525177,307.722595 
	C105.963730,305.939850 100.868416,305.584991 96.957817,304.401398 
M102.156029,118.019829 
	C106.739868,117.796982 108.603050,115.110176 108.602417,110.814377 
	C108.602074,108.489410 108.425751,106.164246 108.434189,103.839554 
	C108.446770,100.369370 106.562416,98.443901 103.327621,98.264565 
	C93.206444,97.703453 83.074745,97.275101 72.941559,97.068794 
	C71.839508,97.046349 69.776558,98.760002 69.730186,99.742538 
	C69.434647,106.003654 69.579742,112.285568 69.579742,119.637039 
	C80.493317,119.116684 90.898621,118.620560 102.156029,118.019829 
M97.044655,529.639648 
	C99.028069,529.440491 101.198410,529.675842 102.944336,528.924683 
	C104.836868,528.110535 107.589569,526.522278 107.763580,525.016907 
	C108.248558,520.821350 107.828247,516.460999 107.237564,512.239563 
	C107.069298,511.037018 105.164085,509.250122 103.941086,509.151672 
	C92.770515,508.252777 81.574684,507.667664 70.226715,506.981293 
	C70.226715,515.280579 70.226715,522.382812 70.226715,529.695923 
	C78.991432,529.695923 87.557426,529.695923 97.044655,529.639648 
M69.322670,731.383362 
	C68.379257,736.351807 70.710526,737.849243 75.383469,737.586487 
	C82.199089,737.203247 89.044121,737.351440 95.861458,736.988525 
	C108.612839,736.309692 109.298134,735.189697 107.748383,722.169373 
	C107.327866,718.636414 105.930679,717.161865 102.556389,716.956970 
	C92.918434,716.371582 83.290550,715.545654 73.645294,715.246094 
	C72.383850,715.206909 70.175293,717.540833 69.911598,719.040466 
	C69.254410,722.777893 69.465492,726.667969 69.322670,731.383362 
z"/>
<path fill="#BFBFBF" opacity="1.000000" stroke="none" 
	d="
M724.001343,60.432007 
	C724.703308,61.572952 725.930115,63.180817 725.939148,64.795471 
	C726.064514,87.277054 726.022705,109.759575 726.022705,132.241867 
	C726.022705,282.789978 726.027283,433.338074 725.974060,583.886169 
	C725.973389,585.873840 725.240234,587.861267 724.445679,589.943237 
	C724.001465,587.041321 723.924927,584.044922 723.924805,581.048523 
	C723.918701,409.165039 723.918884,237.281555 723.920227,65.398079 
	C723.920288,63.899414 723.946106,62.400753 724.001343,60.432007 
z"/>
<path fill="#000000" opacity="1.000000" stroke="none" 
	d="
M640.917358,791.737427 
	C639.490173,792.519653 638.123474,792.856995 636.340637,793.296997 
	C636.340637,789.416077 636.340637,786.023193 636.340637,782.311890 
	C653.742310,782.311890 671.097595,782.311890 688.726440,782.311890 
	C688.726440,785.684814 688.726440,788.943542 688.726440,792.633545 
	C687.446899,792.761719 686.068787,792.899719 684.405212,793.066406 
	C684.148560,791.029602 683.929016,789.286804 683.675842,787.277466 
	C669.707825,787.277466 655.795227,787.277466 641.330078,787.277466 
	C641.222961,788.498108 641.100342,789.895264 640.917358,791.737427 
z"/>
<path fill="#000000" opacity="1.000000" stroke="none" 
	d="
M145.084473,792.735046 
	C144.960327,791.005859 144.896454,789.721497 144.822174,788.227783 
	C130.600464,788.227783 116.686020,788.227783 102.423027,788.227783 
	C102.190308,789.947327 101.956284,791.676453 101.683647,793.690918 
	C100.282921,793.690918 98.895737,793.690918 97.253487,793.690918 
	C97.253487,790.321533 97.253487,787.047607 97.253487,783.384216 
	C114.558762,783.384216 131.920471,783.384216 149.641388,783.384216 
	C149.641388,786.649353 149.641388,790.031799 149.641388,794.068726 
	C148.072845,793.758667 146.608795,793.469299 145.084473,792.735046 
z"/>
<path fill="#040404" opacity="1.000000" stroke="none" 
	d="
M82.577103,773.479248 
	C83.622841,774.935486 84.721252,776.277588 84.820053,777.689636 
	C85.085556,781.483948 84.707413,785.324463 84.995392,789.115540 
	C85.259018,792.586060 83.842628,794.031738 80.544334,794.013855 
	C77.421646,793.996887 74.901268,793.317627 75.037750,789.368896 
	C75.140755,786.388794 75.090210,783.403564 75.134491,780.421082 
	C75.235283,773.632812 75.420883,773.454407 82.577103,773.479248 
z"/>
<path fill="#040404" opacity="1.000000" stroke="none" 
	d="
M707.642517,774.226562 
	C708.661133,779.847046 709.514404,785.339783 709.505676,790.831116 
	C709.504456,791.578308 705.219666,792.735901 702.865540,792.888062 
	C701.668884,792.965454 699.344910,791.304871 699.267151,790.296082 
	C698.912415,785.695679 699.046692,781.039917 699.327515,776.423706 
	C699.379883,775.562195 700.806458,774.285828 701.779419,774.088013 
	C703.515625,773.734863 705.389404,774.057983 707.642517,774.226562 
z"/>
<path fill="#040404" opacity="1.000000" stroke="none" 
	d="
M711.946228,52.916061 
	C711.914368,56.567154 712.967346,60.159386 707.548584,60.183243 
	C701.574646,60.209545 700.950195,59.967648 701.210571,53.985317 
	C701.360474,50.542545 701.876526,47.115704 702.261475,43.351555 
	C705.252991,43.351555 708.161194,43.351555 711.940979,43.351555 
	C711.940979,46.330391 711.940979,49.385571 711.946228,52.916061 
z"/>
<path fill="#040404" opacity="1.000000" stroke="none" 
	d="
M81.243774,58.882267 
	C74.989143,62.550419 71.935883,60.892830 71.980003,54.350060 
	C72.004211,50.760235 71.984344,47.170116 71.984344,43.318130 
	C75.580002,43.318130 78.461792,43.318130 82.251976,43.318130 
	C81.985970,48.494774 81.728195,53.511311 81.243774,58.882267 
z"/>
<path fill="#1E1E1E" opacity="1.000000" stroke="none" 
	d="
M719.302612,118.700470 
	C718.452026,118.585152 717.260437,118.179314 717.246704,117.736984 
	C717.068542,111.986031 717.057373,106.229897 717.004211,100.475082 
	C717.621155,100.565643 718.238098,100.656212 719.128540,100.796326 
	C719.460510,102.008156 719.519043,103.170425 719.172241,104.806808 
	C718.904114,105.897491 719.041260,106.514084 719.178406,107.130669 
	C719.288635,110.884773 719.398865,114.638885 719.302612,118.700470 
z"/>
<path fill="#313033" opacity="1.000000" stroke="none" 
	d="
M719.714722,723.848755 
	C718.808838,725.362793 718.014099,726.548035 717.172852,727.802673 
	C717.172852,724.223145 717.172852,720.656128 717.172852,716.743347 
	C717.891907,717.993591 718.432007,718.932678 719.320923,720.025513 
	C719.721863,721.292847 719.773865,722.406433 719.714722,723.848755 
z"/>
<path fill="#313033" opacity="1.000000" stroke="none" 
	d="
M719.892822,714.238037 
	C719.517456,713.573303 719.301208,712.705322 719.068604,711.385376 
	C719.385498,711.967163 719.718689,713.000977 719.892822,714.238037 
z"/>
<path fill="#040404" opacity="1.000000" stroke="none" 
	d="
M719.293823,106.893829 
	C719.041260,106.514084 718.904114,105.897491 718.998047,105.210358 
	C719.289185,105.645538 719.349243,106.151260 719.293823,106.893829 
z"/>
<path fill="#313033" opacity="1.000000" stroke="none" 
	d="
M719.933411,739.454773 
	C719.796021,739.473145 719.853455,739.474060 719.825073,739.470703 
	C719.796692,739.467285 720.193115,739.523621 720.193115,739.523621 
	C720.193115,739.523621 720.070801,739.436401 719.933411,739.454773 
z"/>
<path fill="#868686" opacity="1.000000" stroke="none" 
	d="
M394.788757,78.994629 
	C396.161896,78.666733 397.534912,78.052353 398.908234,78.051758 
	C500.563995,78.007790 602.219788,78.011948 703.875549,78.020050 
	C704.859131,78.020126 705.842773,78.124184 707.214539,78.201622 
	C707.500366,82.411354 707.775635,86.466286 708.101807,91.270409 
	C704.882141,91.516418 701.969482,91.698448 699.065063,91.968773 
	C691.446350,92.677856 683.821838,93.342026 676.218384,94.191422 
	C672.164978,94.644241 670.089966,96.476868 670.816101,101.217102 
	C671.490112,105.617599 671.557129,110.266792 670.928406,114.668968 
	C670.248779,119.428474 672.355347,121.221985 676.385681,121.703171 
	C685.452942,122.785721 694.526306,123.867821 703.625000,124.609039 
	C707.062012,124.889038 708.080994,126.113472 708.075134,129.508667 
	C707.979370,184.669006 708.001099,239.829529 707.985168,294.990021 
	C707.984863,295.972900 707.848450,296.955688 707.701111,298.941925 
	C703.733337,298.941925 699.798401,298.722748 695.897156,298.991821 
	C689.587891,299.426971 683.288452,300.081482 677.008545,300.839386 
	C672.851868,301.341034 670.362915,303.478516 670.561340,308.125031 
	C670.766968,312.940857 670.674072,317.769989 670.686890,322.593353 
	C670.696777,326.320251 672.442810,328.520691 676.202637,329.012299 
	C683.113281,329.915894 690.009094,330.966034 696.940125,331.668488 
	C700.377869,332.016937 703.880127,331.729034 707.677490,331.729034 
	C707.809937,333.633392 707.997925,335.078094 707.998230,336.522888 
	C708.009705,390.017090 707.941589,443.511505 708.110596,497.005188 
	C708.125122,501.623016 706.424866,502.529144 702.368958,502.646606 
	C695.217712,502.853729 688.058105,503.389832 680.946350,504.185303 
	C672.298035,505.152588 670.834167,507.065918 671.020447,515.675842 
	C671.099731,519.340698 671.416077,523.027893 671.130737,526.666138 
	C670.790344,531.005920 672.878296,532.875183 676.786865,533.210693 
	C686.884644,534.077576 696.990540,534.850647 707.574829,535.699829 
	C707.574829,593.264343 707.574829,651.293640 707.574829,709.765686 
	C699.032654,710.393677 690.436951,710.903870 681.866150,711.686401 
	C671.043884,712.674438 671.051270,712.770142 670.949524,723.722290 
	C670.941833,724.554932 670.972961,725.387939 670.962524,727.069824 
	C671.107971,731.632080 671.277100,735.345276 671.446167,739.058533 
	C673.682922,740.041016 675.860962,741.678467 678.167236,741.885315 
	C685.608582,742.552734 693.099060,742.657898 700.566345,743.058472 
	C702.870239,743.182068 705.160706,743.557312 707.223511,743.790894 
	C707.571838,744.461792 707.838623,744.746948 707.859802,745.049377 
	C708.766541,757.979675 708.763855,757.987244 695.947021,757.986389 
	C595.957764,757.979736 495.968536,757.970032 395.495361,757.455322 
	C394.995697,653.790466 394.979614,550.631592 394.971802,447.472687 
	C394.971741,446.643524 395.084137,445.814362 395.423889,444.956726 
	C396.126160,444.394196 396.548584,443.860107 397.379181,443.269104 
	C404.003387,443.212219 410.219482,443.212219 416.490570,443.212219 
	C416.490570,426.664551 416.490570,411.083099 416.490570,394.977112 
	C409.358612,394.977112 402.468628,394.977112 394.995361,394.977112 
	C394.995361,392.512054 394.995605,390.564972 394.995300,388.617889 
	C394.984863,315.038300 394.989563,241.458725 394.956482,167.879150 
	C394.943176,138.250961 394.847137,108.622803 394.788757,78.994629 
z"/>
<path fill="#868686" opacity="1.000000" stroke="none" 
	d="
M388.942688,757.887634 
	C328.126526,757.920959 267.310303,757.962769 206.494095,757.984680 
	C165.504898,757.999512 124.515694,757.986206 83.526497,757.985535 
	C81.560570,757.985535 79.594650,757.985535 77.031670,757.985535 
	C77.031670,753.488037 76.748032,749.346008 77.230270,745.295105 
	C77.351471,744.276978 79.872955,742.929260 81.385925,742.794434 
	C89.668991,742.056396 97.982346,741.661865 106.283546,741.122253 
	C109.992889,740.881165 112.002403,739.200745 112.025566,735.140381 
	C112.055878,729.825378 112.631508,724.515747 112.768646,719.198547 
	C112.872948,715.154602 111.177444,712.694275 106.659966,712.421570 
	C98.021149,711.900024 89.407372,710.970459 80.770195,710.411011 
	C78.125931,710.239807 76.955681,709.559998 76.960175,706.629028 
	C77.047028,649.977905 77.042549,593.326782 77.067024,536.675598 
	C77.067162,536.358215 77.210724,536.040833 77.400063,535.256165 
	C84.492401,534.842957 91.734215,534.418396 98.976509,534.002380 
	C99.974319,533.945129 100.975075,533.941162 101.973579,533.893799 
	C111.483757,533.442444 112.717316,532.162720 112.894669,522.539856 
	C112.931511,520.540833 112.937286,518.541138 112.947960,516.541748 
	C113.004402,505.967651 112.312630,505.158875 101.558487,503.970520 
	C97.587448,503.531738 93.592125,503.300812 89.604103,503.030823 
	C85.625237,502.761444 81.641640,502.561890 77.342560,502.313385 
	C77.342560,445.392273 77.342560,388.678406 77.342560,332.064148 
	C86.503792,331.330322 95.432289,330.663239 104.351181,329.885925 
	C111.791832,329.237396 112.422287,328.621399 112.755104,321.318390 
	C112.959763,316.827789 112.747726,312.318420 112.941116,307.826904 
	C113.105896,303.999664 111.634636,301.857300 107.701256,301.417145 
	C99.933769,300.547974 92.181892,299.540131 84.417084,298.645935 
	C82.139977,298.383698 79.841026,298.311218 77.298599,298.134094 
	C77.298599,240.033905 77.298599,182.300980 77.298599,124.431824 
	C84.700317,123.924080 91.953201,123.424355 99.206627,122.932655 
	C99.871010,122.887619 100.541763,122.927834 101.204697,122.871346 
	C111.040833,122.033287 112.785088,120.162949 112.975822,110.238579 
	C113.014244,108.239655 113.018333,106.239922 113.023277,104.240532 
	C113.044861,95.514359 111.515617,93.806519 102.241486,93.189888 
	C94.110855,92.649284 85.958221,92.439575 77.417877,92.066330 
	C77.417877,87.546196 77.417877,83.141228 77.417877,78.010674 
	C180.856567,78.010674 284.417816,78.010674 388.481873,78.492905 
	C388.984619,184.216599 388.984619,289.458069 388.984619,395.122894 
	C382.329620,395.122894 376.397247,395.122894 370.382751,395.122894 
	C370.382751,411.585510 370.382751,427.619995 370.382751,444.099365 
	C376.699799,444.099365 382.628693,444.099365 389.006042,444.099365 
	C389.006042,446.336792 389.005737,448.130066 389.006042,449.923340 
	C389.013092,489.752228 389.034180,529.581116 389.024017,569.410034 
	C389.007935,632.235901 388.970886,695.061768 388.942688,757.887634 
z"/>
<path fill="#030305" opacity="1.000000" stroke="none" 
	d="
M389.150482,758.184937 
	C388.970886,695.061768 389.007935,632.235901 389.024017,569.410034 
	C389.034180,529.581116 389.013092,489.752228 389.006042,449.923340 
	C389.005737,448.130066 389.006042,446.336792 389.006042,444.099365 
	C382.628693,444.099365 376.699799,444.099365 370.382751,444.099365 
	C370.382751,427.619995 370.382751,411.585510 370.382751,395.122894 
	C376.397247,395.122894 382.329620,395.122894 388.984619,395.122894 
	C388.984619,289.458069 388.984619,184.216599 388.944153,78.511337 
	C389.725098,77.019920 390.546539,75.992302 391.631256,74.635353 
	C392.625031,76.315735 393.368774,77.573372 394.450653,78.912819 
	C394.847137,108.622803 394.943176,138.250961 394.956482,167.879150 
	C394.989563,241.458725 394.984863,315.038300 394.995300,388.617889 
	C394.995605,390.564972 394.995361,392.512054 394.995361,394.977112 
	C402.468628,394.977112 409.358612,394.977112 416.490570,394.977112 
	C416.490570,411.083099 416.490570,426.664551 416.490570,443.212219 
	C410.219482,443.212219 404.003387,443.212219 397.070557,443.197998 
	C395.950531,443.784241 395.547241,444.384705 395.143982,444.985168 
	C395.084137,445.814362 394.971741,446.643524 394.971802,447.472687 
	C394.979614,550.631592 394.995697,653.790466 395.032166,757.408203 
	C393.571503,761.930420 391.379578,759.416687 389.150482,758.184937 
z"/>
<path fill="#DDDDDF" opacity="1.000000" stroke="none" 
	d="
M675.236145,317.581421 
	C675.441589,305.190399 675.435120,305.074677 687.226929,304.414459 
	C694.853699,303.987457 702.504578,304.009796 710.141052,303.731659 
	C713.929382,303.593658 715.506165,305.061035 715.298950,309.024567 
	C715.014343,314.469208 715.227722,319.939911 715.227722,326.116547 
	C703.098633,326.631592 691.368530,327.755463 679.887756,324.718872 
	C677.889893,324.190430 676.772583,320.332794 675.236145,317.581421 
z"/>
<path fill="#DBDBD9" opacity="1.000000" stroke="none" 
	d="
M683.106079,529.062256 
	C676.062988,527.001587 674.980835,524.845703 675.868652,515.364014 
	C676.373962,509.967224 677.745056,508.648132 684.567078,508.200684 
	C693.169373,507.636444 701.791748,507.221802 710.407654,507.177643 
	C711.806763,507.170441 714.290100,509.299194 714.433228,510.637421 
	C714.996155,515.898926 715.071533,521.254395 714.743469,526.538696 
	C714.665527,527.793762 712.321350,529.924622 711.020447,529.923950 
	C701.851013,529.919434 692.681763,529.463379 683.106079,529.062256 
z"/>
<path fill="#DDDDDF" opacity="1.000000" stroke="none" 
	d="
M97.397949,304.490601 
	C100.868416,305.584991 105.963730,305.939850 106.525177,307.722595 
	C107.961433,312.283020 107.583092,317.485443 107.430664,322.415649 
	C107.400551,323.389740 105.174164,325.044037 103.891876,325.113403 
	C93.264771,325.688171 82.622620,326.046783 71.981255,326.189240 
	C71.023224,326.202087 69.222954,324.249908 69.202789,323.183990 
	C69.095886,317.534271 69.215096,311.853058 69.810219,306.241516 
	C69.922089,305.186676 72.549759,303.614014 74.012413,303.618500 
	C81.661606,303.641876 89.309486,304.096619 97.397949,304.490601 
z"/>
<path fill="#DDDDDF" opacity="1.000000" stroke="none" 
	d="
M101.729980,118.072136 
	C90.898621,118.620560 80.493317,119.116684 69.579742,119.637039 
	C69.579742,112.285568 69.434647,106.003654 69.730186,99.742538 
	C69.776558,98.760002 71.839508,97.046349 72.941559,97.068794 
	C83.074745,97.275101 93.206444,97.703453 103.327621,98.264565 
	C106.562416,98.443901 108.446770,100.369370 108.434189,103.839554 
	C108.425751,106.164246 108.602074,108.489410 108.602417,110.814377 
	C108.603050,115.110176 106.739868,117.796982 101.729980,118.072136 
z"/>
<path fill="#DBDBD9" opacity="1.000000" stroke="none" 
	d="
M96.584038,529.667786 
	C87.557426,529.695923 78.991432,529.695923 70.226715,529.695923 
	C70.226715,522.382812 70.226715,515.280579 70.226715,506.981293 
	C81.574684,507.667664 92.770515,508.252777 103.941086,509.151672 
	C105.164085,509.250122 107.069298,511.037018 107.237564,512.239563 
	C107.828247,516.460999 108.248558,520.821350 107.763580,525.016907 
	C107.589569,526.522278 104.836868,528.110535 102.944336,528.924683 
	C101.198410,529.675842 99.028069,529.440491 96.584038,529.667786 
z"/>
<path fill="#DDDDDF" opacity="1.000000" stroke="none" 
	d="
M686.884644,118.945221 
	C675.508179,116.889740 675.508240,116.889740 675.713135,105.752693 
	C675.845581,98.554321 675.846497,98.567009 683.246033,97.994141 
	C684.901672,97.865952 686.547791,97.614578 688.958374,97.452194 
	C697.491394,97.539230 705.264343,97.593987 713.037231,97.648743 
	C713.624084,98.585068 714.735107,99.533821 714.713257,100.455688 
	C714.565186,106.693794 714.177734,112.926224 713.118042,119.290344 
	C711.871277,119.529945 711.374084,119.639702 710.876953,119.749466 
	C703.893066,119.498329 696.909180,119.247185 689.223389,118.870689 
	C687.975830,118.811966 687.430237,118.878593 686.884644,118.945221 
z"/>
<path fill="#DDDDDF" opacity="1.000000" stroke="none" 
	d="
M69.325348,730.940063 
	C69.465492,726.667969 69.254410,722.777893 69.911598,719.040466 
	C70.175293,717.540833 72.383850,715.206909 73.645294,715.246094 
	C83.290550,715.545654 92.918434,716.371582 102.556389,716.956970 
	C105.930679,717.161865 107.327866,718.636414 107.748383,722.169373 
	C109.298134,735.189697 108.612839,736.309692 95.861458,736.988525 
	C89.044121,737.351440 82.199089,737.203247 75.383469,737.586487 
	C70.710526,737.849243 68.379257,736.351807 69.325348,730.940063 
M73.129570,727.624695 
	C75.223213,725.084534 77.316849,722.544373 79.879524,719.435181 
	C82.498466,719.435181 85.918213,719.435181 89.337952,719.435181 
	C89.329353,719.062317 89.320755,718.689392 89.312149,718.316528 
	C83.687134,718.316528 78.062119,718.316528 71.907463,718.316528 
	C72.075150,721.138367 72.258438,724.222656 73.129570,727.624695 
M103.193512,725.565002 
	C102.495972,727.124817 101.798431,728.684570 101.023178,730.418152 
	C106.858444,731.005737 107.377800,729.201233 104.293724,721.032349 
	C104.025223,722.384949 103.776627,723.637329 103.193512,725.565002 
M77.016800,734.547729 
	C75.418251,734.394348 73.819702,734.240906 72.221146,734.087524 
	C72.228416,734.365784 72.235680,734.644043 72.242943,734.922302 
	C73.659576,734.922302 75.076202,734.922302 77.016800,734.547729 
z"/>
<path fill="#E7E7E5" opacity="1.000000" stroke="none" 
	d="
M708.882568,737.716309 
	C704.923706,737.629822 700.964783,737.543335 696.161255,737.378845 
	C693.510498,737.362854 691.704468,737.424866 689.898438,737.486816 
	C689.194397,737.408752 688.490417,737.330688 687.044922,737.157654 
	C683.203247,736.706177 680.103149,736.349670 676.781616,735.633667 
	C676.314026,730.844543 676.067749,726.414856 675.821472,721.985229 
	C676.635071,720.629822 677.448730,719.274475 678.558777,717.941772 
	C678.855164,717.964478 678.938293,718.177612 678.906494,718.551636 
	C677.072266,722.680237 678.014893,725.198730 682.086060,726.567017 
	C683.776489,727.135132 685.427246,727.983032 686.909058,728.981262 
	C692.438965,732.706909 698.152039,733.168152 704.233582,730.460815 
	C706.141235,729.611511 708.212158,729.128967 710.498657,728.384033 
	C710.738892,729.248047 710.992737,730.161011 711.250000,731.086182 
	C712.103638,730.730835 712.967896,730.370972 713.888428,730.401489 
	C714.078735,731.553284 714.212830,732.314758 714.346924,733.076233 
	C713.509094,734.486206 712.671326,735.896179 711.106018,737.324951 
	C709.879822,737.467957 709.381226,737.592163 708.882568,737.716309 
z"/>
<path fill="#131313" opacity="1.000000" stroke="none" 
	d="
M675.514526,721.939636 
	C676.067749,726.414856 676.314026,730.844543 676.756287,735.919678 
	C676.967529,736.755920 676.982788,736.946716 676.998108,737.137451 
	C675.394592,737.766541 673.791077,738.395630 671.816895,739.041626 
	C671.277100,735.345276 671.107971,731.632080 671.026550,727.464905 
	C671.591125,727.379944 672.067993,727.748901 672.863708,728.364502 
	C672.863708,725.748108 672.863708,723.421021 672.863708,720.709900 
	C673.893066,721.229919 674.550293,721.562012 675.514526,721.939636 
z"/>
<path fill="#E7E7E5" opacity="1.000000" stroke="none" 
	d="
M688.413574,716.264160 
	C696.862854,716.275696 705.312073,716.287231 713.966675,716.974243 
	C714.071106,718.430420 713.970093,719.210999 713.460144,719.993530 
	C706.776001,719.663330 700.494507,719.416199 694.229065,718.952698 
	C692.074280,718.793213 689.959473,718.093079 687.858765,717.387329 
	C688.065308,716.844543 688.239441,716.554321 688.413574,716.264160 
z"/>
<path fill="#313033" opacity="1.000000" stroke="none" 
	d="
M712.845947,97.311577 
	C705.264343,97.593987 697.491394,97.539230 689.343384,97.330605 
	C696.863708,97.109291 704.759216,97.041847 712.845947,97.311577 
z"/>
<path fill="#313033" opacity="1.000000" stroke="none" 
	d="
M713.869080,719.991577 
	C713.970093,719.210999 714.071106,718.430420 714.302307,717.277710 
	C714.645996,722.204346 714.859497,727.503113 714.709961,732.939087 
	C714.212830,732.314758 714.078735,731.553284 713.964478,729.951660 
	C713.945923,726.071472 713.907532,723.031555 713.869080,719.991577 
z"/>
<path fill="#313033" opacity="1.000000" stroke="none" 
	d="
M687.965515,716.107178 
	C688.239441,716.554321 688.065308,716.844543 687.417297,717.400391 
	C684.275024,717.836487 681.606689,718.007019 678.938293,718.177612 
	C678.938293,718.177612 678.855164,717.964478 678.947998,717.897705 
	C681.866394,717.204041 684.691956,716.577087 687.965515,716.107178 
z"/>
<path fill="#313033" opacity="1.000000" stroke="none" 
	d="
M677.382690,737.173218 
	C676.982788,736.946716 676.967529,736.755920 676.977661,736.279175 
	C680.103149,736.349670 683.203247,736.706177 686.695435,737.227783 
	C685.703064,737.642029 684.310242,738.128967 682.936462,738.080078 
	C681.205261,738.018433 679.489563,737.519287 677.382690,737.173218 
z"/>
<path fill="#313033" opacity="1.000000" stroke="none" 
	d="
M689.962158,737.842285 
	C691.704468,737.424866 693.510498,737.362854 695.724243,737.505798 
	C694.096619,737.873108 692.061218,738.035400 689.962158,737.842285 
z"/>
<path fill="#313033" opacity="1.000000" stroke="none" 
	d="
M708.955078,737.941406 
	C709.381226,737.592163 709.879822,737.467957 710.747070,737.479004 
	C710.419678,737.798279 709.723633,737.982361 708.955078,737.941406 
z"/>
<path fill="#313033" opacity="1.000000" stroke="none" 
	d="
M686.996399,119.149048 
	C687.430237,118.878593 687.975830,118.811966 688.755249,118.906708 
	C688.362122,119.163010 687.735168,119.257950 686.996399,119.149048 
z"/>
<path fill="#313033" opacity="1.000000" stroke="none" 
	d="
M710.956238,119.972473 
	C711.374084,119.639702 711.871277,119.529945 712.745117,119.516953 
	C712.426331,119.807632 711.730957,120.001564 710.956238,119.972473 
z"/>
<path fill="#919191" opacity="1.000000" stroke="none" 
	d="
M395.423859,444.956726 
	C395.547241,444.384705 395.950531,443.784241 396.662415,443.254883 
	C396.548584,443.860107 396.126160,444.394196 395.423859,444.956726 
z"/>
<path fill="#DBDBD9" opacity="1.000000" stroke="none" 
	d="
M72.785645,727.465820 
	C72.258438,724.222656 72.075150,721.138367 71.907463,718.316528 
	C78.062119,718.316528 83.687134,718.316528 89.312149,718.316528 
	C89.320755,718.689392 89.329353,719.062317 89.337952,719.435181 
	C85.918213,719.435181 82.498466,719.435181 79.879524,719.435181 
	C77.316849,722.544373 75.223213,725.084534 72.785645,727.465820 
z"/>
<path fill="#DBDBD9" opacity="1.000000" stroke="none" 
	d="
M103.360771,725.227356 
	C103.776627,723.637329 104.025223,722.384949 104.293724,721.032349 
	C107.377800,729.201233 106.858444,731.005737 101.023178,730.418152 
	C101.798431,728.684570 102.495972,727.124817 103.360771,725.227356 
z"/>
<path fill="#DBDBD9" opacity="1.000000" stroke="none" 
	d="
M76.754814,734.734985 
	C75.076202,734.922302 73.659576,734.922302 72.242943,734.922302 
	C72.235680,734.644043 72.228416,734.365784 72.221146,734.087524 
	C73.819702,734.240906 75.418251,734.394348 76.754814,734.734985 
z"/>
<path fill="#DDDDDF" opacity="1.000000" stroke="none" 
	d="
M678.906494,718.551636 
	C681.606689,718.007019 684.275024,717.836487 687.384888,717.652954 
	C689.959473,718.093079 692.074280,718.793213 694.229065,718.952698 
	C700.494507,719.416199 706.776001,719.663330 713.460144,719.993530 
	C713.907532,723.031555 713.945923,726.071472 713.908325,729.561279 
	C712.967896,730.370972 712.103638,730.730835 711.250000,731.086182 
	C710.992737,730.161011 710.738892,729.248047 710.498657,728.384033 
	C708.212158,729.128967 706.141235,729.611511 704.233582,730.460815 
	C698.152039,733.168152 692.438965,732.706909 686.909058,728.981262 
	C685.427246,727.983032 683.776489,727.135132 682.086060,726.567017 
	C678.014893,725.198730 677.072266,722.680237 678.906494,718.551636 
M709.391296,722.202515 
	C709.785583,722.206726 710.179871,722.210938 710.574158,722.215149 
	C710.575623,722.051514 710.588074,721.745605 710.577026,721.744751 
	C710.184631,721.714417 709.790100,721.712769 709.391296,722.202515 
z"/>
<path fill="#E7E7E5" opacity="1.000000" stroke="none" 
	d="
M709.393555,721.954834 
	C709.790100,721.712769 710.184631,721.714417 710.577026,721.744751 
	C710.588074,721.745605 710.575623,722.051514 710.574158,722.215149 
	C710.179871,722.210938 709.785583,722.206726 709.393555,721.954834 
z"/>
</svg>