<svg version="1.1" id="Layer_1" xmlns="http://www.w3.org/2000/svg" xmlns:xlink="http://www.w3.org/1999/xlink" x="0px" y="0px"
	 width="100%" viewBox="0 0 983 835" enable-background="new 0 0 983 835" xml:space="preserve">
<path fill="#050505" opacity="1.000000" stroke="none" 
	d="
M924.000000,0.999999 
	C943.990845,1.000000 963.981750,1.000000 983.954346,1.000000 
	C983.954346,279.333344 983.954346,557.666687 983.954346,836.000000 
	C964.251038,836.000000 944.593384,836.000000 924.437073,835.567993 
	C921.974060,834.788513 920.009766,834.136902 918.045288,834.136597 
	C635.053772,834.091248 352.062225,834.093140 69.070694,834.093506 
	C67.570763,834.093506 66.036163,833.915833 64.587181,834.189148 
	C63.966366,834.306274 63.523647,835.367676 63.000008,836.000000 
	C42.342724,836.000000 21.685450,836.000000 1.046076,836.000000 
	C1.046076,557.666687 1.046076,279.333313 1.046076,1.000000 
	C21.416199,1.000000 41.740246,1.000000 62.525734,1.458512 
	C62.987175,3.870818 62.987175,5.824612 62.987175,8.160696 
	C65.009483,8.160696 66.634766,8.167013 68.259979,8.159745 
	C91.754112,8.054686 115.248299,7.885434 138.742279,7.910216 
	C142.171249,7.913833 144.689453,7.312063 146.784042,4.283661 
	C147.684509,2.981754 150.097610,2.150231 151.847473,2.108394 
	C160.842300,1.893339 169.846436,1.919033 178.843430,2.079043 
	C180.497162,2.108454 183.034668,2.678055 183.615387,3.800001 
	C185.724579,7.874955 189.039703,8.024298 192.847702,7.876452 
	C197.174286,7.708471 201.528214,7.621009 205.841080,7.919786 
	C209.321289,8.160881 211.782074,7.275143 213.826797,4.288258 
	C214.660416,3.070558 216.780563,2.139459 218.336456,2.107577 
	C227.832291,1.913001 237.335114,1.951435 246.832993,2.090450 
	C248.143433,2.109630 250.110901,2.758613 250.626923,3.727222 
	C252.976349,8.137334 256.849640,7.973943 260.901520,7.873551 
	C265.398743,7.762125 269.933533,8.155058 274.386139,7.693409 
	C276.505035,7.473722 278.473785,5.786714 280.505920,4.755269 
	C282.306885,3.841171 284.080139,2.170543 285.902374,2.118345 
	C295.227875,1.851217 304.566589,1.921617 313.897034,2.084394 
	C315.358948,2.109898 317.512512,2.811781 318.127228,3.893586 
	C320.435425,7.955995 323.908905,8.119123 327.875732,7.898221 
	C331.863342,7.676162 335.895111,7.587927 339.866577,7.924421 
	C343.680786,8.247594 346.440735,7.290971 348.728271,4.052209 
	C349.563416,2.869788 351.766266,2.128722 353.363678,2.096203 
	C362.359863,1.913069 371.363129,1.923635 380.360260,2.081626 
	C382.029877,2.110945 384.631073,2.645628 385.177673,3.750686 
	C387.480408,8.406017 391.427643,7.901030 395.391907,7.858298 
	C399.224762,7.816984 403.078857,7.602772 406.885925,7.918588 
	C410.685425,8.233777 413.484039,7.324699 415.765320,4.046920 
	C416.588440,2.864208 418.807739,2.129419 420.407867,2.097762 
	C429.570862,1.916486 438.740295,1.937653 447.904724,2.077909 
	C449.415833,2.101036 451.733368,2.620458 452.275482,3.649524 
	C454.745697,8.338352 458.802155,8.014758 463.017761,7.875944 
	C467.013428,7.744370 471.024872,7.670176 475.013519,7.876707 
	C478.228210,8.043165 480.657837,7.487927 482.590393,4.479558 
	C483.445831,3.147972 485.820618,2.158158 487.532471,2.116542 
	C496.860229,1.889784 506.198181,1.912346 515.527710,2.096781 
	C517.115295,2.128165 519.440613,2.930751 520.110840,4.118593 
	C522.106689,7.655771 524.986511,8.033391 528.500244,7.889180 
	C532.992554,7.704808 537.504150,7.708240 541.996399,7.895219 
	C545.359741,8.035211 548.008972,7.505904 550.103638,4.377274 
	C550.991516,3.051051 553.419250,2.152191 555.172424,2.110032 
	C564.333740,1.889728 573.504456,1.930387 582.668457,2.084545 
	C584.144897,2.109384 586.349670,2.750024 586.939148,3.814276 
	C589.217590,7.927712 592.691345,8.115736 596.684265,7.899458 
	C600.838745,7.674438 605.023315,7.684716 609.178833,7.899918 
	C612.591370,8.076647 615.140503,7.335230 617.228333,4.281460 
	C618.120361,2.976813 620.547363,2.144336 622.300659,2.102939 
	C631.295532,1.890556 640.299744,1.919078 649.296570,2.084961 
	C650.938965,2.115244 653.344910,2.691077 654.052063,3.842152 
	C656.449280,7.744598 659.784973,8.180358 663.805664,7.899021 
	C667.454346,7.643718 671.139404,7.737065 674.800598,7.879019 
	C678.853455,8.036156 682.638611,8.162992 684.908936,3.672264 
	C685.425537,2.650324 687.735291,2.101450 689.231079,2.078712 
	C698.562195,1.936857 707.897522,1.936563 717.228638,2.077180 
	C718.714172,2.099567 721.035522,2.664071 721.516357,3.671822 
	C723.623596,8.087814 727.244141,8.034149 731.193359,7.883333 
	C735.187500,7.730803 739.205566,7.644930 743.188049,7.908741 
	C746.948059,8.157820 749.857971,7.437512 752.098572,4.020171 
	C752.868469,2.845935 755.118835,2.123310 756.710327,2.092496 
	C765.873352,1.915079 775.045959,1.860147 784.204468,2.131860 
	C786.033569,2.186126 787.816223,3.834205 789.618713,4.750289 
	C791.647766,5.781488 793.650146,7.649232 795.707275,7.710790 
	C807.091125,8.051443 818.491272,7.546720 829.878906,7.912541 
	C833.307495,8.022681 835.820068,7.363223 837.869141,4.272745 
	C838.729919,2.974430 841.165955,2.143842 842.908997,2.103697 
	C852.070740,1.892683 861.241638,1.910367 870.404785,2.087650 
	C872.015686,2.118818 874.391907,2.837796 875.057922,4.010007 
	C877.162842,7.714851 880.168518,8.181969 883.890625,7.902472 
	C886.532532,7.704082 889.211731,8.062236 891.874451,8.068656 
	C902.464111,8.094191 913.053894,8.079169 923.674072,8.079169 
	C923.802063,5.299292 923.901001,3.149645 924.000000,0.999999 
M905.923035,776.769348 
	C906.281189,774.568359 906.952637,772.367432 906.953125,770.166382 
	C907.000427,529.515747 906.997620,288.865173 906.995605,48.214554 
	C906.995605,46.548363 907.142944,44.852615 906.872070,43.228981 
	C906.744812,42.465851 905.786011,41.841427 905.071106,40.222904 
	C905.165771,39.293793 905.260376,38.364677 905.922302,37.728905 
	C906.268127,37.685074 906.614014,37.641243 906.959839,37.597408 
	C906.948242,37.475861 906.936584,37.354309 906.924927,37.232758 
	C906.392090,37.274399 905.859192,37.316040 905.053650,36.612148 
	C903.592834,35.905251 902.132080,35.198349 900.115662,34.222576 
	C900.115662,282.779816 900.115662,530.181641 900.115662,778.394226 
	C902.032776,777.870483 903.601990,777.441772 905.923035,776.769348 
M886.989563,794.002991 
	C886.928040,791.050293 886.866577,788.097595 886.925049,784.356384 
	C887.130859,783.566528 887.129761,782.241089 887.574280,782.069336 
	C892.222351,780.273376 891.027344,776.328552 891.027649,772.910156 
	C891.048218,533.418396 891.046265,293.926636 891.046143,54.434895 
	C891.046143,53.101612 891.093872,51.765831 891.026001,50.435978 
	C890.984741,49.626637 890.960815,48.234745 890.594299,48.113056 
	C886.644653,46.801617 888.205444,43.550224 888.026367,41.004150 
	C887.845642,38.435726 887.986511,35.844681 887.986511,33.267895 
	C611.563110,33.267895 335.959564,33.267895 60.057838,33.267895 
	C60.326836,39.426254 60.809341,45.323849 60.809559,51.221455 
	C60.817486,266.046997 60.762917,480.872559 60.770157,695.698120 
	C60.771160,725.512512 61.046734,755.326904 61.049511,786.005737 
	C61.583481,789.225281 59.126961,793.394592 63.963593,795.462036 
	C63.963593,795.462036 63.958847,795.683350 63.284378,796.268372 
	C63.284378,806.046448 63.284378,815.824524 63.284378,825.796204 
	C350.190582,825.796204 636.869324,825.796204 923.695740,825.796204 
	C923.695740,815.787659 923.695740,806.049438 923.695740,795.798401 
	C911.281372,795.798401 899.154175,795.798401 887.006104,795.343506 
	C887.006104,795.343506 886.953735,794.889282 886.989563,794.002991 
M8.247424,43.298515 
	C8.138064,44.950447 7.932945,46.602375 7.932904,48.254311 
	C7.926765,295.087006 7.935499,541.919678 7.943550,788.752380 
	C7.943603,790.361633 7.943558,791.970947 7.943558,793.718018 
	C24.207270,793.718018 39.944836,793.718018 55.756409,793.718018 
	C55.756409,543.357117 55.756409,293.287964 55.756409,42.853584 
	C53.307953,42.853584 51.159752,42.853584 48.772823,42.097145 
	C48.084030,41.738167 47.397083,41.070374 46.706161,41.066238 
	C35.147091,40.996925 23.587063,40.965591 12.028861,41.083672 
	C11.008550,41.094093 9.999441,42.201172 8.247424,43.298515 
M979.060913,457.500000 
	C979.060120,414.672729 979.072937,371.845428 979.029602,329.018188 
	C979.026550,325.984711 980.395813,322.326660 975.880981,320.808777 
	C975.306763,320.615723 975.074524,318.742584 975.063660,317.644043 
	C974.991272,310.312408 974.947021,302.978302 975.088074,295.648712 
	C975.113586,294.322845 975.722046,292.180023 976.601868,291.848389 
	C979.690186,290.684235 979.050659,288.329163 979.051514,286.125214 
	C979.064514,250.796387 979.059387,215.467575 979.061340,180.138748 
	C979.062805,154.308807 979.083252,128.478851 979.034973,102.649017 
	C979.032104,101.118256 978.865723,98.489212 978.139038,98.241982 
	C974.279846,96.929031 975.058533,93.924652 975.027893,91.202423 
	C974.969727,86.037079 974.760498,80.854263 975.094299,75.709877 
	C975.350403,71.763527 972.947998,66.750488 978.707825,64.466530 
	C978.964233,64.364845 979.028442,63.550819 979.029907,63.068108 
	C979.050171,56.475315 979.043579,49.882446 979.043579,42.770950 
	C960.289612,42.770950 942.225586,42.770950 924.145508,42.770950 
	C924.017395,39.946758 923.913635,37.658264 923.802673,35.213127 
	C919.429077,35.213127 915.372314,35.213127 911.184631,35.213127 
	C911.184631,282.885864 911.184631,530.269714 911.184631,778.054810 
	C915.742737,778.054810 920.032104,778.040710 924.321289,778.058105 
	C930.567078,778.083496 930.920593,778.433960 930.938599,784.505066 
	C930.947815,787.593567 930.940247,790.682068 930.940247,793.617310 
	C947.419800,793.617310 963.150452,793.617310 979.062317,793.617310 
	C979.062317,791.564392 979.302673,789.861694 979.019348,788.251160 
	C977.982544,782.358032 982.017029,775.401184 975.339844,770.614868 
	C974.809814,770.234924 975.024292,768.710449 975.021606,767.717590 
	C975.001465,760.218628 974.954346,752.718689 975.068665,745.221375 
	C975.089966,743.824219 975.428894,741.545044 976.257141,741.200378 
	C979.855591,739.702393 979.044739,736.800171 979.045593,734.149170 
	C979.064819,674.823425 979.074280,615.497620 979.031921,556.171875 
	C979.029419,552.634705 980.398926,548.544678 975.824829,546.329773 
	C975.253967,546.053345 975.072144,544.541931 975.065369,543.600098 
	C975.008118,535.601868 974.957336,527.601501 975.109558,519.605774 
	C975.134460,518.294556 976.153076,516.998840 976.727112,515.702393 
	C977.497375,513.962769 978.941284,512.235840 978.958191,510.492371 
	C979.126831,493.162903 979.060669,475.831116 979.060913,457.500000 
M348.500000,28.060974 
	C540.213501,28.060974 731.927063,28.060974 923.618164,28.060974 
	C923.618164,23.319889 923.618164,19.259733 923.618164,15.254002 
	C636.575378,15.254002 349.900360,15.254002 63.287430,15.254002 
	C63.287430,19.664219 63.287430,23.729156 63.287430,28.061012 
	C158.251404,28.061012 252.875702,28.061012 348.500000,28.060974 
M56.055252,24.490419 
	C56.055252,17.745314 56.055252,11.000209 56.055252,4.330556 
	C38.347614,4.330556 21.307255,4.330556 4.322027,4.330556 
	C4.322027,15.401095 4.322027,26.122227 4.322027,36.749207 
	C21.704126,36.749207 38.743942,36.749207 56.055279,36.749207 
	C56.055279,32.766891 56.055279,29.125832 56.055252,24.490419 
M943.512695,35.985752 
	C955.240906,35.985752 966.969116,35.985752 978.584045,35.985752 
	C978.584045,26.254976 978.584045,17.223999 978.584045,8.274172 
	C962.617004,8.274172 947.053101,8.274172 931.328857,8.274172 
	C931.328857,17.565050 931.328857,26.592983 931.328857,35.985748 
	C935.266235,35.985748 938.893005,35.985748 943.512695,35.985752 
M55.985752,814.503540 
	C55.985752,810.091675 55.985752,805.679810 55.985752,801.412109 
	C39.572540,801.412109 23.890036,801.412109 8.290922,801.412109 
	C8.290922,810.724426 8.290922,819.635498 8.290922,828.674805 
	C24.250097,828.674805 39.930923,828.674805 55.985748,828.674805 
	C55.985748,824.079651 55.985748,819.788025 55.985752,814.503540 
M956.500000,828.985779 
	C963.906860,828.985779 971.313782,828.985779 978.576294,828.985779 
	C978.576294,819.239136 978.576294,810.208191 978.576294,801.280884 
	C962.601746,801.280884 947.038391,801.280884 931.335449,801.280884 
	C931.335449,810.578186 931.335449,819.605652 931.335449,828.985779 
	C939.602295,828.985779 947.551147,828.985779 956.500000,828.985779 
M911.489990,785.948608 
	C906.062317,785.948608 900.634583,785.948608 895.206909,785.948608 
	C895.065369,786.437866 894.923767,786.927063 894.782166,787.416321 
	C895.760254,787.959961 896.730896,788.959412 897.717529,788.975342 
	C905.681763,789.104126 913.649658,789.094116 921.614258,788.976807 
	C922.413391,788.965027 923.197937,787.959595 923.989197,787.415283 
	C923.141052,786.924377 922.314819,786.061523 921.440918,786.010254 
	C918.463989,785.835632 915.470215,785.947021 911.489990,785.948608 
z"/>
<path fill="#F7F7F7" opacity="1.000000" stroke="none" 
	d="
M923.531311,0.999999 
	C923.901001,3.149645 923.802063,5.299292 923.674072,8.079169 
	C913.053894,8.079169 902.464111,8.094191 891.874451,8.068656 
	C889.211731,8.062236 886.532532,7.704082 883.890625,7.902472 
	C880.168518,8.181969 877.162842,7.714851 875.057922,4.010007 
	C874.391907,2.837796 872.015686,2.118818 870.404785,2.087650 
	C861.241638,1.910367 852.070740,1.892683 842.908997,2.103697 
	C841.165955,2.143842 838.729919,2.974430 837.869141,4.272745 
	C835.820068,7.363223 833.307495,8.022681 829.878906,7.912541 
	C818.491272,7.546720 807.091125,8.051443 795.707275,7.710790 
	C793.650146,7.649232 791.647766,5.781488 789.618713,4.750289 
	C787.816223,3.834205 786.033569,2.186126 784.204468,2.131860 
	C775.045959,1.860147 765.873352,1.915079 756.710327,2.092496 
	C755.118835,2.123310 752.868469,2.845935 752.098572,4.020171 
	C749.857971,7.437512 746.948059,8.157820 743.188049,7.908741 
	C739.205566,7.644930 735.187500,7.730803 731.193359,7.883333 
	C727.244141,8.034149 723.623596,8.087814 721.516357,3.671822 
	C721.035522,2.664071 718.714172,2.099567 717.228638,2.077180 
	C707.897522,1.936563 698.562195,1.936857 689.231079,2.078712 
	C687.735291,2.101450 685.425537,2.650324 684.908936,3.672264 
	C682.638611,8.162992 678.853455,8.036156 674.800598,7.879019 
	C671.139404,7.737065 667.454346,7.643718 663.805664,7.899021 
	C659.784973,8.180358 656.449280,7.744598 654.052063,3.842152 
	C653.344910,2.691077 650.938965,2.115244 649.296570,2.084961 
	C640.299744,1.919078 631.295532,1.890556 622.300659,2.102939 
	C620.547363,2.144336 618.120361,2.976813 617.228333,4.281460 
	C615.140503,7.335230 612.591370,8.076647 609.178833,7.899918 
	C605.023315,7.684716 600.838745,7.674438 596.684265,7.899458 
	C592.691345,8.115736 589.217590,7.927712 586.939148,3.814276 
	C586.349670,2.750024 584.144897,2.109384 582.668457,2.084545 
	C573.504456,1.930387 564.333740,1.889728 555.172424,2.110032 
	C553.419250,2.152191 550.991516,3.051051 550.103638,4.377274 
	C548.008972,7.505904 545.359741,8.035211 541.996399,7.895219 
	C537.504150,7.708240 532.992554,7.704808 528.500244,7.889180 
	C524.986511,8.033391 522.106689,7.655771 520.110840,4.118593 
	C519.440613,2.930751 517.115295,2.128165 515.527710,2.096781 
	C506.198181,1.912346 496.860229,1.889784 487.532471,2.116542 
	C485.820618,2.158158 483.445831,3.147972 482.590393,4.479558 
	C480.657837,7.487927 478.228210,8.043165 475.013519,7.876707 
	C471.024872,7.670176 467.013428,7.744370 463.017761,7.875944 
	C458.802155,8.014758 454.745697,8.338352 452.275482,3.649524 
	C451.733368,2.620458 449.415833,2.101036 447.904724,2.077909 
	C438.740295,1.937653 429.570862,1.916486 420.407867,2.097762 
	C418.807739,2.129419 416.588440,2.864208 415.765320,4.046920 
	C413.484039,7.324699 410.685425,8.233777 406.885925,7.918588 
	C403.078857,7.602772 399.224762,7.816984 395.391907,7.858298 
	C391.427643,7.901030 387.480408,8.406017 385.177673,3.750686 
	C384.631073,2.645628 382.029877,2.110945 380.360260,2.081626 
	C371.363129,1.923635 362.359863,1.913069 353.363678,2.096203 
	C351.766266,2.128722 349.563416,2.869788 348.728271,4.052209 
	C346.440735,7.290971 343.680786,8.247594 339.866577,7.924421 
	C335.895111,7.587927 331.863342,7.676162 327.875732,7.898221 
	C323.908905,8.119123 320.435425,7.955995 318.127228,3.893586 
	C317.512512,2.811781 315.358948,2.109898 313.897034,2.084394 
	C304.566589,1.921617 295.227875,1.851217 285.902374,2.118345 
	C284.080139,2.170543 282.306885,3.841171 280.505920,4.755269 
	C278.473785,5.786714 276.505035,7.473722 274.386139,7.693409 
	C269.933533,8.155058 265.398743,7.762125 260.901520,7.873551 
	C256.849640,7.973943 252.976349,8.137334 250.626923,3.727222 
	C250.110901,2.758613 248.143433,2.109630 246.832993,2.090450 
	C237.335114,1.951435 227.832291,1.913001 218.336456,2.107577 
	C216.780563,2.139459 214.660416,3.070558 213.826797,4.288258 
	C211.782074,7.275143 209.321289,8.160881 205.841080,7.919786 
	C201.528214,7.621009 197.174286,7.708471 192.847702,7.876452 
	C189.039703,8.024298 185.724579,7.874955 183.615387,3.800001 
	C183.034668,2.678055 180.497162,2.108454 178.843430,2.079043 
	C169.846436,1.919033 160.842300,1.893339 151.847473,2.108394 
	C150.097610,2.150231 147.684509,2.981754 146.784042,4.283661 
	C144.689453,7.312063 142.171249,7.913833 138.742279,7.910216 
	C115.248299,7.885434 91.754112,8.054686 68.259979,8.159745 
	C66.634766,8.167013 65.009483,8.160696 62.987175,8.160696 
	C62.987175,5.824612 62.987175,3.870818 62.993587,1.458512 
	C349.687561,1.000000 636.375122,1.000000 923.531311,0.999999 
z"/>
<path fill="#DFDFDF" opacity="1.000000" stroke="none" 
	d="
M63.468666,836.000000 
	C63.523647,835.367676 63.966366,834.306274 64.587181,834.189148 
	C66.036163,833.915833 67.570763,834.093506 69.070694,834.093506 
	C352.062225,834.093140 635.053772,834.091248 918.045288,834.136597 
	C920.009766,834.136902 921.974060,834.788513 923.969238,835.567993 
	C637.312439,836.000000 350.624878,836.000000 63.468666,836.000000 
z"/>
<path fill="#868686" opacity="1.000000" stroke="none" 
	d="
M61.195198,785.141296 
	C61.046734,755.326904 60.771160,725.512512 60.770157,695.698120 
	C60.762917,480.872559 60.817486,266.046997 60.809559,51.221455 
	C60.809341,45.323849 60.326836,39.426254 60.057838,33.267895 
	C335.959564,33.267895 611.563110,33.267895 887.986511,33.267895 
	C887.986511,35.844681 887.845642,38.435726 888.026367,41.004150 
	C888.205444,43.550224 886.644653,46.801617 890.594299,48.113056 
	C890.960815,48.234745 890.984741,49.626637 891.026001,50.435978 
	C891.093872,51.765831 891.046143,53.101612 891.046143,54.434895 
	C891.046265,293.926636 891.048218,533.418396 891.027649,772.910156 
	C891.027344,776.328552 892.222351,780.273376 887.574280,782.069336 
	C887.129761,782.241089 887.130859,783.566528 886.409180,784.767517 
	C876.265930,785.452332 866.638611,785.963196 857.011169,785.965088 
	C631.697083,786.009521 406.382935,786.040283 181.068848,785.959961 
	C141.110886,785.945740 101.153076,785.427002 61.195198,785.141296 
z"/>
<path fill="#868686" opacity="1.000000" stroke="none" 
	d="
M979.060913,458.000000 
	C979.060669,475.831116 979.126831,493.162903 978.958191,510.492371 
	C978.941284,512.235840 977.497375,513.962769 976.727112,515.702393 
	C976.153076,516.998840 975.134460,518.294556 975.109558,519.605774 
	C974.957336,527.601501 975.008118,535.601868 975.065369,543.600098 
	C975.072144,544.541931 975.253967,546.053345 975.824829,546.329773 
	C980.398926,548.544678 979.029419,552.634705 979.031921,556.171875 
	C979.074280,615.497620 979.064819,674.823425 979.045593,734.149170 
	C979.044739,736.800171 979.855591,739.702393 976.257141,741.200378 
	C975.428894,741.545044 975.089966,743.824219 975.068665,745.221375 
	C974.954346,752.718689 975.001465,760.218628 975.021606,767.717590 
	C975.024292,768.710449 974.809814,770.234924 975.339844,770.614868 
	C982.017029,775.401184 977.982544,782.358032 979.019348,788.251160 
	C979.302673,789.861694 979.062317,791.564392 979.062317,793.617310 
	C963.150452,793.617310 947.419800,793.617310 930.940247,793.617310 
	C930.940247,790.682068 930.947815,787.593567 930.938599,784.505066 
	C930.920593,778.433960 930.567078,778.083496 924.321289,778.058105 
	C920.032104,778.040710 915.742737,778.054810 911.184631,778.054810 
	C911.184631,530.269714 911.184631,282.885864 911.184631,35.213127 
	C915.372314,35.213127 919.429077,35.213127 923.802673,35.213127 
	C923.913635,37.658264 924.017395,39.946758 924.145508,42.770950 
	C942.225586,42.770950 960.289612,42.770950 979.043579,42.770950 
	C979.043579,49.882446 979.050171,56.475315 979.029907,63.068108 
	C979.028442,63.550819 978.964233,64.364845 978.707825,64.466530 
	C972.947998,66.750488 975.350403,71.763527 975.094299,75.709877 
	C974.760498,80.854263 974.969727,86.037079 975.027893,91.202423 
	C975.058533,93.924652 974.279846,96.929031 978.139038,98.241982 
	C978.865723,98.489212 979.032104,101.118256 979.034973,102.649017 
	C979.083252,128.478851 979.062805,154.308807 979.061340,180.138748 
	C979.059387,215.467575 979.064514,250.796387 979.051514,286.125214 
	C979.050659,288.329163 979.690186,290.684235 976.601868,291.848389 
	C975.722046,292.180023 975.113586,294.322845 975.088074,295.648712 
	C974.947021,302.978302 974.991272,310.312408 975.063660,317.644043 
	C975.074524,318.742584 975.306763,320.615723 975.880981,320.808777 
	C980.395813,322.326660 979.026550,325.984711 979.029602,329.018188 
	C979.072937,371.845428 979.060120,414.672729 979.060913,458.000000 
z"/>
<path fill="#868686" opacity="1.000000" stroke="none" 
	d="
M49.011547,42.853584 
	C51.159752,42.853584 53.307953,42.853584 55.756409,42.853584 
	C55.756409,293.287964 55.756409,543.357117 55.756409,793.718018 
	C39.944836,793.718018 24.207270,793.718018 7.943558,793.718018 
	C7.943558,791.970947 7.943603,790.361633 7.943550,788.752380 
	C7.935499,541.919678 7.926765,295.087006 7.932904,48.254311 
	C7.932945,46.602375 8.138064,44.950447 9.078106,43.140602 
	C22.943041,42.939655 35.977295,42.896618 49.011547,42.853584 
z"/>
<path fill="#868686" opacity="1.000000" stroke="none" 
	d="
M887.026917,795.798462 
	C899.154175,795.798401 911.281372,795.798401 923.695740,795.798401 
	C923.695740,806.049438 923.695740,815.787659 923.695740,825.796204 
	C636.869324,825.796204 350.190582,825.796204 63.284378,825.796204 
	C63.284378,815.824524 63.284378,806.046448 64.068161,796.110229 
	C65.518005,795.968018 66.184074,795.998047 66.850143,795.998047 
	C338.914978,795.999573 610.979858,795.999390 883.044678,795.990417 
	C884.372070,795.990356 885.699524,795.865173 887.026917,795.798462 
z"/>
<path fill="#868686" opacity="1.000000" stroke="none" 
	d="
M348.000000,28.060993 
	C252.875702,28.061012 158.251404,28.061012 63.287430,28.061012 
	C63.287430,23.729156 63.287430,19.664219 63.287430,15.254002 
	C349.900360,15.254002 636.575378,15.254002 923.618164,15.254002 
	C923.618164,19.259733 923.618164,23.319889 923.618164,28.060974 
	C731.927063,28.060974 540.213501,28.060974 348.000000,28.060993 
z"/>
<path fill="#FFFFFF" opacity="1.000000" stroke="none" 
	d="
M61.122353,785.573486 
	C101.153076,785.427002 141.110886,785.945740 181.068848,785.959961 
	C406.382935,786.040283 631.697083,786.009521 857.011169,785.965088 
	C866.638611,785.963196 876.265930,785.452332 886.349243,785.161743 
	C886.866577,788.097595 886.928040,791.050293 886.522461,794.497864 
	C614.020996,794.995361 341.986603,794.997498 69.952209,795.010681 
	C67.962402,795.010742 65.972603,795.161255 63.982796,795.241516 
	C59.126961,793.394592 61.583481,789.225281 61.122353,785.573486 
z"/>
<path fill="#878787" opacity="1.000000" stroke="none" 
	d="
M905.354980,37.435570 
	C905.260376,38.364677 905.165771,39.293793 905.071289,41.133389 
	C905.036743,48.210018 904.971802,54.376163 904.971680,60.542309 
	C904.966553,297.370972 904.966736,534.199646 904.975708,771.028320 
	C904.975769,773.023254 905.103210,775.018127 905.171143,777.013062 
	C903.601990,777.441772 902.032776,777.870483 900.115662,778.394226 
	C900.115662,530.181641 900.115662,282.779816 900.115662,34.222576 
	C902.132080,35.198349 903.592834,35.905251 905.220032,37.000896 
	C905.386414,37.389645 905.355042,37.435570 905.354980,37.435570 
z"/>
<path fill="#868686" opacity="1.000000" stroke="none" 
	d="
M56.055267,24.987595 
	C56.055279,29.125832 56.055279,32.766891 56.055279,36.749207 
	C38.743942,36.749207 21.704126,36.749207 4.322027,36.749207 
	C4.322027,26.122227 4.322027,15.401095 4.322027,4.330556 
	C21.307255,4.330556 38.347614,4.330556 56.055252,4.330556 
	C56.055252,11.000209 56.055252,17.745314 56.055267,24.987595 
z"/>
<path fill="#0F0F0F" opacity="1.000000" stroke="none" 
	d="
M905.547119,776.891235 
	C905.103210,775.018127 904.975769,773.023254 904.975708,771.028320 
	C904.966736,534.199646 904.966553,297.370972 904.971680,60.542309 
	C904.971802,54.376163 905.036743,48.210018 905.137756,41.599007 
	C905.786011,41.841427 906.744812,42.465851 906.872070,43.228981 
	C907.142944,44.852615 906.995605,46.548363 906.995605,48.214554 
	C906.997620,288.865173 907.000427,529.515747 906.953125,770.166382 
	C906.952637,772.367432 906.281189,774.568359 905.547119,776.891235 
z"/>
<path fill="#868686" opacity="1.000000" stroke="none" 
	d="
M943.016235,35.985748 
	C938.893005,35.985748 935.266235,35.985748 931.328857,35.985748 
	C931.328857,26.592983 931.328857,17.565050 931.328857,8.274172 
	C947.053101,8.274172 962.617004,8.274172 978.584045,8.274172 
	C978.584045,17.223999 978.584045,26.254976 978.584045,35.985752 
	C966.969116,35.985752 955.240906,35.985752 943.016235,35.985748 
z"/>
<path fill="#868686" opacity="1.000000" stroke="none" 
	d="
M55.985748,815.000000 
	C55.985748,819.788025 55.985748,824.079651 55.985748,828.674805 
	C39.930923,828.674805 24.250097,828.674805 8.290922,828.674805 
	C8.290922,819.635498 8.290922,810.724426 8.290922,801.412109 
	C23.890036,801.412109 39.572540,801.412109 55.985752,801.412109 
	C55.985752,805.679810 55.985752,810.091675 55.985748,815.000000 
z"/>
<path fill="#868686" opacity="1.000000" stroke="none" 
	d="
M956.000000,828.985779 
	C947.551147,828.985779 939.602295,828.985779 931.335449,828.985779 
	C931.335449,819.605652 931.335449,810.578186 931.335449,801.280884 
	C947.038391,801.280884 962.601746,801.280884 978.576294,801.280884 
	C978.576294,810.208191 978.576294,819.239136 978.576294,828.985779 
	C971.313782,828.985779 963.906860,828.985779 956.000000,828.985779 
z"/>
<path fill="#141414" opacity="1.000000" stroke="none" 
	d="
M63.973194,795.351807 
	C65.972603,795.161255 67.962402,795.010742 69.952209,795.010681 
	C341.986603,794.997498 614.020996,794.995361 886.504578,794.941040 
	C886.953735,794.889282 887.006104,795.343506 887.016479,795.570984 
	C885.699524,795.865173 884.372070,795.990356 883.044678,795.990417 
	C610.979858,795.999390 338.914978,795.999573 66.850143,795.998047 
	C66.184074,795.998047 65.518005,795.968018 64.405396,795.817688 
	C63.958847,795.683350 63.963593,795.462036 63.973194,795.351807 
z"/>
<path fill="#868686" opacity="1.000000" stroke="none" 
	d="
M911.986450,785.948914 
	C915.470215,785.947021 918.463989,785.835632 921.440918,786.010254 
	C922.314819,786.061523 923.141052,786.924377 923.989197,787.415283 
	C923.197937,787.959595 922.413391,788.965027 921.614258,788.976807 
	C913.649658,789.094116 905.681763,789.104126 897.717529,788.975342 
	C896.730896,788.959412 895.760254,787.959961 894.782166,787.416321 
	C894.923767,786.927063 895.065369,786.437866 895.206909,785.948608 
	C900.634583,785.948608 906.062317,785.948608 911.986450,785.948914 
z"/>
<path fill="#0F0F0F" opacity="1.000000" stroke="none" 
	d="
M48.892185,42.475365 
	C35.977295,42.896618 22.943041,42.939655 9.446959,42.890793 
	C9.999441,42.201172 11.008550,41.094093 12.028861,41.083672 
	C23.587063,40.965591 35.147091,40.996925 46.706161,41.066238 
	C47.397083,41.070374 48.084030,41.738167 48.892185,42.475365 
z"/>
<path fill="#0F0F0F" opacity="1.000000" stroke="none" 
	d="
M905.638672,37.582237 
	C905.355042,37.435570 905.386414,37.389645 905.356384,37.373665 
	C905.859192,37.316040 906.392090,37.274399 906.924927,37.232758 
	C906.936584,37.354309 906.948242,37.475861 906.959839,37.597408 
	C906.614014,37.641243 906.268127,37.685074 905.638672,37.582237 
z"/>
</svg>