<svg version="1.1" id="Layer_1" xmlns="http://www.w3.org/2000/svg" xmlns:xlink="http://www.w3.org/1999/xlink" x="0px" y="0px"
	 width="100%" viewBox="0 0 983 835" enable-background="new 0 0 983 835" xml:space="preserve">
<path fill="#030303" opacity="1.000000" stroke="none" 
	d="
M924.000000,1.000000 
	C943.990845,1.000000 963.981750,1.000000 983.954346,1.000000 
	C983.954346,279.333344 983.954346,557.666687 983.954346,836.000000 
	C964.251038,836.000000 944.593384,836.000000 924.439575,835.567383 
	C921.979797,834.785767 920.016296,834.131470 918.052612,834.131104 
	C635.055115,834.085632 352.057678,834.087585 69.060211,834.087952 
	C67.560249,834.087952 66.025581,833.910767 64.576653,834.184448 
	C63.958832,834.301147 63.520103,835.365967 63.000000,836.000000 
	C42.342724,836.000000 21.685450,836.000000 1.046076,836.000000 
	C1.046076,557.666687 1.046076,279.333313 1.046076,1.000000 
	C21.416199,1.000000 41.740246,1.000000 62.522980,1.458806 
	C62.981670,3.871665 62.981670,5.825718 62.981670,8.165991 
	C64.997192,8.165991 66.621010,8.172296 68.244751,8.165043 
	C91.728889,8.060143 115.213058,7.894494 138.697098,7.912574 
	C142.102570,7.915196 144.717575,7.453474 146.740128,4.315407 
	C147.535324,3.081640 149.719833,2.144613 151.294312,2.110213 
	C160.619171,1.906477 169.951828,1.934644 179.278809,2.080502 
	C180.774033,2.103884 183.102615,2.706612 183.593704,3.735014 
	C185.709686,8.165976 189.354584,8.012671 193.272461,7.880162 
	C197.432480,7.739463 201.614334,7.648591 205.761841,7.917934 
	C209.193726,8.140804 211.707794,7.411564 213.789764,4.369777 
	C214.683105,3.064599 217.034409,2.154790 218.748123,2.114229 
	C227.905685,1.897483 237.072174,1.941796 246.232697,2.083146 
	C247.721039,2.106111 249.965332,2.635854 250.542435,3.668086 
	C253.073898,8.196036 257.067474,8.028451 261.294067,7.885156 
	C265.454132,7.744116 269.630249,7.696143 273.784851,7.900830 
	C276.867249,8.052691 279.027496,7.358635 280.888458,4.558962 
	C281.831604,3.140011 284.409515,2.164735 286.279083,2.113673 
	C295.268402,1.868151 304.269775,1.921357 313.262909,2.085320 
	C314.907501,2.115305 317.377625,2.673403 318.018646,3.806736 
	C320.454742,8.113927 324.191742,8.041302 328.231354,7.883158 
	C331.724487,7.746408 335.233429,7.723677 338.724091,7.888940 
	C342.806885,8.082236 346.533386,8.035492 348.954071,3.773334 
	C349.552124,2.720314 351.740387,2.111717 353.210602,2.087622 
	C362.370819,1.937495 371.535797,1.941805 380.696381,2.080266 
	C382.216278,2.103239 384.572266,2.604173 385.089722,3.622295 
	C387.492401,8.349571 391.537048,8.013133 395.720551,7.877909 
	C399.215393,7.764945 402.726776,7.688453 406.212646,7.898422 
	C410.209137,8.139151 413.651794,7.803333 415.970032,3.794529 
	C416.582123,2.736111 418.754486,2.116295 420.223297,2.092505 
	C429.550171,1.941443 438.881927,1.935858 448.208557,2.093161 
	C449.687103,2.118099 451.879791,2.798521 452.486633,3.880290 
	C454.803894,8.011106 458.351501,8.082861 462.314728,7.896650 
	C466.470581,7.701385 470.654236,7.639744 474.802979,7.892821 
	C478.237946,8.102354 480.757904,7.428864 482.778381,4.269859 
	C483.606598,2.974985 486.069366,2.151333 487.811462,2.111355 
	C496.969391,1.901201 506.135559,1.943911 515.296326,2.075084 
	C516.793579,2.096524 519.170410,2.586565 519.618774,3.560588 
	C521.911133,8.540339 526.122192,7.903929 530.257324,7.862056 
	C534.255249,7.821573 538.258179,7.739487 542.250671,7.891354 
	C545.411377,8.011579 547.914856,7.564627 549.955872,4.587203 
	C550.938171,3.154206 553.526733,2.176278 555.419495,2.123409 
	C564.408630,1.872334 573.409729,1.940958 582.403687,2.078760 
	C583.913330,2.101891 586.277588,2.602711 586.764160,3.603605 
	C589.120300,8.450879 593.221680,8.007410 597.406372,7.875884 
	C600.734985,7.771264 604.070862,7.794442 607.401001,7.871234 
	C611.431335,7.964172 615.357666,8.219636 617.647705,3.691864 
	C618.135132,2.728090 620.177124,2.106693 621.513794,2.087496 
	C631.007690,1.951146 640.505859,1.932062 649.998840,2.096020 
	C651.448181,2.121052 653.537292,2.889603 654.196655,3.992270 
	C656.442871,7.748593 659.682373,8.090875 663.499268,7.900028 
	C667.819885,7.683998 672.173462,7.641060 676.486755,7.922069 
	C679.914795,8.145403 682.425842,7.437769 684.418518,4.349636 
	C685.213745,3.117192 687.359741,2.146083 688.913330,2.113044 
	C698.404968,1.911186 707.904114,1.939671 717.397644,2.091240 
	C718.858154,2.114557 721.091125,2.774418 721.614685,3.818165 
	C723.674500,7.924250 727.069458,8.008943 730.852783,7.888660 
	C735.346313,7.745800 739.858032,7.668789 744.342407,7.916391 
	C747.453491,8.088171 749.562622,7.186281 751.554871,4.690853 
	C752.679077,3.282737 755.028137,2.185638 756.863403,2.126590 
	C765.184387,1.858868 773.521484,2.132155 781.847412,1.956163 
	C785.586060,1.877137 788.582642,2.335257 790.639282,6.058805 
	C791.258606,7.180126 793.713623,7.758411 795.337708,7.778453 
	C807.035828,7.922816 818.737305,7.784652 830.435791,7.913249 
	C833.479797,7.946711 835.732483,7.411500 837.572205,4.616991 
	C838.463013,3.263819 840.765381,2.168207 842.457947,2.125882 
	C851.947937,1.888568 861.448364,1.926340 870.941223,2.093099 
	C872.378357,2.118345 874.501709,2.930792 875.092896,4.031581 
	C877.128784,7.821682 880.226685,8.154886 883.919678,7.904791 
	C886.563660,7.725742 889.238892,8.070326 891.900330,8.076816 
	C902.485046,8.102630 913.069946,8.087443 923.686829,8.087443 
	C923.810059,5.298362 923.905029,3.149180 924.000000,1.000000 
M905.930054,776.774292 
	C906.285889,774.573914 906.952881,772.373596 906.953308,770.173157 
	C907.000305,528.607788 906.997253,287.042480 907.003357,45.477119 
	C907.003418,43.313988 907.223328,41.139828 907.045105,38.995365 
	C906.999756,38.450302 905.817871,37.999733 905.030884,36.709438 
	C903.517822,36.013084 902.004761,35.316730 900.104431,34.442150 
	C900.104431,283.018646 900.104431,530.314331 900.104431,778.419250 
	C902.035767,777.885193 903.606262,777.450928 905.930054,776.774292 
M887.011047,795.342224 
	C887.011047,795.342224 886.954956,794.893616 886.994080,794.006775 
	C886.932312,791.051697 886.870483,788.096680 886.934631,784.332825 
	C887.153076,783.550110 887.182983,782.219360 887.619080,782.069214 
	C892.145081,780.512207 891.043274,776.774414 891.043457,773.524231 
	C891.057617,533.923767 891.056091,294.323242 891.055786,54.722755 
	C891.055786,53.223171 891.106934,51.721249 891.037170,50.224941 
	C890.999878,49.424679 890.950562,48.055752 890.573730,47.928341 
	C886.683350,46.612961 888.213379,43.401695 888.032166,40.874310 
	C887.857544,38.438076 887.994385,35.979511 887.994385,33.407864 
	C872.741089,33.407864 858.031494,33.407864 843.009155,33.407864 
	C843.009155,35.734016 843.009277,37.712189 843.009216,39.690365 
	C843.000793,288.121490 842.992310,536.552612 842.144653,785.159729 
	C840.435364,785.100891 838.726135,785.042053 836.979675,784.048706 
	C836.979675,533.825623 836.979675,283.602570 836.979675,33.182869 
	C828.476807,33.182869 820.669189,33.182869 812.049805,33.067375 
	C810.411987,33.106266 808.774231,33.145153 806.186279,33.087555 
	C791.252014,33.087555 776.317810,33.087555 761.009766,33.087555 
	C761.009766,35.829128 761.009827,37.965469 761.009705,40.101810 
	C761.001587,288.396210 760.993408,536.690613 760.145874,785.162109 
	C758.435913,785.102783 756.725891,785.043457 754.980103,784.049377 
	C754.980103,533.825500 754.980103,283.601654 754.980103,33.183086 
	C740.474915,33.183086 726.668152,33.183086 712.049500,33.067940 
	C710.411621,33.106327 708.773804,33.144714 706.185913,33.086250 
	C689.586060,33.086250 672.986145,33.086250 656.009155,33.086250 
	C656.009155,35.828529 656.009216,37.964806 656.009094,40.101086 
	C656.000977,288.395508 655.992737,536.689941 655.145020,785.160522 
	C653.435242,785.101807 651.725403,785.043152 649.979004,784.049622 
	C649.979004,533.826233 649.979004,283.602814 649.979004,33.182526 
	C635.475220,33.182526 621.668518,33.182526 607.049866,33.067284 
	C605.411926,33.105984 603.773926,33.144688 601.186096,33.085464 
	C586.251770,33.085464 571.317383,33.085464 556.009399,33.085464 
	C556.009399,35.827221 556.009460,37.963535 556.009399,40.099850 
	C556.000977,288.394623 555.992615,536.689392 555.144714,785.159241 
	C553.435059,785.100891 551.725464,785.042542 549.979675,784.049438 
	C549.979675,533.825378 549.979675,283.601288 549.979675,33.182896 
	C535.475159,33.182896 521.668335,33.182896 507.049713,33.067314 
	C505.411896,33.106129 503.774109,33.144943 501.186249,33.086800 
	C486.251953,33.086800 471.317627,33.086800 456.009125,33.086800 
	C456.009125,35.829178 456.009216,37.965530 456.009155,40.101883 
	C456.000916,288.396057 455.992676,536.690186 455.145020,785.160522 
	C453.435211,785.101807 451.725433,785.043152 449.979065,784.049622 
	C449.979065,533.826233 449.979065,283.602783 449.979065,33.182503 
	C435.475189,33.182503 421.668457,33.182503 407.049835,33.067280 
	C405.411896,33.105976 403.773987,33.144672 401.186127,33.085461 
	C386.251801,33.085461 371.317474,33.085461 356.009308,33.085461 
	C356.009308,35.822460 356.009399,37.961109 356.009338,40.099754 
	C356.001007,288.394531 355.992615,536.689331 355.144745,785.159180 
	C353.435150,785.100891 351.725525,785.042542 349.979736,784.049500 
	C349.979736,533.825439 349.979736,283.601349 349.979736,33.182896 
	C335.475128,33.182896 321.668335,33.182896 307.049713,33.067314 
	C305.411896,33.106129 303.774109,33.144943 301.186249,33.086800 
	C286.251953,33.086800 271.317627,33.086800 256.009125,33.086800 
	C256.009125,35.829178 256.009186,37.965530 256.009125,40.101883 
	C256.000916,288.396057 255.992676,536.690186 255.144989,785.160583 
	C253.435211,785.101868 251.725449,785.043152 249.979034,784.049622 
	C249.979034,533.826172 249.979034,283.602753 249.979034,33.182495 
	C235.475021,33.182495 221.668381,33.182495 207.049850,33.067280 
	C205.411926,33.105968 203.774017,33.144657 201.186157,33.085453 
	C186.251801,33.085453 171.317429,33.085453 156.009338,33.085453 
	C156.009338,35.822544 156.009399,37.961193 156.009323,40.099846 
	C156.000961,288.394623 155.992615,536.689392 155.144669,785.159180 
	C153.435043,785.100830 151.725433,785.042419 149.979706,784.049377 
	C149.979706,533.855957 149.979706,283.662506 149.979706,33.348625 
	C119.643509,33.348625 89.912254,33.348625 60.832432,33.348625 
	C60.832432,39.572170 60.833176,45.494572 60.832321,51.416977 
	C60.801376,266.184814 60.752346,480.952667 60.759914,695.720520 
	C60.760967,725.526367 61.041267,755.332275 61.044731,786.002991 
	C61.576950,789.225464 59.124588,793.395691 63.957764,795.460022 
	C63.957764,795.460022 63.953026,795.675537 63.276882,796.260620 
	C63.276882,806.157776 63.276882,816.054932 63.276882,825.798462 
	C350.416931,825.798462 636.994568,825.798462 923.703430,825.798462 
	C923.703430,815.779480 923.703430,806.038452 923.703430,795.793884 
	C911.288025,795.793884 899.159668,795.793884 887.011047,795.342224 
M979.069519,340.500641 
	C979.069519,339.168030 979.288574,337.791473 979.031555,336.510406 
	C977.928345,331.011536 982.172974,324.320221 975.365723,320.014282 
	C974.853088,319.690063 975.049744,318.124451 975.045837,317.135345 
	C975.018372,310.137054 974.962097,303.137604 975.073547,296.141083 
	C975.095520,294.763916 975.465881,292.478027 976.257935,292.184937 
	C979.774597,290.883545 979.060547,288.146332 979.061462,285.605133 
	C979.073303,252.612549 979.068237,219.619949 979.069763,186.627365 
	C979.071106,158.633774 979.089111,130.640167 979.041870,102.646660 
	C979.039307,101.114799 978.876709,98.481155 978.153809,98.236595 
	C974.293396,96.930489 975.079407,93.929871 975.032410,91.204727 
	C974.972046,87.706573 974.657837,84.159981 975.101624,80.717857 
	C975.832031,75.051880 972.160034,68.300835 978.922363,63.992264 
	C979.098389,63.880096 979.047241,63.360779 979.047607,63.031292 
	C979.054016,56.441273 979.052490,49.851246 979.052490,42.747158 
	C960.283691,42.747158 942.223450,42.747158 924.151367,42.747158 
	C924.023621,39.927162 923.919983,37.639576 923.809387,35.198730 
	C919.428833,35.198730 915.371277,35.198730 911.305481,35.198730 
	C911.305481,282.974976 911.305481,530.468201 911.305481,778.070190 
	C916.542969,778.070190 921.372009,778.087524 926.200928,778.064209 
	C929.505554,778.048218 931.084534,779.540710 930.960693,782.952332 
	C930.830322,786.542297 930.931458,790.140564 930.931458,793.653564 
	C947.365051,793.653564 963.095703,793.653564 979.069519,793.653564 
	C979.069519,790.974915 979.346069,788.615417 979.013916,786.344910 
	C978.239319,781.049377 981.772217,774.737122 975.397705,770.650940 
	C974.871704,770.313721 975.035217,768.759583 975.031982,767.770386 
	C975.007446,760.272217 974.961060,752.772888 975.077271,745.276367 
	C975.098816,743.881958 975.445374,741.625305 976.287537,741.261597 
	C979.848633,739.723877 979.053284,736.827148 979.054138,734.168091 
	C979.072876,674.681458 979.075745,615.194824 979.056519,555.708191 
	C979.055420,552.269531 980.196350,548.447205 975.906128,546.278748 
	C975.243103,545.943604 975.066467,544.191833 975.056580,543.091736 
	C974.987732,535.427429 974.956360,527.761108 975.084351,520.098328 
	C975.107239,518.727234 975.562439,516.541992 976.442932,516.155212 
	C979.522461,514.802307 979.072388,512.387695 979.072205,509.962585 
	C979.068298,453.808533 979.069397,397.654480 979.069519,340.500641 
M7.935021,524.500000 
	C7.935021,614.235535 7.935021,703.971130 7.935021,793.670654 
	C24.341265,793.670654 40.078911,793.670654 55.736435,793.670654 
	C55.736435,543.297668 55.736435,293.270935 55.736435,43.312035 
	C39.671635,43.312035 23.937735,43.312035 7.934979,43.312035 
	C7.934979,203.598831 7.934979,363.549408 7.935021,524.500000 
M800.500000,14.939400 
	C554.772583,14.939400 309.045166,14.939400 63.217518,14.939400 
	C63.217518,19.549870 63.217518,23.616840 63.217518,27.798908 
	C350.179962,27.798908 636.863708,27.798908 923.683838,27.798908 
	C923.683838,23.436249 923.683838,19.374256 923.683838,14.939363 
	C882.750305,14.939363 842.125122,14.939363 800.500000,14.939400 
M3.988028,24.490837 
	C3.988028,28.591825 3.988028,32.692814 3.988028,36.792885 
	C21.640203,36.792885 38.686520,36.792885 55.773155,36.792885 
	C55.773155,25.760962 55.773155,15.042750 55.773155,4.291151 
	C38.420609,4.291151 21.372433,4.291151 3.988023,4.291151 
	C3.988023,10.899158 3.988023,17.196102 3.988028,24.490837 
M971.427307,35.993343 
	C973.850708,35.993343 976.274170,35.993343 978.596741,35.993343 
	C978.596741,26.266138 978.596741,17.230146 978.596741,8.264378 
	C962.627075,8.264378 947.055420,8.264378 931.318848,8.264378 
	C931.318848,17.557932 931.318848,26.591017 931.318848,35.993340 
	C944.567810,35.993340 957.507629,35.993340 971.427307,35.993343 
M8.006658,815.496460 
	C8.006658,819.910583 8.006658,824.324707 8.006658,828.594788 
	C24.424749,828.594788 40.114651,828.594788 55.718319,828.594788 
	C55.718319,819.277344 55.718319,810.361450 55.718319,801.317932 
	C39.753361,801.317932 24.065409,801.317932 8.006660,801.317932 
	C8.006660,805.915466 8.006660,810.209473 8.006658,815.496460 
M978.989685,826.259277 
	C978.989685,817.994324 978.989685,809.729309 978.989685,801.312378 
	C962.770203,801.312378 947.079041,801.312378 931.368164,801.312378 
	C931.368164,810.658997 931.368164,819.694946 931.368164,828.989868 
	C946.514038,828.989868 961.299561,829.023132 976.084045,828.913330 
	C977.049072,828.906189 978.005981,827.802673 978.989685,826.259277 
M904.547058,789.060669 
	C910.197937,789.059570 915.850281,789.120972 921.498108,788.989807 
	C922.344788,788.970154 923.170471,788.048889 924.005859,787.544678 
	C923.201660,787.008728 922.403870,786.018677 921.592224,786.007141 
	C913.616211,785.893738 905.636902,785.886475 897.661377,786.020142 
	C896.694580,786.036377 895.744629,787.062256 894.786804,787.620239 
	C894.935730,788.100403 895.084595,788.580566 895.233459,789.060730 
	C898.010803,789.060730 900.788208,789.060730 904.547058,789.060669 
z"/>
<path fill="#F7F7F7" opacity="1.000000" stroke="none" 
	d="
M923.531372,1.000000 
	C923.905029,3.149180 923.810059,5.298362 923.686829,8.087443 
	C913.069946,8.087443 902.485046,8.102630 891.900330,8.076816 
	C889.238892,8.070326 886.563660,7.725742 883.919678,7.904791 
	C880.226685,8.154886 877.128784,7.821682 875.092896,4.031581 
	C874.501709,2.930792 872.378357,2.118345 870.941223,2.093099 
	C861.448364,1.926340 851.947937,1.888568 842.457947,2.125882 
	C840.765381,2.168207 838.463013,3.263819 837.572205,4.616991 
	C835.732483,7.411500 833.479797,7.946711 830.435791,7.913249 
	C818.737305,7.784652 807.035828,7.922816 795.337708,7.778453 
	C793.713623,7.758411 791.258606,7.180126 790.639282,6.058805 
	C788.582642,2.335257 785.586060,1.877137 781.847412,1.956163 
	C773.521484,2.132155 765.184387,1.858868 756.863403,2.126590 
	C755.028137,2.185638 752.679077,3.282737 751.554871,4.690853 
	C749.562622,7.186281 747.453491,8.088171 744.342407,7.916391 
	C739.858032,7.668789 735.346313,7.745800 730.852783,7.888660 
	C727.069458,8.008943 723.674500,7.924250 721.614685,3.818165 
	C721.091125,2.774418 718.858154,2.114557 717.397644,2.091240 
	C707.904114,1.939671 698.404968,1.911186 688.913330,2.113044 
	C687.359741,2.146083 685.213745,3.117192 684.418518,4.349636 
	C682.425842,7.437769 679.914795,8.145403 676.486755,7.922069 
	C672.173462,7.641060 667.819885,7.683998 663.499268,7.900028 
	C659.682373,8.090875 656.442871,7.748593 654.196655,3.992270 
	C653.537292,2.889603 651.448181,2.121052 649.998840,2.096020 
	C640.505859,1.932062 631.007690,1.951146 621.513794,2.087496 
	C620.177124,2.106693 618.135132,2.728090 617.647705,3.691864 
	C615.357666,8.219636 611.431335,7.964172 607.401001,7.871234 
	C604.070862,7.794442 600.734985,7.771264 597.406372,7.875884 
	C593.221680,8.007410 589.120300,8.450879 586.764160,3.603605 
	C586.277588,2.602711 583.913330,2.101891 582.403687,2.078760 
	C573.409729,1.940958 564.408630,1.872334 555.419495,2.123409 
	C553.526733,2.176278 550.938171,3.154206 549.955872,4.587203 
	C547.914856,7.564627 545.411377,8.011579 542.250671,7.891354 
	C538.258179,7.739487 534.255249,7.821573 530.257324,7.862056 
	C526.122192,7.903929 521.911133,8.540339 519.618774,3.560588 
	C519.170410,2.586565 516.793579,2.096524 515.296326,2.075084 
	C506.135559,1.943911 496.969391,1.901201 487.811462,2.111355 
	C486.069366,2.151333 483.606598,2.974985 482.778381,4.269859 
	C480.757904,7.428864 478.237946,8.102354 474.802979,7.892821 
	C470.654236,7.639744 466.470581,7.701385 462.314728,7.896650 
	C458.351501,8.082861 454.803894,8.011106 452.486633,3.880290 
	C451.879791,2.798521 449.687103,2.118099 448.208557,2.093161 
	C438.881927,1.935858 429.550171,1.941443 420.223297,2.092505 
	C418.754486,2.116295 416.582123,2.736111 415.970032,3.794529 
	C413.651794,7.803333 410.209137,8.139151 406.212646,7.898422 
	C402.726776,7.688453 399.215393,7.764945 395.720551,7.877909 
	C391.537048,8.013133 387.492401,8.349571 385.089722,3.622295 
	C384.572266,2.604173 382.216278,2.103239 380.696381,2.080266 
	C371.535797,1.941805 362.370819,1.937495 353.210602,2.087622 
	C351.740387,2.111717 349.552124,2.720314 348.954071,3.773334 
	C346.533386,8.035492 342.806885,8.082236 338.724091,7.888940 
	C335.233429,7.723677 331.724487,7.746408 328.231354,7.883158 
	C324.191742,8.041302 320.454742,8.113927 318.018646,3.806736 
	C317.377625,2.673403 314.907501,2.115305 313.262909,2.085320 
	C304.269775,1.921357 295.268402,1.868151 286.279083,2.113673 
	C284.409515,2.164735 281.831604,3.140011 280.888458,4.558962 
	C279.027496,7.358635 276.867249,8.052691 273.784851,7.900830 
	C269.630249,7.696143 265.454132,7.744116 261.294067,7.885156 
	C257.067474,8.028451 253.073898,8.196036 250.542435,3.668086 
	C249.965332,2.635854 247.721039,2.106111 246.232697,2.083146 
	C237.072174,1.941796 227.905685,1.897483 218.748123,2.114229 
	C217.034409,2.154790 214.683105,3.064599 213.789764,4.369777 
	C211.707794,7.411564 209.193726,8.140804 205.761841,7.917934 
	C201.614334,7.648591 197.432480,7.739463 193.272461,7.880162 
	C189.354584,8.012671 185.709686,8.165976 183.593704,3.735014 
	C183.102615,2.706612 180.774033,2.103884 179.278809,2.080502 
	C169.951828,1.934644 160.619171,1.906477 151.294312,2.110213 
	C149.719833,2.144613 147.535324,3.081640 146.740128,4.315407 
	C144.717575,7.453474 142.102570,7.915196 138.697098,7.912574 
	C115.213058,7.894494 91.728889,8.060143 68.244751,8.165043 
	C66.621010,8.172296 64.997192,8.165991 62.981670,8.165991 
	C62.981670,5.825718 62.981670,3.871665 62.990837,1.458806 
	C349.687561,1.000000 636.375122,1.000000 923.531372,1.000000 
z"/>
<path fill="#DFDFDF" opacity="1.000000" stroke="none" 
	d="
M63.468658,836.000000 
	C63.520103,835.365967 63.958832,834.301147 64.576653,834.184448 
	C66.025581,833.910767 67.560249,834.087952 69.060211,834.087952 
	C352.057678,834.087585 635.055115,834.085632 918.052612,834.131104 
	C920.016296,834.131470 921.979797,834.785767 923.971680,835.567383 
	C637.312439,836.000000 350.624878,836.000000 63.468658,836.000000 
z"/>
<path fill="#868686" opacity="1.000000" stroke="none" 
	d="
M61.192295,785.138123 
	C61.041267,755.332275 60.760967,725.526367 60.759914,695.720520 
	C60.752346,480.952667 60.801376,266.184814 60.832321,51.416977 
	C60.833176,45.494572 60.832432,39.572170 60.832432,33.348625 
	C89.912254,33.348625 119.643509,33.348625 149.979706,33.348625 
	C149.979706,283.662506 149.979706,533.855957 149.533615,784.596069 
	C119.789116,785.141174 90.490707,785.139648 61.192295,785.138123 
z"/>
<path fill="#868686" opacity="1.000000" stroke="none" 
	d="
M979.069519,341.000549 
	C979.069397,397.654480 979.068298,453.808533 979.072205,509.962585 
	C979.072388,512.387695 979.522461,514.802307 976.442932,516.155212 
	C975.562439,516.541992 975.107239,518.727234 975.084351,520.098328 
	C974.956360,527.761108 974.987732,535.427429 975.056580,543.091736 
	C975.066467,544.191833 975.243103,545.943604 975.906128,546.278748 
	C980.196350,548.447205 979.055420,552.269531 979.056519,555.708191 
	C979.075745,615.194824 979.072876,674.681458 979.054138,734.168091 
	C979.053284,736.827148 979.848633,739.723877 976.287537,741.261597 
	C975.445374,741.625305 975.098816,743.881958 975.077271,745.276367 
	C974.961060,752.772888 975.007446,760.272217 975.031982,767.770386 
	C975.035217,768.759583 974.871704,770.313721 975.397705,770.650940 
	C981.772217,774.737122 978.239319,781.049377 979.013916,786.344910 
	C979.346069,788.615417 979.069519,790.974915 979.069519,793.653564 
	C963.095703,793.653564 947.365051,793.653564 930.931458,793.653564 
	C930.931458,790.140564 930.830322,786.542297 930.960693,782.952332 
	C931.084534,779.540710 929.505554,778.048218 926.200928,778.064209 
	C921.372009,778.087524 916.542969,778.070190 911.305481,778.070190 
	C911.305481,530.468201 911.305481,282.974976 911.305481,35.198730 
	C915.371277,35.198730 919.428833,35.198730 923.809387,35.198730 
	C923.919983,37.639576 924.023621,39.927162 924.151367,42.747158 
	C942.223450,42.747158 960.283691,42.747158 979.052490,42.747158 
	C979.052490,49.851246 979.054016,56.441273 979.047607,63.031292 
	C979.047241,63.360779 979.098389,63.880096 978.922363,63.992264 
	C972.160034,68.300835 975.832031,75.051880 975.101624,80.717857 
	C974.657837,84.159981 974.972046,87.706573 975.032410,91.204727 
	C975.079407,93.929871 974.293396,96.930489 978.153809,98.236595 
	C978.876709,98.481155 979.039307,101.114799 979.041870,102.646660 
	C979.089111,130.640167 979.071106,158.633774 979.069763,186.627365 
	C979.068237,219.619949 979.073303,252.612549 979.061462,285.605133 
	C979.060547,288.146332 979.774597,290.883545 976.257935,292.184937 
	C975.465881,292.478027 975.095520,294.763916 975.073547,296.141083 
	C974.962097,303.137604 975.018372,310.137054 975.045837,317.135345 
	C975.049744,318.124451 974.853088,319.690063 975.365723,320.014282 
	C982.172974,324.320221 977.928345,331.011536 979.031555,336.510406 
	C979.288574,337.791473 979.069519,339.168030 979.069519,341.000549 
z"/>
<path fill="#FEFEFE" opacity="1.000000" stroke="none" 
	d="
M61.118515,785.570557 
	C90.490707,785.139648 119.789116,785.141174 149.551666,785.063354 
	C151.725433,785.042419 153.435043,785.100830 156.028595,785.151001 
	C171.831528,785.142761 186.750549,785.142761 201.997787,785.142761 
	C201.997787,782.150024 201.997787,779.842346 201.997787,777.534668 
	C201.997772,531.582275 201.997391,285.629913 202.003418,39.677525 
	C202.003479,37.512798 202.089951,35.348076 202.136078,33.183350 
	C203.774017,33.144657 205.411926,33.105968 207.492188,33.580666 
	C207.957138,36.093132 207.999527,38.092205 207.999557,40.091282 
	C208.002441,286.052032 208.002228,532.012817 208.002151,777.973572 
	C208.002151,780.247559 208.002151,782.521606 208.002151,784.984436 
	C222.423111,784.984436 236.219391,784.984436 250.015671,784.984497 
	C251.725449,785.043152 253.435211,785.101868 256.028992,785.150940 
	C271.832062,785.141296 286.751160,785.141296 301.997375,785.141296 
	C301.997375,782.316589 301.997375,780.175598 301.997375,778.034607 
	C301.997620,531.749084 301.997589,285.463501 302.003906,39.177959 
	C302.003967,37.179893 302.090271,35.181828 302.136292,33.183762 
	C303.774109,33.144943 305.411896,33.106129 307.492249,33.580841 
	C307.957184,35.760159 307.999146,37.425941 307.999146,39.091728 
	C308.002289,285.386047 308.002380,531.680359 308.002625,777.974670 
	C308.002625,780.248535 308.002625,782.522461 308.002625,784.984253 
	C322.423340,784.984253 336.219635,784.984253 350.015930,784.984253 
	C351.725525,785.042542 353.435150,785.100891 356.028656,785.151001 
	C371.831573,785.142761 386.750580,785.142761 401.997772,785.142761 
	C401.997772,782.150085 401.997772,779.842407 401.997772,777.534729 
	C401.997742,531.748962 401.997314,285.963196 402.003387,40.177448 
	C402.003418,37.846088 402.089905,35.514725 402.136047,33.183365 
	C403.773987,33.144672 405.411896,33.105976 407.492188,33.580673 
	C407.957153,36.093151 407.999512,38.092239 407.999512,40.091328 
	C408.002380,286.052063 408.002258,532.012817 408.002197,777.973572 
	C408.002197,780.247559 408.002167,782.521606 408.002167,784.984436 
	C422.423065,784.984436 436.219330,784.984436 450.015625,784.984436 
	C451.725433,785.043152 453.435211,785.101807 456.028992,785.150879 
	C471.832062,785.141296 486.751190,785.141296 501.997375,785.141296 
	C501.997375,782.316589 501.997406,780.175537 501.997406,778.034546 
	C501.997650,531.749023 501.997528,285.463501 502.003815,39.177959 
	C502.003876,37.179893 502.090240,35.181828 502.136292,33.183762 
	C503.774109,33.144943 505.411896,33.106129 507.492279,33.580841 
	C507.957184,35.760147 507.999146,37.425919 507.999146,39.091694 
	C508.002289,285.385986 508.002350,531.680237 508.002594,777.974548 
	C508.002594,780.248474 508.002625,782.522339 508.002625,784.984192 
	C522.423218,784.984192 536.219482,784.984192 550.015808,784.984192 
	C551.725464,785.042542 553.435059,785.100891 556.028564,785.151001 
	C571.831543,785.142761 586.750610,785.142761 601.997986,785.142761 
	C601.997986,782.150024 601.997925,779.842285 601.997925,777.534607 
	C601.997986,531.582275 601.997559,285.629913 602.003601,39.677578 
	C602.003662,37.512848 602.089966,35.348122 602.135986,33.183392 
	C603.773926,33.144688 605.411926,33.105984 607.492188,33.580685 
	C607.957092,36.093174 607.999329,38.092262 607.999390,40.091351 
	C608.002197,286.052094 608.001892,532.012817 608.001892,777.973572 
	C608.001892,780.247620 608.001892,782.521606 608.001892,784.984436 
	C622.423096,784.984436 636.219360,784.984436 650.015625,784.984436 
	C651.725403,785.043152 653.435242,785.101807 656.028992,785.150940 
	C673.498169,785.141357 690.083313,785.141357 706.998596,785.141357 
	C706.998596,782.321533 706.998657,780.178528 706.998657,778.035522 
	C706.998169,532.082764 706.997192,286.129974 707.002808,40.177204 
	C707.002869,37.845837 707.089661,35.514469 707.135925,33.183102 
	C708.773804,33.144714 710.411621,33.106327 712.492065,33.581245 
	C712.957031,35.926971 712.999084,37.759396 712.999084,39.591816 
	C713.002197,285.719604 713.002258,531.847351 713.002502,777.975159 
	C713.002502,780.249207 713.002502,782.523193 713.002502,784.984131 
	C727.423157,784.984131 741.219543,784.984131 755.015930,784.984131 
	C756.725891,785.043457 758.435913,785.102783 761.029785,785.151733 
	C776.832764,785.141418 791.751892,785.141418 806.997742,785.141418 
	C806.997742,782.147949 806.997742,779.840271 806.997742,777.532532 
	C806.997864,531.581055 806.997681,285.629608 807.003967,39.678162 
	C807.003967,37.513454 807.090332,35.348751 807.136414,33.184044 
	C808.774231,33.145153 810.411987,33.106266 812.492249,33.580868 
	C812.957092,35.926804 812.999146,37.759251 812.999146,39.591694 
	C813.001953,285.718079 813.001709,531.844421 813.001709,777.970825 
	C813.001709,780.244812 813.001648,782.518860 813.001648,784.983215 
	C821.421814,784.983215 829.219299,784.983215 837.016846,784.983215 
	C838.726135,785.042053 840.435364,785.100891 843.028503,785.150452 
	C858.211121,785.141296 872.509949,785.141418 886.808716,785.141602 
	C886.870483,788.096680 886.932312,791.051697 886.525085,794.500000 
	C614.020081,794.995850 341.984131,794.998047 69.948143,795.011353 
	C67.958595,795.011475 65.969040,795.164185 63.979492,795.245605 
	C59.124588,793.395691 61.576950,789.225464 61.118515,785.570557 
z"/>
<path fill="#868686" opacity="1.000000" stroke="none" 
	d="
M706.660889,33.134674 
	C707.089661,35.514469 707.002869,37.845837 707.002808,40.177204 
	C706.997192,286.129974 706.998169,532.082764 706.998657,778.035522 
	C706.998657,780.178528 706.998596,782.321533 706.998596,785.141357 
	C690.083313,785.141357 673.498169,785.141357 656.448730,785.062866 
	C655.992737,536.689941 656.000977,288.395508 656.009094,40.101086 
	C656.009216,37.964806 656.009155,35.828529 656.009155,33.086250 
	C672.986145,33.086250 689.586060,33.086250 706.660889,33.134674 
z"/>
<path fill="#868686" opacity="1.000000" stroke="none" 
	d="
M7.935000,524.000000 
	C7.934979,363.549408 7.934979,203.598831 7.934979,43.312035 
	C23.937735,43.312035 39.671635,43.312035 55.736435,43.312035 
	C55.736435,293.270935 55.736435,543.297668 55.736435,793.670654 
	C40.078911,793.670654 24.341265,793.670654 7.935021,793.670654 
	C7.935021,703.971130 7.935021,614.235535 7.935000,524.000000 
z"/>
<path fill="#868686" opacity="1.000000" stroke="none" 
	d="
M886.871704,784.737183 
	C872.509949,785.141418 858.211121,785.141296 843.448120,785.062500 
	C842.992310,536.552612 843.000793,288.121490 843.009216,39.690365 
	C843.009277,37.712189 843.009155,35.734016 843.009155,33.407864 
	C858.031494,33.407864 872.741089,33.407864 887.994385,33.407864 
	C887.994385,35.979511 887.857544,38.438076 888.032166,40.874310 
	C888.213379,43.401695 886.683350,46.612961 890.573730,47.928341 
	C890.950562,48.055752 890.999878,49.424679 891.037170,50.224941 
	C891.106934,51.721249 891.055786,53.223171 891.055786,54.722755 
	C891.056091,294.323242 891.057617,533.923767 891.043457,773.524231 
	C891.043274,776.774414 892.145081,780.512207 887.619080,782.069214 
	C887.182983,782.219360 887.153076,783.550110 886.871704,784.737183 
z"/>
<path fill="#868686" opacity="1.000000" stroke="none" 
	d="
M301.661285,33.135281 
	C302.090271,35.181828 302.003967,37.179893 302.003906,39.177959 
	C301.997589,285.463501 301.997620,531.749084 301.997375,778.034607 
	C301.997375,780.175598 301.997375,782.316589 301.997375,785.141296 
	C286.751160,785.141296 271.832062,785.141296 256.448700,785.062866 
	C255.992676,536.690186 256.000916,288.396057 256.009125,40.101883 
	C256.009186,37.965530 256.009125,35.829178 256.009125,33.086800 
	C271.317627,33.086800 286.251953,33.086800 301.661285,33.135281 
z"/>
<path fill="#868686" opacity="1.000000" stroke="none" 
	d="
M401.661072,33.134415 
	C402.089905,35.514725 402.003418,37.846088 402.003387,40.177448 
	C401.997314,285.963196 401.997742,531.748962 401.997772,777.534729 
	C401.997772,779.842407 401.997772,782.150085 401.997772,785.142761 
	C386.750580,785.142761 371.831573,785.142761 356.448425,785.063477 
	C355.992615,536.689331 356.001007,288.394531 356.009338,40.099754 
	C356.009399,37.961109 356.009308,35.822460 356.009308,33.085461 
	C371.317474,33.085461 386.251801,33.085461 401.661072,33.134415 
z"/>
<path fill="#868686" opacity="1.000000" stroke="none" 
	d="
M501.661255,33.135281 
	C502.090240,35.181828 502.003876,37.179893 502.003815,39.177959 
	C501.997528,285.463501 501.997650,531.749023 501.997406,778.034546 
	C501.997406,780.175537 501.997375,782.316589 501.997375,785.141296 
	C486.751190,785.141296 471.832062,785.141296 456.448730,785.062866 
	C455.992676,536.690186 456.000916,288.396057 456.009155,40.101883 
	C456.009216,37.965530 456.009125,35.829178 456.009125,33.086800 
	C471.317627,33.086800 486.251953,33.086800 501.661255,33.135281 
z"/>
<path fill="#868686" opacity="1.000000" stroke="none" 
	d="
M601.661011,33.134430 
	C602.089966,35.348122 602.003662,37.512848 602.003601,39.677578 
	C601.997559,285.629913 601.997986,531.582275 601.997925,777.534607 
	C601.997925,779.842285 601.997986,782.150024 601.997986,785.142761 
	C586.750610,785.142761 571.831543,785.142761 556.448364,785.063477 
	C555.992615,536.689392 556.000977,288.394623 556.009399,40.099850 
	C556.009460,37.963535 556.009399,35.827221 556.009399,33.085464 
	C571.317383,33.085464 586.251770,33.085464 601.661011,33.134430 
z"/>
<path fill="#868686" opacity="1.000000" stroke="none" 
	d="
M201.661118,33.134399 
	C202.089951,35.348076 202.003479,37.512798 202.003418,39.677525 
	C201.997391,285.629913 201.997772,531.582275 201.997787,777.534668 
	C201.997787,779.842346 201.997787,782.150024 201.997787,785.142761 
	C186.750549,785.142761 171.831528,785.142761 156.448364,785.063477 
	C155.992615,536.689392 156.000961,288.394623 156.009323,40.099846 
	C156.009399,37.961193 156.009338,35.822544 156.009338,33.085453 
	C171.317429,33.085453 186.251801,33.085453 201.661118,33.134399 
z"/>
<path fill="#868686" opacity="1.000000" stroke="none" 
	d="
M806.661377,33.135799 
	C807.090332,35.348751 807.003967,37.513454 807.003967,39.678162 
	C806.997681,285.629608 806.997864,531.581055 806.997742,777.532532 
	C806.997742,779.840271 806.997742,782.147949 806.997742,785.141418 
	C791.751892,785.141418 776.832764,785.141418 761.449463,785.063232 
	C760.993408,536.690613 761.001587,288.396210 761.009705,40.101810 
	C761.009827,37.965469 761.009766,35.829128 761.009766,33.087555 
	C776.317810,33.087555 791.252014,33.087555 806.661377,33.135799 
z"/>
<path fill="#868686" opacity="1.000000" stroke="none" 
	d="
M249.997345,784.517029 
	C236.219391,784.984436 222.423111,784.984436 208.002151,784.984436 
	C208.002151,782.521606 208.002151,780.247559 208.002151,777.973572 
	C208.002228,532.012817 208.002441,286.052032 207.999557,40.091282 
	C207.999527,38.092205 207.957138,36.093132 207.898132,33.638275 
	C221.668381,33.182495 235.475021,33.182495 249.979034,33.182495 
	C249.979034,283.602753 249.979034,533.826172 249.997345,784.517029 
z"/>
<path fill="#868686" opacity="1.000000" stroke="none" 
	d="
M349.997833,784.516846 
	C336.219635,784.984253 322.423340,784.984253 308.002625,784.984253 
	C308.002625,782.522461 308.002625,780.248535 308.002625,777.974670 
	C308.002380,531.680359 308.002289,285.386047 307.999146,39.091728 
	C307.999146,37.425941 307.957184,35.760159 307.898163,33.638634 
	C321.668335,33.182896 335.475128,33.182896 349.979736,33.182896 
	C349.979736,283.601349 349.979736,533.825439 349.997833,784.516846 
z"/>
<path fill="#868686" opacity="1.000000" stroke="none" 
	d="
M449.997345,784.517029 
	C436.219330,784.984436 422.423065,784.984436 408.002167,784.984436 
	C408.002167,782.521606 408.002197,780.247559 408.002197,777.973572 
	C408.002258,532.012817 408.002380,286.052063 407.999512,40.091328 
	C407.999512,38.092239 407.957153,36.093151 407.898132,33.638283 
	C421.668457,33.182503 435.475189,33.182503 449.979065,33.182503 
	C449.979065,283.602783 449.979065,533.826233 449.997345,784.517029 
z"/>
<path fill="#868686" opacity="1.000000" stroke="none" 
	d="
M549.997742,784.516846 
	C536.219482,784.984192 522.423218,784.984192 508.002625,784.984192 
	C508.002625,782.522339 508.002594,780.248474 508.002594,777.974548 
	C508.002350,531.680237 508.002289,285.385986 507.999146,39.091694 
	C507.999146,37.425919 507.957184,35.760147 507.898193,33.638634 
	C521.668335,33.182896 535.475159,33.182896 549.979675,33.182896 
	C549.979675,283.601288 549.979675,533.825378 549.997742,784.516846 
z"/>
<path fill="#868686" opacity="1.000000" stroke="none" 
	d="
M649.997314,784.517029 
	C636.219360,784.984436 622.423096,784.984436 608.001892,784.984436 
	C608.001892,782.521606 608.001892,780.247620 608.001892,777.973572 
	C608.001892,532.012817 608.002197,286.052094 607.999390,40.091351 
	C607.999329,38.092262 607.957092,36.093174 607.898193,33.638306 
	C621.668518,33.182526 635.475220,33.182526 649.979004,33.182526 
	C649.979004,283.602814 649.979004,533.826233 649.997314,784.517029 
z"/>
<path fill="#868686" opacity="1.000000" stroke="none" 
	d="
M754.998047,784.516724 
	C741.219543,784.984131 727.423157,784.984131 713.002502,784.984131 
	C713.002502,782.523193 713.002502,780.249207 713.002502,777.975159 
	C713.002258,531.847351 713.002197,285.719604 712.999084,39.591816 
	C712.999084,37.759396 712.957031,35.926971 712.898071,33.638817 
	C726.668152,33.183086 740.474915,33.183086 754.980103,33.183086 
	C754.980103,283.601654 754.980103,533.825500 754.998047,784.516724 
z"/>
<path fill="#868686" opacity="1.000000" stroke="none" 
	d="
M887.031311,795.793884 
	C899.159668,795.793884 911.288025,795.793884 923.703430,795.793884 
	C923.703430,806.038452 923.703430,815.779480 923.703430,825.798462 
	C636.994568,825.798462 350.416931,825.798462 63.276882,825.798462 
	C63.276882,816.054932 63.276882,806.157776 64.061508,796.105835 
	C65.512207,795.967346 66.178284,795.997986 66.844353,795.997986 
	C338.912872,795.999634 610.981384,795.999573 883.049866,795.990356 
	C884.377014,795.990356 885.704163,795.862183 887.031311,795.793884 
z"/>
<path fill="#868686" opacity="1.000000" stroke="none" 
	d="
M836.998291,784.515991 
	C829.219299,784.983215 821.421814,784.983215 813.001648,784.983215 
	C813.001648,782.518860 813.001709,780.244812 813.001709,777.970825 
	C813.001709,531.844421 813.001953,285.718079 812.999146,39.591694 
	C812.999146,37.759251 812.957092,35.926804 812.898132,33.638615 
	C820.669189,33.182869 828.476807,33.182869 836.979675,33.182869 
	C836.979675,283.602570 836.979675,533.825623 836.998291,784.515991 
z"/>
<path fill="#868686" opacity="1.000000" stroke="none" 
	d="
M801.000000,14.939381 
	C842.125122,14.939363 882.750305,14.939363 923.683838,14.939363 
	C923.683838,19.374256 923.683838,23.436249 923.683838,27.798908 
	C636.863708,27.798908 350.179962,27.798908 63.217518,27.798908 
	C63.217518,23.616840 63.217518,19.549870 63.217518,14.939400 
	C309.045166,14.939400 554.772583,14.939400 801.000000,14.939381 
z"/>
<path fill="#878787" opacity="1.000000" stroke="none" 
	d="
M905.176819,777.016724 
	C903.606262,777.450928 902.035767,777.885193 900.104431,778.419250 
	C900.104431,530.314331 900.104431,283.018646 900.104431,34.442150 
	C902.004761,35.316730 903.517822,36.013084 905.045288,37.532646 
	C905.028870,45.685738 904.971436,53.015617 904.971252,60.345501 
	C904.966553,297.242126 904.966858,534.138794 904.976013,771.035400 
	C904.976074,773.029175 905.106995,775.022949 905.176819,777.016724 
z"/>
<path fill="#868686" opacity="1.000000" stroke="none" 
	d="
M3.988026,23.991941 
	C3.988023,17.196102 3.988023,10.899158 3.988023,4.291151 
	C21.372433,4.291151 38.420609,4.291151 55.773155,4.291151 
	C55.773155,15.042750 55.773155,25.760962 55.773155,36.792885 
	C38.686520,36.792885 21.640203,36.792885 3.988028,36.792885 
	C3.988028,32.692814 3.988028,28.591825 3.988026,23.991941 
z"/>
<path fill="#0F0F0F" opacity="1.000000" stroke="none" 
	d="
M905.553467,776.895508 
	C905.106995,775.022949 904.976074,773.029175 904.976013,771.035400 
	C904.966858,534.138794 904.966553,297.242126 904.971252,60.345501 
	C904.971436,53.015617 905.028870,45.685738 905.108887,37.930801 
	C905.817871,37.999733 906.999756,38.450302 907.045105,38.995365 
	C907.223328,41.139828 907.003418,43.313988 907.003357,45.477119 
	C906.997253,287.042480 907.000305,528.607788 906.953308,770.173157 
	C906.952881,772.373596 906.285889,774.573914 905.553467,776.895508 
z"/>
<path fill="#868686" opacity="1.000000" stroke="none" 
	d="
M970.937378,35.993340 
	C957.507629,35.993340 944.567810,35.993340 931.318848,35.993340 
	C931.318848,26.591017 931.318848,17.557932 931.318848,8.264378 
	C947.055420,8.264378 962.627075,8.264378 978.596741,8.264378 
	C978.596741,17.230146 978.596741,26.266138 978.596741,35.993343 
	C976.274170,35.993343 973.850708,35.993343 970.937378,35.993340 
z"/>
<path fill="#868686" opacity="1.000000" stroke="none" 
	d="
M8.006659,815.000000 
	C8.006660,810.209473 8.006660,805.915466 8.006660,801.317932 
	C24.065409,801.317932 39.753361,801.317932 55.718319,801.317932 
	C55.718319,810.361450 55.718319,819.277344 55.718319,828.594788 
	C40.114651,828.594788 24.424749,828.594788 8.006658,828.594788 
	C8.006658,824.324707 8.006658,819.910583 8.006659,815.000000 
z"/>
<path fill="#868686" opacity="1.000000" stroke="none" 
	d="
M978.978149,826.734192 
	C978.005981,827.802673 977.049072,828.906189 976.084045,828.913330 
	C961.299561,829.023132 946.514038,828.989868 931.368164,828.989868 
	C931.368164,819.694946 931.368164,810.658997 931.368164,801.312378 
	C947.079041,801.312378 962.770203,801.312378 978.989685,801.312378 
	C978.989685,809.729309 978.989685,817.994324 978.978149,826.734192 
z"/>
<path fill="#141414" opacity="1.000000" stroke="none" 
	d="
M887.021179,795.568054 
	C885.704163,795.862183 884.377014,795.990356 883.049866,795.990356 
	C610.981384,795.999573 338.912872,795.999634 66.844353,795.997986 
	C66.178284,795.997986 65.512207,795.967346 64.399582,795.813232 
	C63.953026,795.675537 63.957764,795.460022 63.968628,795.352783 
	C65.969040,795.164185 67.958595,795.011475 69.948143,795.011353 
	C341.984131,794.998047 614.020081,794.995850 886.505493,794.943420 
	C886.954956,794.893616 887.011047,795.342224 887.021179,795.568054 
z"/>
<path fill="#868686" opacity="1.000000" stroke="none" 
	d="
M904.056274,789.060669 
	C900.788208,789.060730 898.010803,789.060730 895.233459,789.060730 
	C895.084595,788.580566 894.935730,788.100403 894.786804,787.620239 
	C895.744629,787.062256 896.694580,786.036377 897.661377,786.020142 
	C905.636902,785.886475 913.616211,785.893738 921.592224,786.007141 
	C922.403870,786.018677 923.201660,787.008728 924.005859,787.544678 
	C923.170471,788.048889 922.344788,788.970154 921.498108,788.989807 
	C915.850281,789.120972 910.197937,789.059570 904.056274,789.060669 
z"/>
</svg>