<svg version="1.1" id="Layer_1" xmlns="http://www.w3.org/2000/svg" xmlns:xlink="http://www.w3.org/1999/xlink" x="0px" y="0px"
	 width="100%" viewBox="0 0 1965 835" enable-background="new 0 0 1965 835" xml:space="preserve">
<path fill="none" opacity="1.000000" stroke="#000000" stroke-linecap="round" stroke-linejoin="round" stroke-width="8.000000"
	d="
M1906.000000,792.500000 
	C1291.000000,792.500000 676.000000,792.500000 61.000000,792.500000 
"/>
<path fill="none" opacity="1.000000" stroke="#000000" stroke-linecap="round" stroke-linejoin="round" stroke-width="8.000000"
	d="
M1906.000000,11.500000 
	C1879.333374,11.500000 1852.666626,11.513095 1826.000122,11.465172 
	C1824.511353,11.462497 1823.052490,11.761856 1821.474487,11.057098 
	C1810.812744,6.295077 1799.143311,7.309157 1788.608521,9.128445 
	C1779.655884,10.674511 1770.901123,11.107195 1761.999756,11.494156 
	C1757.636719,11.683823 1753.388672,11.507450 1749.448120,9.084442 
	C1748.285278,8.369412 1746.501221,8.537316 1744.999756,8.522861 
	C1739.166992,8.466706 1733.330811,8.605330 1727.500854,8.463622 
	C1723.497070,8.366306 1719.552979,8.471254 1716.025635,10.543717 
	C1714.223022,11.602923 1712.385986,11.489143 1710.500000,11.493913 
	C1704.166626,11.509932 1697.833130,11.533928 1691.500244,11.477116 
	C1689.832275,11.462153 1687.966064,11.598067 1686.531982,10.931308 
	C1675.797729,5.940251 1664.475708,9.653418 1653.500000,8.500000 
	C1643.443237,14.153579 1632.495361,10.450829 1621.996826,11.467571 
	C1621.187744,11.545941 1620.384277,11.498096 1619.468872,11.065786 
	C1608.827271,6.040022 1597.484009,9.544333 1586.500000,8.500000 
	C1577.963989,13.676317 1568.531494,10.801232 1559.498047,11.474188 
	C1555.462769,11.774801 1551.502686,11.628036 1547.943481,9.078868 
	C1546.983276,8.391178 1545.334473,8.533851 1543.999756,8.522713 
	C1537.833618,8.471253 1531.664307,8.603327 1525.500854,8.463097 
	C1521.497192,8.372006 1517.552856,8.471201 1514.025635,10.543717 
	C1512.223022,11.602923 1510.385986,11.489143 1508.500000,11.493913 
	C1502.166626,11.509932 1495.832764,11.544885 1489.500488,11.463497 
	C1488.176514,11.446483 1486.886475,11.689427 1485.473755,11.058713 
	C1474.811035,6.298664 1463.143311,7.309127 1452.608521,9.128414 
	C1443.655884,10.674481 1434.901123,11.107195 1425.999756,11.494148 
	C1421.636719,11.683815 1417.388550,11.507501 1413.447998,9.084494 
	C1412.285278,8.369465 1410.501221,8.537321 1408.999756,8.522865 
	C1403.166992,8.466706 1397.330811,8.605327 1391.500854,8.463622 
	C1387.497070,8.366302 1383.552979,8.471254 1380.025635,10.543717 
	C1378.223022,11.602923 1376.385986,11.489143 1374.500000,11.493913 
	C1368.166626,11.509931 1361.833130,11.533931 1355.500244,11.477114 
	C1353.832275,11.462149 1351.966064,11.598004 1350.531982,10.931189 
	C1339.797729,5.940193 1328.475708,9.653418 1317.500000,8.500000 
	C1309.651489,13.540468 1300.877319,10.903125 1292.497803,11.467825 
	C1287.667847,11.793319 1282.774780,11.918863 1278.515625,8.977457 
	C1277.193481,8.064470 1275.823608,8.555056 1274.499512,8.536592 
	C1268.500610,8.452950 1262.497559,8.604342 1256.500854,8.463349 
	C1252.497192,8.369217 1248.552979,8.471254 1245.025635,10.543717 
	C1243.223022,11.602923 1241.385986,11.489143 1239.500000,11.493914 
	C1233.166626,11.509932 1226.832764,11.544885 1220.500488,11.463497 
	C1219.176514,11.446481 1217.886475,11.689400 1216.473755,11.058741 
	C1205.811157,6.298636 1194.143311,7.309127 1183.608521,9.128414 
	C1174.655884,10.674481 1165.901123,11.107195 1156.999756,11.494148 
	C1152.636719,11.683815 1148.388672,11.507448 1144.448120,9.084440 
	C1143.285278,8.369413 1141.501221,8.537327 1139.999756,8.522869 
	C1134.166992,8.466705 1128.330811,8.605329 1122.500854,8.463622 
	C1118.497070,8.366304 1114.552856,8.471201 1111.025635,10.543717 
	C1109.223022,11.602923 1107.385986,11.489143 1105.500000,11.493913 
	C1099.166626,11.509932 1092.832764,11.544885 1086.500488,11.463497 
	C1085.176514,11.446482 1083.886475,11.689372 1082.473755,11.058713 
	C1071.811157,6.298608 1060.024536,7.035679 1049.632202,9.149856 
	C1039.095459,11.293401 1028.862915,10.819609 1018.497070,11.452515 
	C1017.197693,11.531855 1015.882202,11.718307 1014.474487,11.054087 
	C1003.831055,6.032107 992.484009,9.544333 981.500000,8.500000 
	C972.964050,13.676317 963.531372,10.801217 954.498047,11.474173 
	C950.462830,11.774787 946.502686,11.628057 942.943481,9.078884 
	C941.983337,8.391198 940.334412,8.533862 938.999817,8.522722 
	C932.833557,8.471255 926.664307,8.603331 920.500854,8.463099 
	C916.497192,8.372006 912.552917,8.471239 909.025696,10.543731 
	C907.223083,11.602912 905.385986,11.489143 903.500000,11.493914 
	C897.166687,11.509933 890.832764,11.544883 884.500488,11.463496 
	C883.176636,11.446482 881.886536,11.689344 880.473816,11.058685 
	C869.811096,6.298580 858.143250,7.309127 847.608521,9.128429 
	C838.655945,10.674481 829.901123,11.107199 820.999756,11.494152 
	C816.636719,11.683819 812.388611,11.507499 808.448059,9.084491 
	C807.285217,8.369492 805.501160,8.536130 803.999817,8.522833 
	C797.833618,8.468217 791.663757,8.615098 785.501099,8.456827 
	C781.805237,8.361909 778.198853,8.462559 775.023560,10.536080 
	C773.407837,11.591176 771.726746,11.492152 770.000000,11.495425 
	C763.833313,11.507115 757.666687,11.498584 751.500000,11.500546 
	C747.957275,11.501675 744.427795,11.799691 741.421753,9.086695 
	C740.604065,8.348700 738.834473,8.534354 737.499817,8.522747 
	C731.500244,8.470566 725.499939,8.484167 719.500000,8.505435 
	C715.335266,8.520198 711.111816,7.883896 707.421448,10.904023 
	C706.441406,11.706046 704.501221,11.462668 702.999756,11.477127 
	C697.166992,11.533294 691.332642,11.445551 685.500244,11.518687 
	C681.452393,11.569446 677.502625,11.628108 673.943481,9.078934 
	C672.983276,8.391273 671.334534,8.534885 669.999817,8.522774 
	C664.166931,8.469844 658.333252,8.484032 652.500000,8.505391 
	C648.335266,8.520641 644.111816,7.883897 640.421448,10.904024 
	C639.441406,11.706048 637.501221,11.462671 635.999756,11.477129 
	C630.166992,11.533296 624.332642,11.445551 618.500244,11.518688 
	C614.452393,11.569447 610.502625,11.628108 606.943420,9.078959 
	C605.983276,8.391273 604.334412,8.533857 602.999817,8.522718 
	C596.833557,8.471255 590.664307,8.603329 584.500854,8.463098 
	C580.497192,8.372006 576.552917,8.471239 573.025696,10.543731 
	C571.223083,11.602912 569.385986,11.489142 567.500000,11.493913 
	C561.166687,11.509932 554.832764,11.544883 548.500488,11.463497 
	C547.176636,11.446482 545.886475,11.689372 544.473816,11.058713 
	C533.811096,6.298622 522.024536,7.035657 511.632202,9.149826 
	C501.095490,11.293364 490.862640,10.814020 480.497742,11.464030 
	C479.014038,11.557076 477.152557,11.668486 476.060577,10.912487 
	C471.517639,7.767241 466.465729,8.521786 461.499969,8.509009 
	C450.333405,8.480279 439.166656,8.495694 428.000000,8.502167 
	C423.669830,8.504677 419.337799,8.071430 415.424042,10.894710 
	C414.248749,11.742539 412.167786,11.462741 410.499817,11.477132 
	C404.000275,11.533210 397.499329,11.445128 391.000305,11.525122 
	C388.119049,11.560585 385.315460,11.405716 383.021851,9.474049 
	C381.622498,8.295491 380.065887,8.507298 378.500000,8.505031 
	C370.833344,8.493932 363.166656,8.500000 355.500000,8.500000 
	C354.500000,8.500000 353.133179,8.072621 352.557373,8.566838 
	C347.414917,12.980548 341.268890,11.446446 335.500549,11.411283 
	C328.084534,11.366076 320.471527,12.873136 313.408630,8.652901 
	C311.689178,7.625498 308.833344,8.500000 306.500000,8.500000 
	C300.500000,8.500000 294.499969,8.492523 288.500000,8.505080 
	C286.934082,8.508358 285.493988,8.561748 283.956268,9.421837 
	C280.604736,11.296469 276.867767,11.689063 272.998199,11.550083 
	C267.505280,11.352799 261.999207,11.550691 256.500580,11.463280 
	C255.176010,11.442225 253.886475,11.689370 252.473785,11.058710 
	C241.811142,6.298618 230.143280,7.309124 219.608521,9.128417 
	C210.655914,10.674484 201.901123,11.107197 192.999741,11.494150 
	C188.636703,11.683817 184.388626,11.507485 180.448059,9.084479 
	C179.285217,8.369472 177.501251,8.537327 175.999786,8.522870 
	C170.166992,8.466706 164.330765,8.605328 158.500885,8.463621 
	C154.497070,8.366301 150.560593,8.483138 147.021423,10.536923 
	C145.069412,11.669690 143.047867,11.493322 141.000000,11.494015 
	C114.333336,11.503035 87.666664,11.500000 61.000000,11.500000 
"/>
<path fill="none" opacity="1.000000" stroke="#000000" stroke-linecap="round" stroke-linejoin="round" stroke-width="9.000000"
	d="
M61.500000,830.000000 
	C676.166687,830.000000 1290.833374,830.000000 1905.500000,830.000000 
"/>
<path fill="none" opacity="1.000000" stroke="#000000" stroke-linecap="round" stroke-linejoin="round" stroke-width="8.000000"
	d="
M58.000000,40.000000 
	C42.166668,40.000000 26.333326,39.991596 10.500004,40.004326 
	C4.538257,40.009117 4.501034,40.061691 4.501006,46.000000 
	C4.499833,294.333344 4.499854,542.666687 4.500968,791.000000 
	C4.500994,796.716614 6.894652,798.840454 13.434715,796.791626 
	C18.878332,795.086304 24.154970,795.794800 29.502186,795.547180 
	C34.325176,795.323853 39.186211,795.771301 43.994598,795.424988 
	C48.975891,795.066284 53.504154,798.070923 58.500000,797.000000 
"/>
<path fill="none" opacity="1.000000" stroke="#000000" stroke-linecap="round" stroke-linejoin="round" stroke-width="8.000000"
	d="
M1908.500000,4.000000 
	C1909.946411,2.081305 1912.040527,2.506157 1914.000000,2.505002 
	C1929.333374,2.495969 1944.666626,2.492504 1960.000000,2.503993 
	C1965.500000,2.508114 1965.500000,2.529011 1965.500000,8.000000 
	C1965.500000,283.833344 1965.500000,559.666687 1965.500000,835.500000 
	C1946.500000,835.500000 1927.500000,835.500000 1908.861084,835.500000 
	C1905.727051,832.055115 1907.290405,828.262329 1907.422363,824.497253 
	C1907.684814,817.006470 1907.526001,809.499878 1907.492065,802.000061 
	C1907.462646,795.486206 1907.580322,788.985291 1906.623047,782.481873 
	C1906.247314,779.930969 1907.560303,777.268433 1907.559570,774.500000 
	C1907.495117,531.833313 1907.500000,289.166656 1907.500000,46.500000 
	C1907.500000,37.166668 1907.666870,27.829096 1907.429810,18.501781 
	C1907.310913,13.824884 1906.978394,9.166667 1907.500000,4.500000 
"/>
<path fill="none" opacity="1.000000" stroke="#000000" stroke-linecap="round" stroke-linejoin="round" stroke-width="6.000000"
	d="
M445.500000,32.500000 
	C445.500000,282.000000 445.500000,531.500000 445.500000,781.000000 
"/>
<path fill="none" opacity="1.000000" stroke="#000000" stroke-linecap="round" stroke-linejoin="round" stroke-width="7.000000"
	d="
M1451.000000,33.000000 
	C1451.000000,282.333344 1451.000000,531.666687 1451.000000,781.000000 
"/>
<path fill="none" opacity="1.000000" stroke="#000000" stroke-linecap="round" stroke-linejoin="round" stroke-width="7.000000"
	d="
M1026.000000,33.000000 
	C1026.000000,282.333344 1026.000000,531.666687 1026.000000,781.000000 
"/>
<path fill="none" opacity="1.000000" stroke="#000000" stroke-linecap="round" stroke-linejoin="round" stroke-width="7.000000"
	d="
M1049.000000,33.000000 
	C1049.000000,282.333344 1049.000000,531.666687 1049.000000,781.000000 
"/>
<path fill="none" opacity="1.000000" stroke="#000000" stroke-linecap="round" stroke-linejoin="round" stroke-width="7.000000"
	d="
M1071.000000,33.000000 
	C1071.000000,282.333344 1071.000000,531.666687 1071.000000,781.000000 
"/>
<path fill="none" opacity="1.000000" stroke="#000000" stroke-linecap="round" stroke-linejoin="round" stroke-width="7.000000"
	d="
M1183.000000,33.000000 
	C1183.000000,282.333344 1183.000000,531.666687 1183.000000,781.000000 
"/>
<path fill="none" opacity="1.000000" stroke="#000000" stroke-linecap="round" stroke-linejoin="round" stroke-width="7.000000"
	d="
M1228.000000,33.000000 
	C1228.000000,282.333344 1228.000000,531.666687 1228.000000,781.000000 
"/>
<path fill="none" opacity="1.000000" stroke="#000000" stroke-linecap="round" stroke-linejoin="round" stroke-width="7.000000"
	d="
M1272.000000,33.000000 
	C1272.000000,282.333344 1272.000000,531.666687 1272.000000,781.000000 
"/>
<path fill="none" opacity="1.000000" stroke="#000000" stroke-linecap="round" stroke-linejoin="round" stroke-width="7.000000"
	d="
M1317.000000,33.000000 
	C1317.000000,282.333344 1317.000000,531.666687 1317.000000,781.000000 
"/>
<path fill="none" opacity="1.000000" stroke="#000000" stroke-linecap="round" stroke-linejoin="round" stroke-width="7.000000"
	d="
M1362.000000,33.000000 
	C1362.000000,282.333344 1362.000000,531.666687 1362.000000,781.000000 
"/>
<path fill="none" opacity="1.000000" stroke="#000000" stroke-linecap="round" stroke-linejoin="round" stroke-width="7.000000"
	d="
M1407.000000,33.000000 
	C1407.000000,282.333344 1407.000000,531.666687 1407.000000,781.000000 
"/>
<path fill="none" opacity="1.000000" stroke="#000000" stroke-linecap="round" stroke-linejoin="round" stroke-width="7.000000"
	d="
M80.000000,33.000000 
	C80.000000,282.333344 80.000000,531.666687 80.000000,781.000000 
"/>
<path fill="none" opacity="1.000000" stroke="#000000" stroke-linecap="round" stroke-linejoin="round" stroke-width="7.000000"
	d="
M1473.000000,33.000000 
	C1473.000000,282.333344 1473.000000,531.666687 1473.000000,781.000000 
"/>
<path fill="none" opacity="1.000000" stroke="#000000" stroke-linecap="round" stroke-linejoin="round" stroke-width="7.000000"
	d="
M1496.000000,33.000000 
	C1496.000000,282.333344 1496.000000,531.666687 1496.000000,781.000000 
"/>
<path fill="none" opacity="1.000000" stroke="#000000" stroke-linecap="round" stroke-linejoin="round" stroke-width="7.000000"
	d="
M1809.000000,33.000000 
	C1809.000000,282.333344 1809.000000,531.666687 1809.000000,781.000000 
"/>
<path fill="none" opacity="1.000000" stroke="#000000" stroke-linecap="round" stroke-linejoin="round" stroke-width="7.000000"
	d="
M1518.000000,33.000000 
	C1518.000000,282.333344 1518.000000,531.666687 1518.000000,781.000000 
"/>
<path fill="none" opacity="1.000000" stroke="#000000" stroke-linecap="round" stroke-linejoin="round" stroke-width="7.000000"
	d="
M1562.000000,33.000000 
	C1562.000000,282.333344 1562.000000,531.666687 1562.000000,781.000000 
"/>
<path fill="none" opacity="1.000000" stroke="#000000" stroke-linecap="round" stroke-linejoin="round" stroke-width="7.000000"
	d="
M1630.000000,33.000000 
	C1630.000000,282.333344 1630.000000,531.666687 1630.000000,781.000000 
"/>
<path fill="none" opacity="1.000000" stroke="#000000" stroke-linecap="round" stroke-linejoin="round" stroke-width="7.000000"
	d="
M1652.000000,33.000000 
	C1652.000000,282.333344 1652.000000,531.666687 1652.000000,781.000000 
"/>
<path fill="none" opacity="1.000000" stroke="#000000" stroke-linecap="round" stroke-linejoin="round" stroke-width="7.000000"
	d="
M1675.000000,33.000000 
	C1675.000000,282.333344 1675.000000,531.666687 1675.000000,781.000000 
"/>
<path fill="none" opacity="1.000000" stroke="#000000" stroke-linecap="round" stroke-linejoin="round" stroke-width="7.000000"
	d="
M1697.000000,33.000000 
	C1697.000000,282.333344 1697.000000,531.666687 1697.000000,781.000000 
"/>
<path fill="none" opacity="1.000000" stroke="#000000" stroke-linecap="round" stroke-linejoin="round" stroke-width="7.000000"
	d="
M557.000000,33.000000 
	C557.000000,282.333344 557.000000,531.666687 557.000000,781.000000 
"/>
<path fill="none" opacity="1.000000" stroke="#000000" stroke-linecap="round" stroke-linejoin="round" stroke-width="7.000000"
	d="
M113.000000,33.000000 
	C113.000000,282.333344 113.000000,531.666687 113.000000,781.000000 
"/>
<path fill="none" opacity="1.000000" stroke="#000000" stroke-linecap="round" stroke-linejoin="round" stroke-width="7.000000"
	d="
M158.000000,33.000000 
	C158.000000,282.333344 158.000000,531.666687 158.000000,781.000000 
"/>
<path fill="none" opacity="1.000000" stroke="#000000" stroke-linecap="round" stroke-linejoin="round" stroke-width="7.000000"
	d="
M270.000000,33.000000 
	C270.000000,282.333344 270.000000,531.666687 270.000000,781.000000 
"/>
<path fill="none" opacity="1.000000" stroke="#000000" stroke-linecap="round" stroke-linejoin="round" stroke-width="7.000000"
	d="
M292.000000,33.000000 
	C292.000000,282.333344 292.000000,531.666687 292.000000,781.000000 
"/>
<path fill="none" opacity="1.000000" stroke="#000000" stroke-linecap="round" stroke-linejoin="round" stroke-width="7.000000"
	d="
M315.000000,33.000000 
	C315.000000,282.333344 315.000000,531.666687 315.000000,781.000000 
"/>
<path fill="none" opacity="1.000000" stroke="#000000" stroke-linecap="round" stroke-linejoin="round" stroke-width="7.000000"
	d="
M337.000000,33.000000 
	C337.000000,282.333344 337.000000,531.666687 337.000000,781.000000 
"/>
<path fill="none" opacity="1.000000" stroke="#000000" stroke-linecap="round" stroke-linejoin="round" stroke-width="7.000000"
	d="
M405.000000,33.000000 
	C405.000000,282.333344 405.000000,531.666687 405.000000,781.000000 
"/>
<path fill="none" opacity="1.000000" stroke="#000000" stroke-linecap="round" stroke-linejoin="round" stroke-width="7.000000"
	d="
M489.000000,33.000000 
	C489.000000,282.333344 489.000000,531.666687 489.000000,781.000000 
"/>
<path fill="none" opacity="1.000000" stroke="#000000" stroke-linecap="round" stroke-linejoin="round" stroke-width="7.000000"
	d="
M534.000000,33.000000 
	C534.000000,282.333344 534.000000,531.666687 534.000000,781.000000 
"/>
<path fill="none" opacity="1.000000" stroke="#000000" stroke-linecap="round" stroke-linejoin="round" stroke-width="7.000000"
	d="
M1004.000000,33.000000 
	C1004.000000,282.333344 1004.000000,531.666687 1004.000000,781.000000 
"/>
<path fill="none" opacity="1.000000" stroke="#000000" stroke-linecap="round" stroke-linejoin="round" stroke-width="7.000000"
	d="
M579.000000,33.000000 
	C579.000000,282.333344 579.000000,531.666687 579.000000,781.000000 
"/>
<path fill="none" opacity="1.000000" stroke="#000000" stroke-linecap="round" stroke-linejoin="round" stroke-width="7.000000"
	d="
M602.000000,33.000000 
	C602.000000,282.333344 602.000000,531.666687 602.000000,781.000000 
"/>
<path fill="none" opacity="1.000000" stroke="#000000" stroke-linecap="round" stroke-linejoin="round" stroke-width="7.000000"
	d="
M624.000000,33.000000 
	C624.000000,282.333344 624.000000,531.666687 624.000000,781.000000 
"/>
<path fill="none" opacity="1.000000" stroke="#000000" stroke-linecap="round" stroke-linejoin="round" stroke-width="7.000000"
	d="
M736.000000,33.000000 
	C736.000000,282.333344 736.000000,531.666687 736.000000,781.000000 
"/>
<path fill="none" opacity="1.000000" stroke="#000000" stroke-linecap="round" stroke-linejoin="round" stroke-width="7.000000"
	d="
M781.000000,33.000000 
	C781.000000,282.333344 781.000000,531.666687 781.000000,781.000000 
"/>
<path fill="none" opacity="1.000000" stroke="#000000" stroke-linecap="round" stroke-linejoin="round" stroke-width="7.000000"
	d="
M825.000000,33.000000 
	C825.000000,282.333344 825.000000,531.666687 825.000000,781.000000 
"/>
<path fill="none" opacity="1.000000" stroke="#000000" stroke-linecap="round" stroke-linejoin="round" stroke-width="7.000000"
	d="
M847.000000,33.000000 
	C847.000000,282.333344 847.000000,531.666687 847.000000,781.000000 
"/>
<path fill="none" opacity="1.000000" stroke="#000000" stroke-linecap="round" stroke-linejoin="round" stroke-width="7.000000"
	d="
M870.000000,33.000000 
	C870.000000,282.333344 870.000000,531.666687 870.000000,781.000000 
"/>
<path fill="none" opacity="1.000000" stroke="#000000" stroke-linecap="round" stroke-linejoin="round" stroke-width="7.000000"
	d="
M892.000000,33.000000 
	C892.000000,282.333344 892.000000,531.666687 892.000000,781.000000 
"/>
<path fill="none" opacity="1.000000" stroke="#000000" stroke-linecap="round" stroke-linejoin="round" stroke-width="7.000000"
	d="
M1887.000000,33.000000 
	C1887.000000,282.333344 1887.000000,531.666687 1887.000000,781.000000 
"/>
<path fill="none" opacity="1.000000" stroke="#000000" stroke-linecap="round" stroke-linejoin="round" stroke-width="7.000000"
	d="
M1854.000000,33.000000 
	C1854.000000,282.333344 1854.000000,531.666687 1854.000000,781.000000 
"/>
<path fill="none" opacity="1.000000" stroke="#000000" stroke-linecap="round" stroke-linejoin="round" stroke-width="8.000000"
	d="
M1093.500000,33.000000 
	C1093.500000,282.166656 1093.500000,531.333313 1093.500000,780.500000 
"/>
<path fill="none" opacity="1.000000" stroke="#000000" stroke-linecap="round" stroke-linejoin="round" stroke-width="8.000000"
	d="
M180.500000,33.000000 
	C180.500000,282.166656 180.500000,531.333313 180.500000,780.500000 
"/>
<path fill="none" opacity="1.000000" stroke="#000000" stroke-linecap="round" stroke-linejoin="round" stroke-width="8.000000"
	d="
M1115.500000,33.000000 
	C1115.500000,282.166656 1115.500000,531.333313 1115.500000,780.500000 
"/>
<path fill="none" opacity="1.000000" stroke="#000000" stroke-linecap="round" stroke-linejoin="round" stroke-width="8.000000"
	d="
M1138.500000,33.000000 
	C1138.500000,282.166656 1138.500000,531.333313 1138.500000,780.500000 
"/>
<path fill="none" opacity="1.000000" stroke="#000000" stroke-linecap="round" stroke-linejoin="round" stroke-width="8.000000"
	d="
M1160.500000,33.000000 
	C1160.500000,282.166656 1160.500000,531.333313 1160.500000,780.500000 
"/>
<path fill="none" opacity="1.000000" stroke="#000000" stroke-linecap="round" stroke-linejoin="round" stroke-width="8.000000"
	d="
M1204.500000,33.000000 
	C1204.500000,282.166656 1204.500000,531.333313 1204.500000,780.500000 
"/>
<path fill="none" opacity="1.000000" stroke="#000000" stroke-linecap="round" stroke-linejoin="round" stroke-width="8.000000"
	d="
M1249.500000,33.000000 
	C1249.500000,282.166656 1249.500000,531.333313 1249.500000,780.500000 
"/>
<path fill="none" opacity="1.000000" stroke="#000000" stroke-linecap="round" stroke-linejoin="round" stroke-width="8.000000"
	d="
M1294.500000,33.000000 
	C1294.500000,282.166656 1294.500000,531.333313 1294.500000,780.500000 
"/>
<path fill="none" opacity="1.000000" stroke="#000000" stroke-linecap="round" stroke-linejoin="round" stroke-width="8.000000"
	d="
M1339.500000,33.000000 
	C1339.500000,282.166656 1339.500000,531.333313 1339.500000,780.500000 
"/>
<path fill="none" opacity="1.000000" stroke="#000000" stroke-linecap="round" stroke-linejoin="round" stroke-width="8.000000"
	d="
M1383.500000,33.000000 
	C1383.500000,282.166656 1383.500000,531.333313 1383.500000,780.500000 
"/>
<path fill="none" opacity="1.000000" stroke="#000000" stroke-linecap="round" stroke-linejoin="round" stroke-width="8.000000"
	d="
M1428.500000,33.000000 
	C1428.500000,282.166656 1428.500000,531.333313 1428.500000,780.500000 
"/>
<path fill="none" opacity="1.000000" stroke="#000000" stroke-linecap="round" stroke-linejoin="round" stroke-width="8.000000"
	d="
M1540.500000,33.000000 
	C1540.500000,282.166656 1540.500000,531.333313 1540.500000,780.500000 
"/>
<path fill="none" opacity="1.000000" stroke="#000000" stroke-linecap="round" stroke-linejoin="round" stroke-width="8.000000"
	d="
M1585.500000,33.000000 
	C1585.500000,282.166656 1585.500000,531.333313 1585.500000,780.500000 
"/>
<path fill="none" opacity="1.000000" stroke="#000000" stroke-linecap="round" stroke-linejoin="round" stroke-width="8.000000"
	d="
M1607.500000,33.000000 
	C1607.500000,282.166656 1607.500000,531.333313 1607.500000,780.500000 
"/>
<path fill="none" opacity="1.000000" stroke="#000000" stroke-linecap="round" stroke-linejoin="round" stroke-width="8.000000"
	d="
M1719.500000,33.000000 
	C1719.500000,282.166656 1719.500000,531.333313 1719.500000,780.500000 
"/>
<path fill="none" opacity="1.000000" stroke="#000000" stroke-linecap="round" stroke-linejoin="round" stroke-width="8.000000"
	d="
M1741.500000,33.000000 
	C1741.500000,282.166656 1741.500000,531.333313 1741.500000,780.500000 
"/>
<path fill="none" opacity="1.000000" stroke="#000000" stroke-linecap="round" stroke-linejoin="round" stroke-width="8.000000"
	d="
M1764.500000,33.000000 
	C1764.500000,282.166656 1764.500000,531.333313 1764.500000,780.500000 
"/>
<path fill="none" opacity="1.000000" stroke="#000000" stroke-linecap="round" stroke-linejoin="round" stroke-width="8.000000"
	d="
M1786.500000,33.000000 
	C1786.500000,282.166656 1786.500000,531.333313 1786.500000,780.500000 
"/>
<path fill="none" opacity="1.000000" stroke="#000000" stroke-linecap="round" stroke-linejoin="round" stroke-width="8.000000"
	d="
M1830.500000,33.000000 
	C1830.500000,282.166656 1830.500000,531.333313 1830.500000,780.500000 
"/>
<path fill="none" opacity="1.000000" stroke="#000000" stroke-linecap="round" stroke-linejoin="round" stroke-width="8.000000"
	d="
M1875.500000,33.000000 
	C1875.500000,282.166656 1875.500000,531.333313 1875.500000,780.500000 
"/>
<path fill="none" opacity="1.000000" stroke="#000000" stroke-linecap="round" stroke-linejoin="round" stroke-width="8.000000"
	d="
M512.500000,33.000000 
	C512.500000,282.166656 512.500000,531.333313 512.500000,780.500000 
"/>
<path fill="none" opacity="1.000000" stroke="#000000" stroke-linecap="round" stroke-linejoin="round" stroke-width="8.000000"
	d="
M91.500000,33.000000 
	C91.500000,282.166656 91.500000,531.333313 91.500000,780.500000 
"/>
<path fill="none" opacity="1.000000" stroke="#000000" stroke-linecap="round" stroke-linejoin="round" stroke-width="8.000000"
	d="
M136.500000,33.000000 
	C136.500000,282.166656 136.500000,531.333313 136.500000,780.500000 
"/>
<path fill="none" opacity="1.000000" stroke="#000000" stroke-linecap="round" stroke-linejoin="round" stroke-width="8.000000"
	d="
M202.500000,33.000000 
	C202.500000,282.166656 202.500000,531.333313 202.500000,780.500000 
"/>
<path fill="none" opacity="1.000000" stroke="#000000" stroke-linecap="round" stroke-linejoin="round" stroke-width="8.000000"
	d="
M225.500000,33.000000 
	C225.500000,282.166656 225.500000,531.333313 225.500000,780.500000 
"/>
<path fill="none" opacity="1.000000" stroke="#000000" stroke-linecap="round" stroke-linejoin="round" stroke-width="8.000000"
	d="
M247.500000,33.000000 
	C247.500000,282.166656 247.500000,531.333313 247.500000,780.500000 
"/>
<path fill="none" opacity="1.000000" stroke="#000000" stroke-linecap="round" stroke-linejoin="round" stroke-width="8.000000"
	d="
M359.500000,33.000000 
	C359.500000,282.166656 359.500000,531.333313 359.500000,780.500000 
"/>
<path fill="none" opacity="1.000000" stroke="#000000" stroke-linecap="round" stroke-linejoin="round" stroke-width="8.000000"
	d="
M381.500000,33.000000 
	C381.500000,282.166656 381.500000,531.333313 381.500000,780.500000 
"/>
<path fill="none" opacity="1.000000" stroke="#000000" stroke-linecap="round" stroke-linejoin="round" stroke-width="8.000000"
	d="
M426.500000,33.000000 
	C426.500000,282.166656 426.500000,531.333313 426.500000,780.500000 
"/>
<path fill="none" opacity="1.000000" stroke="#000000" stroke-linecap="round" stroke-linejoin="round" stroke-width="8.000000"
	d="
M467.500000,33.000000 
	C467.500000,282.166656 467.500000,531.333313 467.500000,780.500000 
"/>
<path fill="none" opacity="1.000000" stroke="#000000" stroke-linecap="round" stroke-linejoin="round" stroke-width="8.000000"
	d="
M981.500000,33.000000 
	C981.500000,282.166656 981.500000,531.333313 981.500000,780.500000 
"/>
<path fill="none" opacity="1.000000" stroke="#000000" stroke-linecap="round" stroke-linejoin="round" stroke-width="8.000000"
	d="
M646.500000,33.000000 
	C646.500000,282.166656 646.500000,531.333313 646.500000,780.500000 
"/>
<path fill="none" opacity="1.000000" stroke="#000000" stroke-linecap="round" stroke-linejoin="round" stroke-width="8.000000"
	d="
M668.500000,33.000000 
	C668.500000,282.166656 668.500000,531.333313 668.500000,780.500000 
"/>
<path fill="none" opacity="1.000000" stroke="#000000" stroke-linecap="round" stroke-linejoin="round" stroke-width="8.000000"
	d="
M691.500000,33.000000 
	C691.500000,282.166656 691.500000,531.333313 691.500000,780.500000 
"/>
<path fill="none" opacity="1.000000" stroke="#000000" stroke-linecap="round" stroke-linejoin="round" stroke-width="8.000000"
	d="
M713.500000,33.000000 
	C713.500000,282.166656 713.500000,531.333313 713.500000,780.500000 
"/>
<path fill="none" opacity="1.000000" stroke="#000000" stroke-linecap="round" stroke-linejoin="round" stroke-width="8.000000"
	d="
M757.500000,33.000000 
	C757.500000,282.166656 757.500000,531.333313 757.500000,780.500000 
"/>
<path fill="none" opacity="1.000000" stroke="#000000" stroke-linecap="round" stroke-linejoin="round" stroke-width="8.000000"
	d="
M802.500000,33.000000 
	C802.500000,282.166656 802.500000,531.333313 802.500000,780.500000 
"/>
<path fill="none" opacity="1.000000" stroke="#000000" stroke-linecap="round" stroke-linejoin="round" stroke-width="8.000000"
	d="
M914.500000,33.000000 
	C914.500000,282.166656 914.500000,531.333313 914.500000,780.500000 
"/>
<path fill="none" opacity="1.000000" stroke="#000000" stroke-linecap="round" stroke-linejoin="round" stroke-width="8.000000"
	d="
M936.500000,33.000000 
	C936.500000,282.166656 936.500000,531.333313 936.500000,780.500000 
"/>
<path fill="none" opacity="1.000000" stroke="#000000" stroke-linecap="round" stroke-linejoin="round" stroke-width="8.000000"
	d="
M959.500000,33.000000 
	C959.500000,282.166656 959.500000,531.333313 959.500000,780.500000 
"/>
<path fill="none" opacity="1.000000" stroke="#000000" stroke-linecap="round" stroke-linejoin="round" stroke-width="8.000000"
	d="
M59.500000,4.500000 
	C60.978355,13.457592 59.096378,22.459929 60.004810,31.549490 
	C60.515491,36.659241 59.510288,42.484642 59.510025,48.000000 
	C59.498402,290.166656 59.463470,532.333374 59.715137,774.499756 
	C59.721298,780.424805 60.289692,786.726746 60.011417,792.476379 
	C59.502121,802.999329 59.998985,813.504211 59.549316,824.002136 
	C59.383923,827.863525 61.638378,831.910583 58.035206,835.500000 
	C41.500000,835.500000 24.499310,835.419922 7.500574,835.566528 
	C4.039454,835.596313 2.535849,834.196045 2.519387,830.999878 
	C2.467026,820.833496 2.505401,810.666687 2.493188,800.500000 
	C2.491655,799.224243 3.122398,798.311218 4.000000,797.500000 
"/>
<path fill="none" opacity="1.000000" stroke="#000000" stroke-linecap="round" stroke-linejoin="round" stroke-width="4.000000"
	d="
M58.500000,4.000000 
	C57.348377,2.454871 55.696564,2.486256 53.999985,2.488263 
	C37.500008,2.507782 20.999996,2.496937 4.500015,2.514334 
	C3.988838,2.514873 3.477884,2.727484 2.500000,2.945123 
	C2.500000,14.328431 2.468360,25.664484 2.564667,36.999451 
	C2.571783,37.836971 3.500000,38.666668 4.000000,39.500000 
"/>
<path fill="none" opacity="1.000000" stroke="#000000" stroke-linecap="round" stroke-linejoin="round" stroke-width="4.000000"
	d="
M1965.000000,794.500000 
	C1960.307861,796.880737 1955.623413,798.662598 1950.456665,795.572449 
	C1949.597412,795.058472 1948.166626,795.500000 1947.000000,795.500000 
	C1938.333374,795.500000 1929.665771,795.569214 1921.000366,795.469666 
	C1916.907837,795.422668 1913.181885,797.955017 1909.000000,797.000000 
"/>
<path fill="none" opacity="1.000000" stroke="#000000" stroke-linecap="round" stroke-linejoin="round" stroke-width="7.000000"
	d="
M1909.000000,40.000000 
	C1923.833374,40.000000 1938.667725,40.101109 1953.499268,39.934631 
	C1957.621826,39.888355 1961.463745,40.299946 1965.000000,42.500000 
"/>
<path fill="none" opacity="1.000000" stroke="#000000" stroke-linecap="round" stroke-linejoin="round" stroke-width="8.000000"
	d="
M1906.000000,31.500000 
	C1291.000000,31.500000 676.000000,31.500000 61.000000,31.500000 
"/>
<path fill="none" opacity="1.000000" stroke="#000000" stroke-linecap="round" stroke-linejoin="round" stroke-width="9.000000"
	d="
M1905.500000,782.000000 
	C1290.833374,782.000000 676.166687,782.000000 61.500000,782.000000 
"/>
</svg>