<svg version="1.1" id="Layer_1" xmlns="http://www.w3.org/2000/svg" xmlns:xlink="http://www.w3.org/1999/xlink" x="0px" y="0px"
	 width="100%" viewBox="0 0 983 835" enable-background="new 0 0 983 835" xml:space="preserve">
<path fill="none" opacity="1.000000" stroke="#000000" stroke-linecap="round" stroke-linejoin="round" stroke-width="8.000000"
	d="
M924.000000,792.500000 
	C636.333313,792.500000 348.666656,792.500000 61.000000,792.500000 
"/>
<path fill="none" opacity="1.000000" stroke="#000000" stroke-linecap="round" stroke-linejoin="round" stroke-width="8.000000"
	d="
M924.000000,11.500000 
	C897.333313,11.500000 870.666687,11.513095 844.000061,11.465172 
	C842.511292,11.462497 841.052551,11.761910 839.474487,11.057096 
	C828.812683,6.295104 817.143250,7.309127 806.608521,9.128414 
	C797.655945,10.674481 788.901123,11.107199 779.999756,11.494156 
	C775.636719,11.683819 771.354614,11.567513 767.476196,9.036477 
	C765.847595,7.973688 763.839233,8.528806 761.999878,8.514922 
	C756.500183,8.473408 750.997192,8.607196 745.500916,8.464231 
	C741.496948,8.360084 737.558716,8.479824 734.018616,10.532097 
	C731.423767,12.036388 728.682983,11.422618 725.999451,11.469731 
	C720.334534,11.569187 714.666321,11.534099 709.000244,11.477110 
	C707.498718,11.462008 705.822937,11.545498 704.527893,10.940308 
	C693.803162,5.928308 682.475769,9.653418 671.500000,8.500000 
	C661.443176,14.153579 650.495300,10.450813 639.996887,11.467571 
	C639.187744,11.545934 638.384338,11.498096 637.468933,11.065786 
	C626.827332,6.040022 615.484009,9.544333 604.500000,8.500000 
	C595.964050,13.676317 586.531372,10.801229 577.498047,11.474188 
	C573.462830,11.774802 569.502686,11.628083 565.943481,9.078934 
	C564.983337,8.391247 563.334412,8.533856 561.999817,8.522717 
	C555.833557,8.471255 549.664307,8.603330 543.500854,8.463099 
	C539.497192,8.372007 535.558716,8.479824 532.018616,10.532097 
	C529.423767,12.036388 526.683044,11.420751 523.999451,11.469827 
	C518.501282,11.570377 512.999207,11.550691 507.500580,11.463280 
	C506.175995,11.442224 504.886505,11.689363 503.473785,11.058689 
	C492.811157,6.298597 481.143311,7.309118 470.608521,9.128413 
	C461.655914,10.674471 452.901093,11.107197 443.999756,11.494152 
	C439.636719,11.683817 435.354614,11.567553 431.476166,9.036535 
	C429.847565,7.973722 427.839233,8.528805 425.999878,8.514922 
	C420.500214,8.473408 414.997223,8.607197 409.500916,8.464232 
	C405.496979,8.360085 401.556549,8.476461 398.020081,10.534480 
	C395.584015,11.952109 393.022766,11.442502 390.499695,11.476252 
	C384.834045,11.552036 379.165955,11.446915 373.500275,11.521424 
	C370.470703,11.561266 367.465942,11.569757 365.019928,9.476713 
	C363.628784,8.286331 362.065887,8.507380 360.500000,8.505036 
	C353.000000,8.493814 345.500000,8.500000 338.000000,8.500000 
	C337.166656,8.500000 336.128113,8.173755 335.531036,8.549347 
	C327.635986,13.515797 318.877319,10.903134 310.497833,11.467833 
	C305.667816,11.793328 301.052948,11.342731 296.418884,9.173239 
	C292.824829,7.490631 288.178375,7.505823 284.582916,9.178266 
	C280.269318,11.184755 276.019257,11.573909 271.499817,11.514913 
	C266.500671,11.449653 261.498993,11.554892 256.500671,11.463164 
	C255.175552,11.438845 253.886475,11.689370 252.473785,11.058710 
	C241.811142,6.298618 230.143280,7.309124 219.608521,9.128417 
	C210.655914,10.674484 201.901123,11.107197 192.999741,11.494150 
	C188.636703,11.683817 184.354584,11.567554 180.476166,9.036528 
	C178.847549,7.973714 176.839233,8.528806 174.999893,8.514922 
	C169.500198,8.473408 163.997208,8.607197 158.500931,8.464232 
	C154.496964,8.360085 150.560593,8.483138 147.021423,10.536923 
	C145.069412,11.669690 143.047867,11.493322 141.000000,11.494015 
	C114.333336,11.503035 87.666664,11.500000 61.000000,11.500000 
"/>
<path fill="none" opacity="1.000000" stroke="#000000" stroke-linecap="round" stroke-linejoin="round" stroke-width="9.000000"
	d="
M61.500000,830.000000 
	C348.833344,830.000000 636.166687,830.000000 923.500000,830.000000 
"/>
<path fill="none" opacity="1.000000" stroke="#000000" stroke-linecap="round" stroke-linejoin="round" stroke-width="8.000000"
	d="
M58.000000,40.000000 
	C42.166668,40.000000 26.333326,39.991596 10.500004,40.004326 
	C4.538257,40.009117 4.501034,40.061691 4.501006,46.000000 
	C4.499833,294.333344 4.499854,542.666687 4.500968,791.000000 
	C4.500994,796.716614 6.894652,798.840454 13.434715,796.791626 
	C18.878332,795.086304 24.154970,795.794800 29.502186,795.547180 
	C34.325176,795.323853 39.186211,795.771301 43.994598,795.424988 
	C48.975891,795.066284 53.504154,798.070923 58.500000,797.000000 
"/>
<path fill="none" opacity="1.000000" stroke="#000000" stroke-linecap="round" stroke-linejoin="round" stroke-width="8.000000"
	d="
M926.500000,4.000000 
	C927.946411,2.081305 930.040588,2.506157 932.000000,2.505002 
	C947.333313,2.495969 962.666687,2.492504 978.000000,2.503993 
	C983.500000,2.508114 983.500000,2.529011 983.500000,8.000000 
	C983.500000,283.833344 983.500000,559.666687 983.500000,835.500000 
	C964.500000,835.500000 945.500000,835.500000 926.861084,835.500000 
	C923.727112,832.055115 925.290283,828.262329 925.422241,824.497253 
	C925.684753,817.006470 925.526001,809.499878 925.492188,802.000061 
	C925.462769,795.486206 925.580322,788.985291 924.622925,782.481873 
	C924.247375,779.930969 925.560425,777.268433 925.559692,774.500000 
	C925.495239,531.833313 925.500000,289.166656 925.500000,46.500000 
	C925.500000,37.166668 925.666748,27.829098 925.429810,18.501783 
	C925.311035,13.824883 924.978394,9.166667 925.500000,4.500000 
"/>
<path fill="none" opacity="1.000000" stroke="#000000" stroke-linecap="round" stroke-linejoin="round" stroke-width="5.000000"
	d="
M291.000000,32.500000 
	C291.000000,282.000000 291.000000,531.500000 291.000000,781.000000 
"/>
<path fill="none" opacity="1.000000" stroke="#000000" stroke-linecap="round" stroke-linejoin="round" stroke-width="7.000000"
	d="
M872.000000,33.000000 
	C872.000000,282.333344 872.000000,531.666687 872.000000,781.000000 
"/>
<path fill="none" opacity="1.000000" stroke="#000000" stroke-linecap="round" stroke-linejoin="round" stroke-width="7.000000"
	d="
M80.000000,33.000000 
	C80.000000,282.333344 80.000000,531.666687 80.000000,781.000000 
"/>
<path fill="none" opacity="1.000000" stroke="#000000" stroke-linecap="round" stroke-linejoin="round" stroke-width="7.000000"
	d="
M827.000000,33.000000 
	C827.000000,282.333344 827.000000,531.666687 827.000000,781.000000 
"/>
<path fill="none" opacity="1.000000" stroke="#000000" stroke-linecap="round" stroke-linejoin="round" stroke-width="7.000000"
	d="
M715.000000,33.000000 
	C715.000000,282.333344 715.000000,531.666687 715.000000,781.000000 
"/>
<path fill="none" opacity="1.000000" stroke="#000000" stroke-linecap="round" stroke-linejoin="round" stroke-width="7.000000"
	d="
M693.000000,33.000000 
	C693.000000,282.333344 693.000000,531.666687 693.000000,781.000000 
"/>
<path fill="none" opacity="1.000000" stroke="#000000" stroke-linecap="round" stroke-linejoin="round" stroke-width="7.000000"
	d="
M670.000000,33.000000 
	C670.000000,282.333344 670.000000,531.666687 670.000000,781.000000 
"/>
<path fill="none" opacity="1.000000" stroke="#000000" stroke-linecap="round" stroke-linejoin="round" stroke-width="7.000000"
	d="
M648.000000,33.000000 
	C648.000000,282.333344 648.000000,531.666687 648.000000,781.000000 
"/>
<path fill="none" opacity="1.000000" stroke="#000000" stroke-linecap="round" stroke-linejoin="round" stroke-width="7.000000"
	d="
M580.000000,33.000000 
	C580.000000,282.333344 580.000000,531.666687 580.000000,781.000000 
"/>
<path fill="none" opacity="1.000000" stroke="#000000" stroke-linecap="round" stroke-linejoin="round" stroke-width="7.000000"
	d="
M536.000000,33.000000 
	C536.000000,282.333344 536.000000,531.666687 536.000000,781.000000 
"/>
<path fill="none" opacity="1.000000" stroke="#000000" stroke-linecap="round" stroke-linejoin="round" stroke-width="7.000000"
	d="
M514.000000,33.000000 
	C514.000000,282.333344 514.000000,531.666687 514.000000,781.000000 
"/>
<path fill="none" opacity="1.000000" stroke="#000000" stroke-linecap="round" stroke-linejoin="round" stroke-width="7.000000"
	d="
M491.000000,33.000000 
	C491.000000,282.333344 491.000000,531.666687 491.000000,781.000000 
"/>
<path fill="none" opacity="1.000000" stroke="#000000" stroke-linecap="round" stroke-linejoin="round" stroke-width="7.000000"
	d="
M469.000000,33.000000 
	C469.000000,282.333344 469.000000,531.666687 469.000000,781.000000 
"/>
<path fill="none" opacity="1.000000" stroke="#000000" stroke-linecap="round" stroke-linejoin="round" stroke-width="7.000000"
	d="
M425.000000,33.000000 
	C425.000000,282.333344 425.000000,531.666687 425.000000,781.000000 
"/>
<path fill="none" opacity="1.000000" stroke="#000000" stroke-linecap="round" stroke-linejoin="round" stroke-width="7.000000"
	d="
M380.000000,33.000000 
	C380.000000,282.333344 380.000000,531.666687 380.000000,781.000000 
"/>
<path fill="none" opacity="1.000000" stroke="#000000" stroke-linecap="round" stroke-linejoin="round" stroke-width="7.000000"
	d="
M335.000000,33.000000 
	C335.000000,282.333344 335.000000,531.666687 335.000000,781.000000 
"/>
<path fill="none" opacity="1.000000" stroke="#000000" stroke-linecap="round" stroke-linejoin="round" stroke-width="7.000000"
	d="
M270.000000,33.000000 
	C270.000000,282.333344 270.000000,531.666687 270.000000,781.000000 
"/>
<path fill="none" opacity="1.000000" stroke="#000000" stroke-linecap="round" stroke-linejoin="round" stroke-width="7.000000"
	d="
M158.000000,33.000000 
	C158.000000,282.333344 158.000000,531.666687 158.000000,781.000000 
"/>
<path fill="none" opacity="1.000000" stroke="#000000" stroke-linecap="round" stroke-linejoin="round" stroke-width="7.000000"
	d="
M113.000000,33.000000 
	C113.000000,282.333344 113.000000,531.666687 113.000000,781.000000 
"/>
<path fill="none" opacity="1.000000" stroke="#000000" stroke-linecap="round" stroke-linejoin="round" stroke-width="7.000000"
	d="
M905.000000,33.000000 
	C905.000000,282.333344 905.000000,531.666687 905.000000,781.000000 
"/>
<path fill="none" opacity="1.000000" stroke="#000000" stroke-linecap="round" stroke-linejoin="round" stroke-width="8.000000"
	d="
M558.500000,33.000000 
	C558.500000,282.166656 558.500000,531.333313 558.500000,780.500000 
"/>
<path fill="none" opacity="1.000000" stroke="#000000" stroke-linecap="round" stroke-linejoin="round" stroke-width="8.000000"
	d="
M202.500000,33.000000 
	C202.500000,282.166656 202.500000,531.333313 202.500000,780.500000 
"/>
<path fill="none" opacity="1.000000" stroke="#000000" stroke-linecap="round" stroke-linejoin="round" stroke-width="8.000000"
	d="
M893.500000,33.000000 
	C893.500000,282.166656 893.500000,531.333313 893.500000,780.500000 
"/>
<path fill="none" opacity="1.000000" stroke="#000000" stroke-linecap="round" stroke-linejoin="round" stroke-width="8.000000"
	d="
M848.500000,33.000000 
	C848.500000,282.166656 848.500000,531.333313 848.500000,780.500000 
"/>
<path fill="none" opacity="1.000000" stroke="#000000" stroke-linecap="round" stroke-linejoin="round" stroke-width="8.000000"
	d="
M804.500000,33.000000 
	C804.500000,282.166656 804.500000,531.333313 804.500000,780.500000 
"/>
<path fill="none" opacity="1.000000" stroke="#000000" stroke-linecap="round" stroke-linejoin="round" stroke-width="8.000000"
	d="
M782.500000,33.000000 
	C782.500000,282.166656 782.500000,531.333313 782.500000,780.500000 
"/>
<path fill="none" opacity="1.000000" stroke="#000000" stroke-linecap="round" stroke-linejoin="round" stroke-width="8.000000"
	d="
M759.500000,33.000000 
	C759.500000,282.166656 759.500000,531.333313 759.500000,780.500000 
"/>
<path fill="none" opacity="1.000000" stroke="#000000" stroke-linecap="round" stroke-linejoin="round" stroke-width="8.000000"
	d="
M737.500000,33.000000 
	C737.500000,282.166656 737.500000,531.333313 737.500000,780.500000 
"/>
<path fill="none" opacity="1.000000" stroke="#000000" stroke-linecap="round" stroke-linejoin="round" stroke-width="8.000000"
	d="
M625.500000,33.000000 
	C625.500000,282.166656 625.500000,531.333313 625.500000,780.500000 
"/>
<path fill="none" opacity="1.000000" stroke="#000000" stroke-linecap="round" stroke-linejoin="round" stroke-width="8.000000"
	d="
M603.500000,33.000000 
	C603.500000,282.166656 603.500000,531.333313 603.500000,780.500000 
"/>
<path fill="none" opacity="1.000000" stroke="#000000" stroke-linecap="round" stroke-linejoin="round" stroke-width="8.000000"
	d="
M446.500000,33.000000 
	C446.500000,282.166656 446.500000,531.333313 446.500000,780.500000 
"/>
<path fill="none" opacity="1.000000" stroke="#000000" stroke-linecap="round" stroke-linejoin="round" stroke-width="8.000000"
	d="
M401.500000,33.000000 
	C401.500000,282.166656 401.500000,531.333313 401.500000,780.500000 
"/>
<path fill="none" opacity="1.000000" stroke="#000000" stroke-linecap="round" stroke-linejoin="round" stroke-width="8.000000"
	d="
M357.500000,33.000000 
	C357.500000,282.166656 357.500000,531.333313 357.500000,780.500000 
"/>
<path fill="none" opacity="1.000000" stroke="#000000" stroke-linecap="round" stroke-linejoin="round" stroke-width="8.000000"
	d="
M312.500000,33.000000 
	C312.500000,282.166656 312.500000,531.333313 312.500000,780.500000 
"/>
<path fill="none" opacity="1.000000" stroke="#000000" stroke-linecap="round" stroke-linejoin="round" stroke-width="8.000000"
	d="
M247.500000,33.000000 
	C247.500000,282.166656 247.500000,531.333313 247.500000,780.500000 
"/>
<path fill="none" opacity="1.000000" stroke="#000000" stroke-linecap="round" stroke-linejoin="round" stroke-width="8.000000"
	d="
M225.500000,33.000000 
	C225.500000,282.166656 225.500000,531.333313 225.500000,780.500000 
"/>
<path fill="none" opacity="1.000000" stroke="#000000" stroke-linecap="round" stroke-linejoin="round" stroke-width="8.000000"
	d="
M180.500000,33.000000 
	C180.500000,282.166656 180.500000,531.333313 180.500000,780.500000 
"/>
<path fill="none" opacity="1.000000" stroke="#000000" stroke-linecap="round" stroke-linejoin="round" stroke-width="8.000000"
	d="
M136.500000,33.000000 
	C136.500000,282.166656 136.500000,531.333313 136.500000,780.500000 
"/>
<path fill="none" opacity="1.000000" stroke="#000000" stroke-linecap="round" stroke-linejoin="round" stroke-width="8.000000"
	d="
M91.500000,33.000000 
	C91.500000,282.166656 91.500000,531.333313 91.500000,780.500000 
"/>
<path fill="none" opacity="1.000000" stroke="#000000" stroke-linecap="round" stroke-linejoin="round" stroke-width="8.000000"
	d="
M59.500000,4.500000 
	C60.978355,13.457592 59.096378,22.459929 60.004810,31.549490 
	C60.515491,36.659241 59.510288,42.484642 59.510025,48.000000 
	C59.498402,290.166656 59.463470,532.333374 59.715137,774.499756 
	C59.721298,780.424805 60.289692,786.726746 60.011417,792.476379 
	C59.502121,802.999329 59.998985,813.504211 59.549316,824.002136 
	C59.383923,827.863525 61.638378,831.910583 58.035206,835.500000 
	C41.500000,835.500000 24.499310,835.419922 7.500574,835.566528 
	C4.039454,835.596313 2.535849,834.196045 2.519387,830.999878 
	C2.467026,820.833496 2.505401,810.666687 2.493188,800.500000 
	C2.491655,799.224243 3.122398,798.311218 4.000000,797.500000 
"/>
<path fill="none" opacity="1.000000" stroke="#000000" stroke-linecap="round" stroke-linejoin="round" stroke-width="4.000000"
	d="
M58.500000,4.000000 
	C57.348377,2.454871 55.696564,2.486256 53.999985,2.488263 
	C37.500008,2.507782 20.999996,2.496937 4.500015,2.514334 
	C3.988838,2.514873 3.477884,2.727484 2.500000,2.945123 
	C2.500000,14.328431 2.468360,25.664484 2.564667,36.999451 
	C2.571783,37.836971 3.500000,38.666668 4.000000,39.500000 
"/>
<path fill="none" opacity="1.000000" stroke="#000000" stroke-linecap="round" stroke-linejoin="round" stroke-width="7.000000"
	d="
M927.000000,40.000000 
	C941.833313,40.000000 956.667847,40.101112 971.499268,39.934631 
	C975.621948,39.888355 979.463806,40.299946 983.000000,42.500000 
"/>
<path fill="none" opacity="1.000000" stroke="#000000" stroke-linecap="round" stroke-linejoin="round" stroke-width="4.000000"
	d="
M983.000000,794.500000 
	C978.307861,796.880737 973.623413,798.662598 968.456726,795.572388 
	C967.597412,795.058411 966.166687,795.500000 965.000000,795.500000 
	C956.333313,795.500000 947.665894,795.569214 939.000366,795.469666 
	C934.907776,795.422668 931.181885,797.955017 927.000000,797.000000 
"/>
<path fill="none" opacity="1.000000" stroke="#000000" stroke-linecap="round" stroke-linejoin="round" stroke-width="8.000000"
	d="
M924.000000,31.500000 
	C636.333313,31.500000 348.666656,31.500000 61.000000,31.500000 
"/>
<path fill="none" opacity="1.000000" stroke="#000000" stroke-linecap="round" stroke-linejoin="round" stroke-width="9.000000"
	d="
M923.500000,782.000000 
	C636.166687,782.000000 348.833344,782.000000 61.500000,782.000000 
"/>
</svg>