<svg version="1.1" id="Layer_1" xmlns="http://www.w3.org/2000/svg" xmlns:xlink="http://www.w3.org/1999/xlink" x="0px" y="0px"
	 width="100%" viewBox="0 0 1965 835" enable-background="new 0 0 1965 835" xml:space="preserve">
<path fill="#020202" opacity="1.000000" stroke="none" 
	d="
M1961.253418,835.665771 
	C1940.312378,836.000000 1919.624878,836.000000 1898.468628,836.000000 
	C1896.903320,835.051147 1895.565308,835.022095 1894.223267,835.009155 
	C1892.223389,834.989929 1890.223389,834.997803 1888.223389,834.997803 
	C1283.066895,834.997437 677.910400,834.996643 72.753929,835.018860 
	C69.778404,835.018982 66.764977,834.591736 63.411919,835.723694 
	C43.342308,836.000000 23.684357,835.952698 4.027256,836.060486 
	C1.596213,836.073792 0.476231,835.600342 0.986365,833.026978 
	C1.081693,832.546082 1.000000,832.030090 1.000000,831.530334 
	C1.000000,556.156067 1.010704,280.781769 0.893490,5.407551 
	C0.891808,1.455812 2.003885,0.873305 5.589308,0.909968 
	C24.412106,1.102440 43.237919,1.000000 62.531342,1.000000 
	C64.440094,5.924162 67.994019,6.610836 72.616104,6.566133 
	C93.612320,6.363067 114.611687,6.447042 135.609711,6.504640 
	C139.539886,6.515420 143.228943,6.245184 146.262573,3.286244 
	C147.898666,1.690432 150.084900,1.480873 152.325729,1.493631 
	C161.158005,1.543915 169.990936,1.546093 178.823166,1.492317 
	C181.081955,1.478564 183.239517,1.746221 184.781906,3.482592 
	C187.137558,6.134485 190.126251,6.561698 193.401962,6.492640 
	C197.399872,6.408356 201.401062,6.516829 205.400208,6.445938 
	C207.415726,6.410210 209.631836,6.430349 211.021225,4.842607 
	C214.046387,1.385510 217.910416,1.415477 221.978989,1.478718 
	C229.809753,1.600438 237.643814,1.531251 245.476364,1.501637 
	C247.333206,1.494616 249.402954,1.299515 250.727478,2.628610 
	C254.858948,6.774258 259.982910,6.596360 265.191101,6.495283 
	C271.100891,6.380590 277.228973,7.507608 281.945465,2.309588 
	C283.068268,1.072144 285.097595,1.512446 286.762238,1.512966 
	C295.261505,1.515620 303.760803,1.529848 312.259979,1.503433 
	C314.450043,1.496627 316.913849,1.264281 318.438995,2.888998 
	C321.978363,6.659464 326.398987,6.566979 330.933990,6.486127 
	C334.099518,6.429691 337.267181,6.524628 340.432587,6.440495 
	C342.270294,6.391650 344.428284,6.532077 345.606598,5.053637 
	C348.819458,1.022540 353.151154,1.472355 357.484314,1.500930 
	C364.816681,1.549284 372.149628,1.528000 379.482269,1.506249 
	C381.847443,1.499234 384.380981,1.422076 386.070190,3.216963 
	C389.055817,6.389377 392.742310,6.582200 396.648712,6.491770 
	C400.313293,6.406937 403.981232,6.523020 407.646942,6.437023 
	C409.676300,6.389415 411.834656,6.267953 413.198944,4.641071 
	C415.778839,1.564710 419.095245,1.420754 422.699005,1.475314 
	C430.863098,1.598916 439.030426,1.534682 447.196228,1.500615 
	C449.398926,1.491426 451.746429,1.374611 453.284302,3.115918 
	C456.186188,6.401706 459.888977,6.586881 463.800812,6.492266 
	C466.965363,6.415726 470.134857,6.414737 473.299164,6.492538 
	C476.568909,6.572934 479.568329,6.146509 481.975098,3.574577 
	C483.685303,1.747035 485.992493,1.473802 488.419250,1.490152 
	C497.418060,1.550777 506.417877,1.555887 515.416504,1.485329 
	C517.696289,1.467453 519.737976,1.780033 521.275818,3.606549 
	C523.294250,6.003866 525.968567,6.529337 528.924194,6.485723 
	C532.589478,6.431638 536.258179,6.408926 539.922546,6.494494 
	C543.518433,6.578464 546.859070,6.269811 549.467712,3.272578 
	C550.852173,1.681898 552.918396,1.485132 554.997803,1.495413 
	C563.996765,1.539906 572.996155,1.525284 581.995361,1.506224 
	C584.035950,1.501902 586.217163,1.529613 587.642090,3.024844 
	C590.893616,6.436779 594.933655,6.609408 599.175049,6.493423 
	C602.672485,6.397786 606.174927,6.542997 609.672974,6.427113 
	C611.514221,6.366116 613.440308,6.271308 614.742798,4.745537 
	C617.294128,1.756786 620.592102,1.401340 624.242920,1.468587 
	C632.239502,1.615884 640.240723,1.526964 648.239990,1.505812 
	C650.426270,1.500031 652.871277,1.269260 654.416504,2.899653 
	C657.962158,6.640842 662.384155,6.572867 666.923889,6.486625 
	C670.255859,6.423328 673.590393,6.534215 676.922180,6.430666 
	C678.594727,6.378684 680.534058,6.443033 681.607544,5.094737 
	C684.792480,1.094322 689.105835,1.450181 693.459900,1.493110 
	C701.125183,1.568684 708.791809,1.531821 716.457703,1.502380 
	C718.492065,1.494567 720.690552,1.393638 722.096741,2.968026 
	C725.272217,6.523481 729.327393,6.614353 733.561951,6.493459 
	C736.892578,6.398370 740.228027,6.528518 743.560059,6.435398 
	C745.400391,6.383964 747.515137,6.479043 748.740051,5.035649 
	C752.006592,1.186128 756.270996,1.433009 760.640198,1.487561 
	C768.305054,1.583263 775.972229,1.554282 783.637695,1.490959 
	C786.079041,1.470791 788.331482,1.849862 790.029968,3.702305 
	C792.141602,6.005140 794.795227,6.521557 797.738281,6.484955 
	C801.737122,6.435223 805.738708,6.415046 809.736633,6.492331 
	C812.862244,6.552753 815.656921,5.975791 817.934387,3.603539 
	C819.520996,1.950809 821.598877,1.484865 823.874695,1.496188 
	C832.873657,1.540963 841.873108,1.530326 850.872192,1.501738 
	C852.750671,1.495770 854.773621,1.497070 856.049866,2.879457 
	C859.543457,6.663585 863.987915,6.591601 868.533203,6.488895 
	C871.864807,6.413617 875.199829,6.539232 878.531372,6.428754 
	C880.197754,6.373494 882.090332,6.451239 883.222534,5.109386 
	C886.456787,1.276435 890.720459,1.413809 895.118530,1.482830 
	C902.449463,1.597875 909.783508,1.529442 917.116089,1.504251 
	C919.134705,1.497315 921.370728,1.264117 922.848328,2.718525 
	C926.866150,6.673298 931.800476,6.627779 936.847778,6.489304 
	C939.679016,6.411629 942.514771,6.535770 945.346069,6.432377 
	C947.179749,6.365416 949.174438,6.395418 950.475037,4.901273 
	C953.324768,1.627480 956.986145,1.402210 960.946289,1.471367 
	C969.109802,1.613925 977.277771,1.551826 985.443237,1.491187 
	C987.874268,1.473134 990.137756,1.769880 991.833984,3.666774 
	C993.921204,6.000966 996.603271,6.490980 999.535828,6.474666 
	C1003.535217,6.452416 1007.535522,6.434101 1011.534424,6.481218 
	C1014.661621,6.518063 1017.498474,5.893401 1019.706604,3.493736 
	C1021.321289,1.738988 1023.375366,1.474689 1025.633301,1.489708 
	C1034.632202,1.549565 1043.631592,1.528509 1052.630859,1.502744 
	C1054.497192,1.497400 1056.596191,1.371909 1057.823975,2.789666 
	C1061.396606,6.914793 1066.081299,6.521386 1070.746582,6.479902 
	C1073.912720,6.451748 1077.079712,6.524582 1080.245239,6.436310 
	C1082.098877,6.384621 1084.125488,6.328279 1085.325562,4.794346 
	C1087.963379,1.423028 1091.502319,1.430097 1095.251465,1.481021 
	C1103.249268,1.589655 1111.249634,1.523125 1119.248901,1.507456 
	C1121.094360,1.503842 1123.240112,1.200686 1124.511841,2.563530 
	C1128.721802,7.075097 1134.090576,6.507834 1139.411621,6.489481 
	C1145.199707,6.469518 1151.102173,7.218770 1155.761230,2.406134 
	C1156.927368,1.201495 1158.892334,1.507412 1160.567139,1.509438 
	C1169.233032,1.519918 1177.899048,1.544684 1186.564697,1.497633 
	C1189.507324,1.481655 1192.191406,1.949256 1194.281006,4.262763 
	C1195.313110,5.405446 1196.590942,6.217249 1198.174072,6.290159 
	C1204.333618,6.573836 1210.495239,6.663116 1216.651611,6.222456 
	C1217.652954,6.150792 1218.752319,5.941552 1219.388794,5.147204 
	C1222.535400,1.220379 1226.843140,1.387843 1231.243774,1.483083 
	C1237.073853,1.609261 1242.909424,1.570934 1248.741333,1.496900 
	C1253.754272,1.433264 1258.715698,1.091168 1262.673950,5.261110 
	C1264.078491,6.740756 1266.416504,6.442994 1268.416748,6.460999 
	C1272.582886,6.498497 1276.750244,6.424953 1280.915405,6.487810 
	C1283.887329,6.532660 1286.492432,5.940420 1288.490723,3.492507 
	C1289.859985,1.815375 1291.817505,1.490530 1293.913574,1.498673 
	C1303.245850,1.534928 1312.578491,1.523826 1321.911011,1.506414 
	C1323.605957,1.503252 1325.513916,1.397565 1326.613037,2.721814 
	C1330.115845,6.942572 1334.823975,6.523501 1339.490479,6.480092 
	C1342.489990,6.452189 1345.490601,6.532516 1348.489014,6.432253 
	C1350.324219,6.370881 1352.410156,6.475546 1353.660767,5.015766 
	C1356.782715,1.372481 1360.824585,1.415457 1365.061401,1.479363 
	C1373.058838,1.599989 1381.059692,1.538984 1389.058716,1.498096 
	C1391.272827,1.486778 1393.450317,1.479598 1395.014038,3.361456 
	C1397.274536,6.081937 1400.277832,6.567535 1403.574219,6.494084 
	C1407.738403,6.401296 1411.906372,6.513908 1416.072266,6.444316 
	C1418.106934,6.410326 1420.168335,6.212203 1421.634399,4.653164 
	C1424.290405,1.828911 1427.568359,1.406032 1431.217529,1.468911 
	C1439.547729,1.612452 1447.882202,1.532132 1456.214722,1.501326 
	C1458.250122,1.493801 1460.301636,1.452597 1461.789917,3.087162 
	C1464.529663,6.096686 1468.026367,6.603409 1471.823853,6.496483 
	C1475.653931,6.388640 1479.489746,6.531598 1483.321655,6.436881 
	C1485.327148,6.387311 1487.501831,6.417448 1488.899048,4.752831 
	C1491.602417,1.532032 1495.118042,1.414532 1498.891113,1.475831 
	C1506.721680,1.603050 1514.555908,1.540924 1522.388306,1.497179 
	C1524.606445,1.484790 1526.857788,1.538454 1528.508423,3.124523 
	C1531.685669,6.177052 1535.504639,6.641335 1539.619507,6.499971 
	C1543.115234,6.379875 1546.618530,6.519071 1550.117432,6.449400 
	C1551.950684,6.412898 1553.973755,6.517223 1555.304810,5.086680 
	C1558.642822,1.499251 1562.867310,1.412083 1567.290527,1.481842 
	C1574.788086,1.600085 1582.288696,1.522154 1589.788086,1.509714 
	C1592.159668,1.505780 1594.655762,1.553366 1596.369385,3.300382 
	C1599.244751,6.231637 1602.715088,6.599618 1606.475586,6.495649 
	C1610.139404,6.394353 1613.808105,6.526305 1617.473755,6.436669 
	C1619.316406,6.391612 1621.347900,6.421768 1622.692993,5.087737 
	C1626.408203,1.403450 1630.965942,1.390262 1635.705078,1.479154 
	C1642.868652,1.613521 1650.036743,1.535215 1657.202637,1.501644 
	C1659.403809,1.491332 1661.730103,1.399674 1663.327393,3.061998 
	C1666.432983,6.293899 1670.253784,6.645631 1674.360352,6.500819 
	C1677.855957,6.377553 1681.359131,6.513315 1684.858398,6.452161 
	C1686.696289,6.420042 1688.745117,6.529281 1690.043945,5.090796 
	C1693.353638,1.425171 1697.574219,1.406473 1701.990601,1.479972 
	C1709.487915,1.604747 1716.988770,1.539721 1724.487915,1.498585 
	C1726.710938,1.486391 1728.962524,1.569981 1730.560547,3.230712 
	C1733.388794,6.170169 1736.858276,6.623335 1740.644165,6.500454 
	C1744.473511,6.376164 1748.309448,6.517400 1752.142090,6.440095 
	C1754.185303,6.398882 1756.268921,6.171520 1757.643433,4.527302 
	C1759.936401,1.784604 1762.848145,1.414497 1766.167236,1.467588 
	C1774.830933,1.606164 1783.498413,1.516280 1792.164307,1.512456 
	C1793.998657,1.511646 1796.099976,1.178303 1797.374023,2.669812 
	C1800.901489,6.799165 1805.562988,6.563035 1810.259155,6.484665 
	C1813.424805,6.431839 1816.592896,6.541148 1819.757446,6.426991 
	C1821.421021,6.366982 1823.010742,6.125892 1824.508667,5.171476 
	C1833.721191,-0.698535 1843.015259,-0.507590 1852.252319,5.100911 
	C1854.232178,6.302945 1856.330688,6.451615 1858.495850,6.459248 
	C1869.161621,6.496846 1879.830444,6.328950 1890.491333,6.551811 
	C1894.304199,6.631517 1896.447754,5.211557 1897.729492,1.353461 
	C1918.687622,1.000000 1939.375122,1.000000 1960.531372,1.000000 
	C1963.050659,3.424078 1962.409912,6.361606 1962.415527,9.116985 
	C1962.421021,11.782489 1962.953369,14.032441 1965.692749,15.743335 
	C1966.000000,22.354399 1966.000000,28.708796 1966.000000,35.531597 
	C1963.795532,37.603924 1963.508667,39.775833 1964.140625,42.230312 
	C1965.109985,45.995735 1965.462524,49.751930 1964.213379,53.550663 
	C1963.793701,54.827091 1963.847412,56.217770 1964.316284,57.492188 
	C1965.462402,60.607487 1964.085205,63.088978 1962.996948,65.981003 
	C1959.930420,74.129120 1957.924072,82.530083 1963.911255,90.450531 
	C1965.148315,92.086868 1965.246582,93.950829 1964.678223,95.684647 
	C1963.397827,99.590721 1963.586304,103.579308 1963.585571,107.567375 
	C1963.576294,153.892380 1963.576782,200.217392 1963.584229,246.542404 
	C1963.584839,250.202805 1963.441528,253.874084 1964.558716,257.446716 
	C1965.240112,259.626251 1965.024170,261.758850 1963.667480,263.649139 
	C1961.349609,266.878754 1961.186401,270.062836 1963.626099,273.311157 
	C1964.906738,275.016144 1965.306274,277.012970 1964.674316,279.007477 
	C1963.385620,283.075775 1963.585327,287.240814 1963.584961,291.397888 
	C1963.577515,374.216339 1963.576538,457.034821 1963.588257,539.853271 
	C1963.588745,544.005493 1963.323853,548.173401 1964.670898,552.237366 
	C1965.336426,554.245483 1964.741821,556.194519 1963.518311,557.913147 
	C1961.438232,560.835083 1961.243042,563.706360 1963.611816,566.599548 
	C1964.985474,568.276794 1965.248413,570.271484 1964.616455,572.273010 
	C1963.488159,575.846558 1963.582642,579.507507 1963.582275,583.169617 
	C1963.577881,630.494446 1963.577881,677.819275 1963.582642,725.144104 
	C1963.583008,728.640381 1963.501465,732.137451 1964.574951,735.546082 
	C1965.266846,737.742920 1964.530029,739.616943 1963.478394,741.679749 
	C1959.269653,749.936829 1958.531982,758.320435 1963.655029,766.561829 
	C1964.382446,767.732178 1965.285156,769.017334 1964.805176,770.256348 
	C1962.107178,777.221436 1966.912231,784.470642 1963.874023,791.416687 
	C1963.207031,792.941650 1964.104126,794.316528 1965.665405,795.681763 
	C1966.000000,802.354431 1966.000000,808.708801 1966.000000,815.531616 
	C1963.108521,817.741638 1962.462891,820.397217 1962.430176,823.605713 
	C1962.390137,827.517334 1963.283813,831.545471 1961.253418,835.665771 
z"/>
<path fill="#F6F6F6" opacity="1.000000" stroke="none" 
	d="
M1897.531372,1.000000 
	C1897.629883,8.180943 1897.629639,8.212078 1890.386841,8.163481 
	C1878.727051,8.085247 1867.067139,7.879801 1855.407959,7.922190 
	C1852.944092,7.931148 1851.290894,7.257799 1850.130371,5.140130 
	C1848.790771,2.695264 1846.741943,1.800921 1843.920410,1.956079 
	C1840.098999,2.166209 1836.249146,2.166200 1832.427856,1.958095 
	C1829.992065,1.825440 1828.116821,2.507892 1826.998047,4.585674 
	C1825.436646,7.485430 1823.073608,8.057810 1820.014771,7.901525 
	C1815.693604,7.680733 1811.348511,7.743129 1807.020630,7.891017 
	C1802.952637,8.030025 1799.069458,8.223386 1797.015259,3.577824 
	C1796.234009,1.810880 1794.289673,2.003970 1792.605713,2.006712 
	C1783.273682,2.021909 1773.941406,2.059839 1764.609985,1.977995 
	C1762.428711,1.958862 1760.625366,2.389285 1759.641235,4.448381 
	C1758.204102,7.454917 1755.808350,8.090758 1752.695068,7.927617 
	C1748.374023,7.701193 1744.028198,7.740140 1739.701172,7.894349 
	C1735.585449,8.041028 1731.670532,8.163621 1729.591553,3.551148 
	C1728.872803,1.956783 1727.161743,2.024631 1725.656372,2.023127 
	C1716.157715,2.013635 1706.658447,2.074979 1697.160889,1.967667 
	C1695.065552,1.943991 1693.489258,2.583618 1692.664307,4.378385 
	C1691.123413,7.730727 1688.409302,8.053439 1685.214722,7.899633 
	C1681.557007,7.723521 1677.884033,7.887613 1674.218262,7.850790 
	C1669.678589,7.805186 1664.731812,8.904204 1662.222778,3.298188 
	C1661.605591,1.918728 1659.996216,2.025865 1658.656128,2.025020 
	C1649.157471,2.019027 1639.658447,2.068938 1630.160522,1.987618 
	C1628.121948,1.970164 1626.448608,2.522769 1625.520752,4.262427 
	C1623.753784,7.575604 1620.981323,8.083716 1617.580078,7.900039 
	C1613.426392,7.675731 1609.249268,7.784513 1605.085327,7.879316 
	C1601.239746,7.966871 1597.423340,8.350553 1595.504150,3.779086 
	C1594.881226,2.295213 1593.224487,2.005800 1591.631226,2.008553 
	C1581.799316,2.025539 1571.967285,2.024484 1562.135376,2.012351 
	C1560.511841,2.010347 1558.983154,2.497475 1558.343018,3.959545 
	C1556.589478,7.963461 1553.319458,8.066899 1549.679565,7.900262 
	C1545.688599,7.717545 1541.673340,7.687316 1537.685791,7.904065 
	C1533.670654,8.122310 1530.096680,7.858871 1527.991211,3.714440 
	C1527.361572,2.475119 1526.084351,2.014987 1524.605957,2.019860 
	C1514.774170,2.052268 1504.942383,2.044042 1495.110474,2.008991 
	C1493.479858,2.003179 1491.947021,2.415527 1491.296753,3.878563 
	C1489.547363,7.814034 1486.383179,8.091751 1482.689087,7.892277 
	C1478.535522,7.667998 1474.344727,7.634988 1470.198120,7.921628 
	C1466.267212,8.193351 1463.006470,7.620590 1460.978149,3.812358 
	C1460.079956,2.126099 1458.455933,1.973411 1456.683716,1.984865 
	C1447.352051,2.045175 1438.019531,2.049265 1428.687866,1.987872 
	C1426.525024,1.973642 1424.710815,2.420056 1423.690552,4.464544 
	C1422.084229,7.683044 1419.334839,8.038288 1416.142090,7.901453 
	C1411.983521,7.723231 1407.810913,7.805408 1403.645874,7.874081 
	C1399.633179,7.940242 1395.579224,8.372348 1393.639404,3.533824 
	C1392.980347,1.889643 1391.241699,2.015544 1389.734375,2.015621 
	C1380.235718,2.016110 1370.736816,2.059732 1361.238770,1.980857 
	C1359.038086,1.962582 1357.338501,2.492928 1356.276001,4.518277 
	C1354.788452,7.353521 1352.473511,8.150326 1349.309326,7.932035 
	C1344.996704,7.634525 1340.645264,7.736888 1336.317261,7.878394 
	C1332.271729,8.010660 1328.418091,8.152184 1326.216553,3.717101 
	C1325.393555,2.058969 1323.580566,1.984108 1321.830444,1.992742 
	C1312.665283,2.037952 1303.498901,2.086328 1294.335083,1.964451 
	C1291.873291,1.931711 1290.057251,2.721024 1288.966919,4.806854 
	C1287.502808,7.607883 1285.227783,8.066611 1282.337524,7.910476 
	C1278.349854,7.695056 1274.339233,7.770190 1270.342896,7.882131 
	C1265.836670,8.008354 1261.317749,8.534580 1258.838379,3.357145 
	C1258.113770,1.843938 1256.323364,2.003007 1254.798706,2.005681 
	C1245.633301,2.021755 1236.467529,2.057718 1227.302734,1.982598 
	C1225.140625,1.964875 1223.241943,2.344220 1222.149780,4.298836 
	C1220.350708,7.518695 1217.651611,8.162663 1214.196289,7.925811 
	C1210.049683,7.641563 1205.863159,7.723374 1201.704224,7.895893 
	C1197.775269,8.058877 1194.099976,8.159947 1192.089844,3.779350 
	C1191.305542,2.070171 1189.474121,1.986099 1187.735229,1.991857 
	C1178.403198,2.022752 1169.070435,2.076411 1159.739624,1.969915 
	C1157.322632,1.942330 1155.383545,2.560127 1154.370483,4.732933 
	C1152.986572,7.701241 1150.631836,7.987680 1147.785156,7.883018 
	C1143.458618,7.723950 1139.118286,7.754491 1134.789551,7.887304 
	C1130.729004,8.011893 1126.796021,8.245035 1124.615723,3.703958 
	C1123.790894,1.985932 1121.937378,2.002710 1120.222900,2.006688 
	C1110.890869,2.028339 1101.558960,2.032318 1092.226929,2.008364 
	C1090.498901,2.003928 1088.772827,2.068885 1087.958862,3.859291 
	C1086.193970,7.740601 1083.029785,8.147030 1079.282227,7.913962 
	C1075.298096,7.666190 1071.278564,7.700082 1067.289551,7.904022 
	C1063.291504,8.108420 1059.712646,7.914484 1057.543823,3.767795 
	C1056.568237,1.902552 1054.529053,2.005812 1052.651245,2.011023 
	C1043.652588,2.035996 1034.653320,2.069091 1025.655518,1.978030 
	C1023.500427,1.956221 1021.568665,2.259431 1020.536621,4.249610 
	C1018.675476,7.838355 1015.582947,8.040007 1012.111084,7.898493 
	C1007.951843,7.728961 1003.777344,7.754999 999.615295,7.884048 
	C995.896484,7.999354 992.400330,8.124785 990.536377,3.872502 
	C989.696106,1.955570 987.617554,1.997578 985.723267,2.003667 
	C976.558044,2.033128 967.392517,2.037672 958.227417,1.986743 
	C956.119568,1.975030 953.975159,2.148760 953.046204,4.201123 
	C951.421936,7.789640 948.574158,8.022536 945.247742,7.890939 
	C941.088257,7.726391 936.906006,7.668089 932.754211,7.912696 
	C928.747803,8.148738 925.185913,7.926535 923.023376,3.847407 
	C922.018127,1.951350 920.116760,1.982746 918.220337,1.992614 
	C909.221802,2.039439 900.222900,2.028188 891.224182,2.004001 
	C889.176025,1.998496 887.049805,1.929471 886.024109,4.101764 
	C884.404236,7.532449 881.688538,8.125934 878.224670,7.920365 
	C873.906982,7.664132 869.552734,7.672132 865.233032,7.909280 
	C861.356812,8.122090 858.014465,7.722961 855.957825,3.872248 
	C855.068787,2.207732 853.381409,1.994678 851.623413,2.000734 
	C842.291504,2.032884 832.958923,2.071844 823.627747,1.982281 
	C821.411255,1.961006 819.655945,2.574121 818.592712,4.472184 
	C816.999573,7.316244 814.696960,8.092380 811.531921,7.888141 
	C807.384277,7.620496 803.203125,7.777848 799.039429,7.877865 
	C794.856445,7.978345 790.631348,8.538841 788.529114,3.478827 
	C787.890625,1.941860 786.074158,2.009595 784.542480,2.011221 
	C775.043884,2.021303 765.545227,2.026897 756.046631,2.009145 
	C754.489319,2.006235 752.949890,2.120964 752.190979,3.683719 
	C750.149780,7.887066 746.518005,8.097236 742.530029,7.897806 
	C738.873047,7.714930 735.197815,7.786379 731.533997,7.878558 
	C727.488464,7.980340 723.481079,8.295885 721.518738,3.510321 
	C720.841370,1.858464 719.062988,2.030230 717.578735,2.027267 
	C708.080078,2.008297 698.580994,2.061715 689.083008,1.980655 
	C686.866638,1.961739 685.166016,2.541859 684.119263,4.552002 
	C682.627563,7.416445 680.284607,8.128135 677.155579,7.927749 
	C672.840454,7.651404 668.490356,7.737555 664.163025,7.889099 
	C660.095398,8.031547 656.230713,8.169722 654.057800,3.682697 
	C653.233521,1.980571 651.374634,1.996974 649.654114,2.001627 
	C640.488892,2.026415 631.323364,2.031383 622.158142,1.991944 
	C620.242981,1.983703 618.301331,2.093984 617.345703,3.930426 
	C615.405945,7.658135 612.246155,8.096928 608.541687,7.902799 
	C604.719360,7.702493 600.875427,7.764129 597.046387,7.884677 
	C593.000793,8.012046 589.065674,8.293037 586.938293,3.668547 
	C586.155334,1.966625 584.271423,1.989831 582.542114,1.996780 
	C573.376831,2.033605 564.211121,2.051662 555.046204,1.984997 
	C553.070435,1.970625 551.181763,2.289364 550.262817,4.032104 
	C548.273010,7.805531 545.061829,8.067698 541.382690,7.903794 
	C537.058533,7.711154 532.712463,7.707230 528.388672,7.903123 
	C524.843811,8.063725 521.840576,7.651623 520.152283,3.980377 
	C519.365356,2.269194 517.718445,1.983986 515.928040,1.992614 
	C506.429596,2.038387 496.930206,2.069125 487.432465,1.973652 
	C485.203308,1.951244 483.454285,2.552138 482.420502,4.492767 
	C480.879944,7.384827 478.552399,8.074673 475.423767,7.900214 
	C470.939240,7.650147 466.424316,7.719689 461.932220,7.899041 
	C458.132507,8.050746 454.674469,7.964389 452.645874,3.929317 
	C451.709900,2.067626 449.744598,1.989655 447.830475,1.997781 
	C438.665283,2.036692 429.499725,2.040218 420.334564,2.000450 
	C418.412720,1.992111 416.627319,2.166805 415.607758,4.036014 
	C413.655914,7.614320 410.570099,8.205850 406.815002,7.922214 
	C403.003937,7.634351 399.153015,7.799635 395.321716,7.875140 
	C391.321198,7.953979 387.324066,8.364033 385.232788,3.662528 
	C384.595337,2.229421 382.872772,2.003767 381.291809,2.006855 
	C371.793182,2.025407 362.294189,2.053092 352.796021,1.983048 
	C350.949890,1.969434 349.490051,2.450989 348.589081,4.046281 
	C346.604980,7.559380 343.574615,8.226514 339.799103,7.929001 
	C335.824341,7.615786 331.794403,7.671175 327.809448,7.911554 
	C323.814850,8.152515 320.270020,7.958550 318.177948,3.798003 
	C317.331146,2.113988 315.584656,1.986890 313.831116,1.993576 
	C304.499237,2.029157 295.166962,2.035781 285.835266,1.978601 
	C283.683777,1.965417 281.769257,2.331608 280.795624,4.421742 
	C279.368530,7.485382 276.978546,8.074893 273.851807,7.905835 
	C269.531982,7.672266 265.186523,7.753502 260.857880,7.888178 
	C256.779572,8.015067 252.865005,8.131983 250.679245,3.661477 
	C249.946976,2.163733 248.376831,1.998511 246.791519,2.004083 
	C237.292969,2.037465 227.793961,2.056643 218.295807,1.985030 
	C216.286377,1.969879 214.662613,2.468658 213.703583,4.257886 
	C211.965591,7.500371 209.266495,8.161799 205.802444,7.927543 
	C201.489136,7.635858 197.135239,7.700706 192.810928,7.888824 
	C188.980698,8.055447 185.599579,7.899761 183.698624,3.731822 
	C182.824066,1.814300 180.675903,1.998078 178.814880,2.001923 
	C169.816162,2.020515 160.816986,2.060889 151.818954,1.981613 
	C149.667984,1.962663 147.731354,2.268167 146.661011,4.239306 
	C144.882477,7.514640 142.137680,7.920810 138.717087,7.917182 
	C115.559120,7.892620 92.397842,7.889677 69.245209,8.303398 
	C64.063202,8.395998 62.007183,7.066798 62.988113,1.458904 
	C674.354248,1.000000 1285.708496,1.000000 1897.531372,1.000000 
z"/>
<path fill="#DFDFDF" opacity="1.000000" stroke="none" 
	d="
M63.466042,836.000000 
	C62.953194,834.907166 63.127701,834.037231 64.549103,834.082947 
	C66.047058,834.131226 67.547928,834.086182 69.047523,834.086182 
	C676.721924,834.085571 1284.396362,834.084167 1892.070801,834.146179 
	C1894.005371,834.146362 1896.324463,832.929871 1897.974854,835.571045 
	C1286.644043,836.000000 675.288086,836.000000 63.466042,836.000000 
z"/>
<path fill="#FBFBFB" opacity="1.000000" stroke="none" 
	d="
M1966.000000,795.531372 
	C1961.794922,796.229004 1960.064941,794.953613 1962.125854,790.511658 
	C1963.803833,786.894958 1965.967651,783.307983 1962.284668,779.136780 
	C1961.191772,777.899048 1961.143921,774.386658 1963.090454,772.171631 
	C1964.908936,770.102051 1964.449951,767.361755 1962.216797,766.813232 
	C1958.291016,765.849060 1959.100342,763.284485 1959.084717,760.795105 
	C1959.058472,756.631348 1958.763550,752.432495 1959.204224,748.315063 
	C1959.517334,745.389221 1958.772583,741.726440 1962.918823,740.193970 
	C1964.375366,739.655518 1964.703735,737.501282 1963.599365,736.275146 
	C1961.522827,733.970215 1962.015137,731.317627 1962.014038,728.719727 
	C1961.993774,678.583191 1961.998413,628.446716 1961.997681,578.310181 
	C1961.997559,576.012329 1961.810669,573.808167 1963.588257,571.778931 
	C1964.784424,570.413635 1964.157715,568.664673 1962.640137,567.424683 
	C1959.131104,564.557922 1959.014038,560.280273 1962.413940,557.559265 
	C1964.105591,556.205261 1964.882935,554.156372 1963.609985,552.798218 
	C1961.540283,550.590149 1962.017822,548.198608 1962.017212,545.796631 
	C1961.992920,459.015503 1961.994141,372.234344 1962.014893,285.453217 
	C1962.015381,283.035828 1961.518188,280.585449 1963.550171,278.416290 
	C1964.824097,277.056366 1964.042236,275.282990 1962.761230,273.956818 
	C1958.983154,270.045380 1959.022949,267.085419 1962.886475,263.148865 
	C1964.202271,261.808319 1964.764771,259.930847 1963.556641,258.661407 
	C1961.638428,256.645874 1962.008911,254.402679 1962.008301,252.134766 
	C1961.994629,201.998260 1961.996338,151.861755 1962.003296,101.725243 
	C1962.003418,100.229630 1961.534424,98.361275 1962.240234,97.306076 
	C1964.650879,93.701958 1965.599487,90.950584 1960.031860,89.835274 
	C1958.611816,89.550835 1959.094727,88.252808 1959.123291,87.386269 
	C1959.341064,80.775162 1958.326172,74.101616 1960.079224,67.563751 
	C1960.162842,67.251747 1959.977417,66.679443 1960.122437,66.599167 
	C1965.845825,63.433239 1961.007690,58.121544 1962.397949,54.904453 
	C1964.858032,49.210800 1963.298950,44.571342 1961.891357,39.567482 
	C1960.926392,36.137264 1962.770142,35.936474 1965.623413,36.051277 
	C1966.000000,289.020905 1966.000000,542.041809 1966.000000,795.531372 
z"/>
<path fill="#E5E5E5" opacity="1.000000" stroke="none" 
	d="
M1961.500000,836.000000 
	C1961.861084,830.590393 1961.445679,825.136597 1961.312256,819.719177 
	C1961.235840,816.623108 1962.170532,815.470398 1965.574463,815.939331 
	C1966.000000,821.387756 1965.703735,826.797729 1966.104370,832.155518 
	C1966.370605,835.716736 1965.177124,836.643494 1961.500000,836.000000 
z"/>
<path fill="#E5E5E5" opacity="1.000000" stroke="none" 
	d="
M1966.000000,15.527336 
	C1962.549438,16.632805 1960.883057,15.699005 1961.357422,11.713451 
	C1961.740967,8.488922 1961.339600,5.171004 1961.143188,1.447252 
	C1964.831055,0.322555 1966.797363,1.288258 1966.090332,5.785834 
	C1965.615723,8.805577 1966.000000,11.960325 1966.000000,15.527336 
z"/>
<path fill="#FEFEFE" opacity="1.000000" stroke="none" 
	d="
M1754.619751,784.682129 
	C1756.726807,785.042114 1758.436157,785.101746 1760.564941,785.072815 
	C1763.066528,783.158142 1765.633179,783.369995 1768.113647,783.357300 
	C1777.608765,783.308838 1787.104370,783.348511 1796.599731,783.335083 
	C1805.312622,783.322754 1805.313599,783.316345 1805.336182,774.370911 
	C1805.341309,772.371887 1805.337280,770.372803 1805.337280,768.373779 
	C1805.337280,526.990784 1805.334961,285.607727 1805.366455,44.224716 
	C1805.366821,40.773319 1804.705444,37.203068 1806.796875,33.549911 
	C1808.773438,33.143711 1810.411865,33.104919 1812.456421,33.123993 
	C1814.501831,34.695377 1814.548218,36.724075 1814.620972,38.726509 
	C1814.705566,41.057007 1814.661499,43.389900 1814.661499,45.721764 
	C1814.662476,287.908936 1814.659790,530.096069 1814.669067,772.283264 
	C1814.669434,784.431458 1813.979126,783.266968 1825.787476,783.328491 
	C1834.948364,783.376221 1844.109863,783.313599 1853.270874,783.354614 
	C1855.586182,783.364929 1857.961914,783.156372 1860.442749,784.802368 
	C1860.870972,788.096680 1860.933228,791.052368 1860.975342,794.451660 
	C1859.676880,796.198486 1858.030151,796.365479 1856.336792,796.396912 
	C1854.170898,796.437195 1852.004639,796.424194 1849.838501,796.424194 
	C1258.139038,796.424927 666.439575,796.425842 74.740135,796.399902 
	C71.430252,796.399719 68.061882,796.922119 64.396210,795.510620 
	C59.125332,793.395752 61.576511,789.226990 61.116299,785.575317 
	C63.001511,783.230286 65.404625,783.377563 67.707710,783.373169 
	C92.940918,783.325134 118.174194,783.333923 143.407425,783.364563 
	C145.393173,783.366943 147.410095,783.316772 149.618683,784.682251 
	C151.726013,785.040955 153.434784,785.098877 155.563232,785.069885 
	C158.065811,783.158752 160.632156,783.369995 163.112701,783.357361 
	C172.607941,783.308838 182.103439,783.348572 191.598816,783.335083 
	C200.313324,783.322754 200.313721,783.316345 200.336212,774.371643 
	C200.339981,772.872375 200.337021,771.373108 200.337021,769.873840 
	C200.337128,527.991028 200.334000,286.108246 200.365936,44.225449 
	C200.366394,40.774067 199.704971,37.203659 201.797424,33.550888 
	C203.773895,33.144726 205.412079,33.105797 207.456238,33.124855 
	C209.502441,34.696140 209.550461,36.725300 209.620789,38.727875 
	C209.708466,41.225250 209.661911,43.725002 209.661911,46.223724 
	C209.662964,287.940338 209.658981,529.656982 209.673553,771.373596 
	C209.674347,784.612061 208.682129,783.239441 221.400620,783.329102 
	C228.563507,783.379578 235.727066,783.311829 242.890106,783.354614 
	C245.045242,783.367493 247.242874,783.231873 249.618927,784.683228 
	C251.725815,785.042358 253.435135,785.100952 255.564072,785.071655 
	C258.066162,783.158386 260.632599,783.370056 263.113129,783.357422 
	C272.608368,783.308899 282.103851,783.348511 291.599243,783.335083 
	C300.313232,783.322754 300.313873,783.316345 300.336060,774.371399 
	C300.340607,772.538940 300.337067,770.706482 300.337067,768.874023 
	C300.337128,527.324280 300.334106,285.774475 300.365875,44.224716 
	C300.366333,40.773258 299.705322,37.202923 301.796509,33.549461 
	C303.773438,33.142689 305.412292,33.103580 307.457306,33.122734 
	C309.502106,34.695217 309.548370,36.724186 309.621246,38.726810 
	C309.706055,41.057587 309.662048,43.390770 309.662079,45.722916 
	C309.662994,287.606415 309.658966,529.489929 309.673584,771.373413 
	C309.674377,784.611511 308.681305,783.239441 321.400513,783.329041 
	C328.563385,783.379517 335.726959,783.311829 342.890015,783.354614 
	C345.045258,783.367493 347.243042,783.231812 349.619446,784.682617 
	C351.725952,785.040955 353.434784,785.098877 355.563263,785.069885 
	C358.065826,783.158691 360.632172,783.369934 363.112732,783.357300 
	C372.607971,783.308777 382.103485,783.348511 391.598877,783.335083 
	C400.313202,783.322754 400.313873,783.316345 400.336090,774.371643 
	C400.340637,772.539185 400.337067,770.706726 400.337067,768.874268 
	C400.337128,527.324646 400.334106,285.775055 400.365906,44.225445 
	C400.366364,40.774059 399.704926,37.203632 401.797485,33.550880 
	C403.773926,33.144718 405.412079,33.105793 407.456238,33.124855 
	C409.502380,34.696175 409.550446,36.725311 409.620758,38.727898 
	C409.708466,41.225273 409.661896,43.725021 409.661926,46.223743 
	C409.662964,287.940308 409.658966,529.656921 409.673584,771.373474 
	C409.674377,784.611572 408.681000,783.239441 421.400421,783.329041 
	C428.563293,783.379578 435.726868,783.311829 442.889893,783.354614 
	C445.045044,783.367493 447.242676,783.231934 449.618774,784.683228 
	C451.725739,785.042358 453.435089,785.100952 455.564117,785.071655 
	C458.066223,783.158447 460.632660,783.370056 463.113190,783.357422 
	C472.608429,783.308899 482.103943,783.348511 491.599335,783.335083 
	C500.313293,783.322693 500.313843,783.316345 500.336151,774.371338 
	C500.340302,772.705444 500.337067,771.039612 500.337067,769.373718 
	C500.337128,527.657349 500.334076,285.941010 500.365875,44.224667 
	C500.366302,40.773228 499.705383,37.202927 501.796509,33.549465 
	C503.773438,33.142693 505.412292,33.103580 507.457306,33.122738 
	C509.502106,34.695217 509.548370,36.724186 509.621246,38.726807 
	C509.706055,41.057583 509.661987,43.390766 509.662018,45.722912 
	C509.662933,287.606384 509.658936,529.489807 509.673553,771.373291 
	C509.674347,784.610596 508.680878,783.239807 521.400330,783.329041 
	C528.563232,783.379272 535.726807,783.311829 542.889832,783.354614 
	C545.045105,783.367493 547.242920,783.231750 549.619385,784.682617 
	C551.725952,785.041016 553.434753,785.098938 555.563232,785.069946 
	C558.065857,783.158691 560.632141,783.369995 563.112732,783.357361 
	C572.607971,783.308899 582.103455,783.348572 591.598877,783.335083 
	C600.312988,783.322754 600.313599,783.316345 600.336121,774.371704 
	C600.340759,772.539246 600.337280,770.706787 600.337280,768.874329 
	C600.337280,527.324707 600.334412,285.775055 600.366028,44.225426 
	C600.366516,40.774010 599.704956,37.203613 601.797363,33.550873 
	C603.773865,33.144756 605.412048,33.105816 607.456299,33.124878 
	C609.502441,34.696228 609.548218,36.725410 609.621155,38.727947 
	C609.706116,41.058708 609.661926,43.391891 609.661926,45.724030 
	C609.662842,287.607056 609.658752,529.490112 609.673462,771.373108 
	C609.674316,784.611633 608.680786,783.239441 621.399963,783.329041 
	C628.562866,783.379517 635.726440,783.312012 642.889465,783.354614 
	C645.044739,783.367432 647.242554,783.231873 649.618774,784.683228 
	C651.725769,785.042480 653.435059,785.101074 655.564026,785.071716 
	C658.066101,783.158447 660.632629,783.367615 663.113098,783.357239 
	C674.274353,783.310608 685.435730,783.348206 696.597107,783.334900 
	C705.313110,783.324463 705.313660,783.316772 705.336060,774.373718 
	C705.340271,772.707825 705.336975,771.041992 705.336975,769.376099 
	C705.337097,527.657776 705.333923,285.939423 705.365845,44.221104 
	C705.366333,40.770851 704.704651,37.201313 706.797791,33.550026 
	C708.773621,33.143871 710.412170,33.105034 712.456787,33.124107 
	C714.502319,34.695763 714.548218,36.724884 714.621155,38.727444 
	C714.706116,41.058208 714.661926,43.391396 714.661926,45.723537 
	C714.662842,287.606934 714.658752,529.490295 714.673462,771.373718 
	C714.674255,784.611084 713.680908,783.239624 726.400757,783.329041 
	C733.563660,783.379395 740.727234,783.311829 747.890259,783.354553 
	C750.045471,783.367432 752.243286,783.231567 754.619873,784.682251 
	C756.726868,785.042175 758.436157,785.101746 760.564941,785.072815 
	C763.066589,783.158447 765.633057,783.369934 768.113586,783.357300 
	C777.608765,783.308899 787.104309,783.348450 796.599670,783.335083 
	C805.312988,783.322815 805.313354,783.316406 805.336182,774.370972 
	C805.340027,772.871704 805.337280,771.372437 805.337280,769.873169 
	C805.337402,527.990356 805.334473,286.107544 805.366028,44.224735 
	C805.366516,40.773331 804.705078,37.203041 806.796753,33.549957 
	C808.773438,33.143749 810.411987,33.104954 812.456604,33.124199 
	C814.502258,34.695889 814.548218,36.724991 814.621155,38.727562 
	C814.706055,41.058331 814.661926,43.391510 814.661926,45.723652 
	C814.662842,287.606934 814.658752,529.490234 814.673401,771.373535 
	C814.674194,784.611450 813.681396,783.239563 826.400574,783.329041 
	C833.563477,783.379395 840.727051,783.311829 847.890076,783.354614 
	C850.045288,783.367493 852.243042,783.231812 854.619751,784.682007 
	C856.726318,785.041077 858.435059,785.099854 860.563232,785.070679 
	C863.065735,783.158630 865.632019,783.369934 868.112610,783.357300 
	C877.607849,783.308899 887.103333,783.348450 896.598755,783.335083 
	C905.313171,783.322754 905.314026,783.316345 905.335876,774.371704 
	C905.341187,772.206055 905.337280,770.040466 905.337280,767.874817 
	C905.337280,526.658203 905.334473,285.441650 905.366028,44.225063 
	C905.366516,40.773632 904.705322,37.203339 906.796875,33.550171 
	C908.773621,33.143867 910.412170,33.105030 912.456787,33.124104 
	C914.502319,34.695763 914.548340,36.724880 914.621338,38.727436 
	C914.706238,41.058205 914.661926,43.391396 914.661926,45.723537 
	C914.662842,287.606934 914.658691,529.490295 914.673401,771.373718 
	C914.674194,784.611084 913.680908,783.239624 926.400757,783.329041 
	C933.563660,783.379395 940.727234,783.311829 947.890259,783.354614 
	C950.045471,783.367432 952.243286,783.231567 954.619873,784.682251 
	C956.726868,785.042175 958.436157,785.101746 960.564941,785.072815 
	C963.066589,783.158447 965.633057,783.369995 968.113586,783.357300 
	C977.608765,783.308899 987.104309,783.348450 996.599670,783.335083 
	C1005.312988,783.322815 1005.313354,783.316467 1005.336182,774.370972 
	C1005.340027,772.871704 1005.337280,771.372437 1005.337280,769.873169 
	C1005.337402,527.990356 1005.334473,286.107544 1005.366028,44.224735 
	C1005.366516,40.773331 1004.705078,37.203041 1006.796753,33.549957 
	C1008.773438,33.143749 1010.411987,33.104954 1012.456604,33.124199 
	C1014.502380,34.695881 1014.548218,36.725067 1014.621216,38.727581 
	C1014.706238,41.058338 1014.661926,43.391529 1014.661926,45.723671 
	C1014.662842,287.606659 1014.658691,529.489624 1014.673401,771.372620 
	C1014.674194,784.611023 1013.680359,783.239685 1026.399536,783.329102 
	C1033.562500,783.379456 1040.725952,783.311829 1047.889038,783.354614 
	C1050.044312,783.367432 1052.242188,783.231995 1054.618408,784.683350 
	C1056.725220,785.042236 1058.434326,785.100403 1060.563110,785.070679 
	C1063.065674,783.158813 1065.631958,783.369934 1068.112671,783.357300 
	C1077.607788,783.308899 1087.103394,783.348328 1096.598755,783.335083 
	C1105.312622,783.322876 1105.313354,783.316528 1105.335815,774.371826 
	C1105.341187,772.206177 1105.337158,770.040588 1105.337158,767.874939 
	C1105.337036,526.658264 1105.334839,285.441559 1105.366455,44.224861 
	C1105.366821,40.773502 1104.704712,37.203102 1106.797119,33.550072 
	C1108.773682,33.143822 1110.411987,33.105011 1112.456543,33.124046 
	C1114.502075,34.695549 1114.548462,36.724476 1114.621338,38.727158 
	C1114.705933,41.057938 1114.661499,43.391117 1114.661499,45.723259 
	C1114.662231,287.606445 1114.658936,529.489624 1114.673218,771.372803 
	C1114.674072,784.611633 1113.681030,783.239441 1126.399780,783.329041 
	C1133.562744,783.379517 1140.726318,783.311829 1147.889404,783.354614 
	C1150.044678,783.367432 1152.242432,783.231873 1154.618652,784.683167 
	C1156.725586,785.042480 1158.435181,785.101196 1160.564331,785.071838 
	C1163.066406,783.158447 1165.632935,783.369995 1168.113525,783.357300 
	C1177.608643,783.308777 1187.104126,783.348389 1196.599487,783.335083 
	C1205.312744,783.322876 1205.313477,783.316406 1205.335938,774.371033 
	C1205.340942,772.372009 1205.337280,770.372986 1205.337280,768.373962 
	C1205.337280,526.990906 1205.334961,285.607849 1205.366455,44.224777 
	C1205.366821,40.773346 1204.705200,37.203007 1206.796875,33.549873 
	C1208.773560,33.143711 1210.411987,33.104923 1212.456543,33.124168 
	C1214.502441,34.695728 1214.548218,36.724781 1214.620972,38.727402 
	C1214.705688,41.058178 1214.661499,43.391354 1214.661499,45.723495 
	C1214.662476,287.606812 1214.658813,529.490173 1214.673584,771.373474 
	C1214.674438,784.609802 1213.679199,783.239746 1226.400635,783.329041 
	C1233.563599,783.379333 1240.727173,783.311829 1247.890259,783.354553 
	C1250.045410,783.367432 1252.243164,783.231567 1254.619873,784.682007 
	C1256.726562,785.041138 1258.435181,785.099915 1260.563354,785.070679 
	C1263.065796,783.158630 1265.632202,783.369934 1268.112793,783.357300 
	C1277.607910,783.308899 1287.103516,783.348389 1296.598877,783.335144 
	C1305.312622,783.322998 1305.313232,783.316650 1305.335815,774.371582 
	C1305.340942,772.372559 1305.337280,770.373535 1305.337280,768.374512 
	C1305.337280,526.991333 1305.334839,285.608124 1305.366455,44.224949 
	C1305.366821,40.773560 1304.704712,37.203136 1306.797119,33.550072 
	C1308.773682,33.143826 1310.411987,33.105011 1312.456543,33.124050 
	C1314.502075,34.695553 1314.548340,36.724491 1314.621216,38.727169 
	C1314.705811,41.057949 1314.661499,43.391129 1314.661499,45.723270 
	C1314.662354,287.606659 1314.658936,529.490051 1314.673340,771.373474 
	C1314.674194,784.610168 1313.679321,783.239624 1326.400513,783.329041 
	C1333.563477,783.379395 1340.727051,783.311829 1347.890137,783.354614 
	C1350.045410,783.367432 1352.243042,783.231873 1354.619751,784.682129 
	C1356.726807,785.042114 1358.436157,785.101746 1360.564941,785.072815 
	C1363.066528,783.158142 1365.633179,783.369995 1368.113647,783.357361 
	C1377.608765,783.308838 1387.104370,783.348450 1396.599731,783.335083 
	C1405.312622,783.322754 1405.313354,783.316345 1405.335938,774.370911 
	C1405.341064,772.371887 1405.337280,770.372803 1405.337280,768.373779 
	C1405.337280,526.990784 1405.334961,285.607727 1405.366455,44.224716 
	C1405.366821,40.773319 1404.705444,37.203068 1406.796875,33.549911 
	C1408.773560,33.143711 1410.411987,33.104923 1412.456543,33.124168 
	C1414.502441,34.695728 1414.548096,36.724785 1414.620972,38.727402 
	C1414.705688,41.058178 1414.661499,43.391354 1414.661499,45.723495 
	C1414.662476,287.606812 1414.658813,529.490173 1414.673584,771.373474 
	C1414.674438,784.609802 1413.679199,783.239746 1426.400635,783.329041 
	C1433.563599,783.379333 1440.727173,783.311768 1447.890259,783.354553 
	C1450.045410,783.367371 1452.243164,783.231567 1454.619873,784.682068 
	C1456.726562,785.041565 1458.435425,785.100708 1460.563477,785.071350 
	C1463.065796,783.158752 1465.632202,783.369934 1468.112793,783.357300 
	C1477.607910,783.309021 1487.103516,783.348267 1496.598877,783.335083 
	C1505.312622,783.322937 1505.313477,783.316467 1505.335938,774.371521 
	C1505.341309,772.205933 1505.337280,770.040283 1505.337280,767.874695 
	C1505.337280,526.658081 1505.334839,285.441467 1505.366455,44.224861 
	C1505.366821,40.773499 1504.704712,37.203117 1506.797119,33.550076 
	C1508.773682,33.143826 1510.411987,33.105015 1512.456543,33.124050 
	C1514.502075,34.695553 1514.548340,36.724491 1514.621216,38.727169 
	C1514.705811,41.057949 1514.661499,43.391129 1514.661499,45.723270 
	C1514.662354,287.606659 1514.658936,529.490051 1514.673340,771.373474 
	C1514.674194,784.610168 1513.679321,783.239624 1526.400513,783.329041 
	C1533.563477,783.379395 1540.727051,783.311829 1547.890137,783.354614 
	C1550.045410,783.367432 1552.243042,783.231873 1554.619751,784.682190 
	C1556.726807,785.042175 1558.436157,785.101746 1560.564941,785.072876 
	C1563.066528,783.158142 1565.633179,783.369995 1568.113647,783.357361 
	C1577.608765,783.308838 1587.104370,783.348511 1596.599731,783.335083 
	C1605.312622,783.322815 1605.313354,783.316345 1605.335938,774.370911 
	C1605.341064,772.371887 1605.337280,770.372803 1605.337280,768.373779 
	C1605.337280,526.990784 1605.334961,285.607727 1605.366455,44.224716 
	C1605.366821,40.773319 1604.705444,37.203068 1606.796875,33.549911 
	C1608.773560,33.143711 1610.411987,33.104923 1612.456543,33.124168 
	C1614.502441,34.695728 1614.548096,36.724785 1614.620972,38.727402 
	C1614.705688,41.058178 1614.661499,43.391354 1614.661499,45.723495 
	C1614.662476,287.606812 1614.658691,529.490173 1614.673462,771.373474 
	C1614.674316,784.609802 1613.679199,783.239746 1626.400635,783.329102 
	C1633.563599,783.379333 1640.727173,783.311768 1647.890259,783.354492 
	C1650.045410,783.367371 1652.243164,783.231567 1654.619873,784.682068 
	C1656.726562,785.041199 1658.435181,785.099915 1660.563354,785.070679 
	C1663.065796,783.158630 1665.632202,783.369934 1668.112793,783.357300 
	C1677.607910,783.308899 1687.103516,783.348389 1696.598877,783.335144 
	C1705.312622,783.322998 1705.313232,783.316650 1705.335815,774.371582 
	C1705.340942,772.372559 1705.337280,770.373535 1705.337280,768.374512 
	C1705.337280,526.991333 1705.334839,285.608124 1705.366455,44.224949 
	C1705.366821,40.773560 1704.704712,37.203136 1706.797119,33.550072 
	C1708.773682,33.143822 1710.411987,33.105007 1712.456543,33.124046 
	C1714.502075,34.695553 1714.548584,36.724480 1714.621338,38.727165 
	C1714.706055,41.057941 1714.661499,43.391129 1714.661499,45.723270 
	C1714.662354,287.606659 1714.658936,529.490051 1714.673340,771.373474 
	C1714.674194,784.610168 1713.679321,783.239624 1726.400513,783.329041 
	C1733.563477,783.379395 1740.727051,783.311829 1747.890137,783.354614 
	C1750.045410,783.367432 1752.243042,783.231873 1754.619751,784.682129 
z"/>
<path fill="#868686" opacity="1.000000" stroke="none" 
	d="
M150.000061,784.515747 
	C120.712280,785.046021 91.407318,785.108948 61.646095,785.157471 
	C60.232662,763.506897 60.765705,741.859619 60.765377,720.217834 
	C60.761990,497.782410 60.807945,275.346985 60.799549,52.911556 
	C60.799362,47.965782 61.376156,43.009850 60.003494,38.059074 
	C59.066189,34.678509 60.161434,32.895851 64.509918,32.934521 
	C91.333397,33.173042 118.160843,33.157475 144.984833,32.950562 
	C149.276581,32.917458 150.083359,34.242996 150.081711,38.264290 
	C149.979980,286.858978 149.986420,535.453674 150.000061,784.515747 
z"/>
<path fill="#868686" opacity="1.000000" stroke="none" 
	d="
M1860.547363,795.684021 
	C1871.026855,795.855347 1881.025146,795.903259 1891.023315,795.922546 
	C1897.995972,795.936035 1897.995972,795.918457 1897.995972,803.130005 
	C1897.995972,808.963074 1897.743408,814.810791 1898.081177,820.624268 
	C1898.322876,824.781616 1897.479614,826.792480 1892.768188,826.162903 
	C1889.329468,825.703430 1885.780396,826.067017 1882.280518,826.067017 
	C1278.140625,826.066650 674.000671,826.066711 69.860733,826.066711 
	C63.005081,826.066711 62.970467,826.066528 63.013332,819.264771 
	C63.061581,811.607727 63.180519,803.951050 63.614487,796.015381 
	C65.605385,795.336731 67.279396,795.522827 68.939240,795.522766 
	C664.815247,795.513977 1260.691284,795.514099 1856.567261,795.514709 
	C1857.733643,795.514709 1858.900269,795.497864 1860.547363,795.684021 
z"/>
<path fill="#868686" opacity="1.000000" stroke="none" 
	d="
M1884.933350,54.000450 
	C1884.929565,48.335251 1885.026489,43.167057 1884.877319,38.005974 
	C1884.808350,35.620434 1885.602539,34.672176 1887.994995,34.903488 
	C1889.480347,35.047108 1891.013184,35.086880 1892.486938,34.889832 
	C1896.538208,34.348141 1898.919312,35.313892 1898.029419,40.086361 
	C1897.448120,43.203045 1899.669312,43.004704 1901.766357,43.000481 
	C1917.263550,42.969265 1932.763184,43.131786 1948.256226,42.879631 
	C1952.279663,42.814148 1953.456177,44.020485 1953.151611,47.876007 
	C1952.837402,51.850777 1953.068726,55.869072 1953.071533,59.868328 
	C1953.073120,62.286697 1953.557007,64.754021 1950.438477,66.019104 
	C1948.926636,66.632355 1949.056030,68.536514 1949.052368,70.044525 
	C1949.033447,77.709503 1949.036621,85.374557 1949.011475,93.039513 
	C1949.004761,95.124535 1949.114014,97.136787 1951.594360,97.831810 
	C1954.094604,98.532440 1953.011475,100.561089 1953.021484,101.982819 
	C1953.108765,114.479744 1953.071167,126.977539 1953.071045,139.475082 
	C1953.070923,188.299500 1953.070190,237.123917 1953.072632,285.948334 
	C1953.072754,288.370850 1953.595947,290.870026 1950.340454,291.998444 
	C1948.672729,292.576416 1949.024170,294.504974 1949.022217,295.982422 
	C1949.014038,302.314545 1948.954834,308.647980 1949.069214,314.978149 
	C1949.119629,317.766235 1947.909424,321.181885 1952.328613,322.232513 
	C1953.670898,322.551636 1953.054932,324.254791 1953.055298,325.336670 
	C1953.075317,387.325348 1953.070435,449.314026 1953.074707,511.302704 
	C1953.074829,513.121277 1953.259888,514.808533 1950.925537,515.675415 
	C1948.861450,516.441833 1949.032959,518.595459 1949.028320,520.434082 
	C1949.012817,526.599609 1948.904541,532.767944 1949.059082,538.929565 
	C1949.145142,542.358032 1947.654419,546.456848 1952.544434,548.301331 
	C1953.640625,548.714783 1953.065552,550.438171 1953.065918,551.548523 
	C1953.084839,613.203857 1953.076294,674.859253 1953.067383,736.514587 
	C1953.067261,737.345093 1953.352539,738.667114 1952.953491,738.933289 
	C1945.715332,743.760620 1950.063599,751.042175 1949.105713,757.145752 
	C1948.595215,760.398254 1949.036133,763.797180 1949.009766,767.129639 
	C1948.990845,769.525818 1948.978760,771.884949 1951.833008,772.853821 
	C1952.147217,772.960449 1952.707642,773.116516 1952.709839,773.256104 
	C1952.806763,779.896301 1952.979492,786.540649 1952.794800,793.174805 
	C1952.760986,794.393127 1950.813965,793.998230 1949.706665,794.000183 
	C1935.875854,794.025208 1922.044556,793.952209 1908.214844,794.071777 
	C1905.515381,794.095093 1904.582275,793.141235 1904.924316,790.608765 
	C1904.968506,790.281555 1904.929321,789.943054 1904.929932,789.609802 
	C1904.949463,777.108704 1906.309937,778.047363 1892.863892,778.070740 
	C1884.933594,778.084534 1884.933472,778.099487 1884.933472,770.369629 
	C1884.933472,531.746521 1884.933472,293.123444 1884.933350,54.000450 
z"/>
<path fill="#868686" opacity="1.000000" stroke="none" 
	d="
M1860.872314,784.735901 
	C1846.481934,785.153381 1832.152344,785.016296 1817.829834,785.274597 
	C1813.828491,785.346680 1812.910156,784.136536 1812.917358,780.267700 
	C1813.036865,716.295715 1813.002563,652.323364 1813.002563,588.351135 
	C1813.002686,405.430511 1813.002808,222.509918 1812.999878,39.589310 
	C1812.999878,37.757339 1812.958130,35.925373 1812.899170,33.637627 
	C1828.019287,33.139400 1843.176514,33.155277 1858.332153,33.001270 
	C1861.094116,32.973206 1861.932373,33.732883 1862.120972,36.598347 
	C1862.386475,40.630939 1859.931396,45.423779 1864.853027,48.553158 
	C1865.411377,48.908108 1865.053223,50.767090 1865.053223,51.928646 
	C1865.059204,293.298859 1865.059570,534.669067 1865.050903,776.039307 
	C1865.050903,778.242249 1865.776123,780.756897 1862.296875,781.367065 
	C1861.139282,781.570007 1860.927490,783.112732 1860.872314,784.735901 
z"/>
<path fill="#868686" opacity="1.000000" stroke="none" 
	d="
M706.660156,33.133739 
	C707.089172,35.514080 707.003174,37.845451 707.003113,40.176823 
	C706.997314,286.295959 707.001587,532.415100 706.980408,778.534241 
	C706.979736,786.091980 708.092957,785.136047 700.403503,785.161133 
	C685.906677,785.208313 671.409485,785.152405 656.448059,785.061523 
	C655.991394,536.685669 655.999207,288.387604 656.006592,40.089539 
	C656.006836,33.056480 656.004944,33.053238 663.191772,33.056858 
	C677.522949,33.064079 691.854065,33.075237 706.660156,33.133739 
z"/>
<path fill="#868686" opacity="1.000000" stroke="none" 
	d="
M7.933304,699.000000 
	C7.922081,481.866852 7.924243,265.233734 7.806285,48.600632 
	C7.803865,44.156460 8.795362,42.733810 13.460165,42.862309 
	C26.281717,43.215492 39.120903,43.084450 51.949780,42.905724 
	C55.145832,42.861198 56.656952,43.618698 56.078835,46.984707 
	C55.995426,47.470333 56.066807,47.982567 56.066807,48.482491 
	C56.066730,294.944489 56.051270,541.406494 56.177979,787.868469 
	C56.180489,792.754395 55.247211,794.348206 50.042088,794.162903 
	C37.559841,793.718262 25.048582,793.880432 12.554530,794.104492 
	C8.908857,794.169800 7.812131,793.326111 7.834917,789.485291 
	C8.012857,759.491089 7.933347,729.495300 7.933304,699.000000 
z"/>
<path fill="#868686" opacity="1.000000" stroke="none" 
	d="
M1606.660156,33.133682 
	C1607.089600,35.347229 1607.004395,37.511959 1607.004272,39.676689 
	C1606.998413,285.962341 1607.002197,532.248047 1606.983032,778.533691 
	C1606.982422,786.201477 1607.996826,785.123291 1600.405151,785.157898 
	C1587.574829,785.216492 1574.743896,785.152161 1561.448853,785.061890 
	C1560.991943,536.687012 1560.999512,288.389679 1561.006592,40.092381 
	C1561.006714,33.056606 1561.005371,33.053093 1568.190918,33.056946 
	C1580.855713,33.063740 1593.520386,33.075302 1606.660156,33.133682 
z"/>
<path fill="#868686" opacity="1.000000" stroke="none" 
	d="
M1306.660400,33.133694 
	C1307.089478,35.514004 1307.003662,37.845367 1307.003540,40.176735 
	C1306.997681,286.295807 1307.002197,532.414856 1306.980591,778.533936 
	C1306.979980,786.092957 1308.093018,785.131409 1300.403687,785.161377 
	C1287.573242,785.211304 1274.742432,785.152405 1261.447266,785.060974 
	C1260.990967,536.684631 1260.999146,288.386566 1261.007080,40.088497 
	C1261.007202,33.056244 1261.005493,33.052887 1268.190918,33.056808 
	C1280.855713,33.063725 1293.520630,33.075191 1306.660400,33.133694 
z"/>
<path fill="#868686" opacity="1.000000" stroke="none" 
	d="
M1206.660156,33.133682 
	C1207.089600,35.347229 1207.004395,37.511963 1207.004272,39.676693 
	C1206.998413,285.962494 1207.002319,532.248291 1206.983154,778.534119 
	C1206.982544,786.201782 1207.996216,785.123291 1200.404663,785.157898 
	C1187.574341,785.216370 1174.743408,785.152039 1161.448364,785.061523 
	C1160.991577,536.686646 1160.999146,288.389465 1161.006470,40.092331 
	C1161.006714,33.056606 1161.005371,33.053093 1168.191040,33.056950 
	C1180.855713,33.063744 1193.520508,33.075302 1206.660156,33.133682 
z"/>
<path fill="#868686" opacity="1.000000" stroke="none" 
	d="
M1406.660156,33.133682 
	C1407.089600,35.347229 1407.004395,37.511959 1407.004272,39.676689 
	C1406.998413,285.962341 1407.002319,532.248047 1406.983154,778.533691 
	C1406.982544,786.201477 1407.996826,785.123230 1400.405151,785.157898 
	C1387.574829,785.216431 1374.743896,785.152161 1361.448853,785.061890 
	C1360.991943,536.687012 1360.999512,288.389679 1361.006592,40.092381 
	C1361.006714,33.056606 1361.005371,33.053093 1368.190918,33.056946 
	C1380.855713,33.063740 1393.520386,33.075302 1406.660156,33.133682 
z"/>
<path fill="#868686" opacity="1.000000" stroke="none" 
	d="
M1106.660278,33.133694 
	C1107.089355,35.514000 1107.003540,37.845367 1107.003418,40.176735 
	C1106.997803,286.295837 1107.002197,532.414978 1106.980591,778.534058 
	C1106.979980,786.092468 1108.093384,785.131531 1100.403564,785.161377 
	C1087.573120,785.211243 1074.742310,785.152283 1061.447144,785.060913 
	C1060.990845,536.684631 1060.999146,288.386597 1061.007080,40.088516 
	C1061.007202,33.056244 1061.005493,33.052891 1068.190918,33.056812 
	C1080.855713,33.063728 1093.520630,33.075191 1106.660278,33.133694 
z"/>
<path fill="#868686" opacity="1.000000" stroke="none" 
	d="
M1006.660034,33.133720 
	C1007.089294,35.347282 1007.003845,37.512012 1007.003784,39.676746 
	C1006.997925,285.962402 1007.001770,532.248108 1006.982727,778.533752 
	C1006.982117,786.198792 1007.998657,785.123474 1000.405151,785.157898 
	C987.574768,785.216125 974.743896,785.152100 961.448853,785.061890 
	C960.992004,536.687073 960.999573,288.389801 961.006897,40.092564 
	C961.007080,33.056610 961.005554,33.053089 968.190796,33.056946 
	C980.855591,33.063744 993.520325,33.075317 1006.660034,33.133720 
z"/>
<path fill="#868686" opacity="1.000000" stroke="none" 
	d="
M1506.660400,33.133694 
	C1507.089478,35.514004 1507.003662,37.845367 1507.003540,40.176735 
	C1506.997681,286.295807 1507.002197,532.414856 1506.980591,778.533936 
	C1506.979980,786.092957 1508.093018,785.131592 1500.403687,785.161377 
	C1487.573242,785.211060 1474.742432,785.151733 1461.447266,785.060608 
	C1460.991089,536.684753 1460.999268,288.386658 1461.007080,40.088512 
	C1461.007324,33.056244 1461.005493,33.052887 1468.190918,33.056812 
	C1480.855713,33.063728 1493.520630,33.075191 1506.660400,33.133694 
z"/>
<path fill="#868686" opacity="1.000000" stroke="none" 
	d="
M906.660156,33.133739 
	C907.089172,35.514080 907.003174,37.845451 907.003113,40.176823 
	C906.997253,286.295990 907.001587,532.415161 906.980408,778.534363 
	C906.979736,786.091736 908.093262,785.131592 900.403381,785.161377 
	C887.572998,785.211182 874.742126,785.152344 861.447144,785.060913 
	C860.991028,536.684692 860.999512,288.386658 861.007446,40.088676 
	C861.007690,33.056244 861.005493,33.052891 868.190735,33.056816 
	C880.855591,33.063736 893.520386,33.075207 906.660156,33.133739 
z"/>
<path fill="#868686" opacity="1.000000" stroke="none" 
	d="
M806.660034,33.133720 
	C807.089294,35.347282 807.003906,37.512012 807.003845,39.676746 
	C806.997986,285.962402 807.001770,532.248108 806.982727,778.533752 
	C806.982178,786.198792 807.998657,785.123474 800.405151,785.157898 
	C787.574768,785.216125 774.743896,785.152039 761.448853,785.061890 
	C760.992004,536.687073 760.999634,288.389801 761.006958,40.092564 
	C761.007141,33.056610 761.005554,33.053093 768.190796,33.056950 
	C780.855591,33.063747 793.520325,33.075317 806.660034,33.133720 
z"/>
<path fill="#868686" opacity="1.000000" stroke="none" 
	d="
M601.660767,33.133739 
	C602.089722,35.348438 602.003601,37.513180 602.003601,39.677925 
	C601.997742,285.799011 601.998230,531.920105 601.998230,778.041199 
	C601.998291,785.178101 601.997742,785.182617 594.904114,785.177612 
	C582.239929,785.168640 569.575745,785.153503 556.447266,785.061951 
	C555.991028,536.684692 555.999146,288.386414 556.006897,40.088123 
	C556.007141,33.054852 556.005615,33.052399 563.191406,33.056553 
	C575.856262,33.063877 588.521057,33.074528 601.660767,33.133739 
z"/>
<path fill="#868686" opacity="1.000000" stroke="none" 
	d="
M1706.660400,33.133698 
	C1707.089478,35.514000 1707.003540,37.845367 1707.003418,40.176735 
	C1706.997559,286.295807 1707.002197,532.414856 1706.980591,778.533936 
	C1706.979980,786.092896 1708.093018,785.131470 1700.403687,785.161377 
	C1687.573242,785.211304 1674.742432,785.152344 1661.447266,785.060913 
	C1660.990967,536.684631 1660.999268,288.386566 1661.007202,40.088497 
	C1661.007324,33.056244 1661.005493,33.052891 1668.190918,33.056816 
	C1680.855713,33.063732 1693.520630,33.075195 1706.660400,33.133698 
z"/>
<path fill="#868686" opacity="1.000000" stroke="none" 
	d="
M501.659729,33.132465 
	C502.089294,35.346523 502.004486,37.511250 502.004425,39.675972 
	C501.998352,285.958435 502.002075,532.240906 501.981964,778.523376 
	C501.981354,786.058167 503.073547,785.138428 495.403809,785.164246 
	C482.573578,785.207520 469.743011,785.152832 456.448181,785.061523 
	C455.991455,536.685974 455.999207,288.388245 456.006531,40.090534 
	C456.006744,33.056480 456.004913,33.053238 463.190735,33.056885 
	C475.855438,33.063316 488.520172,33.074142 501.659729,33.132465 
z"/>
<path fill="#868686" opacity="1.000000" stroke="none" 
	d="
M401.660889,33.133709 
	C402.089722,35.348385 402.003418,37.513130 402.003357,39.677872 
	C401.997406,285.965698 402.001556,532.253540 401.980530,778.541382 
	C401.979858,786.149719 403.061249,785.128845 395.403717,785.160583 
	C382.573212,785.213745 369.742249,785.153442 356.447205,785.061890 
	C355.990997,536.684570 355.999115,288.386169 356.006927,40.087765 
	C356.007141,33.054852 356.005707,33.052399 363.191742,33.056553 
	C375.856506,33.063873 388.521271,33.074520 401.660889,33.133709 
z"/>
<path fill="#868686" opacity="1.000000" stroke="none" 
	d="
M1806.660156,33.133682 
	C1807.089600,35.347229 1807.004395,37.511959 1807.004272,39.676689 
	C1806.998413,285.962341 1807.002197,532.248047 1806.983032,778.533691 
	C1806.982422,786.201477 1807.996826,785.123230 1800.405151,785.157898 
	C1787.574829,785.216431 1774.743896,785.152161 1761.448853,785.061890 
	C1760.991943,536.687012 1760.999512,288.389679 1761.006592,40.092381 
	C1761.006714,33.056606 1761.005371,33.053093 1768.190918,33.056946 
	C1780.855713,33.063740 1793.520386,33.075302 1806.660156,33.133682 
z"/>
<path fill="#868686" opacity="1.000000" stroke="none" 
	d="
M301.659729,33.132469 
	C302.089294,35.346523 302.004486,37.511250 302.004425,39.675972 
	C301.998352,285.958466 302.002075,532.240967 301.981964,778.523438 
	C301.981354,786.058472 303.073242,785.138489 295.403717,785.164307 
	C282.573517,785.207458 269.742920,785.152771 256.448120,785.061523 
	C255.991409,536.685974 255.999207,288.388245 256.006561,40.090534 
	C256.006775,33.056480 256.004913,33.053234 263.190735,33.056881 
	C275.855438,33.063316 288.520172,33.074146 301.659729,33.132469 
z"/>
<path fill="#868686" opacity="1.000000" stroke="none" 
	d="
M201.660858,33.133717 
	C202.089706,35.348396 202.003448,37.513142 202.003387,39.677883 
	C201.997437,285.965790 202.001602,532.253723 201.980560,778.541626 
	C201.979919,786.149963 203.061096,785.128784 195.403549,785.160522 
	C182.573105,785.213745 169.742203,785.153442 156.447189,785.061890 
	C155.990967,536.684631 155.999084,288.386322 156.006912,40.087990 
	C156.007141,33.054852 156.005676,33.052399 163.191498,33.056553 
	C175.856323,33.063873 188.521164,33.074520 201.660858,33.133717 
z"/>
<path fill="#868686" opacity="1.000000" stroke="none" 
	d="
M1655.000488,784.515137 
	C1642.024292,785.045898 1629.030273,785.064514 1616.037720,785.212341 
	C1613.578857,785.240295 1612.798706,784.273071 1612.979492,781.972900 
	C1613.109619,780.316833 1613.001465,778.642090 1613.001465,776.975708 
	C1613.001465,531.014221 1613.001709,285.052734 1612.999023,39.091255 
	C1612.998901,37.425419 1612.957520,35.759583 1612.898926,33.637970 
	C1625.692627,33.140850 1638.523438,33.169674 1651.351929,33.003017 
	C1654.147705,32.966702 1655.423950,33.757042 1655.004150,36.636223 
	C1654.932861,37.125744 1654.994263,37.634605 1654.994263,38.134548 
	C1654.990601,286.772339 1654.986816,535.410095 1655.000488,784.515137 
z"/>
<path fill="#868686" opacity="1.000000" stroke="none" 
	d="
M1054.999390,784.516602 
	C1042.189331,785.048279 1029.361450,785.036316 1016.536865,785.234253 
	C1013.602600,785.279602 1012.684143,784.210144 1012.974915,781.470703 
	C1013.132324,779.987671 1013.001892,778.474182 1013.001892,776.974426 
	C1013.001953,531.013367 1013.002319,285.052277 1012.999573,39.091225 
	C1012.999573,37.425415 1012.957642,35.759605 1012.898987,33.638016 
	C1025.692749,33.140881 1038.523682,33.169720 1051.352173,33.003002 
	C1054.148193,32.966667 1055.423706,33.757561 1055.004028,36.636383 
	C1054.932617,37.125904 1054.994141,37.634789 1054.994141,38.134731 
	C1054.990479,286.772888 1054.986694,535.411011 1054.999390,784.516602 
z"/>
<path fill="#868686" opacity="1.000000" stroke="none" 
	d="
M1555.000244,784.515259 
	C1542.024048,785.046204 1529.029907,785.064209 1516.037354,785.214050 
	C1513.574097,785.242432 1512.800781,784.274231 1512.979980,781.976501 
	C1513.109131,780.320251 1513.001709,778.645630 1513.001709,776.979248 
	C1513.001709,531.349792 1513.001953,285.720337 1512.999146,40.090889 
	C1512.999146,38.091766 1512.957153,36.092644 1512.898682,33.637711 
	C1525.692627,33.140270 1538.523682,33.169056 1551.352051,33.001690 
	C1554.148926,32.965199 1555.423462,33.755943 1555.003906,36.634636 
	C1554.932617,37.124165 1554.994019,37.633045 1554.994019,38.132988 
	C1554.990479,286.771332 1554.986694,535.409668 1555.000244,784.515259 
z"/>
<path fill="#868686" opacity="1.000000" stroke="none" 
	d="
M1755.000244,784.515259 
	C1742.024048,785.046204 1729.029907,785.064148 1716.037354,785.213989 
	C1713.574097,785.242310 1712.800781,784.274231 1712.980103,781.976501 
	C1713.109253,780.320251 1713.001709,778.645630 1713.001709,776.979248 
	C1713.001709,531.349792 1713.001953,285.720337 1712.999146,40.090889 
	C1712.999146,38.091766 1712.957031,36.092644 1712.898682,33.637711 
	C1725.692627,33.140274 1738.523682,33.169056 1751.352051,33.001690 
	C1754.148926,32.965202 1755.423462,33.755943 1755.003906,36.634636 
	C1754.932617,37.124165 1754.994263,37.633045 1754.994263,38.132988 
	C1754.990601,286.771332 1754.986694,535.409668 1755.000244,784.515259 
z"/>
<path fill="#868686" opacity="1.000000" stroke="none" 
	d="
M1455.000488,784.515198 
	C1442.024292,785.045898 1429.030273,785.064636 1416.037720,785.212402 
	C1413.578857,785.240356 1412.798584,784.273071 1412.979370,781.972900 
	C1413.109497,780.316833 1413.001465,778.642090 1413.001465,776.975708 
	C1413.001465,531.014221 1413.001709,285.052734 1412.999023,39.091255 
	C1412.998901,37.425419 1412.957397,35.759583 1412.898926,33.637970 
	C1425.692627,33.140850 1438.523438,33.169670 1451.351929,33.003014 
	C1454.147705,32.966694 1455.423828,33.757027 1455.004028,36.636204 
	C1454.932739,37.125725 1454.994141,37.634605 1454.994141,38.134548 
	C1454.990601,286.772339 1454.986816,535.410095 1455.000488,784.515198 
z"/>
<path fill="#868686" opacity="1.000000" stroke="none" 
	d="
M1355.000244,784.515259 
	C1342.024048,785.046204 1329.029907,785.064209 1316.037354,785.214050 
	C1313.574097,785.242432 1312.800781,784.274231 1312.979980,781.976440 
	C1313.109131,780.320251 1313.001709,778.645630 1313.001709,776.979248 
	C1313.001709,531.349792 1313.001953,285.720337 1312.999146,40.090889 
	C1312.999146,38.091766 1312.957153,36.092644 1312.898682,33.637711 
	C1325.692627,33.140270 1338.523682,33.169052 1351.352051,33.001690 
	C1354.148926,32.965199 1355.423340,33.755928 1355.003906,36.634636 
	C1354.932617,37.124165 1354.994019,37.633045 1354.994019,38.132988 
	C1354.990479,286.771332 1354.986694,535.409668 1355.000244,784.515259 
z"/>
<path fill="#868686" opacity="1.000000" stroke="none" 
	d="
M1255.000488,784.515137 
	C1242.024292,785.045898 1229.030273,785.064636 1216.037720,785.212402 
	C1213.578857,785.240295 1212.798462,784.273071 1212.979248,781.972900 
	C1213.109375,780.316833 1213.001465,778.642090 1213.001465,776.975708 
	C1213.001465,531.014221 1213.001709,285.052734 1212.999023,39.091255 
	C1212.998901,37.425419 1212.957397,35.759583 1212.898926,33.637970 
	C1225.692627,33.140850 1238.523438,33.169670 1251.351929,33.003010 
	C1254.147705,32.966690 1255.423828,33.757027 1255.004028,36.636204 
	C1254.932739,37.125725 1254.994141,37.634605 1254.994141,38.134548 
	C1254.990601,286.772339 1254.986816,535.410095 1255.000488,784.515137 
z"/>
<path fill="#868686" opacity="1.000000" stroke="none" 
	d="
M1154.999268,784.516357 
	C1142.022705,785.046997 1129.028687,785.064392 1116.036255,785.213989 
	C1113.571655,785.242310 1112.801147,784.271729 1112.979980,781.975342 
	C1113.108887,780.319092 1113.001587,778.644470 1113.001587,776.978088 
	C1113.001709,531.348999 1113.001953,285.719910 1112.999146,40.090832 
	C1112.999146,38.091728 1112.957153,36.092625 1112.898682,33.637711 
	C1125.692627,33.140270 1138.523682,33.169064 1151.352051,33.001686 
	C1154.149048,32.965195 1155.423340,33.756023 1155.003784,36.634686 
	C1154.932495,37.124218 1154.994019,37.633106 1154.994019,38.133049 
	C1154.990356,286.771729 1154.986450,535.410400 1154.999268,784.516357 
z"/>
<path fill="#868686" opacity="1.000000" stroke="none" 
	d="
M955.000244,784.515259 
	C942.024109,785.046265 929.029968,785.064087 916.037476,785.213928 
	C913.574341,785.242310 912.800598,784.274536 912.979919,781.976685 
	C913.109131,780.320435 913.002075,778.645813 913.002075,776.979431 
	C913.002075,531.349915 913.002380,285.720428 912.999573,40.090939 
	C912.999573,38.091839 912.957336,36.092735 912.898865,33.637825 
	C925.692932,33.140350 938.523865,33.169136 951.352295,33.001667 
	C954.149597,32.965149 955.423096,33.756809 955.003906,36.634968 
	C954.932617,37.124531 954.993958,37.633400 954.993958,38.133343 
	C954.990234,286.771576 954.986450,535.409790 955.000244,784.515259 
z"/>
<path fill="#868686" opacity="1.000000" stroke="none" 
	d="
M855.000305,784.515076 
	C842.024109,785.045837 829.030151,785.064575 816.037537,785.212402 
	C813.578491,785.240295 812.798645,784.272705 812.979492,781.972656 
	C813.109680,780.316589 813.002075,778.641846 813.002075,776.975464 
	C813.002014,531.014038 813.002258,285.052673 812.999512,39.091274 
	C812.999512,37.425449 812.957642,35.759621 812.898987,33.638016 
	C825.692688,33.140881 838.523682,33.169716 851.352051,33.003006 
	C854.148132,32.966675 855.423645,33.757557 855.004089,36.636440 
	C854.932739,37.125977 854.994141,37.634850 854.994141,38.134792 
	C854.990417,286.772461 854.986694,535.410095 855.000305,784.515076 
z"/>
<path fill="#868686" opacity="1.000000" stroke="none" 
	d="
M755.000244,784.515259 
	C742.024109,785.046265 729.029968,785.064148 716.037476,785.213989 
	C713.574341,785.242371 712.800476,784.274536 712.979858,781.976685 
	C713.109070,780.320435 713.002075,778.645813 713.002075,776.979431 
	C713.002075,531.349915 713.002380,285.720428 712.999573,40.090939 
	C712.999573,38.091839 712.957397,36.092735 712.898865,33.637825 
	C725.692932,33.140350 738.523865,33.169136 751.352295,33.001667 
	C754.149597,32.965153 755.423157,33.756817 755.004028,36.634987 
	C754.932739,37.124546 754.993896,37.633400 754.993896,38.133343 
	C754.990173,286.771576 754.986450,535.409790 755.000244,784.515259 
z"/>
<path fill="#868686" opacity="1.000000" stroke="none" 
	d="
M649.998962,784.516479 
	C637.022888,785.047424 624.028809,785.064880 611.036316,785.215332 
	C608.570618,785.243835 607.801575,784.273315 607.980042,781.977539 
	C608.108765,780.321167 608.002014,778.646667 608.002014,776.980225 
	C608.001953,531.184021 608.002197,285.387878 607.999329,39.591705 
	C607.999329,37.759258 607.957153,35.926815 607.898438,33.638622 
	C620.692383,33.140816 633.523315,33.168877 646.351746,33.001598 
	C649.148560,32.965126 650.423218,33.758018 650.004395,36.636372 
	C649.933167,37.125969 649.994019,37.634796 649.994019,38.134739 
	C649.989807,286.772858 649.985657,535.411011 649.998962,784.516479 
z"/>
<path fill="#868686" opacity="1.000000" stroke="none" 
	d="
M550.000000,784.515686 
	C537.190613,785.048584 524.362976,785.038635 511.538483,785.236755 
	C508.597748,785.282227 507.679199,784.191345 507.977234,781.460632 
	C508.121002,780.143188 508.001465,778.797119 508.001465,777.463989 
	C508.001373,531.505981 508.001495,285.548004 507.998566,39.590012 
	C507.998535,37.757584 507.957550,35.925159 507.899597,33.636864 
	C520.693542,33.139091 533.524536,33.167534 546.352966,33.000031 
	C549.151672,32.963486 550.422485,33.759216 550.003906,36.635853 
	C549.932678,37.125450 549.993530,37.634281 549.993530,38.134224 
	C549.989990,286.772278 549.986389,535.410339 550.000000,784.515686 
z"/>
<path fill="#868686" opacity="1.000000" stroke="none" 
	d="
M449.998962,784.516418 
	C437.022827,785.047363 424.028778,785.064880 411.036255,785.215332 
	C408.570618,785.243835 407.801453,784.273499 407.980133,781.977539 
	C408.109039,780.321228 408.002289,778.646667 408.002289,776.980286 
	C408.002197,531.184082 408.002411,285.387909 407.999542,39.591736 
	C407.999512,37.759266 407.957245,35.926800 407.898438,33.638584 
	C420.692261,33.140789 433.523254,33.168842 446.351654,33.001614 
	C449.148254,32.965157 450.423370,33.757698 450.004364,36.636288 
	C449.933105,37.125877 449.993988,37.634705 449.993988,38.134647 
	C449.989868,286.772797 449.985687,535.410950 449.998962,784.516418 
z"/>
<path fill="#868686" opacity="1.000000" stroke="none" 
	d="
M350.000000,784.515747 
	C337.190643,785.048645 324.362946,785.038635 311.538483,785.236755 
	C308.597595,785.282227 307.679321,784.191284 307.977264,781.460632 
	C308.121002,780.143250 308.001465,778.797119 308.001465,777.464050 
	C308.001373,531.505981 308.001465,285.547974 307.998535,39.589916 
	C307.998505,37.757523 307.957550,35.925125 307.899597,33.636864 
	C320.693512,33.139091 333.524536,33.167519 346.352966,33.000038 
	C349.151550,32.963501 350.422638,33.759041 350.003906,36.635826 
	C349.932648,37.125408 349.993561,37.634251 349.993561,38.134193 
	C349.990021,286.772278 349.986420,535.410339 350.000000,784.515747 
z"/>
<path fill="#868686" opacity="1.000000" stroke="none" 
	d="
M249.999023,784.516479 
	C237.022980,785.047485 224.028915,785.064941 211.036392,785.215393 
	C208.570862,785.243896 207.801453,784.273743 207.980103,781.977722 
	C208.108994,780.321350 208.002274,778.646851 208.002274,776.980408 
	C208.002197,531.184204 208.002411,285.388000 207.999527,39.591808 
	C207.999496,37.759312 207.957230,35.926819 207.898438,33.638580 
	C220.692245,33.140785 233.523224,33.168846 246.351639,33.001606 
	C249.148270,32.965145 250.423309,33.757729 250.004349,36.636288 
	C249.933090,37.125874 249.993958,37.634708 249.993942,38.134651 
	C249.989807,286.772797 249.985672,535.410950 249.999023,784.516479 
z"/>
<path fill="#868686" opacity="1.000000" stroke="none" 
	d="
M131.000000,14.937696 
	C717.285461,14.937546 1303.070923,14.937389 1888.856323,14.937492 
	C1899.172729,14.937494 1899.165039,14.995729 1898.044556,25.503428 
	C1897.840576,27.416407 1897.244751,28.143053 1895.355835,28.080864 
	C1892.692627,27.993191 1890.023926,28.070263 1887.357666,28.070267 
	C1282.073853,28.070927 676.789978,28.072260 71.506111,28.032125 
	C68.753220,28.031942 64.500565,29.379181 63.555820,27.272879 
	C62.181976,24.209892 62.844051,20.124086 63.051128,16.498026 
	C63.203487,13.830163 65.628746,15.001095 67.004539,14.994513 
	C84.836014,14.909198 102.668022,14.937839 120.499901,14.937733 
	C123.833267,14.937714 127.166634,14.937722 131.000000,14.937696 
z"/>
<path fill="#878787" opacity="1.000000" stroke="none" 
	d="
M1879.408325,776.576599 
	C1875.727417,779.203796 1873.594360,778.979492 1873.934204,774.176880 
	C1873.969360,773.679443 1873.938477,773.177368 1873.938477,772.677490 
	C1873.933105,528.566650 1873.927734,284.455811 1873.922974,40.344967 
	C1873.922974,39.511848 1873.963745,38.677452 1873.930176,37.845886 
	C1873.866455,36.266800 1873.817017,35.009018 1876.113403,34.875061 
	C1878.749878,34.721275 1879.286133,35.907310 1879.092773,38.520218 
	C1880.376343,40.756390 1879.980103,42.816250 1879.980225,44.782265 
	C1879.998901,286.911591 1879.998535,529.040894 1879.989868,771.170227 
	C1879.989746,772.829895 1880.144775,774.507996 1879.408325,776.576599 
z"/>
<path fill="#141414" opacity="1.000000" stroke="none" 
	d="
M1861.016479,795.588074 
	C1859.533936,795.879883 1858.039307,795.992859 1856.544556,795.992859 
	C1260.143066,796.000244 663.741699,795.999939 67.340271,795.998657 
	C66.507225,795.998657 65.674187,795.982239 64.400703,795.854980 
	C63.960266,795.736450 63.973988,795.489075 63.976646,795.365234 
	C66.136086,795.161316 68.292862,795.011292 70.449638,795.011230 
	C666.994202,794.998779 1263.538818,794.996765 1860.519409,794.944824 
	C1860.955444,794.895142 1861.004272,795.356445 1861.016479,795.588074 
z"/>
<path fill="#868686" opacity="1.000000" stroke="none" 
	d="
M22.000816,37.071083 
	C16.671991,37.074844 11.837605,36.945732 7.015979,37.137497 
	C4.547662,37.235661 3.902808,36.371258 3.932289,34.022018 
	C4.045116,25.031298 4.055498,16.037455 3.938944,7.046919 
	C3.907698,4.636695 4.692007,3.927906 7.070150,3.941426 
	C22.389542,4.028517 37.709892,4.021796 53.029369,3.940513 
	C55.399689,3.927937 56.159256,4.651530 56.121689,7.071750 
	C55.984730,15.895224 55.959480,24.724279 56.132511,33.546516 
	C56.188824,36.417679 55.250977,37.170078 52.472515,37.128010 
	C42.483860,36.976768 32.491501,37.070133 22.000816,37.071083 
z"/>
<path fill="#0F0F0F" opacity="1.000000" stroke="none" 
	d="
M1879.552490,776.901917 
	C1879.103760,775.523010 1878.975098,774.028931 1878.975098,772.534851 
	C1878.966919,529.151489 1878.967896,285.768127 1878.970093,42.384758 
	C1878.970093,41.551968 1878.992676,40.719177 1879.074951,39.418671 
	C1879.711548,38.423260 1880.278198,37.895565 1881.000000,37.223385 
	C1881.000000,44.931110 1881.000000,52.349106 1881.000000,59.767101 
	C1881.000000,296.575256 1881.003418,533.383423 1880.945801,770.191589 
	C1880.945312,772.377258 1882.006470,774.866394 1879.552490,776.901917 
z"/>
<path fill="#868686" opacity="1.000000" stroke="none" 
	d="
M1905.018677,10.261230 
	C1905.090576,7.736556 1906.627441,8.018198 1907.910034,8.016826 
	C1921.884155,8.001872 1935.858398,8.046381 1949.832031,7.967781 
	C1952.127197,7.954870 1953.083618,8.559460 1953.039551,11.027951 
	C1952.909180,18.345388 1952.907959,25.668150 1953.039307,32.985538 
	C1953.083984,35.472412 1952.092896,36.042908 1949.815186,36.030281 
	C1936.007935,35.953732 1922.199097,35.904106 1908.393066,36.060535 
	C1905.285156,36.095749 1904.912476,34.767532 1904.959595,32.195934 
	C1905.090698,25.044922 1905.006714,17.889963 1905.018677,10.261230 
z"/>
<path fill="#868686" opacity="1.000000" stroke="none" 
	d="
M33.999916,828.995728 
	C26.182598,828.995361 18.861986,828.868591 11.549498,829.057068 
	C8.645274,829.131958 7.880943,828.126038 7.948729,825.354553 
	C8.119468,818.374023 8.098052,811.384644 7.957639,804.402710 
	C7.906585,801.864014 8.596769,800.926697 11.291329,800.950195 
	C25.093466,801.070679 38.897785,801.069641 52.699936,800.949585 
	C55.382942,800.926270 56.095440,801.841553 56.043171,804.393127 
	C55.900146,811.374878 55.882450,818.364258 56.050304,825.344971 
	C56.116615,828.102905 55.378262,829.158203 52.458527,829.057495 
	C46.478714,828.851257 40.486805,828.995728 33.999916,828.995728 
z"/>
<path fill="#868686" opacity="1.000000" stroke="none" 
	d="
M1905.004150,816.987183 
	C1905.004639,812.499817 1905.181519,808.497925 1904.947510,804.520142 
	C1904.773438,801.563293 1905.952148,800.928040 1908.675781,800.951416 
	C1922.312622,801.068542 1935.951294,801.057678 1949.588379,800.958740 
	C1952.110840,800.940430 1953.114502,801.571838 1953.050537,804.282959 
	C1952.882080,811.430542 1952.880615,818.587341 1953.051270,825.734802 
	C1953.116577,828.467896 1952.068115,829.057251 1949.570312,829.039795 
	C1935.933228,828.944336 1922.294434,828.929504 1908.657715,829.049927 
	C1905.910767,829.074219 1904.704468,828.395325 1904.957275,825.461914 
	C1905.185059,822.820557 1905.004517,820.143982 1905.004150,816.987183 
z"/>
<path fill="#868686" opacity="1.000000" stroke="none" 
	d="
M1886.979370,785.938599 
	C1890.135254,785.935852 1892.795654,785.908203 1895.455078,785.941833 
	C1896.540527,785.955505 1897.914917,785.590820 1898.011841,787.400391 
	C1898.109375,789.218567 1896.813232,789.054993 1895.650391,789.055603 
	C1887.670410,789.059570 1879.690430,789.071716 1871.710571,789.039917 
	C1870.635986,789.035645 1869.154541,789.359802 1869.114624,787.592957 
	C1869.065063,785.407837 1870.843018,785.983276 1872.019897,785.967163 
	C1876.840332,785.900940 1881.662109,785.938904 1886.979370,785.938599 
z"/>
</svg>