<svg version="1.1" id="Layer_1" xmlns="http://www.w3.org/2000/svg" xmlns:xlink="http://www.w3.org/1999/xlink" x="0px" y="0px"
	 width="100%" viewBox="0 0 1965 835" enable-background="new 0 0 1965 835" xml:space="preserve">
<path fill="#050505" opacity="1.000000" stroke="none" 
	d="
M1961.000000,836.000000 
	C1940.312378,836.000000 1919.624878,836.000000 1898.440308,835.571899 
	C1895.983276,834.792908 1894.023193,834.134827 1892.063110,834.134644 
	C1284.394287,834.090637 676.725464,834.091858 69.056664,834.092468 
	C67.557083,834.092468 66.023026,833.914673 64.574120,834.187134 
	C63.957558,834.303101 63.519272,835.366882 62.999985,836.000000 
	C42.342766,836.000000 21.685528,836.000000 1.045220,836.000000 
	C1.045220,557.666687 1.045220,279.333313 1.045220,1.000000 
	C21.414522,1.000000 41.738602,1.000000 62.521641,1.458362 
	C62.980598,3.869430 62.980598,5.822134 62.980598,8.164168 
	C65.008644,8.164168 66.633842,8.170537 68.258980,8.163211 
	C91.749680,8.057318 115.240440,7.886988 138.730988,7.911455 
	C142.156769,7.915023 144.679886,7.330459 146.774399,4.296691 
	C147.675125,2.992048 150.087906,2.152287 151.837921,2.110336 
	C160.831253,1.894747 169.833969,1.922268 178.829544,2.081946 
	C180.486053,2.111350 183.026077,2.670905 183.609985,3.792107 
	C185.720947,7.845507 189.004974,8.041798 192.828125,7.879665 
	C197.152664,7.696269 201.506165,7.629040 205.819244,7.921556 
	C209.287399,8.156767 211.770432,7.312891 213.812805,4.307913 
	C214.642639,3.086978 216.761292,2.143360 218.315079,2.111066 
	C227.809311,1.913739 237.310623,1.951902 246.807037,2.088400 
	C248.120728,2.107282 250.094177,2.743636 250.610916,3.709844 
	C252.959320,8.100963 256.803955,7.999919 260.873291,7.880409 
	C265.202240,7.753275 269.547821,7.659191 273.866669,7.899852 
	C277.005646,8.074768 279.167755,7.311652 280.905365,4.466234 
	C281.673676,3.208099 283.812469,2.139181 285.353210,2.106074 
	C295.013641,1.898497 304.681885,1.941071 314.344635,2.089765 
	C315.647980,2.109821 317.570465,2.841590 318.118286,3.840482 
	C320.359924,7.927784 323.835571,8.139472 327.822388,7.904445 
	C331.807861,7.669496 335.837646,7.606537 339.811615,7.923919 
	C343.594055,8.226003 346.456604,7.423695 348.684967,4.090330 
	C349.429688,2.976289 351.388367,2.127147 352.809753,2.100592 
	C362.138214,1.926310 371.472656,1.938356 380.802124,2.082939 
	C382.310547,2.106316 384.652863,2.676971 385.158447,3.707010 
	C387.421356,8.316968 391.336823,7.946510 395.335785,7.868927 
	C399.167023,7.794597 403.018646,7.622968 406.828491,7.917715 
	C410.593445,8.208988 413.455933,7.433130 415.727509,4.096180 
	C416.537994,2.905599 418.755005,2.135999 420.348816,2.103690 
	C429.510101,1.917978 438.678864,1.919608 447.840485,2.095485 
	C449.470306,2.126774 451.866180,2.815103 452.552795,3.991304 
	C454.822784,7.879978 458.147034,8.041588 461.942535,7.892203 
	C466.434753,7.715396 470.949829,7.636598 475.433533,7.892103 
	C478.569794,8.070825 480.650665,7.187237 482.523865,4.553513 
	C483.474854,3.216491 485.742645,2.161587 487.442780,2.120433 
	C496.935577,1.890643 506.438293,1.928821 515.933716,2.096809 
	C517.362671,2.122089 519.463684,2.933638 520.061462,4.030995 
	C521.988281,7.567977 524.854309,8.053409 528.395447,7.895681 
	C532.719360,7.703081 537.065369,7.702159 541.389099,7.898650 
	C545.073425,8.066084 548.150940,7.699942 550.351074,4.074861 
	C551.078308,2.876723 553.428162,2.132009 555.054688,2.099178 
	C564.216064,1.914259 573.384277,1.936642 582.547058,2.082420 
	C584.037476,2.106132 586.323975,2.682390 586.854187,3.715659 
	C589.165894,8.221103 593.005676,8.012281 597.055603,7.879735 
	C600.884155,7.754432 604.728394,7.695509 608.550354,7.897186 
	C612.258484,8.092857 615.257507,7.529982 617.448059,3.979361 
	C618.175720,2.799907 620.536743,2.121184 622.167786,2.090063 
	C631.329468,1.915261 640.497498,1.934702 649.660156,2.083361 
	C651.152466,2.107572 653.413635,2.684669 653.975952,3.729346 
	C656.334290,8.111025 660.103394,8.024026 664.168579,7.882828 
	C668.495911,7.732526 672.846008,7.643870 677.160767,7.922255 
	C680.293823,8.124398 682.351257,7.195807 684.234619,4.623887 
	C685.214539,3.285813 687.412659,2.165254 689.089539,2.123842 
	C698.582092,1.889419 708.084167,1.954033 717.580933,2.077564 
	C718.914734,2.094914 721.022705,2.639469 721.432861,3.545998 
	C723.561462,8.251055 727.492493,7.974181 731.538086,7.872557 
	C735.201782,7.780526 738.876953,7.708615 742.533752,7.891929 
	C746.523132,8.091912 750.038513,7.809972 752.283569,3.724309 
	C752.815430,2.756329 754.750977,2.105636 756.052063,2.086957 
	C765.548401,1.950628 775.048340,1.956087 784.545105,2.076389 
	C785.899719,2.093548 788.056702,2.609402 788.457153,3.510281 
	C790.681030,8.512600 794.862854,7.974891 799.044678,7.870849 
	C803.041687,7.771407 807.050415,7.657981 811.038879,7.855819 
	C814.244507,8.014825 816.728516,7.539021 818.703247,4.533433 
	C819.584045,3.192860 821.929504,2.167856 823.638123,2.125583 
	C832.964172,1.894843 842.300171,1.935016 851.629150,2.095875 
	C853.092468,2.121108 855.192688,2.834732 855.870605,3.928854 
	C858.161377,7.626160 861.364502,8.123655 865.241272,7.901686 
	C869.393494,7.663945 873.575439,7.721579 877.734375,7.893060 
	C881.227844,8.037102 884.127014,7.756059 886.160706,4.164422 
	C886.879028,2.895813 889.474609,2.142880 891.234436,2.103326 
	C900.228394,1.901189 909.230957,1.920071 918.226135,2.090828 
	C919.847046,2.121597 922.195557,2.756072 922.920959,3.916518 
	C925.359802,7.817712 928.759033,8.141121 932.763245,7.906449 
	C936.915100,7.663128 941.097473,7.715199 945.256287,7.886340 
	C948.591492,8.023589 951.252747,7.651869 953.156555,4.252434 
	C953.880371,2.959985 956.473389,2.140177 958.236877,2.100496 
	C967.397217,1.894375 976.566528,1.921089 985.728271,2.095310 
	C987.363159,2.126400 989.868896,2.784427 990.441528,3.922950 
	C992.520325,8.056401 995.904602,7.984473 999.622070,7.878731 
	C1004.117615,7.750860 1008.629700,7.668983 1013.115479,7.915613 
	C1016.216370,8.086102 1018.324097,7.219957 1020.304810,4.696518 
	C1021.420227,3.275417 1023.812927,2.180922 1025.664185,2.127999 
	C1034.655273,1.870976 1043.659302,1.930287 1052.654663,2.096086 
	C1054.310791,2.126612 1056.757324,2.678852 1057.447876,3.826973 
	C1059.850342,7.821807 1063.298584,8.107917 1067.295776,7.896903 
	C1071.117798,7.695141 1074.963257,7.738902 1078.790283,7.884978 
	C1082.561401,8.028921 1085.977661,7.997050 1088.072266,3.903502 
	C1088.615234,2.842305 1090.792725,2.121046 1092.233887,2.096368 
	C1101.562866,1.936632 1110.897095,1.940014 1120.226440,2.086347 
	C1121.713379,2.109668 1123.965454,2.703013 1124.527466,3.750125 
	C1126.902832,8.174957 1130.730957,8.007956 1134.792725,7.881750 
	C1139.121338,7.747257 1143.461426,7.717943 1147.787842,7.877578 
	C1150.637817,7.982736 1152.727173,7.488802 1154.486938,4.801446 
	C1155.439331,3.347045 1157.921875,2.185074 1159.749512,2.132802 
	C1169.073730,1.866155 1178.410767,1.928367 1187.739990,2.079798 
	C1189.216064,2.103758 1191.459961,2.766330 1192.004517,3.825092 
	C1194.205078,8.104116 1197.785156,8.049998 1201.711792,7.889382 
	C1205.870850,7.719260 1210.053223,7.664777 1214.204712,7.911202 
	C1217.623047,8.114110 1220.169922,7.424017 1222.264282,4.363363 
	C1223.166260,3.045386 1225.566895,2.153754 1227.311646,2.112154 
	C1236.471558,1.893756 1245.640015,1.955148 1254.803833,2.067805 
	C1256.173584,2.084643 1258.311035,2.490744 1258.769531,3.391076 
	C1261.372314,8.500470 1265.837036,8.005117 1270.343506,7.876614 
	C1274.339478,7.762661 1278.350098,7.687856 1282.337524,7.905266 
	C1285.231445,8.063062 1287.240845,7.381674 1289.069336,4.877712 
	C1290.135376,3.417634 1292.513916,2.188098 1294.340210,2.133608 
	C1303.497070,1.860396 1312.667847,1.934762 1321.830444,2.085333 
	C1323.316650,2.109756 1325.548462,2.709456 1326.130615,3.763814 
	C1328.516602,8.085121 1332.273560,8.005495 1336.320435,7.871730 
	C1340.648071,7.728686 1344.999878,7.626903 1349.311890,7.926482 
	C1352.479126,8.146520 1354.495972,7.122938 1356.393799,4.596647 
	C1357.390503,3.269867 1359.568970,2.163373 1361.242065,2.122521 
	C1370.734741,1.890741 1380.236694,1.953178 1389.733398,2.078189 
	C1391.055054,2.095587 1393.147217,2.664091 1393.549316,3.569669 
	C1395.658691,8.318940 1399.628906,7.940422 1403.646606,7.869249 
	C1407.811279,7.795474 1411.984009,7.717340 1416.142334,7.895422 
	C1419.335693,8.032179 1421.827393,7.496516 1423.809326,4.538184 
	C1424.703125,3.204095 1427.001831,2.159811 1428.691040,2.118168 
	C1438.017212,1.888265 1447.353027,1.932058 1456.682251,2.088153 
	C1458.130127,2.112379 1460.206665,2.793317 1460.880981,3.868042 
	C1463.162842,7.503978 1466.265869,8.191779 1470.201416,7.916411 
	C1474.347534,7.626317 1478.538574,7.660947 1482.691772,7.886654 
	C1486.387695,8.087514 1489.463989,7.755676 1491.367432,3.907200 
	C1491.862671,2.905734 1493.814697,2.118644 1495.110352,2.099777 
	C1504.939697,1.956637 1514.772949,1.975059 1524.602783,2.106705 
	C1525.752075,2.122097 1527.441650,2.831199 1527.934692,3.734868 
	C1530.158325,7.810457 1533.666870,8.116887 1537.683594,7.898140 
	C1541.671021,7.681004 1545.685913,7.713603 1549.677124,7.893719 
	C1553.313354,8.057822 1556.504028,7.918718 1558.407227,3.989743 
	C1558.901367,2.969623 1560.839844,2.117604 1562.128540,2.098309 
	C1572.124512,1.948642 1582.124390,1.966844 1592.120850,2.101467 
	C1593.273560,2.116989 1595.059082,2.884241 1595.448853,3.781658 
	C1597.430298,8.344644 1601.227173,7.956817 1605.071045,7.872570 
	C1609.234985,7.781308 1613.411255,7.675633 1617.565552,7.892535 
	C1620.957642,8.069645 1623.584473,7.478359 1625.596680,4.322882 
	C1626.382812,3.089849 1628.574219,2.153338 1630.147583,2.119873 
	C1639.641602,1.917941 1649.143066,1.954652 1658.639526,2.086958 
	C1659.966187,2.105441 1662.022461,2.735184 1662.473389,3.684222 
	C1664.698364,8.366819 1668.687378,7.922212 1672.706543,7.850521 
	C1676.870972,7.776234 1681.043457,7.717520 1685.202026,7.894549 
	C1688.392334,8.030351 1690.944580,7.632204 1692.748901,4.436727 
	C1693.449951,3.195342 1695.623779,2.148306 1697.151001,2.114841 
	C1706.644653,1.906796 1716.146118,1.953251 1725.642822,2.079701 
	C1726.974731,2.097437 1729.011230,2.643696 1729.498291,3.580942 
	C1731.789917,7.991857 1735.537964,8.078434 1739.689575,7.896186 
	C1744.013550,7.706367 1748.361694,7.693564 1752.682373,7.921917 
	C1755.795410,8.086452 1757.930664,7.275498 1759.749268,4.531178 
	C1760.629761,3.202599 1762.920654,2.158858 1764.600586,2.117770 
	C1773.926636,1.889693 1783.262207,1.942024 1792.591919,2.078049 
	C1794.088257,2.099866 1796.420776,2.608258 1796.914795,3.608688 
	C1799.151123,8.137648 1802.928223,8.023534 1807.007812,7.888833 
	C1811.835205,7.729439 1816.677124,7.967096 1821.500610,7.755411 
	C1822.919434,7.693137 1824.901123,7.086048 1825.583374,6.045693 
	C1827.897827,2.516661 1830.925903,1.575347 1834.918091,1.946734 
	C1838.222168,2.254093 1841.594116,1.812848 1844.903076,2.092916 
	C1846.377197,2.217682 1848.469604,2.916141 1849.073242,4.016827 
	C1851.126221,7.759588 1854.184692,8.176789 1857.899048,7.903672 
	C1860.541138,7.709396 1863.219360,8.067703 1865.881592,8.074236 
	C1876.470459,8.100224 1887.059326,8.084936 1897.678955,8.084936 
	C1897.805298,5.297960 1897.902588,3.148981 1898.000000,1.000001 
	C1918.687622,1.000000 1939.375122,1.000000 1960.679321,1.445879 
	C1961.295898,6.459787 1961.295898,11.027815 1961.295898,16.000000 
	C1963.145996,16.000000 1964.572998,16.000000 1966.000000,16.000000 
	C1966.000000,22.354399 1966.000000,28.708796 1965.567871,35.586708 
	C1964.020264,36.251991 1962.904785,36.393764 1961.679321,36.549538 
	C1961.504150,42.853504 1965.856689,48.344788 1962.495972,55.191277 
	C1961.101196,58.032234 1965.108032,63.538643 1960.118774,66.817032 
	C1959.963745,66.918846 1960.109863,67.455170 1960.088379,67.787201 
	C1959.620361,75.035118 1959.148560,82.282791 1958.688354,89.361877 
	C1964.673218,91.095398 1964.787842,91.575714 1962.644165,96.642502 
	C1961.975098,98.223877 1962.026367,100.179375 1962.025269,101.963783 
	C1961.995605,151.451828 1961.972168,200.939957 1962.079102,250.427811 
	C1962.085083,253.227859 1963.430786,256.002808 1963.718506,258.833588 
	C1963.866333,260.288635 1963.526978,262.296753 1962.591064,263.268066 
	C1959.200317,266.787140 1959.212769,270.162567 1962.531738,273.899567 
	C1963.466919,274.952484 1963.499878,277.116150 1963.374634,278.725922 
	C1963.203491,280.926331 1962.064819,283.083893 1962.062988,285.260376 
	C1961.991333,372.239349 1961.989624,459.218353 1962.070557,546.197327 
	C1962.072632,548.338684 1963.340332,550.453369 1963.582397,552.628906 
	C1963.746948,554.107788 1963.675659,556.144104 1962.802490,557.114929 
	C1959.072632,561.261292 1959.065796,563.707947 1962.883423,567.740662 
	C1963.683105,568.585266 1963.803101,570.437866 1963.640503,571.752258 
	C1963.309082,574.433228 1962.080566,577.062988 1962.075073,579.715515 
	C1961.975464,628.370300 1961.962158,677.025391 1962.082153,725.680054 
	C1962.091187,729.334778 1963.356934,732.973083 1963.796143,736.647949 
	C1963.934937,737.808289 1963.588745,739.902771 1962.942871,740.138062 
	C1958.810547,741.643738 1959.428711,745.365662 1959.217651,748.280029 
	C1958.809937,753.909790 1959.098755,759.590027 1959.098755,765.183228 
	C1964.426636,767.457886 1964.167236,767.379211 1962.350830,773.369751 
	C1961.706421,775.495056 1962.637817,778.108765 1962.897583,780.494324 
	C1963.127930,782.609131 1963.916138,784.800903 1963.572876,786.807190 
	C1963.096558,789.590820 1961.792358,792.232788 1960.695557,795.354004 
	C1963.089844,795.645569 1964.544922,795.822815 1966.000000,796.000000 
	C1966.000000,802.354431 1966.000000,808.708801 1965.574707,815.473267 
	C1964.015137,815.980103 1962.880737,816.076843 1961.000000,816.237305 
	C1961.000000,822.879578 1961.000000,829.439819 1961.000000,836.000000 
M1860.989990,794.003235 
	C1860.927856,791.050537 1860.865723,788.097778 1860.920288,784.354553 
	C1861.122559,783.563965 1861.119263,782.233154 1861.558594,782.066040 
	C1866.228394,780.289978 1865.027588,776.338318 1865.027954,772.922180 
	C1865.048828,533.258545 1865.046509,293.594940 1865.046265,53.931309 
	C1865.046265,52.764664 1865.096069,51.594955 1865.026489,50.432423 
	C1864.978027,49.622555 1864.960449,48.229675 1864.595215,48.109169 
	C1860.639038,46.804085 1862.208862,43.550716 1862.028076,41.008553 
	C1861.845337,38.439144 1861.987915,35.846592 1861.987915,33.263481 
	C1260.911133,33.263481 660.639099,33.263481 60.841934,33.263481 
	C60.841934,39.755444 60.842819,45.980721 60.841805,52.206001 
	C60.808159,258.869720 60.750950,465.533478 60.761879,672.197205 
	C60.763870,709.845215 61.043896,747.493164 61.049194,786.005432 
	C61.583302,789.224426 59.129795,793.392578 63.976696,795.487183 
	C63.976696,795.487183 63.964775,795.734497 63.277676,796.296997 
	C63.277676,806.073669 63.277676,815.850342 63.277676,825.800415 
	C674.870544,825.800415 1286.212769,825.800415 1897.697021,825.800415 
	C1897.697021,815.792969 1897.697021,806.053589 1897.697021,795.822998 
	C1885.281982,795.822998 1873.153198,795.822998 1861.000488,795.358459 
	C1861.000488,795.358459 1860.953735,794.889648 1860.989990,794.003235 
M1884.942627,561.500000 
	C1884.942627,633.595947 1884.942627,705.691956 1884.942627,778.059265 
	C1890.388062,778.059265 1895.195679,778.130188 1900.000000,778.036011 
	C1903.612183,777.965271 1905.156372,779.545410 1904.976685,783.179810 
	C1904.806274,786.625305 1904.940063,790.085876 1904.940063,793.730103 
	C1921.174072,793.730103 1936.903564,793.730103 1953.069702,793.730103 
	C1953.069702,787.329773 1953.098511,781.201477 1953.030029,775.074158 
	C1953.022339,774.385742 1952.609985,773.239441 1952.139404,773.092346 
	C1948.663330,772.006042 1949.007446,769.223083 1949.007935,766.556152 
	C1949.009399,759.556824 1948.936523,752.555969 1949.072876,745.559265 
	C1949.103149,744.004089 1949.458740,741.474365 1950.374023,741.092285 
	C1953.799072,739.662354 1953.053101,736.994995 1953.053467,734.484680 
	C1953.064453,675.323425 1953.081909,616.162170 1953.015625,557.000977 
	C1953.011353,553.185059 1954.713623,548.675354 1949.721436,546.191895 
	C1949.170288,545.917786 1949.067383,544.381409 1949.061890,543.428711 
	C1949.015381,535.430115 1948.960205,527.429382 1949.124512,519.433777 
	C1949.151001,518.147522 1950.234253,516.874268 1950.861816,515.611267 
	C1951.575439,514.175354 1952.965942,512.758850 1952.968384,511.332092 
	C1953.076782,449.337952 1953.067383,387.343597 1953.035278,325.349304 
	C1953.034668,324.285950 1952.779663,322.399689 1952.311157,322.287659 
	C1947.898438,321.232513 1949.109253,317.773834 1949.059326,314.983154 
	C1948.946045,308.652374 1948.941040,302.316956 1949.065186,295.986847 
	C1949.092041,294.616119 1949.504272,292.367371 1950.325928,292.051788 
	C1953.810669,290.713379 1953.052734,287.986023 1953.053223,285.465820 
	C1953.064575,236.136993 1953.061768,186.808182 1953.061768,137.479355 
	C1953.061768,125.647263 1953.110229,113.814697 1952.995483,101.983711 
	C1952.982178,100.599556 1952.138428,99.193443 1951.554077,97.852234 
	C1950.768799,96.049789 1948.904663,94.145081 1949.163208,92.553825 
	C1950.736450,82.867722 1944.812378,72.161018 1953.017700,63.395782 
	C1953.017700,56.650066 1953.017700,49.904350 1953.017700,42.825481 
	C1934.300293,42.825481 1916.359131,42.825481 1898.256958,42.825481 
	C1898.056885,40.073032 1897.881348,37.658382 1897.707275,35.264347 
	C1893.314575,35.264347 1889.257202,35.264347 1884.942627,35.264347 
	C1884.942627,210.574051 1884.942627,385.537018 1884.942627,561.500000 
M56.057350,637.500000 
	C56.057350,439.438965 56.057350,241.377945 56.057350,43.283665 
	C39.744408,43.283665 24.011866,43.283665 8.219783,43.283665 
	C8.219783,293.600220 8.219783,543.615540 8.219783,793.696655 
	C24.263344,793.696655 39.999084,793.696655 56.057392,793.696655 
	C56.057392,741.754822 56.057392,690.127380 56.057350,637.500000 
M63.753941,27.924183 
	C65.418007,27.970030 67.082077,28.056026 68.746140,28.056059 
	C676.522461,28.067966 1284.298706,28.073994 1892.075073,28.080128 
	C1893.983276,28.080147 1895.891602,28.080130 1897.721680,28.080130 
	C1897.721680,23.287905 1897.721680,19.346251 1897.721680,15.167255 
	C1286.107788,15.167255 674.759277,15.167255 63.079292,15.167255 
	C63.079292,19.339836 63.079292,23.292210 63.753941,27.924183 
M1873.947998,764.492310 
	C1873.947998,768.936890 1873.947998,773.381470 1873.947998,778.145081 
	C1875.968750,777.973999 1877.363647,777.855896 1878.704102,777.742432 
	C1878.704102,529.955200 1878.704102,282.557739 1878.704102,34.875847 
	C1876.967896,35.028069 1875.560059,35.151497 1873.947998,35.292839 
	C1873.947998,278.252960 1873.947998,520.874207 1873.947998,764.492310 
M37.499542,37.060726 
	C43.585506,37.060726 49.671471,37.060726 55.745636,37.060726 
	C55.745636,25.726683 55.745636,15.012366 55.745636,4.312959 
	C38.377167,4.312959 21.333025,4.312959 4.301414,4.312959 
	C4.301414,15.372220 4.301414,26.096630 4.301414,37.060768 
	C15.244595,37.060768 25.872116,37.060768 37.499542,37.060726 
M1915.525269,8.013225 
	C1912.107178,8.013225 1908.689209,8.013225 1905.424561,8.013225 
	C1905.424561,17.765966 1905.424561,26.798574 1905.424561,35.714775 
	C1921.404663,35.714775 1936.970459,35.714775 1952.662720,35.714775 
	C1952.662720,26.411743 1952.662720,17.382603 1952.662720,8.013230 
	C1940.400269,8.013230 1928.459961,8.013230 1915.525269,8.013225 
M28.500172,801.013000 
	C21.757227,801.013000 15.014284,801.013000 8.423995,801.013000 
	C8.423995,810.764587 8.423995,819.797058 8.423995,828.718750 
	C24.401808,828.718750 39.967457,828.718750 55.664665,828.718750 
	C55.664665,819.416260 55.664665,810.387024 55.664665,801.013000 
	C46.731388,801.013000 38.115757,801.013000 28.500172,801.013000 
M1952.987061,821.426208 
	C1952.987061,814.688354 1952.987061,807.950439 1952.987061,801.257812 
	C1936.649658,801.257812 1921.082764,801.257812 1905.312500,801.257812 
	C1905.312500,810.534302 1905.312500,819.564209 1905.312500,828.650391 
	C1921.298828,828.650391 1936.983276,828.650391 1952.987061,828.650391 
	C1952.987061,826.345520 1952.987061,824.374756 1952.987061,821.426208 
M1897.133301,788.988464 
	C1896.894775,787.978149 1896.670898,786.088806 1896.415405,786.084534 
	C1887.345825,785.932617 1878.273438,785.957458 1868.925781,785.957458 
	C1869.177734,787.296570 1869.278198,788.448486 1869.411743,788.452393 
	C1878.337524,788.708984 1887.265991,788.872925 1897.133301,788.988464 
z"/>
<path fill="#F6F6F6" opacity="1.000000" stroke="none" 
	d="
M1897.531372,1.000001 
	C1897.902588,3.148981 1897.805298,5.297960 1897.678955,8.084936 
	C1887.059326,8.084936 1876.470459,8.100224 1865.881592,8.074236 
	C1863.219360,8.067703 1860.541138,7.709396 1857.899048,7.903672 
	C1854.184692,8.176789 1851.126221,7.759588 1849.073242,4.016827 
	C1848.469604,2.916141 1846.377197,2.217682 1844.903076,2.092916 
	C1841.594116,1.812848 1838.222168,2.254093 1834.918091,1.946734 
	C1830.925903,1.575347 1827.897827,2.516661 1825.583374,6.045693 
	C1824.901123,7.086048 1822.919434,7.693137 1821.500610,7.755411 
	C1816.677124,7.967096 1811.835205,7.729439 1807.007812,7.888833 
	C1802.928223,8.023534 1799.151123,8.137648 1796.914795,3.608688 
	C1796.420776,2.608258 1794.088257,2.099866 1792.591919,2.078049 
	C1783.262207,1.942024 1773.926636,1.889693 1764.600586,2.117770 
	C1762.920654,2.158858 1760.629761,3.202599 1759.749268,4.531178 
	C1757.930664,7.275498 1755.795410,8.086452 1752.682373,7.921917 
	C1748.361694,7.693564 1744.013550,7.706367 1739.689575,7.896186 
	C1735.537964,8.078434 1731.789917,7.991857 1729.498291,3.580942 
	C1729.011230,2.643696 1726.974731,2.097437 1725.642822,2.079701 
	C1716.146118,1.953251 1706.644653,1.906796 1697.151001,2.114841 
	C1695.623779,2.148306 1693.449951,3.195342 1692.748901,4.436727 
	C1690.944580,7.632204 1688.392334,8.030351 1685.202026,7.894549 
	C1681.043457,7.717520 1676.870972,7.776234 1672.706543,7.850521 
	C1668.687378,7.922212 1664.698364,8.366819 1662.473389,3.684222 
	C1662.022461,2.735184 1659.966187,2.105441 1658.639526,2.086958 
	C1649.143066,1.954652 1639.641602,1.917941 1630.147583,2.119873 
	C1628.574219,2.153338 1626.382812,3.089849 1625.596680,4.322882 
	C1623.584473,7.478359 1620.957642,8.069645 1617.565552,7.892535 
	C1613.411255,7.675633 1609.234985,7.781308 1605.071045,7.872570 
	C1601.227173,7.956817 1597.430298,8.344644 1595.448853,3.781658 
	C1595.059082,2.884241 1593.273560,2.116989 1592.120850,2.101467 
	C1582.124390,1.966844 1572.124512,1.948642 1562.128540,2.098309 
	C1560.839844,2.117604 1558.901367,2.969623 1558.407227,3.989743 
	C1556.504028,7.918718 1553.313354,8.057822 1549.677124,7.893719 
	C1545.685913,7.713603 1541.671021,7.681004 1537.683594,7.898140 
	C1533.666870,8.116887 1530.158325,7.810457 1527.934692,3.734868 
	C1527.441650,2.831199 1525.752075,2.122097 1524.602783,2.106705 
	C1514.772949,1.975059 1504.939697,1.956637 1495.110352,2.099777 
	C1493.814697,2.118644 1491.862671,2.905734 1491.367432,3.907200 
	C1489.463989,7.755676 1486.387695,8.087514 1482.691772,7.886654 
	C1478.538574,7.660947 1474.347534,7.626317 1470.201416,7.916411 
	C1466.265869,8.191779 1463.162842,7.503978 1460.880981,3.868042 
	C1460.206665,2.793317 1458.130127,2.112379 1456.682251,2.088153 
	C1447.353027,1.932058 1438.017212,1.888265 1428.691040,2.118168 
	C1427.001831,2.159811 1424.703125,3.204095 1423.809326,4.538184 
	C1421.827393,7.496516 1419.335693,8.032179 1416.142334,7.895422 
	C1411.984009,7.717340 1407.811279,7.795474 1403.646606,7.869249 
	C1399.628906,7.940422 1395.658691,8.318940 1393.549316,3.569669 
	C1393.147217,2.664091 1391.055054,2.095587 1389.733398,2.078189 
	C1380.236694,1.953178 1370.734741,1.890741 1361.242065,2.122521 
	C1359.568970,2.163373 1357.390503,3.269867 1356.393799,4.596647 
	C1354.495972,7.122938 1352.479126,8.146520 1349.311890,7.926482 
	C1344.999878,7.626903 1340.648071,7.728686 1336.320435,7.871730 
	C1332.273560,8.005495 1328.516602,8.085121 1326.130615,3.763814 
	C1325.548462,2.709456 1323.316650,2.109756 1321.830444,2.085333 
	C1312.667847,1.934762 1303.497070,1.860396 1294.340210,2.133608 
	C1292.513916,2.188098 1290.135376,3.417634 1289.069336,4.877712 
	C1287.240845,7.381674 1285.231445,8.063062 1282.337524,7.905266 
	C1278.350098,7.687856 1274.339478,7.762661 1270.343506,7.876614 
	C1265.837036,8.005117 1261.372314,8.500470 1258.769531,3.391076 
	C1258.311035,2.490744 1256.173584,2.084643 1254.803833,2.067805 
	C1245.640015,1.955148 1236.471558,1.893756 1227.311646,2.112154 
	C1225.566895,2.153754 1223.166260,3.045386 1222.264282,4.363363 
	C1220.169922,7.424017 1217.623047,8.114110 1214.204712,7.911202 
	C1210.053223,7.664777 1205.870850,7.719260 1201.711792,7.889382 
	C1197.785156,8.049998 1194.205078,8.104116 1192.004517,3.825092 
	C1191.459961,2.766330 1189.216064,2.103758 1187.739990,2.079798 
	C1178.410767,1.928367 1169.073730,1.866155 1159.749512,2.132802 
	C1157.921875,2.185074 1155.439331,3.347045 1154.486938,4.801446 
	C1152.727173,7.488802 1150.637817,7.982736 1147.787842,7.877578 
	C1143.461426,7.717943 1139.121338,7.747257 1134.792725,7.881750 
	C1130.730957,8.007956 1126.902832,8.174957 1124.527466,3.750125 
	C1123.965454,2.703013 1121.713379,2.109668 1120.226440,2.086347 
	C1110.897095,1.940014 1101.562866,1.936632 1092.233887,2.096368 
	C1090.792725,2.121046 1088.615234,2.842305 1088.072266,3.903502 
	C1085.977661,7.997050 1082.561401,8.028921 1078.790283,7.884978 
	C1074.963257,7.738902 1071.117798,7.695141 1067.295776,7.896903 
	C1063.298584,8.107917 1059.850342,7.821807 1057.447876,3.826973 
	C1056.757324,2.678852 1054.310791,2.126612 1052.654663,2.096086 
	C1043.659302,1.930287 1034.655273,1.870976 1025.664185,2.127999 
	C1023.812927,2.180922 1021.420227,3.275417 1020.304810,4.696518 
	C1018.324097,7.219957 1016.216370,8.086102 1013.115479,7.915613 
	C1008.629700,7.668983 1004.117615,7.750860 999.622070,7.878731 
	C995.904602,7.984473 992.520325,8.056401 990.441528,3.922950 
	C989.868896,2.784427 987.363159,2.126400 985.728271,2.095310 
	C976.566528,1.921089 967.397217,1.894375 958.236877,2.100496 
	C956.473389,2.140177 953.880371,2.959985 953.156555,4.252434 
	C951.252747,7.651869 948.591492,8.023589 945.256287,7.886340 
	C941.097473,7.715199 936.915100,7.663128 932.763245,7.906449 
	C928.759033,8.141121 925.359802,7.817712 922.920959,3.916518 
	C922.195557,2.756072 919.847046,2.121597 918.226135,2.090828 
	C909.230957,1.920071 900.228394,1.901189 891.234436,2.103326 
	C889.474609,2.142880 886.879028,2.895813 886.160706,4.164422 
	C884.127014,7.756059 881.227844,8.037102 877.734375,7.893060 
	C873.575439,7.721579 869.393494,7.663945 865.241272,7.901686 
	C861.364502,8.123655 858.161377,7.626160 855.870605,3.928854 
	C855.192688,2.834732 853.092468,2.121108 851.629150,2.095875 
	C842.300171,1.935016 832.964172,1.894843 823.638123,2.125583 
	C821.929504,2.167856 819.584045,3.192860 818.703247,4.533433 
	C816.728516,7.539021 814.244507,8.014825 811.038879,7.855819 
	C807.050415,7.657981 803.041687,7.771407 799.044678,7.870849 
	C794.862854,7.974891 790.681030,8.512600 788.457153,3.510281 
	C788.056702,2.609402 785.899719,2.093548 784.545105,2.076389 
	C775.048340,1.956087 765.548401,1.950628 756.052063,2.086957 
	C754.750977,2.105636 752.815430,2.756329 752.283569,3.724309 
	C750.038513,7.809972 746.523132,8.091912 742.533752,7.891929 
	C738.876953,7.708615 735.201782,7.780526 731.538086,7.872557 
	C727.492493,7.974181 723.561462,8.251055 721.432861,3.545998 
	C721.022705,2.639469 718.914734,2.094914 717.580933,2.077564 
	C708.084167,1.954033 698.582092,1.889419 689.089539,2.123842 
	C687.412659,2.165254 685.214539,3.285813 684.234619,4.623887 
	C682.351257,7.195807 680.293823,8.124398 677.160767,7.922255 
	C672.846008,7.643870 668.495911,7.732526 664.168579,7.882828 
	C660.103394,8.024026 656.334290,8.111025 653.975952,3.729346 
	C653.413635,2.684669 651.152466,2.107572 649.660156,2.083361 
	C640.497498,1.934702 631.329468,1.915261 622.167786,2.090063 
	C620.536743,2.121184 618.175720,2.799907 617.448059,3.979361 
	C615.257507,7.529982 612.258484,8.092857 608.550354,7.897186 
	C604.728394,7.695509 600.884155,7.754432 597.055603,7.879735 
	C593.005676,8.012281 589.165894,8.221103 586.854187,3.715659 
	C586.323975,2.682390 584.037476,2.106132 582.547058,2.082420 
	C573.384277,1.936642 564.216064,1.914259 555.054688,2.099178 
	C553.428162,2.132009 551.078308,2.876723 550.351074,4.074861 
	C548.150940,7.699942 545.073425,8.066084 541.389099,7.898650 
	C537.065369,7.702159 532.719360,7.703081 528.395447,7.895681 
	C524.854309,8.053409 521.988281,7.567977 520.061462,4.030995 
	C519.463684,2.933638 517.362671,2.122089 515.933716,2.096809 
	C506.438293,1.928821 496.935577,1.890643 487.442780,2.120433 
	C485.742645,2.161587 483.474854,3.216491 482.523865,4.553513 
	C480.650665,7.187237 478.569794,8.070825 475.433533,7.892103 
	C470.949829,7.636598 466.434753,7.715396 461.942535,7.892203 
	C458.147034,8.041588 454.822784,7.879978 452.552795,3.991304 
	C451.866180,2.815103 449.470306,2.126774 447.840485,2.095485 
	C438.678864,1.919608 429.510101,1.917978 420.348816,2.103690 
	C418.755005,2.135999 416.537994,2.905599 415.727509,4.096180 
	C413.455933,7.433130 410.593445,8.208988 406.828491,7.917715 
	C403.018646,7.622968 399.167023,7.794597 395.335785,7.868927 
	C391.336823,7.946510 387.421356,8.316968 385.158447,3.707010 
	C384.652863,2.676971 382.310547,2.106316 380.802124,2.082939 
	C371.472656,1.938356 362.138214,1.926310 352.809753,2.100592 
	C351.388367,2.127147 349.429688,2.976289 348.684967,4.090330 
	C346.456604,7.423695 343.594055,8.226003 339.811615,7.923919 
	C335.837646,7.606537 331.807861,7.669496 327.822388,7.904445 
	C323.835571,8.139472 320.359924,7.927784 318.118286,3.840482 
	C317.570465,2.841590 315.647980,2.109821 314.344635,2.089765 
	C304.681885,1.941071 295.013641,1.898497 285.353210,2.106074 
	C283.812469,2.139181 281.673676,3.208099 280.905365,4.466234 
	C279.167755,7.311652 277.005646,8.074768 273.866669,7.899852 
	C269.547821,7.659191 265.202240,7.753275 260.873291,7.880409 
	C256.803955,7.999919 252.959320,8.100963 250.610916,3.709844 
	C250.094177,2.743636 248.120728,2.107282 246.807037,2.088400 
	C237.310623,1.951902 227.809311,1.913739 218.315079,2.111066 
	C216.761292,2.143360 214.642639,3.086978 213.812805,4.307913 
	C211.770432,7.312891 209.287399,8.156767 205.819244,7.921556 
	C201.506165,7.629040 197.152664,7.696269 192.828125,7.879665 
	C189.004974,8.041798 185.720947,7.845507 183.609985,3.792107 
	C183.026077,2.670905 180.486053,2.111350 178.829544,2.081946 
	C169.833969,1.922268 160.831253,1.894747 151.837921,2.110336 
	C150.087906,2.152287 147.675125,2.992048 146.774399,4.296691 
	C144.679886,7.330459 142.156769,7.915023 138.730988,7.911455 
	C115.240440,7.886988 91.749680,8.057318 68.258980,8.163211 
	C66.633842,8.170537 65.008644,8.164168 62.980598,8.164168 
	C62.980598,5.822134 62.980598,3.869430 62.990299,1.458362 
	C674.354248,1.000000 1285.708496,1.000000 1897.531372,1.000001 
z"/>
<path fill="#DFDFDF" opacity="1.000000" stroke="none" 
	d="
M63.466026,836.000000 
	C63.519272,835.366882 63.957558,834.303101 64.574120,834.187134 
	C66.023026,833.914673 67.557083,834.092468 69.056664,834.092468 
	C676.725464,834.091858 1284.394287,834.090637 1892.063110,834.134644 
	C1894.023193,834.134827 1895.983276,834.792908 1897.971680,835.571899 
	C1286.644043,836.000000 675.288086,836.000000 63.466026,836.000000 
z"/>
<path fill="#FBFBFB" opacity="1.000000" stroke="none" 
	d="
M1966.000000,795.531372 
	C1964.544922,795.822815 1963.089844,795.645569 1960.695557,795.354004 
	C1961.792358,792.232788 1963.096558,789.590820 1963.572876,786.807190 
	C1963.916138,784.800903 1963.127930,782.609131 1962.897583,780.494324 
	C1962.637817,778.108765 1961.706421,775.495056 1962.350830,773.369751 
	C1964.167236,767.379211 1964.426636,767.457886 1959.098755,765.183228 
	C1959.098755,759.590027 1958.809937,753.909790 1959.217651,748.280029 
	C1959.428711,745.365662 1958.810547,741.643738 1962.942871,740.138062 
	C1963.588745,739.902771 1963.934937,737.808289 1963.796143,736.647949 
	C1963.356934,732.973083 1962.091187,729.334778 1962.082153,725.680054 
	C1961.962158,677.025391 1961.975464,628.370300 1962.075073,579.715515 
	C1962.080566,577.062988 1963.309082,574.433228 1963.640503,571.752258 
	C1963.803101,570.437866 1963.683105,568.585266 1962.883423,567.740662 
	C1959.065796,563.707947 1959.072632,561.261292 1962.802490,557.114929 
	C1963.675659,556.144104 1963.746948,554.107788 1963.582397,552.628906 
	C1963.340332,550.453369 1962.072632,548.338684 1962.070557,546.197327 
	C1961.989624,459.218353 1961.991333,372.239349 1962.062988,285.260376 
	C1962.064819,283.083893 1963.203491,280.926331 1963.374634,278.725922 
	C1963.499878,277.116150 1963.466919,274.952484 1962.531738,273.899567 
	C1959.212769,270.162567 1959.200317,266.787140 1962.591064,263.268066 
	C1963.526978,262.296753 1963.866333,260.288635 1963.718506,258.833588 
	C1963.430786,256.002808 1962.085083,253.227859 1962.079102,250.427811 
	C1961.972168,200.939957 1961.995605,151.451828 1962.025269,101.963783 
	C1962.026367,100.179375 1961.975098,98.223877 1962.644165,96.642502 
	C1964.787842,91.575714 1964.673218,91.095398 1958.688354,89.361877 
	C1959.148560,82.282791 1959.620361,75.035118 1960.088379,67.787201 
	C1960.109863,67.455170 1959.963745,66.918846 1960.118774,66.817032 
	C1965.108032,63.538643 1961.101196,58.032234 1962.495972,55.191277 
	C1965.856689,48.344788 1961.504150,42.853504 1961.679321,36.549538 
	C1962.904785,36.393764 1964.020264,36.251991 1965.567871,36.055107 
	C1966.000000,289.020905 1966.000000,542.041809 1966.000000,795.531372 
z"/>
<path fill="#E5E5E5" opacity="1.000000" stroke="none" 
	d="
M1961.500000,836.000000 
	C1961.000000,829.439819 1961.000000,822.879578 1961.000000,816.237305 
	C1962.880737,816.076843 1964.015137,815.980103 1965.574707,815.941650 
	C1966.000000,822.666748 1966.000000,829.333557 1966.000000,836.000000 
	C1964.612061,836.000000 1963.306030,836.000000 1961.500000,836.000000 
z"/>
<path fill="#E5E5E5" opacity="1.000000" stroke="none" 
	d="
M1966.000000,15.527336 
	C1964.572998,16.000000 1963.145996,16.000000 1961.295898,16.000000 
	C1961.295898,11.027815 1961.295898,6.459787 1961.147949,1.445879 
	C1962.628662,1.000000 1964.257202,1.000000 1966.000000,1.000000 
	C1966.000000,5.684506 1966.000000,10.369590 1966.000000,15.527336 
z"/>
<path fill="#868686" opacity="1.000000" stroke="none" 
	d="
M61.195580,785.141174 
	C61.043896,747.493164 60.763870,709.845215 60.761879,672.197205 
	C60.750950,465.533478 60.808159,258.869720 60.841805,52.206001 
	C60.842819,45.980721 60.841934,39.755444 60.841934,33.263481 
	C660.639099,33.263481 1260.911133,33.263481 1861.987915,33.263481 
	C1861.987915,35.846592 1861.845337,38.439144 1862.028076,41.008553 
	C1862.208862,43.550716 1860.639038,46.804085 1864.595215,48.109169 
	C1864.960449,48.229675 1864.978027,49.622555 1865.026489,50.432423 
	C1865.096069,51.594955 1865.046265,52.764664 1865.046265,53.931309 
	C1865.046509,293.594940 1865.048828,533.258545 1865.027954,772.922180 
	C1865.027588,776.338318 1866.228394,780.289978 1861.558594,782.066040 
	C1861.119263,782.233154 1861.122559,783.563965 1860.452393,784.771667 
	C1857.033203,785.458862 1854.081909,785.965454 1851.130615,785.965698 
	C1302.434692,786.000671 753.738831,786.020935 205.042953,785.962646 
	C157.093796,785.957520 109.144707,785.427490 61.195580,785.141174 
z"/>
<path fill="#868686" opacity="1.000000" stroke="none" 
	d="
M1861.024414,795.822998 
	C1873.153198,795.822998 1885.281982,795.822998 1897.697021,795.822998 
	C1897.697021,806.053589 1897.697021,815.792969 1897.697021,825.800415 
	C1286.212769,825.800415 674.870544,825.800415 63.277676,825.800415 
	C63.277676,815.850342 63.277676,806.073669 64.060898,796.134277 
	C65.677292,795.980896 66.510468,795.998596 67.343643,795.998596 
	C663.742310,795.999878 1260.140991,796.000061 1856.539673,795.992737 
	C1858.034546,795.992676 1859.529541,795.881958 1861.024414,795.822998 
z"/>
<path fill="#868686" opacity="1.000000" stroke="none" 
	d="
M1884.942627,561.000000 
	C1884.942627,385.537018 1884.942627,210.574051 1884.942627,35.264347 
	C1889.257202,35.264347 1893.314575,35.264347 1897.707275,35.264347 
	C1897.881348,37.658382 1898.056885,40.073032 1898.256958,42.825481 
	C1916.359131,42.825481 1934.300293,42.825481 1953.017700,42.825481 
	C1953.017700,49.904350 1953.017700,56.650066 1953.017700,63.395782 
	C1944.812378,72.161018 1950.736450,82.867722 1949.163208,92.553825 
	C1948.904663,94.145081 1950.768799,96.049789 1951.554077,97.852234 
	C1952.138428,99.193443 1952.982178,100.599556 1952.995483,101.983711 
	C1953.110229,113.814697 1953.061768,125.647263 1953.061768,137.479355 
	C1953.061768,186.808182 1953.064575,236.136993 1953.053223,285.465820 
	C1953.052734,287.986023 1953.810669,290.713379 1950.325928,292.051788 
	C1949.504272,292.367371 1949.092041,294.616119 1949.065186,295.986847 
	C1948.941040,302.316956 1948.946045,308.652374 1949.059326,314.983154 
	C1949.109253,317.773834 1947.898438,321.232513 1952.311157,322.287659 
	C1952.779663,322.399689 1953.034668,324.285950 1953.035278,325.349304 
	C1953.067383,387.343597 1953.076782,449.337952 1952.968384,511.332092 
	C1952.965942,512.758850 1951.575439,514.175354 1950.861816,515.611267 
	C1950.234253,516.874268 1949.151001,518.147522 1949.124512,519.433777 
	C1948.960205,527.429382 1949.015381,535.430115 1949.061890,543.428711 
	C1949.067383,544.381409 1949.170288,545.917786 1949.721436,546.191895 
	C1954.713623,548.675354 1953.011353,553.185059 1953.015625,557.000977 
	C1953.081909,616.162170 1953.064453,675.323425 1953.053467,734.484680 
	C1953.053101,736.994995 1953.799072,739.662354 1950.374023,741.092285 
	C1949.458740,741.474365 1949.103149,744.004089 1949.072876,745.559265 
	C1948.936523,752.555969 1949.009399,759.556824 1949.007935,766.556152 
	C1949.007446,769.223083 1948.663330,772.006042 1952.139404,773.092346 
	C1952.609985,773.239441 1953.022339,774.385742 1953.030029,775.074158 
	C1953.098511,781.201477 1953.069702,787.329773 1953.069702,793.730103 
	C1936.903564,793.730103 1921.174072,793.730103 1904.940063,793.730103 
	C1904.940063,790.085876 1904.806274,786.625305 1904.976685,783.179810 
	C1905.156372,779.545410 1903.612183,777.965271 1900.000000,778.036011 
	C1895.195679,778.130188 1890.388062,778.059265 1884.942627,778.059265 
	C1884.942627,705.691956 1884.942627,633.595947 1884.942627,561.000000 
z"/>
<path fill="#868686" opacity="1.000000" stroke="none" 
	d="
M56.057373,638.000000 
	C56.057392,690.127380 56.057392,741.754822 56.057392,793.696655 
	C39.999084,793.696655 24.263344,793.696655 8.219783,793.696655 
	C8.219783,543.615540 8.219783,293.600220 8.219783,43.283665 
	C24.011866,43.283665 39.744408,43.283665 56.057350,43.283665 
	C56.057350,241.377945 56.057350,439.438965 56.057373,638.000000 
z"/>
<path fill="#868686" opacity="1.000000" stroke="none" 
	d="
M63.416618,27.584381 
	C63.079292,23.292210 63.079292,19.339836 63.079292,15.167255 
	C674.759277,15.167255 1286.107788,15.167255 1897.721680,15.167255 
	C1897.721680,19.346251 1897.721680,23.287905 1897.721680,28.080130 
	C1895.891602,28.080130 1893.983276,28.080147 1892.075073,28.080128 
	C1284.298706,28.073994 676.522461,28.067966 68.746140,28.056059 
	C67.082077,28.056026 65.418007,27.970030 63.416618,27.584381 
z"/>
<path fill="#FFFFFF" opacity="1.000000" stroke="none" 
	d="
M61.122387,785.573303 
	C109.144707,785.427490 157.093796,785.957520 205.042953,785.962646 
	C753.738831,786.020935 1302.434692,786.000671 1851.130615,785.965698 
	C1854.081909,785.965454 1857.033203,785.458862 1860.394043,785.166931 
	C1860.865723,788.097778 1860.927856,791.050537 1860.536133,794.498291 
	C1263.539429,794.995789 666.996399,794.997925 70.453438,795.010376 
	C68.296516,795.010437 66.139595,795.159912 63.982670,795.239624 
	C59.129795,793.392578 61.583302,789.224426 61.122387,785.573303 
z"/>
<path fill="#878787" opacity="1.000000" stroke="none" 
	d="
M1873.947998,763.993896 
	C1873.947998,520.874207 1873.947998,278.252960 1873.947998,35.292839 
	C1875.560059,35.151497 1876.967896,35.028069 1878.704102,34.875847 
	C1878.704102,282.557739 1878.704102,529.955200 1878.704102,777.742432 
	C1877.363647,777.855896 1875.968750,777.973999 1873.947998,778.145081 
	C1873.947998,773.381470 1873.947998,768.936890 1873.947998,763.993896 
z"/>
<path fill="#141414" opacity="1.000000" stroke="none" 
	d="
M63.979683,795.363403 
	C66.139595,795.159912 68.296516,795.010437 70.453438,795.010376 
	C666.996399,794.997925 1263.539429,794.995789 1860.518066,794.941528 
	C1860.953735,794.889648 1861.000488,795.358459 1861.012451,795.590698 
	C1859.529541,795.881958 1858.034546,795.992676 1856.539673,795.992737 
	C1260.140991,796.000061 663.742310,795.999878 67.343643,795.998596 
	C66.510468,795.998596 65.677292,795.980896 64.404449,795.853027 
	C63.964775,795.734497 63.976696,795.487183 63.979683,795.363403 
z"/>
<path fill="#868686" opacity="1.000000" stroke="none" 
	d="
M36.999588,37.060745 
	C25.872116,37.060768 15.244595,37.060768 4.301414,37.060768 
	C4.301414,26.096630 4.301414,15.372220 4.301414,4.312959 
	C21.333025,4.312959 38.377167,4.312959 55.745636,4.312959 
	C55.745636,15.012366 55.745636,25.726683 55.745636,37.060726 
	C49.671471,37.060726 43.585506,37.060726 36.999588,37.060745 
z"/>
<path fill="#868686" opacity="1.000000" stroke="none" 
	d="
M1916.022461,8.013227 
	C1928.459961,8.013230 1940.400269,8.013230 1952.662720,8.013230 
	C1952.662720,17.382603 1952.662720,26.411743 1952.662720,35.714775 
	C1936.970459,35.714775 1921.404663,35.714775 1905.424561,35.714775 
	C1905.424561,26.798574 1905.424561,17.765966 1905.424561,8.013225 
	C1908.689209,8.013225 1912.107178,8.013225 1916.022461,8.013227 
z"/>
<path fill="#868686" opacity="1.000000" stroke="none" 
	d="
M29.000149,801.013000 
	C38.115757,801.013000 46.731388,801.013000 55.664665,801.013000 
	C55.664665,810.387024 55.664665,819.416260 55.664665,828.718750 
	C39.967457,828.718750 24.401808,828.718750 8.423995,828.718750 
	C8.423995,819.797058 8.423995,810.764587 8.423995,801.013000 
	C15.014284,801.013000 21.757227,801.013000 29.000149,801.013000 
z"/>
<path fill="#868686" opacity="1.000000" stroke="none" 
	d="
M1952.987061,821.915161 
	C1952.987061,824.374756 1952.987061,826.345520 1952.987061,828.650391 
	C1936.983276,828.650391 1921.298828,828.650391 1905.312500,828.650391 
	C1905.312500,819.564209 1905.312500,810.534302 1905.312500,801.257812 
	C1921.082764,801.257812 1936.649658,801.257812 1952.987061,801.257812 
	C1952.987061,807.950439 1952.987061,814.688354 1952.987061,821.915161 
z"/>
<path fill="#868686" opacity="1.000000" stroke="none" 
	d="
M1896.663818,789.016724 
	C1887.265991,788.872925 1878.337524,788.708984 1869.411743,788.452393 
	C1869.278198,788.448486 1869.177734,787.296570 1868.925781,785.957458 
	C1878.273438,785.957458 1887.345825,785.932617 1896.415405,786.084534 
	C1896.670898,786.088806 1896.894775,787.978149 1896.663818,789.016724 
z"/>
</svg>