<svg xmlns="http://www.w3.org/2000/svg" width="28" height="28" fill="none" preserveAspectRatio="none"><path fill="#000" d="M7.292 2.333a2.638 2.638 0 0 0-2.625 2.625v18.083a2.638 2.638 0 0 0 2.625 2.625h13.416a2.638 2.638 0 0 0 2.625-2.625v-12.25a.875.875 0 0 0-.256-.618l-.01-.01-7.574-7.574a.875.875 0 0 0-.618-.256H7.292Zm0 1.75H14v4.958a2.638 2.638 0 0 0 2.625 2.625h4.958v11.375a.871.871 0 0 1-.225.59l-5.704-5.466a2.389 2.389 0 0 0-1.655-.66c-.598 0-1.194.22-1.654.66l-5.704 5.466a.872.872 0 0 1-.224-.59V4.958c0-.494.38-.875.875-.875ZM15.75 5.32l4.596 4.596h-3.721a.862.862 0 0 1-.875-.875v-3.72Zm1.458 8.096a1.458 1.458 0 1 0 0 2.917 1.458 1.458 0 0 0 0-2.917ZM14 19.246c.158 0 .317.06.444.183l4.683 4.487H8.873l4.683-4.488a.642.642 0 0 1 .444-.183Z"/></svg>