<svg version="1.1" id="Layer_1" xmlns="http://www.w3.org/2000/svg" xmlns:xlink="http://www.w3.org/1999/xlink" x="0px" y="0px"
	 width="100%" viewBox="0 0 393 827" enable-background="new 0 0 393 827" xml:space="preserve">
<path fill="#E9E9E9" opacity="1.000000" stroke="none" 
	d="
M1.000000,5.000000 
	C1.000000,3.666667 1.000000,2.333333 1.000000,1.000000 
	C132.000000,1.000000 263.000000,1.000000 394.000000,1.000000 
	C394.000000,275.166656 394.001587,549.333313 393.958740,823.500000 
	C393.958496,825.000061 393.333344,826.500000 392.530212,827.764954 
	C392.060394,827.529907 392.030487,827.056885 392.219360,826.679321 
	C392.428589,825.802612 392.466766,825.303345 392.466766,824.804138 
	C392.469452,552.841309 392.459839,280.878510 392.546722,8.915735 
	C392.548248,4.075320 390.928192,2.709089 386.167236,2.713326 
	C260.351227,2.825283 134.535080,2.801337 8.718951,2.808359 
	C7.226078,2.808443 5.720962,2.830229 4.254382,3.055532 
	C4.049373,3.087026 4.033639,4.350585 3.942337,5.003083 
	C3.954385,4.962348 4.036054,4.938941 3.767597,4.518220 
	C2.941607,4.374271 2.384074,4.651043 1.616129,4.902622 
	C1.405718,4.877429 1.000000,5.000000 1.000000,5.000000 
z"/>
<path fill="#AFAFAF" opacity="1.000000" stroke="none" 
	d="
M1.000000,5.455951 
	C1.000000,5.000000 1.405718,4.877429 1.691610,5.370625 
	C1.984520,275.355164 1.991203,544.846558 2.001664,814.337891 
	C2.001826,818.503662 2.048647,822.669373 2.055889,827.126404 
	C2.025391,827.611755 2.012695,827.805847 1.999998,828.000000 
	C1.666663,827.833557 1.056181,827.684570 1.044452,827.497925 
	C0.961030,826.170532 1.000000,824.835388 1.000000,823.502747 
	C1.000000,550.972473 1.000000,278.442169 1.000000,5.455951 
z"/>
<path fill="#A7A7A7" opacity="1.000000" stroke="none" 
	d="
M2.466042,828.000000 
	C2.012695,827.805847 2.025391,827.611755 2.514923,827.197815 
	C49.103851,826.985657 95.215942,826.991760 141.328033,827.001343 
	C224.895523,827.018738 308.463013,827.038269 392.030487,827.056885 
	C392.030487,827.056885 392.060394,827.529907 392.030212,827.764954 
	C262.310699,828.000000 132.621384,828.000000 2.466042,828.000000 
z"/>
<path fill="#000000" opacity="1.000000" stroke="none" 
	d="
M392.219360,826.679321 
	C308.463013,827.038269 224.895523,827.018738 141.328033,827.001343 
	C95.215942,826.991760 49.103851,826.985657 2.532727,826.906555 
	C2.048647,822.669373 2.001826,818.503662 2.001664,814.337891 
	C1.991203,544.846558 1.984520,275.355164 1.902022,5.395819 
	C2.384074,4.651043 2.941607,4.374271 3.929049,4.970594 
	C4.298974,7.338520 4.186472,8.833348 4.186430,10.328180 
	C4.178792,279.964325 4.179143,549.600464 4.179196,819.236572 
	C4.179196,820.992249 4.179197,822.747864 4.179197,824.486816 
	C133.166275,824.486816 261.388580,824.486816 389.585876,824.486816 
	C389.585876,551.262634 389.585876,278.394684 389.585876,5.157639 
	C387.433044,5.157639 385.627563,5.157640 383.822052,5.157639 
	C259.169495,5.157598 134.516953,5.158084 9.864392,5.152792 
	C7.886356,5.152708 5.908323,5.081717 3.930289,5.043817 
	C4.033639,4.350585 4.049373,3.087026 4.254382,3.055532 
	C5.720962,2.830229 7.226078,2.808443 8.718951,2.808359 
	C134.535080,2.801337 260.351227,2.825283 386.167236,2.713326 
	C390.928192,2.709089 392.548248,4.075320 392.546722,8.915735 
	C392.459839,280.878510 392.469452,552.841309 392.466766,824.804138 
	C392.466766,825.303345 392.428589,825.802612 392.219360,826.679321 
z"/>
<path fill="#FBFBFB" opacity="1.000000" stroke="none" 
	d="
M3.942337,5.003083 
	C5.908323,5.081717 7.886356,5.152708 9.864392,5.152792 
	C134.516953,5.158084 259.169495,5.157598 383.822052,5.157639 
	C385.627563,5.157640 387.433044,5.157639 389.585876,5.157639 
	C389.585876,278.394684 389.585876,551.262634 389.585876,824.486816 
	C261.388580,824.486816 133.166275,824.486816 4.179197,824.486816 
	C4.179197,822.747864 4.179196,820.992249 4.179196,819.236572 
	C4.179143,549.600464 4.178792,279.964325 4.186430,10.328180 
	C4.186472,8.833348 4.298974,7.338520 4.197506,5.391315 
	C4.036054,4.938941 3.954385,4.962348 3.942337,5.003083 
M222.500549,27.728981 
	C156.753159,27.728981 91.005760,27.728981 25.234241,27.728981 
	C25.234241,292.489349 25.234241,556.574646 25.234241,821.173889 
	C27.044819,821.173889 28.666582,821.173828 30.288345,821.173828 
	C140.444382,821.174133 250.600403,821.174927 360.756439,821.173767 
	C367.422058,821.173706 367.585907,821.026855 367.585999,814.505920 
	C367.589478,554.364380 367.589661,294.222778 367.585419,34.081211 
	C367.585327,28.015446 367.270203,27.730328 360.987305,27.730057 
	C315.158386,27.728071 269.329498,27.729006 222.500549,27.728981 
z"/>
<path fill="#222222" opacity="1.000000" stroke="none" 
	d="
M223.000565,27.729000 
	C269.329498,27.729006 315.158386,27.728071 360.987305,27.730057 
	C367.270203,27.730328 367.585327,28.015446 367.585419,34.081211 
	C367.589661,294.222778 367.589478,554.364380 367.585999,814.505920 
	C367.585907,821.026855 367.422058,821.173706 360.756439,821.173767 
	C250.600403,821.174927 140.444382,821.174133 30.288345,821.173828 
	C28.666582,821.173828 27.044819,821.173889 25.234241,821.173889 
	C25.234241,556.574646 25.234241,292.489349 25.234241,27.728981 
	C91.005760,27.728981 156.753159,27.728981 223.000565,27.729000 
M362.732147,451.533417 
	C362.779816,449.812897 362.827454,448.092346 364.227173,446.234772 
	C364.414642,437.492401 364.627594,428.750244 364.709473,420.006866 
	C364.713318,419.596008 363.549530,419.174164 362.854797,417.981873 
	C362.880341,414.736176 362.905914,411.490479 364.009064,408.578705 
	C364.283264,406.666992 364.796906,404.755371 364.797485,402.843597 
	C364.835358,280.692688 364.831512,158.541748 364.831421,36.390823 
	C364.831421,34.596703 364.831390,32.802582 364.831390,30.673664 
	C252.375885,30.673664 140.352554,30.673664 28.217472,30.673664 
	C28.217472,293.332703 28.217472,555.701721 28.217472,818.009766 
	C140.563354,818.009766 252.594940,818.009766 364.831390,818.009766 
	C364.831390,815.918701 364.831390,814.258362 364.831390,812.598022 
	C364.831421,694.446594 364.831787,576.295105 364.828705,458.143677 
	C364.828674,456.644501 364.973389,455.106812 364.677124,453.663757 
	C364.546082,453.025452 363.481323,452.578827 362.732147,451.533417 
z"/>
<path fill="#FFFFFF" opacity="1.000000" stroke="none" 
	d="
M362.929504,418.757416 
	C363.549530,419.174164 364.713318,419.596008 364.709473,420.006866 
	C364.627594,428.750244 364.414642,437.492401 363.547760,445.820801 
	C359.605804,438.783783 354.556824,435.894928 348.679718,437.288391 
	C342.977722,438.640350 339.749939,443.175873 339.986694,449.503326 
	C340.186340,454.838898 343.740753,459.031647 348.875366,459.988220 
	C355.429138,461.209167 360.168976,458.513275 362.840424,452.045197 
	C363.481323,452.578827 364.546082,453.025452 364.677124,453.663757 
	C364.973389,455.106812 364.828674,456.644501 364.828705,458.143677 
	C364.831787,576.295105 364.831421,694.446594 364.831390,812.598022 
	C364.831390,814.258362 364.831390,815.918701 364.831390,818.009766 
	C252.594940,818.009766 140.563354,818.009766 28.217472,818.009766 
	C28.217472,555.701721 28.217472,293.332703 28.217472,30.673664 
	C140.352554,30.673664 252.375885,30.673664 364.831390,30.673664 
	C364.831390,32.802582 364.831421,34.596703 364.831421,36.390823 
	C364.831512,158.541748 364.835358,280.692688 364.797485,402.843597 
	C364.796906,404.755371 364.283264,406.666992 363.387207,408.072205 
	C356.250092,398.597076 347.533966,398.395386 340.519928,406.853668 
	C339.581146,407.985748 337.591644,408.773071 336.068573,408.806641 
	C327.635620,408.992523 319.196472,408.895691 310.781189,408.895691 
	C310.052612,410.338684 308.818695,411.661133 308.932373,412.855225 
	C309.060394,414.200134 310.402679,415.429382 311.201355,416.649139 
	C311.185883,416.589355 311.095520,416.505219 310.746979,416.818481 
	C312.072388,417.883667 313.725525,419.224365 315.423950,419.284485 
	C322.389557,419.531097 329.375397,419.223358 336.339020,419.496338 
	C338.217255,419.569946 340.465607,420.530914 341.823029,421.835022 
	C348.985229,428.716034 357.883667,427.517090 362.929504,418.757416 
z"/>
<path fill="#0F0F0F" opacity="1.000000" stroke="none" 
	d="
M362.892151,418.369629 
	C357.883667,427.517090 348.985229,428.716034 341.823029,421.835022 
	C340.465607,420.530914 338.217255,419.569946 336.339020,419.496338 
	C329.375397,419.223358 322.389557,419.531097 315.423950,419.284485 
	C313.725525,419.224365 312.072388,417.883667 311.186401,416.920563 
	C325.881195,416.709351 339.787994,416.709351 354.021820,416.709351 
	C353.837982,414.679504 353.710968,413.276917 353.590454,411.946075 
	C339.303345,411.946075 325.418274,411.946075 311.216797,411.946075 
	C311.216797,413.770111 311.216797,415.239502 311.216797,416.708923 
	C310.402679,415.429382 309.060394,414.200134 308.932373,412.855225 
	C308.818695,411.661133 310.052612,410.338684 310.781189,408.895691 
	C319.196472,408.895691 327.635620,408.992523 336.068573,408.806641 
	C337.591644,408.773071 339.581146,407.985748 340.519928,406.853668 
	C347.533966,398.395386 356.250092,398.597076 362.848419,407.905212 
	C362.905914,411.490479 362.880341,414.736176 362.892151,418.369629 
M358.198761,405.166229 
	C351.935577,401.688446 348.092804,402.327057 343.660736,408.073700 
	C346.190979,408.393799 348.371399,408.920013 350.543060,408.885986 
	C353.842743,408.834290 356.651642,409.159058 356.480347,413.386627 
	C356.331482,417.061432 354.275360,419.032379 350.597687,419.315460 
	C348.976105,419.440277 347.358032,419.610992 344.814240,419.846375 
	C350.817017,423.930908 355.526123,423.713409 359.181000,419.923187 
	C363.028351,415.933350 362.885864,410.896179 358.198761,405.166229 
z"/>
<path fill="#0A0A0A" opacity="1.000000" stroke="none" 
	d="
M362.786285,451.789307 
	C360.168976,458.513275 355.429138,461.209167 348.875366,459.988220 
	C343.740753,459.031647 340.186340,454.838898 339.986694,449.503326 
	C339.749939,443.175873 342.977722,438.640350 348.679718,437.288391 
	C354.556824,435.894928 359.605804,438.783783 362.871704,445.889343 
	C362.827454,448.092346 362.779816,449.812897 362.786285,451.789307 
M348.045563,449.217987 
	C348.693542,451.143829 349.341522,453.069702 349.989502,454.995544 
	C350.527191,455.038269 351.064880,455.080994 351.602570,455.123718 
	C352.387482,453.116913 353.881256,451.071777 353.775299,449.113159 
	C353.646973,446.740845 352.166138,444.441681 351.270538,442.110870 
	C350.185822,444.210297 349.101135,446.309753 348.045563,449.217987 
z"/>
<path fill="#F2F2F2" opacity="1.000000" stroke="none" 
	d="
M311.201355,416.649139 
	C311.216797,415.239502 311.216797,413.770111 311.216797,411.946075 
	C325.418274,411.946075 339.303345,411.946075 353.590454,411.946075 
	C353.710968,413.276917 353.837982,414.679504 354.021820,416.709351 
	C339.787994,416.709351 325.881195,416.709351 311.534943,416.607300 
	C311.095520,416.505219 311.185883,416.589355 311.201355,416.649139 
z"/>
<path fill="#E9E9E9" opacity="1.000000" stroke="none" 
	d="
M358.488373,405.420441 
	C362.885864,410.896179 363.028351,415.933350 359.181000,419.923187 
	C355.526123,423.713409 350.817017,423.930908 344.814240,419.846375 
	C347.358032,419.610992 348.976105,419.440277 350.597687,419.315460 
	C354.275360,419.032379 356.331482,417.061432 356.480347,413.386627 
	C356.651642,409.159058 353.842743,408.834290 350.543060,408.885986 
	C348.371399,408.920013 346.190979,408.393799 343.660736,408.073700 
	C348.092804,402.327057 351.935577,401.688446 358.488373,405.420441 
z"/>
<path fill="#E9E9E9" opacity="1.000000" stroke="none" 
	d="
M348.031006,448.813599 
	C349.101135,446.309753 350.185822,444.210297 351.270538,442.110870 
	C352.166138,444.441681 353.646973,446.740845 353.775299,449.113159 
	C353.881256,451.071777 352.387482,453.116913 351.602570,455.123718 
	C351.064880,455.080994 350.527191,455.038269 349.989502,454.995544 
	C349.341522,453.069702 348.693542,451.143829 348.031006,448.813599 
z"/>
</svg>