<svg version="1.1" id="Layer_1" xmlns="http://www.w3.org/2000/svg" xmlns:xlink="http://www.w3.org/1999/xlink" x="0px" y="0px"
	 width="100%" viewBox="0 0 786 835" enable-background="new 0 0 786 835" xml:space="preserve">
<path fill="none" opacity="1.000000" stroke="#000000" stroke-linecap="round" stroke-linejoin="round" stroke-width="5.000000"
	d="
M53.500000,796.500000 
	C36.826668,796.500000 20.153334,796.500000 4.000000,796.500000 
	C4.000000,793.834656 4.000000,792.167358 4.000000,790.500000 
	C4.000000,542.500000 4.000000,294.500000 4.000000,46.500000 
	C0.662798,33.468552 2.390476,20.180058 2.034776,6.999062 
	C1.994635,5.511573 1.509478,3.908461 2.433367,2.433367 
	C3.908461,1.509478 5.504892,2.034205 7.000107,2.028602 
	C20.166588,1.979258 33.416874,1.038544 46.484875,2.174050 
	C91.969261,6.126284 137.501404,3.299296 183.001587,3.874424 
	C228.327667,4.447350 273.666656,4.000000 319.000000,4.000000 
	C364.500000,4.000000 410.000000,4.000000 455.500000,4.000000 
	C500.833344,4.000000 546.166687,4.000000 591.500000,4.000000 
	C637.000000,4.000000 682.500000,4.000000 728.000000,4.000000 
	C745.214539,0.244797 762.667236,2.681583 780.000610,2.016008 
	C782.127014,1.934357 784.324768,1.678691 786.500000,3.487526 
	C786.500000,14.665478 788.508423,26.792295 785.971619,37.879097 
	C783.058655,50.609734 784.719910,63.001621 784.131104,75.506172 
	C783.536011,88.144821 784.000000,100.833336 784.000000,113.500000 
	C784.000000,339.000000 783.997070,564.500000 784.041626,790.000000 
	C784.042114,792.268738 782.982422,794.910461 785.954712,796.580627 
	C787.280640,797.325623 786.457764,799.178223 786.464661,800.500183 
	C786.525635,812.166565 786.500000,823.833313 786.500000,835.500000 
	C769.000000,835.500000 751.500000,835.500000 734.150635,835.500000 
	C732.044128,833.119263 733.429382,830.549438 733.402344,828.001038 
	C733.230469,811.834412 734.228699,795.658020 733.044495,779.496765 
	C732.887512,777.353760 733.479126,775.166687 733.479309,773.000000 
	C733.501282,530.166687 733.500000,287.333344 733.500000,44.500000 
	C733.500000,32.500000 733.478333,20.499914 733.525879,8.500103 
	C733.532227,6.905411 733.268982,5.544974 732.000000,4.500000 
"/>
<path fill="none" opacity="1.000000" stroke="#000000" stroke-linecap="round" stroke-linejoin="round" stroke-width="4.000000"
	d="
M67.500000,32.500000 
	C67.500000,281.000000 67.500000,529.500000 67.500000,778.000000 
"/>
<path fill="none" opacity="1.000000" stroke="#000000" stroke-linecap="round" stroke-linejoin="round" stroke-width="4.000000"
	d="
M94.500000,32.500000 
	C94.500000,281.000000 94.500000,529.500000 94.500000,778.000000 
"/>
<path fill="none" opacity="1.000000" stroke="#000000" stroke-linecap="round" stroke-linejoin="round" stroke-width="4.000000"
	d="
M130.500000,32.500000 
	C130.500000,281.000000 130.500000,529.500000 130.500000,778.000000 
"/>
<path fill="none" opacity="1.000000" stroke="#000000" stroke-linecap="round" stroke-linejoin="round" stroke-width="4.000000"
	d="
M169.500000,32.500000 
	C169.500000,281.000000 169.500000,529.500000 169.500000,778.000000 
"/>
<path fill="none" opacity="1.000000" stroke="#000000" stroke-linecap="round" stroke-linejoin="round" stroke-width="4.000000"
	d="
M174.500000,32.500000 
	C174.500000,281.000000 174.500000,529.500000 174.500000,778.000000 
"/>
<path fill="none" opacity="1.000000" stroke="#000000" stroke-linecap="round" stroke-linejoin="round" stroke-width="4.000000"
	d="
M216.500000,32.500000 
	C216.500000,281.000000 216.500000,529.500000 216.500000,778.000000 
"/>
<path fill="none" opacity="1.000000" stroke="#000000" stroke-linecap="round" stroke-linejoin="round" stroke-width="4.000000"
	d="
M291.500000,32.500000 
	C291.500000,281.000000 291.500000,529.500000 291.500000,778.000000 
"/>
<path fill="none" opacity="1.000000" stroke="#000000" stroke-linecap="round" stroke-linejoin="round" stroke-width="4.000000"
	d="
M335.500000,32.500000 
	C335.500000,281.000000 335.500000,529.500000 335.500000,778.000000 
"/>
<path fill="none" opacity="1.000000" stroke="#000000" stroke-linecap="round" stroke-linejoin="round" stroke-width="4.000000"
	d="
M377.500000,32.500000 
	C377.500000,281.000000 377.500000,529.500000 377.500000,778.000000 
"/>
<path fill="none" opacity="1.000000" stroke="#000000" stroke-linecap="round" stroke-linejoin="round" stroke-width="4.000000"
	d="
M410.500000,32.500000 
	C410.500000,281.000000 410.500000,529.500000 410.500000,778.000000 
"/>
<path fill="none" opacity="1.000000" stroke="#000000" stroke-linecap="round" stroke-linejoin="round" stroke-width="4.000000"
	d="
M415.500000,32.500000 
	C415.500000,281.000000 415.500000,529.500000 415.500000,778.000000 
"/>
<path fill="none" opacity="1.000000" stroke="#000000" stroke-linecap="round" stroke-linejoin="round" stroke-width="4.000000"
	d="
M532.500000,32.500000 
	C532.500000,281.000000 532.500000,529.500000 532.500000,778.000000 
"/>
<path fill="none" opacity="1.000000" stroke="#000000" stroke-linecap="round" stroke-linejoin="round" stroke-width="4.000000"
	d="
M576.500000,32.500000 
	C576.500000,281.000000 576.500000,529.500000 576.500000,778.000000 
"/>
<path fill="none" opacity="1.000000" stroke="#000000" stroke-linecap="round" stroke-linejoin="round" stroke-width="4.000000"
	d="
M720.500000,32.500000 
	C720.500000,281.000000 720.500000,529.500000 720.500000,778.000000 
"/>
<path fill="none" opacity="1.000000" stroke="#000000" stroke-linecap="round" stroke-linejoin="round" stroke-width="4.000000"
	d="
M618.500000,32.500000 
	C618.500000,281.000000 618.500000,529.500000 618.500000,778.000000 
"/>
<path fill="none" opacity="1.000000" stroke="#000000" stroke-linecap="round" stroke-linejoin="round" stroke-width="4.000000"
	d="
M651.500000,32.500000 
	C651.500000,281.000000 651.500000,529.500000 651.500000,778.000000 
"/>
<path fill="none" opacity="1.000000" stroke="#000000" stroke-linecap="round" stroke-linejoin="round" stroke-width="4.000000"
	d="
M693.500000,32.500000 
	C693.500000,281.000000 693.500000,529.500000 693.500000,778.000000 
"/>
<path fill="none" opacity="1.000000" stroke="#000000" stroke-linecap="round" stroke-linejoin="round" stroke-width="5.000000"
	d="
M538.000000,33.000000 
	C538.000000,281.416656 538.000000,529.833313 538.000000,778.250000 
"/>
<path fill="none" opacity="1.000000" stroke="#000000" stroke-linecap="round" stroke-linejoin="round" stroke-width="5.000000"
	d="
M89.000000,33.000000 
	C89.000000,281.416656 89.000000,529.833313 89.000000,778.250000 
"/>
<path fill="none" opacity="1.000000" stroke="#000000" stroke-linecap="round" stroke-linejoin="round" stroke-width="5.000000"
	d="
M136.000000,33.000000 
	C136.000000,281.416656 136.000000,529.833313 136.000000,778.250000 
"/>
<path fill="none" opacity="1.000000" stroke="#000000" stroke-linecap="round" stroke-linejoin="round" stroke-width="5.000000"
	d="
M211.000000,33.000000 
	C211.000000,281.416656 211.000000,529.833313 211.000000,778.250000 
"/>
<path fill="none" opacity="1.000000" stroke="#000000" stroke-linecap="round" stroke-linejoin="round" stroke-width="5.000000"
	d="
M699.000000,33.000000 
	C699.000000,281.416656 699.000000,529.833313 699.000000,778.250000 
"/>
<path fill="none" opacity="1.000000" stroke="#000000" stroke-linecap="round" stroke-linejoin="round" stroke-width="5.000000"
	d="
M250.000000,33.000000 
	C250.000000,281.416656 250.000000,529.833313 250.000000,778.250000 
"/>
<path fill="none" opacity="1.000000" stroke="#000000" stroke-linecap="round" stroke-linejoin="round" stroke-width="5.000000"
	d="
M255.000000,33.000000 
	C255.000000,281.416656 255.000000,529.833313 255.000000,778.250000 
"/>
<path fill="none" opacity="1.000000" stroke="#000000" stroke-linecap="round" stroke-linejoin="round" stroke-width="5.000000"
	d="
M297.000000,33.000000 
	C297.000000,281.416656 297.000000,529.833313 297.000000,778.250000 
"/>
<path fill="none" opacity="1.000000" stroke="#000000" stroke-linecap="round" stroke-linejoin="round" stroke-width="5.000000"
	d="
M330.000000,33.000000 
	C330.000000,281.416656 330.000000,529.833313 330.000000,778.250000 
"/>
<path fill="none" opacity="1.000000" stroke="#000000" stroke-linecap="round" stroke-linejoin="round" stroke-width="5.000000"
	d="
M657.000000,33.000000 
	C657.000000,281.416656 657.000000,529.833313 657.000000,778.250000 
"/>
<path fill="none" opacity="1.000000" stroke="#000000" stroke-linecap="round" stroke-linejoin="round" stroke-width="5.000000"
	d="
M372.000000,33.000000 
	C372.000000,281.416656 372.000000,529.833313 372.000000,778.250000 
"/>
<path fill="none" opacity="1.000000" stroke="#000000" stroke-linecap="round" stroke-linejoin="round" stroke-width="5.000000"
	d="
M613.000000,33.000000 
	C613.000000,281.416656 613.000000,529.833313 613.000000,778.250000 
"/>
<path fill="none" opacity="1.000000" stroke="#000000" stroke-linecap="round" stroke-linejoin="round" stroke-width="5.000000"
	d="
M452.000000,33.000000 
	C452.000000,281.416656 452.000000,529.833313 452.000000,778.250000 
"/>
<path fill="none" opacity="1.000000" stroke="#000000" stroke-linecap="round" stroke-linejoin="round" stroke-width="5.000000"
	d="
M458.000000,33.000000 
	C458.000000,281.416656 458.000000,529.833313 458.000000,778.250000 
"/>
<path fill="none" opacity="1.000000" stroke="#000000" stroke-linecap="round" stroke-linejoin="round" stroke-width="5.000000"
	d="
M491.000000,33.000000 
	C491.000000,281.416656 491.000000,529.833313 491.000000,778.250000 
"/>
<path fill="none" opacity="1.000000" stroke="#000000" stroke-linecap="round" stroke-linejoin="round" stroke-width="5.000000"
	d="
M496.000000,33.000000 
	C496.000000,281.416656 496.000000,529.833313 496.000000,778.250000 
"/>
<path fill="none" opacity="1.000000" stroke="#000000" stroke-linecap="round" stroke-linejoin="round" stroke-width="5.000000"
	d="
M571.000000,33.000000 
	C571.000000,281.416656 571.000000,529.833313 571.000000,778.250000 
"/>
<path fill="none" opacity="1.000000" stroke="#000000" stroke-linecap="round" stroke-linejoin="round" stroke-width="4.000000"
	d="
M56.000000,4.500000 
	C52.960983,8.002157 54.933182,12.183126 54.608841,16.009226 
	C53.805897,25.481121 54.675705,34.999001 54.667400,44.500145 
	C54.455166,287.333313 54.500000,530.166687 54.500000,773.000000 
	C54.500000,790.666687 54.592152,808.334229 54.414337,825.999146 
	C54.382648,829.147217 56.980499,832.481445 53.609989,835.500000 
	C37.166668,835.500000 20.333334,835.500000 3.500016,835.500000 
	C2.396619,834.201111 1.959834,832.742310 1.969889,830.999817 
	C2.030477,820.500183 2.014484,809.999939 1.979579,799.500061 
	C1.975712,798.336792 2.249970,797.361084 3.000000,796.500000 
"/>
<path fill="none" opacity="1.000000" stroke="#000000" stroke-linecap="round" stroke-linejoin="round" stroke-width="4.000000"
	d="
M732.500000,11.500000 
	C506.833344,11.500000 281.166656,11.500000 55.500000,11.500000 
"/>
<path fill="none" opacity="1.000000" stroke="#000000" stroke-linecap="round" stroke-linejoin="round" stroke-width="5.000000"
	d="
M732.000000,831.500000 
	C730.605408,830.384460 728.988342,831.033997 727.500000,831.033752 
	C505.166656,830.998413 282.833344,830.998352 60.500004,831.033691 
	C59.011673,831.033875 57.394566,830.384460 56.000000,831.500000 
"/>
<path fill="none" opacity="1.000000" stroke="#000000" stroke-linecap="round" stroke-linejoin="round" stroke-width="4.000000"
	d="
M54.000000,40.500000 
	C39.166668,40.500000 24.333294,40.483803 9.500051,40.520370 
	C7.633685,40.524971 5.612516,39.952171 4.000000,41.500000 
"/>
<path fill="none" opacity="1.000000" stroke="#000000" stroke-linecap="round" stroke-linejoin="round" stroke-width="4.000000"
	d="
M784.000000,41.500000 
	C782.387512,39.952171 780.366333,40.524975 778.499939,40.520374 
	C763.666748,40.483803 748.833313,40.500000 734.000000,40.500000 
"/>
<path fill="none" opacity="1.000000" stroke="#000000" stroke-linecap="round" stroke-linejoin="round" stroke-width="4.000000"
	d="
M784.000000,795.500000 
	C782.387512,797.047852 780.366333,796.474976 778.499939,796.479614 
	C763.833374,796.516418 749.166687,796.500000 734.500000,796.500000 
"/>
<path fill="none" opacity="1.000000" stroke="#000000" stroke-linecap="round" stroke-linejoin="round" stroke-width="5.000000"
	d="
M56.000000,779.000000 
	C281.333344,779.000000 506.666656,779.000000 732.000000,779.000000 
"/>
<path fill="none" opacity="1.000000" stroke="#000000" stroke-linecap="round" stroke-linejoin="round" stroke-width="4.000000"
	d="
M732.000000,32.000000 
	C721.679993,31.006968 711.332886,31.699047 700.999573,31.524059 
	C693.668396,31.399912 686.333313,31.500000 679.000000,31.500000 
	C658.000000,31.500000 637.000000,31.500000 616.000000,31.500000 
	C602.166687,31.500000 588.323547,31.177879 574.502930,31.596754 
	C562.335876,31.965509 550.134094,31.833279 537.993042,32.003277 
	C526.074402,32.170158 513.999207,31.806999 501.998779,31.558727 
	C489.337555,31.296787 476.666656,31.500000 464.000000,31.500000 
	C437.000000,31.500000 410.000000,31.500000 383.000000,31.500000 
	C366.500000,31.500000 350.000000,31.500000 333.500000,31.500000 
	C324.166656,31.500000 314.833344,31.500000 305.500000,31.500000 
	C290.166656,31.500000 274.833344,31.500000 259.500000,31.500000 
	C244.500000,31.500000 229.500000,31.500000 214.500000,31.500000 
	C189.833328,31.500000 165.166672,31.500000 140.500000,31.500000 
	C124.500000,31.500000 108.500000,31.500000 92.500000,31.500000 
	C81.333336,31.500000 70.166580,31.481539 59.000145,31.531940 
	C58.012123,31.536400 56.853809,30.956200 56.000000,32.000000 
"/>
</svg>