<svg version="1.1" id="Layer_1" xmlns="http://www.w3.org/2000/svg" xmlns:xlink="http://www.w3.org/1999/xlink" x="0px" y="0px"
	 width="100%" viewBox="0 0 786 835" enable-background="new 0 0 786 835" xml:space="preserve">
<path fill="#050505" opacity="1.000000" stroke="none" 
	d="
M58.000000,836.000000 
	C39.083508,836.000000 20.167015,836.000000 1.000000,836.000000 
	C1.000000,821.980103 1.000000,807.958679 1.399246,793.308105 
	C1.862888,791.518921 1.983677,790.359070 1.983714,789.199158 
	C1.991769,542.279724 1.993077,295.360321 1.950260,48.440918 
	C1.950003,46.960556 1.330392,45.480305 1.000000,44.000000 
	C1.000000,29.673859 1.000000,15.347718 1.000000,1.041874 
	C263.000000,1.041874 525.000000,1.041874 787.000000,1.041874 
	C787.000000,15.076726 787.000000,29.069704 786.600830,43.692024 
	C786.137329,45.647854 786.016724,46.974346 786.016663,48.300842 
	C786.002258,295.058167 785.994629,541.815491 786.031921,788.572815 
	C786.032166,790.048584 786.663391,791.524292 787.000000,793.000000 
	C787.000000,807.270325 787.000000,821.540710 787.000000,836.000000 
	C768.312866,836.000000 749.625061,836.000000 730.463989,835.555176 
	C729.575317,830.976013 726.396667,833.094360 724.659729,833.093567 
	C504.259460,832.992737 283.859100,833.003296 63.458767,833.008179 
	C62.459217,833.008179 61.226833,832.642578 60.515343,833.095337 
	C59.480061,833.754272 58.820042,835.002869 58.000000,836.000000 
M263.837372,796.527100 
	C263.811890,796.897400 263.786407,797.267700 262.977661,797.818604 
	C261.369110,797.826233 259.760559,797.833923 257.921844,797.140259 
	C257.713226,796.438232 257.504578,795.736206 257.598633,794.142700 
	C257.635406,792.644592 257.704376,791.146484 257.704407,789.648376 
	C257.708801,540.564819 257.709106,291.481293 257.691284,42.397743 
	C257.691162,40.582142 257.439819,38.766556 257.546082,36.370029 
	C257.038727,35.710762 256.531403,35.051495 255.101639,34.207928 
	C241.649155,34.190434 228.196594,34.152660 214.744263,34.189064 
	C213.497269,34.192436 212.251556,34.667023 210.325897,34.610271 
	C208.602280,34.481441 206.878647,34.352615 204.203964,34.114243 
	C190.267807,34.114243 176.331650,34.114243 161.955139,34.114243 
	C161.955139,37.560753 161.955154,40.357861 161.955154,43.154968 
	C161.955231,292.687958 161.955688,542.220947 161.948441,791.753906 
	C161.948380,793.749878 161.843445,795.745850 160.992081,797.856506 
	C159.385345,797.835205 157.778610,797.813904 156.017502,796.891968 
	C155.971756,795.228394 155.885956,793.564880 155.885925,791.901306 
	C155.880600,541.418762 155.881470,290.936188 155.882080,40.453648 
	C155.882095,38.521545 155.882080,36.589447 155.882080,34.282436 
	C139.716110,34.282436 124.258926,34.282436 108.004547,34.170303 
	C106.395889,34.200844 104.787231,34.231380 102.224243,34.156895 
	C88.297256,34.156895 74.370277,34.156895 60.066868,34.156895 
	C60.066868,37.243053 60.066868,39.551018 60.066872,41.858986 
	C60.066978,291.671600 60.067711,541.484192 60.056793,791.296814 
	C60.056698,793.457947 59.899910,795.619141 58.974411,797.923279 
	C58.556946,801.150208 58.139484,804.377197 57.711304,807.687012 
	C282.307922,807.687012 505.947632,807.687012 730.105896,807.687012 
	C730.105896,802.674011 730.105896,797.884766 730.961182,793.000061 
	C735.940125,793.285217 733.899353,789.445374 733.900085,787.410034 
	C733.991089,541.516296 733.986206,295.622498 733.986450,49.728714 
	C733.986450,47.921028 733.986511,46.113342 733.986511,44.249237 
	C732.414185,44.108562 731.261108,44.005402 729.996277,43.011337 
	C729.996277,40.135654 729.996277,37.259972 729.996277,34.246098 
	C727.690491,34.246098 725.929871,34.246098 723.215393,34.149025 
	C709.284607,34.149025 695.353821,34.149025 681.046326,34.149025 
	C681.046326,36.774502 681.046326,38.743916 681.046326,40.713326 
	C681.046570,291.072205 681.047424,541.431091 681.037354,791.789978 
	C681.037292,793.783936 680.888855,795.777893 680.012085,797.871704 
	C678.406128,797.835571 676.800110,797.799377 675.084778,796.861389 
	C675.046387,795.031128 674.974304,793.200867 674.974304,791.370605 
	C674.970947,541.348816 674.972778,291.327026 674.974487,41.305252 
	C674.974487,39.054398 674.974487,36.803547 674.974487,34.252834 
	C658.744690,34.252834 643.283203,34.252834 627.021423,34.156189 
	C625.411560,34.198483 623.801697,34.240776 621.235107,34.185032 
	C607.323181,34.185032 593.411255,34.185032 579.166687,34.185032 
	C579.166687,37.000668 579.166687,38.982147 579.166687,40.963631 
	C579.166565,290.585175 579.167542,540.206726 579.152588,789.828308 
	C579.152405,792.484741 578.943237,795.141174 578.031860,797.876953 
	C576.427917,797.825500 574.823975,797.774048 573.142212,796.823853 
	C573.125427,796.158142 573.094055,795.492432 573.094055,794.826721 
	C573.092651,543.872375 573.093811,292.918060 573.086304,41.963722 
	C573.086243,39.968502 572.969849,37.973282 572.987976,35.500813 
	C572.987976,35.500813 572.815491,35.048660 572.402222,34.333721 
	C556.881836,34.296467 541.361389,34.259209 525.035339,34.145424 
	C523.419922,34.189613 521.804443,34.233799 519.230713,34.203392 
	C505.810638,34.267284 492.390594,34.331173 478.347961,34.408859 
	C478.171570,34.964817 477.995178,35.520775 477.622620,36.988270 
	C477.609344,37.654648 477.584442,38.321022 477.584442,38.987400 
	C477.583374,289.479889 477.583618,539.972351 477.594604,790.464844 
	C477.594666,791.957397 477.746399,793.449951 477.714478,795.500793 
	C477.758789,795.685303 477.803101,795.869873 477.631683,796.535706 
	C477.658936,796.866089 477.686218,797.196533 476.932190,797.774414 
	C475.027039,797.724365 473.121887,797.674377 471.324188,797.065857 
	C471.203491,796.706787 471.082794,796.347778 471.113647,795.498352 
	C471.081879,795.330261 471.050079,795.162170 471.202484,794.072388 
	C471.217194,793.239746 471.244751,792.407166 471.244751,791.574524 
	C471.246796,541.212585 471.247345,290.850616 471.238098,40.488659 
	C471.238037,38.995312 471.101501,37.501968 471.114044,35.501057 
	C471.046112,35.343525 470.978180,35.185989 470.455261,34.325550 
	C460.153259,34.269653 449.850891,34.136429 439.549347,34.182240 
	C431.258972,34.219101 422.969543,34.472519 413.939087,34.271458 
	C412.022552,34.273861 410.106018,34.276264 407.231018,34.204464 
	C393.810883,34.267582 380.390747,34.330700 366.355286,34.409252 
	C366.184814,34.961010 366.014374,35.512768 365.653412,36.978432 
	C365.641693,37.478188 365.619720,37.977940 365.619720,38.477695 
	C365.617767,289.143494 365.616852,539.809326 365.626678,790.475098 
	C365.626740,791.968079 365.776978,793.461060 365.744446,795.500916 
	C365.785980,795.682251 365.827545,795.863525 365.652740,796.530884 
	C365.674164,796.866028 365.695618,797.201111 364.939117,797.779724 
	C363.048248,797.720215 361.157410,797.660706 359.395599,797.058411 
	C359.272369,796.708313 359.149170,796.358276 359.142761,795.499023 
	C359.108337,795.328369 359.073883,795.157654 359.226166,794.066406 
	C359.241913,793.233826 359.271515,792.401184 359.271545,791.568604 
	C359.273682,541.211609 359.274170,290.854553 359.264648,40.497543 
	C359.264587,39.004333 359.123840,37.511131 359.141754,35.434231 
	C358.773468,35.087364 358.405182,34.740498 357.112091,34.213543 
	C343.634521,34.195015 330.156921,34.154034 316.679535,34.195782 
	C315.451538,34.199589 314.225189,34.734177 312.322906,34.643829 
	C310.277222,34.519398 308.231506,34.394970 305.226532,34.215961 
	C291.805847,34.274479 278.385132,34.332996 264.393707,34.409222 
	C264.267822,34.937489 264.141937,35.465755 263.842194,36.918671 
	C263.829376,37.584808 263.805298,38.250946 263.805298,38.917084 
	C263.803436,289.453156 263.802887,539.989258 263.812042,790.525330 
	C263.812103,792.018860 263.948181,793.512390 263.922363,795.499573 
	C263.959259,795.663269 263.996124,795.826965 263.837372,796.527100 
M58.476841,809.089294 
	C58.376423,809.379089 58.276005,809.668945 58.046947,810.892883 
	C58.046947,816.824036 58.046947,822.755188 58.046947,828.672852 
	C282.332947,828.672852 505.980042,828.672852 729.825073,828.672852 
	C729.825073,822.226624 729.825073,816.094116 729.860291,809.462952 
	C729.691528,809.088257 729.413086,808.968567 728.095886,808.947449 
	C727.263184,808.935242 726.430420,808.912354 725.597717,808.912354 
	C504.885376,808.910400 284.173004,808.909607 63.460651,808.917419 
	C61.966003,808.917480 60.471359,809.037720 58.476841,809.089294 
M52.983673,544.500000 
	C52.983673,377.780853 52.983673,211.061691 52.983673,44.421509 
	C36.942669,44.421509 21.563566,44.421509 6.256855,44.421509 
	C6.256855,294.044464 6.256855,543.261353 6.256855,792.666504 
	C21.877234,792.666504 37.254364,792.666504 52.983669,792.666504 
	C52.983669,710.065979 52.983669,627.782959 52.983673,544.500000 
M735.016296,301.500000 
	C735.016296,465.219452 735.016296,628.938904 735.016296,792.578979 
	C751.063477,792.578979 766.443542,792.578979 781.747131,792.578979 
	C781.747131,542.955688 781.747131,293.738525 781.747131,44.334507 
	C766.121460,44.334507 750.744202,44.334507 735.016296,44.334507 
	C735.016296,129.935196 735.016296,215.217606 735.016296,301.500000 
M527.500000,13.017545 
	C371.098389,13.017545 214.696747,13.017545 58.407425,13.017545 
	C58.407425,18.799221 58.407425,23.867630 58.407425,28.848991 
	C282.372559,28.848991 505.947723,28.848991 729.679199,28.848991 
	C729.679199,23.509575 729.679199,18.451323 729.679199,13.017554 
	C662.417053,13.017554 595.458496,13.017554 527.500000,13.017545 
M236.500000,7.009117 
	C178.853012,7.008956 121.206032,7.008710 63.559052,7.009168 
	C62.226242,7.009179 60.817101,6.757349 59.589058,7.118172 
	C58.844387,7.336973 58.379906,8.509392 57.203854,9.991516 
	C60.298504,9.991516 62.107567,9.991518 63.916630,9.991516 
	C284.008331,9.991305 504.100006,9.995354 724.191711,9.921840 
	C726.117737,9.921197 728.043335,8.878152 729.969177,8.321787 
	C728.090820,7.884228 726.212646,7.064205 724.334167,7.063524 
	C562.056091,7.004690 399.778046,7.009117 236.500000,7.009117 
M50.824162,8.855510 
	C36.689262,8.855510 22.554363,8.855510 8.365980,8.855510 
	C8.365980,17.974045 8.365980,27.337881 8.365980,36.592003 
	C22.741915,36.592003 36.764713,36.592003 50.958149,36.592003 
	C50.958149,27.399441 50.958149,18.597677 50.824162,8.855510 
M737.015747,811.518188 
	C737.015747,817.262451 737.015747,823.006714 737.015747,828.582092 
	C751.768921,828.582092 765.789185,828.582092 779.706909,828.582092 
	C779.706909,818.933411 779.706909,809.688599 779.706909,800.331055 
	C765.409912,800.331055 751.391724,800.331055 737.015564,800.331055 
	C737.015564,803.936707 737.015564,807.231567 737.015747,811.518188 
M12.659429,828.983704 
	C25.374292,828.983704 38.089157,828.983704 50.709682,828.983704 
	C50.709682,818.942749 50.709682,809.696716 50.709682,800.331543 
	C36.413219,800.331543 22.392868,800.331543 8.018760,800.331543 
	C8.018760,809.091797 8.131804,817.542786 7.958857,825.987915 
	C7.896387,829.038330 9.530354,829.145081 12.659429,828.983704 
M765.494751,8.016325 
	C756.093628,8.016325 746.692444,8.016325 737.415161,8.016325 
	C737.415161,18.081644 737.415161,27.445154 737.415161,36.723213 
	C751.719055,36.723213 765.619934,36.723213 779.672119,36.723213 
	C779.672119,27.099485 779.672119,17.738707 779.672119,8.016334 
	C775.075500,8.016334 770.783386,8.016334 765.494751,8.016325 
z"/>
<path fill="#FFFFFF" opacity="1.000000" stroke="none" 
	d="
M58.468658,836.000000 
	C58.820042,835.002869 59.480061,833.754272 60.515343,833.095337 
	C61.226833,832.642578 62.459217,833.008179 63.458767,833.008179 
	C283.859100,833.003296 504.259460,832.992737 724.659729,833.093567 
	C726.396667,833.094360 729.575317,830.976013 729.995361,835.555176 
	C506.312439,836.000000 282.624878,836.000000 58.468658,836.000000 
z"/>
<path fill="#FFFFFF" opacity="1.000000" stroke="none" 
	d="
M1.000000,44.462639 
	C1.330392,45.480305 1.950003,46.960556 1.950260,48.440918 
	C1.993077,295.360321 1.991769,542.279724 1.983714,789.199158 
	C1.983677,790.359070 1.862888,791.518921 1.399246,792.839417 
	C1.000000,543.641785 1.000000,294.283508 1.000000,44.462639 
z"/>
<path fill="#FFFFFF" opacity="1.000000" stroke="none" 
	d="
M787.000000,792.537354 
	C786.663391,791.524292 786.032166,790.048584 786.031921,788.572815 
	C785.994629,541.815491 786.002258,295.058167 786.016663,48.300842 
	C786.016724,46.974346 786.137329,45.647854 786.600830,44.160683 
	C787.000000,293.358246 787.000000,542.716492 787.000000,792.537354 
z"/>
<path fill="#878787" opacity="1.000000" stroke="none" 
	d="
M470.962067,795.988708 
	C471.082794,796.347778 471.203491,796.706787 470.796509,797.442383 
	C451.828522,797.818848 433.388275,797.818848 414.498566,797.818848 
	C414.498566,794.613831 414.498566,791.973145 414.498566,789.332458 
	C414.498230,539.758423 414.497528,290.184326 414.505157,40.610271 
	C414.505219,38.616798 414.619019,36.623325 414.679718,34.629852 
	C422.969543,34.472519 431.258972,34.219101 439.549347,34.182240 
	C449.850891,34.136429 460.153259,34.269653 470.532135,34.780636 
	C470.748932,35.493355 470.888824,35.750984 471.028687,36.008621 
	C471.101501,37.501968 471.238037,38.995312 471.238098,40.488659 
	C471.247345,290.850616 471.246796,541.212585 471.244751,791.574524 
	C471.244751,792.407166 471.217194,793.239746 470.944977,794.619019 
	C470.617462,795.266663 470.466339,795.423462 470.490997,795.459229 
	C470.623993,795.652344 470.800537,795.815308 470.962067,795.988708 
z"/>
<path fill="#FAFAFA" opacity="1.000000" stroke="none" 
	d="
M414.309387,34.450653 
	C414.619019,36.623325 414.505219,38.616798 414.505157,40.610271 
	C414.497528,290.184326 414.498230,539.758423 414.498566,789.332458 
	C414.498566,791.973145 414.498566,794.613831 414.498566,797.818848 
	C433.388275,797.818848 451.828522,797.818848 470.742767,797.721619 
	C473.121887,797.674377 475.027039,797.724365 477.799164,797.759460 
	C491.146790,797.779114 503.627869,797.867798 516.107422,797.767212 
	C517.398010,797.756775 518.679504,796.619568 520.030518,795.539978 
	C520.107178,793.408691 520.128418,791.742615 520.128418,790.076538 
	C520.129883,540.142639 520.129578,290.208710 520.132019,40.274807 
	C520.132019,38.275867 520.169189,36.276928 520.188965,34.277988 
	C521.804443,34.233799 523.419922,34.189613 525.527466,34.631474 
	C526.081604,37.111816 526.197876,39.106110 526.197937,41.100403 
	C526.206238,291.121277 526.205994,541.142151 526.206116,791.163025 
	C526.206116,793.267212 526.206055,795.371460 526.206055,797.722595 
	C542.316406,797.722595 557.768188,797.722595 573.220032,797.722595 
	C574.823975,797.774048 576.427917,797.825500 578.906311,797.910156 
	C593.713867,797.943420 607.646912,797.943420 621.984131,797.943420 
	C621.984131,795.145996 621.984192,793.014771 621.984192,790.883484 
	C621.984436,540.845581 621.984131,290.807617 621.993347,40.769691 
	C621.993469,38.607479 622.122803,36.445278 622.191833,34.283070 
	C623.801697,34.240776 625.411560,34.198483 627.479309,34.654152 
	C627.982605,36.981865 628.067627,38.811611 628.067688,40.641361 
	C628.074463,290.658661 628.075012,540.675964 628.075867,790.693237 
	C628.075867,792.948181 628.075867,795.203186 628.075867,797.763245 
	C644.283508,797.763245 659.738831,797.763245 675.194153,797.763245 
	C676.800110,797.799377 678.406128,797.835571 680.888306,797.882935 
	C695.685181,797.894226 709.605896,797.894226 723.896118,797.894226 
	C723.896118,794.780151 723.896179,792.472717 723.896179,790.165222 
	C723.896057,541.019714 723.894958,291.874207 723.906982,42.728683 
	C723.907104,39.901150 724.078064,37.073627 724.169250,34.246098 
	C725.929871,34.246098 727.690491,34.246098 729.996277,34.246098 
	C729.996277,37.259972 729.996277,40.135654 730.002625,43.929466 
	C729.999573,45.513966 729.981995,46.180328 729.981995,46.846695 
	C729.979553,294.265320 729.978088,541.683899 729.982361,789.102539 
	C729.982422,790.433533 730.062927,791.764526 730.105896,793.095520 
	C730.105896,797.884766 730.105896,802.674011 730.105896,807.687012 
	C505.947632,807.687012 282.307922,807.687012 57.711304,807.687012 
	C58.139484,804.377197 58.556946,801.150208 59.871925,797.916138 
	C74.694527,797.908936 88.619614,797.908936 102.923698,797.908936 
	C102.923698,795.086487 102.923691,792.951477 102.923691,790.816406 
	C102.923798,540.791931 102.923248,290.767395 102.934509,40.742893 
	C102.934601,38.582565 103.093704,36.422241 103.178574,34.261917 
	C104.787231,34.231380 106.395889,34.200844 108.448090,34.675198 
	C108.931694,37.010605 109.006821,38.841114 109.006851,40.671627 
	C109.011795,290.897797 109.011261,541.123962 109.010971,791.350098 
	C109.010971,793.434998 109.010979,795.519897 109.010979,797.792542 
	C125.234200,797.792542 140.703033,797.792542 156.171875,797.792603 
	C157.778610,797.813904 159.385345,797.835205 161.868530,797.861206 
	C176.646210,797.865906 190.547424,797.865906 204.794220,797.865906 
	C204.794220,794.012817 204.794235,791.032837 204.794235,788.052856 
	C204.794312,539.266235 204.793350,290.479645 204.809418,41.693039 
	C204.809570,39.203281 205.034836,36.713535 205.155029,34.223785 
	C206.878647,34.352615 208.602280,34.481441 210.614624,35.238022 
	C210.895401,36.365494 210.880478,36.865208 210.880478,37.364925 
	C210.876266,288.915497 210.872833,540.466064 210.876694,792.016602 
	C210.876709,793.346130 210.979752,794.675720 211.075882,796.430664 
	C212.156509,797.184937 213.195847,797.799133 214.235367,797.799377 
	C228.135208,797.802979 242.035049,797.720703 256.295898,797.782471 
	C257.155273,797.883911 257.653656,797.862732 258.152008,797.841553 
	C259.760559,797.833923 261.369110,797.826233 263.849365,797.793640 
	C278.072235,797.617188 291.423401,797.465759 305.144775,797.324402 
	C305.674896,796.890503 305.834869,796.446533 306.114197,795.546143 
	C306.256561,793.590637 306.299744,792.091553 306.299774,790.592468 
	C306.302948,540.482727 306.303314,290.373016 306.298401,40.263309 
	C306.298370,38.265720 306.224976,36.268127 306.185822,34.270538 
	C308.231506,34.394970 310.277222,34.519398 312.549744,35.289551 
	C312.753876,37.100735 312.711243,38.266201 312.711243,39.431664 
	C312.709320,290.118591 312.710052,540.805481 312.718750,791.492432 
	C312.718781,792.987671 312.830719,794.482910 312.949341,796.412476 
	C313.881012,797.167419 314.753937,797.767700 315.626404,797.767029 
	C330.173126,797.756287 344.719849,797.670349 359.266541,797.601135 
	C361.157410,797.660706 363.048248,797.720215 365.805237,797.761414 
	C379.391998,797.781677 392.112946,797.864197 404.832764,797.778015 
	C405.886139,797.770874 406.931763,796.621399 408.047089,795.537720 
	C408.123688,793.739868 408.143463,792.406982 408.143494,791.074158 
	C408.144653,541.474426 408.144287,291.874634 408.146118,42.274879 
	C408.146118,39.609478 408.174408,36.944073 408.189484,34.278671 
	C410.106018,34.276264 412.022552,34.273861 414.309387,34.450653 
z"/>
<path fill="#868686" opacity="1.000000" stroke="none" 
	d="
M573.181152,797.273193 
	C557.768188,797.722595 542.316406,797.722595 526.206055,797.722595 
	C526.206055,795.371460 526.206116,793.267212 526.206116,791.163025 
	C526.205994,541.142151 526.206238,291.121277 526.197937,41.100403 
	C526.197876,39.106110 526.081604,37.111816 525.930298,34.669739 
	C541.361389,34.259209 556.881836,34.296467 572.473389,34.789276 
	C572.384644,35.593571 572.505737,35.837978 572.907715,35.978058 
	C572.969849,37.973282 573.086243,39.968502 573.086304,41.963722 
	C573.093811,292.918060 573.092651,543.872375 573.094055,794.826721 
	C573.094055,795.492432 573.125427,796.158142 573.181152,797.273193 
z"/>
<path fill="#858585" opacity="1.000000" stroke="none" 
	d="
M156.094696,797.342285 
	C140.703033,797.792542 125.234200,797.792542 109.010979,797.792542 
	C109.010979,795.519897 109.010971,793.434998 109.010971,791.350098 
	C109.011261,541.123962 109.011795,290.897797 109.006851,40.671627 
	C109.006821,38.841114 108.931694,37.010605 108.846680,34.731262 
	C124.258926,34.282436 139.716110,34.282436 155.882080,34.282436 
	C155.882080,36.589447 155.882095,38.521545 155.882080,40.453648 
	C155.881470,290.936188 155.880600,541.418762 155.885925,791.901306 
	C155.885956,793.564880 155.971756,795.228394 156.094696,797.342285 
z"/>
<path fill="#868686" opacity="1.000000" stroke="none" 
	d="
M675.139465,797.312317 
	C659.738831,797.763245 644.283508,797.763245 628.075867,797.763245 
	C628.075867,795.203186 628.075867,792.948181 628.075867,790.693237 
	C628.075012,540.675964 628.074463,290.658661 628.067688,40.641361 
	C628.067627,38.811611 627.982605,36.981865 627.879395,34.702477 
	C643.283203,34.252834 658.744690,34.252834 674.974487,34.252834 
	C674.974487,36.803547 674.974487,39.054398 674.974487,41.305252 
	C674.972778,291.327026 674.970947,541.348816 674.974304,791.370605 
	C674.974304,793.200867 675.046387,795.031128 675.139465,797.312317 
z"/>
<path fill="#868686" opacity="1.000000" stroke="none" 
	d="
M211.034683,796.005249 
	C210.979752,794.675720 210.876709,793.346130 210.876694,792.016602 
	C210.872833,540.466064 210.876266,288.915497 210.880478,37.364925 
	C210.880478,36.865208 210.895401,36.365494 210.954285,35.394295 
	C212.251556,34.667023 213.497269,34.192436 214.744263,34.189064 
	C228.196594,34.152660 241.649155,34.190434 255.566620,34.572918 
	C256.456299,35.608925 256.881042,36.279942 257.305756,36.950958 
	C257.439819,38.766556 257.691162,40.582142 257.691284,42.397743 
	C257.709106,291.481293 257.708801,540.564819 257.704407,789.648376 
	C257.704376,791.146484 257.635406,792.644592 257.236572,794.636108 
	C256.581238,795.421387 256.287903,795.713318 255.526474,796.004272 
	C240.383789,796.003906 225.709244,796.004578 211.034683,796.005249 
z"/>
<path fill="#868686" opacity="1.000000" stroke="none" 
	d="
M52.983673,545.000000 
	C52.983669,627.782959 52.983669,710.065979 52.983669,792.666504 
	C37.254364,792.666504 21.877234,792.666504 6.256855,792.666504 
	C6.256855,543.261353 6.256855,294.044464 6.256855,44.421509 
	C21.563566,44.421509 36.942669,44.421509 52.983673,44.421509 
	C52.983673,211.061691 52.983673,377.780853 52.983673,545.000000 
z"/>
<path fill="#868686" opacity="1.000000" stroke="none" 
	d="
M735.016296,301.000000 
	C735.016296,215.217606 735.016296,129.935196 735.016296,44.334507 
	C750.744202,44.334507 766.121460,44.334507 781.747131,44.334507 
	C781.747131,293.738525 781.747131,542.955688 781.747131,792.578979 
	C766.443542,792.578979 751.063477,792.578979 735.016296,792.578979 
	C735.016296,628.938904 735.016296,465.219452 735.016296,301.000000 
z"/>
<path fill="#868686" opacity="1.000000" stroke="none" 
	d="
M312.890381,795.978149 
	C312.830719,794.482910 312.718781,792.987671 312.718750,791.492432 
	C312.710052,540.805481 312.709320,290.118591 312.711243,39.431664 
	C312.711243,38.266201 312.753876,37.100735 312.887329,35.478775 
	C314.225189,34.734177 315.451538,34.199589 316.679535,34.195782 
	C330.156921,34.154034 343.634521,34.195015 357.610352,34.558624 
	C358.421997,35.275116 358.735382,35.646526 359.048767,36.017929 
	C359.123840,37.511131 359.264587,39.004333 359.264648,40.497543 
	C359.274170,290.854553 359.273682,541.211609 359.271545,791.568604 
	C359.271515,792.401184 359.241913,793.233826 358.905090,794.635803 
	C358.386353,795.472107 358.188629,795.739014 357.522858,796.004883 
	C342.333313,795.995300 327.611847,795.986694 312.890381,795.978149 
z"/>
<path fill="#878787" opacity="1.000000" stroke="none" 
	d="
M204.679504,34.169014 
	C205.034836,36.713535 204.809570,39.203281 204.809418,41.693039 
	C204.793350,290.479645 204.794312,539.266235 204.794235,788.052856 
	C204.794235,791.032837 204.794220,794.012817 204.794220,797.865906 
	C190.547424,797.865906 176.646210,797.865906 162.266235,797.803833 
	C161.843445,795.745850 161.948380,793.749878 161.948441,791.753906 
	C161.955688,542.220947 161.955231,292.687958 161.955154,43.154968 
	C161.955154,40.357861 161.955139,37.560753 161.955139,34.114243 
	C176.331650,34.114243 190.267807,34.114243 204.679504,34.169014 
z"/>
<path fill="#868686" opacity="1.000000" stroke="none" 
	d="
M102.701401,34.209404 
	C103.093704,36.422241 102.934601,38.582565 102.934509,40.742893 
	C102.923248,290.767395 102.923798,540.791931 102.923691,790.816406 
	C102.923691,792.951477 102.923698,795.086487 102.923698,797.908936 
	C88.619614,797.908936 74.694527,797.908936 60.292862,797.844604 
	C59.899910,795.619141 60.056698,793.457947 60.056793,791.296814 
	C60.067711,541.484192 60.066978,291.671600 60.066872,41.858986 
	C60.066868,39.551018 60.066868,37.243053 60.066868,34.156895 
	C74.370277,34.156895 88.297256,34.156895 102.701401,34.209404 
z"/>
<path fill="#868686" opacity="1.000000" stroke="none" 
	d="
M723.692322,34.197563 
	C724.078064,37.073627 723.907104,39.901150 723.906982,42.728683 
	C723.894958,291.874207 723.896057,541.019714 723.896179,790.165222 
	C723.896179,792.472717 723.896118,794.780151 723.896118,797.894226 
	C709.605896,797.894226 695.685181,797.894226 681.287109,797.833008 
	C680.888855,795.777893 681.037292,793.783936 681.037354,791.789978 
	C681.047424,541.431091 681.046570,291.072205 681.046326,40.713326 
	C681.046326,38.743916 681.046326,36.774502 681.046326,34.149025 
	C695.353821,34.149025 709.284607,34.149025 723.692322,34.197563 
z"/>
<path fill="#858585" opacity="1.000000" stroke="none" 
	d="
M621.713501,34.234051 
	C622.122803,36.445278 621.993469,38.607479 621.993347,40.769691 
	C621.984131,290.807617 621.984436,540.845581 621.984192,790.883484 
	C621.984192,793.014771 621.984131,795.145996 621.984131,797.943420 
	C607.646912,797.943420 593.713867,797.943420 579.306213,797.870483 
	C578.943237,795.141174 579.152405,792.484741 579.152588,789.828308 
	C579.167542,540.206726 579.166565,290.585175 579.166687,40.963631 
	C579.166687,38.982147 579.166687,37.000668 579.166687,34.185032 
	C593.411255,34.185032 607.323181,34.185032 621.713501,34.234051 
z"/>
<path fill="#868686" opacity="1.000000" stroke="none" 
	d="
M305.706177,34.243248 
	C306.224976,36.268127 306.298370,38.265720 306.298401,40.263309 
	C306.303314,290.373016 306.302948,540.482727 306.299774,790.592468 
	C306.299744,792.091553 306.256561,793.590637 305.892609,795.570190 
	C305.551666,796.050720 305.106964,796.082214 304.632202,796.057861 
	C291.107361,796.024048 278.057343,796.014465 264.900757,795.786621 
	C264.601318,795.291626 264.343475,795.104187 264.020752,795.005920 
	C263.948181,793.512390 263.812103,792.018860 263.812042,790.525330 
	C263.802887,539.989258 263.803436,289.453156 263.805298,38.917084 
	C263.805298,38.250946 263.829376,37.584808 264.146606,36.335495 
	C264.622162,35.298714 264.793304,34.845116 264.964447,34.391514 
	C278.385132,34.332996 291.805847,34.274479 305.706177,34.243248 
z"/>
<path fill="#868686" opacity="1.000000" stroke="none" 
	d="
M407.710266,34.241570 
	C408.174408,36.944073 408.146118,39.609478 408.146118,42.274879 
	C408.144287,291.874634 408.144653,541.474426 408.143494,791.074158 
	C408.143463,792.406982 408.123688,793.739868 407.579834,795.533691 
	C393.700134,795.998108 380.353790,796.001587 366.876709,795.770630 
	C366.449677,795.342224 366.153381,795.148132 365.857117,794.954041 
	C365.776978,793.461060 365.626740,791.968079 365.626678,790.475098 
	C365.616852,539.809326 365.617767,289.143494 365.619720,38.477695 
	C365.619720,37.977940 365.641693,37.478188 365.989502,36.397873 
	C366.540619,35.342819 366.755615,34.868320 366.970642,34.393822 
	C380.390747,34.330700 393.810883,34.267582 407.710266,34.241570 
z"/>
<path fill="#868686" opacity="1.000000" stroke="none" 
	d="
M519.709839,34.240692 
	C520.169189,36.276928 520.132019,38.275867 520.132019,40.274807 
	C520.129578,290.208710 520.129883,540.142639 520.128418,790.076538 
	C520.128418,791.742615 520.107178,793.408691 519.564453,795.535156 
	C505.690308,795.998230 492.347565,796.000977 478.870087,795.766602 
	C478.432648,795.333801 478.130005,795.138184 477.827332,794.942505 
	C477.746399,793.449951 477.594666,791.957397 477.594604,790.464844 
	C477.583618,539.972351 477.583374,289.479889 477.584442,38.987400 
	C477.584442,38.321022 477.609344,37.654648 477.964905,36.407967 
	C478.528290,35.350132 478.749420,34.872604 478.970520,34.395069 
	C492.390594,34.331173 505.810638,34.267284 519.709839,34.240692 
z"/>
<path fill="#868686" opacity="1.000000" stroke="none" 
	d="
M729.825073,809.961670 
	C729.825073,816.094116 729.825073,822.226624 729.825073,828.672852 
	C505.980042,828.672852 282.332947,828.672852 58.046947,828.672852 
	C58.046947,822.755188 58.046947,816.824036 58.289284,810.329285 
	C58.751507,809.592346 58.899872,809.371094 58.976715,809.101807 
	C60.471359,809.037720 61.966003,808.917480 63.460651,808.917419 
	C284.173004,808.909607 504.885376,808.910400 725.597717,808.912354 
	C726.430420,808.912354 727.263184,808.935242 728.644775,809.209717 
	C729.351624,809.702942 729.562073,809.866211 729.825073,809.961670 
z"/>
<path fill="#868686" opacity="1.000000" stroke="none" 
	d="
M528.000000,13.017550 
	C595.458496,13.017554 662.417053,13.017554 729.679199,13.017554 
	C729.679199,18.451323 729.679199,23.509575 729.679199,28.848991 
	C505.947723,28.848991 282.372559,28.848991 58.407425,28.848991 
	C58.407425,23.867630 58.407425,18.799221 58.407425,13.017545 
	C214.696747,13.017545 371.098389,13.017545 528.000000,13.017550 
z"/>
<path fill="#858585" opacity="1.000000" stroke="none" 
	d="
M730.533569,793.047791 
	C730.062927,791.764526 729.982422,790.433533 729.982361,789.102539 
	C729.978088,541.683899 729.979553,294.265320 729.981995,46.846695 
	C729.981995,46.180328 729.999573,45.513966 730.058472,44.374920 
	C731.261108,44.005402 732.414185,44.108562 733.986511,44.249237 
	C733.986511,46.113342 733.986450,47.921028 733.986450,49.728714 
	C733.986206,295.622498 733.991089,541.516296 733.900085,787.410034 
	C733.899353,789.445374 735.940125,793.285217 730.533569,793.047791 
z"/>
<path fill="#FEFEFE" opacity="1.000000" stroke="none" 
	d="
M237.000000,7.009117 
	C399.778046,7.009117 562.056091,7.004690 724.334167,7.063524 
	C726.212646,7.064205 728.090820,7.884228 729.969177,8.321787 
	C728.043335,8.878152 726.117737,9.921197 724.191711,9.921840 
	C504.100006,9.995354 284.008331,9.991305 63.916630,9.991516 
	C62.107567,9.991518 60.298504,9.991516 57.203854,9.991516 
	C58.379906,8.509392 58.844387,7.336973 59.589058,7.118172 
	C60.817101,6.757349 62.226242,7.009179 63.559052,7.009168 
	C121.206032,7.008710 178.853012,7.008956 237.000000,7.009117 
z"/>
<path fill="#868686" opacity="1.000000" stroke="none" 
	d="
M50.891155,9.325712 
	C50.958149,18.597677 50.958149,27.399441 50.958149,36.592003 
	C36.764713,36.592003 22.741915,36.592003 8.365980,36.592003 
	C8.365980,27.337881 8.365980,17.974045 8.365980,8.855510 
	C22.554363,8.855510 36.689262,8.855510 50.891155,9.325712 
z"/>
<path fill="#868686" opacity="1.000000" stroke="none" 
	d="
M737.015625,811.022278 
	C737.015564,807.231567 737.015564,803.936707 737.015564,800.331055 
	C751.391724,800.331055 765.409912,800.331055 779.706909,800.331055 
	C779.706909,809.688599 779.706909,818.933411 779.706909,828.582092 
	C765.789185,828.582092 751.768921,828.582092 737.015747,828.582092 
	C737.015747,823.006714 737.015747,817.262451 737.015625,811.022278 
z"/>
<path fill="#868686" opacity="1.000000" stroke="none" 
	d="
M12.180140,828.983521 
	C9.530354,829.145081 7.896387,829.038330 7.958857,825.987915 
	C8.131804,817.542786 8.018760,809.091797 8.018760,800.331543 
	C22.392868,800.331543 36.413219,800.331543 50.709682,800.331543 
	C50.709682,809.696716 50.709682,818.942749 50.709682,828.983704 
	C38.089157,828.983704 25.374292,828.983704 12.180140,828.983521 
z"/>
<path fill="#868686" opacity="1.000000" stroke="none" 
	d="
M765.992981,8.016329 
	C770.783386,8.016334 775.075500,8.016334 779.672119,8.016334 
	C779.672119,17.738707 779.672119,27.099485 779.672119,36.723213 
	C765.619934,36.723213 751.719055,36.723213 737.415161,36.723213 
	C737.415161,27.445154 737.415161,18.081644 737.415161,8.016325 
	C746.692444,8.016325 756.093628,8.016325 765.992981,8.016329 
z"/>
<path fill="#797979" opacity="1.000000" stroke="none" 
	d="
M312.949341,796.412476 
	C327.611847,795.986694 342.333313,795.995300 357.781677,796.011597 
	C358.681030,796.015564 358.853516,796.011841 359.025970,796.008179 
	C359.149170,796.358276 359.272369,796.708313 359.331055,797.329773 
	C344.719849,797.670349 330.173126,797.756287 315.626404,797.767029 
	C314.753937,797.767700 313.881012,797.167419 312.949341,796.412476 
z"/>
<path fill="#797979" opacity="1.000000" stroke="none" 
	d="
M367.007446,796.005066 
	C380.353790,796.001587 393.700134,795.998108 407.513733,795.998657 
	C406.931763,796.621399 405.886139,797.770874 404.832764,797.778015 
	C392.112946,797.864197 379.391998,797.781677 366.194183,797.639648 
	C365.695618,797.201111 365.674164,796.866028 366.045593,796.276978 
	C366.628082,796.017090 366.817749,796.011108 367.007446,796.005066 
z"/>
<path fill="#797979" opacity="1.000000" stroke="none" 
	d="
M479.004852,796.003662 
	C492.347565,796.000977 505.690308,795.998230 519.499146,796.000366 
	C518.679504,796.619568 517.398010,797.756775 516.107422,797.767212 
	C503.627869,797.867798 491.146790,797.779114 478.189819,797.635742 
	C477.686218,797.196533 477.658936,796.866089 478.028961,796.279907 
	C478.619110,796.017273 478.811981,796.010437 479.004852,796.003662 
z"/>
<path fill="#797979" opacity="1.000000" stroke="none" 
	d="
M265.007294,796.004883 
	C278.057343,796.014465 291.107361,796.024048 304.575592,796.372681 
	C304.920715,796.912659 304.847656,797.113464 304.774567,797.314331 
	C291.423401,797.465759 278.072235,797.617188 264.240967,797.703369 
	C263.786407,797.267700 263.811890,796.897400 264.178650,796.270020 
	C264.519928,796.012878 265.007294,796.004883 265.007294,796.004883 
z"/>
<path fill="#919191" opacity="1.000000" stroke="none" 
	d="
M257.425903,36.660492 
	C256.881042,36.279942 256.456299,35.608925 256.027832,34.665066 
	C256.531403,35.051495 257.038727,35.710762 257.425903,36.660492 
z"/>
<path fill="#919191" opacity="1.000000" stroke="none" 
	d="
M255.994583,796.005249 
	C256.287903,795.713318 256.581238,795.421387 257.085266,795.081787 
	C257.504578,795.736206 257.713226,796.438232 258.036926,797.490906 
	C257.653656,797.862732 257.155273,797.883911 256.302673,797.506714 
	C255.963806,796.740540 255.979187,796.372864 255.994583,796.005249 
z"/>
<path fill="#929292" opacity="1.000000" stroke="none" 
	d="
M366.662964,34.401539 
	C366.755615,34.868320 366.540619,35.342819 366.084778,35.940922 
	C366.014374,35.512768 366.184814,34.961010 366.662964,34.401539 
z"/>
<path fill="#959595" opacity="1.000000" stroke="none" 
	d="
M264.679077,34.400368 
	C264.793304,34.845116 264.622162,35.298714 264.233521,35.873169 
	C264.141937,35.465755 264.267822,34.937489 264.679077,34.400368 
z"/>
<path fill="#959595" opacity="1.000000" stroke="none" 
	d="
M359.095276,35.726082 
	C358.735382,35.646526 358.421997,35.275116 358.072754,34.648666 
	C358.405182,34.740498 358.773468,35.087364 359.095276,35.726082 
z"/>
<path fill="#929292" opacity="1.000000" stroke="none" 
	d="
M478.659241,34.401966 
	C478.749420,34.872604 478.528290,35.350132 478.062988,35.952198 
	C477.995178,35.520775 478.171570,34.964817 478.659241,34.401966 
z"/>
<path fill="#929292" opacity="1.000000" stroke="none" 
	d="
M478.870087,795.766602 
	C478.811981,796.010437 478.619110,796.017273 478.136841,796.039246 
	C477.803101,795.869873 477.758789,795.685303 477.770905,795.221680 
	C478.130005,795.138184 478.432648,795.333801 478.870087,795.766602 
z"/>
<path fill="#959595" opacity="1.000000" stroke="none" 
	d="
M471.037842,795.743530 
	C470.800537,795.815308 470.623993,795.652344 470.490997,795.459229 
	C470.466339,795.423462 470.617462,795.266663 470.852875,795.079895 
	C471.050079,795.162170 471.081879,795.330261 471.037842,795.743530 
z"/>
<path fill="#929292" opacity="1.000000" stroke="none" 
	d="
M366.876709,795.770630 
	C366.817749,796.011108 366.628082,796.017090 366.153778,796.033997 
	C365.827545,795.863525 365.785980,795.682251 365.800781,795.227478 
	C366.153381,795.148132 366.449677,795.342224 366.876709,795.770630 
z"/>
<path fill="#959595" opacity="1.000000" stroke="none" 
	d="
M359.084351,795.753601 
	C358.853516,796.011841 358.681030,796.015564 358.249756,796.012695 
	C358.188629,795.739014 358.386353,795.472107 358.811707,795.096069 
	C359.073883,795.157654 359.108337,795.328369 359.084351,795.753601 
z"/>
<path fill="#959595" opacity="1.000000" stroke="none" 
	d="
M264.900757,795.786621 
	C265.007294,796.004883 264.519928,796.012878 264.276489,796.001770 
	C263.996124,795.826965 263.959259,795.663269 263.971558,795.252747 
	C264.343475,795.104187 264.601318,795.291626 264.900757,795.786621 
z"/>
<path fill="#919191" opacity="1.000000" stroke="none" 
	d="
M572.947876,35.739433 
	C572.505737,35.837978 572.384644,35.593571 572.680054,35.146748 
	C572.815491,35.048660 572.987976,35.500813 572.947876,35.739433 
z"/>
<path fill="#959595" opacity="1.000000" stroke="none" 
	d="
M471.071381,35.754837 
	C470.888824,35.750984 470.748932,35.493355 470.759613,35.132088 
	C470.978180,35.185989 471.046112,35.343525 471.071381,35.754837 
z"/>
<path fill="#919191" opacity="1.000000" stroke="none" 
	d="
M58.726776,809.095581 
	C58.899872,809.371094 58.751507,809.592346 58.353607,809.862183 
	C58.276005,809.668945 58.376423,809.379089 58.726776,809.095581 
z"/>
<path fill="#919191" opacity="1.000000" stroke="none" 
	d="
M729.842651,809.712280 
	C729.562073,809.866211 729.351624,809.702942 729.109375,809.287964 
	C729.413086,808.968567 729.691528,809.088257 729.842651,809.712280 
z"/>
<path fill="#797979" opacity="1.000000" stroke="none" 
	d="
M255.526459,796.004211 
	C255.979187,796.372864 255.963806,796.740540 255.941681,797.384033 
	C242.035049,797.720703 228.135208,797.802979 214.235367,797.799377 
	C213.195847,797.799133 212.156509,797.184937 211.075882,796.430664 
	C225.709244,796.004578 240.383789,796.003906 255.526459,796.004211 
z"/>
<path fill="#575757" opacity="1.000000" stroke="none" 
	d="
M305.144775,797.324402 
	C304.847656,797.113464 304.920715,796.912659 305.050354,796.397034 
	C305.106964,796.082214 305.551666,796.050720 305.773254,796.026611 
	C305.834869,796.446533 305.674896,796.890503 305.144775,797.324402 
z"/>
</svg>