<svg version="1.1" id="Layer_1" xmlns="http://www.w3.org/2000/svg" xmlns:xlink="http://www.w3.org/1999/xlink" x="0px" y="0px"
	 width="100%" viewBox="0 0 786 835" enable-background="new 0 0 786 835" xml:space="preserve">
<path fill="#000000" opacity="1.000000" stroke="none" 
	d="
M58.000011,836.000000 
	C39.083508,836.000000 20.167015,836.000000 1.000000,836.000000 
	C1.000000,821.980103 1.000000,807.958679 1.401982,793.312744 
	C1.870087,791.361938 1.994103,790.035767 1.994148,788.709534 
	C2.002521,541.949707 2.003855,295.189941 1.960624,48.430153 
	C1.960365,46.953381 1.333995,45.476715 1.000000,44.000000 
	C1.000000,29.673859 1.000000,15.347718 1.000000,1.041874 
	C263.000000,1.041874 525.000000,1.041874 787.000000,1.041874 
	C787.000000,15.076726 787.000000,29.069704 786.598938,43.688820 
	C786.132324,45.641308 786.009399,46.967655 786.009338,48.294010 
	C785.994080,295.056671 785.985840,541.819336 786.022888,788.582031 
	C786.023071,790.054749 786.660278,791.527344 787.000000,793.000000 
	C787.000000,807.270325 787.000000,821.540710 787.000000,836.000000 
	C768.312866,836.000000 749.625061,836.000000 730.468018,835.554688 
	C729.581970,830.981873 726.405823,833.088928 724.666748,833.088135 
	C504.259766,832.986450 283.852692,832.995483 63.445644,832.999023 
	C62.446068,832.999084 61.211716,832.633240 60.502625,833.087280 
	C59.470119,833.748535 58.815659,835.000122 58.000011,836.000000 
M58.041107,809.547241 
	C58.041107,809.547241 58.166687,809.963013 58.030243,810.895630 
	C58.030243,816.827881 58.030243,822.760193 58.030243,828.684326 
	C282.337860,828.684326 505.995483,828.684326 729.840454,828.684326 
	C729.840454,822.232971 729.840454,816.100037 729.959717,809.550537 
	C729.959717,809.550537 729.942017,809.117676 729.956177,808.446045 
	C729.938171,808.222839 729.920105,807.999695 729.957458,806.874573 
	C730.006958,802.281921 730.056519,797.689209 730.965393,793.011414 
	C735.528259,793.444336 733.947876,789.972229 733.948364,787.936096 
	C734.006042,541.520996 734.003113,295.105927 734.003418,48.690842 
	C734.003418,47.217609 734.003418,45.744377 734.003418,44.215172 
	C732.419067,44.088051 731.263000,43.995289 729.998230,43.007378 
	C729.998230,40.393902 729.998230,37.780422 729.998230,35.103966 
	C727.696472,35.103966 725.888489,35.103966 723.151978,34.983315 
	C714.889465,34.654552 706.626953,34.041031 698.364380,34.038765 
	C502.495697,33.985020 306.627045,33.969910 110.758385,34.045876 
	C94.171852,34.052307 77.585571,34.748039 60.493141,35.122017 
	C60.391941,35.412182 60.290741,35.702343 60.064293,36.911007 
	C60.057232,288.770233 60.049923,540.629456 60.050541,792.488708 
	C60.050545,793.650452 60.163017,794.812195 60.071529,796.602600 
	C60.017723,797.030029 59.963921,797.457397 59.066914,798.008667 
	C58.743172,801.267212 58.419430,804.525757 58.041256,808.447693 
	C58.046062,808.669556 58.050869,808.891357 58.041107,809.547241 
M782.000000,302.500000 
	C782.000000,216.425217 782.000000,130.350433 782.000000,44.239342 
	C766.025269,44.239342 750.760315,44.239342 735.261108,44.239342 
	C735.261108,293.834717 735.261108,543.190125 735.261108,792.672729 
	C750.914246,792.672729 766.296814,792.672729 782.000000,792.672729 
	C782.000000,629.395691 782.000000,466.447845 782.000000,302.500000 
M6.000422,755.500000 
	C6.000422,767.920593 6.000422,780.341125 6.000422,792.746460 
	C21.996536,792.746460 37.260750,792.746460 52.714642,792.746460 
	C52.714642,543.142090 52.714642,293.791656 52.714642,44.344391 
	C37.047939,44.344391 21.669195,44.344391 6.000422,44.344391 
	C6.000422,281.292786 6.000422,517.896362 6.000422,755.500000 
M698.500000,13.000000 
	C485.088165,13.000000 271.676331,13.000000 58.393234,13.000000 
	C58.393234,18.798429 58.393234,23.870699 58.393234,28.853785 
	C282.379456,28.853785 505.972107,28.853785 729.698853,28.853785 
	C729.698853,23.499783 729.698853,18.439175 729.698853,13.000000 
	C719.435120,13.000000 709.467529,13.000000 698.500000,13.000000 
M392.500000,7.000530 
	C282.865082,7.000328 173.230133,7.000128 63.595207,6.999883 
	C62.762115,6.999881 61.880955,6.826127 61.107563,7.040838 
	C60.035919,7.338350 59.045284,7.927665 58.019962,8.392035 
	C58.963707,8.928640 59.857483,9.614686 60.867702,9.952501 
	C61.616909,10.203034 62.517384,10.000926 63.350475,10.000926 
	C283.620148,10.000853 503.889801,10.005011 724.159485,9.933368 
	C726.101013,9.932736 728.042175,8.914238 729.983521,8.370963 
	C727.957153,7.914151 725.931091,7.058792 723.904419,7.057607 
	C613.769653,6.993196 503.634827,7.000530 392.500000,7.000530 
M737.161255,8.818229 
	C737.161255,18.075962 737.161255,27.333694 737.161255,36.664734 
	C751.604370,36.664734 765.637390,36.664734 779.615967,36.664734 
	C779.615967,26.949883 779.615967,17.574463 779.615967,8.156377 
	C765.434143,8.156377 751.637512,8.156377 737.161255,8.818229 
M28.500153,36.999027 
	C35.911236,36.999027 43.322323,36.999027 50.585396,36.999027 
	C50.585396,26.900291 50.585396,17.530119 50.585396,8.262762 
	C36.258789,8.262762 22.347242,8.262762 8.316574,8.262762 
	C8.316574,17.897663 8.316574,27.267044 8.316574,36.999027 
	C14.919946,36.999027 21.210171,36.999027 28.500153,36.999027 
M35.496475,828.999390 
	C40.579288,828.999390 45.662102,828.999390 50.580185,828.999390 
	C50.580185,818.893005 50.580185,809.523804 50.580185,800.267090 
	C36.248878,800.267090 22.337767,800.267090 8.321052,800.267090 
	C8.321052,809.906799 8.321052,819.276367 8.321052,828.999390 
	C17.258743,828.999390 25.878405,828.999390 35.496475,828.999390 
M778.227478,800.022400 
	C764.635315,800.022400 751.043152,800.022400 737.315735,800.022400 
	C737.315735,809.905212 737.315735,819.277649 737.315735,828.633423 
	C751.668762,828.633423 765.702209,828.633423 780.000916,828.633423 
	C780.000916,824.126343 780.106567,819.979980 779.974304,815.841125 
	C779.807068,810.607605 779.446106,805.380249 778.227478,800.022400 
z"/>
<path fill="#FFFFFF" opacity="1.000000" stroke="none" 
	d="
M58.468670,836.000000 
	C58.815659,835.000122 59.470119,833.748535 60.502625,833.087280 
	C61.211716,832.633240 62.446068,832.999084 63.445644,832.999023 
	C283.852692,832.995483 504.259766,832.986450 724.666748,833.088135 
	C726.405823,833.088928 729.581970,830.981873 729.999390,835.554688 
	C506.312439,836.000000 282.624878,836.000000 58.468670,836.000000 
z"/>
<path fill="#FEFEFE" opacity="1.000000" stroke="none" 
	d="
M1.000000,44.462639 
	C1.333995,45.476715 1.960365,46.953381 1.960624,48.430153 
	C2.003855,295.189941 2.002521,541.949707 1.994148,788.709534 
	C1.994103,790.035767 1.870087,791.361938 1.401982,792.844116 
	C1.000000,543.641785 1.000000,294.283508 1.000000,44.462639 
z"/>
<path fill="#FFFFFF" opacity="1.000000" stroke="none" 
	d="
M787.000000,792.537354 
	C786.660278,791.527344 786.023071,790.054749 786.022888,788.582031 
	C785.985840,541.819336 785.994080,295.056671 786.009338,48.294010 
	C786.009399,46.967655 786.132324,45.641308 786.598938,44.157478 
	C787.000000,293.358246 787.000000,542.716492 787.000000,792.537354 
z"/>
<path fill="#868686" opacity="1.000000" stroke="none" 
	d="
M60.222965,795.973938 
	C60.163017,794.812195 60.050545,793.650452 60.050541,792.488708 
	C60.049923,540.629456 60.057232,288.770233 60.301708,36.348171 
	C60.750313,35.604950 60.903660,35.384354 60.999172,35.123547 
	C77.585571,34.748039 94.171852,34.052307 110.758385,34.045876 
	C306.627045,33.969910 502.495697,33.985020 698.364380,34.038765 
	C706.626953,34.041031 714.889465,34.654552 723.552124,35.501793 
	C723.935913,38.353210 723.905334,40.686150 723.905334,43.019085 
	C723.903809,292.642212 723.904602,542.265320 723.905273,791.888428 
	C723.905273,793.805054 723.905273,795.721741 723.905273,797.939636 
	C721.617126,797.939636 720.134155,797.938965 718.651123,797.939819 
	C667.940918,797.968323 617.230652,798.004456 566.520447,798.023010 
	C530.640137,798.036072 494.759857,798.025513 458.879547,798.025513 
	C421.331940,798.025513 383.784332,798.025513 346.236725,798.025513 
	C314.191193,798.025513 282.145020,797.900635 250.100311,798.063477 
	C222.493774,798.203796 194.889496,798.768677 167.282944,798.936951 
	C158.842834,798.988403 150.400192,798.132507 141.955811,798.067078 
	C118.964371,797.888855 95.971375,797.911072 72.882095,797.471558 
	C68.597786,796.717468 64.410378,796.345703 60.222965,795.973938 
z"/>
<path fill="#868686" opacity="1.000000" stroke="none" 
	d="
M782.000000,303.000000 
	C782.000000,466.447845 782.000000,629.395691 782.000000,792.672729 
	C766.296814,792.672729 750.914246,792.672729 735.261108,792.672729 
	C735.261108,543.190125 735.261108,293.834717 735.261108,44.239342 
	C750.760315,44.239342 766.025269,44.239342 782.000000,44.239342 
	C782.000000,130.350433 782.000000,216.425217 782.000000,303.000000 
z"/>
<path fill="#868686" opacity="1.000000" stroke="none" 
	d="
M6.000422,755.000000 
	C6.000422,517.896362 6.000422,281.292786 6.000422,44.344391 
	C21.669195,44.344391 37.047939,44.344391 52.714642,44.344391 
	C52.714642,293.791656 52.714642,543.142090 52.714642,792.746460 
	C37.260750,792.746460 21.996536,792.746460 6.000422,792.746460 
	C6.000422,780.341125 6.000422,767.920593 6.000422,755.000000 
z"/>
<path fill="#868686" opacity="1.000000" stroke="none" 
	d="
M729.840454,809.967041 
	C729.840454,816.100037 729.840454,822.232971 729.840454,828.684326 
	C505.995483,828.684326 282.337860,828.684326 58.030243,828.684326 
	C58.030243,822.760193 58.030243,816.827881 58.275429,810.338867 
	C58.742226,809.617981 58.891312,809.403564 59.427063,809.068237 
	C60.552372,808.987183 61.218498,808.967224 61.884624,808.967224 
	C282.771606,808.966003 503.658569,808.965881 724.545532,808.973267 
	C726.041077,808.973328 727.536560,809.080322 729.117798,809.318359 
	C729.364868,809.724548 729.577209,809.880432 729.840454,809.967041 
z"/>
<path fill="#FEFEFE" opacity="1.000000" stroke="none" 
	d="
M72.978996,797.853882 
	C95.971375,797.911072 118.964371,797.888855 141.955811,798.067078 
	C150.400192,798.132507 158.842834,798.988403 167.282944,798.936951 
	C194.889496,798.768677 222.493774,798.203796 250.100311,798.063477 
	C282.145020,797.900635 314.191193,798.025513 346.236725,798.025513 
	C383.784332,798.025513 421.331940,798.025513 458.879547,798.025513 
	C494.759857,798.025513 530.640137,798.036072 566.520447,798.023010 
	C617.230652,798.004456 667.940918,797.968323 718.651123,797.939819 
	C720.134155,797.938965 721.617126,797.939636 723.905273,797.939636 
	C723.905273,795.721741 723.905273,793.805054 723.905273,791.888428 
	C723.904602,542.265320 723.903809,292.642212 723.905334,43.019085 
	C723.905334,40.686150 723.935913,38.353210 724.016418,35.562119 
	C725.888489,35.103966 727.696472,35.103966 729.998230,35.103966 
	C729.998230,37.780422 729.998230,40.393902 729.993652,43.926708 
	C729.978821,45.512371 729.959717,46.178699 729.959717,46.845032 
	C729.959045,293.765259 729.959290,540.685486 729.966309,787.605713 
	C729.966370,789.435974 730.057495,791.266296 730.106079,793.096558 
	C730.056519,797.689209 730.006958,802.281921 729.478027,807.366333 
	C507.362946,807.862793 285.727356,807.867737 64.091782,807.868469 
	C62.093082,807.868469 60.094387,807.813538 58.095688,807.784302 
	C58.419430,804.525757 58.743172,801.267212 59.953590,798.010498 
	C64.886505,797.959534 68.932755,797.906738 72.978996,797.853882 
z"/>
<path fill="#868686" opacity="1.000000" stroke="none" 
	d="
M699.000000,13.000000 
	C709.467529,13.000000 719.435120,13.000000 729.698853,13.000000 
	C729.698853,18.439175 729.698853,23.499783 729.698853,28.853785 
	C505.972107,28.853785 282.379456,28.853785 58.393234,28.853785 
	C58.393234,23.870699 58.393234,18.798429 58.393234,13.000000 
	C271.676331,13.000000 485.088165,13.000000 699.000000,13.000000 
z"/>
<path fill="#868686" opacity="1.000000" stroke="none" 
	d="
M730.535767,793.053955 
	C730.057495,791.266296 729.966370,789.435974 729.966309,787.605713 
	C729.959290,540.685486 729.959045,293.765259 729.959717,46.845032 
	C729.959717,46.178699 729.978821,45.512371 730.047974,44.374283 
	C731.263000,43.995289 732.419067,44.088051 734.003418,44.215172 
	C734.003418,45.744377 734.003418,47.217609 734.003418,48.690842 
	C734.003113,295.105927 734.006042,541.520996 733.948364,787.936096 
	C733.947876,789.972229 735.528259,793.444336 730.535767,793.053955 
z"/>
<path fill="#FEFEFE" opacity="1.000000" stroke="none" 
	d="
M393.000000,7.000530 
	C503.634827,7.000530 613.769653,6.993196 723.904419,7.057607 
	C725.931091,7.058792 727.957153,7.914151 729.983521,8.370964 
	C728.042175,8.914238 726.101013,9.932736 724.159485,9.933368 
	C503.889801,10.005011 283.620148,10.000853 63.350475,10.000926 
	C62.517384,10.000926 61.616909,10.203034 60.867702,9.952501 
	C59.857483,9.614686 58.963707,8.928640 58.019962,8.392036 
	C59.045284,7.927665 60.035919,7.338350 61.107563,7.040838 
	C61.880955,6.826127 62.762115,6.999881 63.595207,6.999883 
	C173.230133,7.000128 282.865082,7.000328 393.000000,7.000530 
z"/>
<path fill="#868686" opacity="1.000000" stroke="none" 
	d="
M737.501099,8.487303 
	C751.637512,8.156377 765.434143,8.156377 779.615967,8.156377 
	C779.615967,17.574463 779.615967,26.949883 779.615967,36.664734 
	C765.637390,36.664734 751.604370,36.664734 737.161255,36.664734 
	C737.161255,27.333694 737.161255,18.075962 737.501099,8.487303 
z"/>
<path fill="#868686" opacity="1.000000" stroke="none" 
	d="
M28.000275,36.999027 
	C21.210171,36.999027 14.919946,36.999027 8.316574,36.999027 
	C8.316574,27.267044 8.316574,17.897663 8.316574,8.262762 
	C22.347242,8.262762 36.258789,8.262762 50.585396,8.262762 
	C50.585396,17.530119 50.585396,26.900291 50.585396,36.999027 
	C43.322323,36.999027 35.911236,36.999027 28.000275,36.999027 
z"/>
<path fill="#868686" opacity="1.000000" stroke="none" 
	d="
M34.997269,828.999390 
	C25.878405,828.999390 17.258743,828.999390 8.321052,828.999390 
	C8.321052,819.276367 8.321052,809.906799 8.321052,800.267090 
	C22.337767,800.267090 36.248878,800.267090 50.580185,800.267090 
	C50.580185,809.523804 50.580185,818.893005 50.580185,828.999390 
	C45.662102,828.999390 40.579288,828.999390 34.997269,828.999390 
z"/>
<path fill="#868686" opacity="1.000000" stroke="none" 
	d="
M778.698120,800.086304 
	C779.446106,805.380249 779.807068,810.607605 779.974304,815.841125 
	C780.106567,819.979980 780.000916,824.126343 780.000916,828.633423 
	C765.702209,828.633423 751.668762,828.633423 737.315735,828.633423 
	C737.315735,819.277649 737.315735,809.905212 737.315735,800.022400 
	C751.043152,800.022400 764.635315,800.022400 778.698120,800.086304 
z"/>
<path fill="#121212" opacity="1.000000" stroke="none" 
	d="
M58.068474,808.115967 
	C60.094387,807.813538 62.093082,807.868469 64.091782,807.868469 
	C285.727356,807.867737 507.362946,807.862793 729.450317,807.817322 
	C729.920105,807.999695 729.938171,808.222839 729.720703,808.745667 
	C729.485291,809.045288 729.032104,809.137451 729.032104,809.137451 
	C727.536560,809.080322 726.041077,808.973328 724.545532,808.973267 
	C503.658569,808.965881 282.771606,808.966003 61.884624,808.967224 
	C61.218498,808.967224 60.552372,808.987183 59.200230,809.018311 
	C58.514214,809.038757 58.055672,809.113220 58.055672,809.113220 
	C58.050869,808.891357 58.046062,808.669556 58.068474,808.115967 
z"/>
<path fill="#797979" opacity="1.000000" stroke="none" 
	d="
M72.882095,797.471558 
	C68.932755,797.906738 64.886505,797.959534 60.375191,797.948608 
	C59.963921,797.457397 60.017723,797.030029 60.147247,796.288269 
	C64.410378,796.345703 68.597786,796.717468 72.882095,797.471558 
z"/>
<path fill="#797979" opacity="1.000000" stroke="none" 
	d="
M60.746155,35.122780 
	C60.903660,35.384354 60.750313,35.604950 60.364334,35.888920 
	C60.290741,35.702343 60.391941,35.412182 60.746155,35.122780 
z"/>
<path fill="#919191" opacity="1.000000" stroke="none" 
	d="
M58.048389,809.330200 
	C58.055672,809.113220 58.514214,809.038757 58.741043,809.088745 
	C58.891312,809.403564 58.742226,809.617981 58.343651,809.872559 
	C58.166687,809.963013 58.041107,809.547241 58.048389,809.330200 
z"/>
<path fill="#919191" opacity="1.000000" stroke="none" 
	d="
M729.117798,809.318359 
	C729.032104,809.137451 729.485291,809.045288 729.713623,809.081482 
	C729.942017,809.117676 729.959717,809.550537 729.900085,809.758789 
	C729.577209,809.880432 729.364868,809.724548 729.117798,809.318359 
z"/>
</svg>