<svg version="1.1" id="Layer_1" xmlns="http://www.w3.org/2000/svg" xmlns:xlink="http://www.w3.org/1999/xlink" x="0px" y="0px"
	 width="100%" viewBox="0 0 1965 835" enable-background="new 0 0 1965 835" xml:space="preserve">
<path fill="#050505" opacity="1.000000" stroke="none" 
	d="
M1.000000,816.000000 
	C1.000000,809.645569 1.000000,803.291199 1.387473,796.418640 
	C5.511012,796.169189 6.621651,794.783508 5.079536,791.178101 
	C3.377916,787.199768 0.970037,783.283569 4.819910,778.876343 
	C5.757673,777.802856 5.522052,774.486145 4.534741,773.168152 
	C0.982029,768.425354 3.638116,766.779480 7.894773,765.469849 
	C7.894773,759.626831 8.175610,753.782532 7.771776,747.985962 
	C7.580791,745.244568 8.110164,741.739746 4.212745,740.236511 
	C3.520230,739.969360 3.410051,737.382812 3.562821,735.922913 
	C3.794147,733.712280 4.924572,731.551147 4.928244,729.367737 
	C5.012586,679.206116 5.017869,629.044250 4.927768,578.882629 
	C4.923595,576.559326 3.666828,574.260864 3.431541,571.906982 
	C3.287851,570.469482 3.482930,568.430237 4.389091,567.556152 
	C7.895081,564.174377 7.870634,560.965698 4.314316,557.239075 
	C3.395704,556.276489 3.156619,554.239746 3.313109,552.771851 
	C3.579210,550.275757 4.921430,547.839966 4.923959,545.377930 
	C5.012823,458.886383 5.011791,372.394775 4.928103,285.903229 
	C4.925697,283.416962 3.611805,280.950867 3.439379,278.438965 
	C3.331218,276.863281 3.732415,274.764038 4.744423,273.692078 
	C7.728563,270.531097 7.636277,266.551422 4.546996,263.330475 
	C3.565340,262.307007 3.369297,260.138336 3.489736,258.544800 
	C3.654801,256.360809 4.926228,254.226318 4.929996,252.069214 
	C5.017608,201.907562 4.999650,151.745743 4.988523,101.583946 
	C4.988194,100.096054 5.429608,98.154900 4.679385,97.197273 
	C1.060562,92.577995 3.047254,90.454994 7.487828,89.491890 
	C7.487828,82.906433 8.386851,76.432030 7.223918,70.352013 
	C6.154525,64.761047 1.831864,59.752640 4.930154,53.572151 
	C0.986365,49.718575 3.308419,45.841904 4.726443,41.850887 
	C5.298156,40.241802 5.124677,38.367954 5.312191,36.383263 
	C3.604800,36.231510 2.302400,36.115757 1.000000,36.000000 
	C1.000000,29.645601 1.000000,23.291204 1.426251,16.524979 
	C3.062754,15.961322 4.273006,15.809492 5.356544,15.673559 
	C5.583846,10.490108 5.791923,5.745054 6.000000,1.000000 
	C26.687561,1.000000 47.375122,1.000000 68.589470,1.446870 
	C69.116257,3.841996 69.116257,5.790250 69.116257,7.850803 
	C84.252899,7.850803 98.871666,7.883495 113.489319,7.771579 
	C114.389816,7.764685 115.658684,6.817850 116.112137,5.965658 
	C118.078903,2.269467 121.206947,1.707554 124.960854,1.962297 
	C128.278366,2.187427 131.630295,1.884056 134.952545,2.071213 
	C136.310349,2.147704 138.388153,2.516462 138.841705,3.410261 
	C141.427292,8.505582 145.883820,7.993494 150.364227,7.869958 
	C154.193954,7.764363 158.038147,7.688757 161.858856,7.903757 
	C165.058777,8.083825 167.465836,7.473825 169.412003,4.543143 
	C170.297348,3.209933 172.594513,2.161784 174.279282,2.120250 
	C183.605301,1.890337 192.941666,1.920737 202.270035,2.096771 
	C203.858337,2.126744 206.232513,2.860170 206.854034,4.015909 
	C208.908707,7.836516 212.029068,8.060768 215.682541,7.895287 
	C219.673676,7.714510 223.685425,7.716759 227.676926,7.893655 
	C231.663162,8.070318 235.116699,7.779148 237.442764,3.716980 
	C238.080917,2.602570 240.565872,2.111176 242.216080,2.083095 
	C251.211960,1.930013 260.212799,1.944975 269.209351,2.076339 
	C270.707062,2.098208 273.084259,2.563223 273.533173,3.530075 
	C275.827911,8.472420 279.972046,7.971098 284.159180,7.873134 
	C288.322968,7.775716 292.497742,7.688694 296.654083,7.885087 
	C299.724396,8.030163 301.902740,7.289950 303.836426,4.615432 
	C304.864410,3.193606 307.352203,2.170817 309.213104,2.119020 
	C318.204559,1.868752 327.208496,1.922878 336.203888,2.090414 
	C337.846436,2.121006 340.274597,2.700852 340.956665,3.849002 
	C343.346436,7.871875 346.827454,8.079547 350.796143,7.890404 
	C354.620117,7.708155 358.464752,7.728360 362.290863,7.887531 
	C366.051208,8.043968 369.391113,7.992514 371.511566,3.920813 
	C372.109039,2.773593 374.603638,2.122389 376.243927,2.091777 
	C385.405884,1.920792 394.574280,1.921816 403.736237,2.092071 
	C405.377441,2.122569 407.885101,2.765584 408.470123,3.906510 
	C410.576111,8.013619 413.967529,7.981083 417.694122,7.879957 
	C422.190186,7.757948 426.697327,7.704614 431.189117,7.884747 
	C434.238892,8.007051 436.445770,7.341720 438.371704,4.629581 
	C439.387299,3.199422 441.902802,2.176003 443.773560,2.123336 
	C452.764893,1.870201 461.768890,1.924767 470.764343,2.089563 
	C472.413239,2.119770 474.948486,2.704840 475.520081,3.826180 
	C477.597778,7.902224 480.929108,8.000515 484.676514,7.876638 
	C488.671387,7.744582 492.682068,7.695712 496.671173,7.898859 
	C500.498138,8.093747 503.793488,7.788883 506.038177,3.973331 
	C506.679504,2.883210 508.752869,2.118612 510.184753,2.094171 
	C519.680359,1.932096 529.180847,1.952825 538.677551,2.080972 
	C540.007141,2.098914 542.065125,2.667340 542.522034,3.600081 
	C544.757080,8.162329 548.618164,8.016048 552.714417,7.884522 
	C557.042419,7.745553 561.388733,7.678409 565.707703,7.921977 
	C568.846558,8.098989 570.944092,7.218757 572.771973,4.507002 
	C573.664307,3.183265 575.953064,2.158254 577.636963,2.117423 
	C586.963196,1.891274 596.298889,1.940362 605.628540,2.080451 
	C607.116943,2.102800 609.443115,2.653445 609.926270,3.659161 
	C612.147461,8.282680 616.017212,7.991046 620.051636,7.878147 
	C624.214478,7.761654 628.393005,7.666654 632.545654,7.899750 
	C635.745728,8.079373 638.146606,7.517012 640.121521,4.611179 
	C641.043335,3.254917 643.344299,2.167269 645.049866,2.123811 
	C654.375549,1.886196 663.711304,1.950941 673.041321,2.077713 
	C674.383667,2.095953 676.469788,2.644718 676.922485,3.575166 
	C679.253174,8.366095 683.328491,8.017298 687.538025,7.882511 
	C691.699707,7.749260 695.882080,7.653615 700.030701,7.922191 
	C703.157104,8.124593 705.225281,7.167636 707.214600,4.687535 
	C708.349670,3.272388 710.725464,2.179153 712.576721,2.125915 
	C721.567749,1.867352 730.571960,1.920928 739.567261,2.090021 
	C741.216675,2.121027 743.663757,2.721762 744.337708,3.878247 
	C746.716370,7.959782 750.221558,8.076675 754.188477,7.893974 
	C758.345764,7.702504 762.533630,7.622785 766.679626,7.908705 
	C770.131165,8.146741 772.583862,7.385277 774.620728,4.303519 
	C775.484985,2.995921 777.922607,2.141796 779.668640,2.101593 
	C788.828796,1.890671 797.997498,1.941119 807.160767,2.073681 
	C808.670349,2.095520 811.063293,2.555766 811.519531,3.529554 
	C813.817444,8.433726 817.939636,7.948308 822.109070,7.861054 
	C826.273071,7.773915 830.450317,7.675479 834.603149,7.910354 
	C837.706482,8.085871 839.881226,7.321946 841.755493,4.612997 
	C842.690918,3.260989 844.967041,2.167182 846.666260,2.124329 
	C855.992004,1.889132 865.328125,1.941150 874.657349,2.095148 
	C876.112305,2.119165 878.294250,2.771252 878.863464,3.823474 
	C880.993774,7.761599 884.256287,8.089591 888.109070,7.901009 
	C892.431274,7.689452 896.783081,7.662613 901.100952,7.914780 
	C904.550903,8.116258 907.131165,7.353050 909.129211,4.270002 
	C909.877747,3.114903 911.822388,2.137965 913.241516,2.110766 
	C922.902893,1.925603 932.570190,1.968624 942.233948,2.077177 
	C943.416504,2.090461 945.230957,2.601908 945.662170,3.442146 
	C948.270630,8.524482 952.768494,8.002093 957.271118,7.876214 
	C961.267334,7.764491 965.276489,7.700386 969.265930,7.897817 
	C972.125977,8.039353 974.156860,7.506623 975.904846,4.845566 
	C976.865906,3.382288 979.339111,2.193347 981.167542,2.139596 
	C990.491455,1.865500 999.828552,1.927722 1009.157959,2.070554 
	C1010.663269,2.093601 1013.057434,2.725725 1013.495544,3.742231 
	C1015.503174,8.400633 1019.311096,7.920824 1023.134705,7.867205 
	C1026.966553,7.813470 1030.808838,7.692335 1034.630005,7.901411 
	C1038.461426,8.111042 1041.733276,7.758031 1043.997559,3.986728 
	C1044.656860,2.888610 1046.729370,2.118703 1048.169434,2.093838 
	C1057.665039,1.929888 1067.166260,1.928060 1076.661621,2.099526 
	C1078.099854,2.125497 1080.232056,2.952198 1080.812134,4.055755 
	C1082.714722,7.674953 1085.603394,8.084804 1089.157227,7.903705 
	C1093.312378,7.691951 1097.492188,7.715992 1101.650757,7.890020 
	C1105.447510,8.048901 1108.749023,7.807961 1111.075195,4.029001 
	C1111.803467,2.846045 1114.134888,2.130485 1115.750000,2.098855 
	C1124.911499,1.919438 1134.079590,1.941741 1143.242432,2.083861 
	C1144.728394,2.106910 1146.963379,2.643167 1147.544922,3.677292 
	C1149.963013,7.977046 1153.687988,8.068791 1157.829468,7.895111 
	C1162.320801,7.706754 1166.859619,8.174112 1171.310669,7.711025 
	C1173.422729,7.491298 1175.376099,5.767628 1177.406494,4.735454 
	C1179.207520,3.819858 1180.994385,2.187605 1182.824585,2.133844 
	C1191.981689,1.864852 1201.152100,1.942367 1210.314941,2.081058 
	C1211.798584,2.103512 1214.027466,2.613520 1214.611450,3.638830 
	C1217.025146,7.876759 1220.682617,8.103944 1224.846313,7.901392 
	C1229.168457,7.691126 1233.516846,7.700936 1237.839111,7.912118 
	C1240.947510,8.063992 1243.117798,7.291781 1244.932495,4.506080 
	C1245.796143,3.180580 1248.114746,2.161266 1249.801514,2.120251 
	C1259.127808,1.893459 1268.463379,1.940031 1277.792969,2.082459 
	C1279.282715,2.105203 1281.581665,2.671649 1282.097900,3.696310 
	C1284.370361,8.207890 1288.185791,8.008018 1292.223633,7.881752 
	C1296.385498,7.751611 1300.565308,7.666052 1304.717163,7.906936 
	C1307.932983,8.093516 1310.321289,7.473608 1312.314453,4.607883 
	C1313.253784,3.257236 1315.528931,2.168272 1317.228638,2.124864 
	C1326.554199,1.886697 1335.890503,1.931195 1345.219482,2.087951 
	C1346.699829,2.112826 1348.880615,2.788049 1349.503418,3.871833 
	C1351.716064,7.721767 1355.000000,8.056566 1358.834351,7.898896 
	C1363.325928,7.714199 1367.842651,7.661848 1372.326172,7.927790 
	C1375.459595,8.113652 1377.503296,7.183595 1379.450806,4.633839 
	C1380.533813,3.215944 1382.973389,2.177080 1384.835205,2.123128 
	C1393.659546,1.867407 1402.496948,1.930238 1411.326172,2.080064 
	C1413.011475,2.108662 1415.591919,2.537603 1416.201172,3.641767 
	C1418.878906,8.494127 1423.192139,7.911544 1427.491821,7.862717 
	C1431.490601,7.817310 1435.495117,7.730878 1439.488037,7.888704 
	C1442.520752,8.008574 1444.805176,7.461380 1446.571655,4.532343 
	C1447.377686,3.195937 1449.761597,2.161185 1451.457642,2.119493 
	C1460.783813,1.890261 1470.119507,1.940430 1479.449097,2.082820 
	C1480.935669,2.105510 1483.190308,2.656753 1483.750244,3.689753 
	C1486.113770,8.050459 1489.869385,8.053002 1493.957031,7.888393 
	C1497.783569,7.734291 1501.630737,7.682128 1505.451050,7.899484 
	C1509.155396,8.110243 1512.200317,7.688474 1514.383301,4.058638 
	C1515.099609,2.867571 1517.449707,2.132125 1519.071045,2.099547 
	C1528.232422,1.915452 1537.400391,1.939336 1546.563599,2.076270 
	C1548.059326,2.098622 1550.299805,2.596967 1550.897949,3.628226 
	C1553.442139,8.015007 1557.284912,8.123044 1561.571045,7.901221 
	C1565.725830,7.686180 1569.908569,7.698431 1574.063843,7.910043 
	C1577.138062,8.066606 1579.264404,7.314908 1581.152954,4.599198 
	C1582.148438,3.167910 1584.707520,2.174660 1586.592529,2.121912 
	C1595.583862,1.870313 1604.588135,1.916037 1613.583008,2.095422 
	C1615.188354,2.127438 1617.461914,2.835075 1618.235352,4.013123 
	C1620.591553,7.601904 1623.722168,8.138785 1627.582153,7.911380 
	C1631.899902,7.657013 1636.258911,7.630450 1640.571777,7.922322 
	C1644.021240,8.155760 1646.459961,7.348185 1648.532715,4.348119 
	C1649.438232,3.037423 1651.818970,2.150199 1653.554810,2.108624 
	C1662.714600,1.889222 1671.884277,1.909326 1681.046021,2.082933 
	C1682.670776,2.113722 1685.142456,2.819437 1685.729858,3.973547 
	C1687.732300,7.907195 1690.889160,8.047919 1694.538330,7.893236 
	C1698.530518,7.724014 1702.549316,7.644979 1706.530762,7.911364 
	C1710.589966,8.182965 1713.890747,7.600036 1716.351318,3.813172 
	C1717.095459,2.667940 1719.461182,2.117263 1721.098389,2.087794 
	C1730.094116,1.925886 1739.095581,1.923879 1748.091064,2.089611 
	C1749.714722,2.119525 1752.100342,2.715281 1752.791016,3.860107 
	C1755.181641,7.823374 1758.582520,8.151587 1762.587769,7.903628 
	C1766.406006,7.667258 1770.253906,7.737916 1774.081543,7.873717 
	C1777.846436,8.007287 1781.191406,7.969047 1783.355103,3.871590 
	C1783.992065,2.665230 1786.769409,2.121385 1788.582764,2.083612 
	C1797.077515,1.906654 1805.581055,2.139213 1814.075317,1.950511 
	C1817.199219,1.881115 1819.310425,2.766612 1821.324829,5.236085 
	C1822.464966,6.633817 1824.850708,7.718151 1826.688354,7.737975 
	C1851.343872,8.003956 1876.001709,8.061872 1900.658936,8.147516 
	C1901.755615,8.151325 1902.853149,7.926573 1904.000000,7.802920 
	C1904.000000,5.327968 1904.000000,3.163984 1904.000000,1.000000 
	C1924.657227,1.000000 1945.314453,1.000000 1965.954712,1.000000 
	C1965.954712,279.333344 1965.954712,557.666687 1965.954712,836.000000 
	C1945.585327,836.000000 1925.261353,836.000000 1904.458984,835.569885 
	C1902.178711,834.790405 1900.376709,834.135071 1898.574829,834.134949 
	C1291.076660,834.090942 683.578430,834.091858 76.080261,834.092285 
	C74.246994,834.092285 72.392593,833.942261 70.592346,834.187317 
	C69.990486,834.269287 69.526855,835.366760 69.000015,836.000000 
	C48.312439,836.000000 27.624876,836.000000 6.357228,835.542419 
	C5.777142,828.863464 5.777142,822.642090 5.777142,816.000000 
	C3.858433,816.000000 2.429216,816.000000 1.000000,816.000000 
M1903.741577,794.875122 
	C1907.997437,792.387268 1905.341797,788.432068 1905.930664,784.191833 
	C1906.078735,778.541748 1906.351440,772.891663 1906.352905,767.241516 
	C1906.358276,746.409790 1906.233032,725.578064 1906.229980,704.746338 
	C1906.197510,486.926208 1906.172729,269.106079 1906.190674,51.285931 
	C1906.191162,45.380688 1906.693359,39.475487 1906.967407,33.436989 
	C1306.217529,33.436989 705.721863,33.436989 105.012756,33.436989 
	C105.012756,37.186413 105.035561,40.513195 104.998726,43.839317 
	C104.987785,44.826637 105.074226,46.537979 104.666573,46.686859 
	C100.272095,48.291798 102.018326,51.966572 102.017502,54.755291 
	C101.946754,293.407806 101.947350,532.060364 101.990440,770.712891 
	C101.991188,774.843323 100.394279,779.614197 105.572182,782.322388 
	C106.120316,782.609070 106.002617,784.168823 106.043602,786.011414 
	C106.043915,788.972229 106.044228,791.933044 105.998329,795.358215 
	C105.998329,795.358215 105.975525,795.824280 105.045532,795.915100 
	C93.128098,795.915100 81.210663,795.915100 69.373711,795.915100 
	C69.373711,806.385559 69.373711,816.126648 69.373711,825.697144 
	C681.065186,825.697144 1292.395630,825.697144 1903.986938,825.697144 
	C1903.986938,818.179077 1904.072144,811.027039 1903.943237,803.878906 
	C1903.894287,801.159485 1903.352783,798.448975 1903.023193,795.494202 
	C1903.023193,795.494202 1903.017944,795.243347 1903.741577,794.875122 
M82.053017,446.500000 
	C82.053017,309.415131 82.053017,172.330292 82.053017,35.279793 
	C77.363365,35.279793 73.305908,35.279793 69.243629,35.279793 
	C69.047104,38.049225 68.876549,40.452679 68.683403,43.174484 
	C50.256470,43.174484 32.318153,43.174484 13.442862,43.174484 
	C16.226177,51.281189 9.686473,60.147881 17.549679,67.133896 
	C18.019230,67.551071 17.918421,68.716881 17.922216,69.535080 
	C17.959311,77.533867 18.013962,85.533417 17.919580,93.531059 
	C17.905241,94.746048 17.424358,96.786430 16.698011,97.021835 
	C13.079386,98.194641 13.924700,101.017838 13.924181,103.487724 
	C13.911715,162.816422 13.898774,222.145157 14.001874,281.473694 
	C14.008702,285.402466 12.040125,290.204437 17.408651,292.703705 
	C17.859842,292.913727 17.954594,294.214386 17.958536,295.009674 
	C17.996550,302.675507 18.064999,310.343597 17.893387,318.005829 
	C17.865101,319.268738 16.748301,320.524811 16.074173,321.750854 
	C15.397874,322.980865 14.019171,324.168396 14.017258,325.376251 
	C13.919057,387.371368 13.930176,449.366669 13.976008,511.361938 
	C13.976895,512.561829 14.216969,514.570374 14.878135,514.826477 
	C18.495766,516.227783 17.978712,519.170898 17.989031,521.951904 
	C18.014381,528.784607 18.074425,535.619141 17.930658,542.448975 
	C17.898251,543.988586 17.508680,546.450378 16.564280,546.870361 
	C13.485237,548.239746 13.926738,550.604553 13.926958,553.013062 
	C13.932379,612.175293 13.906834,671.337524 13.999291,730.499573 
	C14.005439,734.432678 12.120457,739.136414 17.274208,741.816528 
	C17.904339,742.144165 17.908964,743.945801 17.953001,745.074097 
	C18.050428,747.570190 18.366709,750.142395 17.920305,752.559204 
	C16.594372,759.737610 21.717962,768.127869 13.957914,774.110168 
	C13.875728,774.173523 13.940568,774.430542 13.940558,774.597168 
	C13.940174,781.010681 13.940233,787.424255 13.940233,793.763916 
	C30.350657,793.763916 45.960194,793.763916 62.058022,793.763916 
	C62.058022,790.245483 62.239819,786.944214 62.012112,783.671448 
	C61.725899,779.557800 63.417736,777.873108 67.512634,778.019897 
	C72.260185,778.190125 77.018517,778.059509 82.053062,778.059509 
	C82.053062,667.442871 82.053062,557.471436 82.053017,446.500000 
M1946.489380,42.993027 
	C1934.726807,42.993027 1922.964233,42.993027 1911.260742,42.993027 
	C1911.260742,293.630219 1911.260742,543.645752 1911.260742,793.677673 
	C1927.324097,793.677673 1943.060059,793.677673 1958.750732,793.677673 
	C1958.750732,543.323975 1958.750732,293.305481 1958.750732,42.993027 
	C1954.768677,42.993027 1951.125977,42.993027 1946.489380,42.993027 
M746.500000,14.946925 
	C520.771851,14.946925 295.043671,14.946925 69.396500,14.946925 
	C69.396500,19.726597 69.396500,23.786831 69.396500,27.716606 
	C681.128540,27.716606 1292.476196,27.716606 1903.695557,27.716606 
	C1903.695557,23.279762 1903.695557,19.212816 1903.695557,14.946890 
	C1518.058716,14.946890 1132.779297,14.946890 746.500000,14.946925 
M87.997658,77.500000 
	C87.997658,310.921967 87.997658,544.343933 87.997658,778.080994 
	C89.997467,777.964783 91.392860,777.883728 92.775757,777.803406 
	C92.775757,530.032959 92.775757,282.641235 92.775757,34.966724 
	C91.075966,35.052002 89.678558,35.122112 87.997658,35.206444 
	C87.997658,49.216202 87.997658,62.858101 87.997658,77.500000 
M1948.496094,37.060600 
	C1953.249634,37.060600 1958.003296,37.060600 1962.671875,37.060600 
	C1962.671875,25.703457 1962.671875,14.984258 1962.671875,4.310376 
	C1945.266357,4.310376 1928.214722,4.310376 1911.268799,4.310376 
	C1911.268799,15.374945 1911.268799,26.102251 1911.268799,37.060646 
	C1923.570679,37.060646 1935.533936,37.060646 1948.496094,37.060600 
M61.988510,29.404764 
	C61.988510,22.335857 61.988510,15.266950 61.988510,8.267614 
	C45.632210,8.267614 30.063250,8.267614 14.320688,8.267614 
	C14.320688,17.557175 14.320688,26.589106 14.320688,35.641090 
	C30.317148,35.641090 46.004547,35.641090 61.988579,35.641090 
	C61.988579,33.656246 61.988579,32.015255 61.988510,29.404764 
M38.499977,828.987061 
	C46.240494,828.987061 53.981010,828.987061 61.581108,828.987061 
	C61.581108,819.242249 61.581108,810.209412 61.581108,801.278687 
	C45.606438,801.278687 30.040554,801.278687 14.332380,801.278687 
	C14.332380,810.577148 14.332380,819.606445 14.332380,828.987061 
	C22.264950,828.987061 29.882486,828.987061 38.499977,828.987061 
M1916.625732,801.012878 
	C1914.864746,801.012878 1913.103882,801.012878 1911.396484,801.012878 
	C1911.396484,810.705261 1911.396484,819.737549 1911.396484,828.742310 
	C1927.349121,828.742310 1942.916504,828.742310 1958.687012,828.742310 
	C1958.687012,819.465576 1958.687012,810.435181 1958.687012,801.012939 
	C1944.792358,801.012939 1931.194214,801.012939 1916.625732,801.012878 
M77.551849,789.054199 
	C84.300385,789.054199 91.048927,789.054199 97.797462,789.054199 
	C97.953529,788.647278 98.109596,788.240356 98.265663,787.833435 
	C97.592522,787.217712 96.927757,786.076904 96.244965,786.066101 
	C87.779053,785.931152 79.310120,785.925537 70.843468,786.020447 
	C70.224442,786.027344 69.616974,787.067505 69.004128,787.627319 
	C69.700058,788.100403 70.359657,788.899536 71.099129,788.981934 
	C72.903526,789.182983 74.744911,789.052185 77.551849,789.054199 
z"/>
<path fill="#F6F6F6" opacity="1.000000" stroke="none" 
	d="
M1903.531372,1.000000 
	C1904.000000,3.163984 1904.000000,5.327968 1904.000000,7.802920 
	C1902.853149,7.926573 1901.755615,8.151325 1900.658936,8.147516 
	C1876.001709,8.061872 1851.343872,8.003956 1826.688354,7.737975 
	C1824.850708,7.718151 1822.464966,6.633817 1821.324829,5.236085 
	C1819.310425,2.766612 1817.199219,1.881115 1814.075317,1.950511 
	C1805.581055,2.139213 1797.077515,1.906654 1788.582764,2.083612 
	C1786.769409,2.121385 1783.992065,2.665230 1783.355103,3.871590 
	C1781.191406,7.969047 1777.846436,8.007287 1774.081543,7.873717 
	C1770.253906,7.737916 1766.406006,7.667258 1762.587769,7.903628 
	C1758.582520,8.151587 1755.181641,7.823374 1752.791016,3.860107 
	C1752.100342,2.715281 1749.714722,2.119525 1748.091064,2.089611 
	C1739.095581,1.923879 1730.094116,1.925886 1721.098389,2.087794 
	C1719.461182,2.117263 1717.095459,2.667940 1716.351318,3.813172 
	C1713.890747,7.600036 1710.589966,8.182965 1706.530762,7.911364 
	C1702.549316,7.644979 1698.530518,7.724014 1694.538330,7.893236 
	C1690.889160,8.047919 1687.732300,7.907195 1685.729858,3.973547 
	C1685.142456,2.819437 1682.670776,2.113722 1681.046021,2.082933 
	C1671.884277,1.909326 1662.714600,1.889222 1653.554810,2.108624 
	C1651.818970,2.150199 1649.438232,3.037423 1648.532715,4.348119 
	C1646.459961,7.348185 1644.021240,8.155760 1640.571777,7.922322 
	C1636.258911,7.630450 1631.899902,7.657013 1627.582153,7.911380 
	C1623.722168,8.138785 1620.591553,7.601904 1618.235352,4.013123 
	C1617.461914,2.835075 1615.188354,2.127438 1613.583008,2.095422 
	C1604.588135,1.916037 1595.583862,1.870313 1586.592529,2.121912 
	C1584.707520,2.174660 1582.148438,3.167910 1581.152954,4.599198 
	C1579.264404,7.314908 1577.138062,8.066606 1574.063843,7.910043 
	C1569.908569,7.698431 1565.725830,7.686180 1561.571045,7.901221 
	C1557.284912,8.123044 1553.442139,8.015007 1550.897949,3.628226 
	C1550.299805,2.596967 1548.059326,2.098622 1546.563599,2.076270 
	C1537.400391,1.939336 1528.232422,1.915452 1519.071045,2.099547 
	C1517.449707,2.132125 1515.099609,2.867571 1514.383301,4.058638 
	C1512.200317,7.688474 1509.155396,8.110243 1505.451050,7.899484 
	C1501.630737,7.682128 1497.783569,7.734291 1493.957031,7.888393 
	C1489.869385,8.053002 1486.113770,8.050459 1483.750244,3.689753 
	C1483.190308,2.656753 1480.935669,2.105510 1479.449097,2.082820 
	C1470.119507,1.940430 1460.783813,1.890261 1451.457642,2.119493 
	C1449.761597,2.161185 1447.377686,3.195937 1446.571655,4.532343 
	C1444.805176,7.461380 1442.520752,8.008574 1439.488037,7.888704 
	C1435.495117,7.730878 1431.490601,7.817310 1427.491821,7.862717 
	C1423.192139,7.911544 1418.878906,8.494127 1416.201172,3.641767 
	C1415.591919,2.537603 1413.011475,2.108662 1411.326172,2.080064 
	C1402.496948,1.930238 1393.659546,1.867407 1384.835205,2.123128 
	C1382.973389,2.177080 1380.533813,3.215944 1379.450806,4.633839 
	C1377.503296,7.183595 1375.459595,8.113652 1372.326172,7.927790 
	C1367.842651,7.661848 1363.325928,7.714199 1358.834351,7.898896 
	C1355.000000,8.056566 1351.716064,7.721767 1349.503418,3.871833 
	C1348.880615,2.788049 1346.699829,2.112826 1345.219482,2.087951 
	C1335.890503,1.931195 1326.554199,1.886697 1317.228638,2.124864 
	C1315.528931,2.168272 1313.253784,3.257236 1312.314453,4.607883 
	C1310.321289,7.473608 1307.932983,8.093516 1304.717163,7.906936 
	C1300.565308,7.666052 1296.385498,7.751611 1292.223633,7.881752 
	C1288.185791,8.008018 1284.370361,8.207890 1282.097900,3.696310 
	C1281.581665,2.671649 1279.282715,2.105203 1277.792969,2.082459 
	C1268.463379,1.940031 1259.127808,1.893459 1249.801514,2.120251 
	C1248.114746,2.161266 1245.796143,3.180580 1244.932495,4.506080 
	C1243.117798,7.291781 1240.947510,8.063992 1237.839111,7.912118 
	C1233.516846,7.700936 1229.168457,7.691126 1224.846313,7.901392 
	C1220.682617,8.103944 1217.025146,7.876759 1214.611450,3.638830 
	C1214.027466,2.613520 1211.798584,2.103512 1210.314941,2.081058 
	C1201.152100,1.942367 1191.981689,1.864852 1182.824585,2.133844 
	C1180.994385,2.187605 1179.207520,3.819858 1177.406494,4.735454 
	C1175.376099,5.767628 1173.422729,7.491298 1171.310669,7.711025 
	C1166.859619,8.174112 1162.320801,7.706754 1157.829468,7.895111 
	C1153.687988,8.068791 1149.963013,7.977046 1147.544922,3.677292 
	C1146.963379,2.643167 1144.728394,2.106910 1143.242432,2.083861 
	C1134.079590,1.941741 1124.911499,1.919438 1115.750000,2.098855 
	C1114.134888,2.130485 1111.803467,2.846045 1111.075195,4.029001 
	C1108.749023,7.807961 1105.447510,8.048901 1101.650757,7.890020 
	C1097.492188,7.715992 1093.312378,7.691951 1089.157227,7.903705 
	C1085.603394,8.084804 1082.714722,7.674953 1080.812134,4.055755 
	C1080.232056,2.952198 1078.099854,2.125497 1076.661621,2.099526 
	C1067.166260,1.928060 1057.665039,1.929888 1048.169434,2.093838 
	C1046.729370,2.118703 1044.656860,2.888610 1043.997559,3.986728 
	C1041.733276,7.758031 1038.461426,8.111042 1034.630005,7.901411 
	C1030.808838,7.692335 1026.966553,7.813470 1023.134705,7.867205 
	C1019.311096,7.920824 1015.503174,8.400633 1013.495544,3.742231 
	C1013.057434,2.725725 1010.663269,2.093601 1009.157959,2.070554 
	C999.828552,1.927722 990.491455,1.865500 981.167542,2.139596 
	C979.339111,2.193347 976.865906,3.382288 975.904846,4.845566 
	C974.156860,7.506623 972.125977,8.039353 969.265930,7.897817 
	C965.276489,7.700386 961.267334,7.764491 957.271118,7.876214 
	C952.768494,8.002093 948.270630,8.524482 945.662170,3.442146 
	C945.230957,2.601908 943.416504,2.090461 942.233948,2.077177 
	C932.570190,1.968624 922.902893,1.925603 913.241516,2.110766 
	C911.822388,2.137965 909.877747,3.114903 909.129211,4.270002 
	C907.131165,7.353050 904.550903,8.116258 901.100952,7.914780 
	C896.783081,7.662613 892.431274,7.689452 888.109070,7.901009 
	C884.256287,8.089591 880.993774,7.761599 878.863464,3.823474 
	C878.294250,2.771252 876.112305,2.119165 874.657349,2.095148 
	C865.328125,1.941150 855.992004,1.889132 846.666260,2.124329 
	C844.967041,2.167182 842.690918,3.260989 841.755493,4.612997 
	C839.881226,7.321946 837.706482,8.085871 834.603149,7.910354 
	C830.450317,7.675479 826.273071,7.773915 822.109070,7.861054 
	C817.939636,7.948308 813.817444,8.433726 811.519531,3.529554 
	C811.063293,2.555766 808.670349,2.095520 807.160767,2.073681 
	C797.997498,1.941119 788.828796,1.890671 779.668640,2.101593 
	C777.922607,2.141796 775.484985,2.995921 774.620728,4.303519 
	C772.583862,7.385277 770.131165,8.146741 766.679626,7.908705 
	C762.533630,7.622785 758.345764,7.702504 754.188477,7.893974 
	C750.221558,8.076675 746.716370,7.959782 744.337708,3.878247 
	C743.663757,2.721762 741.216675,2.121027 739.567261,2.090021 
	C730.571960,1.920928 721.567749,1.867352 712.576721,2.125915 
	C710.725464,2.179153 708.349670,3.272388 707.214600,4.687535 
	C705.225281,7.167636 703.157104,8.124593 700.030701,7.922191 
	C695.882080,7.653615 691.699707,7.749260 687.538025,7.882511 
	C683.328491,8.017298 679.253174,8.366095 676.922485,3.575166 
	C676.469788,2.644718 674.383667,2.095953 673.041321,2.077713 
	C663.711304,1.950941 654.375549,1.886196 645.049866,2.123811 
	C643.344299,2.167269 641.043335,3.254917 640.121521,4.611179 
	C638.146606,7.517012 635.745728,8.079373 632.545654,7.899750 
	C628.393005,7.666654 624.214478,7.761654 620.051636,7.878147 
	C616.017212,7.991046 612.147461,8.282680 609.926270,3.659161 
	C609.443115,2.653445 607.116943,2.102800 605.628540,2.080451 
	C596.298889,1.940362 586.963196,1.891274 577.636963,2.117423 
	C575.953064,2.158254 573.664307,3.183265 572.771973,4.507002 
	C570.944092,7.218757 568.846558,8.098989 565.707703,7.921977 
	C561.388733,7.678409 557.042419,7.745553 552.714417,7.884522 
	C548.618164,8.016048 544.757080,8.162329 542.522034,3.600081 
	C542.065125,2.667340 540.007141,2.098914 538.677551,2.080972 
	C529.180847,1.952825 519.680359,1.932096 510.184753,2.094171 
	C508.752869,2.118612 506.679504,2.883210 506.038177,3.973331 
	C503.793488,7.788883 500.498138,8.093747 496.671173,7.898859 
	C492.682068,7.695712 488.671387,7.744582 484.676514,7.876638 
	C480.929108,8.000515 477.597778,7.902224 475.520081,3.826180 
	C474.948486,2.704840 472.413239,2.119770 470.764343,2.089563 
	C461.768890,1.924767 452.764893,1.870201 443.773560,2.123336 
	C441.902802,2.176003 439.387299,3.199422 438.371704,4.629581 
	C436.445770,7.341720 434.238892,8.007051 431.189117,7.884747 
	C426.697327,7.704614 422.190186,7.757948 417.694122,7.879957 
	C413.967529,7.981083 410.576111,8.013619 408.470123,3.906510 
	C407.885101,2.765584 405.377441,2.122569 403.736237,2.092071 
	C394.574280,1.921816 385.405884,1.920792 376.243927,2.091777 
	C374.603638,2.122389 372.109039,2.773593 371.511566,3.920813 
	C369.391113,7.992514 366.051208,8.043968 362.290863,7.887531 
	C358.464752,7.728360 354.620117,7.708155 350.796143,7.890404 
	C346.827454,8.079547 343.346436,7.871875 340.956665,3.849002 
	C340.274597,2.700852 337.846436,2.121006 336.203888,2.090414 
	C327.208496,1.922878 318.204559,1.868752 309.213104,2.119020 
	C307.352203,2.170817 304.864410,3.193606 303.836426,4.615432 
	C301.902740,7.289950 299.724396,8.030163 296.654083,7.885087 
	C292.497742,7.688694 288.322968,7.775716 284.159180,7.873134 
	C279.972046,7.971098 275.827911,8.472420 273.533173,3.530075 
	C273.084259,2.563223 270.707062,2.098208 269.209351,2.076339 
	C260.212799,1.944975 251.211960,1.930013 242.216080,2.083095 
	C240.565872,2.111176 238.080917,2.602570 237.442764,3.716980 
	C235.116699,7.779148 231.663162,8.070318 227.676926,7.893655 
	C223.685425,7.716759 219.673676,7.714510 215.682541,7.895287 
	C212.029068,8.060768 208.908707,7.836516 206.854034,4.015909 
	C206.232513,2.860170 203.858337,2.126744 202.270035,2.096771 
	C192.941666,1.920737 183.605301,1.890337 174.279282,2.120250 
	C172.594513,2.161784 170.297348,3.209933 169.412003,4.543143 
	C167.465836,7.473825 165.058777,8.083825 161.858856,7.903757 
	C158.038147,7.688757 154.193954,7.764363 150.364227,7.869958 
	C145.883820,7.993494 141.427292,8.505582 138.841705,3.410261 
	C138.388153,2.516462 136.310349,2.147704 134.952545,2.071213 
	C131.630295,1.884056 128.278366,2.187427 124.960854,1.962297 
	C121.206947,1.707554 118.078903,2.269467 116.112137,5.965658 
	C115.658684,6.817850 114.389816,7.764685 113.489319,7.771579 
	C98.871666,7.883495 84.252899,7.850803 69.116257,7.850803 
	C69.116257,5.790250 69.116257,3.841996 69.058128,1.446870 
	C680.354248,1.000000 1291.708496,1.000000 1903.531372,1.000000 
z"/>
<path fill="#DFDFDF" opacity="1.000000" stroke="none" 
	d="
M69.466064,836.000000 
	C69.526855,835.366760 69.990486,834.269287 70.592346,834.187317 
	C72.392593,833.942261 74.246994,834.092285 76.080261,834.092285 
	C683.578430,834.091858 1291.076660,834.090942 1898.574829,834.134949 
	C1900.376709,834.135071 1902.178711,834.790405 1903.990234,835.569885 
	C1292.644043,836.000000 681.288086,836.000000 69.466064,836.000000 
z"/>
<path fill="#FBFBFB" opacity="1.000000" stroke="none" 
	d="
M1.000000,36.468658 
	C2.302400,36.115757 3.604800,36.231510 5.312191,36.383263 
	C5.124677,38.367954 5.298156,40.241802 4.726443,41.850887 
	C3.308419,45.841904 0.986365,49.718575 4.930154,53.572151 
	C1.831864,59.752640 6.154525,64.761047 7.223918,70.352013 
	C8.386851,76.432030 7.487828,82.906433 7.487828,89.491890 
	C3.047254,90.454994 1.060562,92.577995 4.679385,97.197273 
	C5.429608,98.154900 4.988194,100.096054 4.988523,101.583946 
	C4.999650,151.745743 5.017608,201.907562 4.929996,252.069214 
	C4.926228,254.226318 3.654801,256.360809 3.489736,258.544800 
	C3.369297,260.138336 3.565340,262.307007 4.546996,263.330475 
	C7.636277,266.551422 7.728563,270.531097 4.744423,273.692078 
	C3.732415,274.764038 3.331218,276.863281 3.439379,278.438965 
	C3.611805,280.950867 4.925697,283.416962 4.928103,285.903229 
	C5.011791,372.394775 5.012823,458.886383 4.923959,545.377930 
	C4.921430,547.839966 3.579210,550.275757 3.313109,552.771851 
	C3.156619,554.239746 3.395704,556.276489 4.314316,557.239075 
	C7.870634,560.965698 7.895081,564.174377 4.389091,567.556152 
	C3.482930,568.430237 3.287851,570.469482 3.431541,571.906982 
	C3.666828,574.260864 4.923595,576.559326 4.927768,578.882629 
	C5.017869,629.044250 5.012586,679.206116 4.928244,729.367737 
	C4.924572,731.551147 3.794147,733.712280 3.562821,735.922913 
	C3.410051,737.382812 3.520230,739.969360 4.212745,740.236511 
	C8.110164,741.739746 7.580791,745.244568 7.771776,747.985962 
	C8.175610,753.782532 7.894773,759.626831 7.894773,765.469849 
	C3.638116,766.779480 0.982029,768.425354 4.534741,773.168152 
	C5.522052,774.486145 5.757673,777.802856 4.819910,778.876343 
	C0.970037,783.283569 3.377916,787.199768 5.079536,791.178101 
	C6.621651,794.783508 5.511012,796.169189 1.387473,795.950256 
	C1.000000,542.979126 1.000000,289.958221 1.000000,36.468658 
z"/>
<path fill="#E5E5E5" opacity="1.000000" stroke="none" 
	d="
M1.000000,816.469055 
	C2.429216,816.000000 3.858433,816.000000 5.777142,816.000000 
	C5.777142,822.642090 5.777142,828.863464 5.888571,835.542419 
	C4.363137,836.000000 2.726274,836.000000 1.000000,836.000000 
	C1.000000,829.646240 1.000000,823.292175 1.000000,816.469055 
z"/>
<path fill="#E5E5E5" opacity="1.000000" stroke="none" 
	d="
M5.500038,1.000000 
	C5.791923,5.745054 5.583846,10.490108 5.356544,15.673559 
	C4.273006,15.809492 3.062754,15.961322 1.426251,16.056576 
	C1.000000,11.128185 1.000000,6.256371 1.000000,1.000000 
	C2.315785,1.000000 3.657930,1.000000 5.500038,1.000000 
z"/>
<path fill="#868686" opacity="1.000000" stroke="none" 
	d="
M106.193817,785.137939 
	C106.002617,784.168823 106.120316,782.609070 105.572182,782.322388 
	C100.394279,779.614197 101.991188,774.843323 101.990440,770.712891 
	C101.947350,532.060364 101.946754,293.407806 102.017502,54.755291 
	C102.018326,51.966572 100.272095,48.291798 104.666573,46.686859 
	C105.074226,46.537979 104.987785,44.826637 104.998726,43.839317 
	C105.035561,40.513195 105.012756,37.186413 105.012756,33.436989 
	C705.721863,33.436989 1306.217529,33.436989 1906.967407,33.436989 
	C1906.693359,39.475487 1906.191162,45.380688 1906.190674,51.285931 
	C1906.172729,269.106079 1906.197510,486.926208 1906.229980,704.746338 
	C1906.233032,725.578064 1906.358276,746.409790 1906.352905,767.241516 
	C1906.351440,772.891663 1906.078735,778.541748 1905.413330,784.678589 
	C1874.570190,785.237366 1844.244385,785.375244 1813.918579,785.364319 
	C1777.939087,785.351379 1741.959473,785.178406 1705.979980,785.134155 
	C1672.162598,785.092529 1638.345093,785.129517 1604.527710,785.129578 
	C1571.543213,785.129700 1538.558716,785.092834 1505.574219,785.134949 
	C1475.085083,785.173950 1444.596069,785.367859 1414.106934,785.363098 
	C1378.460693,785.357483 1342.814453,785.146790 1307.168213,785.143738 
	C1274.511841,785.140991 1241.855347,785.365173 1209.198975,785.363220 
	C1173.552856,785.361084 1137.906616,785.153381 1102.260498,785.148499 
	C1071.270630,785.144226 1040.280762,785.368591 1009.290833,785.363464 
	C972.478088,785.357361 935.665405,785.155151 898.852661,785.148438 
	C868.863525,785.142944 838.874329,785.372437 808.885193,785.366516 
	C772.239136,785.359253 735.593079,785.156067 698.947021,785.148254 
	C668.957031,785.141846 638.967041,785.368591 608.977051,785.363403 
	C573.330811,785.357361 537.684570,785.182251 502.038269,785.138794 
	C467.719574,785.096985 433.400818,785.097412 399.082123,785.139160 
	C369.093079,785.175659 339.104095,785.366577 309.115082,785.360474 
	C271.801422,785.352783 234.487808,785.185913 197.174103,785.138245 
	C166.847397,785.099548 136.520584,785.135254 106.193817,785.137939 
z"/>
<path fill="#868686" opacity="1.000000" stroke="none" 
	d="
M1903.035767,795.734375 
	C1903.352783,798.448975 1903.894287,801.159485 1903.943237,803.878906 
	C1904.072144,811.027039 1903.986938,818.179077 1903.986938,825.697144 
	C1292.395630,825.697144 681.065186,825.697144 69.373711,825.697144 
	C69.373711,816.126648 69.373711,806.385559 69.373711,795.915100 
	C81.210663,795.915100 93.128098,795.915100 105.953552,795.948792 
	C107.194740,795.987610 107.527916,795.997314 107.861092,795.997314 
	C704.763977,795.999207 1301.666870,796.000732 1898.569702,795.990845 
	C1900.058350,795.990784 1901.547119,795.823547 1903.035767,795.734375 
z"/>
<path fill="#868686" opacity="1.000000" stroke="none" 
	d="
M82.053040,447.000000 
	C82.053062,557.471436 82.053062,667.442871 82.053062,778.059509 
	C77.018517,778.059509 72.260185,778.190125 67.512634,778.019897 
	C63.417736,777.873108 61.725899,779.557800 62.012112,783.671448 
	C62.239819,786.944214 62.058022,790.245483 62.058022,793.763916 
	C45.960194,793.763916 30.350657,793.763916 13.940233,793.763916 
	C13.940233,787.424255 13.940174,781.010681 13.940558,774.597168 
	C13.940568,774.430542 13.875728,774.173523 13.957914,774.110168 
	C21.717962,768.127869 16.594372,759.737610 17.920305,752.559204 
	C18.366709,750.142395 18.050428,747.570190 17.953001,745.074097 
	C17.908964,743.945801 17.904339,742.144165 17.274208,741.816528 
	C12.120457,739.136414 14.005439,734.432678 13.999291,730.499573 
	C13.906834,671.337524 13.932379,612.175293 13.926958,553.013062 
	C13.926738,550.604553 13.485237,548.239746 16.564280,546.870361 
	C17.508680,546.450378 17.898251,543.988586 17.930658,542.448975 
	C18.074425,535.619141 18.014381,528.784607 17.989031,521.951904 
	C17.978712,519.170898 18.495766,516.227783 14.878135,514.826477 
	C14.216969,514.570374 13.976895,512.561829 13.976008,511.361938 
	C13.930176,449.366669 13.919057,387.371368 14.017258,325.376251 
	C14.019171,324.168396 15.397874,322.980865 16.074173,321.750854 
	C16.748301,320.524811 17.865101,319.268738 17.893387,318.005829 
	C18.064999,310.343597 17.996550,302.675507 17.958536,295.009674 
	C17.954594,294.214386 17.859842,292.913727 17.408651,292.703705 
	C12.040125,290.204437 14.008702,285.402466 14.001874,281.473694 
	C13.898774,222.145157 13.911715,162.816422 13.924181,103.487724 
	C13.924700,101.017838 13.079386,98.194641 16.698011,97.021835 
	C17.424358,96.786430 17.905241,94.746048 17.919580,93.531059 
	C18.013962,85.533417 17.959311,77.533867 17.922216,69.535080 
	C17.918421,68.716881 18.019230,67.551071 17.549679,67.133896 
	C9.686473,60.147881 16.226177,51.281189 13.442862,43.174484 
	C32.318153,43.174484 50.256470,43.174484 68.683403,43.174484 
	C68.876549,40.452679 69.047104,38.049225 69.243629,35.279793 
	C73.305908,35.279793 77.363365,35.279793 82.053017,35.279793 
	C82.053017,172.330292 82.053017,309.415131 82.053040,447.000000 
z"/>
<path fill="#868686" opacity="1.000000" stroke="none" 
	d="
M1946.986328,42.993027 
	C1951.125977,42.993027 1954.768677,42.993027 1958.750732,42.993027 
	C1958.750732,293.305481 1958.750732,543.323975 1958.750732,793.677673 
	C1943.060059,793.677673 1927.324097,793.677673 1911.260742,793.677673 
	C1911.260742,543.645752 1911.260742,293.630219 1911.260742,42.993027 
	C1922.964233,42.993027 1934.726807,42.993027 1946.986328,42.993027 
z"/>
<path fill="#868686" opacity="1.000000" stroke="none" 
	d="
M747.000000,14.946907 
	C1132.779297,14.946890 1518.058716,14.946890 1903.695557,14.946890 
	C1903.695557,19.212816 1903.695557,23.279762 1903.695557,27.716606 
	C1292.476196,27.716606 681.128540,27.716606 69.396500,27.716606 
	C69.396500,23.786831 69.396500,19.726597 69.396500,14.946925 
	C295.043671,14.946925 520.771851,14.946925 747.000000,14.946907 
z"/>
<path fill="#FCFCFC" opacity="1.000000" stroke="none" 
	d="
M106.118713,785.574707 
	C136.520584,785.135254 166.847397,785.099548 197.174103,785.138245 
	C234.487808,785.185913 271.801422,785.352783 309.115082,785.360474 
	C339.104095,785.366577 369.093079,785.175659 399.082123,785.139160 
	C433.400818,785.097412 467.719574,785.096985 502.038269,785.138794 
	C537.684570,785.182251 573.330811,785.357361 608.977051,785.363403 
	C638.967041,785.368591 668.957031,785.141846 698.947021,785.148254 
	C735.593079,785.156067 772.239136,785.359253 808.885193,785.366516 
	C838.874329,785.372437 868.863525,785.142944 898.852661,785.148438 
	C935.665405,785.155151 972.478088,785.357361 1009.290833,785.363464 
	C1040.280762,785.368591 1071.270630,785.144226 1102.260498,785.148499 
	C1137.906616,785.153381 1173.552856,785.361084 1209.198975,785.363220 
	C1241.855347,785.365173 1274.511841,785.140991 1307.168213,785.143738 
	C1342.814453,785.146790 1378.460693,785.357483 1414.106934,785.363098 
	C1444.596069,785.367859 1475.085083,785.173950 1505.574219,785.134949 
	C1538.558716,785.092834 1571.543213,785.129700 1604.527710,785.129578 
	C1638.345093,785.129517 1672.162598,785.092529 1705.979980,785.134155 
	C1741.959473,785.178406 1777.939087,785.351379 1813.918579,785.364319 
	C1844.244385,785.375244 1874.570190,785.237366 1905.352295,785.152588 
	C1905.341797,788.432068 1907.997437,792.387268 1902.945068,794.946655 
	C1900.982056,795.013123 1899.815674,795.003418 1898.649292,795.003418 
	C1303.111816,795.003601 707.574402,795.004639 112.036926,795.000793 
	C110.039467,795.000793 108.042000,794.931030 106.044540,794.893860 
	C106.044228,791.933044 106.043915,788.972229 106.118713,785.574707 
z"/>
<path fill="#878787" opacity="1.000000" stroke="none" 
	d="
M87.997658,77.000000 
	C87.997658,62.858101 87.997658,49.216202 87.997658,35.206444 
	C89.678558,35.122112 91.075966,35.052002 92.775757,34.966724 
	C92.775757,282.641235 92.775757,530.032959 92.775757,777.803406 
	C91.392860,777.883728 89.997467,777.964783 87.997658,778.080994 
	C87.997658,544.343933 87.997658,310.921967 87.997658,77.000000 
z"/>
<path fill="#141414" opacity="1.000000" stroke="none" 
	d="
M106.021439,795.126038 
	C108.042000,794.931030 110.039467,795.000793 112.036926,795.000793 
	C707.574402,795.004639 1303.111816,795.003601 1898.649292,795.003418 
	C1899.815674,795.003418 1900.982056,795.013123 1902.583252,795.130798 
	C1903.017944,795.243347 1903.023193,795.494202 1903.029541,795.614258 
	C1901.547119,795.823547 1900.058350,795.990784 1898.569702,795.990845 
	C1301.666870,796.000732 704.763977,795.999207 107.861092,795.997314 
	C107.527916,795.997314 107.194740,795.987610 106.418549,795.903381 
	C105.975525,795.824280 105.998329,795.358215 106.021439,795.126038 
z"/>
<path fill="#868686" opacity="1.000000" stroke="none" 
	d="
M1947.996582,37.060623 
	C1935.533936,37.060646 1923.570679,37.060646 1911.268799,37.060646 
	C1911.268799,26.102251 1911.268799,15.374945 1911.268799,4.310376 
	C1928.214722,4.310376 1945.266357,4.310376 1962.671875,4.310376 
	C1962.671875,14.984258 1962.671875,25.703457 1962.671875,37.060600 
	C1958.003296,37.060600 1953.249634,37.060600 1947.996582,37.060623 
z"/>
<path fill="#868686" opacity="1.000000" stroke="none" 
	d="
M61.988544,29.889515 
	C61.988579,32.015255 61.988579,33.656246 61.988579,35.641090 
	C46.004547,35.641090 30.317148,35.641090 14.320688,35.641090 
	C14.320688,26.589106 14.320688,17.557175 14.320688,8.267614 
	C30.063250,8.267614 45.632210,8.267614 61.988510,8.267614 
	C61.988510,15.266950 61.988510,22.335857 61.988544,29.889515 
z"/>
<path fill="#868686" opacity="1.000000" stroke="none" 
	d="
M38.000000,828.987061 
	C29.882486,828.987061 22.264950,828.987061 14.332380,828.987061 
	C14.332380,819.606445 14.332380,810.577148 14.332380,801.278687 
	C30.040554,801.278687 45.606438,801.278687 61.581108,801.278687 
	C61.581108,810.209412 61.581108,819.242249 61.581108,828.987061 
	C53.981010,828.987061 46.240494,828.987061 38.000000,828.987061 
z"/>
<path fill="#868686" opacity="1.000000" stroke="none" 
	d="
M1917.110840,801.012939 
	C1931.194214,801.012939 1944.792358,801.012939 1958.687012,801.012939 
	C1958.687012,810.435181 1958.687012,819.465576 1958.687012,828.742310 
	C1942.916504,828.742310 1927.349121,828.742310 1911.396484,828.742310 
	C1911.396484,819.737549 1911.396484,810.705261 1911.396484,801.012878 
	C1913.103882,801.012878 1914.864746,801.012878 1917.110840,801.012939 
z"/>
<path fill="#868686" opacity="1.000000" stroke="none" 
	d="
M77.061630,789.054626 
	C74.744911,789.052185 72.903526,789.182983 71.099129,788.981934 
	C70.359657,788.899536 69.700058,788.100403 69.004135,787.627319 
	C69.616974,787.067505 70.224442,786.027344 70.843468,786.020447 
	C79.310120,785.925537 87.779053,785.931152 96.244965,786.066101 
	C96.927757,786.076904 97.592522,787.217712 98.265663,787.833435 
	C98.109596,788.240356 97.953529,788.647278 97.797462,789.054199 
	C91.048927,789.054199 84.300385,789.054199 77.061630,789.054626 
z"/>
</svg>