<svg version="1.1" id="Layer_1" xmlns="http://www.w3.org/2000/svg" xmlns:xlink="http://www.w3.org/1999/xlink" x="0px" y="0px"
	 width="100%" viewBox="0 0 3930 835" enable-background="new 0 0 3930 835" xml:space="preserve">
<path fill="none" opacity="1.000000" stroke="#000000" stroke-linecap="round" stroke-linejoin="round" stroke-width="8.000000"
	d="
M3865.000000,792.500000 
	C2597.000000,792.500000 1329.000000,792.500000 61.000000,792.500000 
"/>
<path fill="none" opacity="1.000000" stroke="#000000" stroke-linecap="round" stroke-linejoin="round" stroke-width="8.000000"
	d="
M3865.000000,11.000000 
	C3856.351807,12.130666 3847.666016,11.279238 3838.999268,11.471533 
	C3832.502686,11.615685 3825.999512,11.543866 3819.500488,11.463543 
	C3818.176758,11.447180 3816.886475,11.689484 3815.473877,11.058768 
	C3804.811035,6.298775 3793.143311,7.309098 3782.608398,9.128354 
	C3773.655762,10.674452 3764.901123,11.107195 3755.999756,11.494148 
	C3751.636719,11.683823 3747.388672,11.507499 3743.447998,9.084543 
	C3742.285156,8.369570 3740.501221,8.536130 3738.999756,8.522832 
	C3732.833496,8.468215 3726.663818,8.615099 3720.501221,8.456826 
	C3716.805176,8.361906 3713.198975,8.462633 3710.023682,10.536150 
	C3708.407715,11.591241 3706.726562,11.492153 3705.000000,11.495426 
	C3698.833252,11.507115 3692.666748,11.498584 3686.500000,11.500546 
	C3682.957275,11.501675 3679.315674,11.924973 3676.488525,9.011237 
	C3676.243652,8.758752 3675.815918,8.493578 3675.502441,8.524988 
	C3664.859619,9.591859 3653.939697,6.166865 3643.497314,10.493782 
	C3641.745605,11.219748 3639.945068,11.567466 3637.999512,11.536392 
	C3631.834229,11.437932 3625.666748,11.498584 3619.500000,11.500546 
	C3615.957275,11.501675 3612.427734,11.799714 3609.421631,9.086746 
	C3608.604004,8.348775 3606.834473,8.534360 3605.499756,8.522751 
	C3599.500244,8.470564 3593.500000,8.484167 3587.500000,8.505435 
	C3583.335449,8.520197 3579.111816,7.883750 3575.421387,10.903981 
	C3574.441406,11.705977 3572.501221,11.463272 3570.999756,11.477134 
	C3565.000244,11.532521 3558.995361,11.357059 3553.001709,11.551239 
	C3549.132568,11.676590 3545.395264,11.296490 3542.043701,9.421919 
	C3540.505859,8.561758 3539.065918,8.508358 3537.500000,8.505080 
	C3531.500000,8.492522 3525.497559,8.604347 3519.500977,8.463357 
	C3515.497070,8.369215 3511.552979,8.471254 3508.025635,10.543717 
	C3506.222900,11.602871 3504.385986,11.489142 3502.500000,11.493913 
	C3496.166748,11.509932 3489.832764,11.544880 3483.500488,11.463496 
	C3482.176758,11.446482 3480.886475,11.689484 3479.473877,11.058768 
	C3468.811035,6.298664 3457.143311,7.309098 3446.608398,9.128354 
	C3437.655762,10.674452 3428.901123,11.107180 3419.999756,11.494148 
	C3415.636719,11.683807 3411.388672,11.507501 3407.447998,9.084545 
	C3406.285156,8.369465 3404.501221,8.536119 3402.999756,8.522824 
	C3396.833496,8.468217 3390.663818,8.615107 3384.501221,8.456834 
	C3380.805176,8.361914 3377.198975,8.462633 3374.023682,10.536150 
	C3372.407715,11.591241 3370.726562,11.492153 3369.000000,11.495426 
	C3362.833252,11.507114 3356.666748,11.498583 3350.500000,11.500546 
	C3346.957275,11.501675 3343.427734,11.799710 3340.421631,9.086744 
	C3339.604004,8.348778 3337.834473,8.534379 3336.499756,8.522766 
	C3330.500244,8.470566 3324.500000,8.484167 3318.500000,8.505435 
	C3314.335449,8.520197 3310.111816,7.883749 3306.421387,10.903980 
	C3305.441406,11.705974 3303.501221,11.462644 3301.999756,11.477106 
	C3296.166992,11.533294 3290.332520,11.445557 3284.500244,11.518690 
	C3280.452393,11.569452 3276.502686,11.628026 3272.943604,9.078897 
	C3271.983398,8.391220 3270.334473,8.533882 3268.999756,8.522741 
	C3262.833496,8.471258 3256.664307,8.603331 3250.500732,8.463100 
	C3246.497070,8.372010 3242.552979,8.471148 3239.025635,10.543717 
	C3237.222900,11.602871 3235.385986,11.489141 3233.500000,11.493912 
	C3227.166748,11.509931 3220.832764,11.544884 3214.500488,11.463500 
	C3213.176758,11.446486 3211.886475,11.689484 3210.473877,11.058768 
	C3199.811035,6.298664 3188.143311,7.309098 3177.608643,9.128414 
	C3168.655762,10.674513 3159.901123,11.107195 3150.999756,11.494148 
	C3146.636719,11.683823 3142.388428,11.507603 3138.447998,9.084544 
	C3137.285156,8.369570 3135.501221,8.536126 3133.999756,8.522830 
	C3127.833496,8.468217 3121.663818,8.615099 3115.501221,8.456826 
	C3111.805176,8.361906 3108.198730,8.462531 3105.023438,10.536048 
	C3103.407715,11.591241 3101.726562,11.492153 3100.000000,11.495426 
	C3093.833252,11.507115 3087.666748,11.498583 3081.500000,11.500546 
	C3077.957275,11.501674 3074.427734,11.799714 3071.421631,9.086747 
	C3070.604004,8.348774 3068.834473,8.534360 3067.499756,8.522751 
	C3061.500244,8.470568 3055.500000,8.484165 3049.500000,8.505433 
	C3045.335449,8.520195 3041.111816,7.883942 3037.421387,10.903985 
	C3036.441406,11.706083 3034.501221,11.462672 3032.999756,11.477129 
	C3027.166992,11.533294 3021.332520,11.445549 3015.500244,11.518686 
	C3011.452393,11.569445 3007.502686,11.628031 3003.943604,9.078802 
	C3002.983398,8.391217 3001.334473,8.533862 2999.999756,8.522723 
	C2993.833496,8.471255 2987.664307,8.603331 2981.500732,8.463100 
	C2977.497070,8.372010 2973.552979,8.471148 2970.025635,10.543612 
	C2968.222900,11.602871 2966.385986,11.489141 2964.500000,11.493912 
	C2958.166748,11.509931 2951.832764,11.544884 2945.500488,11.463500 
	C2944.176758,11.446486 2942.886475,11.689372 2941.473877,11.058657 
	C2930.811035,6.298664 2919.143311,7.309128 2908.608643,9.128414 
	C2899.655762,10.674513 2890.901123,11.107195 2881.999756,11.494148 
	C2877.636719,11.683815 2873.388428,11.507602 2869.447998,9.084542 
	C2868.285156,8.369569 2866.501221,8.537337 2864.999756,8.522877 
	C2859.166992,8.466706 2853.330811,8.605334 2847.500977,8.463630 
	C2843.497070,8.366306 2839.552979,8.471148 2836.025635,10.543612 
	C2834.222900,11.602871 2832.385986,11.489326 2830.500000,11.493916 
	C2824.000000,11.509730 2817.499268,11.445131 2811.000244,11.525124 
	C2808.119141,11.560587 2805.315674,11.405608 2803.021973,9.473951 
	C2801.622559,8.295382 2800.065918,8.507298 2798.500000,8.505032 
	C2790.833252,8.493932 2783.166748,8.500000 2775.500000,8.500000 
	C2774.500000,8.500000 2773.133057,8.072578 2772.557373,8.566850 
	C2767.415039,12.980503 2761.268799,11.446447 2755.500488,11.411283 
	C2748.084473,11.366072 2740.487549,12.842838 2733.402832,8.664897 
	C2731.547852,7.571030 2728.500000,8.500000 2726.000000,8.500000 
	C2720.833252,8.500000 2715.666748,8.491931 2710.500000,8.503207 
	C2707.672607,8.509377 2704.731201,8.022169 2702.473877,10.476086 
	C2702.161865,10.815525 2701.503662,10.966091 2700.999512,10.980426 
	C2690.647461,11.274735 2680.236084,13.047713 2670.007324,9.975792 
	C2667.213867,9.136877 2664.518066,8.309027 2661.497314,8.436926 
	C2656.173584,8.662340 2650.830322,8.608067 2645.500977,8.464579 
	C2641.496826,8.356767 2637.552979,8.471148 2634.025635,10.543612 
	C2632.222900,11.602871 2630.385986,11.489142 2628.500000,11.493913 
	C2622.166748,11.509933 2615.832764,11.544884 2609.500488,11.463500 
	C2608.176758,11.446486 2606.886475,11.689372 2605.473877,11.058657 
	C2594.811035,6.298553 2583.143311,7.309128 2572.608643,9.128414 
	C2563.655762,10.674513 2554.901123,11.107187 2545.999756,11.494148 
	C2541.636719,11.683807 2537.388672,11.507501 2533.447998,9.084545 
	C2532.285156,8.369569 2530.501221,8.536118 2528.999756,8.522823 
	C2522.833496,8.468216 2516.663818,8.615091 2510.501221,8.456819 
	C2506.805176,8.361898 2503.198975,8.462633 2500.023682,10.536150 
	C2498.407715,11.591241 2496.726562,11.491865 2495.000000,11.495420 
	C2489.166748,11.507437 2483.332520,11.445551 2477.500244,11.518686 
	C2473.452393,11.569447 2469.502686,11.628132 2465.943604,9.078902 
	C2464.983398,8.391317 2463.334473,8.534884 2461.999756,8.522775 
	C2456.166992,8.469844 2450.333252,8.484030 2444.500000,8.505390 
	C2440.335449,8.520639 2436.111816,7.883844 2432.421387,10.903980 
	C2431.441406,11.705974 2429.501221,11.462642 2427.999756,11.477106 
	C2422.166992,11.533294 2416.332520,11.445553 2410.500244,11.518688 
	C2406.452393,11.569448 2402.502686,11.628031 2398.943604,9.078801 
	C2397.983398,8.391218 2396.334473,8.533865 2394.999756,8.522726 
	C2388.833496,8.471256 2382.664307,8.603334 2376.500732,8.463104 
	C2372.497070,8.372010 2368.552979,8.471254 2365.025635,10.543717 
	C2363.222900,11.602871 2361.385986,11.489142 2359.500000,11.493913 
	C2353.166748,11.509933 2346.832764,11.544884 2340.500488,11.463500 
	C2339.176758,11.446486 2337.886475,11.689316 2336.473877,11.058601 
	C2325.811035,6.298553 2314.143311,7.309158 2303.608643,9.128445 
	C2294.655762,10.674542 2285.901123,11.107195 2276.999756,11.494148 
	C2272.636719,11.683815 2268.388428,11.507607 2264.447998,9.084547 
	C2263.285156,8.369569 2261.501221,8.537311 2259.999756,8.522858 
	C2254.166992,8.466706 2248.330811,8.605330 2242.500977,8.463622 
	C2238.497070,8.366302 2234.552979,8.471148 2231.025635,10.543717 
	C2229.222900,11.602871 2227.385986,11.489326 2225.500000,11.493916 
	C2219.000000,11.509730 2212.499268,11.445129 2206.000244,11.525122 
	C2203.119141,11.560585 2200.315674,11.405608 2198.021973,9.473951 
	C2196.622559,8.295382 2195.065918,8.507298 2193.500000,8.505031 
	C2185.833252,8.493932 2178.166748,8.500000 2170.500000,8.500000 
	C2169.500000,8.500000 2168.133057,8.072578 2167.557373,8.566850 
	C2162.415039,12.980596 2156.268799,11.446447 2150.500488,11.411283 
	C2143.084473,11.366072 2135.487549,12.842943 2128.402832,8.664897 
	C2126.547852,7.571030 2123.500000,8.500000 2121.000000,8.500000 
	C2115.833252,8.500000 2110.666748,8.491931 2105.500000,8.503207 
	C2102.672607,8.509377 2099.731201,8.022168 2097.473877,10.476083 
	C2097.161865,10.815516 2096.503662,10.966077 2095.999512,10.980414 
	C2085.647461,11.274736 2075.235840,13.047771 2065.007324,9.975792 
	C2062.213867,9.136935 2059.518066,8.309019 2056.497314,8.436918 
	C2051.173584,8.662340 2045.830444,8.608069 2040.500977,8.464578 
	C2036.496948,8.356777 2032.552979,8.471254 2029.025757,10.543823 
	C2027.223022,11.602976 2025.385986,11.489143 2023.500000,11.493913 
	C2017.166626,11.509932 2010.833130,11.533928 2004.500244,11.477116 
	C2002.832275,11.462153 2000.966064,11.598065 1999.531982,10.931251 
	C1988.797729,5.940195 1977.475708,9.653418 1966.500000,8.500000 
	C1956.443237,14.153579 1945.495850,10.455250 1934.996704,11.465302 
	C1934.021729,11.559082 1932.895996,11.385270 1932.015869,10.966655 
	C1921.483154,5.957223 1910.309448,9.643831 1899.500000,8.500000 
	C1889.443237,14.153579 1878.496216,10.460189 1867.996460,11.462829 
	C1866.856079,11.571722 1865.528076,11.449473 1864.521362,10.956408 
	C1853.991577,5.799208 1842.802368,9.735158 1832.000000,8.500000 
	C1823.671387,13.958183 1814.348755,10.652053 1805.496582,11.462497 
	C1801.470093,11.831132 1797.502686,11.628085 1793.943481,9.078966 
	C1792.983276,8.391277 1791.334473,8.533854 1789.999756,8.522715 
	C1783.833618,8.471254 1777.664307,8.603334 1771.500854,8.463100 
	C1767.497192,8.372010 1763.552979,8.471254 1760.025757,10.543771 
	C1758.223022,11.602976 1756.385986,11.489142 1754.500000,11.493913 
	C1748.166626,11.509931 1741.832764,11.544885 1735.500488,11.463497 
	C1734.176514,11.446481 1732.886475,11.689316 1731.473755,11.058657 
	C1720.811157,6.298553 1709.143311,7.309127 1698.608521,9.128414 
	C1689.655884,10.674481 1680.901123,11.107195 1671.999756,11.494148 
	C1667.636719,11.683815 1663.388672,11.507397 1659.448120,9.084390 
	C1658.285278,8.369413 1656.501099,8.536119 1654.999756,8.522823 
	C1648.833618,8.468215 1642.663696,8.615095 1636.501099,8.456826 
	C1632.805298,8.361906 1629.198853,8.462559 1626.023560,10.536080 
	C1624.407837,11.591176 1622.726685,11.492152 1621.000000,11.495426 
	C1614.833374,11.507115 1608.666626,11.498584 1602.500000,11.500546 
	C1598.957275,11.501675 1595.427734,11.799742 1592.421753,9.086701 
	C1591.604004,8.348718 1589.834473,8.534345 1588.499756,8.522738 
	C1582.500244,8.470564 1576.500000,8.484166 1570.500000,8.505434 
	C1566.335205,8.520197 1562.111938,7.883943 1558.421509,10.904034 
	C1557.441406,11.706086 1555.501221,11.462679 1553.999756,11.477135 
	C1548.166992,11.533294 1542.332642,11.445551 1536.500244,11.518688 
	C1532.452393,11.569447 1528.502686,11.628036 1524.943481,9.078868 
	C1523.983276,8.391178 1522.334595,8.534876 1520.999756,8.522765 
	C1515.166870,8.469842 1509.333374,8.484031 1503.500000,8.505391 
	C1499.335205,8.520641 1495.111816,7.883895 1491.421509,10.904034 
	C1490.441406,11.706087 1488.501221,11.463302 1486.999756,11.477158 
	C1481.000244,11.532524 1474.995361,11.357062 1469.001709,11.551243 
	C1465.132568,11.676586 1461.395264,11.296498 1458.043701,9.421827 
	C1456.505981,8.561780 1455.065796,8.508357 1453.500000,8.505080 
	C1447.500000,8.492523 1441.497559,8.604343 1435.500854,8.463349 
	C1431.497192,8.369219 1427.552856,8.471201 1424.025635,10.543717 
	C1422.223022,11.602923 1420.385986,11.489143 1418.500000,11.493913 
	C1412.166626,11.509932 1405.833130,11.533930 1399.500244,11.477115 
	C1397.832275,11.462152 1395.966064,11.598006 1394.531982,10.931192 
	C1383.797852,5.940139 1372.475708,9.653418 1361.500000,8.500000 
	C1351.443237,14.153579 1340.495850,10.455265 1329.996704,11.465309 
	C1329.021729,11.559097 1327.895996,11.385269 1327.015869,10.966653 
	C1316.483154,5.957223 1305.309448,9.643831 1294.500000,8.500000 
	C1284.443237,14.153579 1273.495361,10.450806 1262.996826,11.467556 
	C1262.187744,11.545918 1261.384277,11.498096 1260.468872,11.065786 
	C1249.827271,6.040022 1238.484009,9.544333 1227.500000,8.500000 
	C1218.963989,13.676317 1209.531494,10.801232 1200.498047,11.474188 
	C1196.462769,11.774801 1192.502686,11.628035 1188.943481,9.078917 
	C1187.983276,8.391229 1186.334473,8.533855 1184.999756,8.522716 
	C1178.833618,8.471253 1172.664307,8.603331 1166.500854,8.463099 
	C1162.497192,8.372008 1158.552979,8.471254 1155.025635,10.543717 
	C1153.223022,11.602923 1151.385986,11.489143 1149.500000,11.493913 
	C1143.166626,11.509932 1136.832764,11.544885 1130.500488,11.463497 
	C1129.176514,11.446482 1127.886475,11.689372 1126.473755,11.058713 
	C1115.811157,6.298636 1104.143311,7.309127 1093.608521,9.128414 
	C1084.655884,10.674481 1075.901123,11.107191 1066.999756,11.494144 
	C1062.636719,11.683811 1058.388550,11.507500 1054.447998,9.084493 
	C1053.285278,8.369465 1051.501099,8.536122 1049.999756,8.522827 
	C1043.833618,8.468216 1037.663696,8.615099 1031.501099,8.456826 
	C1027.805298,8.361908 1024.198853,8.462559 1021.023621,10.536131 
	C1019.407837,11.591176 1017.726746,11.492152 1016.000000,11.495425 
	C1009.833313,11.507115 1003.666687,11.498584 997.500000,11.500547 
	C993.957275,11.501675 990.427795,11.799691 987.421753,9.086672 
	C986.604065,8.348700 984.834473,8.534357 983.499817,8.522749 
	C977.500244,8.470566 971.499939,8.484166 965.500000,8.505434 
	C961.335266,8.520197 957.111755,7.883873 953.421448,10.904023 
	C952.441467,11.706070 950.501221,11.463287 948.999817,11.477146 
	C943.000305,11.532524 936.995361,11.357062 931.001648,11.551241 
	C927.132568,11.676586 923.395264,11.296488 920.043701,9.421871 
	C918.505981,8.561773 917.065918,8.508357 915.500000,8.505080 
	C909.500000,8.492522 903.497559,8.604341 897.500854,8.463348 
	C893.497131,8.369214 889.552917,8.471239 886.025696,10.543757 
	C884.223083,11.602939 882.385986,11.489143 880.500000,11.493914 
	C874.166687,11.509933 867.832764,11.544883 861.500488,11.463497 
	C860.176636,11.446482 858.886536,11.689344 857.473816,11.058685 
	C846.811096,6.298580 835.143250,7.309142 824.608521,9.128429 
	C815.655945,10.674496 806.901123,11.107195 797.999756,11.494148 
	C793.636719,11.683815 789.388611,11.507472 785.448059,9.084491 
	C784.285217,8.369466 782.501221,8.537332 780.999756,8.522874 
	C775.166992,8.466706 769.330750,8.605327 763.500854,8.463620 
	C759.497070,8.366301 755.552917,8.471239 752.025696,10.543731 
	C750.223083,11.602912 748.385986,11.489142 746.500000,11.493913 
	C740.166687,11.509932 733.833008,11.533930 727.500183,11.477114 
	C725.832153,11.462150 723.966125,11.598050 722.531982,10.931235 
	C711.797729,5.940188 700.475769,9.653418 689.500000,8.500000 
	C681.651550,13.540468 672.877258,10.903133 664.497803,11.467830 
	C659.667847,11.793327 654.774780,11.918838 650.515625,8.977407 
	C649.193542,8.064395 647.823608,8.555051 646.499512,8.536590 
	C640.500671,8.452950 634.497559,8.604342 628.500854,8.463349 
	C624.497131,8.369215 620.552917,8.471239 617.025696,10.543731 
	C615.223083,11.602912 613.385986,11.489143 611.500000,11.493914 
	C605.166687,11.509933 598.832764,11.544883 592.500488,11.463497 
	C591.176636,11.446482 589.886475,11.689372 588.473816,11.058699 
	C577.811096,6.298608 566.143250,7.309127 555.608521,9.128422 
	C546.655945,10.674489 537.901123,11.107195 528.999756,11.494148 
	C524.636719,11.683815 520.388611,11.507499 516.448059,9.084492 
	C515.285217,8.369492 513.501221,8.537330 511.999786,8.522872 
	C506.166992,8.466706 500.330780,8.605327 494.500885,8.463620 
	C490.497070,8.366301 486.552917,8.471247 483.025696,10.543751 
	C481.223053,11.602944 479.385986,11.489143 477.499969,11.493913 
	C471.166687,11.509932 464.833038,11.533930 458.500214,11.477115 
	C456.832184,11.462150 454.966095,11.598042 453.531982,10.931228 
	C442.797760,5.940191 431.475739,9.653418 420.500000,8.500000 
	C410.443207,14.153579 399.495331,10.450806 388.996857,11.467560 
	C388.187744,11.545922 387.384338,11.498096 386.468933,11.065772 
	C375.827301,6.040009 364.484009,9.544333 353.500000,8.500000 
	C344.964050,13.676317 335.531372,10.801225 326.498077,11.474182 
	C322.462830,11.774798 318.502655,11.628084 314.943451,9.078938 
	C313.983276,8.391251 312.334442,8.533855 310.999817,8.522717 
	C304.833588,8.471254 298.664307,8.603330 292.500854,8.463099 
	C288.497162,8.372006 284.552917,8.471247 281.025696,10.543751 
	C279.223053,11.602944 277.385986,11.489143 275.499969,11.493913 
	C269.166687,11.509932 262.832764,11.544884 256.500458,11.463497 
	C255.176590,11.446482 253.886475,11.689370 252.473785,11.058710 
	C241.811142,6.298618 230.143280,7.309124 219.608521,9.128417 
	C210.655914,10.674484 201.901123,11.107197 192.999741,11.494150 
	C188.636703,11.683817 184.388626,11.507485 180.448059,9.084479 
	C179.285217,8.369472 177.501251,8.537327 175.999786,8.522870 
	C170.166992,8.466706 164.330765,8.605328 158.500885,8.463621 
	C154.497070,8.366301 150.560593,8.483138 147.021423,10.536923 
	C145.069412,11.669690 143.047867,11.493322 141.000000,11.494015 
	C114.333336,11.503035 87.666664,11.500000 61.000000,11.500000 
"/>
<path fill="none" opacity="1.000000" stroke="#000000" stroke-linecap="round" stroke-linejoin="round" stroke-width="9.000000"
	d="
M61.500000,830.000000 
	C1329.166626,830.000000 2596.833252,830.000000 3864.500000,830.000000 
"/>
<path fill="none" opacity="1.000000" stroke="#000000" stroke-linecap="round" stroke-linejoin="round" stroke-width="8.000000"
	d="
M58.000000,40.000000 
	C42.166668,40.000000 26.333326,39.991596 10.500004,40.004326 
	C4.538257,40.009117 4.501034,40.061691 4.501006,46.000000 
	C4.499833,294.333344 4.499854,542.666687 4.500968,791.000000 
	C4.500994,796.716614 6.894652,798.840454 13.434715,796.791626 
	C18.878332,795.086304 24.154970,795.794800 29.502186,795.547180 
	C34.325176,795.323853 39.186211,795.771301 43.994598,795.424988 
	C48.975891,795.066284 53.504154,798.070923 58.500000,797.000000 
"/>
<path fill="none" opacity="1.000000" stroke="#000000" stroke-linecap="round" stroke-linejoin="round" stroke-width="7.000000"
	d="
M2774.000000,33.000000 
	C2774.000000,282.333344 2774.000000,531.666687 2774.000000,781.000000 
"/>
<path fill="none" opacity="1.000000" stroke="#000000" stroke-linecap="round" stroke-linejoin="round" stroke-width="7.000000"
	d="
M1857.000000,33.000000 
	C1857.000000,282.333344 1857.000000,531.666687 1857.000000,781.000000 
"/>
<path fill="none" opacity="1.000000" stroke="#000000" stroke-linecap="round" stroke-linejoin="round" stroke-width="7.000000"
	d="
M2662.000000,33.000000 
	C2662.000000,282.333344 2662.000000,531.666687 2662.000000,781.000000 
"/>
<path fill="none" opacity="1.000000" stroke="#000000" stroke-linecap="round" stroke-linejoin="round" stroke-width="7.000000"
	d="
M2640.000000,33.000000 
	C2640.000000,282.333344 2640.000000,531.666687 2640.000000,781.000000 
"/>
<path fill="none" opacity="1.000000" stroke="#000000" stroke-linecap="round" stroke-linejoin="round" stroke-width="7.000000"
	d="
M2617.000000,33.000000 
	C2617.000000,282.333344 2617.000000,531.666687 2617.000000,781.000000 
"/>
<path fill="none" opacity="1.000000" stroke="#000000" stroke-linecap="round" stroke-linejoin="round" stroke-width="7.000000"
	d="
M2595.000000,33.000000 
	C2595.000000,282.333344 2595.000000,531.666687 2595.000000,781.000000 
"/>
<path fill="none" opacity="1.000000" stroke="#000000" stroke-linecap="round" stroke-linejoin="round" stroke-width="7.000000"
	d="
M2551.000000,33.000000 
	C2551.000000,282.333344 2551.000000,531.666687 2551.000000,781.000000 
"/>
<path fill="none" opacity="1.000000" stroke="#000000" stroke-linecap="round" stroke-linejoin="round" stroke-width="7.000000"
	d="
M2506.000000,33.000000 
	C2506.000000,282.333344 2506.000000,531.666687 2506.000000,781.000000 
"/>
<path fill="none" opacity="1.000000" stroke="#000000" stroke-linecap="round" stroke-linejoin="round" stroke-width="7.000000"
	d="
M2438.000000,33.000000 
	C2438.000000,282.333344 2438.000000,531.666687 2438.000000,781.000000 
"/>
<path fill="none" opacity="1.000000" stroke="#000000" stroke-linecap="round" stroke-linejoin="round" stroke-width="7.000000"
	d="
M2394.000000,33.000000 
	C2394.000000,282.333344 2394.000000,531.666687 2394.000000,781.000000 
"/>
<path fill="none" opacity="1.000000" stroke="#000000" stroke-linecap="round" stroke-linejoin="round" stroke-width="7.000000"
	d="
M2304.000000,33.000000 
	C2304.000000,282.333344 2304.000000,531.666687 2304.000000,781.000000 
"/>
<path fill="none" opacity="1.000000" stroke="#000000" stroke-linecap="round" stroke-linejoin="round" stroke-width="7.000000"
	d="
M2259.000000,33.000000 
	C2259.000000,282.333344 2259.000000,531.666687 2259.000000,781.000000 
"/>
<path fill="none" opacity="1.000000" stroke="#000000" stroke-linecap="round" stroke-linejoin="round" stroke-width="7.000000"
	d="
M2215.000000,33.000000 
	C2215.000000,282.333344 2215.000000,531.666687 2215.000000,781.000000 
"/>
<path fill="none" opacity="1.000000" stroke="#000000" stroke-linecap="round" stroke-linejoin="round" stroke-width="7.000000"
	d="
M2193.000000,33.000000 
	C2193.000000,282.333344 2193.000000,531.666687 2193.000000,781.000000 
"/>
<path fill="none" opacity="1.000000" stroke="#000000" stroke-linecap="round" stroke-linejoin="round" stroke-width="7.000000"
	d="
M2170.000000,33.000000 
	C2170.000000,282.333344 2170.000000,531.666687 2170.000000,781.000000 
"/>
<path fill="none" opacity="1.000000" stroke="#000000" stroke-linecap="round" stroke-linejoin="round" stroke-width="7.000000"
	d="
M2148.000000,33.000000 
	C2148.000000,282.333344 2148.000000,531.666687 2148.000000,781.000000 
"/>
<path fill="none" opacity="1.000000" stroke="#000000" stroke-linecap="round" stroke-linejoin="round" stroke-width="7.000000"
	d="
M2036.000000,33.000000 
	C2036.000000,282.333344 2036.000000,531.666687 2036.000000,781.000000 
"/>
<path fill="none" opacity="1.000000" stroke="#000000" stroke-linecap="round" stroke-linejoin="round" stroke-width="7.000000"
	d="
M2014.000000,33.000000 
	C2014.000000,282.333344 2014.000000,531.666687 2014.000000,781.000000 
"/>
<path fill="none" opacity="1.000000" stroke="#000000" stroke-linecap="round" stroke-linejoin="round" stroke-width="7.000000"
	d="
M1991.000000,33.000000 
	C1991.000000,282.333344 1991.000000,531.666687 1991.000000,781.000000 
"/>
<path fill="none" opacity="1.000000" stroke="#000000" stroke-linecap="round" stroke-linejoin="round" stroke-width="7.000000"
	d="
M1969.000000,33.000000 
	C1969.000000,282.333344 1969.000000,531.666687 1969.000000,781.000000 
"/>
<path fill="none" opacity="1.000000" stroke="#000000" stroke-linecap="round" stroke-linejoin="round" stroke-width="7.000000"
	d="
M1925.000000,33.000000 
	C1925.000000,282.333344 1925.000000,531.666687 1925.000000,781.000000 
"/>
<path fill="none" opacity="1.000000" stroke="#000000" stroke-linecap="round" stroke-linejoin="round" stroke-width="7.000000"
	d="
M3467.000000,33.000000 
	C3467.000000,282.333344 3467.000000,531.666687 3467.000000,781.000000 
"/>
<path fill="none" opacity="1.000000" stroke="#000000" stroke-linecap="round" stroke-linejoin="round" stroke-width="7.000000"
	d="
M3109.000000,33.000000 
	C3109.000000,282.333344 3109.000000,531.666687 3109.000000,781.000000 
"/>
<path fill="none" opacity="1.000000" stroke="#000000" stroke-linecap="round" stroke-linejoin="round" stroke-width="7.000000"
	d="
M80.000000,33.000000 
	C80.000000,282.333344 80.000000,531.666687 80.000000,781.000000 
"/>
<path fill="none" opacity="1.000000" stroke="#000000" stroke-linecap="round" stroke-linejoin="round" stroke-width="7.000000"
	d="
M3445.000000,33.000000 
	C3445.000000,282.333344 3445.000000,531.666687 3445.000000,781.000000 
"/>
<path fill="none" opacity="1.000000" stroke="#000000" stroke-linecap="round" stroke-linejoin="round" stroke-width="7.000000"
	d="
M3422.000000,33.000000 
	C3422.000000,282.333344 3422.000000,531.666687 3422.000000,781.000000 
"/>
<path fill="none" opacity="1.000000" stroke="#000000" stroke-linecap="round" stroke-linejoin="round" stroke-width="7.000000"
	d="
M3377.000000,33.000000 
	C3377.000000,282.333344 3377.000000,531.666687 3377.000000,781.000000 
"/>
<path fill="none" opacity="1.000000" stroke="#000000" stroke-linecap="round" stroke-linejoin="round" stroke-width="7.000000"
	d="
M3332.000000,33.000000 
	C3332.000000,282.333344 3332.000000,531.666687 3332.000000,781.000000 
"/>
<path fill="none" opacity="1.000000" stroke="#000000" stroke-linecap="round" stroke-linejoin="round" stroke-width="7.000000"
	d="
M3288.000000,33.000000 
	C3288.000000,282.333344 3288.000000,531.666687 3288.000000,781.000000 
"/>
<path fill="none" opacity="1.000000" stroke="#000000" stroke-linecap="round" stroke-linejoin="round" stroke-width="7.000000"
	d="
M3266.000000,33.000000 
	C3266.000000,282.333344 3266.000000,531.666687 3266.000000,781.000000 
"/>
<path fill="none" opacity="1.000000" stroke="#000000" stroke-linecap="round" stroke-linejoin="round" stroke-width="7.000000"
	d="
M3243.000000,33.000000 
	C3243.000000,282.333344 3243.000000,531.666687 3243.000000,781.000000 
"/>
<path fill="none" opacity="1.000000" stroke="#000000" stroke-linecap="round" stroke-linejoin="round" stroke-width="7.000000"
	d="
M3221.000000,33.000000 
	C3221.000000,282.333344 3221.000000,531.666687 3221.000000,781.000000 
"/>
<path fill="none" opacity="1.000000" stroke="#000000" stroke-linecap="round" stroke-linejoin="round" stroke-width="7.000000"
	d="
M3177.000000,33.000000 
	C3177.000000,282.333344 3177.000000,531.666687 3177.000000,781.000000 
"/>
<path fill="none" opacity="1.000000" stroke="#000000" stroke-linecap="round" stroke-linejoin="round" stroke-width="7.000000"
	d="
M2796.000000,33.000000 
	C2796.000000,282.333344 2796.000000,531.666687 2796.000000,781.000000 
"/>
<path fill="none" opacity="1.000000" stroke="#000000" stroke-linecap="round" stroke-linejoin="round" stroke-width="7.000000"
	d="
M3087.000000,33.000000 
	C3087.000000,282.333344 3087.000000,531.666687 3087.000000,781.000000 
"/>
<path fill="none" opacity="1.000000" stroke="#000000" stroke-linecap="round" stroke-linejoin="round" stroke-width="7.000000"
	d="
M3064.000000,33.000000 
	C3064.000000,282.333344 3064.000000,531.666687 3064.000000,781.000000 
"/>
<path fill="none" opacity="1.000000" stroke="#000000" stroke-linecap="round" stroke-linejoin="round" stroke-width="7.000000"
	d="
M3042.000000,33.000000 
	C3042.000000,282.333344 3042.000000,531.666687 3042.000000,781.000000 
"/>
<path fill="none" opacity="1.000000" stroke="#000000" stroke-linecap="round" stroke-linejoin="round" stroke-width="7.000000"
	d="
M2998.000000,33.000000 
	C2998.000000,282.333344 2998.000000,531.666687 2998.000000,781.000000 
"/>
<path fill="none" opacity="1.000000" stroke="#000000" stroke-linecap="round" stroke-linejoin="round" stroke-width="7.000000"
	d="
M2953.000000,33.000000 
	C2953.000000,282.333344 2953.000000,531.666687 2953.000000,781.000000 
"/>
<path fill="none" opacity="1.000000" stroke="#000000" stroke-linecap="round" stroke-linejoin="round" stroke-width="7.000000"
	d="
M2930.000000,33.000000 
	C2930.000000,282.333344 2930.000000,531.666687 2930.000000,781.000000 
"/>
<path fill="none" opacity="1.000000" stroke="#000000" stroke-linecap="round" stroke-linejoin="round" stroke-width="7.000000"
	d="
M2885.000000,33.000000 
	C2885.000000,282.333344 2885.000000,531.666687 2885.000000,781.000000 
"/>
<path fill="none" opacity="1.000000" stroke="#000000" stroke-linecap="round" stroke-linejoin="round" stroke-width="7.000000"
	d="
M2841.000000,33.000000 
	C2841.000000,282.333344 2841.000000,531.666687 2841.000000,781.000000 
"/>
<path fill="none" opacity="1.000000" stroke="#000000" stroke-linecap="round" stroke-linejoin="round" stroke-width="7.000000"
	d="
M2819.000000,33.000000 
	C2819.000000,282.333344 2819.000000,531.666687 2819.000000,781.000000 
"/>
<path fill="none" opacity="1.000000" stroke="#000000" stroke-linecap="round" stroke-linejoin="round" stroke-width="7.000000"
	d="
M494.000000,33.000000 
	C494.000000,282.333344 494.000000,531.666687 494.000000,781.000000 
"/>
<path fill="none" opacity="1.000000" stroke="#000000" stroke-linecap="round" stroke-linejoin="round" stroke-width="7.000000"
	d="
M941.000000,33.000000 
	C941.000000,282.333344 941.000000,531.666687 941.000000,781.000000 
"/>
<path fill="none" opacity="1.000000" stroke="#000000" stroke-linecap="round" stroke-linejoin="round" stroke-width="7.000000"
	d="
M918.000000,33.000000 
	C918.000000,282.333344 918.000000,531.666687 918.000000,781.000000 
"/>
<path fill="none" opacity="1.000000" stroke="#000000" stroke-linecap="round" stroke-linejoin="round" stroke-width="7.000000"
	d="
M896.000000,33.000000 
	C896.000000,282.333344 896.000000,531.666687 896.000000,781.000000 
"/>
<path fill="none" opacity="1.000000" stroke="#000000" stroke-linecap="round" stroke-linejoin="round" stroke-width="7.000000"
	d="
M784.000000,33.000000 
	C784.000000,282.333344 784.000000,531.666687 784.000000,781.000000 
"/>
<path fill="none" opacity="1.000000" stroke="#000000" stroke-linecap="round" stroke-linejoin="round" stroke-width="7.000000"
	d="
M739.000000,33.000000 
	C739.000000,282.333344 739.000000,531.666687 739.000000,781.000000 
"/>
<path fill="none" opacity="1.000000" stroke="#000000" stroke-linecap="round" stroke-linejoin="round" stroke-width="7.000000"
	d="
M695.000000,33.000000 
	C695.000000,282.333344 695.000000,531.666687 695.000000,781.000000 
"/>
<path fill="none" opacity="1.000000" stroke="#000000" stroke-linecap="round" stroke-linejoin="round" stroke-width="7.000000"
	d="
M650.000000,33.000000 
	C650.000000,282.333344 650.000000,531.666687 650.000000,781.000000 
"/>
<path fill="none" opacity="1.000000" stroke="#000000" stroke-linecap="round" stroke-linejoin="round" stroke-width="7.000000"
	d="
M605.000000,33.000000 
	C605.000000,282.333344 605.000000,531.666687 605.000000,781.000000 
"/>
<path fill="none" opacity="1.000000" stroke="#000000" stroke-linecap="round" stroke-linejoin="round" stroke-width="7.000000"
	d="
M560.000000,33.000000 
	C560.000000,282.333344 560.000000,531.666687 560.000000,781.000000 
"/>
<path fill="none" opacity="1.000000" stroke="#000000" stroke-linecap="round" stroke-linejoin="round" stroke-width="7.000000"
	d="
M516.000000,33.000000 
	C516.000000,282.333344 516.000000,531.666687 516.000000,781.000000 
"/>
<path fill="none" opacity="1.000000" stroke="#000000" stroke-linecap="round" stroke-linejoin="round" stroke-width="7.000000"
	d="
M963.000000,33.000000 
	C963.000000,282.333344 963.000000,531.666687 963.000000,781.000000 
"/>
<path fill="none" opacity="1.000000" stroke="#000000" stroke-linecap="round" stroke-linejoin="round" stroke-width="7.000000"
	d="
M471.000000,33.000000 
	C471.000000,282.333344 471.000000,531.666687 471.000000,781.000000 
"/>
<path fill="none" opacity="1.000000" stroke="#000000" stroke-linecap="round" stroke-linejoin="round" stroke-width="7.000000"
	d="
M449.000000,33.000000 
	C449.000000,282.333344 449.000000,531.666687 449.000000,781.000000 
"/>
<path fill="none" opacity="1.000000" stroke="#000000" stroke-linecap="round" stroke-linejoin="round" stroke-width="7.000000"
	d="
M405.000000,33.000000 
	C405.000000,282.333344 405.000000,531.666687 405.000000,781.000000 
"/>
<path fill="none" opacity="1.000000" stroke="#000000" stroke-linecap="round" stroke-linejoin="round" stroke-width="7.000000"
	d="
M337.000000,33.000000 
	C337.000000,282.333344 337.000000,531.666687 337.000000,781.000000 
"/>
<path fill="none" opacity="1.000000" stroke="#000000" stroke-linecap="round" stroke-linejoin="round" stroke-width="7.000000"
	d="
M315.000000,33.000000 
	C315.000000,282.333344 315.000000,531.666687 315.000000,781.000000 
"/>
<path fill="none" opacity="1.000000" stroke="#000000" stroke-linecap="round" stroke-linejoin="round" stroke-width="7.000000"
	d="
M292.000000,33.000000 
	C292.000000,282.333344 292.000000,531.666687 292.000000,781.000000 
"/>
<path fill="none" opacity="1.000000" stroke="#000000" stroke-linecap="round" stroke-linejoin="round" stroke-width="7.000000"
	d="
M270.000000,33.000000 
	C270.000000,282.333344 270.000000,531.666687 270.000000,781.000000 
"/>
<path fill="none" opacity="1.000000" stroke="#000000" stroke-linecap="round" stroke-linejoin="round" stroke-width="7.000000"
	d="
M158.000000,33.000000 
	C158.000000,282.333344 158.000000,531.666687 158.000000,781.000000 
"/>
<path fill="none" opacity="1.000000" stroke="#000000" stroke-linecap="round" stroke-linejoin="round" stroke-width="7.000000"
	d="
M113.000000,33.000000 
	C113.000000,282.333344 113.000000,531.666687 113.000000,781.000000 
"/>
<path fill="none" opacity="1.000000" stroke="#000000" stroke-linecap="round" stroke-linejoin="round" stroke-width="7.000000"
	d="
M1410.000000,33.000000 
	C1410.000000,282.333344 1410.000000,531.666687 1410.000000,781.000000 
"/>
<path fill="none" opacity="1.000000" stroke="#000000" stroke-linecap="round" stroke-linejoin="round" stroke-width="7.000000"
	d="
M1768.000000,33.000000 
	C1768.000000,282.333344 1768.000000,531.666687 1768.000000,781.000000 
"/>
<path fill="none" opacity="1.000000" stroke="#000000" stroke-linecap="round" stroke-linejoin="round" stroke-width="7.000000"
	d="
M1746.000000,33.000000 
	C1746.000000,282.333344 1746.000000,531.666687 1746.000000,781.000000 
"/>
<path fill="none" opacity="1.000000" stroke="#000000" stroke-linecap="round" stroke-linejoin="round" stroke-width="7.000000"
	d="
M1723.000000,33.000000 
	C1723.000000,282.333344 1723.000000,531.666687 1723.000000,781.000000 
"/>
<path fill="none" opacity="1.000000" stroke="#000000" stroke-linecap="round" stroke-linejoin="round" stroke-width="7.000000"
	d="
M1701.000000,33.000000 
	C1701.000000,282.333344 1701.000000,531.666687 1701.000000,781.000000 
"/>
<path fill="none" opacity="1.000000" stroke="#000000" stroke-linecap="round" stroke-linejoin="round" stroke-width="7.000000"
	d="
M1589.000000,33.000000 
	C1589.000000,282.333344 1589.000000,531.666687 1589.000000,781.000000 
"/>
<path fill="none" opacity="1.000000" stroke="#000000" stroke-linecap="round" stroke-linejoin="round" stroke-width="7.000000"
	d="
M1567.000000,33.000000 
	C1567.000000,282.333344 1567.000000,531.666687 1567.000000,781.000000 
"/>
<path fill="none" opacity="1.000000" stroke="#000000" stroke-linecap="round" stroke-linejoin="round" stroke-width="7.000000"
	d="
M1544.000000,33.000000 
	C1544.000000,282.333344 1544.000000,531.666687 1544.000000,781.000000 
"/>
<path fill="none" opacity="1.000000" stroke="#000000" stroke-linecap="round" stroke-linejoin="round" stroke-width="7.000000"
	d="
M1522.000000,33.000000 
	C1522.000000,282.333344 1522.000000,531.666687 1522.000000,781.000000 
"/>
<path fill="none" opacity="1.000000" stroke="#000000" stroke-linecap="round" stroke-linejoin="round" stroke-width="7.000000"
	d="
M1478.000000,33.000000 
	C1478.000000,282.333344 1478.000000,531.666687 1478.000000,781.000000 
"/>
<path fill="none" opacity="1.000000" stroke="#000000" stroke-linecap="round" stroke-linejoin="round" stroke-width="7.000000"
	d="
M1433.000000,33.000000 
	C1433.000000,282.333344 1433.000000,531.666687 1433.000000,781.000000 
"/>
<path fill="none" opacity="1.000000" stroke="#000000" stroke-linecap="round" stroke-linejoin="round" stroke-width="7.000000"
	d="
M1812.000000,33.000000 
	C1812.000000,282.333344 1812.000000,531.666687 1812.000000,781.000000 
"/>
<path fill="none" opacity="1.000000" stroke="#000000" stroke-linecap="round" stroke-linejoin="round" stroke-width="7.000000"
	d="
M1388.000000,33.000000 
	C1388.000000,282.333344 1388.000000,531.666687 1388.000000,781.000000 
"/>
<path fill="none" opacity="1.000000" stroke="#000000" stroke-linecap="round" stroke-linejoin="round" stroke-width="7.000000"
	d="
M1365.000000,33.000000 
	C1365.000000,282.333344 1365.000000,531.666687 1365.000000,781.000000 
"/>
<path fill="none" opacity="1.000000" stroke="#000000" stroke-linecap="round" stroke-linejoin="round" stroke-width="7.000000"
	d="
M1343.000000,33.000000 
	C1343.000000,282.333344 1343.000000,531.666687 1343.000000,781.000000 
"/>
<path fill="none" opacity="1.000000" stroke="#000000" stroke-linecap="round" stroke-linejoin="round" stroke-width="7.000000"
	d="
M1231.000000,33.000000 
	C1231.000000,282.333344 1231.000000,531.666687 1231.000000,781.000000 
"/>
<path fill="none" opacity="1.000000" stroke="#000000" stroke-linecap="round" stroke-linejoin="round" stroke-width="7.000000"
	d="
M1186.000000,33.000000 
	C1186.000000,282.333344 1186.000000,531.666687 1186.000000,781.000000 
"/>
<path fill="none" opacity="1.000000" stroke="#000000" stroke-linecap="round" stroke-linejoin="round" stroke-width="7.000000"
	d="
M1142.000000,33.000000 
	C1142.000000,282.333344 1142.000000,531.666687 1142.000000,781.000000 
"/>
<path fill="none" opacity="1.000000" stroke="#000000" stroke-linecap="round" stroke-linejoin="round" stroke-width="7.000000"
	d="
M1120.000000,33.000000 
	C1120.000000,282.333344 1120.000000,531.666687 1120.000000,781.000000 
"/>
<path fill="none" opacity="1.000000" stroke="#000000" stroke-linecap="round" stroke-linejoin="round" stroke-width="7.000000"
	d="
M1097.000000,33.000000 
	C1097.000000,282.333344 1097.000000,531.666687 1097.000000,781.000000 
"/>
<path fill="none" opacity="1.000000" stroke="#000000" stroke-linecap="round" stroke-linejoin="round" stroke-width="7.000000"
	d="
M1075.000000,33.000000 
	C1075.000000,282.333344 1075.000000,531.666687 1075.000000,781.000000 
"/>
<path fill="none" opacity="1.000000" stroke="#000000" stroke-linecap="round" stroke-linejoin="round" stroke-width="7.000000"
	d="
M3624.000000,33.000000 
	C3624.000000,282.333344 3624.000000,531.666687 3624.000000,781.000000 
"/>
<path fill="none" opacity="1.000000" stroke="#000000" stroke-linecap="round" stroke-linejoin="round" stroke-width="7.000000"
	d="
M3668.000000,33.000000 
	C3668.000000,282.333344 3668.000000,531.666687 3668.000000,781.000000 
"/>
<path fill="none" opacity="1.000000" stroke="#000000" stroke-linecap="round" stroke-linejoin="round" stroke-width="7.000000"
	d="
M3690.000000,33.000000 
	C3690.000000,282.333344 3690.000000,531.666687 3690.000000,781.000000 
"/>
<path fill="none" opacity="1.000000" stroke="#000000" stroke-linecap="round" stroke-linejoin="round" stroke-width="7.000000"
	d="
M3713.000000,33.000000 
	C3713.000000,282.333344 3713.000000,531.666687 3713.000000,781.000000 
"/>
<path fill="none" opacity="1.000000" stroke="#000000" stroke-linecap="round" stroke-linejoin="round" stroke-width="7.000000"
	d="
M3735.000000,33.000000 
	C3735.000000,282.333344 3735.000000,531.666687 3735.000000,781.000000 
"/>
<path fill="none" opacity="1.000000" stroke="#000000" stroke-linecap="round" stroke-linejoin="round" stroke-width="7.000000"
	d="
M3847.000000,33.000000 
	C3847.000000,282.333344 3847.000000,531.666687 3847.000000,781.000000 
"/>
<path fill="none" opacity="1.000000" stroke="#000000" stroke-linecap="round" stroke-linejoin="round" stroke-width="7.000000"
	d="
M3579.000000,33.000000 
	C3579.000000,282.333344 3579.000000,531.666687 3579.000000,781.000000 
"/>
<path fill="none" opacity="1.000000" stroke="#000000" stroke-linecap="round" stroke-linejoin="round" stroke-width="8.000000"
	d="
M2483.500000,33.000000 
	C2483.500000,282.166656 2483.500000,531.333313 2483.500000,780.500000 
"/>
<path fill="none" opacity="1.000000" stroke="#000000" stroke-linecap="round" stroke-linejoin="round" stroke-width="8.000000"
	d="
M2908.500000,33.000000 
	C2908.500000,282.166656 2908.500000,531.333313 2908.500000,780.500000 
"/>
<path fill="none" opacity="1.000000" stroke="#000000" stroke-linecap="round" stroke-linejoin="round" stroke-width="8.000000"
	d="
M2527.500000,33.000000 
	C2527.500000,282.166656 2527.500000,531.333313 2527.500000,780.500000 
"/>
<path fill="none" opacity="1.000000" stroke="#000000" stroke-linecap="round" stroke-linejoin="round" stroke-width="8.000000"
	d="
M2572.500000,33.000000 
	C2572.500000,282.166656 2572.500000,531.333313 2572.500000,780.500000 
"/>
<path fill="none" opacity="1.000000" stroke="#000000" stroke-linecap="round" stroke-linejoin="round" stroke-width="8.000000"
	d="
M2684.500000,33.000000 
	C2684.500000,282.166656 2684.500000,531.333313 2684.500000,780.500000 
"/>
<path fill="none" opacity="1.000000" stroke="#000000" stroke-linecap="round" stroke-linejoin="round" stroke-width="8.000000"
	d="
M2706.500000,33.000000 
	C2706.500000,282.166656 2706.500000,531.333313 2706.500000,780.500000 
"/>
<path fill="none" opacity="1.000000" stroke="#000000" stroke-linecap="round" stroke-linejoin="round" stroke-width="8.000000"
	d="
M2729.500000,33.000000 
	C2729.500000,282.166656 2729.500000,531.333313 2729.500000,780.500000 
"/>
<path fill="none" opacity="1.000000" stroke="#000000" stroke-linecap="round" stroke-linejoin="round" stroke-width="8.000000"
	d="
M2751.500000,33.000000 
	C2751.500000,282.166656 2751.500000,531.333313 2751.500000,780.500000 
"/>
<path fill="none" opacity="1.000000" stroke="#000000" stroke-linecap="round" stroke-linejoin="round" stroke-width="8.000000"
	d="
M2863.500000,33.000000 
	C2863.500000,282.166656 2863.500000,531.333313 2863.500000,780.500000 
"/>
<path fill="none" opacity="1.000000" stroke="#000000" stroke-linecap="round" stroke-linejoin="round" stroke-width="8.000000"
	d="
M2080.500000,33.000000 
	C2080.500000,282.166656 2080.500000,531.333313 2080.500000,780.500000 
"/>
<path fill="none" opacity="1.000000" stroke="#000000" stroke-linecap="round" stroke-linejoin="round" stroke-width="8.000000"
	d="
M2461.500000,33.000000 
	C2461.500000,282.166656 2461.500000,531.333313 2461.500000,780.500000 
"/>
<path fill="none" opacity="1.000000" stroke="#000000" stroke-linecap="round" stroke-linejoin="round" stroke-width="8.000000"
	d="
M2416.500000,33.000000 
	C2416.500000,282.166656 2416.500000,531.333313 2416.500000,780.500000 
"/>
<path fill="none" opacity="1.000000" stroke="#000000" stroke-linecap="round" stroke-linejoin="round" stroke-width="8.000000"
	d="
M2371.500000,33.000000 
	C2371.500000,282.166656 2371.500000,531.333313 2371.500000,780.500000 
"/>
<path fill="none" opacity="1.000000" stroke="#000000" stroke-linecap="round" stroke-linejoin="round" stroke-width="8.000000"
	d="
M2348.500000,33.000000 
	C2348.500000,282.166656 2348.500000,531.333313 2348.500000,780.500000 
"/>
<path fill="none" opacity="1.000000" stroke="#000000" stroke-linecap="round" stroke-linejoin="round" stroke-width="8.000000"
	d="
M2326.500000,33.000000 
	C2326.500000,282.166656 2326.500000,531.333313 2326.500000,780.500000 
"/>
<path fill="none" opacity="1.000000" stroke="#000000" stroke-linecap="round" stroke-linejoin="round" stroke-width="8.000000"
	d="
M2282.500000,33.000000 
	C2282.500000,282.166656 2282.500000,531.333313 2282.500000,780.500000 
"/>
<path fill="none" opacity="1.000000" stroke="#000000" stroke-linecap="round" stroke-linejoin="round" stroke-width="8.000000"
	d="
M2237.500000,33.000000 
	C2237.500000,282.166656 2237.500000,531.333313 2237.500000,780.500000 
"/>
<path fill="none" opacity="1.000000" stroke="#000000" stroke-linecap="round" stroke-linejoin="round" stroke-width="8.000000"
	d="
M2125.500000,33.000000 
	C2125.500000,282.166656 2125.500000,531.333313 2125.500000,780.500000 
"/>
<path fill="none" opacity="1.000000" stroke="#000000" stroke-linecap="round" stroke-linejoin="round" stroke-width="8.000000"
	d="
M2103.500000,33.000000 
	C2103.500000,282.166656 2103.500000,531.333313 2103.500000,780.500000 
"/>
<path fill="none" opacity="1.000000" stroke="#000000" stroke-linecap="round" stroke-linejoin="round" stroke-width="8.000000"
	d="
M225.500000,33.000000 
	C225.500000,282.166656 225.500000,531.333313 225.500000,780.500000 
"/>
<path fill="none" opacity="1.000000" stroke="#000000" stroke-linecap="round" stroke-linejoin="round" stroke-width="8.000000"
	d="
M3511.500000,33.000000 
	C3511.500000,282.166656 3511.500000,531.333313 3511.500000,780.500000 
"/>
<path fill="none" opacity="1.000000" stroke="#000000" stroke-linecap="round" stroke-linejoin="round" stroke-width="8.000000"
	d="
M3835.500000,33.000000 
	C3835.500000,282.166656 3835.500000,531.333313 3835.500000,780.500000 
"/>
<path fill="none" opacity="1.000000" stroke="#000000" stroke-linecap="round" stroke-linejoin="round" stroke-width="8.000000"
	d="
M3824.500000,33.000000 
	C3824.500000,282.166656 3824.500000,531.333313 3824.500000,780.500000 
"/>
<path fill="none" opacity="1.000000" stroke="#000000" stroke-linecap="round" stroke-linejoin="round" stroke-width="8.000000"
	d="
M3802.500000,33.000000 
	C3802.500000,282.166656 3802.500000,531.333313 3802.500000,780.500000 
"/>
<path fill="none" opacity="1.000000" stroke="#000000" stroke-linecap="round" stroke-linejoin="round" stroke-width="8.000000"
	d="
M3779.500000,33.000000 
	C3779.500000,282.166656 3779.500000,531.333313 3779.500000,780.500000 
"/>
<path fill="none" opacity="1.000000" stroke="#000000" stroke-linecap="round" stroke-linejoin="round" stroke-width="8.000000"
	d="
M3757.500000,33.000000 
	C3757.500000,282.166656 3757.500000,531.333313 3757.500000,780.500000 
"/>
<path fill="none" opacity="1.000000" stroke="#000000" stroke-linecap="round" stroke-linejoin="round" stroke-width="8.000000"
	d="
M3645.500000,33.000000 
	C3645.500000,282.166656 3645.500000,531.333313 3645.500000,780.500000 
"/>
<path fill="none" opacity="1.000000" stroke="#000000" stroke-linecap="round" stroke-linejoin="round" stroke-width="8.000000"
	d="
M3600.500000,33.000000 
	C3600.500000,282.166656 3600.500000,531.333313 3600.500000,780.500000 
"/>
<path fill="none" opacity="1.000000" stroke="#000000" stroke-linecap="round" stroke-linejoin="round" stroke-width="8.000000"
	d="
M3556.500000,33.000000 
	C3556.500000,282.166656 3556.500000,531.333313 3556.500000,780.500000 
"/>
<path fill="none" opacity="1.000000" stroke="#000000" stroke-linecap="round" stroke-linejoin="round" stroke-width="8.000000"
	d="
M3534.500000,33.000000 
	C3534.500000,282.166656 3534.500000,531.333313 3534.500000,780.500000 
"/>
<path fill="none" opacity="1.000000" stroke="#000000" stroke-linecap="round" stroke-linejoin="round" stroke-width="8.000000"
	d="
M2974.500000,33.000000 
	C2974.500000,282.166656 2974.500000,531.333313 2974.500000,780.500000 
"/>
<path fill="none" opacity="1.000000" stroke="#000000" stroke-linecap="round" stroke-linejoin="round" stroke-width="8.000000"
	d="
M3489.500000,33.000000 
	C3489.500000,282.166656 3489.500000,531.333313 3489.500000,780.500000 
"/>
<path fill="none" opacity="1.000000" stroke="#000000" stroke-linecap="round" stroke-linejoin="round" stroke-width="8.000000"
	d="
M3399.500000,33.000000 
	C3399.500000,282.166656 3399.500000,531.333313 3399.500000,780.500000 
"/>
<path fill="none" opacity="1.000000" stroke="#000000" stroke-linecap="round" stroke-linejoin="round" stroke-width="8.000000"
	d="
M3355.500000,33.000000 
	C3355.500000,282.166656 3355.500000,531.333313 3355.500000,780.500000 
"/>
<path fill="none" opacity="1.000000" stroke="#000000" stroke-linecap="round" stroke-linejoin="round" stroke-width="8.000000"
	d="
M3310.500000,33.000000 
	C3310.500000,282.166656 3310.500000,531.333313 3310.500000,780.500000 
"/>
<path fill="none" opacity="1.000000" stroke="#000000" stroke-linecap="round" stroke-linejoin="round" stroke-width="8.000000"
	d="
M3198.500000,33.000000 
	C3198.500000,282.166656 3198.500000,531.333313 3198.500000,780.500000 
"/>
<path fill="none" opacity="1.000000" stroke="#000000" stroke-linecap="round" stroke-linejoin="round" stroke-width="8.000000"
	d="
M3153.500000,33.000000 
	C3153.500000,282.166656 3153.500000,531.333313 3153.500000,780.500000 
"/>
<path fill="none" opacity="1.000000" stroke="#000000" stroke-linecap="round" stroke-linejoin="round" stroke-width="8.000000"
	d="
M3131.500000,33.000000 
	C3131.500000,282.166656 3131.500000,531.333313 3131.500000,780.500000 
"/>
<path fill="none" opacity="1.000000" stroke="#000000" stroke-linecap="round" stroke-linejoin="round" stroke-width="8.000000"
	d="
M3019.500000,33.000000 
	C3019.500000,282.166656 3019.500000,531.333313 3019.500000,780.500000 
"/>
<path fill="none" opacity="1.000000" stroke="#000000" stroke-linecap="round" stroke-linejoin="round" stroke-width="8.000000"
	d="
M583.500000,33.000000 
	C583.500000,282.166656 583.500000,531.333313 583.500000,780.500000 
"/>
<path fill="none" opacity="1.000000" stroke="#000000" stroke-linecap="round" stroke-linejoin="round" stroke-width="8.000000"
	d="
M985.500000,33.000000 
	C985.500000,282.166656 985.500000,531.333313 985.500000,780.500000 
"/>
<path fill="none" opacity="1.000000" stroke="#000000" stroke-linecap="round" stroke-linejoin="round" stroke-width="8.000000"
	d="
M873.500000,33.000000 
	C873.500000,282.166656 873.500000,531.333313 873.500000,780.500000 
"/>
<path fill="none" opacity="1.000000" stroke="#000000" stroke-linecap="round" stroke-linejoin="round" stroke-width="8.000000"
	d="
M851.500000,33.000000 
	C851.500000,282.166656 851.500000,531.333313 851.500000,780.500000 
"/>
<path fill="none" opacity="1.000000" stroke="#000000" stroke-linecap="round" stroke-linejoin="round" stroke-width="8.000000"
	d="
M828.500000,33.000000 
	C828.500000,282.166656 828.500000,531.333313 828.500000,780.500000 
"/>
<path fill="none" opacity="1.000000" stroke="#000000" stroke-linecap="round" stroke-linejoin="round" stroke-width="8.000000"
	d="
M806.500000,33.000000 
	C806.500000,282.166656 806.500000,531.333313 806.500000,780.500000 
"/>
<path fill="none" opacity="1.000000" stroke="#000000" stroke-linecap="round" stroke-linejoin="round" stroke-width="8.000000"
	d="
M762.500000,33.000000 
	C762.500000,282.166656 762.500000,531.333313 762.500000,780.500000 
"/>
<path fill="none" opacity="1.000000" stroke="#000000" stroke-linecap="round" stroke-linejoin="round" stroke-width="8.000000"
	d="
M717.500000,33.000000 
	C717.500000,282.166656 717.500000,531.333313 717.500000,780.500000 
"/>
<path fill="none" opacity="1.000000" stroke="#000000" stroke-linecap="round" stroke-linejoin="round" stroke-width="8.000000"
	d="
M672.500000,33.000000 
	C672.500000,282.166656 672.500000,531.333313 672.500000,780.500000 
"/>
<path fill="none" opacity="1.000000" stroke="#000000" stroke-linecap="round" stroke-linejoin="round" stroke-width="8.000000"
	d="
M627.500000,33.000000 
	C627.500000,282.166656 627.500000,531.333313 627.500000,780.500000 
"/>
<path fill="none" opacity="1.000000" stroke="#000000" stroke-linecap="round" stroke-linejoin="round" stroke-width="8.000000"
	d="
M1007.500000,33.000000 
	C1007.500000,282.166656 1007.500000,531.333313 1007.500000,780.500000 
"/>
<path fill="none" opacity="1.000000" stroke="#000000" stroke-linecap="round" stroke-linejoin="round" stroke-width="8.000000"
	d="
M538.500000,33.000000 
	C538.500000,282.166656 538.500000,531.333313 538.500000,780.500000 
"/>
<path fill="none" opacity="1.000000" stroke="#000000" stroke-linecap="round" stroke-linejoin="round" stroke-width="8.000000"
	d="
M426.500000,33.000000 
	C426.500000,282.166656 426.500000,531.333313 426.500000,780.500000 
"/>
<path fill="none" opacity="1.000000" stroke="#000000" stroke-linecap="round" stroke-linejoin="round" stroke-width="8.000000"
	d="
M381.500000,33.000000 
	C381.500000,282.166656 381.500000,531.333313 381.500000,780.500000 
"/>
<path fill="none" opacity="1.000000" stroke="#000000" stroke-linecap="round" stroke-linejoin="round" stroke-width="8.000000"
	d="
M359.500000,33.000000 
	C359.500000,282.166656 359.500000,531.333313 359.500000,780.500000 
"/>
<path fill="none" opacity="1.000000" stroke="#000000" stroke-linecap="round" stroke-linejoin="round" stroke-width="8.000000"
	d="
M247.500000,33.000000 
	C247.500000,282.166656 247.500000,531.333313 247.500000,780.500000 
"/>
<path fill="none" opacity="1.000000" stroke="#000000" stroke-linecap="round" stroke-linejoin="round" stroke-width="8.000000"
	d="
M202.500000,33.000000 
	C202.500000,282.166656 202.500000,531.333313 202.500000,780.500000 
"/>
<path fill="none" opacity="1.000000" stroke="#000000" stroke-linecap="round" stroke-linejoin="round" stroke-width="8.000000"
	d="
M180.500000,33.000000 
	C180.500000,282.166656 180.500000,531.333313 180.500000,780.500000 
"/>
<path fill="none" opacity="1.000000" stroke="#000000" stroke-linecap="round" stroke-linejoin="round" stroke-width="8.000000"
	d="
M136.500000,33.000000 
	C136.500000,282.166656 136.500000,531.333313 136.500000,780.500000 
"/>
<path fill="none" opacity="1.000000" stroke="#000000" stroke-linecap="round" stroke-linejoin="round" stroke-width="8.000000"
	d="
M91.500000,33.000000 
	C91.500000,282.166656 91.500000,531.333313 91.500000,780.500000 
"/>
<path fill="none" opacity="1.000000" stroke="#000000" stroke-linecap="round" stroke-linejoin="round" stroke-width="8.000000"
	d="
M1499.500000,33.000000 
	C1499.500000,282.166656 1499.500000,531.333313 1499.500000,780.500000 
"/>
<path fill="none" opacity="1.000000" stroke="#000000" stroke-linecap="round" stroke-linejoin="round" stroke-width="8.000000"
	d="
M1946.500000,33.000000 
	C1946.500000,282.166656 1946.500000,531.333313 1946.500000,780.500000 
"/>
<path fill="none" opacity="1.000000" stroke="#000000" stroke-linecap="round" stroke-linejoin="round" stroke-width="8.000000"
	d="
M1901.500000,33.000000 
	C1901.500000,282.166656 1901.500000,531.333313 1901.500000,780.500000 
"/>
<path fill="none" opacity="1.000000" stroke="#000000" stroke-linecap="round" stroke-linejoin="round" stroke-width="8.000000"
	d="
M1879.500000,33.000000 
	C1879.500000,282.166656 1879.500000,531.333313 1879.500000,780.500000 
"/>
<path fill="none" opacity="1.000000" stroke="#000000" stroke-linecap="round" stroke-linejoin="round" stroke-width="8.000000"
	d="
M1835.500000,33.000000 
	C1835.500000,282.166656 1835.500000,531.333313 1835.500000,780.500000 
"/>
<path fill="none" opacity="1.000000" stroke="#000000" stroke-linecap="round" stroke-linejoin="round" stroke-width="8.000000"
	d="
M1790.500000,33.000000 
	C1790.500000,282.166656 1790.500000,531.333313 1790.500000,780.500000 
"/>
<path fill="none" opacity="1.000000" stroke="#000000" stroke-linecap="round" stroke-linejoin="round" stroke-width="8.000000"
	d="
M1678.500000,33.000000 
	C1678.500000,282.166656 1678.500000,531.333313 1678.500000,780.500000 
"/>
<path fill="none" opacity="1.000000" stroke="#000000" stroke-linecap="round" stroke-linejoin="round" stroke-width="8.000000"
	d="
M1656.500000,33.000000 
	C1656.500000,282.166656 1656.500000,531.333313 1656.500000,780.500000 
"/>
<path fill="none" opacity="1.000000" stroke="#000000" stroke-linecap="round" stroke-linejoin="round" stroke-width="8.000000"
	d="
M1633.500000,33.000000 
	C1633.500000,282.166656 1633.500000,531.333313 1633.500000,780.500000 
"/>
<path fill="none" opacity="1.000000" stroke="#000000" stroke-linecap="round" stroke-linejoin="round" stroke-width="8.000000"
	d="
M1611.500000,33.000000 
	C1611.500000,282.166656 1611.500000,531.333313 1611.500000,780.500000 
"/>
<path fill="none" opacity="1.000000" stroke="#000000" stroke-linecap="round" stroke-linejoin="round" stroke-width="8.000000"
	d="
M2058.500000,33.000000 
	C2058.500000,282.166656 2058.500000,531.333313 2058.500000,780.500000 
"/>
<path fill="none" opacity="1.000000" stroke="#000000" stroke-linecap="round" stroke-linejoin="round" stroke-width="8.000000"
	d="
M1454.500000,33.000000 
	C1454.500000,282.166656 1454.500000,531.333313 1454.500000,780.500000 
"/>
<path fill="none" opacity="1.000000" stroke="#000000" stroke-linecap="round" stroke-linejoin="round" stroke-width="8.000000"
	d="
M1320.500000,33.000000 
	C1320.500000,282.166656 1320.500000,531.333313 1320.500000,780.500000 
"/>
<path fill="none" opacity="1.000000" stroke="#000000" stroke-linecap="round" stroke-linejoin="round" stroke-width="8.000000"
	d="
M1298.500000,33.000000 
	C1298.500000,282.166656 1298.500000,531.333313 1298.500000,780.500000 
"/>
<path fill="none" opacity="1.000000" stroke="#000000" stroke-linecap="round" stroke-linejoin="round" stroke-width="8.000000"
	d="
M1275.500000,33.000000 
	C1275.500000,282.166656 1275.500000,531.333313 1275.500000,780.500000 
"/>
<path fill="none" opacity="1.000000" stroke="#000000" stroke-linecap="round" stroke-linejoin="round" stroke-width="8.000000"
	d="
M1253.500000,33.000000 
	C1253.500000,282.166656 1253.500000,531.333313 1253.500000,780.500000 
"/>
<path fill="none" opacity="1.000000" stroke="#000000" stroke-linecap="round" stroke-linejoin="round" stroke-width="8.000000"
	d="
M1209.500000,33.000000 
	C1209.500000,282.166656 1209.500000,531.333313 1209.500000,780.500000 
"/>
<path fill="none" opacity="1.000000" stroke="#000000" stroke-linecap="round" stroke-linejoin="round" stroke-width="8.000000"
	d="
M1164.500000,33.000000 
	C1164.500000,282.166656 1164.500000,531.333313 1164.500000,780.500000 
"/>
<path fill="none" opacity="1.000000" stroke="#000000" stroke-linecap="round" stroke-linejoin="round" stroke-width="8.000000"
	d="
M1052.500000,33.000000 
	C1052.500000,282.166656 1052.500000,531.333313 1052.500000,780.500000 
"/>
<path fill="none" opacity="1.000000" stroke="#000000" stroke-linecap="round" stroke-linejoin="round" stroke-width="8.000000"
	d="
M1030.500000,33.000000 
	C1030.500000,282.166656 1030.500000,531.333313 1030.500000,780.500000 
"/>
<path fill="none" opacity="1.000000" stroke="#000000" stroke-linecap="round" stroke-linejoin="round" stroke-width="8.000000"
	d="
M59.500000,4.500000 
	C60.978355,13.457592 59.096378,22.459929 60.004810,31.549490 
	C60.515491,36.659241 59.510288,42.484642 59.510025,48.000000 
	C59.498402,290.166656 59.463470,532.333374 59.715137,774.499756 
	C59.721298,780.424805 60.289692,786.726746 60.011417,792.476379 
	C59.502121,802.999329 59.998985,813.504211 59.549316,824.002136 
	C59.383923,827.863525 61.638378,831.910583 58.035206,835.500000 
	C41.500000,835.500000 24.499310,835.419922 7.500574,835.566528 
	C4.039454,835.596313 2.535849,834.196045 2.519387,830.999878 
	C2.467026,820.833496 2.505401,810.666687 2.493188,800.500000 
	C2.491655,799.224243 3.122398,798.311218 4.000000,797.500000 
"/>
<path fill="none" opacity="1.000000" stroke="#000000" stroke-linecap="round" stroke-linejoin="round" stroke-width="10.000000"
	d="
M3927.000000,30.000000 
	C3923.421875,34.772106 3923.227783,40.222618 3922.753906,45.979744 
	C3922.121826,53.658192 3924.627686,61.910675 3919.559814,69.042526 
	C3918.953125,69.896507 3919.035400,71.331924 3919.022705,72.500244 
	C3918.969238,77.499672 3919.011963,82.500038 3918.995117,87.499985 
	C3918.986328,90.143982 3918.693604,92.713486 3921.450195,94.573807 
	C3923.261475,95.795967 3922.479736,98.133942 3922.480713,100.000008 
	C3922.504883,150.666672 3922.409424,201.333710 3922.622070,251.999481 
	C3922.646729,257.908447 3921.121094,263.623596 3921.494385,269.500366 
	C3921.832764,274.833344 3922.913330,280.093170 3922.545654,285.503113 
	C3921.910889,294.839294 3919.257568,304.050507 3920.518066,313.497589 
	C3924.933838,346.594147 3921.777832,379.835480 3922.370605,413.002319 
	C3922.960449,445.991760 3922.953369,479.010529 3922.186523,511.992706 
	C3921.990723,520.414368 3920.602051,528.943604 3920.394287,537.497437 
	C3920.306396,541.123718 3921.764648,544.179016 3922.455811,547.509216 
	C3923.398193,552.053894 3921.152100,556.496460 3921.551514,560.995422 
	C3923.029541,577.648071 3922.449463,594.329773 3922.477295,611.000061 
	C3922.546143,652.499939 3922.483643,694.000000 3922.544922,735.499939 
	C3922.548096,737.713440 3921.934814,739.603455 3921.003662,741.501831 
	C3917.046875,749.568298 3919.540283,758.165588 3919.142334,766.506775 
	C3918.990479,769.691528 3922.046631,770.733398 3926.500000,769.750000 
"/>
<path fill="none" opacity="1.000000" stroke="#000000" stroke-linecap="round" stroke-linejoin="round" stroke-width="4.000000"
	d="
M58.500000,4.000000 
	C57.348377,2.454871 55.696564,2.486256 53.999985,2.488263 
	C37.500008,2.507782 20.999996,2.496937 4.500015,2.514334 
	C3.988838,2.514873 3.477884,2.727484 2.500000,2.945123 
	C2.500000,14.328431 2.468360,25.664484 2.564667,36.999451 
	C2.571783,37.836971 3.500000,38.666668 4.000000,39.500000 
"/>
<path fill="none" opacity="1.000000" stroke="#000000" stroke-linecap="round" stroke-linejoin="round" stroke-width="9.000000"
	d="
M3927.000000,810.000000 
	C3924.512939,812.109009 3923.935791,814.910217 3923.984619,818.000244 
	C3924.047607,821.999268 3924.032715,826.000305 3923.992188,829.999939 
	C3923.940674,835.084717 3923.526611,835.493225 3918.500000,835.496155 
	C3901.500000,835.506104 3884.500000,835.500000 3867.964844,835.500000 
	C3864.361572,831.910583 3866.358643,827.874451 3866.500488,824.000000 
	C3866.817871,815.336243 3866.992920,806.591187 3866.568115,798.021423 
	C3866.316406,792.942078 3868.156982,787.457947 3865.230713,782.000000 
	C2597.500000,782.000000 1329.500000,782.000000 61.500000,782.000000 
"/>
<path fill="none" opacity="1.000000" stroke="#000000" stroke-linecap="round" stroke-linejoin="round" stroke-width="4.000000"
	d="
M3925.500000,20.500000 
	C3923.210693,16.198809 3924.005127,11.531578 3924.069336,7.000982 
	C3924.108398,4.263969 3923.333008,2.536898 3920.500000,2.527521 
	C3903.666748,2.471807 3886.833252,2.478550 3870.000244,2.563765 
	C3869.164551,2.567997 3868.333252,3.499993 3867.500000,3.999993 
"/>
<path fill="none" opacity="1.000000" stroke="#000000" stroke-linecap="round" stroke-linejoin="round" stroke-width="7.000000"
	d="
M3866.500000,4.500000 
	C3865.102539,13.460584 3867.456787,22.453377 3865.727539,31.543283 
	C3864.420654,38.410740 3866.756592,40.000000 3874.000000,40.000000 
	C3887.666748,40.000000 3901.333252,40.023258 3915.000000,39.978664 
	C3917.474854,39.970585 3919.871338,40.045406 3922.000000,41.500000 
"/>
<path fill="none" opacity="1.000000" stroke="#000000" stroke-linecap="round" stroke-linejoin="round" stroke-width="7.000000"
	d="
M3922.500000,771.500000 
	C3921.859863,778.488708 3923.671631,785.415405 3922.262939,792.551880 
	C3921.433594,796.755737 3919.568115,797.002014 3916.500000,797.001221 
	C3904.666748,796.998108 3892.833252,797.000000 3881.000000,797.000000 
	C3876.666748,797.000000 3872.333252,797.000000 3868.000000,797.000000 
"/>
<path fill="none" opacity="1.000000" stroke="#000000" stroke-linecap="round" stroke-linejoin="round" stroke-width="8.000000"
	d="
M3865.000000,32.000000 
	C3859.865479,30.839937 3854.665527,31.677254 3849.499023,31.536562 
	C3843.670166,31.377831 3837.799316,31.099895 3832.007568,31.590509 
	C3822.496338,32.396160 3812.991699,30.552910 3803.488770,31.922499 
	C3801.063232,32.272087 3798.500732,31.537048 3795.999756,31.522852 
	C3786.166992,31.467035 3776.296387,30.967390 3766.510010,31.644634 
	C3755.998535,32.372025 3745.447998,31.832455 3734.994141,31.943142 
	C3724.756104,32.051552 3714.310547,31.727224 3703.999756,31.718885 
	C3692.017090,31.709198 3679.937988,32.034184 3668.001953,31.990034 
	C3655.546631,31.943970 3642.985596,31.810913 3630.498535,31.733910 
	C3620.531006,31.672440 3610.412354,32.053223 3600.503906,31.979095 
	C3588.206543,31.887100 3575.808838,31.600077 3563.503174,31.751015 
	C3553.856934,31.869337 3544.063721,32.059475 3534.505859,31.957296 
	C3521.868408,31.822203 3509.143799,31.724001 3496.500977,31.773535 
	C3486.698730,31.811935 3476.745605,31.988865 3467.001709,31.956320 
	C3454.210938,31.913597 3441.318115,31.701431 3428.500244,31.721706 
	C3418.859619,31.736958 3409.068359,32.075317 3399.505615,31.973543 
	C3387.202393,31.842607 3374.806396,31.581556 3362.503662,31.755005 
	C3352.354004,31.898102 3342.090088,31.950813 3331.999756,31.954105 
	C3319.552490,31.958164 3306.985352,31.792667 3294.499023,31.734715 
	C3285.032715,31.690779 3275.390137,32.115852 3266.007812,31.975019 
	C3253.193848,31.782675 3240.318115,31.708521 3227.500244,31.722618 
	C3217.860107,31.733219 3208.070801,32.071842 3198.504883,31.980408 
	C3185.868164,31.859619 3173.143555,31.594810 3160.502930,31.748837 
	C3150.856934,31.866377 3141.068604,32.042290 3131.504639,31.961321 
	C3118.871094,31.854368 3106.149658,31.689541 3093.500732,31.728210 
	C3083.692383,31.758194 3073.741943,32.032932 3064.003662,31.966146 
	C3051.540527,31.880669 3038.972412,31.579512 3026.503906,31.767174 
	C3017.024170,31.909851 3007.537354,31.244253 2997.961426,32.028835 
	C2990.319336,32.654972 2982.222656,32.630833 2974.524902,32.121948 
	C2961.816162,31.281790 2949.151855,31.700790 2936.500244,31.718946 
	C2927.193848,31.732300 2917.721191,32.124012 2908.508301,31.978096 
	C2895.860107,31.777775 2883.141846,31.591543 2870.503418,31.755857 
	C2860.689697,31.883440 2850.745605,31.988861 2841.001709,31.956318 
	C2828.210938,31.913595 2815.318359,31.707502 2802.500244,31.721941 
	C2793.027344,31.732611 2783.390625,32.109806 2774.007812,31.970535 
	C2761.529297,31.785316 2748.975586,31.692417 2736.501709,31.771206 
	C2726.528809,31.834194 2716.420410,31.968401 2706.500488,31.961315 
	C2693.882080,31.952305 2681.151855,31.759817 2668.499512,31.729483 
	C2659.030518,31.706776 2649.390137,32.115856 2640.007812,31.975019 
	C2627.193848,31.782675 2614.318115,31.708521 2601.500244,31.722618 
	C2591.860107,31.733219 2582.070801,32.071838 2572.504883,31.980406 
	C2559.868164,31.859617 2547.139648,31.557198 2534.504395,31.763565 
	C2525.022949,31.918413 2515.401123,32.005798 2506.003662,31.945318 
	C2493.542236,31.865124 2480.975342,31.689734 2468.501709,31.769550 
	C2458.361084,31.834433 2448.090088,31.950809 2437.999756,31.954103 
	C2425.552490,31.958162 2412.984863,31.785818 2400.499023,31.734600 
	C2390.864990,31.695080 2381.058594,32.114052 2371.508057,31.970505 
	C2358.861816,31.780432 2346.143799,31.724001 2333.500977,31.773533 
	C2323.698730,31.811935 2313.746094,31.987436 2304.001709,31.956652 
	C2291.211182,31.916243 2278.319824,31.794142 2265.498779,31.729641 
	C2256.199951,31.682861 2246.719971,32.127846 2237.508545,31.977217 
	C2224.859375,31.770369 2212.149658,31.689539 2199.500732,31.728209 
	C2189.692383,31.758194 2179.741943,32.032928 2170.003662,31.966146 
	C2157.540527,31.880669 2144.976318,31.617083 2132.502686,31.752535 
	C2122.858154,31.857265 2113.063721,32.059475 2103.505859,31.957296 
	C2090.868408,31.822203 2078.143799,31.724001 2065.500977,31.773535 
	C2055.698730,31.811935 2045.745605,31.988853 2036.001831,31.956318 
	C2023.211060,31.913605 2010.318481,31.707506 1997.500244,31.721941 
	C1988.027344,31.732609 1978.390747,32.109806 1969.007812,31.970531 
	C1956.529297,31.785313 1943.985474,31.810915 1931.498535,31.733906 
	C1921.531250,31.672432 1911.411377,32.062263 1901.504150,31.983046 
	C1888.870361,31.882030 1876.152710,31.771889 1863.499268,31.727856 
	C1854.198364,31.695492 1844.721069,32.124012 1835.508301,31.978094 
	C1822.859985,31.777773 1810.141724,31.591541 1797.503296,31.755854 
	C1787.689819,31.883436 1777.745605,31.988853 1768.001831,31.956318 
	C1755.211060,31.913607 1742.318481,31.707506 1729.500244,31.721941 
	C1720.027344,31.732609 1710.390747,32.109806 1701.007812,31.970531 
	C1688.529297,31.785313 1675.975586,31.692423 1663.501709,31.771204 
	C1653.529053,31.834188 1643.420288,31.968401 1633.500366,31.961315 
	C1620.882080,31.952303 1608.151978,31.759821 1595.499390,31.729483 
	C1586.030518,31.706774 1576.390259,32.115845 1567.007935,31.975018 
	C1554.193970,31.782681 1541.318237,31.708523 1528.500244,31.722616 
	C1518.860107,31.733213 1509.070679,32.071838 1499.505005,31.980406 
	C1486.868042,31.859617 1474.139771,31.557201 1461.504272,31.763567 
	C1452.023071,31.918415 1442.399902,32.014099 1433.003784,31.949593 
	C1420.206299,31.861732 1407.316772,31.687794 1394.500732,31.727140 
	C1384.692261,31.757252 1374.741943,32.032932 1365.003662,31.966146 
	C1352.540527,31.880669 1339.976318,31.617081 1327.502686,31.752533 
	C1317.858154,31.857264 1308.063721,32.059483 1298.505859,31.957298 
	C1285.868286,31.822193 1273.143921,31.724003 1260.501099,31.773537 
	C1250.698853,31.811937 1240.745972,31.987436 1231.001709,31.956654 
	C1218.211304,31.916243 1205.319946,31.794144 1192.498901,31.729639 
	C1183.199829,31.682858 1173.719971,32.127846 1164.508545,31.977217 
	C1151.859375,31.770369 1139.149658,31.689541 1126.500732,31.728210 
	C1116.692261,31.758196 1106.741943,32.032928 1097.003662,31.966146 
	C1084.540527,31.880669 1071.976318,31.617079 1059.502686,31.752529 
	C1049.858154,31.857260 1040.063721,32.059483 1030.505859,31.957298 
	C1017.868347,31.822193 1005.143860,31.723999 992.501099,31.773535 
	C982.698792,31.811939 972.745605,31.988853 963.001831,31.956318 
	C950.211121,31.913605 937.318420,31.707504 924.500244,31.721941 
	C915.027283,31.732609 905.390686,32.109802 896.007874,31.970533 
	C883.529297,31.785318 870.975464,31.692419 858.501709,31.771204 
	C848.528992,31.834188 838.420349,31.968395 828.500366,31.961313 
	C815.882141,31.952309 803.152588,31.771889 790.499207,31.727856 
	C781.198303,31.695494 771.721130,32.124016 762.508240,31.978098 
	C749.859924,31.777771 737.141785,31.591536 724.503296,31.755850 
	C714.689758,31.883436 704.741211,32.004398 695.002930,31.952660 
	C682.208801,31.884689 669.319214,31.797899 656.498840,31.734110 
	C646.865723,31.686184 637.068481,32.075314 627.505615,31.973541 
	C615.202271,31.842609 602.806458,31.581560 590.503601,31.755001 
	C580.354004,31.898087 570.089966,31.950825 559.999817,31.954103 
	C547.552429,31.958145 534.985229,31.792664 522.498901,31.734715 
	C513.032715,31.690781 503.390259,32.115849 494.007874,31.975019 
	C481.193939,31.782679 468.318207,31.708519 455.500244,31.722616 
	C445.860016,31.733217 436.070770,32.071835 426.504974,31.980408 
	C413.868073,31.859627 401.143463,31.594803 388.503021,31.748838 
	C378.856842,31.866385 369.068726,32.042290 359.504547,31.961321 
	C346.871002,31.854370 334.149628,31.689539 321.500702,31.728209 
	C311.692291,31.758194 301.741943,32.032932 292.003662,31.966146 
	C279.540619,31.880669 266.976379,31.617081 254.502747,31.752535 
	C244.858078,31.857267 235.063721,32.059475 225.505798,31.957296 
	C212.868378,31.822201 200.143860,31.723999 187.501068,31.773537 
	C177.698792,31.811941 167.745987,31.987438 158.001724,31.956654 
	C145.211288,31.916245 132.319962,31.794146 119.498848,31.729641 
	C110.199860,31.682858 100.821686,31.673122 91.481934,32.039616 
	C81.438194,32.433727 71.167557,31.806215 61.000000,31.500000 
"/>
</svg>