<svg version="1.1" id="Layer_1" xmlns="http://www.w3.org/2000/svg" xmlns:xlink="http://www.w3.org/1999/xlink" x="0px" y="0px"
	 width="100%" viewBox="0 0 3930 835" enable-background="new 0 0 3930 835" xml:space="preserve">
<path fill="#050505" opacity="1.000000" stroke="none" 
	d="
M1.000000,816.000000 
	C1.000000,809.645569 1.000000,803.291199 1.387725,796.420776 
	C5.504170,796.165100 6.630168,794.783447 5.073811,791.180481 
	C3.353652,787.198364 0.988254,783.282349 4.816085,778.874878 
	C5.753123,777.796021 5.516523,774.484680 4.529159,773.165588 
	C0.977127,768.419800 3.641631,766.777893 7.905712,765.465515 
	C7.905712,759.625610 8.193710,753.780640 7.779235,747.985962 
	C7.583994,745.256348 8.118198,741.744019 4.221987,740.243835 
	C3.525593,739.975647 3.404861,737.391479 3.556824,735.932739 
	C3.787017,733.722961 4.923818,731.563049 4.927494,729.380676 
	C5.012253,679.052917 5.015933,628.724792 4.928269,578.397034 
	C4.924512,576.240173 3.660113,574.109314 3.441436,571.920593 
	C3.297600,570.480957 3.475510,568.441284 4.378037,567.565430 
	C7.890467,564.156860 7.873498,560.962952 4.324269,557.241821 
	C3.403784,556.276733 3.155523,554.242310 3.311188,552.774658 
	C3.575848,550.279297 4.921454,547.844543 4.923985,545.383362 
	C5.012909,458.892609 5.011755,372.401825 4.928224,285.911072 
	C4.925820,283.423218 3.617209,280.955475 3.443423,278.442017 
	C3.334541,276.867249 3.725999,274.765839 4.735982,273.698303 
	C7.729630,270.533905 7.645901,266.547180 4.558160,263.338531 
	C3.573248,262.315033 3.370565,260.150146 3.484456,258.555725 
	C3.628483,256.539368 4.926348,254.573074 4.929745,252.583832 
	C5.015965,202.089355 5.001806,151.594696 4.976918,101.100075 
	C4.976199,99.641380 5.173649,97.806747 4.416503,96.788536 
	C0.917725,92.083321 3.627172,90.416916 7.483788,89.551720 
	C7.483788,82.922417 8.373361,76.452797 7.222695,70.369064 
	C6.164283,64.773087 1.814476,59.759335 4.932001,53.572235 
	C0.901858,49.716732 3.376444,45.831596 4.731381,41.844471 
	C5.282843,40.221706 5.123330,38.357334 5.307170,36.390305 
	C3.604167,36.235981 2.302083,36.117992 1.000000,36.000000 
	C1.000000,29.645601 1.000000,23.291204 1.425848,16.522509 
	C3.060382,15.955516 4.269068,15.802820 5.333718,15.668322 
	C5.569266,10.482685 5.784633,5.741343 6.000000,1.000000 
	C26.687561,1.000000 47.375122,1.000000 68.589157,1.446436 
	C69.115639,3.838403 69.115639,5.783935 69.115639,7.853197 
	C83.428864,7.853197 97.216911,7.978586 110.997627,7.717137 
	C113.049454,7.678209 115.072395,5.830026 117.098320,4.798456 
	C118.898331,3.881917 120.661934,2.184281 122.479568,2.131186 
	C131.804138,1.858807 141.142151,1.933173 150.472336,2.081999 
	C151.963028,2.105777 154.220276,2.701900 154.782455,3.751503 
	C157.018845,7.927005 160.521500,8.086729 164.502594,7.898006 
	C168.659576,7.700945 172.841385,7.693045 176.996964,7.904516 
	C180.384766,8.076916 182.982269,7.475685 185.046280,4.341033 
	C185.911530,3.026981 188.346573,2.152792 190.092270,2.111653 
	C199.253098,1.895769 208.422913,1.937837 217.586502,2.084476 
	C219.066315,2.108157 221.304626,2.689639 221.867203,3.729910 
	C224.233444,8.105269 227.998657,8.043927 232.080246,7.890498 
	C236.407196,7.727845 240.763382,7.601995 245.071640,7.926584 
	C248.281387,8.168411 250.234161,7.086368 252.120392,4.550896 
	C253.110992,3.219351 255.344482,2.160985 257.045502,2.118034 
	C266.205536,1.886745 275.375702,1.941808 284.539398,2.086452 
	C286.037628,2.110100 288.304565,2.640073 288.876129,3.675661 
	C291.396210,8.241532 295.398560,8.029568 299.624817,7.882617 
	C303.786072,7.737925 307.970337,7.644424 312.118164,7.921802 
	C315.267822,8.132427 317.305542,7.151742 319.190063,4.577966 
	C320.170807,3.238506 322.414062,2.164209 324.115875,2.121560 
	C333.442566,1.887825 342.779327,1.939149 352.109650,2.084590 
	C353.597382,2.107781 355.911102,2.696788 356.405212,3.719132 
	C358.649628,8.362561 362.558960,7.975213 366.574310,7.875481 
	C370.571503,7.776199 374.581024,7.700703 378.570374,7.904081 
	C381.927429,8.075222 384.563293,7.558354 386.647156,4.425863 
	C387.534912,3.091383 389.946167,2.153157 391.691742,2.109896 
	C400.852051,1.882877 410.021973,1.929376 419.185699,2.068406 
	C420.687286,2.091188 423.027802,2.630546 423.523743,3.644051 
	C425.909515,8.519481 430.076141,7.945419 434.240112,7.869875 
	C438.405090,7.794313 442.576202,7.746447 446.737549,7.890937 
	C449.546722,7.988478 451.721771,7.698012 453.465485,4.888882 
	C454.385223,3.407133 456.911407,2.191420 458.751282,2.135376 
	C467.908722,1.856430 477.080170,1.932170 486.243866,2.069623 
	C487.752899,2.092257 490.083771,2.615117 490.606781,3.637381 
	C493.045715,8.404690 497.161011,7.968899 501.351746,7.874218 
	C505.515961,7.780136 509.689392,7.724283 513.848572,7.897323 
	C516.913269,8.024831 519.129211,7.329501 520.915710,4.488421 
	C521.749817,3.161855 524.110779,2.157484 525.806458,2.116626 
	C535.133667,1.891889 544.470276,1.937512 553.800476,2.086026 
	C555.275391,2.109503 557.514587,2.718096 558.063843,3.760459 
	C560.283142,7.972157 563.807861,8.087206 567.781006,7.896237 
	C571.771423,7.704437 575.787292,7.689894 579.775391,7.905794 
	C583.480042,8.106352 586.519409,7.596140 588.673157,4.032023 
	C589.344849,2.920428 591.415344,2.122144 592.861633,2.096729 
	C602.357849,1.929849 611.859497,1.950376 621.356750,2.088373 
	C622.692627,2.107784 624.768494,2.749717 625.215088,3.705034 
	C627.403870,8.386900 631.358887,7.959674 635.364685,7.878154 
	C639.695923,7.790009 644.043335,7.648703 648.358826,7.922909 
	C651.503235,8.122707 653.564575,7.212735 655.431763,4.587655 
	C656.385071,3.247379 658.632996,2.165184 660.324646,2.122924 
	C669.651367,1.889931 678.988403,1.933711 688.318115,2.098435 
	C689.779724,2.124241 691.928833,2.856102 692.545776,3.947712 
	C694.751709,7.851027 698.112732,8.023665 701.891724,7.887900 
	C706.052673,7.738411 710.230469,7.703744 714.387329,7.902524 
	C717.891296,8.070086 720.770386,7.699310 722.824402,4.232457 
	C723.545471,3.015498 725.815857,2.138010 727.399292,2.105426 
	C736.894592,1.910034 746.396729,1.945120 755.894165,2.074338 
	C757.220703,2.092385 759.240845,2.687566 759.733215,3.639639 
	C762.008667,8.039534 765.749084,8.087180 769.857605,7.891815 
	C773.682007,7.709957 777.528870,7.709026 781.352905,7.895047 
	C785.020630,8.073465 788.142456,7.802354 790.312500,4.093742 
	C791.013916,2.894905 793.374207,2.127839 794.994629,2.094763 
	C804.156799,1.907750 813.325684,1.933789 822.489563,2.073144 
	C824.003357,2.096166 826.411255,2.630121 826.856812,3.623017 
	C829.133484,8.697497 833.430725,7.838229 837.505798,7.851872 
	C841.505432,7.865263 845.515015,7.681216 849.501892,7.907600 
	C852.895142,8.100277 855.428406,7.488649 857.370605,4.244935 
	C858.140076,2.959894 860.655334,2.153933 862.398621,2.113262 
	C871.393005,1.903433 880.396545,1.925349 889.392761,2.090803 
	C891.015259,2.120643 893.370300,2.727576 894.091614,3.879372 
	C896.386536,7.544156 899.484680,8.164730 903.383728,7.911652 
	C907.366272,7.653155 911.384521,7.736996 915.377380,7.903416 
	C919.153076,8.060780 922.478333,7.930430 924.687866,3.979747 
	C925.340759,2.812481 927.760559,2.126517 929.387634,2.094977 
	C938.550171,1.917369 947.719421,1.921316 956.882446,2.083617 
	C958.530334,2.112804 961.059204,2.708325 961.636963,3.834573 
	C963.744324,7.942647 967.099976,8.005950 970.886414,7.877738 
	C975.380798,7.725555 979.896729,7.648095 984.379883,7.921497 
	C987.518066,8.112877 989.556396,7.131365 991.535278,4.651096 
	C992.661804,3.239151 995.058777,2.177951 996.916870,2.125158 
	C1005.908875,1.869665 1014.913818,1.922196 1023.909973,2.089169 
	C1025.548828,2.119587 1028.027222,2.724430 1028.643433,3.862533 
	C1030.932129,8.089625 1034.505615,8.018058 1038.419678,7.889105 
	C1043.081177,7.735537 1047.781616,8.152085 1052.403442,7.695903 
	C1054.518188,7.487189 1056.487061,5.785787 1058.518311,4.753878 
	C1060.316650,3.840311 1062.088135,2.175305 1063.908936,2.122039 
	C1073.066895,1.854122 1082.238281,1.932702 1091.401733,2.083504 
	C1092.897217,2.108117 1095.151367,2.675434 1095.728394,3.722754 
	C1098.115479,8.055498 1101.854370,8.053162 1105.948364,7.892064 
	C1110.274658,7.721828 1114.625000,7.655688 1118.941895,7.919637 
	C1122.090210,8.112136 1124.141724,7.212767 1125.966675,4.518038 
	C1126.870972,3.182839 1129.190674,2.163526 1130.897583,2.121486 
	C1140.224609,1.891765 1149.561279,1.935465 1158.891479,2.084406 
	C1160.389648,2.108320 1162.725098,2.733188 1163.214722,3.769416 
	C1165.451538,8.504201 1169.462402,7.898651 1173.417725,7.861046 
	C1177.416992,7.823024 1181.432129,7.637304 1185.411987,7.917698 
	C1188.842285,8.159373 1191.326050,7.341384 1193.463623,4.427597 
	C1194.427856,3.113268 1196.722900,2.158181 1198.440186,2.116368 
	C1207.600708,1.893323 1216.770508,1.939644 1225.934204,2.081183 
	C1227.439697,2.104434 1229.821533,2.658776 1230.276733,3.659622 
	C1232.435181,8.406570 1236.382690,7.938149 1240.365479,7.869015 
	C1244.697144,7.793824 1249.040039,7.656175 1253.360229,7.883577 
	C1256.450684,8.046247 1258.570068,7.265778 1260.498901,4.622708 
	C1261.536133,3.201173 1264.018921,2.181121 1265.882568,2.127113 
	C1274.707886,1.871372 1283.545898,1.932047 1292.376099,2.079169 
	C1294.066528,2.107335 1296.670654,2.528903 1297.264893,3.627833 
	C1299.912231,8.524117 1304.260498,7.864625 1308.525513,7.855656 
	C1312.358521,7.847595 1316.197632,7.720972 1320.022827,7.894632 
	C1323.197266,8.038756 1325.716919,7.658433 1327.592163,4.499577 
	C1328.382568,3.168353 1330.797974,2.160933 1332.501831,2.119397 
	C1341.828857,1.892013 1351.165405,1.940018 1360.495850,2.081382 
	C1361.993896,2.104079 1364.314941,2.657043 1364.823853,3.678356 
	C1367.098267,8.242664 1370.953125,8.007972 1375.004639,7.879299 
	C1378.833740,7.757687 1382.678101,7.696629 1386.500610,7.896679 
	C1390.210205,8.090820 1393.275391,7.590467 1395.422485,3.986695 
	C1396.081299,2.880855 1398.191772,2.121598 1399.652954,2.096334 
	C1409.149292,1.932146 1418.650391,1.967799 1428.148438,2.073016 
	C1429.363281,2.086474 1431.275146,2.547456 1431.664917,3.369571 
	C1434.151367,8.615020 1438.683472,7.978834 1443.158081,7.873460 
	C1447.155518,7.779324 1451.171509,7.644102 1455.151978,7.920278 
	C1458.282227,8.137464 1460.342773,7.201181 1462.224854,4.622809 
	C1463.203247,3.282315 1465.410889,2.168468 1467.093872,2.124302 
	C1476.253540,1.883952 1485.423950,1.938702 1494.587646,2.077164 
	C1496.095703,2.099948 1498.353027,2.597425 1498.957520,3.636026 
	C1501.527588,8.051519 1505.425903,8.091900 1509.707642,7.895138 
	C1513.865112,7.704072 1518.055054,7.626690 1522.199341,7.929574 
	C1525.374878,8.161672 1527.405396,7.110363 1529.334839,4.622482 
	C1530.362183,3.297958 1532.506836,2.167785 1534.177002,2.125379 
	C1543.503540,1.888547 1552.840210,1.943244 1562.170898,2.078945 
	C1563.682007,2.100921 1566.038086,2.602551 1566.536743,3.609030 
	C1568.786987,8.151992 1572.586792,8.044192 1576.667969,7.882960 
	C1580.495361,7.731761 1584.343384,7.638611 1588.161987,7.863491 
	C1591.872681,8.082008 1594.916382,7.673758 1597.112305,4.054049 
	C1597.830566,2.869827 1600.155029,2.134037 1601.762817,2.102177 
	C1610.925171,1.920622 1620.093994,1.944447 1629.257690,2.082659 
	C1630.766479,2.105413 1633.144165,2.625673 1633.612183,3.623479 
	C1635.816040,8.321209 1639.765503,7.929876 1643.772461,7.867536 
	C1647.771240,7.805323 1651.777344,7.720368 1655.769653,7.893552 
	C1659.262207,8.045057 1662.151123,7.752425 1664.169067,4.155804 
	C1664.877563,2.892931 1667.471069,2.142160 1669.224976,2.103072 
	C1678.219727,1.902606 1687.223145,1.921355 1696.219116,2.092619 
	C1697.838989,2.123458 1700.183472,2.758399 1700.911255,3.918608 
	C1703.354248,7.813993 1706.753418,8.142135 1710.759155,7.908217 
	C1714.911377,7.665738 1719.093628,7.725948 1723.253418,7.891625 
	C1726.582397,8.024208 1729.250977,7.657942 1731.155396,4.259376 
	C1731.880615,2.965233 1734.468994,2.138073 1736.230591,2.098555 
	C1745.391724,1.893027 1754.561890,1.921564 1763.724487,2.097505 
	C1765.358521,2.128879 1767.861450,2.789292 1768.435425,3.928728 
	C1770.517822,8.063534 1773.907959,7.983123 1777.624023,7.879024 
	C1782.120117,7.753078 1786.632324,7.670336 1791.118652,7.915701 
	C1794.219727,8.085298 1796.329834,7.218684 1798.312622,4.696056 
	C1799.429810,3.274883 1801.823364,2.182058 1803.676270,2.128688 
	C1812.667969,1.869679 1821.672974,1.925049 1830.669189,2.092211 
	C1832.318726,2.122861 1834.827393,2.720560 1835.429688,3.856843 
	C1837.554321,7.864842 1840.841064,8.023373 1844.622192,7.893847 
	C1849.449585,7.728486 1854.315308,8.159792 1859.106567,7.712276 
	C1861.213745,7.515458 1863.178223,5.785783 1865.206299,4.749856 
	C1866.992310,3.837566 1868.755005,2.185128 1870.565308,2.132035 
	C1879.723267,1.863437 1888.894653,1.940791 1898.058350,2.080768 
	C1899.562622,2.103745 1901.896240,2.618237 1902.406006,3.630897 
	C1904.823242,8.431832 1908.942993,7.977875 1913.135376,7.874927 
	C1917.299316,7.772678 1921.475830,7.678215 1925.630859,7.890729 
	C1928.722046,8.048834 1930.832153,7.264561 1932.706299,4.539279 
	C1933.676636,3.128223 1936.233887,2.176266 1938.104980,2.124308 
	C1947.097412,1.874575 1956.101807,1.919972 1965.098511,2.071033 
	C1966.758423,2.098906 1969.356812,2.633573 1969.887573,3.727459 
	C1972.161133,8.412398 1976.109619,7.907926 1980.077271,7.861542 
	C1983.909790,7.816739 1987.755615,7.661491 1991.572754,7.908156 
	C1995.302124,8.149158 1998.280396,7.603198 2000.491089,4.064250 
	C2001.237793,2.868958 2003.563354,2.131470 2005.185669,2.098999 
	C2014.347900,1.915602 2023.516968,1.937217 2032.680542,2.083789 
	C2034.166626,2.107559 2036.405151,2.683655 2036.979126,3.728106 
	C2039.227661,7.819575 2042.636841,8.142997 2046.662720,7.909008 
	C2050.814941,7.667674 2054.997314,7.735963 2059.156982,7.903603 
	C2062.635498,8.043786 2065.566406,7.762578 2067.572998,4.201779 
	C2068.253418,2.994371 2070.567627,2.138301 2072.155762,2.105515 
	C2081.484375,1.912921 2090.819824,1.950200 2100.150635,2.080171 
	C2101.487549,2.098795 2103.484131,2.658635 2104.026855,3.617791 
	C2106.514893,8.014784 2110.360352,8.130213 2114.641602,7.889852 
	C2118.628662,7.666028 2122.654785,7.626060 2126.632812,7.921140 
	C2130.089355,8.177515 2132.577148,7.399899 2134.563232,4.307054 
	C2135.348389,3.084356 2137.502686,2.141575 2139.055420,2.109136 
	C2148.550049,1.910769 2158.052734,1.936844 2167.549316,2.089008 
	C2168.999023,2.112238 2171.200928,2.784839 2171.736572,3.831626 
	C2173.813477,7.891933 2177.179688,8.026013 2180.970703,7.889017 
	C2185.298096,7.732655 2189.648682,7.644566 2193.964355,7.918261 
	C2197.433594,8.138282 2199.889893,7.236705 2202.009277,4.298466 
	C2202.941406,3.006264 2205.283691,2.148437 2207.009033,2.108781 
	C2216.170166,1.898231 2225.339844,1.936376 2234.503418,2.085461 
	C2235.965088,2.109242 2238.186279,2.726559 2238.727539,3.763317 
	C2240.939209,7.997844 2244.473633,8.096357 2248.452148,7.895620 
	C2252.442139,7.694295 2256.459717,7.655292 2260.446045,7.882771 
	C2264.169189,8.095243 2267.178467,7.627135 2269.326172,3.981049 
	C2270.015869,2.810065 2272.386230,2.119503 2274.004395,2.088976 
	C2283.166748,1.916114 2292.335693,1.938918 2301.499023,2.085427 
	C2302.993408,2.109318 2305.260742,2.654693 2305.821777,3.689923 
	C2308.202637,8.084897 2312.017578,7.995122 2316.094482,7.881232 
	C2320.590576,7.755641 2325.098389,7.721602 2329.590576,7.902212 
	C2332.320557,8.011967 2334.055176,7.166645 2335.809814,4.926606 
	C2337.009033,3.395105 2339.563965,2.202500 2341.554688,2.137915 
	C2350.544434,1.846252 2359.550537,1.926864 2368.547119,2.085981 
	C2370.210449,2.115398 2372.797363,2.659614 2373.344971,3.764954 
	C2375.513428,8.145465 2379.106689,8.020596 2383.009277,7.883735 
	C2387.004395,7.743635 2391.019287,7.656297 2395.003906,7.900533 
	C2398.749268,8.130116 2401.693115,7.490734 2403.908447,3.997870 
	C2404.656494,2.818113 2406.980957,2.127405 2408.602051,2.096111 
	C2417.764648,1.919230 2426.934082,1.915132 2436.096436,2.100878 
	C2437.702881,2.133448 2440.147705,2.923748 2440.720215,4.092157 
	C2442.579346,7.884217 2445.595215,7.963792 2449.022217,7.864461 
	C2453.018555,7.748631 2457.025879,7.723650 2461.019043,7.888041 
	C2465.121338,8.056919 2468.893555,8.076280 2471.266846,3.696697 
	C2471.825195,2.666440 2474.059326,2.105205 2475.534180,2.082127 
	C2484.697754,1.938731 2493.866455,1.922702 2503.029297,2.092065 
	C2504.647461,2.121976 2507.017822,2.759409 2507.712402,3.914933 
	C2509.993164,7.708943 2513.224365,8.090755 2517.077148,7.903360 
	C2521.399902,7.693107 2525.753906,7.647495 2530.069580,7.921405 
	C2533.538574,8.141581 2536.076660,7.393246 2537.967529,4.198268 
	C2538.634521,3.071585 2540.601318,2.134008 2541.992432,2.109155 
	C2551.821533,1.933551 2561.656006,1.969564 2571.487061,2.083460 
	C2572.661865,2.097071 2574.504639,2.679692 2574.884521,3.519944 
	C2577.097656,8.413601 2581.212402,8.022068 2585.415771,7.881638 
	C2589.411133,7.748147 2593.427979,7.637404 2597.409668,7.905412 
	C2600.829590,8.135633 2603.292236,7.353388 2605.364746,4.350423 
	C2606.270996,3.036965 2608.663086,2.154821 2610.405518,2.112301 
	C2619.399414,1.892845 2628.403320,1.921062 2637.399414,2.088158 
	C2639.039062,2.118612 2641.503906,2.726268 2642.136719,3.870229 
	C2644.444580,8.041950 2647.962891,8.070265 2651.906250,7.894737 
	C2656.064209,7.709641 2660.251465,7.640595 2664.398926,7.919249 
	C2667.838867,8.150361 2670.322998,7.337783 2672.450928,4.396549 
	C2673.400391,3.084356 2675.719482,2.155574 2677.443359,2.113022 
	C2686.437256,1.890998 2695.441162,1.925671 2704.437500,2.085901 
	C2706.100342,2.115516 2708.635498,2.651765 2709.242432,3.776934 
	C2711.655518,8.251314 2715.510742,7.982540 2719.547363,7.874493 
	C2723.377930,7.771972 2727.224854,7.654424 2731.042480,7.894290 
	C2734.748291,8.127148 2737.738525,7.697780 2739.843018,4.016011 
	C2740.517090,2.837495 2742.903076,2.116160 2744.522705,2.086062 
	C2753.851807,1.912681 2763.187500,1.934971 2772.517578,2.091624 
	C2773.986084,2.116280 2776.199219,2.757994 2776.760498,3.811332 
	C2778.873047,7.774704 2782.139404,8.056933 2785.977783,7.875174 
	C2790.300537,7.670483 2794.652100,7.658188 2798.970703,7.912753 
	C2802.399658,8.114882 2804.943115,7.439444 2807.008301,4.327971 
	C2807.878174,3.017618 2810.307129,2.151982 2812.051514,2.111276 
	C2821.212402,1.897483 2830.382812,1.916500 2839.544922,2.104994 
	C2841.121582,2.137430 2843.413330,2.950410 2844.097656,4.138319 
	C2846.111328,7.634655 2848.965576,8.073757 2852.495361,7.901588 
	C2856.651855,7.698856 2860.829590,7.746496 2864.991211,7.885624 
	C2868.767090,8.011861 2872.123291,7.856219 2874.418701,3.992940 
	C2875.117920,2.816023 2877.505127,2.134622 2879.136475,2.102833 
	C2888.299072,1.924289 2897.467773,1.939365 2906.631348,2.086756 
	C2908.107178,2.110496 2910.306641,2.711378 2910.904297,3.764482 
	C2913.334961,8.049486 2917.084717,8.055030 2921.178467,7.890173 
	C2925.338135,7.722658 2929.519043,7.679121 2933.673096,7.902882 
	C2936.873779,8.075289 2939.284424,7.603508 2941.147949,4.510207 
	C2941.952637,3.174827 2944.365723,2.168617 2946.076172,2.125707 
	C2955.403076,1.891722 2964.740234,1.909207 2974.069336,2.088203 
	C2975.688965,2.119278 2978.156494,2.909045 2978.733398,4.084097 
	C2980.595703,7.877783 2983.616699,7.965327 2987.045410,7.878514 
	C2991.375488,7.768869 2995.723877,7.644237 3000.039795,7.916829 
	C3003.791504,8.153783 3006.722168,7.530964 3008.956055,4.071661 
	C3009.722900,2.884170 3011.985107,2.130890 3013.582520,2.099045 
	C3022.744873,1.916388 3031.913574,1.942306 3041.077637,2.078224 
	C3042.588379,2.100633 3044.969727,2.599015 3045.439209,3.591622 
	C3047.643066,8.249527 3051.505859,8.017490 3055.577637,7.880924 
	C3059.406250,7.752501 3063.254150,7.667121 3067.072510,7.903512 
	C3070.794678,8.133943 3073.794434,7.605088 3076.020508,4.076334 
	C3076.773438,2.882418 3079.073975,2.132237 3080.685547,2.100110 
	C3089.847900,1.917460 3099.016602,1.944195 3108.180664,2.084410 
	C3109.673828,2.107257 3111.930420,2.617181 3112.503174,3.643962 
	C3114.908203,7.958242 3118.629883,8.064341 3122.777832,7.891247 
	C3127.269775,7.703822 3131.808105,8.170589 3136.260986,7.714258 
	C3138.373047,7.497806 3140.334229,5.800237 3142.361816,4.769708 
	C3144.165283,3.852953 3145.944824,2.188362 3147.771973,2.135553 
	C3157.096680,1.866051 3166.433838,1.953114 3175.764648,2.079937 
	C3177.087891,2.097923 3179.091553,2.643003 3179.598145,3.582011 
	C3182.052490,8.128806 3186.029785,8.064876 3190.288574,7.890304 
	C3194.281494,7.726639 3198.298096,7.666393 3202.282471,7.913447 
	C3205.750000,8.128461 3208.253418,7.312807 3210.183105,4.129999 
	C3210.904541,2.939940 3213.166016,2.134634 3214.744141,2.103217 
	C3224.072998,1.917539 3233.408691,1.941997 3242.739258,2.081263 
	C3244.237793,2.103632 3246.550293,2.635715 3247.070801,3.655214 
	C3249.347412,8.112391 3253.100586,8.043571 3257.170898,7.888297 
	C3261.331299,7.729603 3265.512695,7.670482 3269.665527,7.905649 
	C3272.865723,8.086877 3275.238037,7.495178 3277.291748,4.659008 
	C3278.328613,3.227188 3280.814941,2.178725 3282.679443,2.125371 
	C3291.671143,1.868060 3300.676270,1.920738 3309.672363,2.087122 
	C3311.324707,2.117682 3313.753174,2.700304 3314.453613,3.857405 
	C3316.734131,7.622936 3319.933594,8.089704 3323.792725,7.900746 
	C3327.949219,7.697253 3332.131348,7.692102 3336.287109,7.902433 
	C3339.800293,8.080262 3342.658203,7.663248 3344.740479,4.252276 
	C3345.485352,3.032207 3347.722656,2.140347 3349.299805,2.107129 
	C3358.628174,1.910632 3367.964600,1.929507 3377.294189,2.095267 
	C3378.766846,2.121431 3380.920654,2.858757 3381.554688,3.960540 
	C3383.794434,7.853164 3387.161377,8.038127 3390.962646,7.890219 
	C3395.122559,7.728350 3399.299072,7.721411 3403.458740,7.885236 
	C3406.941162,8.022388 3409.881348,7.765519 3411.856689,4.154704 
	C3412.508545,2.963149 3414.842773,2.134431 3416.427490,2.102419 
	C3425.756104,1.913965 3435.091797,1.940492 3444.422363,2.080568 
	C3445.913818,2.102958 3448.198242,2.640290 3448.735352,3.664023 
	C3451.062012,8.099024 3454.853760,8.038374 3458.932861,7.890723 
	C3462.760986,7.752161 3466.606934,7.690533 3470.428223,7.901021 
	C3474.118164,8.104263 3477.236572,7.794319 3479.345703,4.072113 
	C3479.979736,2.953050 3482.089355,2.127319 3483.539551,2.101408 
	C3493.035645,1.931743 3502.537598,1.939117 3512.033936,2.106069 
	C3513.474121,2.131388 3515.519775,2.894078 3516.209229,3.991673 
	C3518.506348,7.649538 3521.707275,8.109962 3525.554932,7.907876 
	C3530.042236,7.672174 3534.558350,7.696381 3539.048584,7.902917 
	C3542.117432,8.044067 3544.255127,7.331587 3546.142334,4.602838 
	C3547.132812,3.170854 3549.695312,2.175725 3551.579590,2.122988 
	C3560.571777,1.871309 3569.576904,1.917456 3578.572510,2.096902 
	C3580.176514,2.128904 3582.438965,2.836675 3583.222168,4.014083 
	C3585.590088,7.574411 3588.708008,8.145563 3592.574463,7.913603 
	C3596.891846,7.654577 3601.251709,7.632893 3605.565186,7.923538 
	C3609.012207,8.155796 3611.454102,7.347548 3613.532227,4.356131 
	C3614.443115,3.044840 3616.815430,2.150707 3618.549316,2.109025 
	C3627.710205,1.888803 3636.880371,1.909005 3646.042969,2.082404 
	C3647.669922,2.113188 3650.147705,2.817720 3650.732666,3.971608 
	C3652.730957,7.912210 3655.892090,8.045203 3659.538330,7.893520 
	C3663.531250,7.727432 3667.549805,7.647325 3671.531982,7.911071 
	C3675.590332,8.179873 3678.936035,7.637844 3681.334229,3.793777 
	C3681.998535,2.728767 3684.127197,2.114125 3685.597168,2.090379 
	C3694.927246,1.939672 3704.262451,1.937167 3713.592529,2.090348 
	C3715.049072,2.114261 3717.192627,2.775289 3717.810303,3.841669 
	C3720.138184,7.860892 3723.585938,8.147580 3727.590088,7.903059 
	C3731.409180,7.669855 3735.257080,7.738973 3739.085205,7.875205 
	C3742.851318,8.009227 3746.196045,7.964005 3748.363281,3.873444 
	C3749.002197,2.667852 3751.771729,2.125353 3753.582520,2.086144 
	C3761.911377,1.905814 3770.250244,2.163404 3778.576904,1.941157 
	C3782.059814,1.848192 3784.511230,2.742635 3786.671143,5.610414 
	C3787.635498,6.890217 3789.968506,7.741028 3791.690186,7.757665 
	C3816.347900,7.995990 3841.007568,8.063076 3865.666748,8.147663 
	C3866.763672,8.151425 3867.861084,7.929228 3869.000000,7.807835 
	C3869.000000,5.329157 3869.000000,3.164579 3869.000000,1.000000 
	C3889.657227,1.000000 3910.314453,1.000000 3930.954834,1.000000 
	C3930.954834,279.333344 3930.954834,557.666687 3930.954834,836.000000 
	C3910.585693,836.000000 3890.261475,836.000000 3869.463867,835.583496 
	C3867.196777,834.808167 3865.403564,834.134827 3863.610107,834.134766 
	C2601.267334,834.090149 1338.924438,834.090759 76.581665,834.091248 
	C74.581978,834.091248 72.565315,833.951477 70.592903,834.184448 
	C69.998749,834.254639 69.527542,835.365723 69.000000,836.000000 
	C48.312439,836.000000 27.624876,836.000000 6.353293,835.543213 
	C5.769271,828.864929 5.769271,822.643433 5.769271,816.000000 
	C3.857123,816.000000 2.428561,816.000000 1.000000,816.000000 
M106.000809,795.373779 
	C106.000809,795.373779 105.979126,795.853638 105.046707,795.919189 
	C93.128860,795.919189 81.211014,795.919189 69.372498,795.919189 
	C69.372498,806.387939 69.372498,816.130188 69.372498,825.712036 
	C1336.057373,825.712036 2602.382568,825.712036 3868.988281,825.712036 
	C3868.988281,817.872314 3869.064209,810.388977 3868.944580,802.908691 
	C3868.906738,800.528503 3868.349365,798.156616 3868.016846,795.522827 
	C3868.016846,795.522827 3868.018066,795.246765 3868.741211,794.876953 
	C3872.995117,792.388123 3870.344238,788.433777 3870.930420,784.192444 
	C3871.075439,777.206665 3871.342773,770.221008 3871.344482,763.235168 
	C3871.353516,728.237976 3871.270996,693.240845 3871.261475,658.243652 
	C3871.204834,453.758209 3871.157471,249.272797 3871.134033,44.787361 
	C3871.133789,43.156818 3871.360352,41.494778 3871.719238,39.901093 
	C3873.280518,32.968636 3871.754639,31.010155 3864.633301,31.010151 
	C2609.386719,31.009329 1354.140381,31.009251 98.893921,31.009148 
	C97.089310,31.009148 95.284691,31.009148 93.480080,31.009148 
	C93.653442,31.463303 93.826805,31.917459 94.000168,32.371613 
	C92.118797,33.569714 90.237419,34.767811 88.164017,36.088196 
	C88.164017,282.938538 88.164017,530.214966 88.164017,777.598633 
	C89.800270,777.992310 91.316292,778.356995 92.708900,778.692078 
	C92.969589,780.622620 93.183075,782.203613 93.338814,783.356934 
	C97.925392,783.992310 102.059601,784.565002 106.043457,786.011353 
	C106.043587,788.972717 106.043716,791.934082 106.000809,795.373779 
M13.938143,624.500000 
	C13.938614,659.829956 13.893481,695.160034 14.003593,730.489685 
	C14.015847,734.421692 12.108932,739.129211 17.276747,741.804077 
	C17.905807,742.129639 17.914104,743.934265 17.953953,745.062439 
	C18.048014,747.725647 18.422585,750.481995 17.906086,753.043884 
	C16.495586,760.040344 21.863228,768.334106 13.962087,774.093933 
	C13.880816,774.153137 13.943806,774.413757 13.943794,774.580383 
	C13.943356,780.994873 13.943423,787.409424 13.943423,793.761475 
	C30.347815,793.761475 45.956318,793.761475 62.059628,793.761475 
	C62.059628,790.242065 62.241222,786.941162 62.013767,783.668762 
	C61.727947,779.556702 63.413670,777.869202 67.512650,778.018127 
	C72.260132,778.190735 77.018700,778.058350 81.767708,778.058350 
	C81.767708,530.023376 81.767708,282.634949 81.767708,35.283043 
	C77.364449,35.283043 73.308090,35.283043 69.248634,35.283043 
	C69.049477,38.056087 68.876984,40.457809 68.681625,43.177952 
	C50.254074,43.177952 32.315723,43.177952 13.942929,43.177952 
	C13.942929,49.826550 13.924413,56.120052 13.966424,62.413155 
	C13.971660,63.197510 14.111259,64.548096 14.503122,64.676498 
	C19.323557,66.256134 17.845585,70.279007 17.930614,73.534325 
	C18.095922,79.862900 18.038223,86.199417 17.949265,92.530907 
	C17.929150,93.962524 17.786018,96.364716 17.047119,96.654053 
	C12.683606,98.362709 13.951388,101.919510 13.949858,104.977180 
	C13.920330,163.972260 13.912108,222.967392 13.989923,281.962402 
	C13.994936,285.762543 12.222028,290.329712 17.377832,292.707825 
	C17.897161,292.947388 17.954727,294.528351 17.959932,295.488220 
	C18.000601,302.987305 18.038435,310.487854 17.906496,317.984924 
	C17.885933,319.153442 17.220932,321.124054 16.475082,321.326263 
	C13.148320,322.228058 13.950547,324.686188 13.949684,326.859802 
	C13.936119,361.023651 13.938741,395.187500 13.938250,429.351349 
	C13.937861,456.349121 13.897035,483.347107 14.033407,510.344177 
	C14.042277,512.100159 15.414731,513.849304 16.153744,515.601318 
	C16.763330,517.046448 17.868010,518.479492 17.901814,519.937683 
	C18.079437,527.599609 18.075924,535.269836 17.909857,542.932190 
	C17.877693,544.416321 16.881784,545.894958 16.262287,547.347046 
	C15.521688,549.083008 14.037486,550.783508 14.026869,552.506531 
	C13.881045,576.170288 13.933979,599.835327 13.938143,624.500000 
M216.500000,14.946847 
	C167.422302,14.946847 118.344604,14.946847 69.422714,14.946847 
	C69.422714,19.774939 69.422714,23.836903 69.422714,27.698765 
	C1336.180908,27.698765 2602.529053,27.698765 3868.674805,27.698765 
	C3868.674805,23.233688 3868.674805,19.163477 3868.674805,14.946812 
	C2651.364014,14.946812 1434.432007,14.946812 216.500000,14.946847 
M3875.942627,631.500000 
	C3875.942627,685.572754 3875.942627,739.645508 3875.942627,793.648438 
	C3892.374756,793.648438 3908.111328,793.648438 3923.720703,793.648438 
	C3923.720703,543.267944 3923.720703,293.249664 3923.720703,43.321930 
	C3907.615723,43.321930 3891.881836,43.321930 3875.942627,43.321930 
	C3875.942627,239.278671 3875.942627,434.889343 3875.942627,631.500000 
M3904.500000,3.994103 
	C3895.074219,3.994103 3885.648438,3.994103 3876.244141,3.994103 
	C3876.244141,15.326365 3876.244141,26.048786 3876.244141,36.788582 
	C3893.603027,36.788582 3910.644287,36.788582 3927.702393,36.788582 
	C3927.702393,25.758345 3927.702393,15.040567 3927.702393,3.994101 
	C3920.089111,3.994101 3912.794678,3.994101 3904.500000,3.994103 
M36.500038,8.012877 
	C29.092081,8.012877 21.684124,8.012877 14.420970,8.012877 
	C14.420970,17.761148 14.420970,26.793795 14.420970,35.720638 
	C30.396244,35.720638 45.962063,35.720638 61.666862,35.720638 
	C61.666862,26.422140 61.666862,17.392992 61.666862,8.012884 
	C53.400124,8.012884 45.450073,8.012884 36.500038,8.012877 
M41.499802,801.012817 
	C32.429417,801.012817 23.359034,801.012817 14.416449,801.012817 
	C14.416449,810.750977 14.416449,819.783447 14.416449,828.725464 
	C30.387384,828.725464 45.953152,828.725464 61.671616,828.725464 
	C61.671616,819.431885 61.671616,810.402710 61.671616,801.012817 
	C55.073460,801.012817 48.786510,801.012817 41.499802,801.012817 
M3898.500000,828.987183 
	C3906.905273,828.987183 3915.310791,828.987183 3923.581787,828.987183 
	C3923.581787,819.245117 3923.581787,810.212830 3923.581787,801.276428 
	C3907.608643,801.276428 3892.042969,801.276428 3876.330078,801.276428 
	C3876.330078,810.572021 3876.330078,819.601196 3876.330078,828.987183 
	C3883.596191,828.987183 3890.548096,828.987183 3898.500000,828.987183 
M69.870987,786.003540 
	C70.111664,787.011658 70.337662,788.896790 70.595146,788.901062 
	C79.661324,789.052856 88.730453,789.027954 98.075768,789.027954 
	C97.822899,787.700806 97.721069,786.550537 97.586212,786.546631 
	C88.662308,786.289429 79.735733,786.124817 69.870987,786.003540 
z"/>
<path fill="#F6F6F6" opacity="1.000000" stroke="none" 
	d="
M3868.531250,1.000000 
	C3869.000000,3.164579 3869.000000,5.329157 3869.000000,7.807835 
	C3867.861084,7.929228 3866.763672,8.151425 3865.666748,8.147663 
	C3841.007568,8.063076 3816.347900,7.995990 3791.690186,7.757665 
	C3789.968506,7.741028 3787.635498,6.890217 3786.671143,5.610414 
	C3784.511230,2.742635 3782.059814,1.848192 3778.576904,1.941157 
	C3770.250244,2.163404 3761.911377,1.905814 3753.582520,2.086144 
	C3751.771729,2.125353 3749.002197,2.667852 3748.363281,3.873444 
	C3746.196045,7.964005 3742.851318,8.009227 3739.085205,7.875205 
	C3735.257080,7.738973 3731.409180,7.669855 3727.590088,7.903059 
	C3723.585938,8.147580 3720.138184,7.860892 3717.810303,3.841669 
	C3717.192627,2.775289 3715.049072,2.114261 3713.592529,2.090348 
	C3704.262451,1.937167 3694.927246,1.939672 3685.597168,2.090379 
	C3684.127197,2.114125 3681.998535,2.728767 3681.334229,3.793777 
	C3678.936035,7.637844 3675.590332,8.179873 3671.531982,7.911071 
	C3667.549805,7.647325 3663.531250,7.727432 3659.538330,7.893520 
	C3655.892090,8.045203 3652.730957,7.912210 3650.732666,3.971608 
	C3650.147705,2.817720 3647.669922,2.113188 3646.042969,2.082404 
	C3636.880371,1.909005 3627.710205,1.888803 3618.549316,2.109025 
	C3616.815430,2.150707 3614.443115,3.044840 3613.532227,4.356131 
	C3611.454102,7.347548 3609.012207,8.155796 3605.565186,7.923538 
	C3601.251709,7.632893 3596.891846,7.654577 3592.574463,7.913603 
	C3588.708008,8.145563 3585.590088,7.574411 3583.222168,4.014083 
	C3582.438965,2.836675 3580.176514,2.128904 3578.572510,2.096902 
	C3569.576904,1.917456 3560.571777,1.871309 3551.579590,2.122988 
	C3549.695312,2.175725 3547.132812,3.170854 3546.142334,4.602838 
	C3544.255127,7.331587 3542.117432,8.044067 3539.048584,7.902917 
	C3534.558350,7.696381 3530.042236,7.672174 3525.554932,7.907876 
	C3521.707275,8.109962 3518.506348,7.649538 3516.209229,3.991673 
	C3515.519775,2.894078 3513.474121,2.131388 3512.033936,2.106069 
	C3502.537598,1.939117 3493.035645,1.931743 3483.539551,2.101408 
	C3482.089355,2.127319 3479.979736,2.953050 3479.345703,4.072113 
	C3477.236572,7.794319 3474.118164,8.104263 3470.428223,7.901021 
	C3466.606934,7.690533 3462.760986,7.752161 3458.932861,7.890723 
	C3454.853760,8.038374 3451.062012,8.099024 3448.735352,3.664023 
	C3448.198242,2.640290 3445.913818,2.102958 3444.422363,2.080568 
	C3435.091797,1.940492 3425.756104,1.913965 3416.427490,2.102419 
	C3414.842773,2.134431 3412.508545,2.963149 3411.856689,4.154704 
	C3409.881348,7.765519 3406.941162,8.022388 3403.458740,7.885236 
	C3399.299072,7.721411 3395.122559,7.728350 3390.962646,7.890219 
	C3387.161377,8.038127 3383.794434,7.853164 3381.554688,3.960540 
	C3380.920654,2.858757 3378.766846,2.121431 3377.294189,2.095267 
	C3367.964600,1.929507 3358.628174,1.910632 3349.299805,2.107129 
	C3347.722656,2.140347 3345.485352,3.032207 3344.740479,4.252276 
	C3342.658203,7.663248 3339.800293,8.080262 3336.287109,7.902433 
	C3332.131348,7.692102 3327.949219,7.697253 3323.792725,7.900746 
	C3319.933594,8.089704 3316.734131,7.622936 3314.453613,3.857405 
	C3313.753174,2.700304 3311.324707,2.117682 3309.672363,2.087122 
	C3300.676270,1.920738 3291.671143,1.868060 3282.679443,2.125371 
	C3280.814941,2.178725 3278.328613,3.227188 3277.291748,4.659008 
	C3275.238037,7.495178 3272.865723,8.086877 3269.665527,7.905649 
	C3265.512695,7.670482 3261.331299,7.729603 3257.170898,7.888297 
	C3253.100586,8.043571 3249.347412,8.112391 3247.070801,3.655214 
	C3246.550293,2.635715 3244.237793,2.103632 3242.739258,2.081263 
	C3233.408691,1.941997 3224.072998,1.917539 3214.744141,2.103217 
	C3213.166016,2.134634 3210.904541,2.939940 3210.183105,4.129999 
	C3208.253418,7.312807 3205.750000,8.128461 3202.282471,7.913447 
	C3198.298096,7.666393 3194.281494,7.726639 3190.288574,7.890304 
	C3186.029785,8.064876 3182.052490,8.128806 3179.598145,3.582011 
	C3179.091553,2.643003 3177.087891,2.097923 3175.764648,2.079937 
	C3166.433838,1.953114 3157.096680,1.866051 3147.771973,2.135553 
	C3145.944824,2.188362 3144.165283,3.852953 3142.361816,4.769708 
	C3140.334229,5.800237 3138.373047,7.497806 3136.260986,7.714258 
	C3131.808105,8.170589 3127.269775,7.703822 3122.777832,7.891247 
	C3118.629883,8.064341 3114.908203,7.958242 3112.503174,3.643962 
	C3111.930420,2.617181 3109.673828,2.107257 3108.180664,2.084410 
	C3099.016602,1.944195 3089.847900,1.917460 3080.685547,2.100110 
	C3079.073975,2.132237 3076.773438,2.882418 3076.020508,4.076334 
	C3073.794434,7.605088 3070.794678,8.133943 3067.072510,7.903512 
	C3063.254150,7.667121 3059.406250,7.752501 3055.577637,7.880924 
	C3051.505859,8.017490 3047.643066,8.249527 3045.439209,3.591622 
	C3044.969727,2.599015 3042.588379,2.100633 3041.077637,2.078224 
	C3031.913574,1.942306 3022.744873,1.916388 3013.582520,2.099045 
	C3011.985107,2.130890 3009.722900,2.884170 3008.956055,4.071661 
	C3006.722168,7.530964 3003.791504,8.153783 3000.039795,7.916829 
	C2995.723877,7.644237 2991.375488,7.768869 2987.045410,7.878514 
	C2983.616699,7.965327 2980.595703,7.877783 2978.733398,4.084097 
	C2978.156494,2.909045 2975.688965,2.119278 2974.069336,2.088203 
	C2964.740234,1.909207 2955.403076,1.891722 2946.076172,2.125707 
	C2944.365723,2.168617 2941.952637,3.174827 2941.147949,4.510207 
	C2939.284424,7.603508 2936.873779,8.075289 2933.673096,7.902882 
	C2929.519043,7.679121 2925.338135,7.722658 2921.178467,7.890173 
	C2917.084717,8.055030 2913.334961,8.049486 2910.904297,3.764482 
	C2910.306641,2.711378 2908.107178,2.110496 2906.631348,2.086756 
	C2897.467773,1.939365 2888.299072,1.924289 2879.136475,2.102833 
	C2877.505127,2.134622 2875.117920,2.816023 2874.418701,3.992940 
	C2872.123291,7.856219 2868.767090,8.011861 2864.991211,7.885624 
	C2860.829590,7.746496 2856.651855,7.698856 2852.495361,7.901588 
	C2848.965576,8.073757 2846.111328,7.634655 2844.097656,4.138319 
	C2843.413330,2.950410 2841.121582,2.137430 2839.544922,2.104994 
	C2830.382812,1.916500 2821.212402,1.897483 2812.051514,2.111276 
	C2810.307129,2.151982 2807.878174,3.017618 2807.008301,4.327971 
	C2804.943115,7.439444 2802.399658,8.114882 2798.970703,7.912753 
	C2794.652100,7.658188 2790.300537,7.670483 2785.977783,7.875174 
	C2782.139404,8.056933 2778.873047,7.774704 2776.760498,3.811332 
	C2776.199219,2.757994 2773.986084,2.116280 2772.517578,2.091624 
	C2763.187500,1.934971 2753.851807,1.912681 2744.522705,2.086062 
	C2742.903076,2.116160 2740.517090,2.837495 2739.843018,4.016011 
	C2737.738525,7.697780 2734.748291,8.127148 2731.042480,7.894290 
	C2727.224854,7.654424 2723.377930,7.771972 2719.547363,7.874493 
	C2715.510742,7.982540 2711.655518,8.251314 2709.242432,3.776934 
	C2708.635498,2.651765 2706.100342,2.115516 2704.437500,2.085901 
	C2695.441162,1.925671 2686.437256,1.890998 2677.443359,2.113022 
	C2675.719482,2.155574 2673.400391,3.084356 2672.450928,4.396549 
	C2670.322998,7.337783 2667.838867,8.150361 2664.398926,7.919249 
	C2660.251465,7.640595 2656.064209,7.709641 2651.906250,7.894737 
	C2647.962891,8.070265 2644.444580,8.041950 2642.136719,3.870229 
	C2641.503906,2.726268 2639.039062,2.118612 2637.399414,2.088158 
	C2628.403320,1.921062 2619.399414,1.892845 2610.405518,2.112301 
	C2608.663086,2.154821 2606.270996,3.036965 2605.364746,4.350423 
	C2603.292236,7.353388 2600.829590,8.135633 2597.409668,7.905412 
	C2593.427979,7.637404 2589.411133,7.748147 2585.415771,7.881638 
	C2581.212402,8.022068 2577.097656,8.413601 2574.884521,3.519944 
	C2574.504639,2.679692 2572.661865,2.097071 2571.487061,2.083460 
	C2561.656006,1.969564 2551.821533,1.933551 2541.992432,2.109155 
	C2540.601318,2.134008 2538.634521,3.071585 2537.967529,4.198268 
	C2536.076660,7.393246 2533.538574,8.141581 2530.069580,7.921405 
	C2525.753906,7.647495 2521.399902,7.693107 2517.077148,7.903360 
	C2513.224365,8.090755 2509.993164,7.708943 2507.712402,3.914933 
	C2507.017822,2.759409 2504.647461,2.121976 2503.029297,2.092065 
	C2493.866455,1.922702 2484.697754,1.938731 2475.534180,2.082127 
	C2474.059326,2.105205 2471.825195,2.666440 2471.266846,3.696697 
	C2468.893555,8.076280 2465.121338,8.056919 2461.019043,7.888041 
	C2457.025879,7.723650 2453.018555,7.748631 2449.022217,7.864461 
	C2445.595215,7.963792 2442.579346,7.884217 2440.720215,4.092157 
	C2440.147705,2.923748 2437.702881,2.133448 2436.096436,2.100878 
	C2426.934082,1.915132 2417.764648,1.919230 2408.602051,2.096111 
	C2406.980957,2.127405 2404.656494,2.818113 2403.908447,3.997870 
	C2401.693115,7.490734 2398.749268,8.130116 2395.003906,7.900533 
	C2391.019287,7.656297 2387.004395,7.743635 2383.009277,7.883735 
	C2379.106689,8.020596 2375.513428,8.145465 2373.344971,3.764954 
	C2372.797363,2.659614 2370.210449,2.115398 2368.547119,2.085981 
	C2359.550537,1.926864 2350.544434,1.846252 2341.554688,2.137915 
	C2339.563965,2.202500 2337.009033,3.395105 2335.809814,4.926606 
	C2334.055176,7.166645 2332.320557,8.011967 2329.590576,7.902212 
	C2325.098389,7.721602 2320.590576,7.755641 2316.094482,7.881232 
	C2312.017578,7.995122 2308.202637,8.084897 2305.821777,3.689923 
	C2305.260742,2.654693 2302.993408,2.109318 2301.499023,2.085427 
	C2292.335693,1.938918 2283.166748,1.916114 2274.004395,2.088976 
	C2272.386230,2.119503 2270.015869,2.810065 2269.326172,3.981049 
	C2267.178467,7.627135 2264.169189,8.095243 2260.446045,7.882771 
	C2256.459717,7.655292 2252.442139,7.694295 2248.452148,7.895620 
	C2244.473633,8.096357 2240.939209,7.997844 2238.727539,3.763317 
	C2238.186279,2.726559 2235.965088,2.109242 2234.503418,2.085461 
	C2225.339844,1.936376 2216.170166,1.898231 2207.009033,2.108781 
	C2205.283691,2.148437 2202.941406,3.006264 2202.009277,4.298466 
	C2199.889893,7.236705 2197.433594,8.138282 2193.964355,7.918261 
	C2189.648682,7.644566 2185.298096,7.732655 2180.970703,7.889017 
	C2177.179688,8.026013 2173.813477,7.891933 2171.736572,3.831626 
	C2171.200928,2.784839 2168.999023,2.112238 2167.549316,2.089008 
	C2158.052734,1.936844 2148.550049,1.910769 2139.055420,2.109136 
	C2137.502686,2.141575 2135.348389,3.084356 2134.563232,4.307054 
	C2132.577148,7.399899 2130.089355,8.177515 2126.632812,7.921140 
	C2122.654785,7.626060 2118.628662,7.666028 2114.641602,7.889852 
	C2110.360352,8.130213 2106.514893,8.014784 2104.026855,3.617791 
	C2103.484131,2.658635 2101.487549,2.098795 2100.150635,2.080171 
	C2090.819824,1.950200 2081.484375,1.912921 2072.155762,2.105515 
	C2070.567627,2.138301 2068.253418,2.994371 2067.572998,4.201779 
	C2065.566406,7.762578 2062.635498,8.043786 2059.156982,7.903603 
	C2054.997314,7.735963 2050.814941,7.667674 2046.662720,7.909008 
	C2042.636841,8.142997 2039.227661,7.819575 2036.979126,3.728106 
	C2036.405151,2.683655 2034.166626,2.107559 2032.680542,2.083789 
	C2023.516968,1.937217 2014.347900,1.915602 2005.185669,2.098999 
	C2003.563354,2.131470 2001.237793,2.868958 2000.491089,4.064250 
	C1998.280396,7.603198 1995.302124,8.149158 1991.572754,7.908156 
	C1987.755615,7.661491 1983.909790,7.816739 1980.077271,7.861542 
	C1976.109619,7.907926 1972.161133,8.412398 1969.887573,3.727459 
	C1969.356812,2.633573 1966.758423,2.098906 1965.098511,2.071033 
	C1956.101807,1.919972 1947.097412,1.874575 1938.104980,2.124308 
	C1936.233887,2.176266 1933.676636,3.128223 1932.706299,4.539279 
	C1930.832153,7.264561 1928.722046,8.048834 1925.630859,7.890729 
	C1921.475830,7.678215 1917.299316,7.772678 1913.135376,7.874927 
	C1908.942993,7.977875 1904.823242,8.431832 1902.406006,3.630897 
	C1901.896240,2.618237 1899.562622,2.103745 1898.058350,2.080768 
	C1888.894653,1.940791 1879.723267,1.863437 1870.565308,2.132035 
	C1868.755005,2.185128 1866.992310,3.837566 1865.206299,4.749856 
	C1863.178223,5.785783 1861.213745,7.515458 1859.106567,7.712276 
	C1854.315308,8.159792 1849.449585,7.728486 1844.622192,7.893847 
	C1840.841064,8.023373 1837.554321,7.864842 1835.429688,3.856843 
	C1834.827393,2.720560 1832.318726,2.122861 1830.669189,2.092211 
	C1821.672974,1.925049 1812.667969,1.869679 1803.676270,2.128688 
	C1801.823364,2.182058 1799.429810,3.274883 1798.312622,4.696056 
	C1796.329834,7.218684 1794.219727,8.085298 1791.118652,7.915701 
	C1786.632324,7.670336 1782.120117,7.753078 1777.624023,7.879024 
	C1773.907959,7.983123 1770.517822,8.063534 1768.435425,3.928728 
	C1767.861450,2.789292 1765.358521,2.128879 1763.724487,2.097505 
	C1754.561890,1.921564 1745.391724,1.893027 1736.230591,2.098555 
	C1734.468994,2.138073 1731.880615,2.965233 1731.155396,4.259376 
	C1729.250977,7.657942 1726.582397,8.024208 1723.253418,7.891625 
	C1719.093628,7.725948 1714.911377,7.665738 1710.759155,7.908217 
	C1706.753418,8.142135 1703.354248,7.813993 1700.911255,3.918608 
	C1700.183472,2.758399 1697.838989,2.123458 1696.219116,2.092619 
	C1687.223145,1.921355 1678.219727,1.902606 1669.224976,2.103072 
	C1667.471069,2.142160 1664.877563,2.892931 1664.169067,4.155804 
	C1662.151123,7.752425 1659.262207,8.045057 1655.769653,7.893552 
	C1651.777344,7.720368 1647.771240,7.805323 1643.772461,7.867536 
	C1639.765503,7.929876 1635.816040,8.321209 1633.612183,3.623479 
	C1633.144165,2.625673 1630.766479,2.105413 1629.257690,2.082659 
	C1620.093994,1.944447 1610.925171,1.920622 1601.762817,2.102177 
	C1600.155029,2.134037 1597.830566,2.869827 1597.112305,4.054049 
	C1594.916382,7.673758 1591.872681,8.082008 1588.161987,7.863491 
	C1584.343384,7.638611 1580.495361,7.731761 1576.667969,7.882960 
	C1572.586792,8.044192 1568.786987,8.151992 1566.536743,3.609030 
	C1566.038086,2.602551 1563.682007,2.100921 1562.170898,2.078945 
	C1552.840210,1.943244 1543.503540,1.888547 1534.177002,2.125379 
	C1532.506836,2.167785 1530.362183,3.297958 1529.334839,4.622482 
	C1527.405396,7.110363 1525.374878,8.161672 1522.199341,7.929574 
	C1518.055054,7.626690 1513.865112,7.704072 1509.707642,7.895138 
	C1505.425903,8.091900 1501.527588,8.051519 1498.957520,3.636026 
	C1498.353027,2.597425 1496.095703,2.099948 1494.587646,2.077164 
	C1485.423950,1.938702 1476.253540,1.883952 1467.093872,2.124302 
	C1465.410889,2.168468 1463.203247,3.282315 1462.224854,4.622809 
	C1460.342773,7.201181 1458.282227,8.137464 1455.151978,7.920278 
	C1451.171509,7.644102 1447.155518,7.779324 1443.158081,7.873460 
	C1438.683472,7.978834 1434.151367,8.615020 1431.664917,3.369571 
	C1431.275146,2.547456 1429.363281,2.086474 1428.148438,2.073016 
	C1418.650391,1.967799 1409.149292,1.932146 1399.652954,2.096334 
	C1398.191772,2.121598 1396.081299,2.880855 1395.422485,3.986695 
	C1393.275391,7.590467 1390.210205,8.090820 1386.500610,7.896679 
	C1382.678101,7.696629 1378.833740,7.757687 1375.004639,7.879299 
	C1370.953125,8.007972 1367.098267,8.242664 1364.823853,3.678356 
	C1364.314941,2.657043 1361.993896,2.104079 1360.495850,2.081382 
	C1351.165405,1.940018 1341.828857,1.892013 1332.501831,2.119397 
	C1330.797974,2.160933 1328.382568,3.168353 1327.592163,4.499577 
	C1325.716919,7.658433 1323.197266,8.038756 1320.022827,7.894632 
	C1316.197632,7.720972 1312.358521,7.847595 1308.525513,7.855656 
	C1304.260498,7.864625 1299.912231,8.524117 1297.264893,3.627833 
	C1296.670654,2.528903 1294.066528,2.107335 1292.376099,2.079169 
	C1283.545898,1.932047 1274.707886,1.871372 1265.882568,2.127113 
	C1264.018921,2.181121 1261.536133,3.201173 1260.498901,4.622708 
	C1258.570068,7.265778 1256.450684,8.046247 1253.360229,7.883577 
	C1249.040039,7.656175 1244.697144,7.793824 1240.365479,7.869015 
	C1236.382690,7.938149 1232.435181,8.406570 1230.276733,3.659622 
	C1229.821533,2.658776 1227.439697,2.104434 1225.934204,2.081183 
	C1216.770508,1.939644 1207.600708,1.893323 1198.440186,2.116368 
	C1196.722900,2.158181 1194.427856,3.113268 1193.463623,4.427597 
	C1191.326050,7.341384 1188.842285,8.159373 1185.411987,7.917698 
	C1181.432129,7.637304 1177.416992,7.823024 1173.417725,7.861046 
	C1169.462402,7.898651 1165.451538,8.504201 1163.214722,3.769416 
	C1162.725098,2.733188 1160.389648,2.108320 1158.891479,2.084406 
	C1149.561279,1.935465 1140.224609,1.891765 1130.897583,2.121486 
	C1129.190674,2.163526 1126.870972,3.182839 1125.966675,4.518038 
	C1124.141724,7.212767 1122.090210,8.112136 1118.941895,7.919637 
	C1114.625000,7.655688 1110.274658,7.721828 1105.948364,7.892064 
	C1101.854370,8.053162 1098.115479,8.055498 1095.728394,3.722754 
	C1095.151367,2.675434 1092.897217,2.108117 1091.401733,2.083504 
	C1082.238281,1.932702 1073.066895,1.854122 1063.908936,2.122039 
	C1062.088135,2.175305 1060.316650,3.840311 1058.518311,4.753878 
	C1056.487061,5.785787 1054.518188,7.487189 1052.403442,7.695903 
	C1047.781616,8.152085 1043.081177,7.735537 1038.419678,7.889105 
	C1034.505615,8.018058 1030.932129,8.089625 1028.643433,3.862533 
	C1028.027222,2.724430 1025.548828,2.119587 1023.909973,2.089169 
	C1014.913818,1.922196 1005.908875,1.869665 996.916870,2.125158 
	C995.058777,2.177951 992.661804,3.239151 991.535278,4.651096 
	C989.556396,7.131365 987.518066,8.112877 984.379883,7.921497 
	C979.896729,7.648095 975.380798,7.725555 970.886414,7.877738 
	C967.099976,8.005950 963.744324,7.942647 961.636963,3.834573 
	C961.059204,2.708325 958.530334,2.112804 956.882446,2.083617 
	C947.719421,1.921316 938.550171,1.917369 929.387634,2.094977 
	C927.760559,2.126517 925.340759,2.812481 924.687866,3.979747 
	C922.478333,7.930430 919.153076,8.060780 915.377380,7.903416 
	C911.384521,7.736996 907.366272,7.653155 903.383728,7.911652 
	C899.484680,8.164730 896.386536,7.544156 894.091614,3.879372 
	C893.370300,2.727576 891.015259,2.120643 889.392761,2.090803 
	C880.396545,1.925349 871.393005,1.903433 862.398621,2.113262 
	C860.655334,2.153933 858.140076,2.959894 857.370605,4.244935 
	C855.428406,7.488649 852.895142,8.100277 849.501892,7.907600 
	C845.515015,7.681216 841.505432,7.865263 837.505798,7.851872 
	C833.430725,7.838229 829.133484,8.697497 826.856812,3.623017 
	C826.411255,2.630121 824.003357,2.096166 822.489563,2.073144 
	C813.325684,1.933789 804.156799,1.907750 794.994629,2.094763 
	C793.374207,2.127839 791.013916,2.894905 790.312500,4.093742 
	C788.142456,7.802354 785.020630,8.073465 781.352905,7.895047 
	C777.528870,7.709026 773.682007,7.709957 769.857605,7.891815 
	C765.749084,8.087180 762.008667,8.039534 759.733215,3.639639 
	C759.240845,2.687566 757.220703,2.092385 755.894165,2.074338 
	C746.396729,1.945120 736.894592,1.910034 727.399292,2.105426 
	C725.815857,2.138010 723.545471,3.015498 722.824402,4.232457 
	C720.770386,7.699310 717.891296,8.070086 714.387329,7.902524 
	C710.230469,7.703744 706.052673,7.738411 701.891724,7.887900 
	C698.112732,8.023665 694.751709,7.851027 692.545776,3.947712 
	C691.928833,2.856102 689.779724,2.124241 688.318115,2.098435 
	C678.988403,1.933711 669.651367,1.889931 660.324646,2.122924 
	C658.632996,2.165184 656.385071,3.247379 655.431763,4.587655 
	C653.564575,7.212735 651.503235,8.122707 648.358826,7.922909 
	C644.043335,7.648703 639.695923,7.790009 635.364685,7.878154 
	C631.358887,7.959674 627.403870,8.386900 625.215088,3.705034 
	C624.768494,2.749717 622.692627,2.107784 621.356750,2.088373 
	C611.859497,1.950376 602.357849,1.929849 592.861633,2.096729 
	C591.415344,2.122144 589.344849,2.920428 588.673157,4.032023 
	C586.519409,7.596140 583.480042,8.106352 579.775391,7.905794 
	C575.787292,7.689894 571.771423,7.704437 567.781006,7.896237 
	C563.807861,8.087206 560.283142,7.972157 558.063843,3.760459 
	C557.514587,2.718096 555.275391,2.109503 553.800476,2.086026 
	C544.470276,1.937512 535.133667,1.891889 525.806458,2.116626 
	C524.110779,2.157484 521.749817,3.161855 520.915710,4.488421 
	C519.129211,7.329501 516.913269,8.024831 513.848572,7.897323 
	C509.689392,7.724283 505.515961,7.780136 501.351746,7.874218 
	C497.161011,7.968899 493.045715,8.404690 490.606781,3.637381 
	C490.083771,2.615117 487.752899,2.092257 486.243866,2.069623 
	C477.080170,1.932170 467.908722,1.856430 458.751282,2.135376 
	C456.911407,2.191420 454.385223,3.407133 453.465485,4.888882 
	C451.721771,7.698012 449.546722,7.988478 446.737549,7.890937 
	C442.576202,7.746447 438.405090,7.794313 434.240112,7.869875 
	C430.076141,7.945419 425.909515,8.519481 423.523743,3.644051 
	C423.027802,2.630546 420.687286,2.091188 419.185699,2.068406 
	C410.021973,1.929376 400.852051,1.882877 391.691742,2.109896 
	C389.946167,2.153157 387.534912,3.091383 386.647156,4.425863 
	C384.563293,7.558354 381.927429,8.075222 378.570374,7.904081 
	C374.581024,7.700703 370.571503,7.776199 366.574310,7.875481 
	C362.558960,7.975213 358.649628,8.362561 356.405212,3.719132 
	C355.911102,2.696788 353.597382,2.107781 352.109650,2.084590 
	C342.779327,1.939149 333.442566,1.887825 324.115875,2.121560 
	C322.414062,2.164209 320.170807,3.238506 319.190063,4.577966 
	C317.305542,7.151742 315.267822,8.132427 312.118164,7.921802 
	C307.970337,7.644424 303.786072,7.737925 299.624817,7.882617 
	C295.398560,8.029568 291.396210,8.241532 288.876129,3.675661 
	C288.304565,2.640073 286.037628,2.110100 284.539398,2.086452 
	C275.375702,1.941808 266.205536,1.886745 257.045502,2.118034 
	C255.344482,2.160985 253.110992,3.219351 252.120392,4.550896 
	C250.234161,7.086368 248.281387,8.168411 245.071640,7.926584 
	C240.763382,7.601995 236.407196,7.727845 232.080246,7.890498 
	C227.998657,8.043927 224.233444,8.105269 221.867203,3.729910 
	C221.304626,2.689639 219.066315,2.108157 217.586502,2.084476 
	C208.422913,1.937837 199.253098,1.895769 190.092270,2.111653 
	C188.346573,2.152792 185.911530,3.026981 185.046280,4.341033 
	C182.982269,7.475685 180.384766,8.076916 176.996964,7.904516 
	C172.841385,7.693045 168.659576,7.700945 164.502594,7.898006 
	C160.521500,8.086729 157.018845,7.927005 154.782455,3.751503 
	C154.220276,2.701900 151.963028,2.105777 150.472336,2.081999 
	C141.142151,1.933173 131.804138,1.858807 122.479568,2.131186 
	C120.661934,2.184281 118.898331,3.881917 117.098320,4.798456 
	C115.072395,5.830026 113.049454,7.678209 110.997627,7.717137 
	C97.216911,7.978586 83.428864,7.853197 69.115639,7.853197 
	C69.115639,5.783935 69.115639,3.838403 69.057816,1.446436 
	C1335.354126,1.000000 2601.708252,1.000000 3868.531250,1.000000 
z"/>
<path fill="#DFDFDF" opacity="1.000000" stroke="none" 
	d="
M69.457962,836.000000 
	C69.527542,835.365723 69.998749,834.254639 70.592903,834.184448 
	C72.565315,833.951477 74.581978,834.091248 76.581665,834.091248 
	C1338.924438,834.090759 2601.267334,834.090149 3863.610107,834.134766 
	C3865.403564,834.134827 3867.196777,834.808167 3868.995117,835.583496 
	C2602.638672,836.000000 1336.277222,836.000000 69.457962,836.000000 
z"/>
<path fill="#FBFBFB" opacity="1.000000" stroke="none" 
	d="
M1.000000,36.468658 
	C2.302083,36.117992 3.604167,36.235981 5.307170,36.390305 
	C5.123330,38.357334 5.282843,40.221706 4.731381,41.844471 
	C3.376444,45.831596 0.901858,49.716732 4.932001,53.572235 
	C1.814476,59.759335 6.164283,64.773087 7.222695,70.369064 
	C8.373361,76.452797 7.483788,82.922417 7.483788,89.551720 
	C3.627172,90.416916 0.917725,92.083321 4.416503,96.788536 
	C5.173649,97.806747 4.976199,99.641380 4.976918,101.100075 
	C5.001806,151.594696 5.015965,202.089355 4.929745,252.583832 
	C4.926348,254.573074 3.628483,256.539368 3.484456,258.555725 
	C3.370565,260.150146 3.573248,262.315033 4.558160,263.338531 
	C7.645901,266.547180 7.729630,270.533905 4.735982,273.698303 
	C3.725999,274.765839 3.334541,276.867249 3.443423,278.442017 
	C3.617209,280.955475 4.925820,283.423218 4.928224,285.911072 
	C5.011755,372.401825 5.012909,458.892609 4.923985,545.383362 
	C4.921454,547.844543 3.575848,550.279297 3.311188,552.774658 
	C3.155523,554.242310 3.403784,556.276733 4.324269,557.241821 
	C7.873498,560.962952 7.890467,564.156860 4.378037,567.565430 
	C3.475510,568.441284 3.297600,570.480957 3.441436,571.920593 
	C3.660113,574.109314 4.924512,576.240173 4.928269,578.397034 
	C5.015933,628.724792 5.012253,679.052917 4.927494,729.380676 
	C4.923818,731.563049 3.787017,733.722961 3.556824,735.932739 
	C3.404861,737.391479 3.525593,739.975647 4.221987,740.243835 
	C8.118198,741.744019 7.583994,745.256348 7.779235,747.985962 
	C8.193710,753.780640 7.905712,759.625610 7.905712,765.465515 
	C3.641631,766.777893 0.977127,768.419800 4.529159,773.165588 
	C5.516523,774.484680 5.753123,777.796021 4.816085,778.874878 
	C0.988254,783.282349 3.353652,787.198364 5.073811,791.180481 
	C6.630168,794.783447 5.504170,796.165100 1.387725,795.952393 
	C1.000000,542.979126 1.000000,289.958221 1.000000,36.468658 
z"/>
<path fill="#E5E5E5" opacity="1.000000" stroke="none" 
	d="
M1.000000,816.469055 
	C2.428561,816.000000 3.857123,816.000000 5.769271,816.000000 
	C5.769271,822.643433 5.769271,828.864929 5.884636,835.543213 
	C4.363137,836.000000 2.726274,836.000000 1.000000,836.000000 
	C1.000000,829.646240 1.000000,823.292175 1.000000,816.469055 
z"/>
<path fill="#E8E8E8" opacity="1.000000" stroke="none" 
	d="
M5.500038,1.000000 
	C5.784633,5.741343 5.569266,10.482685 5.333718,15.668322 
	C4.269068,15.802820 3.060382,15.955516 1.425848,16.054106 
	C1.000000,11.128185 1.000000,6.256371 1.000000,1.000000 
	C2.315785,1.000000 3.657930,1.000000 5.500038,1.000000 
z"/>
<path fill="#868686" opacity="1.000000" stroke="none" 
	d="
M106.193802,785.137756 
	C102.059601,784.565002 97.925392,783.992310 93.338814,783.356934 
	C93.183075,782.203613 92.969589,780.622620 92.708900,778.692078 
	C91.316292,778.356995 89.800270,777.992310 88.164017,777.598633 
	C88.164017,530.214966 88.164017,282.938538 88.164017,36.088196 
	C90.237419,34.767811 92.118797,33.569714 94.000168,32.371613 
	C93.826805,31.917459 93.653442,31.463303 93.480080,31.009148 
	C95.284691,31.009148 97.089310,31.009148 98.893921,31.009148 
	C1354.140381,31.009251 2609.386719,31.009329 3864.633301,31.010151 
	C3871.754639,31.010155 3873.280518,32.968636 3871.719238,39.901093 
	C3871.360352,41.494778 3871.133789,43.156818 3871.134033,44.787361 
	C3871.157471,249.272797 3871.204834,453.758209 3871.261475,658.243652 
	C3871.270996,693.240845 3871.353516,728.237976 3871.344482,763.235168 
	C3871.342773,770.221008 3871.075439,777.206665 3870.413086,784.679443 
	C3818.405518,785.167419 3766.915283,785.168701 3715.425293,785.169373 
	C3680.603760,785.169800 3645.782471,785.169373 3610.960938,785.169373 
	C3571.972900,785.169373 3532.985107,785.169373 3493.997070,785.169373 
	C3467.008789,785.169373 3440.020752,785.169373 3413.032471,785.169373 
	C3374.044434,785.169373 3335.056641,785.169373 3296.068604,785.169373 
	C3265.913574,785.169373 3235.758789,785.169373 3205.603760,785.169373 
	C3172.115479,785.169373 3138.627441,785.169373 3105.139160,785.169373 
	C3073.150879,785.169373 3041.162842,785.169373 3009.174561,785.169373 
	C2974.519775,785.169373 2939.864746,785.169373 2905.209961,785.169373 
	C2865.888428,785.169373 2826.566895,785.169373 2787.245361,785.169373 
	C2760.257324,785.169373 2733.269287,785.169373 2706.281250,785.169373 
	C2668.626465,785.169373 2630.971680,785.169373 2593.316895,785.169373 
	C2564.661865,785.169373 2536.006836,785.169373 2507.351807,785.169373 
	C2474.530273,785.169373 2441.708984,785.169373 2408.887451,785.169373 
	C2374.399170,785.169373 2339.911133,785.169373 2305.422852,785.169373 
	C2265.601562,785.169373 2225.780029,785.169373 2185.958740,785.169373 
	C2159.136963,785.169373 2132.315430,785.169373 2105.493652,785.169373 
	C2074.005371,785.169373 2042.517334,785.169373 2011.029175,785.169373 
	C1970.374390,785.169373 1929.719727,785.169373 1889.064941,785.169373 
	C1862.410034,785.169373 1835.755005,785.169373 1809.100098,785.169373 
	C1777.111816,785.169373 1745.123657,785.169373 1713.135376,785.169373 
	C1678.480591,785.169373 1643.825684,785.169373 1609.170898,785.169373 
	C1577.182617,785.169373 1545.194458,785.169373 1513.206177,785.169373 
	C1468.884888,785.169373 1424.563477,785.169373 1380.242188,785.169373 
	C1354.920654,785.169373 1329.598999,785.169373 1304.277466,785.169373 
	C1262.456055,785.169373 1220.634766,785.169373 1178.813354,785.169373 
	C1154.158325,785.169373 1129.503296,785.169373 1104.848267,785.169373 
	C1071.193848,785.169373 1037.539429,785.169373 1003.885010,785.169373 
	C962.396790,785.169373 920.908630,785.169373 879.420410,785.169373 
	C851.432251,785.169373 823.444031,785.169373 795.455872,785.169373 
	C756.301270,785.169373 717.146729,785.169373 677.992126,785.169373 
	C651.003967,785.169373 624.015869,785.169373 597.027710,785.169373 
	C557.539917,785.169373 518.052063,785.169373 478.564240,785.169373 
	C450.743042,785.169373 422.921844,785.169373 395.100647,785.169373 
	C359.112640,785.169373 323.124664,785.169373 287.136658,785.169373 
	C245.481903,785.169312 203.827148,785.172485 162.172394,785.167786 
	C143.512863,785.165710 124.853333,785.148193 106.193802,785.137756 
z"/>
<path fill="#868686" opacity="1.000000" stroke="none" 
	d="
M3868.030029,795.780884 
	C3868.349365,798.156616 3868.906738,800.528503 3868.944580,802.908691 
	C3869.064209,810.388977 3868.988281,817.872314 3868.988281,825.712036 
	C2602.382568,825.712036 1336.057373,825.712036 69.372498,825.712036 
	C69.372498,816.130188 69.372498,806.387939 69.372498,795.919189 
	C81.211014,795.919189 93.128860,795.919189 105.945839,795.955322 
	C107.511559,795.994324 108.178146,795.999634 108.844734,795.999634 
	C1360.248169,796.000000 2611.651611,796.000122 3863.054932,795.991028 
	C3864.713379,795.990967 3866.371582,795.853943 3868.030029,795.780884 
z"/>
<path fill="#868686" opacity="1.000000" stroke="none" 
	d="
M13.938122,624.000000 
	C13.933979,599.835327 13.881045,576.170288 14.026869,552.506531 
	C14.037486,550.783508 15.521688,549.083008 16.262287,547.347046 
	C16.881784,545.894958 17.877693,544.416321 17.909857,542.932190 
	C18.075924,535.269836 18.079437,527.599609 17.901814,519.937683 
	C17.868010,518.479492 16.763330,517.046448 16.153744,515.601318 
	C15.414731,513.849304 14.042277,512.100159 14.033407,510.344177 
	C13.897035,483.347107 13.937861,456.349121 13.938250,429.351349 
	C13.938741,395.187500 13.936119,361.023651 13.949684,326.859802 
	C13.950547,324.686188 13.148320,322.228058 16.475082,321.326263 
	C17.220932,321.124054 17.885933,319.153442 17.906496,317.984924 
	C18.038435,310.487854 18.000601,302.987305 17.959932,295.488220 
	C17.954727,294.528351 17.897161,292.947388 17.377832,292.707825 
	C12.222028,290.329712 13.994936,285.762543 13.989923,281.962402 
	C13.912108,222.967392 13.920330,163.972260 13.949858,104.977180 
	C13.951388,101.919510 12.683606,98.362709 17.047119,96.654053 
	C17.786018,96.364716 17.929150,93.962524 17.949265,92.530907 
	C18.038223,86.199417 18.095922,79.862900 17.930614,73.534325 
	C17.845585,70.279007 19.323557,66.256134 14.503122,64.676498 
	C14.111259,64.548096 13.971660,63.197510 13.966424,62.413155 
	C13.924413,56.120052 13.942929,49.826550 13.942929,43.177952 
	C32.315723,43.177952 50.254074,43.177952 68.681625,43.177952 
	C68.876984,40.457809 69.049477,38.056087 69.248634,35.283043 
	C73.308090,35.283043 77.364449,35.283043 81.767708,35.283043 
	C81.767708,282.634949 81.767708,530.023376 81.767708,778.058350 
	C77.018700,778.058350 72.260132,778.190735 67.512650,778.018127 
	C63.413670,777.869202 61.727947,779.556702 62.013767,783.668762 
	C62.241222,786.941162 62.059628,790.242065 62.059628,793.761475 
	C45.956318,793.761475 30.347815,793.761475 13.943423,793.761475 
	C13.943423,787.409424 13.943356,780.994873 13.943794,774.580383 
	C13.943806,774.413757 13.880816,774.153137 13.962087,774.093933 
	C21.863228,768.334106 16.495586,760.040344 17.906086,753.043884 
	C18.422585,750.481995 18.048014,747.725647 17.953953,745.062439 
	C17.914104,743.934265 17.905807,742.129639 17.276747,741.804077 
	C12.108932,739.129211 14.015847,734.421692 14.003593,730.489685 
	C13.893481,695.160034 13.938614,659.829956 13.938122,624.000000 
z"/>
<path fill="#868686" opacity="1.000000" stroke="none" 
	d="
M217.000000,14.946829 
	C1434.432007,14.946812 2651.364014,14.946812 3868.674805,14.946812 
	C3868.674805,19.163477 3868.674805,23.233688 3868.674805,27.698765 
	C2602.529053,27.698765 1336.180908,27.698765 69.422714,27.698765 
	C69.422714,23.836903 69.422714,19.774939 69.422714,14.946847 
	C118.344604,14.946847 167.422302,14.946847 217.000000,14.946829 
z"/>
<path fill="#FCFCFC" opacity="1.000000" stroke="none" 
	d="
M106.118629,785.574585 
	C124.853333,785.148193 143.512863,785.165710 162.172394,785.167786 
	C203.827148,785.172485 245.481903,785.169312 287.136658,785.169373 
	C323.124664,785.169373 359.112640,785.169373 395.100647,785.169373 
	C422.921844,785.169373 450.743042,785.169373 478.564240,785.169373 
	C518.052063,785.169373 557.539917,785.169373 597.027710,785.169373 
	C624.015869,785.169373 651.003967,785.169373 677.992126,785.169373 
	C717.146729,785.169373 756.301270,785.169373 795.455872,785.169373 
	C823.444031,785.169373 851.432251,785.169373 879.420410,785.169373 
	C920.908630,785.169373 962.396790,785.169373 1003.885010,785.169373 
	C1037.539429,785.169373 1071.193848,785.169373 1104.848267,785.169373 
	C1129.503296,785.169373 1154.158325,785.169373 1178.813354,785.169373 
	C1220.634766,785.169373 1262.456055,785.169373 1304.277466,785.169373 
	C1329.598999,785.169373 1354.920654,785.169373 1380.242188,785.169373 
	C1424.563477,785.169373 1468.884888,785.169373 1513.206177,785.169373 
	C1545.194458,785.169373 1577.182617,785.169373 1609.170898,785.169373 
	C1643.825684,785.169373 1678.480591,785.169373 1713.135376,785.169373 
	C1745.123657,785.169373 1777.111816,785.169373 1809.100098,785.169373 
	C1835.755005,785.169373 1862.410034,785.169373 1889.064941,785.169373 
	C1929.719727,785.169373 1970.374390,785.169373 2011.029175,785.169373 
	C2042.517334,785.169373 2074.005371,785.169373 2105.493652,785.169373 
	C2132.315430,785.169373 2159.136963,785.169373 2185.958740,785.169373 
	C2225.780029,785.169373 2265.601562,785.169373 2305.422852,785.169373 
	C2339.911133,785.169373 2374.399170,785.169373 2408.887451,785.169373 
	C2441.708984,785.169373 2474.530273,785.169373 2507.351807,785.169373 
	C2536.006836,785.169373 2564.661865,785.169373 2593.316895,785.169373 
	C2630.971680,785.169373 2668.626465,785.169373 2706.281250,785.169373 
	C2733.269287,785.169373 2760.257324,785.169373 2787.245361,785.169373 
	C2826.566895,785.169373 2865.888428,785.169373 2905.209961,785.169373 
	C2939.864746,785.169373 2974.519775,785.169373 3009.174561,785.169373 
	C3041.162842,785.169373 3073.150879,785.169373 3105.139160,785.169373 
	C3138.627441,785.169373 3172.115479,785.169373 3205.603760,785.169373 
	C3235.758789,785.169373 3265.913574,785.169373 3296.068604,785.169373 
	C3335.056641,785.169373 3374.044434,785.169373 3413.032471,785.169373 
	C3440.020752,785.169373 3467.008789,785.169373 3493.997070,785.169373 
	C3532.985107,785.169373 3571.972900,785.169373 3610.960938,785.169373 
	C3645.782471,785.169373 3680.603760,785.169800 3715.425293,785.169373 
	C3766.915283,785.168701 3818.405518,785.167419 3870.351562,785.153442 
	C3870.344238,788.433777 3872.995117,792.388123 3867.955566,794.947876 
	C3865.670410,795.014465 3864.170410,795.006226 3862.670654,795.006226 
	C2613.292480,795.005737 1363.914429,795.006042 114.536362,795.001465 
	C111.705521,795.001465 108.874687,794.932312 106.043846,794.895447 
	C106.043716,791.934082 106.043587,788.972717 106.118629,785.574585 
z"/>
<path fill="#868686" opacity="1.000000" stroke="none" 
	d="
M3875.942627,631.000000 
	C3875.942627,434.889343 3875.942627,239.278671 3875.942627,43.321930 
	C3891.881836,43.321930 3907.615723,43.321930 3923.720703,43.321930 
	C3923.720703,293.249664 3923.720703,543.267944 3923.720703,793.648438 
	C3908.111328,793.648438 3892.374756,793.648438 3875.942627,793.648438 
	C3875.942627,739.645508 3875.942627,685.572754 3875.942627,631.000000 
z"/>
<path fill="#141414" opacity="1.000000" stroke="none" 
	d="
M106.022324,795.134644 
	C108.874687,794.932312 111.705521,795.001465 114.536362,795.001465 
	C1363.914429,795.006042 2613.292480,795.005737 3862.670654,795.006226 
	C3864.170410,795.006226 3865.670410,795.014465 3867.594238,795.132812 
	C3868.018066,795.246765 3868.016846,795.522827 3868.023438,795.651855 
	C3866.371582,795.853943 3864.713379,795.990967 3863.054932,795.991028 
	C2611.651611,796.000122 1360.248169,796.000000 108.844734,795.999634 
	C108.178146,795.999634 107.511559,795.994324 106.412048,795.922546 
	C105.979126,795.853638 106.000809,795.373779 106.022324,795.134644 
z"/>
<path fill="#868686" opacity="1.000000" stroke="none" 
	d="
M3905.000000,3.994102 
	C3912.794678,3.994101 3920.089111,3.994101 3927.702393,3.994101 
	C3927.702393,15.040567 3927.702393,25.758345 3927.702393,36.788582 
	C3910.644287,36.788582 3893.603027,36.788582 3876.244141,36.788582 
	C3876.244141,26.048786 3876.244141,15.326365 3876.244141,3.994103 
	C3885.648438,3.994103 3895.074219,3.994103 3905.000000,3.994102 
z"/>
<path fill="#868686" opacity="1.000000" stroke="none" 
	d="
M37.000031,8.012880 
	C45.450073,8.012884 53.400124,8.012884 61.666862,8.012884 
	C61.666862,17.392992 61.666862,26.422140 61.666862,35.720638 
	C45.962063,35.720638 30.396244,35.720638 14.420970,35.720638 
	C14.420970,26.793795 14.420970,17.761148 14.420970,8.012877 
	C21.684124,8.012877 29.092081,8.012877 37.000031,8.012880 
z"/>
<path fill="#868686" opacity="1.000000" stroke="none" 
	d="
M41.999683,801.012817 
	C48.786510,801.012817 55.073460,801.012817 61.671616,801.012817 
	C61.671616,810.402710 61.671616,819.431885 61.671616,828.725464 
	C45.953152,828.725464 30.387384,828.725464 14.416449,828.725464 
	C14.416449,819.783447 14.416449,810.750977 14.416449,801.012817 
	C23.359034,801.012817 32.429417,801.012817 41.999683,801.012817 
z"/>
<path fill="#868686" opacity="1.000000" stroke="none" 
	d="
M3898.000000,828.987183 
	C3890.548096,828.987183 3883.596191,828.987183 3876.330078,828.987183 
	C3876.330078,819.601196 3876.330078,810.572021 3876.330078,801.276428 
	C3892.042969,801.276428 3907.608643,801.276428 3923.581787,801.276428 
	C3923.581787,810.212830 3923.581787,819.245117 3923.581787,828.987183 
	C3915.310791,828.987183 3906.905273,828.987183 3898.000000,828.987183 
z"/>
<path fill="#868686" opacity="1.000000" stroke="none" 
	d="
M70.340187,785.977844 
	C79.735733,786.124817 88.662308,786.289429 97.586212,786.546631 
	C97.721069,786.550537 97.822899,787.700806 98.075768,789.027954 
	C88.730453,789.027954 79.661324,789.052856 70.595146,788.901062 
	C70.337662,788.896790 70.111664,787.011658 70.340187,785.977844 
z"/>
</svg>