<svg version="1.1" id="Layer_1" xmlns="http://www.w3.org/2000/svg" xmlns:xlink="http://www.w3.org/1999/xlink" x="0px" y="0px"
	 width="100%" viewBox="0 0 1965 835" enable-background="new 0 0 1965 835" xml:space="preserve">
<path fill="#020202" opacity="1.000000" stroke="none" 
	d="
M1.318431,816.271240 
	C1.000000,809.645569 1.000000,803.291199 1.000000,796.468384 
	C2.905135,794.547058 3.713595,792.770569 2.970512,790.336975 
	C1.775913,786.424744 2.602234,782.528198 2.790087,778.551941 
	C3.065989,772.711975 3.699542,767.465454 5.649336,761.696777 
	C7.808756,755.307861 8.319378,747.162292 2.997294,740.734375 
	C1.856762,739.356934 1.820353,737.570129 2.332489,735.950745 
	C3.618556,731.883850 3.412923,727.714966 3.413710,723.557312 
	C3.422516,677.060974 3.422213,630.564697 3.414106,584.068359 
	C3.413410,580.076477 3.587245,576.076843 2.358873,572.172913 
	C1.727587,570.166565 2.082134,568.198059 3.443135,566.512878 
	C5.635112,563.798828 5.716253,561.072571 3.505347,558.346802 
	C2.007501,556.500183 1.649505,554.354492 2.345086,552.218994 
	C3.510743,548.640381 3.416514,544.993103 3.416662,541.333008 
	C3.420039,457.672974 3.420664,374.012939 3.414913,290.352905 
	C3.414662,286.692535 3.559003,283.024139 2.420560,279.451416 
	C1.725964,277.271606 2.007384,275.136475 3.398257,273.269226 
	C5.828895,270.006073 5.635630,266.822327 3.310098,263.605530 
	C2.061374,261.878235 1.723675,259.883942 2.344920,257.886902 
	C3.559552,253.982330 3.415097,249.985062 3.415584,245.991287 
	C3.421273,199.328308 3.421466,152.665344 3.414921,106.002373 
	C3.414454,102.675697 3.469523,99.365135 2.416914,96.108612 
	C1.673308,93.808075 1.735262,91.413452 3.824834,89.680618 
	C5.978129,87.894928 6.451975,85.553299 6.407565,82.961090 
	C6.294272,76.348259 7.335984,69.525726 2.821387,63.725895 
	C2.415541,63.204510 2.047513,62.460228 2.210904,61.861996 
	C3.908813,55.645351 0.841829,49.339680 2.617548,43.125778 
	C3.264274,40.862644 3.797647,38.531937 1.335444,36.317169 
	C1.000000,29.645601 1.000000,23.291204 1.000000,16.468403 
	C3.972187,14.313438 4.732797,11.659398 4.587136,8.424542 
	C4.484397,6.142925 4.217934,3.760447 5.753436,1.316695 
	C26.687561,1.000000 47.375122,1.000000 68.531342,1.000000 
	C70.439835,5.923542 73.985321,6.703082 78.616631,6.565148 
	C88.439568,6.272594 98.277130,6.461882 108.108582,6.484654 
	C111.191078,6.491794 114.079453,6.147996 116.381126,3.769881 
	C118.115593,1.977804 120.360779,1.487722 122.784401,1.507390 
	C126.450111,1.537138 130.119980,1.616006 133.781174,1.482736 
	C136.756989,1.374414 139.418610,1.829049 141.450775,4.231558 
	C141.770813,4.609922 142.173477,4.927298 142.593369,5.198082 
	C146.531052,7.737443 164.502808,6.900737 168.100464,3.817875 
	C170.001648,2.188730 171.957291,1.461651 174.437790,1.482655 
	C183.768738,1.561667 193.100998,1.549873 202.432236,1.488904 
	C204.702621,1.474069 206.749695,1.771419 208.299637,3.598551 
	C210.320679,5.981033 213.004807,6.515036 215.957550,6.482121 
	C219.956131,6.437549 223.956482,6.434235 227.954926,6.483490 
	C230.895706,6.519718 233.556335,5.978652 235.724579,3.782383 
	C237.462662,2.021843 239.654968,1.477320 242.111862,1.492657 
	C251.109863,1.548823 260.108490,1.528691 269.106750,1.502825 
	C270.997864,1.497389 272.967865,1.623204 274.245056,3.007550 
	C277.451355,6.482912 281.500641,6.625755 285.742432,6.495618 
	C289.072235,6.393459 292.407440,6.510495 295.739777,6.449652 
	C297.757935,6.412805 299.898224,6.378975 301.358551,4.828138 
	C304.298004,1.706525 307.930237,1.391480 311.899323,1.469116 
	C319.728241,1.622249 327.562408,1.540295 335.394073,1.497581 
	C337.611420,1.485487 339.863983,1.539402 341.512878,3.125055 
	C344.690002,6.180317 348.510376,6.640494 352.624207,6.499107 
	C356.119690,6.378970 359.622681,6.526797 363.121033,6.441701 
	C364.953461,6.397129 366.980530,6.492057 368.311157,5.075787 
	C371.661255,1.510068 375.883484,1.415236 380.303925,1.482816 
	C387.800812,1.597429 395.300751,1.523135 402.799347,1.509118 
	C405.171204,1.504684 407.671631,1.546167 409.376984,3.300167 
	C412.247620,6.252741 415.725677,6.593386 419.481720,6.494202 
	C423.145416,6.397457 426.813690,6.532051 430.478638,6.431821 
	C432.319031,6.381490 434.343689,6.413349 435.696564,5.079814 
	C439.416351,1.413131 443.971985,1.387359 448.713013,1.478335 
	C455.875702,1.615782 463.043060,1.524494 470.208344,1.507571 
	C472.221954,1.502815 474.459442,1.249119 475.854462,2.888155 
	C478.971863,6.550942 483.045807,6.590717 487.273468,6.490030 
	C490.771088,6.406729 494.272003,6.529188 497.770569,6.427001 
	C499.803619,6.367619 501.919067,6.177194 503.329956,4.606925 
	C505.965515,1.673638 509.251099,1.405614 512.876282,1.469258 
	C521.038940,1.612561 529.206238,1.557410 537.370850,1.489072 
	C539.973633,1.467286 542.392700,1.804436 544.251099,3.771919 
	C546.388794,6.035169 549.058105,6.529756 551.997559,6.487167 
	C555.829224,6.431652 559.664368,6.404118 563.494690,6.495107 
	C566.805908,6.573766 569.771057,5.991618 572.037292,3.303391 
	C573.465454,1.609348 575.448303,1.486591 577.515442,1.495909 
	C586.846924,1.537975 596.178650,1.521378 605.510315,1.508260 
	C607.360535,1.505660 609.373230,1.332072 610.661987,2.849070 
	C613.756042,6.491228 617.835571,6.601181 622.077087,6.492075 
	C625.241211,6.410685 628.409485,6.439316 631.574768,6.480258 
	C634.522400,6.518384 637.175110,5.970773 639.249756,3.625188 
	C640.653870,2.037700 642.520630,1.491899 644.643677,1.499927 
	C654.308472,1.536474 663.973389,1.514755 673.638306,1.512702 
	C675.008728,1.512411 676.594299,1.530154 677.374878,2.580811 
	C680.860168,7.272254 685.841736,6.457764 690.621460,6.472783 
	C693.620728,6.482208 696.620667,6.521281 699.619263,6.435430 
	C701.645264,6.377425 703.776367,6.256882 705.178040,4.647675 
	C707.781738,1.658545 711.083069,1.414453 714.702820,1.472859 
	C722.865845,1.604571 731.032532,1.522533 739.197693,1.508217 
	C741.210754,1.504688 743.447327,1.251900 744.849182,2.881516 
	C747.975647,6.516285 752.040100,6.594653 756.272949,6.491583 
	C759.437195,6.414532 762.605835,6.426629 765.770508,6.486963 
	C768.716675,6.543132 771.339905,6.033865 773.434570,3.666132 
	C775.102112,1.781246 777.469788,1.510778 779.862732,1.512317 
	C788.861084,1.518104 797.859619,1.547861 806.857666,1.492833 
	C809.310364,1.477834 811.520386,1.974152 813.241028,3.769739 
	C815.388855,6.011186 818.050903,6.529548 820.993103,6.487207 
	C824.991394,6.429667 828.992065,6.432072 832.990417,6.484752 
	C835.938171,6.523590 838.584229,5.947377 840.748474,3.754709 
	C842.488953,1.991367 844.691895,1.477052 847.144897,1.492049 
	C856.309570,1.548079 865.474854,1.528962 874.639709,1.502248 
	C876.517883,1.496773 878.417114,1.510015 879.696350,3.077309 
	C882.338684,6.314839 885.882080,6.599070 889.656311,6.496795 
	C893.486389,6.393009 897.321594,6.529736 901.153259,6.439242 
	C902.985229,6.395977 904.990234,6.471373 906.332520,5.041682 
	C909.535706,1.630090 913.567200,1.400750 917.841736,1.481889 
	C924.338257,1.605203 930.839966,1.590544 937.337158,1.487453 
	C941.710693,1.418059 945.953979,1.221033 949.260315,5.011546 
	C950.628174,6.579710 952.927490,6.417324 954.931946,6.446471 
	C959.264038,6.509466 963.596741,6.456140 967.929077,6.467311 
	C970.711426,6.474486 973.189392,5.863162 975.134277,3.692669 
	C976.833557,1.796279 979.076355,1.474089 981.511963,1.490394 
	C990.509888,1.550632 999.508545,1.530729 1008.506775,1.501771 
	C1010.544434,1.495213 1012.744324,1.409962 1014.133667,2.995613 
	C1017.152893,6.441441 1021.020447,6.606364 1025.100464,6.493793 
	C1028.597412,6.397306 1032.099243,6.533852 1035.597412,6.429907 
	C1037.438599,6.375196 1039.441406,6.370814 1040.798462,5.021943 
	C1044.365601,1.476247 1048.733276,1.373397 1053.330200,1.472151 
	C1060.658936,1.629586 1067.993530,1.546000 1075.325195,1.496099 
	C1077.724121,1.479771 1080.093384,1.591040 1081.791016,3.482737 
	C1084.155029,6.117065 1087.144531,6.554752 1090.418213,6.491553 
	C1094.249390,6.417592 1098.083618,6.438519 1101.915649,6.483270 
	C1104.852051,6.517562 1107.525269,5.998328 1109.691772,3.795505 
	C1111.574463,1.881361 1113.963989,1.466991 1116.576172,1.488030 
	C1125.240723,1.557820 1133.906250,1.531719 1142.571289,1.501362 
	C1144.610962,1.494217 1146.791504,1.439897 1148.218628,2.972041 
	C1151.433105,6.423064 1155.456299,6.633652 1159.708740,6.497283 
	C1163.204834,6.385167 1166.707153,6.524939 1170.205811,6.439927 
	C1172.221924,6.390935 1174.319580,6.306555 1175.768311,4.688687 
	C1178.377563,1.775041 1181.668213,1.392535 1185.314087,1.470577 
	C1192.309570,1.620325 1199.311401,1.578177 1206.309082,1.490705 
	C1210.669800,1.436196 1214.931274,1.181210 1218.236572,4.988863 
	C1219.602051,6.561749 1221.900269,6.406507 1223.902954,6.444524 
	C1227.901611,6.520422 1231.902100,6.422948 1235.900269,6.486752 
	C1239.008057,6.536343 1241.830688,6.053592 1244.076538,3.600003 
	C1245.779663,1.739516 1248.083740,1.478001 1250.506836,1.492660 
	C1259.504883,1.547094 1268.503418,1.521625 1277.501831,1.508235 
	C1279.351074,1.505483 1281.358765,1.322803 1282.655762,2.840343 
	C1285.752930,6.463775 1289.828003,6.599887 1294.072266,6.491714 
	C1297.569580,6.402583 1301.071167,6.534439 1304.569214,6.429901 
	C1306.410278,6.374882 1308.417480,6.380055 1309.746704,4.982467 
	C1312.969238,1.594176 1316.978760,1.395692 1321.254639,1.474422 
	C1328.917358,1.615514 1336.584473,1.535334 1344.249634,1.500854 
	C1346.452026,1.490947 1348.817261,1.365702 1350.332397,3.121572 
	C1353.218262,6.465875 1356.937500,6.569066 1360.834961,6.489310 
	C1364.333008,6.417730 1367.833862,6.524377 1371.332397,6.439246 
	C1373.345215,6.390270 1375.509033,6.373298 1376.962036,4.826729 
	C1380.057129,1.532252 1383.936401,1.428049 1388.021606,1.483374 
	C1395.852173,1.589419 1403.685181,1.543604 1411.516724,1.495518 
	C1413.744995,1.481835 1416.015747,1.541488 1417.544800,3.285696 
	C1420.164185,6.274025 1423.499512,6.576551 1427.092529,6.494335 
	C1430.923340,6.406682 1434.757446,6.500278 1438.589966,6.457388 
	C1440.785645,6.432815 1443.016357,6.302257 1444.641113,4.618387 
	C1447.320068,1.841865 1450.595947,1.399759 1454.245972,1.467937 
	C1462.241699,1.617290 1470.242188,1.529958 1478.240723,1.503148 
	C1480.260864,1.496377 1482.540161,1.242345 1483.937744,2.775495 
	C1487.558228,6.747494 1492.158569,6.608926 1496.863037,6.489896 
	C1500.027344,6.409831 1503.195679,6.534357 1506.360229,6.434726 
	C1508.196167,6.376927 1510.191284,6.394601 1511.488403,4.906559 
	C1514.340210,1.634975 1517.994019,1.398478 1521.958862,1.469941 
	C1530.121338,1.617062 1538.288330,1.522244 1546.453491,1.507975 
	C1548.297241,1.504753 1550.322388,1.265877 1551.613647,2.795345 
	C1554.691895,6.441507 1558.749756,6.614136 1563.004150,6.494390 
	C1566.500977,6.395966 1570.002563,6.520723 1573.501343,6.441569 
	C1575.524048,6.395809 1577.581787,6.247221 1579.066895,4.672956 
	C1581.719482,1.860980 1585.028931,1.426280 1588.664307,1.477867 
	C1596.827881,1.593708 1604.994263,1.514825 1613.159424,1.513641 
	C1614.986084,1.513376 1617.119019,1.098349 1618.370117,2.621579 
	C1621.847412,6.855852 1626.516968,6.558670 1631.205811,6.484041 
	C1634.371216,6.433655 1637.538452,6.531282 1640.703369,6.431375 
	C1642.547852,6.373150 1644.542847,6.338702 1645.856323,4.917344 
	C1649.064697,1.445268 1653.129395,1.415685 1657.378784,1.480907 
	C1665.042236,1.598530 1672.708984,1.539333 1680.374023,1.498354 
	C1682.585693,1.486531 1684.895142,1.432037 1686.427856,3.197387 
	C1689.170654,6.356552 1692.689819,6.591534 1696.442749,6.494597 
	C1700.106445,6.399966 1703.774414,6.518752 1707.439819,6.443207 
	C1709.458374,6.401604 1711.590698,6.339187 1713.084839,4.848552 
	C1716.371216,1.570233 1720.377075,1.383352 1724.653198,1.469340 
	C1732.481934,1.626767 1740.316772,1.568475 1748.147705,1.482058 
	C1750.592407,1.455081 1752.764404,1.777587 1754.501587,3.676987 
	C1756.434448,5.790283 1758.929321,6.477688 1761.723267,6.468563 
	C1766.222168,6.453871 1770.721680,6.509397 1775.220337,6.445334 
	C1777.238037,6.416604 1779.341797,6.339110 1780.773560,4.696040 
	C1783.358887,1.729185 1786.657715,1.405216 1790.298218,1.470031 
	C1798.294312,1.612388 1806.294800,1.548571 1814.292969,1.493196 
	C1816.692017,1.476587 1819.033203,1.627815 1820.837646,3.351990 
	C1823.588745,5.980880 1826.875854,6.513577 1830.506958,6.504343 
	C1852.336060,6.448831 1874.166016,6.408072 1895.994507,6.541336 
	C1899.817017,6.564673 1902.427979,5.576751 1903.729614,1.353314 
	C1923.657715,1.000000 1943.315552,1.047337 1962.972656,0.939518 
	C1965.403687,0.926183 1966.523682,1.399629 1966.013550,3.973032 
	C1965.918213,4.453906 1966.000000,4.969890 1966.000000,5.469662 
	C1966.000000,280.843964 1965.989136,556.218262 1966.106445,831.592529 
	C1966.108032,835.544495 1964.995850,836.126770 1961.410522,836.090088 
	C1942.587891,835.897644 1923.761963,836.000000 1904.468628,836.000000 
	C1902.903320,835.051147 1901.565308,835.022095 1900.223267,835.009155 
	C1898.223389,834.989868 1896.223389,834.997803 1894.223389,834.997803 
	C1289.066650,834.997437 683.909912,834.996704 78.753166,835.018921 
	C75.777824,835.018982 72.764542,834.591553 69.411812,835.723816 
	C48.312439,836.000000 27.624876,836.000000 6.468657,836.000000 
	C3.391868,832.244751 4.815723,827.981445 4.546839,823.945557 
	C4.357804,821.108215 4.589735,818.238037 1.318431,816.271240 
z"/>
<path fill="#F6F6F6" opacity="1.000000" stroke="none" 
	d="
M1903.531372,1.000000 
	C1904.027100,8.171112 1904.026978,8.195755 1896.676636,8.165558 
	C1873.518433,8.070417 1850.360107,7.930731 1827.201782,7.883314 
	C1824.751953,7.878298 1822.546265,7.791369 1821.206177,5.360508 
	C1819.646362,2.531131 1817.224121,1.883812 1814.092773,1.954496 
	C1805.598267,2.146240 1797.096558,2.014494 1788.597656,2.007876 
	C1786.599854,2.006320 1784.229126,1.650041 1783.253296,3.803340 
	C1781.335693,8.034988 1777.871216,8.021019 1774.098022,7.880619 
	C1770.270752,7.738213 1766.422974,7.678832 1762.603760,7.907849 
	C1758.608032,8.147448 1755.017334,7.965389 1752.918701,3.804835 
	C1751.924561,1.833588 1749.950073,2.007910 1748.108765,2.010014 
	C1739.109985,2.020295 1730.111206,2.021127 1721.112427,2.011124 
	C1719.273193,2.009079 1717.221558,1.771096 1716.262451,3.738362 
	C1714.056641,8.262969 1710.070557,7.961597 1706.049316,7.876652 
	C1702.218140,7.795718 1698.378784,7.736016 1694.552612,7.896391 
	C1690.915527,8.048840 1687.608398,8.024004 1685.839478,3.939060 
	C1685.006592,2.015894 1682.968018,1.981582 1681.063721,1.988693 
	C1671.898438,2.022916 1662.732422,2.050837 1653.567627,1.980375 
	C1651.423218,1.963888 1649.505493,2.247509 1648.430786,4.263577 
	C1646.702393,7.505160 1644.045410,8.187882 1640.586060,7.927856 
	C1636.609009,7.628911 1632.583252,7.689594 1628.595337,7.904919 
	C1624.310303,8.136278 1620.372925,8.050842 1618.027100,3.574655 
	C1617.124634,1.852607 1615.297974,1.995702 1613.599731,2.000962 
	C1604.600952,2.028832 1595.601807,2.059270 1586.603638,1.983944 
	C1584.273804,1.964440 1582.156128,2.320606 1581.048340,4.508003 
	C1579.532227,7.502085 1577.161255,8.078872 1574.078491,7.917825 
	C1569.923584,7.700778 1565.740967,7.697217 1561.585327,7.904787 
	C1557.308594,8.118407 1553.332275,8.120975 1551.006348,3.587301 
	C1550.106934,1.833939 1548.250854,2.010577 1546.579102,2.011323 
	C1537.413696,2.015410 1528.248047,2.037299 1519.082886,1.996961 
	C1517.153320,1.988469 1515.231445,2.144584 1514.292847,3.992252 
	C1512.365967,7.786230 1509.176025,8.120627 1505.467407,7.906703 
	C1501.647461,7.686348 1497.799805,7.740381 1493.973145,7.894220 
	C1489.888672,8.058420 1486.020386,8.125531 1483.863647,3.651598 
	C1483.012695,1.886212 1481.160400,2.006067 1479.467285,2.008620 
	C1470.135254,2.022689 1460.802490,2.070177 1451.471436,1.973887 
	C1449.257446,1.951040 1447.399902,2.444703 1446.473999,4.458082 
	C1445.029785,7.598575 1442.541504,8.011254 1439.503540,7.894223 
	C1435.343628,7.733970 1431.169434,7.752069 1427.007690,7.888545 
	C1422.771362,8.027465 1418.703613,8.257846 1416.303345,3.603969 
	C1415.364258,1.782955 1413.207031,1.996931 1411.343506,2.002568 
	C1402.511353,2.029288 1393.678467,2.074251 1384.847534,1.971934 
	C1382.488159,1.944598 1380.503418,2.356774 1379.345825,4.535944 
	C1377.811035,7.425555 1375.479614,8.119173 1372.340698,7.931045 
	C1367.857300,7.662344 1363.340576,7.724710 1358.848267,7.902096 
	C1355.024536,8.053079 1351.621216,7.820463 1349.590698,3.842500 
	C1348.770996,2.236385 1347.009155,1.986283 1345.235107,1.994293 
	C1335.903320,2.036430 1326.570557,2.068853 1317.239380,1.975920 
	C1314.999756,1.953614 1313.264526,2.618605 1312.225098,4.532720 
	C1310.545898,7.624616 1307.948730,8.101678 1304.728394,7.913295 
	C1300.576660,7.670416 1296.397217,7.767158 1292.234375,7.884894 
	C1288.210205,7.998710 1284.283325,8.298452 1282.194214,3.666811 
	C1281.414062,1.937005 1279.527344,1.993776 1277.807983,1.999658 
	C1268.475830,2.031584 1259.143677,2.043222 1249.811768,1.995389 
	C1247.686035,1.984492 1245.796387,2.265320 1244.812988,4.418062 
	C1243.415894,7.476620 1240.966675,8.072142 1237.852417,7.917453 
	C1233.530273,7.702768 1229.182495,7.705060 1224.859009,7.904004 
	C1220.709229,8.094955 1216.896118,7.998862 1214.725830,3.595150 
	C1213.834595,1.786964 1211.984619,2.017143 1210.328857,2.016599 
	C1201.163452,2.013585 1191.997314,2.077944 1182.833130,1.971942 
	C1180.413696,1.943957 1178.489990,2.591437 1177.447021,4.748319 
	C1176.151001,7.428141 1174.106201,8.022789 1171.336060,7.907574 
	C1166.844360,7.720758 1162.332886,7.703724 1157.841919,7.897123 
	C1153.698853,8.075538 1149.851440,8.060952 1147.659668,3.632058 
	C1146.772339,1.839310 1144.917114,2.021625 1143.254028,2.020470 
	C1134.088623,2.014106 1124.923218,2.033073 1115.757812,2.001656 
	C1113.854126,1.995131 1111.947510,2.067265 1110.970703,3.959648 
	C1108.925415,7.922060 1105.457764,8.056125 1101.659302,7.895990 
	C1097.500610,7.720660 1093.320679,7.698166 1089.165039,7.908407 
	C1085.614014,8.088061 1082.580811,7.765656 1080.908447,4.015751 
	C1080.139160,2.290699 1078.438232,2.000315 1076.667725,2.004578 
	C1067.168945,2.027449 1057.670044,2.050856 1048.171753,1.981387 
	C1046.353027,1.968085 1044.766846,2.311415 1043.913818,3.936153 
	C1041.864502,7.839615 1038.468872,8.118902 1034.635132,7.906806 
	C1030.814087,7.695409 1026.971436,7.817536 1023.139404,7.872327 
	C1019.315735,7.926997 1015.495056,8.413140 1013.557678,3.726528 
	C1012.801331,1.896927 1010.548340,1.981703 1008.661865,1.989056 
	C999.496582,2.024784 990.330322,2.080857 981.166138,1.975931 
	C978.736389,1.948112 976.814697,2.596420 975.797180,4.772800 
	C974.425415,7.706662 972.129272,8.046291 969.268616,7.903995 
	C965.279114,7.705552 961.269531,7.766851 957.273376,7.883003 
	C952.767334,8.013975 948.237549,8.540103 945.725769,3.418666 
	C944.966797,1.871103 943.254822,2.007159 941.734558,2.009671 
	C932.402466,2.025089 923.070251,2.051780 913.738525,1.993384 
	C911.736145,1.980854 910.018494,2.470478 909.050232,4.226722 
	C907.263672,7.467230 904.542297,8.118252 901.097900,7.920675 
	C896.779297,7.672956 892.427856,7.695380 888.105469,7.906818 
	C884.252930,8.095270 880.842163,7.853303 878.967896,3.770065 
	C878.132812,1.950913 876.352905,2.014266 874.656677,2.016330 
	C865.324585,2.027684 855.992310,2.050493 846.660645,1.989271 
	C844.679077,1.976270 842.899902,2.341384 841.978333,4.165038 
	C840.160645,7.762136 837.120361,8.089398 833.602173,7.903512 
	C829.779907,7.701557 825.937500,7.780951 822.106689,7.865636 
	C817.940430,7.957736 813.739807,8.488331 811.615417,3.492126 
	C810.837219,1.661798 808.803406,2.024145 807.163635,2.020712 
	C797.998230,2.001521 788.832520,2.040544 779.667542,1.980143 
	C777.545410,1.966157 775.553040,2.191676 774.508789,4.231423 
	C772.808228,7.553499 770.131958,8.150139 766.681641,7.912267 
	C762.535645,7.626431 758.347839,7.711581 754.189941,7.898551 
	C750.228699,8.076674 746.591736,8.063291 744.434448,3.828264 
	C743.499512,1.992934 741.480835,1.984991 739.572876,1.994325 
	C730.574280,2.038346 721.574524,2.081088 712.577087,1.968140 
	C710.185791,1.938121 708.300110,2.474594 707.103577,4.599839 
	C705.520142,7.412309 703.157166,8.128829 700.032166,7.927541 
	C695.883179,7.660303 691.700989,7.757895 687.538940,7.887371 
	C683.334717,8.018155 679.186951,8.424970 677.000610,3.548183 
	C676.315308,2.019672 674.600647,2.000689 673.045776,2.004273 
	C663.713684,2.025781 654.380737,2.083273 645.050110,1.966006 
	C642.766052,1.937300 641.055420,2.726301 640.041260,4.556378 
	C638.324707,7.654129 635.748840,8.086627 632.547913,7.906059 
	C628.395203,7.671801 624.216675,7.769904 620.053528,7.883369 
	C616.021118,7.993271 612.057739,8.338144 610.019836,3.618309 
	C609.246399,1.826969 607.312500,2.006523 605.630432,2.008534 
	C596.298340,2.019694 586.965942,2.058021 577.634460,1.980554 
	C575.463257,1.962529 573.650391,2.364295 572.655212,4.432138 
	C571.216919,7.420853 568.845398,8.103831 565.709045,7.928388 
	C561.389648,7.686765 557.043884,7.759981 552.715088,7.889242 
	C548.628601,8.011268 544.670593,8.233377 542.607605,3.566570 
	C541.907898,1.983734 540.196228,2.019771 538.681152,2.019128 
	C529.182434,2.015098 519.683411,2.053351 510.185242,1.980276 
	C508.371338,1.966320 506.792236,2.266014 505.947754,3.922576 
	C503.930725,7.879140 500.501038,8.100163 496.673767,7.905001 
	C492.684540,7.701580 488.673706,7.750904 484.678650,7.882523 
	C480.933136,8.005919 477.483215,7.990130 475.624146,3.780500 
	C474.767639,1.841077 472.633331,2.003966 470.769470,2.007436 
	C461.770691,2.024190 452.771149,2.076145 443.773560,1.971362 
	C441.401611,1.943740 439.382355,2.427117 438.267120,4.553422 
	C436.698029,7.545034 434.241791,8.012696 431.192108,7.890202 
	C426.700195,7.709776 422.192871,7.765142 417.696594,7.886420 
	C413.970459,7.986925 410.458679,8.091762 408.566498,3.861679 
	C407.709534,1.945887 405.621307,1.998910 403.735413,2.003834 
	C394.570007,2.027766 385.404480,2.030316 376.239105,2.000782 
	C374.342896,1.994672 372.273743,1.983513 371.413788,3.882233 
	C369.507874,8.090408 366.030731,8.037724 362.280243,7.891191 
	C358.453247,7.741668 354.608948,7.712888 350.784973,7.896618 
	C346.814545,8.087382 343.188202,7.966563 341.055115,3.785570 
	C340.075043,1.864593 338.057129,2.003681 336.196686,2.006801 
	C327.197906,2.021892 318.199005,2.032504 309.200348,1.993624 
	C307.128326,1.984672 305.109711,2.042983 304.014496,4.143607 
	C302.310364,7.412193 299.623535,8.142570 296.144409,7.904357 
	C292.164093,7.631827 288.148315,7.781640 284.151062,7.878526 
	C279.964935,7.979990 275.738068,8.526939 273.631287,3.485395 
	C272.850677,1.617376 270.852539,2.016491 269.207764,2.016028 
	C260.208954,2.013495 251.210129,2.004858 242.211349,2.022700 
	C240.411560,2.026268 238.298309,1.665056 237.327545,3.658173 
	C235.264526,7.893869 231.654526,8.070698 227.673203,7.898460 
	C223.681183,7.725759 219.669205,7.715938 215.678391,7.901436 
	C212.020157,8.071474 208.718613,7.946613 206.973801,3.952019 
	C206.081238,1.908548 204.128830,2.001468 202.268417,2.004686 
	C192.936401,2.020827 183.603928,2.060834 174.272614,1.978459 
	C172.077621,1.959082 170.305511,2.433695 169.291855,4.473703 
	C167.715134,7.646917 165.081131,8.121030 161.854126,7.915897 
	C158.036575,7.673223 154.189362,7.763186 150.359940,7.876169 
	C145.871323,8.008602 141.358414,8.524433 138.924377,3.364133 
	C138.171249,1.767453 136.458755,1.990411 134.949417,2.004659 
	C131.616821,2.036119 128.271423,2.193497 124.954086,1.966265 
	C121.195358,1.708800 117.983574,2.239813 116.178535,6.016853 
	C115.421043,7.601896 114.125572,7.884702 112.481964,7.890993 
	C99.155716,7.942000 85.827858,7.968514 72.504601,8.220100 
	C66.775772,8.328280 70.045113,4.093965 69.055458,1.447471 
	C680.354248,1.000000 1291.708496,1.000000 1903.531372,1.000000 
z"/>
<path fill="#DFDFDF" opacity="1.000000" stroke="none" 
	d="
M69.466042,836.000000 
	C69.017899,834.948059 69.125793,834.031921 70.571091,834.079102 
	C72.401840,834.138855 74.236183,834.085999 76.068977,834.085999 
	C683.574463,834.085388 1291.079956,834.084045 1898.585449,834.143921 
	C1900.361816,834.144104 1902.528809,833.033203 1903.993896,835.569092 
	C1292.644043,836.000000 681.288086,836.000000 69.466042,836.000000 
z"/>
<path fill="#FBFBFB" opacity="1.000000" stroke="none" 
	d="
M1.000000,36.468658 
	C4.859570,35.499310 6.167961,37.124809 4.968454,40.795593 
	C4.402450,42.527706 3.769888,44.237972 3.191844,45.966282 
	C2.493926,48.053013 1.956057,50.120132 3.903692,51.908798 
	C5.823798,53.672169 5.618074,56.352631 4.595207,57.822205 
	C2.232276,61.217068 2.417545,62.841652 6.033008,65.375412 
	C7.746724,66.576401 7.617861,70.760277 7.849862,73.631065 
	C8.130675,77.105873 7.934825,80.621475 7.898216,84.118935 
	C7.869320,86.879524 8.877934,89.920013 4.407301,90.748825 
	C2.390187,91.122787 2.302141,93.921333 3.552742,95.383904 
	C5.194715,97.304184 4.998384,99.333130 4.998592,101.455925 
	C5.003531,151.757980 5.006546,202.060028 4.987906,252.362076 
	C4.987129,254.457489 5.385199,256.551483 3.604242,258.438171 
	C2.152820,259.975739 2.794081,261.880066 4.285805,263.299683 
	C7.912443,266.751007 7.987863,270.380676 4.428605,273.761749 
	C3.095372,275.028259 2.119694,276.876404 3.312661,278.174591 
	C5.734735,280.810272 4.969240,283.796814 4.970545,286.674255 
	C5.009753,373.120483 5.006978,459.566711 4.977447,546.012939 
	C4.976686,548.241943 5.520697,550.510254 3.542533,552.555054 
	C2.140712,554.004089 2.769438,555.990662 4.341632,557.394531 
	C8.032905,560.690674 7.989192,564.175903 4.200264,567.526245 
	C2.932587,568.647156 2.234420,570.321533 3.271495,571.507629 
	C5.827544,574.430969 4.965368,577.794006 4.968404,581.002197 
	C5.015232,630.471375 5.002658,679.940613 4.983594,729.409851 
	C4.982719,731.682617 5.391999,733.971313 3.538095,736.003235 
	C2.285153,737.376465 2.533136,739.719421 4.225394,740.308594 
	C8.036753,741.635742 7.500825,745.002930 7.734311,747.521118 
	C8.224362,752.806335 7.810592,758.169434 7.962236,763.495056 
	C8.018465,765.469788 7.035070,765.771118 5.484039,766.359863 
	C2.855085,767.357849 2.149794,769.452087 3.669982,771.992004 
	C5.594840,775.208069 5.710144,778.035461 3.353749,781.391296 
	C0.989115,784.758789 3.936862,788.056702 5.128143,791.173523 
	C6.522599,794.821838 5.520308,796.178589 1.391277,795.952637 
	C1.000000,542.979126 1.000000,289.958221 1.000000,36.468658 
z"/>
<path fill="#E5E5E5" opacity="1.000000" stroke="none" 
	d="
M1.000000,816.469055 
	C4.507068,815.329651 5.958551,816.405518 5.684158,820.314514 
	C5.340440,825.211121 5.717258,830.158325 5.891533,835.541870 
	C2.082564,836.727173 0.396995,835.621033 0.884905,831.166199 
	C1.398640,826.475586 1.000000,821.684998 1.000000,816.469055 
z"/>
<path fill="#E5E5E5" opacity="1.000000" stroke="none" 
	d="
M5.500038,1.000000 
	C5.854396,4.771081 5.384769,8.566175 5.661909,12.305928 
	C5.899487,15.511830 4.763601,16.481895 1.426587,16.059145 
	C1.000000,12.264942 1.323680,8.493382 0.907758,4.805229 
	C0.502583,1.212381 1.884915,0.386769 5.500038,1.000000 
z"/>
<path fill="#FEFEFE" opacity="1.000000" stroke="none" 
	d="
M1558.798096,33.549416 
	C1560.773560,33.143658 1562.411987,33.104866 1564.456543,33.124107 
	C1566.502197,34.695633 1566.548828,36.724628 1566.621704,38.727264 
	C1566.706543,41.058037 1566.662842,43.391224 1566.662842,45.723373 
	C1566.663818,287.773865 1566.660645,529.824341 1566.671875,771.874817 
	C1566.672485,784.429077 1565.861206,783.264343 1577.902832,783.328369 
	C1586.398438,783.373596 1594.894775,783.313599 1603.390503,783.352600 
	C1605.707397,783.363220 1608.078857,783.155273 1610.619873,784.682251 
	C1612.726807,785.042175 1614.436157,785.101746 1616.564941,785.072815 
	C1619.066528,783.158020 1621.633057,783.371765 1624.113647,783.356995 
	C1632.942505,783.304443 1641.771973,783.383789 1650.600708,783.319702 
	C1656.762939,783.274902 1657.182495,782.829468 1657.320679,776.866150 
	C1657.370850,774.701355 1657.336060,772.535034 1657.336060,770.369385 
	C1657.336426,528.318237 1657.333496,286.267120 1657.365234,44.216000 
	C1657.365601,40.767056 1656.704346,37.198658 1658.798340,33.549534 
	C1660.773560,33.143799 1662.411987,33.104965 1664.456543,33.124016 
	C1666.502319,34.695450 1666.548828,36.724480 1666.621826,38.727089 
	C1666.706665,41.057861 1666.662842,43.391052 1666.662842,45.723202 
	C1666.663818,287.773651 1666.660645,529.824097 1666.671875,771.874573 
	C1666.672485,784.428772 1665.861328,783.264343 1677.902710,783.328369 
	C1686.398560,783.373535 1694.894653,783.313599 1703.390503,783.352539 
	C1705.707397,783.363159 1708.078857,783.155151 1710.619873,784.682007 
	C1712.726440,785.041077 1714.435181,785.099792 1716.563232,785.070618 
	C1719.065552,783.158508 1721.631958,783.372192 1724.112549,783.356812 
	C1732.275024,783.306213 1740.437988,783.347229 1748.600708,783.334961 
	C1757.312256,783.321838 1757.312866,783.316589 1757.335205,774.368469 
	C1757.339844,772.536011 1757.336304,770.703552 1757.336304,768.871094 
	C1757.336304,527.319641 1757.333618,285.768250 1757.365356,44.216808 
	C1757.365723,40.767593 1756.704102,37.198929 1758.798096,33.549416 
	C1760.773560,33.143658 1762.411987,33.104866 1764.456543,33.124107 
	C1766.502197,34.695633 1766.548706,36.724632 1766.621704,38.727264 
	C1766.706543,41.058037 1766.662842,43.391224 1766.662842,45.723373 
	C1766.663818,287.773865 1766.660645,529.824341 1766.671875,771.874817 
	C1766.672485,784.429077 1765.861206,783.264282 1777.902832,783.328369 
	C1786.398438,783.373596 1794.894775,783.313599 1803.390503,783.352600 
	C1805.707397,783.363220 1808.078857,783.155273 1810.619873,784.682190 
	C1812.726807,785.042175 1814.436157,785.101746 1816.564941,785.072754 
	C1818.900757,783.282166 1821.274780,783.369080 1823.590698,783.365906 
	C1848.823120,783.331238 1874.055420,783.328857 1899.287842,783.366516 
	C1901.273560,783.369507 1903.292480,783.329224 1905.442627,784.801453 
	C1905.341431,788.432556 1907.998169,792.387573 1903.381592,795.060364 
	C1901.613647,796.365845 1899.934692,796.378601 1898.263062,796.406128 
	C1896.263672,796.439026 1894.264038,796.424622 1892.264526,796.424622 
	C1300.565552,796.424805 708.866577,796.426697 117.167633,796.389954 
	C113.714806,796.389771 110.151573,797.124268 106.429184,795.208984 
	C106.043961,791.936157 106.043243,788.976685 106.116699,785.580688 
	C108.167404,783.096802 110.764275,783.378784 113.230087,783.363586 
	C124.223091,783.295837 135.216888,783.399597 146.209610,783.308472 
	C151.697495,783.263000 152.147537,782.738892 152.314453,777.278687 
	C152.380600,775.114624 152.336334,772.948242 152.336349,770.782959 
	C152.337082,528.597656 152.333939,286.412384 152.365829,44.227104 
	C152.366287,40.774876 151.703156,37.203114 153.798492,33.550346 
	C155.773926,33.144463 157.412125,33.105633 159.456299,33.124802 
	C161.502563,34.696018 161.550812,36.725155 161.621216,38.727745 
	C161.709015,41.225124 161.662323,43.724876 161.662338,46.223602 
	C161.663315,288.107178 161.660431,529.990723 161.671509,771.874329 
	C161.672089,784.430969 160.865189,783.264221 172.902420,783.328430 
	C181.398102,783.373779 189.894257,783.313538 198.390030,783.352661 
	C200.707047,783.363281 203.078491,783.155273 205.619431,784.682434 
	C207.725967,785.040894 209.434708,785.098816 211.563110,785.069824 
	C214.065628,783.158691 216.631866,783.372253 219.112564,783.356873 
	C227.275131,783.306274 235.438049,783.347168 243.600800,783.335022 
	C252.312958,783.322021 252.313446,783.316833 252.335754,774.368469 
	C252.339920,772.702576 252.336731,771.036743 252.336731,769.370850 
	C252.336807,527.652710 252.333786,285.934601 252.365585,44.216476 
	C252.366028,40.767227 251.704391,37.198631 253.797760,33.548843 
	C255.773453,33.142635 257.412354,33.103519 259.457367,33.122681 
	C261.502197,34.695087 261.548737,36.724041 261.621582,38.726673 
	C261.706421,41.057449 261.662231,43.390636 261.662231,45.722786 
	C261.663208,287.773163 261.660156,529.823547 261.671356,771.873962 
	C261.671936,784.431519 260.865082,783.264099 272.901794,783.328369 
	C281.397491,783.373718 289.893707,783.313477 298.389465,783.352600 
	C300.706482,783.363281 303.077942,783.155334 305.618652,784.682983 
	C307.725708,785.042297 309.435028,785.100891 311.564026,785.071594 
	C314.066040,783.158386 316.632416,783.371521 319.113037,783.356873 
	C327.941956,783.304626 336.771454,783.383667 345.600189,783.319702 
	C351.762665,783.275085 352.180786,782.829468 352.321777,776.866699 
	C352.369019,774.868408 352.336639,772.868713 352.336639,770.869690 
	C352.336975,528.652100 352.333954,286.434540 352.365723,44.216980 
	C352.366180,40.767956 351.704163,37.199486 353.798645,33.550407 
	C355.773834,33.144691 357.412048,33.105751 359.456238,33.124802 
	C361.502533,34.696003 361.548462,36.725166 361.621490,38.727726 
	C361.706482,41.058491 361.662231,43.391682 361.662231,45.723827 
	C361.663208,287.774048 361.660126,529.824219 361.671326,771.874451 
	C361.671906,784.431274 360.865295,783.264160 372.902435,783.328369 
	C381.398132,783.373718 389.894318,783.313477 398.390076,783.352600 
	C400.707062,783.363220 403.078552,783.155212 405.619385,784.682495 
	C407.725952,785.040894 409.434723,785.098816 411.563171,785.069824 
	C414.065643,783.158630 416.631927,783.371521 419.112579,783.356873 
	C427.941498,783.304688 436.771057,783.384399 445.599792,783.319580 
	C451.858215,783.273621 452.223419,782.848816 452.327148,776.367371 
	C452.359161,774.368713 452.336670,772.369324 452.336670,770.370300 
	C452.336945,528.318970 452.333954,286.267670 452.365723,44.216381 
	C452.366180,40.767151 451.704468,37.198608 453.797729,33.548828 
	C455.773407,33.142643 457.412354,33.103519 459.457367,33.122681 
	C461.502197,34.695087 461.548737,36.724041 461.621582,38.726673 
	C461.706421,41.057449 461.662262,43.390636 461.662262,45.722782 
	C461.663239,287.773102 461.660126,529.823425 461.671326,771.873779 
	C461.671906,784.431213 460.864838,783.264160 472.901703,783.328369 
	C481.397400,783.373718 489.893616,783.313538 498.389374,783.352600 
	C500.706421,783.363281 503.077911,783.155334 505.618591,784.683167 
	C507.725708,785.042847 509.435181,785.101868 511.564209,785.072388 
	C514.066101,783.158508 516.632446,783.371521 519.113098,783.356873 
	C527.942017,783.304688 536.771484,783.383667 545.600281,783.319702 
	C551.762695,783.275085 552.181213,782.829163 552.321655,776.866760 
	C552.368835,774.868469 552.336365,772.868835 552.336365,770.869812 
	C552.336731,528.652222 552.333679,286.434631 552.365479,44.217056 
	C552.365906,40.768021 551.704346,37.199482 553.798645,33.550400 
	C555.773865,33.144699 557.412048,33.105759 559.456299,33.124817 
	C561.502686,34.696026 561.550781,36.725204 561.621155,38.727776 
	C561.708984,41.225147 561.662292,43.724907 561.662292,46.223633 
	C561.663391,288.107300 561.660461,529.990967 561.671509,771.874634 
	C561.672058,784.430969 560.865112,783.264282 572.902649,783.328430 
	C581.398315,783.373718 589.894470,783.313538 598.390259,783.352661 
	C600.707275,783.363281 603.078674,783.155273 605.619446,784.682495 
	C607.725952,785.040833 609.434753,785.098755 611.563232,785.069763 
	C614.065857,783.158569 616.632141,783.371582 619.112793,783.356873 
	C627.941711,783.304565 636.771179,783.383728 645.599976,783.319702 
	C651.762512,783.275085 652.181091,782.829041 652.321716,776.866821 
	C652.368896,774.868530 652.336365,772.868896 652.336365,770.869873 
	C652.336731,528.652039 652.333679,286.434204 652.365479,44.216389 
	C652.365906,40.767185 651.704651,37.198643 653.797668,33.548855 
	C655.773376,33.142658 657.412354,33.103531 659.457397,33.122684 
	C661.502075,34.695137 661.551025,36.723972 661.621216,38.726688 
	C661.708801,41.224079 661.662292,43.723831 661.662292,46.222561 
	C661.663391,288.106415 661.660400,529.990295 661.671509,771.874146 
	C661.672058,784.429565 660.863220,783.264343 672.902100,783.328430 
	C681.397766,783.373657 689.893921,783.313477 698.389709,783.352600 
	C700.706726,783.363281 703.078125,783.155518 705.618774,784.683105 
	C707.725708,785.042297 709.434998,785.100891 711.563965,785.071594 
	C714.066040,783.158386 716.632385,783.371643 719.113037,783.356934 
	C727.941956,783.304565 736.771423,783.383667 745.600220,783.319702 
	C751.762634,783.275085 752.181213,782.829041 752.321716,776.866760 
	C752.368835,774.868469 752.336365,772.868835 752.336365,770.869812 
	C752.336731,528.652222 752.333679,286.434601 752.365479,44.217014 
	C752.365906,40.768013 751.704346,37.199516 753.798584,33.550430 
	C755.773865,33.144699 757.412048,33.105755 759.456299,33.124817 
	C761.502686,34.696026 761.550781,36.725204 761.621155,38.727776 
	C761.708984,41.225147 761.662292,43.724903 761.662292,46.223629 
	C761.663391,288.107239 761.660461,529.990845 761.671509,771.874451 
	C761.672119,784.430664 760.864807,783.264221 772.902527,783.328369 
	C781.398193,783.373657 789.894348,783.313477 798.390137,783.352600 
	C800.707153,783.363281 803.078613,783.155396 805.619446,784.682495 
	C807.726501,785.042847 809.435730,785.102661 811.564209,785.072937 
	C814.065979,783.158264 816.632385,783.371582 819.112976,783.356934 
	C827.941895,783.304688 836.771423,783.383667 845.600220,783.319763 
	C851.762695,783.275146 852.181213,782.829163 852.321777,776.866821 
	C852.368896,774.868530 852.336365,772.868835 852.336365,770.869812 
	C852.336731,528.652039 852.333679,286.434235 852.365479,44.216438 
	C852.365906,40.767231 851.704651,37.198677 853.797729,33.548882 
	C855.773376,33.142654 857.412354,33.103531 859.457397,33.122684 
	C861.502075,34.695137 861.550964,36.723976 861.621155,38.726692 
	C861.708679,41.224083 861.662292,43.723831 861.662292,46.222561 
	C861.663391,288.106415 861.660400,529.990295 861.671509,771.874146 
	C861.672058,784.429565 860.863220,783.264343 872.902100,783.328430 
	C881.397766,783.373657 889.893921,783.313477 898.389709,783.352600 
	C900.706726,783.363281 903.078125,783.155518 905.618774,784.683105 
	C907.725708,785.042358 909.434998,785.100952 911.563965,785.071655 
	C914.066040,783.158386 916.632385,783.371582 919.113037,783.356873 
	C927.941956,783.304565 936.771423,783.383728 945.600220,783.319763 
	C951.762634,783.275085 952.181152,782.829102 952.321655,776.866760 
	C952.368774,774.868469 952.336365,772.868835 952.336365,770.869812 
	C952.336731,528.652222 952.333679,286.434601 952.365479,44.217014 
	C952.365906,40.768013 951.704346,37.199516 953.798584,33.550430 
	C955.773865,33.144699 957.412048,33.105755 959.456299,33.124817 
	C961.502686,34.696026 961.550842,36.725204 961.621216,38.727772 
	C961.709045,41.225147 961.662292,43.724907 961.662292,46.223633 
	C961.663391,288.107300 961.660461,529.990967 961.671509,771.874634 
	C961.672058,784.430969 960.865112,783.264282 972.902649,783.328430 
	C981.398315,783.373718 989.894470,783.313538 998.390259,783.352600 
	C1000.707275,783.363281 1003.078674,783.155273 1005.619446,784.682495 
	C1007.725952,785.040894 1009.434753,785.098755 1011.563232,785.069824 
	C1014.065857,783.158569 1016.632141,783.372375 1019.112793,783.356995 
	C1027.275391,783.306213 1035.438232,783.347229 1043.600952,783.335083 
	C1052.312256,783.322083 1052.312744,783.316833 1052.335205,774.368103 
	C1052.339722,772.535645 1052.336304,770.703186 1052.336304,768.870728 
	C1052.336304,527.319214 1052.333618,285.767731 1052.365356,44.216251 
	C1052.365723,40.767056 1051.704224,37.198471 1053.797729,33.548817 
	C1055.773438,33.142639 1057.412354,33.103519 1059.457397,33.122696 
	C1061.502441,34.694988 1061.548950,36.724014 1061.621826,38.726616 
	C1061.706543,41.057388 1061.662842,43.390579 1061.662842,45.722729 
	C1061.663818,287.773132 1061.660645,529.823547 1061.671875,771.873962 
	C1061.672485,784.429321 1060.861572,783.264282 1072.901978,783.328369 
	C1081.397705,783.373596 1089.893921,783.313538 1098.389771,783.352600 
	C1100.706665,783.363220 1103.078125,783.155396 1105.618652,784.683044 
	C1107.725708,785.042297 1109.435181,785.100891 1111.564209,785.071533 
	C1114.066284,783.158203 1116.632690,783.372375 1119.113403,783.356934 
	C1127.275879,783.306213 1135.438843,783.347229 1143.601562,783.335083 
	C1152.312256,783.322083 1152.312988,783.316833 1152.335083,774.367798 
	C1152.340088,772.368774 1152.336304,770.369690 1152.336304,768.370667 
	C1152.336304,526.986023 1152.333618,285.601379 1152.365356,44.216721 
	C1152.365723,40.767807 1151.704346,37.199425 1153.798584,33.550484 
	C1155.773804,33.144730 1157.412109,33.105766 1159.456299,33.124813 
	C1161.502441,34.696091 1161.548462,36.725208 1161.621582,38.727787 
	C1161.706665,41.058556 1161.662842,43.391743 1161.662842,45.723892 
	C1161.663818,287.774109 1161.660645,529.824280 1161.671875,771.874512 
	C1161.672485,784.428833 1160.861572,783.264343 1172.902588,783.328430 
	C1181.398438,783.373596 1189.894531,783.313538 1198.390381,783.352722 
	C1200.707153,783.363342 1203.078735,783.155151 1205.619385,784.682556 
	C1207.725952,785.040955 1209.434692,785.098877 1211.563110,785.069885 
	C1214.065552,783.158691 1216.631836,783.372253 1219.112549,783.356873 
	C1227.275024,783.306213 1235.437988,783.347229 1243.600708,783.334961 
	C1252.312256,783.321838 1252.312866,783.316650 1252.335205,774.368469 
	C1252.339844,772.536011 1252.336304,770.703552 1252.336304,768.871094 
	C1252.336304,527.319580 1252.333496,285.768127 1252.365234,44.216640 
	C1252.365601,40.767319 1251.704468,37.198658 1253.797729,33.548836 
	C1255.773438,33.142635 1257.412354,33.103516 1259.457397,33.122692 
	C1261.502441,34.695034 1261.548828,36.724083 1261.621826,38.726665 
	C1261.706665,41.057449 1261.662842,43.390648 1261.662842,45.722809 
	C1261.663818,287.774323 1261.660522,529.825806 1261.671875,771.877319 
	C1261.672485,784.438110 1260.861206,783.269043 1272.905029,783.327087 
	C1283.066772,783.376099 1293.228638,783.315979 1303.390503,783.352600 
	C1305.707397,783.360962 1308.078857,783.155334 1310.619873,784.682007 
	C1312.726440,785.041077 1314.435181,785.099792 1316.563232,785.070618 
	C1319.065552,783.158508 1321.631958,783.372192 1324.112549,783.356812 
	C1332.275024,783.306213 1340.437988,783.347290 1348.600708,783.335022 
	C1357.312256,783.321960 1357.312866,783.316650 1357.335205,774.368469 
	C1357.339844,772.536011 1357.336304,770.703552 1357.336304,768.871094 
	C1357.336304,527.319641 1357.333618,285.768250 1357.365356,44.216808 
	C1357.365723,40.767593 1356.704102,37.198929 1358.798096,33.549416 
	C1360.773560,33.143658 1362.411987,33.104866 1364.456543,33.124107 
	C1366.502197,34.695633 1366.548828,36.724628 1366.621704,38.727264 
	C1366.706665,41.058033 1366.662842,43.391224 1366.662842,45.723373 
	C1366.663818,287.773865 1366.660645,529.824341 1366.671875,771.874817 
	C1366.672485,784.429077 1365.861206,783.264343 1377.902832,783.328369 
	C1386.398438,783.373596 1394.894775,783.313538 1403.390503,783.352600 
	C1405.707397,783.363220 1408.078857,783.155273 1410.619873,784.682190 
	C1412.726807,785.042175 1414.436157,785.101746 1416.564941,785.072754 
	C1419.066528,783.158020 1421.633057,783.371765 1424.113647,783.356995 
	C1432.942505,783.304443 1441.771973,783.383789 1450.600708,783.319641 
	C1456.762939,783.274902 1457.182495,782.829468 1457.320679,776.866150 
	C1457.370850,774.701355 1457.336060,772.535034 1457.336060,770.369385 
	C1457.336426,528.318237 1457.333496,286.267120 1457.365234,44.216000 
	C1457.365601,40.767056 1456.704346,37.198658 1458.798340,33.549534 
	C1460.773560,33.143799 1462.411987,33.104965 1464.456543,33.124016 
	C1466.502319,34.695450 1466.548706,36.724483 1466.621704,38.727093 
	C1466.706543,41.057865 1466.662842,43.391052 1466.662842,45.723202 
	C1466.663818,287.773651 1466.660645,529.824097 1466.671875,771.874573 
	C1466.672485,784.428772 1465.861328,783.264343 1477.902710,783.328369 
	C1486.398560,783.373535 1494.894653,783.313599 1503.390503,783.352539 
	C1505.707397,783.363159 1508.078857,783.155151 1510.619873,784.681946 
	C1512.726440,785.041016 1514.435181,785.099792 1516.563232,785.070557 
	C1519.065552,783.158508 1521.631958,783.372192 1524.112549,783.356873 
	C1532.275024,783.306274 1540.437988,783.347290 1548.600708,783.335022 
	C1557.312256,783.321960 1557.312866,783.316650 1557.335205,774.368469 
	C1557.339844,772.536011 1557.336304,770.703552 1557.336304,768.871094 
	C1557.336304,527.319641 1557.333618,285.768250 1557.365356,44.216808 
	C1557.365723,40.767593 1556.704102,37.198929 1558.798096,33.549416 
z"/>
<path fill="#868686" opacity="1.000000" stroke="none" 
	d="
M1905.874268,784.666870 
	C1876.510620,785.140259 1847.211914,785.139771 1817.448853,785.061768 
	C1816.991943,536.724670 1816.999512,288.465118 1817.006592,40.205551 
	C1817.006714,33.056744 1817.005249,33.056503 1824.075684,33.056194 
	C1850.234619,33.055038 1876.394165,33.138035 1902.551880,32.959221 
	C1906.319580,32.933464 1907.966797,33.931580 1907.059692,37.625973 
	C1905.323730,44.696144 1906.238770,51.850212 1906.237549,58.956524 
	C1906.202148,272.226410 1906.223389,485.496277 1906.248657,698.766174 
	C1906.251221,720.259399 1906.375000,741.752563 1906.359985,763.245789 
	C1906.355225,770.228271 1906.087036,777.210693 1905.874268,784.666870 
z"/>
<path fill="#868686" opacity="1.000000" stroke="none" 
	d="
M1902.549561,795.633301 
	C1905.043823,800.328003 1903.854980,805.161865 1903.906982,809.869080 
	C1903.965088,815.137878 1906.242554,822.168884 1902.949829,825.185120 
	C1900.100220,827.795288 1893.164917,826.051453 1888.035645,826.051636 
	C1283.576538,826.070129 679.117493,826.066956 74.658394,826.167419 
	C70.250046,826.168152 68.580658,825.287292 68.890648,820.554199 
	C69.336273,813.750488 69.158180,806.890930 68.936623,800.065247 
	C68.832924,796.870605 69.699753,795.783020 73.045349,795.846924 
	C83.707184,796.050781 94.375549,795.912659 105.506287,795.863525 
	C107.597023,795.268738 109.278076,795.526184 110.931984,795.526184 
	C707.141174,795.513977 1303.350342,795.514099 1899.559570,795.514099 
	C1900.392700,795.514099 1901.225952,795.513245 1902.549561,795.633301 
z"/>
<path fill="#868686" opacity="1.000000" stroke="none" 
	d="
M35.000149,794.018494 
	C28.667681,794.018066 22.833038,793.925720 17.003702,794.061401 
	C14.598102,794.117432 13.820617,793.279358 13.887644,790.907166 
	C14.028787,785.911926 13.923646,780.909790 13.927083,775.910522 
	C13.927539,775.247314 13.720845,774.170959 14.032660,773.981689 
	C21.004282,769.747253 17.158699,762.959290 17.896767,757.330200 
	C18.390743,753.562805 17.948166,749.676697 17.990553,745.844421 
	C18.017408,743.416382 17.865501,741.203857 15.165900,740.057739 
	C12.780836,739.045227 13.994253,736.826233 13.991753,735.224915 
	C13.916280,686.898560 13.930248,638.572144 13.928488,590.245667 
	C13.928032,577.747437 13.916501,565.249207 13.923244,552.750977 
	C13.924444,550.526062 13.311815,548.154419 16.380859,547.054565 
	C17.918041,546.503723 17.985806,544.692993 17.982500,543.141541 
	C17.965818,535.309509 17.980301,527.477417 17.946932,519.645508 
	C17.942066,518.503479 18.190081,516.905640 17.055647,516.433533 
	C12.897836,514.703247 13.944307,511.188416 13.943441,508.064667 
	C13.926732,447.739929 13.935191,387.415161 13.935461,327.090424 
	C13.935472,324.711609 13.264920,322.212891 16.689405,321.219940 
	C18.356594,320.736511 17.950848,318.695648 17.957809,317.228394 
	C17.987856,310.896088 18.003315,304.563538 17.978924,298.231232 
	C17.967718,295.322540 18.744040,292.149292 14.740579,290.792236 
	C13.251580,290.287476 13.957699,288.424835 13.957085,287.188354 
	C13.926392,225.364120 13.930855,163.539902 13.934581,101.715668 
	C13.934687,99.957855 13.475463,98.090805 16.108160,97.503471 
	C17.519829,97.188538 17.958067,95.707520 17.954445,94.270958 
	C17.933020,85.773270 17.911427,77.275558 17.874577,68.777924 
	C17.872440,68.284882 17.912834,67.517845 17.636389,67.339966 
	C11.315875,63.272945 14.311743,56.949638 14.039783,51.601162 
	C13.602284,42.997066 13.910889,42.981030 22.502846,42.981564 
	C36.500854,42.982437 50.500046,42.886677 64.495995,43.056931 
	C67.774567,43.096809 69.644318,42.563591 69.013206,38.817257 
	C68.518394,35.879986 69.559624,34.836105 72.770424,34.839134 
	C82.071899,34.847912 82.063698,34.674507 82.063637,44.271885 
	C82.062027,286.737396 82.047028,529.202942 82.168930,771.668396 
	C82.171432,776.642517 81.278503,778.440918 75.840057,778.219604 
	C62.886459,777.692566 62.763474,777.993896 62.153778,790.906555 
	C62.017551,793.791565 60.808529,794.078064 58.496181,794.051208 
	C50.831734,793.962158 43.165600,794.018127 35.000149,794.018494 
z"/>
<path fill="#868686" opacity="1.000000" stroke="none" 
	d="
M153.660889,33.133240 
	C154.089462,35.347496 154.002716,37.511700 154.002670,39.675900 
	C153.996689,285.904327 154.001465,532.132751 153.977707,778.361145 
	C153.976944,786.251648 155.155045,785.116516 147.086090,785.158691 
	C133.758820,785.228455 120.430901,785.175415 106.647064,785.159058 
	C105.900185,784.044067 106.411926,782.323120 105.271416,781.927673 
	C100.656288,780.327393 101.962517,776.579773 101.962212,773.378967 
	C101.939636,533.890930 101.936485,294.402924 102.003990,54.914928 
	C102.004814,51.985291 100.660957,48.755238 104.497078,46.234673 
	C105.860519,45.338802 105.232758,40.872833 104.927025,38.101345 
	C104.455421,33.826416 106.118286,32.881813 110.190231,32.956711 
	C124.518089,33.220264 138.853485,33.073967 153.660889,33.133240 
z"/>
<path fill="#868686" opacity="1.000000" stroke="none" 
	d="
M1311.000488,784.515015 
	C1295.191650,785.048096 1279.364624,785.050720 1263.539795,785.236389 
	C1260.602295,785.270813 1259.690063,784.195496 1259.974487,781.461670 
	C1260.128906,779.978027 1260.000854,778.465088 1260.000854,776.965332 
	C1260.000854,531.006958 1260.000977,285.048553 1259.998169,39.090145 
	C1259.998169,37.424339 1259.957397,35.758530 1259.899658,33.636856 
	C1275.693237,33.140022 1291.523560,33.157555 1307.352173,33.003281 
	C1310.146729,32.976040 1311.423950,33.757030 1311.004028,36.636230 
	C1310.932617,37.125744 1310.994385,37.634644 1310.994385,38.134586 
	C1310.990723,286.772308 1310.986938,535.410034 1311.000488,784.515015 
z"/>
<path fill="#868686" opacity="1.000000" stroke="none" 
	d="
M1959.065430,106.000000 
	C1959.065430,333.629181 1959.048096,560.758362 1959.180664,787.887512 
	C1959.183594,792.815613 1958.183105,794.343689 1953.027710,794.159058 
	C1940.878662,793.723877 1928.697754,793.803284 1916.541870,794.130066 
	C1911.995850,794.252258 1910.819458,793.022522 1910.825928,788.437378 
	C1910.966797,688.120789 1910.934082,587.804016 1910.933716,487.487244 
	C1910.933350,341.344696 1910.960083,195.202103 1910.811035,49.059708 
	C1910.805908,44.102711 1911.832031,42.647415 1916.959106,42.826153 
	C1929.442017,43.261330 1941.952637,43.123638 1954.446167,42.894104 
	C1958.114014,42.826721 1959.215576,43.689369 1959.173340,47.511684 
	C1958.959595,66.839165 1959.069214,86.170204 1959.065430,106.000000 
z"/>
<path fill="#868686" opacity="1.000000" stroke="none" 
	d="
M1811.000244,784.515259 
	C1796.690918,785.045898 1782.364014,785.068115 1768.038086,785.212158 
	C1765.579956,785.236816 1764.798584,784.273560 1764.979492,781.973022 
	C1765.109619,780.316956 1765.001465,778.642212 1765.001465,776.975830 
	C1765.001465,531.014282 1765.001709,285.052673 1764.999023,39.091106 
	C1764.999023,37.425301 1764.957520,35.759495 1764.898926,33.637913 
	C1779.025757,33.140453 1793.189819,33.163425 1807.351685,33.001934 
	C1810.147461,32.970047 1811.423218,33.755146 1811.003662,36.634430 
	C1810.932373,37.123955 1810.994263,37.632870 1810.994263,38.132812 
	C1810.990601,286.771210 1810.986694,535.409607 1811.000244,784.515259 
z"/>
<path fill="#868686" opacity="1.000000" stroke="none" 
	d="
M905.998901,784.516357 
	C891.856628,785.049072 877.695984,785.044800 863.537964,785.236694 
	C860.597046,785.276550 859.679810,784.189697 859.977356,781.459900 
	C860.120911,780.142517 860.001404,778.796387 860.001404,777.463318 
	C860.001282,531.338928 860.001404,285.214539 859.998535,39.090149 
	C859.998474,37.424332 859.957642,35.758518 859.899658,33.636833 
	C874.026733,33.139545 888.190735,33.162666 902.352661,33.001667 
	C905.149902,32.969868 906.422852,33.759899 906.004333,36.637150 
	C905.933105,37.126751 905.994019,37.635582 905.993958,38.135525 
	C905.989746,286.773346 905.985596,535.411194 905.998901,784.516357 
z"/>
<path fill="#868686" opacity="1.000000" stroke="none" 
	d="
M1711.000488,784.515015 
	C1696.691040,785.046082 1682.363892,785.067688 1668.037964,785.213806 
	C1665.575806,785.238953 1664.800537,784.275452 1664.979980,781.976990 
	C1665.109375,780.320801 1665.001953,778.646179 1665.001953,776.979797 
	C1665.001831,531.183472 1665.001953,285.387207 1664.999146,39.590897 
	C1664.999146,37.758438 1664.957275,35.925980 1664.898804,33.637711 
	C1679.025879,33.140629 1693.189819,33.163803 1707.351685,33.003117 
	C1710.146362,32.971401 1711.423828,33.756195 1711.004028,36.635841 
	C1710.932617,37.125343 1710.994507,37.634258 1710.994507,38.134201 
	C1710.990845,286.772064 1710.986938,535.409912 1711.000488,784.515015 
z"/>
<path fill="#868686" opacity="1.000000" stroke="none" 
	d="
M1611.000244,784.515259 
	C1596.690918,785.045898 1582.364014,785.068115 1568.038086,785.212097 
	C1565.579956,785.236816 1564.798706,784.273560 1564.979370,781.973022 
	C1565.109619,780.316956 1565.001465,778.642212 1565.001465,776.975830 
	C1565.001587,531.014282 1565.001831,285.052673 1564.999146,39.091106 
	C1564.999146,37.425301 1564.957642,35.759495 1564.898926,33.637913 
	C1579.025757,33.140453 1593.189819,33.163429 1607.351685,33.001938 
	C1610.147461,32.970051 1611.423462,33.755184 1611.003906,36.634464 
	C1610.932617,37.123993 1610.994019,37.632870 1610.994019,38.132812 
	C1610.990479,286.771210 1610.986694,535.409607 1611.000244,784.515259 
z"/>
<path fill="#868686" opacity="1.000000" stroke="none" 
	d="
M1511.000488,784.515015 
	C1496.691040,785.046021 1482.363892,785.067749 1468.037964,785.213867 
	C1465.575806,785.239014 1464.800781,784.275452 1464.980225,781.977051 
	C1465.109497,780.320862 1465.001709,778.646179 1465.001709,776.979797 
	C1465.001709,531.183472 1465.001953,285.387207 1464.999268,39.590897 
	C1464.999146,37.758438 1464.957397,35.925980 1464.898926,33.637711 
	C1479.025879,33.140633 1493.189819,33.163811 1507.351685,33.003117 
	C1510.146362,32.971405 1511.423706,33.756176 1511.003906,36.635826 
	C1510.932617,37.125343 1510.994385,37.634258 1510.994385,38.134201 
	C1510.990723,286.772064 1510.986938,535.409912 1511.000488,784.515015 
z"/>
<path fill="#868686" opacity="1.000000" stroke="none" 
	d="
M1411.000244,784.515259 
	C1396.690918,785.045898 1382.364014,785.068054 1368.038086,785.212097 
	C1365.579956,785.236816 1364.798584,784.273560 1364.979492,781.973022 
	C1365.109619,780.316956 1365.001587,778.642212 1365.001587,776.975830 
	C1365.001587,531.014282 1365.001831,285.052673 1364.999146,39.091106 
	C1364.999146,37.425301 1364.957642,35.759495 1364.898926,33.637913 
	C1379.025757,33.140453 1393.189819,33.163425 1407.351685,33.001934 
	C1410.147461,32.970047 1411.423462,33.755184 1411.003906,36.634464 
	C1410.932617,37.123993 1410.994019,37.632870 1410.994019,38.132812 
	C1410.990479,286.771210 1410.986694,535.409607 1411.000244,784.515259 
z"/>
<path fill="#868686" opacity="1.000000" stroke="none" 
	d="
M1206.000122,784.515747 
	C1191.690674,785.046875 1177.363525,785.068420 1163.037842,785.215149 
	C1160.574463,785.240295 1159.801025,784.276917 1159.980225,781.978943 
	C1160.109375,780.322632 1160.001709,778.648071 1160.001709,776.981628 
	C1160.001709,531.018372 1160.001831,285.055145 1159.999146,39.091885 
	C1159.999023,37.426029 1159.957153,35.760174 1159.898560,33.638573 
	C1174.025513,33.140308 1188.189575,33.162235 1202.351440,33.000317 
	C1205.147217,32.968349 1206.423340,33.755028 1206.003906,36.634201 
	C1205.932495,37.123749 1205.993774,37.632622 1205.993774,38.132565 
	C1205.990112,286.771179 1205.986572,535.409790 1206.000122,784.515747 
z"/>
<path fill="#868686" opacity="1.000000" stroke="none" 
	d="
M1105.999023,784.516357 
	C1091.856567,785.049072 1077.695923,785.044739 1063.537842,785.236633 
	C1060.597168,785.276489 1059.691040,784.190796 1059.974731,781.459717 
	C1060.128784,779.976013 1060.000854,778.463135 1060.000854,776.963379 
	C1060.000854,531.005615 1060.000977,285.047852 1059.998169,39.090084 
	C1059.998047,37.424297 1059.957520,35.758511 1059.899658,33.636856 
	C1074.026733,33.139561 1088.190796,33.162655 1102.352661,33.001694 
	C1105.149658,32.969898 1106.423096,33.759575 1106.004272,36.637150 
	C1105.932983,37.126720 1105.994141,37.635574 1105.994141,38.135517 
	C1105.989868,286.773346 1105.985718,535.411194 1105.999023,784.516357 
z"/>
<path fill="#868686" opacity="1.000000" stroke="none" 
	d="
M1006.000000,784.515686 
	C991.690552,785.046814 977.363586,785.068298 963.037842,785.215088 
	C960.574158,785.240295 959.801208,784.276306 959.980164,781.978821 
	C960.109070,780.322510 960.002075,778.647949 960.002075,776.981506 
	C960.002014,531.184937 960.002319,285.388336 959.999451,39.591747 
	C959.999451,37.759270 959.957214,35.926792 959.898560,33.638569 
	C974.025574,33.140308 988.189575,33.162262 1002.351501,33.000298 
	C1005.147400,32.968319 1006.423096,33.755493 1006.003906,36.634266 
	C1005.932617,37.123844 1005.993530,37.632694 1005.993530,38.132637 
	C1005.989990,286.771240 1005.986389,535.409790 1006.000000,784.515686 
z"/>
<path fill="#868686" opacity="1.000000" stroke="none" 
	d="
M806.000000,784.515686 
	C791.690613,785.046814 777.363647,785.068298 763.037903,785.215088 
	C760.574219,785.240295 759.801147,784.276367 759.980103,781.978821 
	C760.109131,780.322571 760.002136,778.647949 760.002136,776.981567 
	C760.002075,531.184998 760.002258,285.388397 759.999390,39.591797 
	C759.999390,37.759304 759.957214,35.926807 759.898560,33.638569 
	C774.025574,33.140308 788.189575,33.162262 802.351501,33.000298 
	C805.147400,32.968319 806.423096,33.755493 806.003906,36.634266 
	C805.932617,37.123844 805.993530,37.632694 805.993530,38.132637 
	C805.989990,286.771240 805.986389,535.409790 806.000000,784.515686 
z"/>
<path fill="#868686" opacity="1.000000" stroke="none" 
	d="
M705.998901,784.516357 
	C691.856628,785.049072 677.695984,785.044739 663.537964,785.236633 
	C660.597046,785.276489 659.679749,784.189636 659.977295,781.459900 
	C660.120850,780.142456 660.001465,778.796387 660.001465,777.463318 
	C660.001343,531.338928 660.001404,285.214539 659.998535,39.090149 
	C659.998474,37.424332 659.957642,35.758518 659.899658,33.636833 
	C674.026733,33.139545 688.190735,33.162674 702.352661,33.001675 
	C705.149902,32.969868 706.422913,33.759907 706.004395,36.637157 
	C705.933167,37.126759 705.993958,37.635582 705.993896,38.135525 
	C705.989685,286.773346 705.985596,535.411194 705.998901,784.516357 
z"/>
<path fill="#868686" opacity="1.000000" stroke="none" 
	d="
M206.000046,784.515686 
	C191.690659,785.046814 177.363647,785.068298 163.037918,785.215088 
	C160.574356,785.240295 159.801056,784.276733 159.980194,781.978943 
	C160.109329,780.322632 160.002380,778.648071 160.002380,776.981628 
	C160.002304,531.184998 160.002533,285.388367 159.999649,39.591713 
	C159.999619,37.759239 159.957321,35.926765 159.898514,33.638550 
	C174.025528,33.140293 188.189514,33.162231 202.351425,33.000305 
	C205.147247,32.968334 206.423294,33.755222 206.003922,36.634190 
	C205.932617,37.123764 205.993546,37.632614 205.993530,38.132557 
	C205.989960,286.771179 205.986420,535.409790 206.000046,784.515686 
z"/>
<path fill="#868686" opacity="1.000000" stroke="none" 
	d="
M305.998962,784.516357 
	C291.856628,785.049072 277.695953,785.044739 263.537933,785.236633 
	C260.597260,785.276489 259.679596,784.190002 259.977386,781.459961 
	C260.121094,780.142517 260.001587,778.796448 260.001587,777.463318 
	C260.001495,531.505554 260.001617,285.547760 259.998688,39.589962 
	C259.998657,37.757542 259.957672,35.925117 259.899628,33.636833 
	C274.026733,33.139549 288.190704,33.162666 302.352631,33.001690 
	C305.149841,32.969894 306.422974,33.759808 306.004333,36.637207 
	C305.933105,37.126804 305.993958,37.635628 305.993958,38.135571 
	C305.989838,286.773376 305.985687,535.411194 305.998962,784.516357 
z"/>
<path fill="#868686" opacity="1.000000" stroke="none" 
	d="
M606.000000,784.515686 
	C591.690552,785.046814 577.363586,785.068298 563.037842,785.215088 
	C560.574158,785.240295 559.801208,784.276306 559.980164,781.978821 
	C560.109131,780.322510 560.002136,778.647949 560.002136,776.981506 
	C560.002075,531.184937 560.002258,285.388336 559.999390,39.591747 
	C559.999390,37.759270 559.957275,35.926792 559.898560,33.638569 
	C574.025574,33.140308 588.189575,33.162254 602.351501,33.000294 
	C605.147400,32.968315 606.423157,33.755501 606.003967,36.634274 
	C605.932678,37.123856 605.993530,37.632694 605.993530,38.132637 
	C605.989990,286.771240 605.986389,535.409790 606.000000,784.515686 
z"/>
<path fill="#868686" opacity="1.000000" stroke="none" 
	d="
M406.000061,784.515686 
	C391.690613,785.046814 377.363617,785.068420 363.037903,785.215149 
	C360.574371,785.240295 359.801056,784.276733 359.980255,781.978882 
	C360.109406,780.322571 360.002441,778.648010 360.002441,776.981567 
	C360.002350,531.184937 360.002563,285.388336 359.999664,39.591717 
	C359.999664,37.759235 359.957367,35.926758 359.898499,33.638535 
	C374.025482,33.140285 388.189484,33.162231 402.351379,33.000309 
	C405.147156,32.968342 406.423218,33.755177 406.003906,36.634167 
	C405.932617,37.123737 405.993530,37.632587 405.993530,38.132530 
	C405.989990,286.771149 405.986450,535.409790 406.000061,784.515686 
z"/>
<path fill="#868686" opacity="1.000000" stroke="none" 
	d="
M505.998901,784.516541 
	C491.856445,785.049133 477.695709,785.044800 463.537628,785.236694 
	C460.596527,785.276489 459.679779,784.189270 459.977417,781.459656 
	C460.121063,780.142212 460.001617,778.796143 460.001617,777.463013 
	C460.001526,531.505310 460.001617,285.547638 459.998688,39.589962 
	C459.998657,37.757542 459.957672,35.925117 459.899628,33.636833 
	C474.026733,33.139545 488.190704,33.162659 502.352631,33.001682 
	C505.149841,32.969887 506.423004,33.759830 506.004364,36.637226 
	C505.933105,37.126816 505.993988,37.635639 505.993988,38.135582 
	C505.989868,286.773468 505.985687,535.411316 505.998901,784.516541 
z"/>
<path fill="#868686" opacity="1.000000" stroke="none" 
	d="
M453.659637,33.132450 
	C454.089203,35.346493 454.004364,37.511215 454.004303,39.675938 
	C453.998230,285.958405 454.001984,532.240906 453.981873,778.523376 
	C453.981262,786.058472 455.072906,785.134155 447.403473,785.164490 
	C435.906342,785.209900 424.408813,785.153748 412.447144,785.061890 
	C411.990906,536.685181 411.999054,288.387421 412.006897,40.089634 
	C412.007111,33.054863 412.005707,33.052292 419.189880,33.056610 
	C430.521515,33.063427 441.853149,33.074093 453.659637,33.132450 
z"/>
<path fill="#868686" opacity="1.000000" stroke="none" 
	d="
M253.659698,33.132439 
	C254.089218,35.346474 254.004257,37.511196 254.004211,39.675919 
	C253.998138,285.958466 254.001862,532.241028 253.981812,778.523560 
	C253.981201,786.058960 255.072266,785.134094 247.403290,785.164490 
	C235.906189,785.209961 224.408707,785.153748 212.447083,785.061890 
	C211.990891,536.685181 211.999084,288.387421 212.006943,40.089638 
	C212.007156,33.054863 212.005692,33.052292 219.189850,33.056614 
	C230.521515,33.063427 241.853180,33.074093 253.659698,33.132439 
z"/>
<path fill="#868686" opacity="1.000000" stroke="none" 
	d="
M1758.660034,33.133656 
	C1759.089478,35.347176 1759.004150,37.511906 1759.004028,39.676636 
	C1758.998291,285.962555 1759.002197,532.248474 1758.983032,778.534424 
	C1758.982422,786.202759 1759.995728,785.117920 1752.404297,785.158081 
	C1740.907104,785.218872 1729.409180,785.151794 1717.447144,785.060852 
	C1716.990845,536.684937 1716.999268,288.387177 1717.007202,40.089432 
	C1717.007324,33.056252 1717.005493,33.052734 1724.190186,33.056889 
	C1735.521851,33.063446 1746.853516,33.075272 1758.660034,33.133656 
z"/>
<path fill="#868686" opacity="1.000000" stroke="none" 
	d="
M1658.660156,33.133694 
	C1659.089355,35.513988 1659.003540,37.845348 1659.003418,40.176708 
	C1658.997559,286.295044 1659.001953,532.413330 1658.980591,778.531677 
	C1658.979980,786.095154 1660.089966,785.126648 1652.405762,785.161499 
	C1640.908569,785.213684 1629.410767,785.152405 1617.448853,785.061768 
	C1616.991943,536.687134 1616.999512,288.390045 1617.006592,40.092937 
	C1617.006714,33.056614 1617.005371,33.052967 1624.190308,33.057014 
	C1635.521973,33.063393 1646.853516,33.075230 1658.660156,33.133694 
z"/>
<path fill="#868686" opacity="1.000000" stroke="none" 
	d="
M353.660797,33.133705 
	C354.089569,35.348362 354.003235,37.513100 354.003204,39.677834 
	C353.997284,285.965027 354.001465,532.252258 353.980530,778.539429 
	C353.979858,786.154480 355.056091,785.123901 347.405334,785.160889 
	C335.908020,785.216431 324.410156,785.152405 312.448059,785.061462 
	C311.991364,536.685852 311.999176,288.388062 312.006561,40.090229 
	C312.006775,33.056484 312.004883,33.053024 319.191101,33.056969 
	C330.522736,33.063187 341.854340,33.074585 353.660797,33.133705 
z"/>
<path fill="#868686" opacity="1.000000" stroke="none" 
	d="
M1558.660156,33.133656 
	C1559.089478,35.347176 1559.004395,37.511906 1559.004272,39.676636 
	C1558.998413,285.962555 1559.002197,532.248474 1558.983032,778.534424 
	C1558.982422,786.202759 1559.995728,785.117920 1552.404297,785.158081 
	C1540.907104,785.218872 1529.409180,785.151855 1517.447144,785.060913 
	C1516.990845,536.684937 1516.999146,288.387177 1517.007080,40.089432 
	C1517.007202,33.056252 1517.005493,33.052731 1524.190186,33.056889 
	C1535.521851,33.063446 1546.853516,33.075272 1558.660156,33.133656 
z"/>
<path fill="#868686" opacity="1.000000" stroke="none" 
	d="
M1458.660156,33.133694 
	C1459.089355,35.513992 1459.003540,37.845348 1459.003418,40.176708 
	C1458.997559,286.295044 1459.001953,532.413330 1458.980591,778.531677 
	C1458.979980,786.095154 1460.089966,785.126709 1452.405762,785.161560 
	C1440.908569,785.213745 1429.410767,785.152405 1417.448853,785.061768 
	C1416.991943,536.687134 1416.999512,288.390045 1417.006592,40.092937 
	C1417.006714,33.056614 1417.005371,33.052967 1424.190308,33.057014 
	C1435.521973,33.063393 1446.853516,33.075230 1458.660156,33.133694 
z"/>
<path fill="#868686" opacity="1.000000" stroke="none" 
	d="
M753.660767,33.133713 
	C754.089661,35.348373 754.003479,37.513111 754.003418,39.677845 
	C753.997559,285.798370 753.998108,531.918884 753.998108,778.039429 
	C753.998169,785.178040 753.997620,785.182983 746.905640,785.177368 
	C735.574585,785.168518 724.243530,785.152283 712.448059,785.061462 
	C711.991394,536.685852 711.999207,288.387970 712.006592,40.090099 
	C712.006836,33.056480 712.004883,33.053024 719.191223,33.056965 
	C730.522766,33.063183 741.854370,33.074581 753.660767,33.133713 
z"/>
<path fill="#868686" opacity="1.000000" stroke="none" 
	d="
M1358.660156,33.133656 
	C1359.089600,35.347176 1359.004395,37.511906 1359.004272,39.676636 
	C1358.998413,285.962555 1359.002197,532.248474 1358.983032,778.534424 
	C1358.982422,786.202759 1359.995728,785.117981 1352.404297,785.158081 
	C1340.907104,785.218872 1329.409180,785.151794 1317.447144,785.060852 
	C1316.990845,536.684937 1316.999146,288.387177 1317.007080,40.089432 
	C1317.007202,33.056252 1317.005493,33.052731 1324.190186,33.056889 
	C1335.521851,33.063442 1346.853516,33.075272 1358.660156,33.133656 
z"/>
<path fill="#868686" opacity="1.000000" stroke="none" 
	d="
M1253.659668,33.132446 
	C1254.089478,35.346481 1254.004883,37.511204 1254.004883,39.675926 
	C1253.998779,285.958344 1254.002808,532.240784 1253.982544,778.523193 
	C1253.981934,786.060364 1255.071167,785.134033 1247.403687,785.164429 
	C1235.906372,785.210022 1224.408813,785.153748 1212.447021,785.061890 
	C1211.990845,536.685181 1211.999023,288.387390 1212.006714,40.089558 
	C1212.006958,33.054867 1212.005615,33.052292 1219.189941,33.056610 
	C1230.521606,33.063423 1241.853149,33.074097 1253.659668,33.132446 
z"/>
<path fill="#868686" opacity="1.000000" stroke="none" 
	d="
M553.660767,33.133713 
	C554.089600,35.348373 554.003418,37.513107 554.003357,39.677845 
	C553.997559,285.798279 553.998108,531.918762 553.998108,778.039185 
	C553.998169,785.178040 553.997620,785.183044 546.905823,785.177307 
	C535.574768,785.168213 524.243774,785.151611 512.448242,785.061035 
	C511.991455,536.685913 511.999176,288.388000 512.006531,40.090057 
	C512.006775,33.056480 512.004883,33.053024 519.191223,33.056969 
	C530.522766,33.063183 541.854370,33.074577 553.660767,33.133713 
z"/>
<path fill="#868686" opacity="1.000000" stroke="none" 
	d="
M1153.660645,33.133736 
	C1154.089844,35.348431 1154.004028,37.513168 1154.003906,39.677906 
	C1153.998047,285.798340 1153.998535,531.918823 1153.998535,778.039246 
	C1153.998535,785.178040 1153.997803,785.182922 1146.905884,785.177368 
	C1135.574829,785.168396 1124.243774,785.152222 1112.448242,785.061340 
	C1111.991455,536.685791 1111.998901,288.388062 1112.006104,40.090279 
	C1112.006348,33.056480 1112.004639,33.053020 1119.190918,33.056965 
	C1130.522583,33.063187 1141.854126,33.074581 1153.660645,33.133736 
z"/>
<path fill="#868686" opacity="1.000000" stroke="none" 
	d="
M1053.659668,33.132446 
	C1054.089478,35.346481 1054.004883,37.511204 1054.004883,39.675926 
	C1053.998779,285.958282 1054.002808,532.240662 1053.982544,778.523010 
	C1053.981934,786.060608 1055.070679,785.133972 1047.403931,785.164368 
	C1035.906616,785.209961 1024.409058,785.153748 1012.447266,785.061890 
	C1011.991028,536.685181 1011.999146,288.387421 1012.006897,40.089657 
	C1012.007141,33.054863 1012.005554,33.052288 1019.189880,33.056610 
	C1030.521484,33.063427 1041.853149,33.074100 1053.659668,33.132446 
z"/>
<path fill="#868686" opacity="1.000000" stroke="none" 
	d="
M653.659668,33.132462 
	C654.089294,35.346504 654.004639,37.511227 654.004578,39.675949 
	C653.998413,285.958252 654.002197,532.240540 653.982117,778.522827 
	C653.981506,786.060547 655.070557,785.133911 647.403992,785.164368 
	C635.906738,785.210083 624.409058,785.153809 612.447266,785.061890 
	C611.991028,536.685181 611.999146,288.387421 612.006897,40.089657 
	C612.007141,33.054863 612.005554,33.052292 619.189880,33.056614 
	C630.521545,33.063431 641.853149,33.074100 653.659668,33.132462 
z"/>
<path fill="#868686" opacity="1.000000" stroke="none" 
	d="
M953.660767,33.133713 
	C954.089661,35.348373 954.003540,37.513111 954.003479,39.677845 
	C953.997620,285.798370 953.998108,531.918884 953.998108,778.039429 
	C953.998169,785.178040 953.997620,785.182922 946.905640,785.177368 
	C935.574585,785.168457 924.243530,785.152283 912.448059,785.061462 
	C911.991394,536.685852 911.999329,288.387970 912.006714,40.090099 
	C912.006958,33.056480 912.004883,33.053024 919.191223,33.056965 
	C930.522766,33.063183 941.854370,33.074581 953.660767,33.133713 
z"/>
<path fill="#868686" opacity="1.000000" stroke="none" 
	d="
M853.659668,33.132462 
	C854.089294,35.346500 854.004639,37.511223 854.004578,39.675941 
	C853.998474,285.957916 854.002136,532.239868 853.982117,778.521851 
	C853.981445,786.060425 855.070435,785.134521 847.405029,785.164307 
	C835.907776,785.208923 824.410156,785.150940 812.448059,785.059937 
	C811.991333,536.685425 811.999268,288.387573 812.006897,40.089672 
	C812.007080,33.054863 812.005554,33.052288 819.189880,33.056610 
	C830.521545,33.063427 841.853149,33.074100 853.659668,33.132462 
z"/>
<path fill="#868686" opacity="1.000000" stroke="none" 
	d="
M82.009262,14.936819 
	C686.627136,14.937098 1290.746216,14.937178 1894.865234,14.937016 
	C1904.313843,14.937014 1904.136719,14.936032 1904.158813,24.365398 
	C1904.166626,27.646526 1903.002197,28.455637 1900.124390,28.091156 
	C1899.140381,27.966537 1898.127075,28.073446 1897.127197,28.073450 
	C1289.841675,28.075869 682.556213,28.079277 75.270721,28.034729 
	C73.239494,28.034580 69.881989,29.184391 69.393593,27.063295 
	C68.561867,23.451113 69.087799,19.482185 69.369209,15.687308 
	C69.444283,14.674957 71.050941,14.936660 72.012268,14.929092 
	C75.178116,14.904171 78.344353,14.930161 82.009262,14.936819 
z"/>
<path fill="#878787" opacity="1.000000" stroke="none" 
	d="
M87.337006,37.450768 
	C87.668541,34.757301 89.466873,34.833538 91.420250,34.948711 
	C93.586815,35.076454 93.029579,36.653267 93.050781,37.865105 
	C93.100327,40.697437 93.061661,43.531281 93.061661,46.364513 
	C93.061386,288.523895 93.057465,530.683289 93.100380,772.842651 
	C93.100998,776.337280 93.286484,779.440674 88.049133,777.379883 
	C86.391022,774.347595 87.032951,771.454468 87.032570,768.668274 
	C87.000000,533.709167 87.004105,298.750092 86.996864,63.791016 
	C86.996590,54.988041 85.872528,46.191433 87.337006,37.450768 
z"/>
<path fill="#141414" opacity="1.000000" stroke="none" 
	d="
M1903.033691,795.607910 
	C1901.552124,795.819458 1900.063843,795.989807 1898.575562,795.989807 
	C1301.669678,796.000183 704.763855,795.998962 107.858017,795.997314 
	C107.524750,795.997314 107.191483,795.987793 106.414688,795.901550 
	C105.971169,795.820374 105.995308,795.357056 106.019997,795.126343 
	C107.875717,794.930847 109.706741,794.997070 111.537773,794.997070 
	C707.242432,795.000916 1302.947021,795.000183 1898.651733,795.000244 
	C1899.818115,795.000244 1900.984497,795.010071 1902.585449,795.130249 
	C1903.020142,795.245117 1903.026978,795.487061 1903.033691,795.607910 
z"/>
<path fill="#868686" opacity="1.000000" stroke="none" 
	d="
M1910.931885,26.975588 
	C1910.931152,20.152308 1911.017822,13.822402 1910.884521,7.497128 
	C1910.834473,5.124294 1911.147461,3.893382 1914.022217,3.918036 
	C1929.341675,4.049410 1944.663208,4.032660 1959.983276,3.940931 
	C1962.439819,3.926223 1963.086060,4.794193 1963.060425,7.117299 
	C1962.961304,16.108662 1962.954346,25.102842 1963.078247,34.093693 
	C1963.112061,36.547291 1962.258789,37.145916 1959.903931,37.129982 
	C1944.917480,37.028595 1929.928467,36.969376 1914.943604,37.155052 
	C1911.586548,37.196651 1910.527832,36.142044 1910.895264,32.961922 
	C1911.104126,31.154266 1910.932373,29.302633 1910.931885,26.975588 
z"/>
<path fill="#0F0F0F" opacity="1.000000" stroke="none" 
	d="
M87.460686,37.400635 
	C87.899536,45.012920 88.023460,52.506554 88.023781,60.000195 
	C88.033943,297.698120 88.032158,535.396057 88.030411,773.093994 
	C88.030411,774.093201 88.005020,775.092468 87.905350,776.554688 
	C86.391792,776.759399 85.982155,775.794189 86.004387,774.479858 
	C86.029747,772.980835 86.001633,771.481018 86.001633,769.981506 
	C86.001213,528.059143 85.993607,286.136749 86.118935,44.214424 
	C86.120087,41.995026 84.087814,39.179157 87.460686,37.400635 
z"/>
<path fill="#868686" opacity="1.000000" stroke="none" 
	d="
M61.997047,19.020271 
	C61.997059,23.675356 61.771549,27.849651 62.067104,31.986723 
	C62.311623,35.409363 60.955193,36.096382 57.821297,36.060101 
	C44.516884,35.906090 31.208769,35.912186 17.904167,36.057568 
	C14.933505,36.090031 13.813993,35.411221 13.930086,32.218399 
	C14.177715,25.407980 14.180066,18.575895 13.929517,11.765690 
	C13.810993,8.544108 14.989145,7.913103 17.928978,7.943850 
	C31.233713,8.082997 44.541843,8.097107 57.846104,7.936585 
	C61.021317,7.898275 62.438637,8.666836 62.043285,12.042067 
	C61.793438,14.175041 61.996906,16.361115 61.997047,19.020271 
z"/>
<path fill="#868686" opacity="1.000000" stroke="none" 
	d="
M14.005104,824.825562 
	C14.005808,817.691040 14.106091,811.034790 13.957004,804.384094 
	C13.899407,801.814697 14.644980,800.928833 17.313818,800.951660 
	C31.119921,801.069763 44.928173,801.072571 58.734180,800.948853 
	C61.460751,800.924438 62.088490,801.924316 62.042007,804.428284 
	C61.909275,811.578918 61.918957,818.734863 62.037148,825.885925 
	C62.076191,828.248169 61.317890,829.051758 58.919468,829.036560 
	C44.946564,828.947937 30.972082,828.917480 16.999920,829.052368 
	C13.948859,829.081848 13.843734,827.476562 14.005104,824.825562 
z"/>
<path fill="#868686" opacity="1.000000" stroke="none" 
	d="
M1914.214355,801.006470 
	C1928.169434,801.004333 1941.644653,801.089417 1955.117188,800.937683 
	C1958.132812,800.903748 1959.178101,801.663208 1959.068237,804.812073 
	C1958.830566,811.624084 1958.895752,818.452271 1959.045288,825.269287 
	C1959.103394,827.925903 1958.558105,829.094971 1955.535645,829.061096 
	C1941.896729,828.908020 1928.254639,828.924377 1914.615112,829.052795 
	C1911.807129,829.079285 1910.868164,828.282227 1910.944580,825.419067 
	C1911.130737,818.437378 1911.028687,811.447266 1910.990601,804.460815 
	C1910.979980,802.505066 1910.924194,800.657776 1914.214355,801.006470 
z"/>
<path fill="#868686" opacity="1.000000" stroke="none" 
	d="
M71.263756,785.928711 
	C79.392586,785.925964 87.045593,785.903137 94.697723,785.974182 
	C95.858017,785.984924 97.645668,785.288940 97.856934,787.321472 
	C98.082680,789.493225 96.272278,789.031860 95.068481,789.038330 
	C87.249580,789.080505 79.430267,789.078308 71.611313,789.041748 
	C70.572670,789.036926 69.137413,789.502625 68.998436,787.664795 
	C68.900261,786.366455 69.590759,785.891785 71.263756,785.928711 
z"/>
</svg>