<svg version="1.1" id="Layer_1" xmlns="http://www.w3.org/2000/svg" xmlns:xlink="http://www.w3.org/1999/xlink" x="0px" y="0px"
	 width="100%" viewBox="0 0 983 835" enable-background="new 0 0 983 835" xml:space="preserve">
<path fill="#050505" opacity="1.000000" stroke="none" 
	d="
M922.000000,1.000000 
	C942.657288,1.000000 963.314514,1.000000 983.953979,1.000000 
	C983.953979,279.333344 983.953979,557.666687 983.953979,836.000000 
	C963.583862,836.000000 943.259766,836.000000 922.457520,835.565735 
	C920.173462,834.785522 918.367737,834.136658 916.561829,834.136414 
	C633.237183,834.091064 349.912506,834.092407 66.587852,834.093872 
	C65.088989,834.093872 63.566273,833.980286 62.105404,834.223816 
	C61.650875,834.299622 61.363773,835.379700 61.000011,836.000000 
	C41.009125,836.000000 21.018253,836.000000 1.045677,836.000000 
	C1.045677,557.666687 1.045677,279.333313 1.045677,1.000000 
	C20.749001,1.000000 40.406647,1.000000 60.592041,1.446008 
	C61.119789,3.839174 61.119789,5.786332 61.119789,7.849776 
	C75.432053,7.849776 89.215446,7.974877 102.991539,7.714060 
	C105.043182,7.675217 107.054062,5.807600 109.095428,4.809801 
	C111.041893,3.858387 112.976830,2.204169 114.963158,2.131898 
	C123.281227,1.829252 131.619400,2.129307 139.944580,1.948953 
	C143.681931,1.867988 146.727585,2.320237 148.811096,5.981936 
	C149.413895,7.041331 151.564011,7.789738 152.960495,7.725069 
	C157.831818,7.499484 162.688812,6.419033 167.541855,6.475165 
	C174.403275,6.554527 181.262939,7.280750 188.110214,7.880385 
	C191.547424,8.181390 194.115524,7.471381 196.020020,4.190865 
	C196.720184,2.984816 199.012299,2.136992 200.598389,2.104367 
	C209.922989,1.912562 219.254761,1.934875 228.580780,2.088113 
	C230.031433,2.111949 232.086060,2.768333 232.792526,3.838080 
	C235.113571,7.352710 238.123596,8.230710 242.104126,7.921937 
	C246.243698,7.600825 250.436295,7.686221 254.589661,7.902126 
	C258.314362,8.095748 261.321350,7.627681 263.370178,3.878836 
	C263.990723,2.743412 266.422546,2.116234 268.039795,2.086896 
	C277.198792,1.920747 286.363983,1.920166 295.522949,2.087781 
	C297.154785,2.117645 299.593170,2.737031 300.238312,3.883647 
	C302.421967,7.764736 305.625458,8.089315 309.451050,7.898704 
	C313.771545,7.683436 318.123993,7.638742 322.437836,7.911281 
	C325.844147,8.126484 328.339813,7.403943 330.449890,4.439548 
	C331.392334,3.115514 333.717712,2.154831 335.442230,2.112223 
	C344.598663,1.885991 353.764709,1.932215 362.924500,2.072873 
	C364.431824,2.096020 366.732605,2.625130 367.284210,3.658403 
	C369.643097,8.077215 373.469147,7.986897 377.532196,7.873715 
	C381.360626,7.767069 385.204376,7.676948 389.022858,7.898865 
	C392.712555,8.113301 395.823914,7.833144 397.879181,4.051039 
	C398.480286,2.944932 400.593628,2.121693 402.030457,2.095880 
	C411.522583,1.925352 421.020203,1.942871 430.513367,2.081606 
	C431.848114,2.101113 433.824005,2.746637 434.381744,3.735122 
	C436.795105,8.012313 440.582825,8.031919 444.677002,7.882384 
	C448.836090,7.730478 453.009949,7.717784 457.167786,7.883398 
	C460.360107,8.010550 462.891998,7.587656 464.665741,4.369598 
	C465.345123,3.137053 467.579590,2.142899 469.128387,2.109579 
	C478.619171,1.905407 488.117737,1.934637 497.610535,2.085403 
	C499.082458,2.108781 501.299744,2.746389 501.867218,3.801750 
	C504.116364,7.984406 507.700500,8.022048 511.616119,7.894633 
	C515.776367,7.759258 519.957581,7.646457 524.104431,7.914480 
	C527.550171,8.137192 530.052795,7.381461 532.149475,4.347393 
	C533.058655,3.031792 535.457886,2.150038 537.204712,2.108993 
	C546.361633,1.893833 555.527527,1.939072 564.687195,2.085931 
	C566.168396,2.109680 568.376892,2.671915 568.976868,3.716182 
	C571.403381,7.940082 575.090271,8.085013 579.201416,7.887969 
	C583.024048,7.704747 586.870239,7.692922 590.691406,7.890373 
	C594.343628,8.079091 597.470215,7.850406 599.516602,4.063773 
	C600.119446,2.948141 602.261658,2.122663 603.715271,2.096318 
	C613.207336,1.924295 622.704956,1.946156 632.198181,2.081130 
	C633.512207,2.099813 635.443970,2.724752 636.009399,3.697169 
	C638.419617,7.842503 642.046570,8.128182 646.204407,7.901922 
	C650.522705,7.666932 654.876709,7.646867 659.190613,7.919568 
	C662.313538,8.116982 664.380798,7.200875 666.274902,4.640345 
	C667.270874,3.293882 669.473755,2.162603 671.162476,2.118727 
	C680.484863,1.876513 689.818420,1.906733 699.143555,2.085399 
	C700.756714,2.116306 703.175110,2.869250 703.794983,4.042420 
	C705.718872,7.683640 708.613281,8.033893 712.125793,7.894543 
	C716.450195,7.722982 720.796021,7.672782 725.114685,7.903950 
	C728.817261,8.102135 731.827698,7.613831 734.072388,4.123915 
	C734.841431,2.928255 737.084412,2.133856 738.672913,2.102090 
	C747.997803,1.915619 757.329529,1.931970 766.655518,2.088740 
	C768.103943,2.113088 770.213074,2.808662 770.850220,3.884584 
	C773.077209,7.645111 776.264160,8.145218 780.144470,7.903491 
	C784.127258,7.655382 788.141724,7.718493 792.133667,7.872049 
	C795.919739,8.017686 799.224365,7.906731 801.383911,3.835736 
	C802.020081,2.636389 804.806396,2.120112 806.623657,2.082810 
	C815.115662,1.908494 823.616272,2.138510 832.107605,1.948168 
	C835.238586,1.877984 837.331909,2.800552 839.344482,5.257895 
	C840.487061,6.652975 842.876709,7.724925 844.717407,7.744443 
	C869.364441,8.005786 894.013611,8.060163 918.662354,8.142277 
	C919.760071,8.145934 920.858582,7.923360 922.000000,7.801546 
	C922.000000,5.327186 922.000000,3.163593 922.000000,1.000000 
M80.291695,777.731750 
	C81.733704,777.848206 83.175713,777.964722 84.853302,778.100281 
	C84.853302,530.287659 84.853302,282.867126 84.853302,35.314548 
	C83.158394,35.314548 81.647484,35.314548 80.154678,35.314548 
	C80.017326,37.496387 79.902512,39.320377 78.908539,41.403702 
	C78.606880,43.479412 78.041351,45.555084 78.041008,47.630844 
	C78.001297,288.573944 78.003487,529.517029 78.005318,770.460144 
	C78.005333,771.959290 77.837296,773.497070 78.124199,774.942078 
	C78.277641,775.714905 79.236397,776.327820 80.291695,777.731750 
M97.993340,795.345703 
	C97.993340,795.345703 97.973213,795.801453 97.045250,795.909912 
	C85.129219,795.909912 73.213188,795.909912 61.374752,795.909912 
	C61.374752,806.384216 61.374752,816.124390 61.374752,825.682068 
	C348.405853,825.682068 635.076294,825.682068 921.985718,825.682068 
	C921.985718,818.482605 922.080078,811.661316 921.942871,804.844666 
	C921.881348,801.785583 921.356567,798.735779 921.035950,795.465515 
	C921.035950,795.465515 921.017822,795.246033 921.740601,794.875977 
	C925.994629,792.387939 923.340820,788.433044 923.929504,784.192627 
	C924.081360,778.540955 924.365479,772.889343 924.365295,767.237671 
	C924.362244,681.413330 924.323486,595.588989 924.290161,509.764618 
	C924.229980,354.613556 924.160522,199.462494 924.150574,44.311432 
	C924.150391,40.655399 924.809265,36.999329 925.150513,33.448494 
	C648.615784,33.448494 372.916107,33.448494 97.013672,33.448494 
	C97.013672,37.043236 97.026314,40.204582 97.006241,43.365723 
	C96.999931,44.359745 97.280540,45.948875 96.793983,46.254982 
	C91.817062,49.386150 94.053879,54.260757 94.051994,58.281311 
	C93.940376,295.757874 93.946243,533.234436 93.990791,770.711060 
	C93.991570,774.837769 92.348083,779.629944 97.573952,782.323914 
	C98.119530,782.605164 98.003571,784.169739 98.044991,786.012268 
	C98.045029,788.972290 98.045067,791.932373 97.993340,795.345703 
M5.939158,631.500000 
	C5.939456,664.494934 5.891739,697.490051 6.003411,730.484558 
	C6.016732,734.420410 4.125422,739.119751 9.269669,741.807312 
	C9.903046,742.138123 9.911664,743.938538 9.955713,745.067810 
	C10.053066,747.563721 10.367214,750.136230 9.918849,752.552429 
	C8.586790,759.730835 13.710051,768.120300 5.960314,774.106689 
	C5.877753,774.170410 5.941600,774.427124 5.941588,774.593750 
	C5.941131,781.006775 5.941201,787.419861 5.941201,793.750244 
	C22.363573,793.750244 37.970360,793.750244 54.059467,793.750244 
	C54.059467,790.218079 54.243732,786.914612 54.013100,783.640381 
	C53.720871,779.491638 55.487022,777.879883 59.548290,778.023315 
	C64.292282,778.190796 69.046722,778.062439 73.761536,778.062439 
	C73.761536,530.001038 73.761536,282.622650 73.761536,35.281792 
	C69.362946,35.281792 65.306747,35.281792 61.250305,35.281792 
	C61.050598,38.051723 60.877327,40.454937 60.680813,43.180573 
	C42.257141,43.180573 24.320444,43.180573 5.453010,43.180573 
	C8.216917,51.295635 1.699235,60.161076 9.553852,67.150314 
	C10.024344,67.568977 9.927236,68.733490 9.931203,69.551727 
	C9.969990,77.550110 10.026785,85.549294 9.931633,93.546501 
	C9.917235,94.756554 9.420751,96.781227 8.684694,97.023453 
	C5.075748,98.211075 5.928130,101.034248 5.927554,103.501747 
	C5.913709,162.826859 5.900189,222.152008 6.002618,281.476959 
	C6.009395,285.401947 4.044328,290.197968 9.402295,292.698822 
	C9.854982,292.910156 9.952387,294.209564 9.956289,295.004730 
	C9.993907,302.670105 10.037791,310.336792 9.908350,318.000244 
	C9.888650,319.166504 9.216565,321.126984 8.462064,321.336456 
	C5.156477,322.254242 5.950216,324.698853 5.949526,326.873260 
	C5.937726,364.034851 5.939751,401.196442 5.939260,438.358032 
	C5.938944,462.354767 5.913884,486.351593 5.996987,510.348022 
	C6.002551,511.954590 6.685899,513.617371 7.312502,515.148132 
	C8.059632,516.973328 9.796927,518.656555 9.867089,520.449707 
	C10.160069,527.937195 10.080103,535.444885 9.909118,542.940002 
	C9.875288,544.422913 8.871970,545.897827 8.252799,547.349609 
	C7.512682,549.085022 6.036065,550.788025 6.026757,552.511230 
	C5.886345,578.506897 5.934900,604.503540 5.939158,631.500000 
M977.056396,127.500000 
	C977.056396,99.416420 977.056396,71.332840 977.056396,43.326431 
	C960.630371,43.326431 944.898682,43.326431 929.285583,43.326431 
	C929.285583,293.683716 929.285583,543.695007 929.285583,793.654785 
	C945.368713,793.654785 961.105286,793.654785 977.056396,793.654785 
	C977.056396,571.700256 977.056396,350.100128 977.056396,127.500000 
M80.500427,14.947928 
	C74.081619,14.947928 67.662804,14.947928 61.432259,14.947928 
	C61.432259,19.778526 61.432259,23.836706 61.432259,27.686653 
	C348.524353,27.686653 635.198425,27.686653 921.667236,27.686653 
	C921.667236,23.225395 921.667236,19.156937 921.667236,14.947895 
	C641.354553,14.947895 361.427368,14.947895 80.500427,14.947928 
M958.500000,3.995350 
	C948.741577,3.995350 938.983154,3.995350 929.244873,3.995350 
	C929.244873,15.322529 929.244873,26.044378 929.244873,36.787857 
	C946.601990,36.787857 963.641663,36.787857 980.701355,36.787857 
	C980.701355,25.755127 980.701355,15.038589 980.701355,3.995348 
	C973.421753,3.995348 966.460815,3.995348 958.500000,3.995350 
M12.597211,35.985672 
	C26.314610,35.985672 40.032009,35.985672 53.732597,35.985672 
	C53.732597,26.324654 53.732597,17.413021 53.732597,8.304409 
	C37.795891,8.304409 22.113373,8.304409 6.361769,8.304409 
	C6.361769,17.627724 6.361769,26.656693 6.361769,35.985592 
	C8.343967,35.985592 9.986078,35.985592 12.597211,35.985672 
M33.499825,828.985779 
	C40.241905,828.985779 46.983986,828.985779 53.573444,828.985779 
	C53.573444,819.233765 53.573444,810.202698 53.573444,801.283447 
	C37.596134,801.283447 22.032440,801.283447 6.337335,801.283447 
	C6.337335,810.583801 6.337335,819.611572 6.337335,828.985718 
	C15.271113,828.985718 23.885494,828.985718 33.499825,828.985779 
M929.014771,825.298340 
	C928.434082,828.601562 930.183777,829.074890 933.012878,829.038757 
	C943.483582,828.904602 953.956970,828.985596 964.429382,828.985718 
	C968.516174,828.985718 972.602905,828.985779 976.586365,828.985779 
	C976.586365,819.263733 976.586365,810.231812 976.586365,801.275452 
	C960.619446,801.275452 945.053345,801.275452 929.014282,801.275452 
	C929.014282,809.131958 929.014282,816.735474 929.014771,825.298340 
M79.467247,785.948364 
	C74.323235,785.944763 69.176521,785.852722 64.037415,786.009277 
	C62.961052,786.042114 61.912628,786.991333 60.851330,787.518250 
	C61.069714,788.027771 61.288097,788.537354 61.506481,789.046875 
	C70.107681,789.046875 78.709648,789.099243 87.309029,788.974243 
	C88.281540,788.960144 89.239517,787.946533 90.204239,787.396301 
	C90.058281,786.913757 89.912331,786.431152 89.766373,785.948547 
	C86.661560,785.948547 83.556740,785.948547 79.467247,785.948364 
z"/>
<path fill="#F7F7F7" opacity="1.000000" stroke="none" 
	d="
M921.531372,1.000000 
	C922.000000,3.163593 922.000000,5.327186 922.000000,7.801546 
	C920.858582,7.923360 919.760071,8.145934 918.662354,8.142277 
	C894.013611,8.060163 869.364441,8.005786 844.717407,7.744443 
	C842.876709,7.724925 840.487061,6.652975 839.344482,5.257895 
	C837.331909,2.800552 835.238586,1.877984 832.107605,1.948168 
	C823.616272,2.138510 815.115662,1.908494 806.623657,2.082810 
	C804.806396,2.120112 802.020081,2.636389 801.383911,3.835736 
	C799.224365,7.906731 795.919739,8.017686 792.133667,7.872049 
	C788.141724,7.718493 784.127258,7.655382 780.144470,7.903491 
	C776.264160,8.145218 773.077209,7.645111 770.850220,3.884584 
	C770.213074,2.808662 768.103943,2.113088 766.655518,2.088740 
	C757.329529,1.931970 747.997803,1.915619 738.672913,2.102090 
	C737.084412,2.133856 734.841431,2.928255 734.072388,4.123915 
	C731.827698,7.613831 728.817261,8.102135 725.114685,7.903950 
	C720.796021,7.672782 716.450195,7.722982 712.125793,7.894543 
	C708.613281,8.033893 705.718872,7.683640 703.794983,4.042420 
	C703.175110,2.869250 700.756714,2.116306 699.143555,2.085399 
	C689.818420,1.906733 680.484863,1.876513 671.162476,2.118727 
	C669.473755,2.162603 667.270874,3.293882 666.274902,4.640345 
	C664.380798,7.200875 662.313538,8.116982 659.190613,7.919568 
	C654.876709,7.646867 650.522705,7.666932 646.204407,7.901922 
	C642.046570,8.128182 638.419617,7.842503 636.009399,3.697169 
	C635.443970,2.724752 633.512207,2.099813 632.198181,2.081130 
	C622.704956,1.946156 613.207336,1.924295 603.715271,2.096318 
	C602.261658,2.122663 600.119446,2.948141 599.516602,4.063773 
	C597.470215,7.850406 594.343628,8.079091 590.691406,7.890373 
	C586.870239,7.692922 583.024048,7.704747 579.201416,7.887969 
	C575.090271,8.085013 571.403381,7.940082 568.976868,3.716182 
	C568.376892,2.671915 566.168396,2.109680 564.687195,2.085931 
	C555.527527,1.939072 546.361633,1.893833 537.204712,2.108993 
	C535.457886,2.150038 533.058655,3.031792 532.149475,4.347393 
	C530.052795,7.381461 527.550171,8.137192 524.104431,7.914480 
	C519.957581,7.646457 515.776367,7.759258 511.616119,7.894633 
	C507.700500,8.022048 504.116364,7.984406 501.867218,3.801750 
	C501.299744,2.746389 499.082458,2.108781 497.610535,2.085403 
	C488.117737,1.934637 478.619171,1.905407 469.128387,2.109579 
	C467.579590,2.142899 465.345123,3.137053 464.665741,4.369598 
	C462.891998,7.587656 460.360107,8.010550 457.167786,7.883398 
	C453.009949,7.717784 448.836090,7.730478 444.677002,7.882384 
	C440.582825,8.031919 436.795105,8.012313 434.381744,3.735122 
	C433.824005,2.746637 431.848114,2.101113 430.513367,2.081606 
	C421.020203,1.942871 411.522583,1.925352 402.030457,2.095880 
	C400.593628,2.121693 398.480286,2.944932 397.879181,4.051039 
	C395.823914,7.833144 392.712555,8.113301 389.022858,7.898865 
	C385.204376,7.676948 381.360626,7.767069 377.532196,7.873715 
	C373.469147,7.986897 369.643097,8.077215 367.284210,3.658403 
	C366.732605,2.625130 364.431824,2.096020 362.924500,2.072873 
	C353.764709,1.932215 344.598663,1.885991 335.442230,2.112223 
	C333.717712,2.154831 331.392334,3.115514 330.449890,4.439548 
	C328.339813,7.403943 325.844147,8.126484 322.437836,7.911281 
	C318.123993,7.638742 313.771545,7.683436 309.451050,7.898704 
	C305.625458,8.089315 302.421967,7.764736 300.238312,3.883647 
	C299.593170,2.737031 297.154785,2.117645 295.522949,2.087781 
	C286.363983,1.920166 277.198792,1.920747 268.039795,2.086896 
	C266.422546,2.116234 263.990723,2.743412 263.370178,3.878836 
	C261.321350,7.627681 258.314362,8.095748 254.589661,7.902126 
	C250.436295,7.686221 246.243698,7.600825 242.104126,7.921937 
	C238.123596,8.230710 235.113571,7.352710 232.792526,3.838080 
	C232.086060,2.768333 230.031433,2.111949 228.580780,2.088113 
	C219.254761,1.934875 209.922989,1.912562 200.598389,2.104367 
	C199.012299,2.136992 196.720184,2.984816 196.020020,4.190865 
	C194.115524,7.471381 191.547424,8.181390 188.110214,7.880385 
	C181.262939,7.280750 174.403275,6.554527 167.541855,6.475165 
	C162.688812,6.419033 157.831818,7.499484 152.960495,7.725069 
	C151.564011,7.789738 149.413895,7.041331 148.811096,5.981936 
	C146.727585,2.320237 143.681931,1.867988 139.944580,1.948953 
	C131.619400,2.129307 123.281227,1.829252 114.963158,2.131898 
	C112.976830,2.204169 111.041893,3.858387 109.095428,4.809801 
	C107.054062,5.807600 105.043182,7.675217 102.991539,7.714060 
	C89.215446,7.974877 75.432053,7.849776 61.119789,7.849776 
	C61.119789,5.786332 61.119789,3.839174 61.059895,1.446008 
	C347.687561,1.000000 634.375122,1.000000 921.531372,1.000000 
z"/>
<path fill="#DFDFDF" opacity="1.000000" stroke="none" 
	d="
M61.468670,836.000000 
	C61.363773,835.379700 61.650875,834.299622 62.105404,834.223816 
	C63.566273,833.980286 65.088989,834.093872 66.587852,834.093872 
	C349.912506,834.092407 633.237183,834.091064 916.561829,834.136414 
	C918.367737,834.136658 920.173462,834.785522 921.989624,835.565735 
	C635.312439,836.000000 348.624878,836.000000 61.468670,836.000000 
z"/>
<path fill="#868686" opacity="1.000000" stroke="none" 
	d="
M98.194534,785.138855 
	C98.003571,784.169739 98.119530,782.605164 97.573952,782.323914 
	C92.348083,779.629944 93.991570,774.837769 93.990791,770.711060 
	C93.946243,533.234436 93.940376,295.757874 94.051994,58.281311 
	C94.053879,54.260757 91.817062,49.386150 96.793983,46.254982 
	C97.280540,45.948875 96.999931,44.359745 97.006241,43.365723 
	C97.026314,40.204582 97.013672,37.043236 97.013672,33.448494 
	C372.916107,33.448494 648.615784,33.448494 925.150513,33.448494 
	C924.809265,36.999329 924.150391,40.655399 924.150574,44.311432 
	C924.160522,199.462494 924.229980,354.613556 924.290161,509.764618 
	C924.323486,595.588989 924.362244,681.413330 924.365295,767.237671 
	C924.365479,772.889343 924.081360,778.540955 923.412476,784.679993 
	C889.905334,785.155334 856.915161,785.138184 823.925049,785.132568 
	C788.938049,785.126648 753.950989,785.131775 718.963989,785.131836 
	C687.143250,785.131897 655.322571,785.131470 623.501831,785.131470 
	C590.014771,785.131470 556.527771,785.131775 523.040710,785.131775 
	C489.886688,785.131714 456.732666,785.131348 423.578644,785.131409 
	C390.091614,785.131409 356.604584,785.131775 323.117554,785.131836 
	C286.630402,785.131897 250.143250,785.130859 213.656097,785.132080 
	C175.168915,785.133301 136.681732,785.136536 98.194534,785.138855 
z"/>
<path fill="#868686" opacity="1.000000" stroke="none" 
	d="
M5.939138,631.000000 
	C5.934900,604.503540 5.886345,578.506897 6.026757,552.511230 
	C6.036065,550.788025 7.512682,549.085022 8.252799,547.349609 
	C8.871970,545.897827 9.875288,544.422913 9.909118,542.940002 
	C10.080103,535.444885 10.160069,527.937195 9.867089,520.449707 
	C9.796927,518.656555 8.059632,516.973328 7.312502,515.148132 
	C6.685899,513.617371 6.002551,511.954590 5.996987,510.348022 
	C5.913884,486.351593 5.938944,462.354767 5.939260,438.358032 
	C5.939751,401.196442 5.937726,364.034851 5.949526,326.873260 
	C5.950216,324.698853 5.156477,322.254242 8.462064,321.336456 
	C9.216565,321.126984 9.888650,319.166504 9.908350,318.000244 
	C10.037791,310.336792 9.993907,302.670105 9.956289,295.004730 
	C9.952387,294.209564 9.854982,292.910156 9.402295,292.698822 
	C4.044328,290.197968 6.009395,285.401947 6.002618,281.476959 
	C5.900189,222.152008 5.913709,162.826859 5.927554,103.501747 
	C5.928130,101.034248 5.075748,98.211075 8.684694,97.023453 
	C9.420751,96.781227 9.917235,94.756554 9.931633,93.546501 
	C10.026785,85.549294 9.969990,77.550110 9.931203,69.551727 
	C9.927236,68.733490 10.024344,67.568977 9.553852,67.150314 
	C1.699235,60.161076 8.216917,51.295635 5.453010,43.180573 
	C24.320444,43.180573 42.257141,43.180573 60.680813,43.180573 
	C60.877327,40.454937 61.050598,38.051723 61.250305,35.281792 
	C65.306747,35.281792 69.362946,35.281792 73.761536,35.281792 
	C73.761536,282.622650 73.761536,530.001038 73.761536,778.062439 
	C69.046722,778.062439 64.292282,778.190796 59.548290,778.023315 
	C55.487022,777.879883 53.720871,779.491638 54.013100,783.640381 
	C54.243732,786.914612 54.059467,790.218079 54.059467,793.750244 
	C37.970360,793.750244 22.363573,793.750244 5.941201,793.750244 
	C5.941201,787.419861 5.941131,781.006775 5.941588,774.593750 
	C5.941600,774.427124 5.877753,774.170410 5.960314,774.106689 
	C13.710051,768.120300 8.586790,759.730835 9.918849,752.552429 
	C10.367214,750.136230 10.053066,747.563721 9.955713,745.067810 
	C9.911664,743.938538 9.903046,742.138123 9.269669,741.807312 
	C4.125422,739.119751 6.016732,734.420410 6.003411,730.484558 
	C5.891739,697.490051 5.939456,664.494934 5.939138,631.000000 
z"/>
<path fill="#868686" opacity="1.000000" stroke="none" 
	d="
M977.056396,128.000000 
	C977.056396,350.100128 977.056396,571.700256 977.056396,793.654785 
	C961.105286,793.654785 945.368713,793.654785 929.285583,793.654785 
	C929.285583,543.695007 929.285583,293.683716 929.285583,43.326431 
	C944.898682,43.326431 960.630371,43.326431 977.056396,43.326431 
	C977.056396,71.332840 977.056396,99.416420 977.056396,128.000000 
z"/>
<path fill="#868686" opacity="1.000000" stroke="none" 
	d="
M921.042053,795.681763 
	C921.356567,798.735779 921.881348,801.785583 921.942871,804.844666 
	C922.080078,811.661316 921.985718,818.482605 921.985718,825.682068 
	C635.076294,825.682068 348.405853,825.682068 61.374752,825.682068 
	C61.374752,816.124390 61.374752,806.384216 61.374752,795.909912 
	C73.213188,795.909912 85.129219,795.909912 97.962425,795.940430 
	C99.212662,795.980103 99.545723,795.997131 99.878784,795.997131 
	C372.113953,795.998779 644.349121,795.999939 916.584290,795.986877 
	C918.070190,795.986816 919.556152,795.787842 921.042053,795.681763 
z"/>
<path fill="#868686" opacity="1.000000" stroke="none" 
	d="
M81.000305,14.947912 
	C361.427368,14.947895 641.354553,14.947895 921.667236,14.947895 
	C921.667236,19.156937 921.667236,23.225395 921.667236,27.686653 
	C635.198425,27.686653 348.524353,27.686653 61.432259,27.686653 
	C61.432259,23.836706 61.432259,19.778526 61.432259,14.947928 
	C67.662804,14.947928 74.081619,14.947928 81.000305,14.947912 
z"/>
<path fill="#FCFCFC" opacity="1.000000" stroke="none" 
	d="
M98.119766,785.575562 
	C136.681732,785.136536 175.168915,785.133301 213.656097,785.132080 
	C250.143250,785.130859 286.630402,785.131897 323.117554,785.131836 
	C356.604584,785.131775 390.091614,785.131409 423.578644,785.131409 
	C456.732666,785.131348 489.886688,785.131714 523.040710,785.131775 
	C556.527771,785.131775 590.014771,785.131470 623.501831,785.131470 
	C655.322571,785.131470 687.143250,785.131897 718.963989,785.131836 
	C753.950989,785.131775 788.938049,785.126648 823.925049,785.132568 
	C856.915161,785.138184 889.905334,785.155334 923.351624,785.154114 
	C923.340820,788.433044 925.994629,792.387939 920.932739,794.950195 
	C648.261841,795.018066 376.398834,795.011902 104.535858,795.000610 
	C102.372276,795.000549 100.208687,794.929993 98.045105,794.892395 
	C98.045067,791.932373 98.045029,788.972290 98.119766,785.575562 
z"/>
<path fill="#878787" opacity="1.000000" stroke="none" 
	d="
M79.787689,41.144367 
	C79.902512,39.320377 80.017326,37.496387 80.154678,35.314548 
	C81.647484,35.314548 83.158394,35.314548 84.853302,35.314548 
	C84.853302,282.867126 84.853302,530.287659 84.853302,778.100281 
	C83.175713,777.964722 81.733704,777.848206 80.143494,776.908997 
	C80.007668,775.253174 80.030861,774.420044 80.030861,773.586975 
	C80.032471,535.268433 80.034233,296.949829 80.022308,58.631264 
	C80.022018,52.802296 79.869308,46.973331 79.787689,41.144367 
z"/>
<path fill="#868686" opacity="1.000000" stroke="none" 
	d="
M958.999939,3.995349 
	C966.460815,3.995348 973.421753,3.995348 980.701355,3.995348 
	C980.701355,15.038589 980.701355,25.755127 980.701355,36.787857 
	C963.641663,36.787857 946.601990,36.787857 929.244873,36.787857 
	C929.244873,26.044378 929.244873,15.322529 929.244873,3.995350 
	C938.983154,3.995350 948.741577,3.995350 958.999939,3.995349 
z"/>
<path fill="#0F0F0F" opacity="1.000000" stroke="none" 
	d="
M79.348114,41.274033 
	C79.869308,46.973331 80.022018,52.802296 80.022308,58.631264 
	C80.034233,296.949829 80.032471,535.268433 80.030861,773.586975 
	C80.030861,774.420044 80.007668,775.253174 79.913513,776.549561 
	C79.236397,776.327820 78.277641,775.714905 78.124199,774.942078 
	C77.837296,773.497070 78.005333,771.959290 78.005318,770.460144 
	C78.003487,529.517029 78.001297,288.573944 78.041008,47.630844 
	C78.041351,45.555084 78.606880,43.479412 79.348114,41.274033 
z"/>
<path fill="#868686" opacity="1.000000" stroke="none" 
	d="
M12.112700,35.985634 
	C9.986078,35.985592 8.343967,35.985592 6.361769,35.985592 
	C6.361769,26.656693 6.361769,17.627724 6.361769,8.304409 
	C22.113373,8.304409 37.795891,8.304409 53.732597,8.304409 
	C53.732597,17.413021 53.732597,26.324654 53.732597,35.985672 
	C40.032009,35.985672 26.314610,35.985672 12.112700,35.985634 
z"/>
<path fill="#868686" opacity="1.000000" stroke="none" 
	d="
M32.999847,828.985718 
	C23.885494,828.985718 15.271113,828.985718 6.337335,828.985718 
	C6.337335,819.611572 6.337335,810.583801 6.337335,801.283447 
	C22.032440,801.283447 37.596134,801.283447 53.573444,801.283447 
	C53.573444,810.202698 53.573444,819.233765 53.573444,828.985779 
	C46.983986,828.985779 40.241905,828.985779 32.999847,828.985718 
z"/>
<path fill="#868686" opacity="1.000000" stroke="none" 
	d="
M929.014526,824.818604 
	C929.014282,816.735474 929.014282,809.131958 929.014282,801.275452 
	C945.053345,801.275452 960.619446,801.275452 976.586365,801.275452 
	C976.586365,810.231812 976.586365,819.263733 976.586365,828.985779 
	C972.602905,828.985779 968.516174,828.985718 964.429382,828.985718 
	C953.956970,828.985596 943.483582,828.904602 933.012878,829.038757 
	C930.183777,829.074890 928.434082,828.601562 929.014526,824.818604 
z"/>
<path fill="#141414" opacity="1.000000" stroke="none" 
	d="
M98.019226,795.119019 
	C100.208687,794.929993 102.372276,795.000549 104.535858,795.000610 
	C376.398834,795.011902 648.261841,795.018066 920.571289,795.135254 
	C921.017822,795.246033 921.035950,795.465515 921.039001,795.573608 
	C919.556152,795.787842 918.070190,795.986816 916.584290,795.986877 
	C644.349121,795.999939 372.113953,795.998779 99.878784,795.997131 
	C99.545723,795.997131 99.212662,795.980103 98.426407,795.886230 
	C97.973213,795.801453 97.993340,795.345703 98.019226,795.119019 
z"/>
<path fill="#868686" opacity="1.000000" stroke="none" 
	d="
M79.959579,785.948486 
	C83.556740,785.948547 86.661560,785.948547 89.766373,785.948547 
	C89.912331,786.431152 90.058281,786.913757 90.204239,787.396301 
	C89.239517,787.946533 88.281540,788.960144 87.309029,788.974243 
	C78.709648,789.099243 70.107681,789.046875 61.506481,789.046875 
	C61.288097,788.537354 61.069714,788.027771 60.851330,787.518250 
	C61.912628,786.991333 62.961052,786.042114 64.037415,786.009277 
	C69.176521,785.852722 74.323235,785.944763 79.959579,785.948486 
z"/>
</svg>