<svg version="1.1" id="Layer_1" xmlns="http://www.w3.org/2000/svg" xmlns:xlink="http://www.w3.org/1999/xlink" x="0px" y="0px"
	 width="100%" viewBox="0 0 983 835" enable-background="new 0 0 983 835" xml:space="preserve">
<path fill="#030303" opacity="1.000000" stroke="none" 
	d="
M921.723511,1.348824 
	C941.657715,1.000000 961.315613,1.047338 980.972778,0.939518 
	C983.403809,0.926184 984.523743,1.399717 984.013672,3.973053 
	C983.918335,4.453930 984.000000,4.969886 984.000000,5.469658 
	C984.000000,280.843933 983.989319,556.218262 984.106567,831.592468 
	C984.108276,835.544312 982.995972,836.126770 979.410645,836.090149 
	C960.587830,835.897644 941.762085,836.000000 922.468628,836.000000 
	C919.412048,834.252930 916.487183,835.035522 913.723145,835.035034 
	C680.735718,834.995483 447.748260,834.998596 214.760803,834.998596 
	C166.096756,834.998535 117.432701,834.993042 68.768661,835.015198 
	C66.453117,835.016235 64.100044,834.674438 61.412987,835.723206 
	C42.008705,836.000000 23.017130,835.950928 4.026471,836.060791 
	C1.593360,836.074829 0.477341,835.597534 0.986394,833.026184 
	C1.081607,832.545288 1.000000,832.029297 1.000000,831.529541 
	C1.000000,556.155762 1.010703,280.782043 0.893588,5.408338 
	C0.891908,1.458323 2.001291,0.870921 5.588560,0.909695 
	C23.744806,1.105945 41.904316,1.000000 60.531342,1.000000 
	C62.538151,5.903089 66.193428,6.571229 70.758125,6.449699 
	C80.414474,6.192610 90.082291,6.358946 99.745308,6.378457 
	C102.989403,6.385006 106.024864,6.027829 108.498505,3.562829 
	C110.258247,1.809244 112.584839,1.497916 114.985588,1.503130 
	C123.982201,1.522669 132.978928,1.522616 141.975540,1.501506 
	C143.836975,1.497138 146.006531,1.361083 147.207520,2.693217 
	C151.435852,7.383302 156.895279,6.643863 162.112823,6.219682 
	C170.278854,5.555791 178.390762,6.829877 186.539566,6.419303 
	C189.792130,6.255423 192.781326,5.985734 195.186584,3.414929 
	C196.756592,1.736872 198.940262,1.481623 201.188278,1.492437 
	C210.351334,1.536514 219.514755,1.520103 228.677994,1.502189 
	C230.366013,1.498889 232.190948,1.363733 233.374893,2.701134 
	C236.795731,6.565331 241.276932,6.471741 245.820480,6.381883 
	C248.984879,6.319301 252.152512,6.441673 255.315887,6.321670 
	C257.142059,6.252394 259.125336,6.309569 260.446686,4.811762 
	C263.320709,1.553860 267.023712,1.410906 270.965485,1.472326 
	C279.127136,1.599499 287.292206,1.519903 295.455811,1.503485 
	C297.302979,1.499770 299.407257,1.245421 300.670135,2.678879 
	C304.099640,6.571653 308.534546,6.515903 313.075287,6.374480 
	C319.438538,6.176294 326.191345,7.760762 331.346375,2.155542 
	C331.982300,1.464055 333.193909,1.512269 334.212830,1.512386 
	C344.209076,1.513535 354.205322,1.500224 364.201569,1.520581 
	C365.404755,1.523031 366.753296,1.665471 367.492310,2.482468 
	C371.936218,7.395227 377.775726,6.286743 383.349823,6.371192 
	C388.502777,6.449262 393.707153,6.925236 397.814758,2.640556 
	C398.803925,1.608730 400.551971,1.517823 402.080170,1.516092 
	C411.576660,1.505339 421.073151,1.524984 430.569580,1.500075 
	C432.302063,1.495531 434.126160,1.691619 435.208466,2.956876 
	C438.217834,6.474955 442.160583,6.439442 446.202271,6.379899 
	C449.866852,6.325910 453.533051,6.429058 457.197388,6.324134 
	C459.048401,6.271132 461.009338,6.184523 462.281494,4.680120 
	C464.844574,1.649094 468.149170,1.408111 471.775879,1.466732 
	C480.270538,1.604036 488.768890,1.515525 497.265747,1.506666 
	C499.100922,1.504753 501.129456,1.211162 502.423737,2.770040 
	C505.493011,6.466930 509.582489,6.506307 513.817322,6.389197 
	C517.313660,6.292513 520.815430,6.444479 524.312073,6.320362 
	C526.136292,6.255608 528.119995,6.315609 529.443848,4.815526 
	C532.316528,1.560447 536.016479,1.408638 539.960815,1.471454 
	C548.122375,1.601433 556.287537,1.521545 564.451172,1.502236 
	C566.299133,1.497866 568.421753,1.226179 569.664673,2.669677 
	C573.222168,6.801191 577.901245,6.476999 582.560730,6.360201 
	C588.594666,6.208951 594.928650,7.646620 599.976013,2.504451 
	C601.187866,1.269879 603.407043,1.491513 605.264465,1.497645 
	C614.094421,1.526797 622.924500,1.520135 631.754578,1.502433 
	C633.439453,1.499055 635.365173,1.290436 636.476501,2.622600 
	C639.986633,6.830128 644.697693,6.407557 649.359497,6.373362 
	C652.524719,6.350145 655.691772,6.449845 658.854675,6.304628 
	C660.517090,6.228302 662.398376,6.298952 663.550415,4.975741 
	C666.684143,1.376249 670.747864,1.412341 674.985840,1.476647 
	C682.814514,1.595436 690.646362,1.532237 698.476624,1.495837 
	C700.511169,1.486379 702.765808,1.340180 704.127197,2.906330 
	C707.304077,6.561205 711.412537,6.437941 715.606873,6.378640 
	C718.938354,6.331538 722.271790,6.438479 725.602173,6.317612 
	C727.265503,6.257245 729.160034,6.380956 730.369080,5.170545 
	C734.366821,1.168394 739.336914,1.420802 744.370056,1.486171 
	C751.699463,1.581365 759.031006,1.523939 766.361572,1.501279 
	C768.211792,1.495560 770.181946,1.316048 771.526550,2.799150 
	C774.683838,6.281585 778.737549,6.521929 782.996704,6.390860 
	C786.492493,6.283284 789.994873,6.449178 793.491211,6.314260 
	C795.145508,6.250422 797.022827,6.368390 798.190063,5.027012 
	C801.314453,1.436335 805.363464,1.396952 809.624451,1.472356 
	C817.285889,1.607937 824.951721,1.544773 832.615112,1.489341 
	C834.849365,1.473181 837.077332,1.634765 838.719482,3.183846 
	C841.787781,6.078143 845.441040,6.413555 849.376221,6.401930 
	C870.868103,6.338443 892.360596,6.312066 913.851929,6.430611 
	C917.624756,6.451421 920.294983,5.497670 921.723511,1.348824 
z"/>
<path fill="#F7F7F7" opacity="1.000000" stroke="none" 
	d="
M921.531372,1.000000 
	C922.010254,8.164496 922.010132,8.190912 914.677795,8.161662 
	C891.525757,8.069304 868.373962,7.932867 845.221863,7.882848 
	C842.782898,7.877579 840.563721,7.810588 839.221741,5.375148 
	C837.665405,2.550823 835.254089,1.882485 832.117920,1.951670 
	C823.458984,2.142684 814.792969,2.026638 806.129883,1.996159 
	C804.067200,1.988902 802.010437,2.006797 800.970886,4.181648 
	C799.339966,7.593537 796.582825,8.113483 793.135193,7.901681 
	C788.820251,7.636598 784.465515,7.663791 780.147583,7.909735 
	C776.272339,8.130466 772.929810,7.752980 770.950806,3.832137 
	C770.083801,2.114507 768.392151,1.992754 766.656860,1.998444 
	C757.327393,2.029036 747.997620,2.046548 738.668396,1.988576 
	C736.716370,1.976447 734.942749,2.218844 733.964966,4.062840 
	C732.008911,7.751636 728.811340,8.105840 725.111023,7.909005 
	C720.791687,7.679242 716.445557,7.727364 712.120789,7.900065 
	C708.606323,8.040407 705.569824,7.772743 703.892578,3.987094 
	C703.045410,2.074792 701.052734,1.978933 699.138489,1.986133 
	C689.809021,2.021222 680.478821,2.064492 671.150269,1.965679 
	C668.885559,1.941690 667.223694,2.690885 666.174133,4.581724 
	C664.604492,7.409632 662.291931,8.113497 659.179871,7.921839 
	C654.864624,7.656088 650.510437,7.668621 646.192078,7.908162 
	C642.028442,8.139120 638.312866,7.895136 636.082703,3.644792 
	C635.302246,2.157442 633.775940,1.987310 632.185486,1.993783 
	C622.689392,2.032435 613.193115,2.028092 603.697021,1.996918 
	C601.898804,1.991015 600.192322,2.419281 599.428101,4.036571 
	C597.573608,7.961747 594.310913,8.067187 590.675354,7.892663 
	C586.852417,7.709146 583.005981,7.701020 579.184021,7.895732 
	C575.059448,8.105863 571.273132,7.983813 569.065430,3.648932 
	C568.176880,1.904297 566.359680,2.009934 564.670898,2.012036 
	C555.507935,2.023434 546.344604,2.052263 537.182190,1.983234 
	C535.031799,1.967034 533.093079,2.312921 532.028748,4.293756 
	C530.257324,7.590541 527.512146,8.131425 524.081604,7.917306 
	C519.933105,7.658381 515.751587,7.750379 511.591858,7.899943 
	C507.659515,8.041333 503.980225,8.010805 501.948761,3.732983 
	C501.234009,2.227893 499.684906,1.994959 498.087158,1.999915 
	C488.424500,2.029884 478.761230,2.058048 469.099182,1.973731 
	C467.043121,1.955789 465.364288,2.531396 464.556458,4.342969 
	C463.040680,7.742293 460.319824,8.008230 457.140137,7.886333 
	C452.981384,7.726900 448.806854,7.727979 444.648071,7.889820 
	C440.541046,8.049645 436.720612,8.022921 434.418701,3.686097 
	C433.574585,2.095785 431.737976,1.982337 429.985352,1.990630 
	C420.822571,2.033988 411.659302,2.039372 402.496582,1.987906 
	C400.556458,1.977009 398.669098,2.129447 397.771484,4.032110 
	C395.921448,7.953504 392.663513,8.104399 388.990753,7.901838 
	C385.170624,7.691150 381.326538,7.757911 377.498840,7.882997 
	C373.414398,8.016472 369.541534,8.074139 367.345062,3.593347 
	C366.521484,1.913262 364.592773,1.995600 362.890594,1.998821 
	C353.727661,2.016165 344.564545,2.034790 335.401794,1.990556 
	C333.468292,1.981221 331.623688,2.155254 330.642548,4.013196 
	C328.715302,7.662846 325.645416,8.177103 321.898438,7.916846 
	C317.753510,7.628952 313.563324,7.677399 309.410858,7.906292 
	C305.563904,8.118345 302.240997,7.811129 300.319611,3.793979 
	C299.512390,2.106236 297.741089,1.983449 295.984406,1.991670 
	C286.488403,2.036110 276.992126,2.018565 267.495941,2.013918 
	C265.795837,2.013086 264.009430,2.019109 263.219269,3.847491 
	C261.498474,7.829169 258.248566,8.089800 254.547485,7.903257 
	C250.559174,7.702238 246.546402,7.713004 242.556412,7.895717 
	C238.581741,8.077728 234.932999,7.917026 232.864182,3.741588 
	C231.973236,1.943380 230.224106,2.007080 228.535675,2.008826 
	C219.206161,2.018475 209.876480,2.042735 200.547272,1.990412 
	C198.575211,1.979352 196.750351,2.305068 195.885818,4.175636 
	C194.264114,7.684434 191.458603,8.288777 188.058655,7.858790 
	C181.237976,6.996184 174.154724,9.635837 167.516190,6.321807 
	C162.954895,9.608346 157.791763,7.073764 152.962799,7.809084 
	C151.262085,8.068058 149.557510,7.898651 148.694122,6.055796 
	C146.902313,2.231195 143.684189,1.868535 139.942886,1.950704 
	C131.616913,2.133566 123.282936,2.088560 114.954918,1.960702 
	C112.381104,1.921187 110.314987,2.468441 109.109619,4.826375 
	C107.791801,7.404283 105.748711,7.929874 102.987556,7.919220 
	C91.164871,7.873604 79.329903,7.795171 67.523254,8.293528 
	C62.367554,8.511148 60.201988,7.094369 61.057846,1.446596 
	C347.687561,1.000000 634.375122,1.000000 921.531372,1.000000 
z"/>
<path fill="#DFDFDF" opacity="1.000000" stroke="none" 
	d="
M61.468658,836.000000 
	C61.024029,834.948181 61.140324,834.026184 62.581062,834.083801 
	C64.078430,834.143677 65.580315,834.087402 67.080223,834.087402 
	C350.076447,834.087280 633.072693,834.084717 916.068909,834.145569 
	C918.019714,834.145935 920.330688,832.975464 921.991821,835.565247 
	C635.312439,836.000000 348.624878,836.000000 61.468658,836.000000 
z"/>
<path fill="#868686" opacity="1.000000" stroke="none" 
	d="
M835.344116,785.331787 
	C834.992676,536.728882 835.001343,288.473663 835.009705,40.218407 
	C835.009949,33.058472 835.008606,33.058949 842.071411,33.058826 
	C868.229858,33.058369 894.388977,33.142303 920.546143,32.962425 
	C924.321960,32.936455 925.938721,33.949890 925.061646,37.635456 
	C923.299805,45.038940 924.242676,52.528282 924.241699,59.968449 
	C924.212341,285.064117 924.252869,510.159760 924.255188,735.255432 
	C924.255371,751.568237 924.047668,767.881042 923.872437,784.667603 
	C922.229736,786.685059 920.191040,786.711121 918.208923,786.716675 
	C892.311462,786.789551 866.413940,786.800781 840.516479,786.715332 
	C838.853088,786.709839 837.192017,786.563110 835.344116,785.331787 
z"/>
<path fill="#868686" opacity="1.000000" stroke="none" 
	d="
M5.930504,437.000000 
	C5.931266,399.841034 5.928988,363.182098 5.941087,326.523132 
	C5.941753,324.504822 5.173856,322.272552 8.336528,321.468170 
	C10.289668,320.971405 9.955907,318.802338 9.961943,317.156525 
	C9.984555,310.991241 10.031409,304.825317 9.964865,298.660767 
	C9.932318,295.645691 10.926003,292.311096 6.694942,290.715271 
	C5.056060,290.097137 5.966796,287.690674 5.965174,286.120972 
	C5.921938,244.296478 5.931655,202.471924 5.930097,160.647385 
	C5.929376,141.318344 5.923714,121.989304 5.920754,102.660263 
	C5.920411,100.421585 5.343552,98.087685 8.556204,97.160667 
	C10.181859,96.691589 9.978153,94.709213 9.978571,93.209549 
	C9.980709,85.544716 9.981400,77.879822 9.948390,70.215103 
	C9.944131,69.226158 10.102255,67.672829 9.575060,67.336090 
	C3.592793,63.514946 6.209006,57.591084 6.028863,52.542595 
	C5.688075,42.992039 5.924689,42.983200 15.575143,42.983582 
	C29.238937,42.984119 42.904217,42.876625 56.565468,43.063404 
	C59.937916,43.109516 61.641514,42.401604 61.012814,38.748360 
	C60.487602,35.696487 61.739147,34.839397 64.843819,34.846947 
	C74.075951,34.869408 74.066666,34.712006 74.066597,43.849014 
	C74.064728,286.464691 74.049026,529.080383 74.175407,771.695984 
	C74.178032,776.735413 73.143036,779.135681 67.806305,778.076599 
	C67.645721,778.044678 67.473831,778.069336 67.307205,778.068542 
	C54.538975,778.005005 54.437943,778.002625 54.145008,790.442261 
	C54.077583,793.305542 53.231239,794.094727 50.438011,794.069397 
	C36.775349,793.945435 23.110163,793.937073 9.447762,794.075073 
	C6.514170,794.104675 5.774982,793.051086 5.881548,790.326538 
	C6.063753,785.668091 5.949050,780.997009 5.914715,776.331543 
	C5.902382,774.655701 5.747616,773.208618 7.938001,772.450500 
	C9.930239,771.761169 9.997088,769.665710 9.990992,767.761841 
	C9.966977,760.263489 9.990387,752.764954 9.968329,745.266602 
	C9.964458,743.951050 10.299226,742.146606 9.048113,741.555115 
	C4.842659,739.566772 5.948354,735.923096 5.947078,732.644043 
	C5.923805,672.823303 5.924507,613.002563 5.926701,553.181824 
	C5.926788,550.809204 5.251318,548.292786 8.438300,547.006165 
	C10.187295,546.300049 9.983738,544.244385 9.983739,542.568848 
	C9.983744,536.236877 10.085065,529.902649 9.946017,523.573792 
	C9.874084,520.299622 11.223169,516.462769 6.517719,514.681702 
	C5.218102,514.189758 5.956853,511.924561 5.954871,510.481995 
	C5.921437,486.154694 5.930715,461.827332 5.930504,437.000000 
z"/>
<path fill="#FEFEFE" opacity="1.000000" stroke="none" 
	d="
M834.564453,785.071960 
	C864.288025,785.047424 893.591980,785.110779 923.352051,785.157715 
	C923.338135,788.431702 925.997681,792.386658 921.380859,795.058838 
	C918.815186,796.909729 916.231384,796.426086 913.775513,796.428589 
	C881.124023,796.462280 848.472534,796.450012 815.821045,796.450073 
	C579.930603,796.450256 344.040131,796.453247 108.149696,796.419189 
	C105.032906,796.418762 101.806007,797.082336 98.430588,795.216064 
	C98.045174,791.934998 98.044853,788.976746 98.118294,785.582031 
	C99.378471,783.780518 100.994240,783.386353 102.673332,783.362305 
	C114.427246,783.193481 126.181892,783.133057 137.935486,783.392517 
	C139.104202,783.418274 140.227142,783.726929 141.623016,784.679077 
	C143.725723,785.042419 145.435242,785.100830 147.564514,785.071655 
	C151.693573,782.169983 156.016785,783.345581 160.084259,783.278687 
	C170.214294,783.112122 170.224838,783.218811 170.224915,773.172974 
	C170.226913,530.346619 170.222839,287.520233 170.257828,44.693867 
	C170.258347,41.081249 169.536957,37.333557 171.792023,33.546204 
	C173.773956,33.144901 175.411697,33.106251 177.455307,33.125458 
	C179.523087,34.668400 179.638519,36.685818 179.720749,38.695263 
	C179.822983,41.193470 179.772659,43.694519 179.772659,46.194347 
	C179.773987,288.021973 179.769104,529.849609 179.787109,771.677246 
	C179.788055,784.440063 178.802139,783.129700 191.420578,783.216125 
	C199.753342,783.273254 208.086853,783.200073 216.419830,783.244263 
	C218.738480,783.256531 221.112900,783.075684 223.622528,784.678284 
	C225.725266,785.042786 227.434708,785.101379 229.563766,785.071655 
	C232.034454,783.118530 234.594772,783.265381 237.083115,783.248352 
	C246.082565,783.186829 255.083008,783.300293 264.081848,783.194275 
	C269.603729,783.129211 270.022461,782.646484 270.197876,777.173584 
	C270.272644,774.841614 270.225372,772.507324 270.225372,770.174133 
	C270.226257,528.348633 270.222778,286.523102 270.257690,44.697601 
	C270.258209,41.083370 269.534821,37.333374 271.793640,33.546059 
	C273.774323,33.145172 275.412048,33.106152 277.455688,33.124905 
	C279.522919,34.668076 279.638702,36.685352 279.720825,38.694870 
	C279.822937,41.193089 279.772675,43.694138 279.772675,46.193970 
	C279.773987,288.022034 279.769043,529.850098 279.787445,771.678162 
	C279.788422,784.446289 278.797821,783.135742 291.420532,783.214233 
	C301.253265,783.275391 311.086792,783.200867 320.919739,783.243958 
	C323.399963,783.254822 325.947693,782.998291 328.621796,784.679016 
	C330.724854,785.043518 332.434753,785.101868 334.564362,785.072144 
	C337.034760,783.118408 339.595154,783.265442 342.083466,783.248413 
	C351.082947,783.186829 360.083374,783.300293 369.082214,783.194275 
	C374.603851,783.129272 375.020599,782.646484 375.198456,777.173279 
	C375.268860,775.007935 375.225433,772.840393 375.225433,770.673828 
	C375.226288,528.681702 375.222778,286.689545 375.257690,44.697411 
	C375.258209,41.083153 374.534790,37.333126 376.793549,33.545780 
	C378.774323,33.144840 380.412201,33.105759 382.455994,33.124466 
	C384.522919,34.667873 384.638733,36.685120 384.720825,38.694641 
	C384.822906,41.192863 384.772675,43.693913 384.772675,46.193745 
	C384.774017,288.021790 384.769012,529.849792 384.787140,771.677856 
	C384.788086,784.439636 383.801971,783.129700 396.421265,783.216125 
	C404.754028,783.273193 413.087585,783.200073 421.420563,783.244263 
	C423.739197,783.256531 426.113617,783.075500 428.623474,784.677612 
	C430.726227,785.042175 432.435516,785.101013 434.564453,785.071960 
	C437.034760,783.118469 439.595154,783.265442 442.083466,783.248413 
	C451.082947,783.186890 460.083374,783.300354 469.082214,783.194336 
	C474.603851,783.129272 475.020630,782.646362 475.198547,777.173340 
	C475.268921,775.007996 475.225433,772.840454 475.225433,770.673889 
	C475.226288,528.681702 475.222717,286.689545 475.257629,44.697361 
	C475.258148,41.083084 474.534882,37.333065 476.793396,33.545624 
	C478.774048,33.144958 480.411804,33.106194 482.455444,33.125290 
	C484.523102,34.668324 484.638489,36.685711 484.720703,38.695171 
	C484.822937,41.193382 484.772675,43.694427 484.772675,46.194256 
	C484.774017,288.021851 484.768982,529.849426 484.787140,771.677002 
	C484.788086,784.439331 483.801300,783.129700 496.420227,783.216064 
	C504.752991,783.273132 513.086548,783.200134 521.419495,783.244324 
	C523.738098,783.256592 526.112488,783.075745 528.621826,784.678955 
	C530.724792,785.043518 532.434692,785.101929 534.564331,785.072144 
	C537.034790,783.118286 539.595215,783.265442 542.083496,783.248413 
	C551.082947,783.186829 560.083435,783.300354 569.082214,783.194336 
	C574.603943,783.129272 575.020569,782.646545 575.198486,777.173279 
	C575.268860,775.007935 575.225464,772.840393 575.225464,770.673828 
	C575.226318,528.681519 575.222717,286.689209 575.257812,44.696911 
	C575.258301,41.082878 574.534912,37.333157 576.793335,33.545891 
	C578.774231,33.144875 580.412109,33.105770 582.455933,33.124451 
	C584.522949,34.667835 584.638611,36.685112 584.720764,38.694626 
	C584.822876,41.192844 584.772583,43.693890 584.772583,46.193722 
	C584.773926,288.021698 584.769043,529.849670 584.787048,771.677612 
	C584.788025,784.440735 583.802734,783.129517 596.420959,783.216064 
	C604.753723,783.273254 613.087341,783.200073 621.420288,783.244263 
	C623.738892,783.256592 626.113281,783.075500 628.623291,784.677490 
	C630.726196,785.042053 632.435547,785.100891 634.564575,785.071899 
	C637.034912,783.118408 639.595337,783.265442 642.083618,783.248413 
	C651.083069,783.186829 660.083557,783.300293 669.082336,783.194275 
	C674.603821,783.129211 675.020508,782.646484 675.198486,777.173157 
	C675.268860,775.007812 675.225464,772.840210 675.225464,770.673645 
	C675.226318,528.681396 675.222717,286.689087 675.257812,44.696827 
	C675.258301,41.082676 674.535034,37.332844 676.793335,33.545586 
	C678.773987,33.144985 680.411743,33.106205 682.455444,33.125290 
	C684.523132,34.668339 684.638306,36.685741 684.720642,38.695198 
	C684.822876,41.193409 684.772583,43.694450 684.772583,46.194279 
	C684.773926,288.021820 684.769104,529.849365 684.787048,771.676941 
	C684.788025,784.441162 683.803040,783.129456 696.420105,783.216003 
	C704.752869,783.273193 713.086426,783.200073 721.419373,783.244324 
	C723.737976,783.256592 726.112427,783.075745 728.621765,784.678955 
	C730.724792,785.043518 732.434692,785.101929 734.564331,785.072144 
	C737.034790,783.118286 739.595215,783.265442 742.083496,783.248413 
	C751.082947,783.186829 760.083435,783.300293 769.082214,783.194275 
	C774.603943,783.129211 775.020569,782.646545 775.198486,777.173279 
	C775.268860,775.007935 775.225464,772.840393 775.225464,770.673828 
	C775.226318,528.681519 775.222717,286.689209 775.257812,44.696911 
	C775.258301,41.082878 774.534912,37.333157 776.793335,33.545891 
	C778.774231,33.144875 780.412109,33.105766 782.455933,33.124451 
	C784.522949,34.667835 784.638672,36.685108 784.720764,38.694626 
	C784.822876,41.192844 784.772583,43.693890 784.772583,46.193722 
	C784.773926,288.021698 784.769043,529.849670 784.787048,771.677612 
	C784.788025,784.440735 783.802734,783.129517 796.420959,783.216064 
	C804.753723,783.273193 813.087341,783.200073 821.420288,783.244263 
	C823.738892,783.256592 826.113281,783.075500 828.623291,784.677490 
	C830.726135,785.042114 832.435486,785.100952 834.564453,785.071960 
z"/>
<path fill="#868686" opacity="1.000000" stroke="none" 
	d="
M328.996521,784.517822 
	C313.022125,785.049194 297.028931,785.075806 281.036743,785.216492 
	C278.573395,785.238159 277.812927,784.264160 277.978851,781.970276 
	C278.110748,780.146912 278.002258,778.306152 278.002258,776.473145 
	C278.002136,530.845947 278.002350,285.218781 277.999451,39.591599 
	C277.999451,37.759140 277.956940,35.926678 277.897919,33.638447 
	C293.691162,33.141838 309.521362,33.159279 325.349854,33.005623 
	C328.149475,32.978443 329.416321,33.774918 329.001190,36.647488 
	C328.930420,37.137207 328.990967,37.645916 328.990936,38.145851 
	C328.986664,286.780701 328.982361,535.415588 328.996521,784.517822 
z"/>
<path fill="#868686" opacity="1.000000" stroke="none" 
	d="
M928.935059,453.000000 
	C928.935242,317.858063 928.958679,183.216080 928.833923,48.574242 
	C928.829773,44.092049 929.809570,42.726002 934.467468,42.856171 
	C947.288513,43.214443 960.127319,43.083248 972.956055,42.914143 
	C976.168396,42.871796 977.480591,43.679668 977.124939,47.040352 
	C976.845947,49.676823 977.065063,52.366161 977.065063,55.032013 
	C977.064880,299.320526 977.048523,543.609009 977.181519,787.897461 
	C977.184204,792.845642 976.152771,794.335205 971.018982,794.153259 
	C958.869812,793.722595 946.689148,793.798767 934.533630,794.128479 
	C929.982544,794.251892 928.823669,793.009277 928.829224,788.437256 
	C928.965210,676.791626 928.935181,565.145813 928.935059,453.000000 
z"/>
<path fill="#868686" opacity="1.000000" stroke="none" 
	d="
M141.998260,784.516602 
	C127.712234,785.048401 113.408264,785.112854 98.648178,785.161377 
	C97.906570,784.043640 98.407440,782.326477 97.270767,781.928101 
	C92.669281,780.315247 93.960472,776.570312 93.960175,773.363220 
	C93.938141,533.542664 93.936668,293.722168 93.990402,53.901634 
	C93.990967,51.383991 93.124084,48.878017 96.377525,46.590553 
	C98.435570,45.143551 97.089943,40.607952 96.921928,37.497837 
	C96.737282,34.079945 97.689537,32.907642 101.300232,32.973171 
	C113.628845,33.196903 125.964684,33.126915 138.296173,33.006592 
	C141.024185,32.979973 142.437836,33.644356 142.002426,36.590931 
	C141.930130,37.080227 141.992188,37.589375 141.992188,38.089348 
	C141.988251,286.742645 141.984283,535.395935 141.998260,784.516602 
z"/>
<path fill="#868686" opacity="1.000000" stroke="none" 
	d="
M428.998352,784.515991 
	C414.690369,785.047913 400.363403,785.071106 386.037659,785.216797 
	C383.574524,785.241821 382.802948,784.267883 382.980164,781.973206 
	C383.108093,780.316772 383.002014,778.642334 383.002014,776.975952 
	C383.002289,531.181030 383.002899,285.386108 383.000336,39.591179 
	C383.000336,37.758736 382.957428,35.926296 382.898224,33.638054 
	C397.025055,33.141598 411.188904,33.165535 425.350708,33.005291 
	C428.152435,32.973591 429.415680,33.775665 429.001068,36.646954 
	C428.930359,37.136684 428.990906,37.645382 428.990875,38.145317 
	C428.987152,286.779785 428.983459,535.414246 428.998352,784.515991 
z"/>
<path fill="#868686" opacity="1.000000" stroke="none" 
	d="
M828.998291,784.515991 
	C814.690308,785.047852 800.363342,785.071045 786.037659,785.216736 
	C783.574463,785.241699 782.802979,784.267883 782.980225,781.973145 
	C783.108032,780.316772 783.001831,778.642273 783.001831,776.975891 
	C783.002136,531.181030 783.002625,285.386108 783.000183,39.591225 
	C783.000122,37.758762 782.957397,35.926304 782.898193,33.638039 
	C797.025024,33.141590 811.188843,33.165520 825.350647,33.005302 
	C828.152344,32.973606 829.415771,33.775475 829.000977,36.646942 
	C828.930237,37.136669 828.990906,37.645374 828.990845,38.145309 
	C828.987122,286.779785 828.983398,535.414246 828.998291,784.515991 
z"/>
<path fill="#868686" opacity="1.000000" stroke="none" 
	d="
M728.996460,784.517822 
	C714.688538,785.048889 700.361633,785.071472 686.036072,785.215698 
	C683.572998,785.240417 682.792542,784.263367 682.981812,781.969727 
	C683.104797,780.480225 683.002319,778.972168 683.002319,777.472412 
	C683.002075,531.678833 683.002136,285.885284 682.998962,40.091740 
	C682.998962,38.092693 682.956909,36.093651 682.897888,33.638878 
	C697.024475,33.142155 711.188416,33.165436 725.350220,33.005417 
	C728.150940,32.973770 729.416199,33.775932 729.001160,36.647942 
	C728.930420,37.137657 728.990845,37.646366 728.990845,38.146301 
	C728.986572,286.781006 728.982361,535.415710 728.996460,784.517822 
z"/>
<path fill="#868686" opacity="1.000000" stroke="none" 
	d="
M628.998291,784.515991 
	C614.690308,785.047852 600.363342,785.071045 586.037659,785.216736 
	C583.574463,785.241760 582.802979,784.267883 582.980225,781.973145 
	C583.108093,780.316772 583.001831,778.642273 583.001831,776.975891 
	C583.002136,531.181030 583.002625,285.386108 583.000183,39.591225 
	C583.000122,37.758762 582.957336,35.926304 582.898193,33.638039 
	C597.025024,33.141586 611.188843,33.165516 625.350647,33.005299 
	C628.152344,32.973602 629.415771,33.775475 629.000977,36.646942 
	C628.930237,37.136669 628.990906,37.645374 628.990845,38.145309 
	C628.987122,286.779785 628.983398,535.414246 628.998291,784.515991 
z"/>
<path fill="#868686" opacity="1.000000" stroke="none" 
	d="
M528.996460,784.517822 
	C514.688538,785.048889 500.361664,785.071533 486.036041,785.215698 
	C483.572998,785.240417 482.792542,784.263367 482.981842,781.969727 
	C483.104797,780.480225 483.002563,778.972168 483.002563,777.472412 
	C483.002289,531.678894 483.002319,285.885376 482.999237,40.091843 
	C482.999207,38.092762 482.957031,36.093681 482.897919,33.638878 
	C497.024506,33.142159 511.188385,33.165443 525.350220,33.005421 
	C528.150940,32.973774 529.416260,33.775940 529.001160,36.647942 
	C528.930420,37.137661 528.990845,37.646362 528.990845,38.146297 
	C528.986572,286.781006 528.982361,535.415710 528.996460,784.517822 
z"/>
<path fill="#868686" opacity="1.000000" stroke="none" 
	d="
M223.997559,784.516907 
	C209.689285,785.048828 195.362335,785.071594 181.036636,785.217773 
	C178.571518,785.242981 177.783417,784.266968 177.983810,781.974609 
	C178.099457,780.651611 178.002762,779.310181 178.002762,777.977051 
	C178.002304,531.848694 178.002106,285.720367 177.998856,39.592014 
	C177.998840,37.759579 177.957138,35.927139 177.898041,33.639008 
	C192.024353,33.142094 206.188278,33.165329 220.350098,33.004757 
	C223.150757,32.973003 224.416489,33.772934 224.000702,36.645729 
	C223.929825,37.135410 223.990601,37.644154 223.990601,38.144089 
	C223.986816,286.779236 223.983047,535.414368 223.997559,784.516907 
z"/>
<path fill="#868686" opacity="1.000000" stroke="none" 
	d="
M476.661255,33.135132 
	C477.090118,35.348431 477.003601,37.513134 477.003540,39.677837 
	C476.997589,285.962860 477.001709,532.247864 476.980988,778.532898 
	C476.980347,786.109558 478.070923,785.128235 470.404877,785.164368 
	C458.907715,785.218506 447.409973,785.155090 435.448273,785.062866 
	C434.992676,536.689453 435.001312,288.394867 435.009735,40.100266 
	C435.009949,33.058323 435.008667,33.055416 442.191681,33.059647 
	C453.523193,33.066319 464.854736,33.077347 476.661255,33.135132 
z"/>
<path fill="#868686" opacity="1.000000" stroke="none" 
	d="
M576.661377,33.134792 
	C577.090210,35.348686 577.003906,37.513393 577.003906,39.678101 
	C576.997620,285.963654 577.001465,532.249207 576.980164,778.534729 
	C576.979492,786.117676 578.069336,785.129211 570.405273,785.164795 
	C558.908020,785.218201 547.410156,785.155212 535.448364,785.062866 
	C534.992432,536.856384 535.000793,288.728638 535.008850,40.600933 
	C535.009094,33.059586 535.007568,33.056206 542.691956,33.060093 
	C553.856750,33.065739 565.021606,33.076836 576.661377,33.134792 
z"/>
<path fill="#868686" opacity="1.000000" stroke="none" 
	d="
M376.661469,33.134750 
	C377.090240,35.348621 377.003632,37.513325 377.003571,39.678028 
	C376.997284,285.963623 377.001190,532.249207 376.980011,778.534790 
	C376.979370,786.117004 378.069641,785.129272 370.405151,785.164795 
	C358.907898,785.218140 347.410095,785.155212 335.448303,785.062866 
	C334.992432,536.856323 335.000793,288.728577 335.008820,40.600842 
	C335.009064,33.059586 335.007507,33.056213 342.692017,33.060097 
	C353.856842,33.065735 365.021698,33.076824 376.661469,33.134750 
z"/>
<path fill="#868686" opacity="1.000000" stroke="none" 
	d="
M676.661194,33.135155 
	C677.090149,35.348469 677.003845,37.513176 677.003784,39.677879 
	C676.997864,285.962769 677.002014,532.247681 676.981201,778.532593 
	C676.980530,786.110779 678.069824,785.128113 670.405212,785.164307 
	C658.907959,785.218567 647.410217,785.155151 635.448425,785.062866 
	C634.992798,536.689453 635.001343,288.394928 635.009705,40.100384 
	C635.009949,33.058327 635.008667,33.055416 642.191589,33.059647 
	C653.523132,33.066319 664.854675,33.077354 676.661194,33.135155 
z"/>
<path fill="#868686" opacity="1.000000" stroke="none" 
	d="
M271.661560,33.135895 
	C272.090546,35.348892 272.004211,37.513588 272.004150,39.678288 
	C271.997711,285.964478 272.001312,532.250671 271.980591,778.536865 
	C271.979950,786.125549 273.058441,785.130554 265.404755,785.164490 
	C253.907455,785.215454 242.409683,785.153442 230.447754,785.061401 
	C229.992294,536.688965 230.001236,288.394531 230.009888,40.100082 
	C230.010132,33.059910 230.008545,33.056206 237.192200,33.060158 
	C248.523636,33.066387 259.855072,33.078167 271.661560,33.135895 
z"/>
<path fill="#868686" opacity="1.000000" stroke="none" 
	d="
M776.661377,33.134792 
	C777.090210,35.348686 777.003906,37.513393 777.003906,39.678101 
	C776.997620,285.963654 777.001465,532.249207 776.980164,778.534729 
	C776.979492,786.117676 778.069336,785.129150 770.405273,785.164795 
	C758.908020,785.218201 747.410156,785.155273 735.448364,785.062927 
	C734.992432,536.856384 735.000793,288.728638 735.008850,40.600933 
	C735.009094,33.059586 735.007568,33.056210 742.691956,33.060093 
	C753.856750,33.065739 765.021606,33.076836 776.661377,33.134792 
z"/>
<path fill="#868686" opacity="1.000000" stroke="none" 
	d="
M920.552490,795.603943 
	C923.051086,799.600159 921.710999,803.787476 921.934082,807.841370 
	C922.190063,812.493408 921.748047,817.187256 922.071228,821.830872 
	C922.326111,825.492188 920.924133,826.566467 917.554810,826.095825 
	C916.247131,825.913147 914.892639,826.064941 913.559509,826.064941 
	C631.263062,826.067139 348.966675,826.059387 66.670273,826.163940 
	C62.277473,826.165527 60.578125,825.307068 60.892147,820.556702 
	C61.341831,813.753967 61.156639,806.894714 60.941303,800.069031 
	C60.840958,796.888367 61.680988,795.782654 65.047211,795.848694 
	C75.708092,796.057983 86.375954,795.911438 97.504868,795.849121 
	C99.264511,795.341003 100.609497,795.517700 101.933922,795.517761 
	C374.642090,795.522766 647.350281,795.485474 920.552490,795.603943 
z"/>
<path fill="#868686" opacity="1.000000" stroke="none" 
	d="
M171.661224,33.135025 
	C172.090042,35.514893 172.003479,37.846237 172.003418,40.177578 
	C171.997360,286.294708 172.001541,532.411865 171.980255,778.528992 
	C171.979599,786.089417 173.086197,785.097717 165.408325,785.169678 
	C159.910294,785.221252 154.411148,785.155884 148.448380,785.063416 
	C147.992630,536.690430 148.001038,288.396698 148.009079,40.103001 
	C148.009308,33.060425 148.007523,33.056797 155.188950,33.060719 
	C160.521378,33.063629 165.853790,33.077507 171.661224,33.135025 
z"/>
<path fill="#868686" opacity="1.000000" stroke="none" 
	d="
M504.000000,14.939391 
	C641.640869,14.938795 778.781738,14.933170 915.922607,14.986999 
	C917.923767,14.987784 921.232849,13.779624 921.726074,15.983061 
	C922.537048,19.605820 922.017273,23.570902 921.724548,27.365879 
	C921.648560,28.349926 920.015686,28.037397 919.058716,28.052935 
	C916.559875,28.093504 914.059937,28.069384 911.560425,28.069410 
	C630.113403,28.072493 348.666321,28.077833 67.219292,28.030733 
	C65.204124,28.030396 61.878338,29.219759 61.384830,27.006060 
	C60.579124,23.391962 60.871727,19.376556 61.515850,15.672157 
	C61.776108,14.175408 64.491203,14.955867 66.082436,14.954786 
	C111.240578,14.924110 156.398743,14.932383 201.556915,14.933397 
	C302.204620,14.935660 402.852295,14.937436 504.000000,14.939391 
z"/>
<path fill="#878787" opacity="1.000000" stroke="none" 
	d="
M79.338539,37.393242 
	C79.707039,34.987843 81.156769,34.881542 83.038536,34.901756 
	C85.484207,34.928020 85.054581,36.540539 85.060341,37.984966 
	C85.071625,40.817627 85.059860,43.650372 85.059860,46.483082 
	C85.059669,288.598145 85.055862,530.713257 85.097443,772.828308 
	C85.098045,776.309814 85.303551,779.438782 80.052811,777.378784 
	C78.384384,774.349304 79.032021,771.455322 79.031631,768.670044 
	C78.998772,533.388977 79.001167,298.107941 79.002419,62.826889 
	C79.002464,54.354294 77.821289,45.889336 79.338539,37.393242 
z"/>
<path fill="#868686" opacity="1.000000" stroke="none" 
	d="
M967.991821,37.067955 
	C955.839600,37.066643 944.185364,36.983959 932.533875,37.123219 
	C929.758484,37.156387 928.818115,36.409874 928.872986,33.543896 
	C929.041931,24.723686 929.015747,15.896875 928.878357,7.075545 
	C928.840881,4.670746 929.569214,3.922269 931.953979,3.935538 
	C947.269653,4.020754 962.586365,4.027020 977.902039,3.945258 
	C980.255676,3.932694 981.091431,4.607941 981.060913,7.034765 
	C980.947876,16.023199 980.964478,25.014700 981.069397,34.003452 
	C981.096558,36.333420 980.459595,37.291965 977.976929,37.126617 
	C974.827576,36.916866 971.654053,37.070763 967.991821,37.067955 
z"/>
<path fill="#0F0F0F" opacity="1.000000" stroke="none" 
	d="
M79.402428,37.442917 
	C79.902748,44.537903 80.024048,51.699619 80.024345,58.861347 
	C80.034210,296.938202 80.032555,535.015076 80.030891,773.091919 
	C80.030884,774.091370 80.006287,775.090820 79.908615,776.553467 
	C78.410805,776.739441 77.990616,775.773926 78.008522,774.462830 
	C78.028984,772.963623 78.002640,771.463806 78.002632,769.964294 
	C78.002121,528.036255 77.999107,286.108246 78.049248,44.180218 
	C78.049706,41.965004 77.112740,39.511482 79.402428,37.442917 
z"/>
<path fill="#868686" opacity="1.000000" stroke="none" 
	d="
M28.000086,35.993332 
	C21.514763,35.992832 15.528040,35.918480 9.544712,36.028580 
	C7.187421,36.071957 5.881600,35.701164 5.950868,32.839275 
	C6.127822,25.528114 6.063210,18.209196 5.976893,10.894774 
	C5.952060,8.790472 6.595565,7.961612 8.808527,7.973120 
	C22.940248,8.046608 37.072731,8.046861 51.204445,7.972523 
	C53.430553,7.960813 54.046474,8.818024 54.022518,10.906959 
	C53.938637,18.221434 53.871742,25.540373 54.050308,32.851463 
	C54.120571,35.728462 52.787933,36.058613 50.445965,36.027428 
	C43.131805,35.930035 35.815514,35.992706 28.000086,35.993332 
z"/>
<path fill="#868686" opacity="1.000000" stroke="none" 
	d="
M51.734505,801.021606 
	C54.253498,801.097595 53.977024,802.630737 53.980480,803.914917 
	C54.000187,811.233093 53.918045,818.552490 54.032627,825.868835 
	C54.069370,828.214844 53.338688,829.049438 50.926514,829.034058 
	C36.955944,828.945068 22.984182,828.941589 9.013695,829.036926 
	C6.528798,829.053833 5.934955,828.088074 5.969680,825.810974 
	C6.076185,818.827026 6.157342,811.835754 5.938282,804.856995 
	C5.841751,801.781677 6.760165,800.900574 9.845908,800.936829 
	C23.648815,801.098938 37.454681,801.009033 51.734505,801.021606 
z"/>
<path fill="#868686" opacity="1.000000" stroke="none" 
	d="
M964.984131,801.006592 
	C976.993408,801.006592 976.993713,801.006592 976.993225,812.642090 
	C976.992981,817.131348 976.915283,821.622498 977.022888,826.109131 
	C977.073547,828.221130 976.394897,829.038269 974.186584,829.026794 
	C960.054016,828.953369 945.920654,828.952637 931.788086,829.027100 
	C929.553589,829.038879 928.954773,828.163696 928.978210,826.084351 
	C929.060730,818.769409 929.129150,811.450012 928.950195,804.138550 
	C928.879456,801.250183 930.234680,800.955750 932.564026,800.972961 
	C943.204773,801.051758 953.846313,801.006958 964.984131,801.006592 
z"/>
<path fill="#141414" opacity="1.000000" stroke="none" 
	d="
M921.044067,795.569702 
	C919.560791,795.785645 918.075195,795.986633 916.589539,795.986755 
	C644.351257,795.999695 372.112976,795.998352 99.874687,795.996460 
	C99.541603,795.996460 99.208527,795.979248 98.422028,795.882935 
	C97.968620,795.795837 97.989067,795.343018 98.017281,795.118164 
	C100.209251,794.929199 102.373009,794.996460 104.536766,794.996521 
	C376.400177,795.007507 648.263550,795.013550 920.573364,795.132080 
	C921.019836,795.244385 921.041748,795.460876 921.044067,795.569702 
z"/>
<path fill="#868686" opacity="1.000000" stroke="none" 
	d="
M73.013374,789.060669 
	C69.526344,789.060303 66.535378,789.088135 63.545475,789.044189 
	C62.474571,789.028503 61.078003,789.414185 60.995125,787.587524 
	C60.913029,785.778076 62.204136,785.935669 63.367638,785.935608 
	C71.342400,785.935364 79.317230,785.926941 87.291855,785.962585 
	C88.366760,785.967407 89.848885,785.650940 89.881386,787.415588 
	C89.921585,789.597839 88.140259,789.011658 86.966881,789.030151 
	C82.482170,789.101074 77.995689,789.059937 73.013374,789.060669 
z"/>
</svg>