<svg version="1.1" id="Layer_1" xmlns="http://www.w3.org/2000/svg" xmlns:xlink="http://www.w3.org/1999/xlink" x="0px" y="0px"
	 width="100%" viewBox="0 0 1130 830" enable-background="new 0 0 1130 830" xml:space="preserve">
<path fill="#FFFFFF" opacity="1.000000" stroke="none" 
	d="
M1131.000000,827.000000 
	C1131.000000,828.333130 1131.000000,829.666199 1131.000000,830.999512 
	C754.394165,830.999634 377.788330,830.999634 1.091249,830.999634 
	C1.091249,554.438721 1.091249,277.877380 1.091249,1.158036 
	C377.666595,1.158036 754.333313,1.158036 1131.000000,1.158036 
	C1131.000000,2.001655 1131.000000,3.001316 1130.767090,4.482882 
	C1130.534058,4.964788 1130.066772,4.957912 1129.593750,4.935993 
	C1123.624023,4.969548 1118.127563,5.073456 1112.630981,5.073578 
	C765.803040,5.081262 418.975159,5.080749 72.147247,5.079882 
	C50.147827,5.079826 28.148405,5.071038 5.804133,5.039034 
	C4.773921,4.985274 4.088557,4.958792 2.946988,5.052688 
	C2.267133,8.120574 1.847953,11.068060 1.847627,14.015593 
	C1.818005,281.890839 1.820463,549.766052 1.820547,817.641296 
	C1.820548,820.139954 1.628017,822.661072 1.919820,825.124939 
	C2.019228,825.964355 3.333110,826.659912 4.439983,827.601318 
	C10.303327,827.792786 15.818758,827.804138 21.772720,827.849304 
	C27.542032,827.872681 32.872810,827.853149 38.203587,827.853088 
	C390.711884,827.851685 743.220215,827.851868 1095.728516,827.851501 
	C1100.392334,827.851501 1105.056274,827.846436 1110.204468,827.881653 
	C1116.802124,827.588562 1122.915527,827.257568 1129.356445,826.973755 
	C1130.122681,827.013977 1130.561279,827.006958 1131.000000,827.000000 
z"/>
<path fill="#B3B3B3" opacity="1.000000" stroke="none" 
	d="
M6.148983,5.066313 
	C28.148405,5.071038 50.147827,5.079826 72.147247,5.079882 
	C418.975159,5.080749 765.803040,5.081262 1112.630981,5.073578 
	C1118.127563,5.073456 1123.624023,4.969548 1129.696777,5.151859 
	C1130.469360,5.647688 1130.711792,5.851140 1131.000000,6.000000 
	C1131.000000,6.000000 1131.000000,6.500000 1130.749390,6.908048 
	C1130.251709,7.855966 1130.004517,8.395836 1129.512085,8.953906 
	C1128.853271,9.203856 1128.439697,9.435604 1127.683594,9.782331 
	C1125.934814,11.019327 1124.545898,12.163603 1123.119507,13.259196 
	C1118.838501,16.547380 1114.542847,19.816570 1110.154419,22.765608 
	C1110.002197,21.985266 1109.948608,21.532484 1110.202271,20.929243 
	C1115.343140,16.635357 1120.176636,12.491930 1125.010132,8.348503 
	C1124.857056,7.956953 1124.703979,7.565402 1124.550903,7.173851 
	C1121.308228,7.173851 1118.065552,7.173853 1114.822876,7.173851 
	C749.471619,7.173648 384.120392,7.172883 18.769138,7.182453 
	C15.609295,7.182536 12.433815,7.525784 9.298081,7.285460 
	C8.198151,7.201161 7.195859,5.842863 6.148983,5.066313 
z"/>
<path fill="#C2C2C2" opacity="1.000000" stroke="none" 
	d="
M1128.026245,9.667364 
	C1128.439697,9.435604 1128.853271,9.203856 1129.592285,9.422013 
	C1129.953003,12.036289 1130.018799,14.200659 1130.018799,16.365028 
	C1130.022949,284.372498 1130.020630,552.380005 1130.062256,820.387451 
	C1130.062500,821.925049 1130.673950,823.462463 1131.000000,825.000000 
	C1131.000000,825.444458 1131.000000,825.888916 1131.000000,826.666687 
	C1130.561279,827.006958 1130.122681,827.013977 1129.341064,826.599304 
	C1128.969727,825.426392 1128.941528,824.675171 1128.770752,823.540955 
	C1128.409790,821.029480 1128.001709,818.901001 1128.000732,816.772400 
	C1127.967529,742.974976 1127.967773,669.177612 1127.973511,595.380188 
	C1127.988647,400.142578 1128.008301,204.904984 1128.026245,9.667364 
z"/>
<path fill="#E9E9E9" opacity="1.000000" stroke="none" 
	d="
M1131.000000,824.533936 
	C1130.673950,823.462463 1130.062500,821.925049 1130.062256,820.387451 
	C1130.020630,552.380005 1130.022949,284.372498 1130.018799,16.365028 
	C1130.018799,14.200659 1129.953003,12.036289 1129.837646,9.403813 
	C1130.004517,8.395836 1130.251709,7.855966 1130.749390,7.158048 
	C1131.000000,279.355957 1131.000000,551.711914 1131.000000,824.533936 
z"/>
<path fill="#E9E9E9" opacity="1.000000" stroke="none" 
	d="
M1131.000000,5.750000 
	C1130.711792,5.851140 1130.469360,5.647688 1130.169922,5.173779 
	C1130.066772,4.957912 1130.534058,4.964788 1130.767090,4.982394 
	C1131.000000,5.000000 1131.000000,5.500000 1131.000000,5.750000 
z"/>
<path fill="#090909" opacity="1.000000" stroke="none" 
	d="
M1109.894897,21.079702 
	C1109.948608,21.532484 1110.002197,21.985266 1110.049561,23.217928 
	C1110.030640,31.996813 1110.007690,39.995819 1110.007568,47.994823 
	C1110.004517,297.156219 1110.000610,546.317627 1110.012695,795.479004 
	C1110.013184,805.637695 1110.167114,815.796448 1110.148438,826.266235 
	C1109.938232,826.999451 1109.829102,827.421570 1109.720093,827.843689 
	C1105.056274,827.846436 1100.392334,827.851501 1095.728516,827.851501 
	C743.220215,827.851868 390.711884,827.851685 38.203587,827.853088 
	C32.872810,827.853149 27.542032,827.872681 21.699549,827.536194 
	C21.058743,826.780518 20.929640,826.371765 20.914051,825.508789 
	C21.050449,815.056458 21.093153,805.058411 21.093328,795.060303 
	C21.097841,538.585999 21.097889,282.111725 21.098734,25.637444 
	C21.098738,24.191292 21.098732,22.745140 21.098732,20.973375 
	C23.073551,20.973375 24.539951,20.973373 26.006351,20.973375 
	C384.304688,20.973763 742.603027,20.973894 1100.901367,20.978886 
	C1103.899170,20.978928 1106.897095,21.044649 1109.894897,21.079702 
M1015.965698,821.911133 
	C1028.307007,821.926453 1040.648193,821.941772 1053.525391,822.548523 
	C1056.061646,822.265137 1058.597900,821.981750 1062.046997,821.820068 
	C1074.132324,821.805237 1086.218384,821.853088 1098.301880,821.698914 
	C1099.863281,821.678955 1101.411377,820.613831 1103.526245,819.574463 
	C1103.633545,804.790344 1103.747314,790.006287 1103.813110,775.221985 
	C1103.814941,774.818054 1103.298706,774.411804 1102.582397,773.249023 
	C1100.767944,773.121643 1098.953613,772.882874 1097.139160,772.882812 
	C742.739746,772.866211 388.340332,772.866455 33.940903,772.866150 
	C32.141727,772.866150 30.342552,772.866211 28.769363,772.866211 
	C28.769363,789.337708 28.769363,805.284546 28.769363,821.680359 
	C37.975945,821.680359 46.926174,821.680359 55.988346,822.364441 
	C58.662445,822.230774 61.336548,822.097107 64.946709,821.937622 
	C77.287750,821.926392 89.628799,821.915222 102.491447,822.510071 
	C105.026222,822.264771 107.560997,822.019470 111.019501,821.827759 
	C112.852226,821.811035 114.684952,821.779663 116.517677,821.779663 
	C413.313782,821.775696 710.109863,821.774048 1007.397278,822.417053 
	C1009.942322,822.243652 1012.487427,822.070312 1015.965698,821.911133 
M28.400114,125.505096 
	C28.329144,129.597458 28.127159,133.692780 28.219898,137.781418 
	C28.339577,143.057602 28.695007,148.328415 29.720259,153.891678 
	C30.385954,153.914154 31.051647,153.956360 31.717342,153.956360 
	C387.000488,153.957687 742.283630,153.956161 1097.566772,153.954666 
	C1099.165527,153.954666 1100.764404,153.954666 1102.787964,153.954666 
	C1102.587524,151.539337 1102.439209,149.752731 1102.609985,147.348755 
	C1102.504272,146.911133 1102.398560,146.473511 1102.592773,145.134827 
	C1102.393066,138.428909 1102.193237,131.722992 1101.809326,124.223106 
	C1099.647095,123.818237 1097.484741,123.059021 1095.322510,123.058670 
	C769.531921,123.005814 443.741394,123.007782 117.950829,123.007515 
	C89.954506,123.007492 61.958050,122.976051 33.962189,123.089912 
	C32.311577,123.096619 30.665735,124.276352 28.400114,125.505096 
M1102.598999,40.346233 
	C1102.497192,39.909470 1102.395508,39.472702 1102.596191,38.142117 
	C1102.596191,34.681313 1102.596191,31.220507 1102.596191,27.207464 
	C1099.708984,27.207464 1097.257812,27.207464 1094.806519,27.207464 
	C742.367310,27.207214 389.928040,27.206705 37.488823,27.212626 
	C35.327652,27.212662 33.166481,27.302212 30.265354,27.178749 
	C29.793192,28.101406 29.321028,29.024063 28.545086,30.675882 
	C28.659811,33.109303 28.774534,35.542721 28.578171,38.802719 
	C28.578171,40.752441 28.578171,42.702168 28.578171,44.815853 
	C386.672699,44.815853 744.408813,44.815853 1102.591553,44.815853 
	C1102.487915,43.468895 1102.391602,42.217678 1102.598999,40.346233 
M28.580193,364.897827 
	C28.580193,366.193420 28.580193,367.488983 28.580193,368.810303 
	C386.782257,368.810303 744.729187,368.810303 1102.827881,368.810303 
	C1102.642334,367.002167 1102.491577,365.532715 1102.651489,363.311951 
	C1102.550049,362.520538 1102.448608,361.729156 1102.608643,360.044434 
	C1102.608643,353.764374 1102.608643,347.484344 1102.608643,341.199860 
	C744.348816,341.199860 386.442566,341.199860 28.887871,341.199860 
	C28.887871,348.389587 28.887871,355.203094 28.555456,362.641998 
	C28.662178,363.088379 28.768898,363.534760 28.580193,364.897827 
M1102.517944,218.371979 
	C1102.444214,217.953339 1102.370361,217.534714 1102.603760,216.343506 
	C1102.603760,210.259232 1102.603760,204.174973 1102.603760,198.244370 
	C744.225586,198.244370 386.380371,198.244370 28.901129,198.244370 
	C28.901129,204.718353 28.901129,210.862778 28.639435,217.655624 
	C28.735525,218.102127 28.831614,218.548645 28.586620,219.892487 
	C28.586620,221.859848 28.586620,223.827194 28.586620,226.020401 
	C386.652527,226.020401 744.525757,226.020401 1102.772339,226.020401 
	C1102.594116,223.533203 1102.430664,221.251724 1102.517944,218.371979 
M1102.588745,438.167084 
	C1102.491943,436.456940 1102.395142,434.746796 1102.595825,432.134552 
	C1102.595825,425.534515 1102.595825,418.934448 1102.595825,412.307129 
	C744.348328,412.307129 386.521179,412.307129 28.914356,412.307129 
	C28.914356,419.735992 28.914356,426.871368 28.583372,434.792694 
	C28.687399,436.192383 28.791426,437.592041 28.563990,439.871918 
	C28.181351,445.388733 32.456535,442.866150 34.481575,442.866852 
	C388.523163,442.987732 742.564819,442.983124 1096.606445,442.983185 
	C1098.428711,442.983185 1100.250977,442.983185 1102.564697,442.983185 
	C1102.458984,441.462891 1102.372803,440.221497 1102.588745,438.167084 
M1101.806274,233.173782 
	C1099.630737,232.786423 1097.455078,232.060028 1095.279541,232.059723 
	C742.151550,232.009674 389.023499,232.011734 35.895493,232.012390 
	C34.395699,232.012390 32.844322,231.791031 31.414856,232.110596 
	C30.513248,232.312164 29.793932,233.329147 28.501881,234.806656 
	C28.501881,243.211563 28.501881,251.616470 28.501881,260.068726 
	C386.913300,260.068726 744.744812,260.068726 1102.015991,260.068726 
	C1102.015991,251.130997 1102.015991,242.543045 1101.806274,233.173782 
M1101.802734,665.175232 
	C1099.628784,664.786743 1097.454956,664.058228 1095.281006,664.057922 
	C742.150818,664.007690 389.020630,664.009766 35.890430,664.010376 
	C34.390625,664.010376 32.839062,663.788574 31.409847,664.108704 
	C30.509682,664.310303 29.792696,665.329712 28.505396,666.809814 
	C28.619148,675.888977 28.732899,684.968079 28.590424,694.924255 
	C30.448469,695.611572 32.306366,696.900574 34.164589,696.901062 
	C388.395477,696.988953 742.626404,696.985474 1096.857300,696.984436 
	C1098.190063,696.984436 1099.661621,697.312622 1100.806396,696.845642 
	C1101.560059,696.538269 1101.842896,695.076721 1102.612915,693.322327 
	C1102.409668,684.201172 1102.206543,675.080078 1101.802734,665.175232 
M29.198555,296.626923 
	C31.156725,297.080658 33.114830,297.931610 35.073078,297.931946 
	C388.622314,297.990417 742.171570,297.988312 1095.720825,297.987488 
	C1097.053711,297.987488 1098.460205,298.231689 1099.694336,297.878693 
	C1100.565186,297.629608 1101.202148,296.561859 1102.485596,295.078064 
	C1102.485596,285.826965 1102.485596,276.575897 1102.485596,267.236877 
	C744.387756,267.236877 386.498322,267.236877 29.081123,267.236877 
	C29.081123,276.914032 29.081123,286.360321 29.198555,296.626923 
M28.601963,557.925964 
	C28.734058,567.618896 28.866156,577.311768 29.194374,587.792664 
	C31.362135,588.191040 33.529846,588.938171 35.697662,588.938477 
	C388.829193,588.989990 741.960754,588.987854 1095.092285,588.987244 
	C1096.592163,588.987244 1098.142700,589.207214 1099.573364,588.890320 
	C1100.479004,588.689636 1101.206055,587.682495 1102.597656,586.258545 
	C1102.392822,576.520081 1102.188110,566.781677 1101.809692,556.244751 
	C1099.653442,555.832520 1097.497314,555.059326 1095.341064,555.059021 
	C742.331726,555.005920 389.322357,555.008301 36.313015,555.009460 
	C34.647152,555.009460 32.935440,554.795105 31.333826,555.119202 
	C30.469898,555.293945 29.794355,556.399902 28.601963,557.925964 
M28.617043,303.965118 
	C28.617043,313.880615 28.617043,323.796082 28.617043,333.687439 
	C386.805786,333.687439 744.678101,333.687439 1102.652100,333.687439 
	C1102.652100,329.890900 1102.727539,326.390839 1102.635864,322.895142 
	C1102.462769,316.291870 1102.193604,309.691132 1101.808105,302.283508 
	C1099.661499,301.858856 1097.514771,301.062561 1095.368164,301.062225 
	C742.173706,301.007385 388.979248,301.009705 35.784813,301.010681 
	C34.285480,301.010681 32.727188,300.779510 31.308729,301.121765 
	C30.445486,301.330048 29.797897,302.432129 28.617043,303.965118 
M1102.402222,549.125000 
	C1102.402222,539.206909 1102.402222,529.288879 1102.402222,519.159729 
	C744.404541,519.159729 386.464752,519.159729 29.114840,519.159729 
	C29.114840,529.514526 29.114840,539.621765 29.203695,550.559570 
	C31.478226,551.034790 33.752686,551.926025 36.027298,551.926453 
	C388.941864,551.988037 741.856445,551.985352 1094.770996,551.984192 
	C1096.437134,551.984192 1098.153564,552.202209 1099.748779,551.861389 
	C1100.579346,551.683960 1101.196167,550.506592 1102.402222,549.125000 
M311.500244,51.608559 
	C217.226212,51.608559 122.952187,51.608559 28.589535,51.608559 
	C28.589535,62.051205 28.589535,71.844864 28.589535,81.841461 
	C386.607056,81.841461 744.593689,81.841461 1102.486816,81.841461 
	C1102.486816,71.677826 1102.486816,61.897736 1102.486816,51.608532 
	C839.044556,51.608532 575.772400,51.608532 311.500244,51.608559 
M603.499756,117.627083 
	C769.865906,117.627083 936.232117,117.627083 1102.468018,117.627083 
	C1102.468018,107.559898 1102.468018,98.451607 1102.468018,89.239738 
	C744.341492,89.239738 386.452728,89.239738 28.799868,89.239738 
	C28.799868,98.714012 28.799868,107.953903 28.799868,117.627068 
	C220.265228,117.627068 411.382477,117.627068 603.499756,117.627083 
M882.499817,405.693909 
	C955.772522,405.693909 1029.045166,405.693909 1102.467896,405.693909 
	C1102.467896,395.825806 1102.467896,386.591095 1102.467896,377.265930 
	C744.342285,377.265930 386.452942,377.265930 28.802071,377.265930 
	C28.802071,386.767273 28.802071,396.009796 28.802071,405.693878 
	C313.267700,405.693878 597.383728,405.693878 882.499817,405.693909 
M505.500214,703.355774 
	C346.595764,703.355774 187.691315,703.355774 28.725723,703.355774 
	C28.725723,713.326416 28.725723,722.529541 28.725723,731.615479 
	C386.850403,731.615479 744.686707,731.615479 1102.500610,731.615479 
	C1102.500610,722.138306 1102.500610,713.041321 1102.500610,703.355774 
	C903.689453,703.355774 705.094849,703.355774 505.500214,703.355774 
M490.500000,477.996002 
	C694.427429,477.996002 898.354919,477.996002 1102.475830,477.996002 
	C1102.475830,468.384277 1102.475830,459.170013 1102.475830,449.869293 
	C744.397644,449.869293 386.568695,449.869293 28.593418,449.869293 
	C28.593418,459.383392 28.593418,468.493683 28.593418,477.996002 
	C182.263809,477.996002 335.881897,477.996002 490.500000,477.996002 
M1011.500122,160.238098 
	C683.950256,160.238098 356.400360,160.238098 28.637470,160.238098 
	C28.637470,170.825394 28.637470,180.743210 28.637470,190.854858 
	C386.651001,190.854858 744.546936,190.854858 1102.508301,190.854858 
	C1102.508301,180.761215 1102.508301,170.832397 1102.508301,160.238113 
	C1072.366577,160.238113 1042.433350,160.238113 1011.500122,160.238098 
M1074.500122,594.757019 
	C725.839417,594.757019 377.178772,594.757019 28.732492,594.757019 
	C28.732492,604.611755 28.732492,613.693604 28.732492,622.832764 
	C386.830841,622.832764 744.693054,622.832764 1102.531982,622.832764 
	C1102.531982,613.468750 1102.531982,604.341492 1102.531982,594.757019 
	C1093.446289,594.757019 1084.473267,594.757019 1074.500122,594.757019 
M1075.500000,629.947266 
	C726.510315,629.947266 377.520660,629.947266 28.738131,629.947266 
	C28.738131,639.759888 28.738131,648.838928 28.738131,658.015381 
	C386.843262,658.015381 744.711487,658.015381 1102.551514,658.015381 
	C1102.551514,648.570312 1102.551514,639.434387 1102.551514,629.947266 
	C1093.798462,629.947266 1085.149292,629.947266 1075.500000,629.947266 
M432.500000,766.011841 
	C655.812378,766.011841 879.124756,766.011841 1102.543579,766.011841 
	C1102.543579,756.878296 1102.543579,748.079041 1102.543579,739.179504 
	C744.535583,739.179504 386.527344,739.179504 28.546143,739.179504 
	C28.546143,748.262939 28.546143,756.922363 28.546143,766.011841 
	C162.893967,766.011841 297.196991,766.011841 432.500000,766.011841 
M731.500000,485.953217 
	C497.210846,485.953217 262.921722,485.953217 28.622599,485.953217 
	C28.622599,494.812653 28.622599,503.248688 28.622599,511.865265 
	C386.665802,511.865265 744.596863,511.865265 1102.534546,511.865265 
	C1102.534546,503.210388 1102.534546,494.751587 1102.534546,485.953217 
	C979.115051,485.953217 855.807495,485.953217 731.500000,485.953217 
z"/>
<path fill="#F9F9F9" opacity="1.000000" stroke="none" 
	d="
M1110.202271,20.929243 
	C1106.897095,21.044649 1103.899170,20.978928 1100.901367,20.978886 
	C742.603027,20.973894 384.304688,20.973763 26.006351,20.973375 
	C24.539951,20.973373 23.073551,20.973375 21.098732,20.973375 
	C21.098732,22.745140 21.098738,24.191292 21.098734,25.637444 
	C21.097889,282.111725 21.097841,538.585999 21.093328,795.060303 
	C21.093153,805.058411 21.050449,815.056458 20.505264,825.505737 
	C14.709509,825.927734 9.436051,825.898499 4.002614,825.495300 
	C3.694457,823.812683 3.416504,822.503906 3.416443,821.195190 
	C3.403900,552.530518 3.410997,283.865814 3.416782,15.201114 
	C3.416856,11.778179 3.407922,8.355245 3.403193,4.932310 
	C4.088557,4.958792 4.773921,4.985274 5.804133,5.039034 
	C7.195859,5.842863 8.198151,7.201161 9.298081,7.285460 
	C12.433815,7.525784 15.609295,7.182536 18.769138,7.182453 
	C384.120392,7.172883 749.471619,7.173648 1114.822876,7.173851 
	C1118.065552,7.173853 1121.308228,7.173851 1124.550903,7.173851 
	C1124.703979,7.565402 1124.857056,7.956953 1125.010132,8.348503 
	C1120.176636,12.491930 1115.343140,16.635357 1110.202271,20.929243 
z"/>
<path fill="#B3B3B3" opacity="1.000000" stroke="none" 
	d="
M2.946988,5.052688 
	C3.407922,8.355245 3.416856,11.778179 3.416782,15.201114 
	C3.410997,283.865814 3.403900,552.530518 3.416443,821.195190 
	C3.416504,822.503906 3.694457,823.812683 3.967363,825.882812 
	C4.092092,826.903198 4.092091,827.162231 4.092080,827.421204 
	C3.333110,826.659912 2.019228,825.964355 1.919820,825.124939 
	C1.628017,822.661072 1.820548,820.139954 1.820547,817.641296 
	C1.820463,549.766052 1.818005,281.890839 1.847627,14.015593 
	C1.847953,11.068060 2.267133,8.120574 2.946988,5.052688 
z"/>
<path fill="#D6D6D6" opacity="1.000000" stroke="none" 
	d="
M1110.204468,827.881653 
	C1109.829102,827.421570 1109.938232,826.999451 1110.554932,826.259094 
	C1114.136841,825.640442 1117.215088,825.375061 1120.284302,825.029480 
	C1123.165527,824.704956 1126.037231,824.295776 1128.913208,823.923828 
	C1128.941528,824.675171 1128.969727,825.426392 1129.013428,826.552124 
	C1122.915527,827.257568 1116.802124,827.588562 1110.204468,827.881653 
z"/>
<path fill="#D6D6D6" opacity="1.000000" stroke="none" 
	d="
M4.439992,827.601318 
	C4.092091,827.162231 4.092092,826.903198 4.127344,826.256714 
	C9.436051,825.898499 14.709509,825.927734 20.391752,825.959961 
	C20.929640,826.371765 21.058743,826.780518 21.261017,827.502441 
	C15.818758,827.804138 10.303327,827.792786 4.439992,827.601318 
z"/>
<path fill="#FBFBFB" opacity="1.000000" stroke="none" 
	d="
M1128.770752,823.540894 
	C1126.037231,824.295776 1123.165527,824.704956 1120.284302,825.029480 
	C1117.215088,825.375061 1114.136841,825.640442 1110.656006,825.947998 
	C1110.167114,815.796448 1110.013184,805.637695 1110.012695,795.479004 
	C1110.000610,546.317627 1110.004517,297.156219 1110.007568,47.994823 
	C1110.007690,39.995819 1110.030640,31.996813 1110.147949,23.545488 
	C1114.542847,19.816570 1118.838501,16.547380 1123.119507,13.259196 
	C1124.545898,12.163603 1125.934814,11.019327 1127.683594,9.782343 
	C1128.008301,204.904984 1127.988647,400.142578 1127.973511,595.380188 
	C1127.967773,669.177612 1127.967529,742.974976 1128.000732,816.772400 
	C1128.001709,818.901001 1128.409790,821.029480 1128.770752,823.540894 
z"/>
<path fill="#FDFDFD" opacity="1.000000" stroke="none" 
	d="
M1102.965576,820.032898 
	C1101.411377,820.613831 1099.863281,821.678955 1098.301880,821.698914 
	C1086.218384,821.853088 1074.132324,821.805237 1061.574219,821.332214 
	C1060.500122,818.233643 1061.826660,817.880676 1064.084106,817.912842 
	C1072.349243,818.030823 1080.616943,817.959534 1089.011475,817.959534 
	C1089.011475,814.127319 1089.011475,810.727478 1089.011475,806.957642 
	C1080.855469,806.957642 1072.907349,806.983276 1064.959595,806.937866 
	C1063.193115,806.927795 1060.729492,807.808472 1060.912720,804.480042 
	C1058.341431,804.633911 1055.741699,804.613464 1053.212280,805.024719 
	C1052.154663,805.196655 1051.253662,806.856628 1050.268799,806.869385 
	C1039.459473,807.009399 1028.646973,807.008911 1017.837524,806.869873 
	C1016.864685,806.857361 1015.961304,805.150085 1014.932983,805.031128 
	C1012.319092,804.728943 1009.629639,804.667969 1007.017700,804.949341 
	C1005.853210,805.074707 1004.831665,806.799561 1003.694824,806.860657 
	C999.290588,807.097473 994.865967,806.956970 990.589966,806.956970 
	C990.589966,811.013611 990.589966,814.406006 990.589966,818.046997 
	C996.250061,818.046997 1001.542725,818.046997 1006.905945,818.046997 
	C1006.905945,819.462158 1006.905945,820.617188 1006.905945,821.772217 
	C710.109863,821.774048 413.313782,821.775696 116.517677,821.779663 
	C114.684952,821.779663 112.852226,821.811035 110.536133,821.366577 
	C109.312904,817.744385 111.332970,817.919006 113.469955,817.934631 
	C121.571327,817.993835 129.673386,817.958496 137.873505,817.958496 
	C137.873505,814.095398 137.873505,810.695007 137.873505,806.957947 
	C129.538635,806.957947 121.420074,807.038635 113.307014,806.864136 
	C112.187675,806.840149 111.146744,805.071228 109.980324,804.946899 
	C107.370697,804.668762 104.683723,804.737610 102.072388,805.042786 
	C101.041389,805.163269 100.135124,806.856934 99.159676,806.869446 
	C88.346756,807.008118 77.530731,807.009583 66.717888,806.868713 
	C65.736351,806.855957 64.851875,805.226990 63.781879,804.994141 
	C61.309818,804.456421 58.751484,804.315247 56.228146,804.013184 
	C55.983940,808.820679 52.297825,806.680847 50.029907,806.875977 
	C46.464405,807.182800 42.853104,806.957520 39.452095,806.957520 
	C39.452095,810.988831 39.452095,814.378662 39.452095,817.999268 
	C45.117039,817.999268 50.414719,817.999268 55.876404,817.999268 
	C55.876404,819.388855 55.876404,820.534607 55.876404,821.680359 
	C46.926174,821.680359 37.975945,821.680359 28.769363,821.680359 
	C28.769363,805.284546 28.769363,789.337708 28.769363,772.866211 
	C30.342552,772.866211 32.141727,772.866150 33.940903,772.866150 
	C388.340332,772.866455 742.739746,772.866211 1097.139160,772.882812 
	C1098.953613,772.882874 1100.767944,773.121643 1102.608643,773.985352 
	C1102.744995,789.825439 1102.855347,804.929199 1102.965576,820.032898 
M587.500000,808.967896 
	C562.759216,808.967896 538.018433,808.967896 513.479126,808.967896 
	C513.479126,811.998169 513.479126,814.265442 513.479126,816.587402 
	C546.519958,816.587402 579.242493,816.587402 611.997559,816.587402 
	C611.997559,814.008118 611.997559,811.716370 611.997559,808.967896 
	C604.073181,808.967896 596.286560,808.967896 587.500000,808.967896 
z"/>
<path fill="#FBFBFB" opacity="1.000000" stroke="none" 
	d="
M29.114840,549.728943 
	C29.114840,539.621765 29.114840,529.514526 29.114840,519.159729 
	C386.464752,519.159729 744.404541,519.159729 1102.402222,519.159729 
	C1102.402222,529.288879 1102.402222,539.206909 1101.695801,549.398438 
	C856.683838,549.672485 612.378418,549.667358 368.072968,549.675903 
	C255.086929,549.679871 142.100876,549.710449 29.114840,549.728943 
z"/>
<path fill="#FDFDFD" opacity="1.000000" stroke="none" 
	d="
M1101.964478,303.089325 
	C1102.193604,309.691132 1102.462769,316.291870 1102.635864,322.895142 
	C1102.727539,326.390839 1102.652100,329.890900 1102.652100,333.687439 
	C744.678101,333.687439 386.805786,333.687439 28.617043,333.687439 
	C28.617043,323.796082 28.617043,313.880615 29.299706,303.578156 
	C30.648800,303.183777 31.315231,303.169891 31.981665,303.169891 
	C385.643951,303.170502 739.306213,303.172302 1092.968506,303.170197 
	C1095.967163,303.170166 1098.965820,303.117432 1101.964478,303.089325 
z"/>
<path fill="#FDFDFD" opacity="1.000000" stroke="none" 
	d="
M312.000244,51.608543 
	C575.772400,51.608532 839.044556,51.608532 1102.486816,51.608532 
	C1102.486816,61.897736 1102.486816,71.677826 1102.486816,81.841461 
	C744.593689,81.841461 386.607056,81.841461 28.589535,81.841461 
	C28.589535,71.844864 28.589535,62.051205 28.589535,51.608559 
	C122.952187,51.608559 217.226212,51.608559 312.000244,51.608543 
z"/>
<path fill="#FDFDFD" opacity="1.000000" stroke="none" 
	d="
M28.998251,587.004700 
	C28.866156,577.311768 28.734058,567.618896 29.283962,557.527405 
	C384.473999,557.125610 738.982056,557.122559 1093.490112,557.116089 
	C1096.321167,557.116028 1099.152344,557.068542 1101.983398,557.043213 
	C1102.188110,566.781677 1102.392822,576.520081 1101.837158,586.611755 
	C746.882141,586.962769 392.687653,586.960510 38.493130,586.960327 
	C35.328171,586.960327 32.163212,586.989258 28.998251,587.004700 
z"/>
<path fill="#FAFAFA" opacity="1.000000" stroke="none" 
	d="
M602.999756,117.627075 
	C411.382477,117.627068 220.265228,117.627068 28.799868,117.627068 
	C28.799868,107.953903 28.799868,98.714012 28.799868,89.239738 
	C386.452728,89.239738 744.341492,89.239738 1102.468018,89.239738 
	C1102.468018,98.451607 1102.468018,107.559898 1102.468018,117.627083 
	C936.232117,117.627083 769.865906,117.627083 602.999756,117.627075 
z"/>
<path fill="#FBFBFB" opacity="1.000000" stroke="none" 
	d="
M881.999756,405.693909 
	C597.383728,405.693878 313.267700,405.693878 28.802071,405.693878 
	C28.802071,396.009796 28.802071,386.767273 28.802071,377.265930 
	C386.452942,377.265930 744.342285,377.265930 1102.467896,377.265930 
	C1102.467896,386.591095 1102.467896,395.825806 1102.467896,405.693909 
	C1029.045166,405.693909 955.772522,405.693909 881.999756,405.693909 
z"/>
<path fill="#FAFAFA" opacity="1.000000" stroke="none" 
	d="
M506.000244,703.355774 
	C705.094849,703.355774 903.689453,703.355774 1102.500610,703.355774 
	C1102.500610,713.041321 1102.500610,722.138306 1102.500610,731.615479 
	C744.686707,731.615479 386.850403,731.615479 28.725723,731.615479 
	C28.725723,722.529541 28.725723,713.326416 28.725723,703.355774 
	C187.691315,703.355774 346.595764,703.355774 506.000244,703.355774 
z"/>
<path fill="#FAFAFA" opacity="1.000000" stroke="none" 
	d="
M490.000000,477.996002 
	C335.881897,477.996002 182.263809,477.996002 28.593418,477.996002 
	C28.593418,468.493683 28.593418,459.383392 28.593418,449.869293 
	C386.568695,449.869293 744.397644,449.869293 1102.475830,449.869293 
	C1102.475830,459.170013 1102.475830,468.384277 1102.475830,477.996002 
	C898.354919,477.996002 694.427429,477.996002 490.000000,477.996002 
z"/>
<path fill="#FCFCFC" opacity="1.000000" stroke="none" 
	d="
M1012.000122,160.238098 
	C1042.433350,160.238113 1072.366577,160.238113 1102.508301,160.238113 
	C1102.508301,170.832397 1102.508301,180.761215 1102.508301,190.854858 
	C744.546936,190.854858 386.651001,190.854858 28.637470,190.854858 
	C28.637470,180.743210 28.637470,170.825394 28.637470,160.238098 
	C356.400360,160.238098 683.950256,160.238098 1012.000122,160.238098 
M527.500000,183.997559 
	C717.763428,183.997559 908.026855,183.997559 1098.290283,183.997559 
	C1098.289429,183.560394 1098.288574,183.123230 1098.287720,182.686066 
	C743.095459,182.686066 387.903259,182.686066 32.711067,182.686066 
	C32.711014,183.123230 32.710964,183.560394 32.710911,183.997559 
	C197.307281,183.997559 361.903625,183.997559 527.500000,183.997559 
z"/>
<path fill="#FCFCFC" opacity="1.000000" stroke="none" 
	d="
M29.081123,295.806580 
	C29.081123,286.360321 29.081123,276.914032 29.081123,267.236877 
	C386.498322,267.236877 744.387756,267.236877 1102.485596,267.236877 
	C1102.485596,276.575897 1102.485596,285.826965 1101.751831,295.418640 
	C745.037964,295.756744 389.057922,295.754211 33.077843,295.754059 
	C31.745604,295.754059 30.413363,295.788330 29.081123,295.806580 
z"/>
<path fill="#FEFEFE" opacity="1.000000" stroke="none" 
	d="
M28.846649,694.047241 
	C28.732899,684.968079 28.619148,675.888977 29.217766,666.424805 
	C385.956146,666.041077 741.982178,666.042542 1098.008179,666.040283 
	C1099.339844,666.040222 1100.671631,665.987183 1102.003418,665.958862 
	C1102.206543,675.080078 1102.409668,684.201172 1101.982910,693.699036 
	C1100.020264,694.061279 1098.687744,694.034241 1097.355103,694.034241 
	C741.185608,694.037354 385.016144,694.042297 28.846649,694.047241 
z"/>
<path fill="#FDFDFD" opacity="1.000000" stroke="none" 
	d="
M1075.000244,594.757019 
	C1084.473267,594.757019 1093.446289,594.757019 1102.531982,594.757019 
	C1102.531982,604.341492 1102.531982,613.468750 1102.531982,622.832764 
	C744.693054,622.832764 386.830841,622.832764 28.732492,622.832764 
	C28.732492,613.693604 28.732492,604.611755 28.732492,594.757019 
	C377.178772,594.757019 725.839417,594.757019 1075.000244,594.757019 
z"/>
<path fill="#FEFEFE" opacity="1.000000" stroke="none" 
	d="
M1076.000000,629.947266 
	C1085.149292,629.947266 1093.798462,629.947266 1102.551514,629.947266 
	C1102.551514,639.434387 1102.551514,648.570312 1102.551514,658.015381 
	C744.711487,658.015381 386.843262,658.015381 28.738131,658.015381 
	C28.738131,648.838928 28.738131,639.759888 28.738131,629.947266 
	C377.520660,629.947266 726.510315,629.947266 1076.000000,629.947266 
z"/>
<path fill="#FEFEFE" opacity="1.000000" stroke="none" 
	d="
M432.000000,766.011841 
	C297.196991,766.011841 162.893967,766.011841 28.546143,766.011841 
	C28.546143,756.922363 28.546143,748.262939 28.546143,739.179504 
	C386.527344,739.179504 744.535583,739.179504 1102.543579,739.179504 
	C1102.543579,748.079041 1102.543579,756.878296 1102.543579,766.011841 
	C879.124756,766.011841 655.812378,766.011841 432.000000,766.011841 
z"/>
<path fill="#FEFEFE" opacity="1.000000" stroke="none" 
	d="
M1102.015991,233.955078 
	C1102.015991,242.543045 1102.015991,251.130997 1102.015991,260.068726 
	C744.744812,260.068726 386.913300,260.068726 28.501881,260.068726 
	C28.501881,251.616470 28.501881,243.211563 29.215683,234.422577 
	C385.960022,234.040009 741.990601,234.041626 1098.021118,234.039413 
	C1099.352783,234.039413 1100.684326,233.984406 1102.015991,233.955078 
z"/>
<path fill="#FEFEFE" opacity="1.000000" stroke="none" 
	d="
M732.000000,485.953217 
	C855.807495,485.953217 979.115051,485.953217 1102.534546,485.953217 
	C1102.534546,494.751587 1102.534546,503.210388 1102.534546,511.865265 
	C744.596863,511.865265 386.665802,511.865265 28.622599,511.865265 
	C28.622599,503.248688 28.622599,494.812653 28.622599,485.953217 
	C262.921722,485.953217 497.210846,485.953217 732.000000,485.953217 
z"/>
<path fill="#FFFFFF" opacity="1.000000" stroke="none" 
	d="
M28.887871,362.016571 
	C28.887871,355.203094 28.887871,348.389587 28.887871,341.199860 
	C386.442566,341.199860 744.348816,341.199860 1102.608643,341.199860 
	C1102.608643,347.484344 1102.608643,353.764374 1102.118042,360.594574 
	C1099.352539,361.431641 1097.077759,361.969666 1094.802856,361.969940 
	C739.497864,362.010773 384.192871,362.012878 28.887871,362.016571 
z"/>
<path fill="#FFFFFF" opacity="1.000000" stroke="none" 
	d="
M28.914354,434.006714 
	C28.914356,426.871368 28.914356,419.735992 28.914356,412.307129 
	C386.521179,412.307129 744.348328,412.307129 1102.595825,412.307129 
	C1102.595825,418.934448 1102.595825,425.534515 1101.958008,432.573029 
	C746.126648,433.007660 390.933289,433.001892 35.739887,433.041504 
	C33.464672,433.041779 31.189529,433.671143 28.914354,434.006714 
z"/>
<path fill="#FFFFFF" opacity="1.000000" stroke="none" 
	d="
M1101.993408,125.017059 
	C1102.193237,131.722992 1102.393066,138.428909 1101.999756,145.566452 
	C1098.951904,145.666824 1096.497192,145.045654 1094.042480,145.045349 
	C741.633362,145.002289 389.224304,145.002701 36.815201,145.045425 
	C34.877399,145.045670 32.939671,145.668518 30.700550,146.001099 
	C30.198292,146.002258 29.997387,146.002960 29.762707,145.536072 
	C29.525564,138.492737 29.322201,131.916962 29.502447,125.232361 
	C31.218517,125.110275 32.550980,125.085457 33.883438,125.085449 
	C387.088623,125.083870 740.293823,125.084160 1093.499023,125.081314 
	C1096.330566,125.081291 1099.161987,125.039406 1101.993408,125.017059 
z"/>
<path fill="#FFFFFF" opacity="1.000000" stroke="none" 
	d="
M28.901129,217.007202 
	C28.901129,210.862778 28.901129,204.718353 28.901129,198.244370 
	C386.380371,198.244370 744.225586,198.244370 1102.603760,198.244370 
	C1102.603760,204.174973 1102.603760,210.259232 1101.966064,216.687927 
	C1100.495117,217.021622 1099.661987,217.001495 1098.828857,217.001495 
	C742.186279,217.002472 385.543701,217.004852 28.901129,217.007202 
z"/>
<path fill="#FFFFFF" opacity="1.000000" stroke="none" 
	d="
M31.005312,27.349962 
	C33.166481,27.302212 35.327652,27.212662 37.488823,27.212626 
	C389.928040,27.206705 742.367310,27.207214 1094.806519,27.207464 
	C1097.257812,27.207464 1099.708984,27.207464 1102.596191,27.207464 
	C1102.596191,31.220507 1102.596191,34.681313 1101.955811,38.578064 
	C744.543640,39.009041 387.771667,39.004074 30.878628,38.778137 
	C30.134766,38.363491 29.512014,38.169815 28.889259,37.976139 
	C28.774534,35.542721 28.659811,33.109303 29.030375,30.293402 
	C30.012213,29.057268 30.508762,28.203615 31.005312,27.349962 
z"/>
<path fill="#F4F4F4" opacity="1.000000" stroke="none" 
	d="
M28.748863,434.399719 
	C31.189529,433.671143 33.464672,433.041779 35.739887,433.041504 
	C390.933289,433.001892 746.126648,433.007660 1101.809204,433.024048 
	C1102.395142,434.746796 1102.491943,436.456940 1101.994629,438.587280 
	C1097.945801,439.337921 1094.491333,439.957336 1091.036743,439.957764 
	C742.110168,440.001678 393.183594,440.003113 44.257008,439.956970 
	C39.136448,439.956299 34.015968,439.327393 28.895452,438.991730 
	C28.791426,437.592041 28.687399,436.192383 28.748863,434.399719 
z"/>
<path fill="#FEFEFE" opacity="1.000000" stroke="none" 
	d="
M1102.267212,218.970261 
	C1102.430664,221.251724 1102.594116,223.533203 1102.772339,226.020401 
	C744.525757,226.020401 386.652527,226.020401 28.586620,226.020401 
	C28.586620,223.827194 28.586620,221.859848 29.184246,219.450348 
	C36.053123,219.338364 42.324337,219.956528 48.595631,219.957397 
	C384.882385,220.004028 721.169189,220.011826 1057.455933,219.955078 
	C1072.393066,219.952545 1087.330078,219.313065 1102.267212,218.970261 
z"/>
<path fill="#FEFEFE" opacity="1.000000" stroke="none" 
	d="
M1102.340820,364.063232 
	C1102.491577,365.532715 1102.642334,367.002167 1102.827881,368.810303 
	C744.729187,368.810303 386.782257,368.810303 28.580193,368.810303 
	C28.580193,367.488983 28.580193,366.193420 29.203724,364.449463 
	C384.500153,363.998566 739.173035,363.995911 1093.845947,363.996429 
	C1096.677612,363.996429 1099.509155,364.040009 1102.340820,364.063232 
z"/>
<path fill="#FEFEFE" opacity="1.000000" stroke="none" 
	d="
M29.796484,146.003662 
	C29.997387,146.002960 30.198292,146.002258 30.753834,146.393906 
	C33.593735,147.524200 36.078819,148.907990 38.564285,148.908661 
	C387.519043,149.004272 736.473816,149.004044 1085.428589,148.955826 
	C1091.049316,148.955048 1096.670166,148.310349 1102.291016,147.966125 
	C1102.439209,149.752731 1102.587524,151.539337 1102.787964,153.954666 
	C1100.764404,153.954666 1099.165527,153.954666 1097.566772,153.954666 
	C742.283630,153.956161 387.000488,153.957687 31.717342,153.956360 
	C31.051647,153.956360 30.385954,153.914154 29.449837,153.335938 
	C29.385105,150.521347 29.590796,148.262497 29.796484,146.003662 
z"/>
<path fill="#FEFEFE" opacity="1.000000" stroke="none" 
	d="
M28.733715,38.389427 
	C29.512014,38.169815 30.134766,38.363491 30.965872,39.177250 
	C33.340225,40.199329 35.506138,40.952797 37.672241,40.953369 
	C242.599747,41.007164 447.527252,41.008263 652.454773,41.002155 
	C802.401672,40.997688 952.348511,40.978870 1102.295410,40.966454 
	C1102.391602,42.217678 1102.487915,43.468895 1102.591553,44.815853 
	C744.408813,44.815853 386.672699,44.815853 28.578171,44.815853 
	C28.578171,42.702168 28.578171,40.752441 28.733715,38.389427 
z"/>
<path fill="#F4F4F4" opacity="1.000000" stroke="none" 
	d="
M1102.450439,147.657440 
	C1096.670166,148.310349 1091.049316,148.955048 1085.428589,148.955826 
	C736.473816,149.004044 387.519043,149.004272 38.564285,148.908661 
	C36.078819,148.907990 33.593735,147.524200 31.055191,146.393433 
	C32.939671,145.668518 34.877399,145.045670 36.815201,145.045425 
	C389.224304,145.002701 741.633362,145.002289 1094.042480,145.045349 
	C1096.497192,145.045654 1098.951904,145.666824 1101.849854,146.016968 
	C1102.398560,146.473511 1102.504272,146.911133 1102.450439,147.657440 
z"/>
<path fill="#FFFFFF" opacity="1.000000" stroke="none" 
	d="
M28.729721,439.431824 
	C34.015968,439.327393 39.136448,439.956299 44.257008,439.956970 
	C393.183594,440.003113 742.110168,440.001678 1091.036743,439.957764 
	C1094.491333,439.957336 1097.945801,439.337921 1101.843506,438.993805 
	C1102.372803,440.221497 1102.458984,441.462891 1102.564697,442.983185 
	C1100.250977,442.983185 1098.428711,442.983185 1096.606445,442.983185 
	C742.564819,442.983124 388.523163,442.987732 34.481575,442.866852 
	C32.456535,442.866150 28.181351,445.388733 28.729721,439.431824 
z"/>
<path fill="#D6D6D6" opacity="1.000000" stroke="none" 
	d="
M28.718536,694.485718 
	C385.016144,694.042297 741.185608,694.037354 1097.355103,694.034241 
	C1098.687744,694.034241 1100.020264,694.061279 1101.844727,694.103882 
	C1101.842896,695.076721 1101.560059,696.538269 1100.806396,696.845642 
	C1099.661621,697.312622 1098.190063,696.984436 1096.857300,696.984436 
	C742.626404,696.985474 388.395477,696.988953 34.164589,696.901062 
	C32.306366,696.900574 30.448469,695.611572 28.718536,694.485718 
z"/>
<path fill="#F4F4F4" opacity="1.000000" stroke="none" 
	d="
M1102.392578,218.671112 
	C1087.330078,219.313065 1072.393066,219.952545 1057.455933,219.955078 
	C721.169189,220.011826 384.882385,220.004028 48.595631,219.957397 
	C42.324337,219.956528 36.053123,219.338364 29.354786,219.001678 
	C28.831614,218.548645 28.735525,218.102127 28.770283,217.331421 
	C385.543701,217.004852 742.186279,217.002472 1098.828857,217.001495 
	C1099.661987,217.001495 1100.495117,217.021622 1101.812378,217.074219 
	C1102.370361,217.534714 1102.444214,217.953339 1102.392578,218.671112 
z"/>
<path fill="#E9E9E9" opacity="1.000000" stroke="none" 
	d="
M1102.496094,363.687592 
	C1099.509155,364.040009 1096.677612,363.996429 1093.845947,363.996429 
	C739.173035,363.995911 384.500153,363.998566 29.351437,363.991119 
	C28.768898,363.534760 28.662178,363.088379 28.721664,362.329285 
	C384.192871,362.012878 739.497864,362.010773 1094.802856,361.969940 
	C1097.077759,361.969666 1099.352539,361.431641 1101.987305,361.041229 
	C1102.448608,361.729156 1102.550049,362.520538 1102.496094,363.687592 
z"/>
<path fill="#171717" opacity="1.000000" stroke="none" 
	d="
M1101.901367,124.620087 
	C1099.161987,125.039406 1096.330566,125.081291 1093.499023,125.081314 
	C740.293823,125.084160 387.088623,125.083870 33.883438,125.085449 
	C32.550980,125.085457 31.218517,125.110275 29.540112,125.109833 
	C29.194168,125.096153 29.017672,124.910217 29.017673,124.910217 
	C30.665735,124.276352 32.311577,123.096619 33.962189,123.089912 
	C61.958050,122.976051 89.954506,123.007492 117.950829,123.007515 
	C443.741394,123.007782 769.531921,123.005814 1095.322510,123.058670 
	C1097.484741,123.059021 1099.647095,123.818237 1101.901367,124.620087 
z"/>
<path fill="#171717" opacity="1.000000" stroke="none" 
	d="
M1101.911133,233.564423 
	C1100.684326,233.984406 1099.352783,234.039413 1098.021118,234.039413 
	C741.990601,234.041626 385.960022,234.040009 29.461166,234.009415 
	C29.793932,233.329147 30.513248,232.312164 31.414856,232.110596 
	C32.844322,231.791031 34.395699,232.012390 35.895493,232.012390 
	C389.023499,232.011734 742.151550,232.009674 1095.279541,232.059723 
	C1097.455078,232.060028 1099.630737,232.786423 1101.911133,233.564423 
z"/>
<path fill="#171717" opacity="1.000000" stroke="none" 
	d="
M1101.903076,665.567017 
	C1100.671631,665.987183 1099.339844,666.040222 1098.008179,666.040283 
	C741.982178,666.042542 385.956146,666.041077 29.461838,666.010986 
	C29.792696,665.329712 30.509682,664.310303 31.409847,664.108704 
	C32.839062,663.788574 34.390625,664.010376 35.890430,664.010376 
	C389.020630,664.009766 742.150818,664.007690 1095.281006,664.057922 
	C1097.454956,664.058228 1099.628784,664.786743 1101.903076,665.567017 
z"/>
<path fill="#171717" opacity="1.000000" stroke="none" 
	d="
M29.096313,587.398682 
	C32.163212,586.989258 35.328171,586.960327 38.493130,586.960327 
	C392.687653,586.960510 746.882141,586.962769 1101.544922,587.001038 
	C1101.206055,587.682495 1100.479004,588.689636 1099.573364,588.890320 
	C1098.142700,589.207214 1096.592163,588.987244 1095.092285,588.987244 
	C741.960754,588.987854 388.829193,588.989990 35.697662,588.938477 
	C33.529846,588.938171 31.362135,588.191040 29.096313,587.398682 
z"/>
<path fill="#171717" opacity="1.000000" stroke="none" 
	d="
M1101.896484,556.643982 
	C1099.152344,557.068542 1096.321167,557.116028 1093.490112,557.116089 
	C738.982056,557.122559 384.473999,557.125610 29.499889,557.107300 
	C29.794355,556.399902 30.469898,555.293945 31.333826,555.119202 
	C32.935440,554.795105 34.647152,555.009460 36.313015,555.009460 
	C389.322357,555.008301 742.331726,555.005920 1095.341064,555.059021 
	C1097.497314,555.059326 1099.653442,555.832520 1101.896484,556.643982 
z"/>
<path fill="#171717" opacity="1.000000" stroke="none" 
	d="
M29.159267,550.144287 
	C142.100876,549.710449 255.086929,549.679871 368.072968,549.675903 
	C612.378418,549.667358 856.683838,549.672485 1101.449463,549.726440 
	C1101.196167,550.506592 1100.579346,551.683960 1099.748779,551.861389 
	C1098.153564,552.202209 1096.437134,551.984192 1094.770996,551.984192 
	C741.856445,551.985352 388.941864,551.988037 36.027298,551.926453 
	C33.752686,551.926025 31.478226,551.034790 29.159267,550.144287 
z"/>
<path fill="#171717" opacity="1.000000" stroke="none" 
	d="
M1101.886230,302.686401 
	C1098.965820,303.117432 1095.967163,303.170166 1092.968506,303.170197 
	C739.306213,303.172302 385.643951,303.170502 31.981665,303.169891 
	C31.315231,303.169891 30.648800,303.183777 29.517902,303.161926 
	C29.797897,302.432129 30.445486,301.330048 31.308729,301.121765 
	C32.727188,300.779510 34.285480,301.010681 35.784813,301.010681 
	C388.979248,301.009705 742.173706,301.007385 1095.368164,301.062225 
	C1097.514771,301.062561 1099.661499,301.858856 1101.886230,302.686401 
z"/>
<path fill="#171717" opacity="1.000000" stroke="none" 
	d="
M29.139839,296.216736 
	C30.413363,295.788330 31.745604,295.754059 33.077843,295.754059 
	C389.057922,295.754211 745.037964,295.756744 1101.480713,295.809418 
	C1101.202148,296.561859 1100.565186,297.629608 1099.694336,297.878693 
	C1098.460205,298.231689 1097.053711,297.987488 1095.720825,297.987488 
	C742.171570,297.988312 388.622314,297.990417 35.073078,297.931946 
	C33.114830,297.931610 31.156725,297.080658 29.139839,296.216736 
z"/>
<path fill="#F4F4F4" opacity="1.000000" stroke="none" 
	d="
M1102.447266,40.656342 
	C952.348511,40.978870 802.401672,40.997688 652.454773,41.002155 
	C447.527252,41.008263 242.599747,41.007164 37.672241,40.953369 
	C35.506138,40.952797 33.340225,40.199329 31.086981,39.398224 
	C387.771667,39.004074 744.543640,39.009041 1101.804688,39.024971 
	C1102.395508,39.472702 1102.497192,39.909470 1102.447266,40.656342 
z"/>
<path fill="#171717" opacity="1.000000" stroke="none" 
	d="
M55.932373,822.022400 
	C55.876404,820.534607 55.876404,819.388855 55.876404,817.999268 
	C50.414719,817.999268 45.117039,817.999268 39.452095,817.999268 
	C39.452095,814.378662 39.452095,810.988831 39.452095,806.957520 
	C42.853104,806.957520 46.464405,807.182800 50.029907,806.875977 
	C52.297825,806.680847 55.983940,808.820679 56.228146,804.013184 
	C58.751484,804.315247 61.309818,804.456421 63.781879,804.994141 
	C64.851875,805.226990 65.736351,806.855957 66.717888,806.868713 
	C77.530731,807.009583 88.346756,807.008118 99.159676,806.869446 
	C100.135124,806.856934 101.041389,805.163269 102.072388,805.042786 
	C104.683723,804.737610 107.370697,804.668762 109.980324,804.946899 
	C111.146744,805.071228 112.187675,806.840149 113.307014,806.864136 
	C121.420074,807.038635 129.538635,806.957947 137.873505,806.957947 
	C137.873505,810.695007 137.873505,814.095398 137.873505,817.958496 
	C129.673386,817.958496 121.571327,817.993835 113.469955,817.934631 
	C111.332970,817.919006 109.312904,817.744385 110.074265,821.339722 
	C107.560997,822.019470 105.026222,822.264771 102.288841,821.757324 
	C101.336113,819.974365 100.600082,818.058655 99.833771,818.046509 
	C87.924606,817.856995 76.011520,817.914001 63.718868,817.914001 
	C63.830402,819.461914 63.920528,820.712708 64.010651,821.963501 
	C61.336548,822.097107 58.662445,822.230774 55.932373,822.022400 
M73.523323,810.027100 
	C70.402107,810.027100 67.280884,810.027100 63.967545,810.027100 
	C63.967545,812.029297 63.967545,813.728394 63.967545,815.455933 
	C76.831604,815.455933 89.371956,815.455933 102.004799,815.455933 
	C102.004799,813.588135 102.004799,811.984741 102.004799,810.027039 
	C92.706963,810.027039 83.610962,810.027039 73.523323,810.027100 
M119.544876,815.681396 
	C123.860207,815.686646 128.185654,815.848328 132.482697,815.570251 
	C133.384857,815.511902 134.833740,813.844788 134.846085,812.903381 
	C134.858582,811.949524 133.427353,810.163696 132.587234,810.138855 
	C125.165276,809.919678 117.734131,810.011719 110.283783,810.011719 
	C110.283783,812.122620 110.283783,813.812134 110.283783,815.681396 
	C113.290825,815.681396 115.928223,815.681396 119.544876,815.681396 
M49.570419,810.026794 
	C47.463978,810.026794 45.357536,810.026794 42.992836,810.026794 
	C42.163193,813.707581 41.972023,816.226685 46.795086,815.738586 
	C49.692303,815.445435 52.643402,815.684692 55.700329,815.684692 
	C55.700329,813.612732 55.700329,811.927612 55.700329,810.027100 
	C53.746208,810.027100 52.121799,810.027100 49.570419,810.026794 
z"/>
<path fill="#171717" opacity="1.000000" stroke="none" 
	d="
M1007.151611,822.094604 
	C1006.905945,820.617188 1006.905945,819.462158 1006.905945,818.046997 
	C1001.542725,818.046997 996.250061,818.046997 990.589966,818.046997 
	C990.589966,814.406006 990.589966,811.013611 990.589966,806.956970 
	C994.865967,806.956970 999.290588,807.097473 1003.694824,806.860657 
	C1004.831665,806.799561 1005.853210,805.074707 1007.017700,804.949341 
	C1009.629639,804.667969 1012.319092,804.728943 1014.932983,805.031128 
	C1015.961304,805.150085 1016.864685,806.857361 1017.837524,806.869873 
	C1028.646973,807.008911 1039.459473,807.009399 1050.268799,806.869385 
	C1051.253662,806.856628 1052.154663,805.196655 1053.212280,805.024719 
	C1055.741699,804.613464 1058.341431,804.633911 1060.912720,804.480042 
	C1060.729492,807.808472 1063.193115,806.927795 1064.959595,806.937866 
	C1072.907349,806.983276 1080.855469,806.957642 1089.011475,806.957642 
	C1089.011475,810.727478 1089.011475,814.127319 1089.011475,817.959534 
	C1080.616943,817.959534 1072.349243,818.030823 1064.084106,817.912842 
	C1061.826660,817.880676 1060.500122,818.233643 1061.117920,821.271362 
	C1058.597900,821.981750 1056.061646,822.265137 1053.339966,821.894287 
	C1053.154541,820.183411 1053.154541,819.126770 1053.154541,818.188171 
	C1040.213745,818.188171 1027.602295,818.188171 1014.840698,818.188171 
	C1014.914429,819.613831 1014.973450,820.755432 1015.032471,821.896973 
	C1012.487427,822.070312 1009.942322,822.243652 1007.151611,822.094604 
M1037.494263,815.681396 
	C1042.605957,815.681396 1047.717651,815.681396 1053.116211,815.681396 
	C1053.116211,813.709106 1053.116211,811.974548 1053.116211,810.210999 
	C1040.267090,810.210999 1027.706787,810.210999 1014.802368,810.210999 
	C1014.900696,812.157776 1014.986389,813.853516 1015.078674,815.681335 
	C1022.566223,815.681335 1029.531494,815.681335 1037.494263,815.681396 
M1063.772461,810.024963 
	C1058.767822,810.229309 1061.555542,813.350464 1061.257690,815.680725 
	C1068.508057,815.680725 1075.299316,815.481812 1082.072266,815.748962 
	C1086.778564,815.934631 1087.025024,813.861145 1085.592773,810.029236 
	C1078.611450,810.029236 1071.668945,810.029236 1063.772461,810.024963 
M1000.532776,810.027161 
	C998.125488,810.027161 995.718140,810.027161 993.357544,810.027161 
	C993.030884,816.211670 995.259277,816.943481 1007.114319,815.173462 
	C1007.039917,813.518188 1006.963989,811.828308 1006.883057,810.026672 
	C1004.734009,810.026672 1003.102844,810.026672 1000.532776,810.027161 
z"/>
<path fill="#E9E9E9" opacity="1.000000" stroke="none" 
	d="
M1015.499084,821.904053 
	C1014.973450,820.755432 1014.914429,819.613831 1014.840698,818.188171 
	C1027.602295,818.188171 1040.213745,818.188171 1053.154541,818.188171 
	C1053.154541,819.126770 1053.154541,820.183411 1053.072021,821.598633 
	C1040.648193,821.941772 1028.307007,821.926453 1015.499084,821.904053 
z"/>
<path fill="#E9E9E9" opacity="1.000000" stroke="none" 
	d="
M64.478683,821.950562 
	C63.920528,820.712708 63.830402,819.461914 63.718868,817.914001 
	C76.011520,817.914001 87.924606,817.856995 99.833771,818.046509 
	C100.600082,818.058655 101.336113,819.974365 102.028038,821.454285 
	C89.628799,821.915222 77.287750,821.926392 64.478683,821.950562 
z"/>
<path fill="#171717" opacity="1.000000" stroke="none" 
	d="
M1103.245850,819.803711 
	C1102.855347,804.929199 1102.744995,789.825439 1102.829346,774.364136 
	C1103.298706,774.411804 1103.814941,774.818054 1103.813110,775.221985 
	C1103.747314,790.006287 1103.633545,804.790344 1103.245850,819.803711 
z"/>
<path fill="#B3B3B3" opacity="1.000000" stroke="none" 
	d="
M28.708893,125.207657 
	C29.017672,124.910217 29.194168,125.096153 29.156502,125.218674 
	C29.322201,131.916962 29.525564,138.492737 29.762707,145.536072 
	C29.590796,148.262497 29.385105,150.521347 29.064163,153.190857 
	C28.695007,148.328415 28.339577,143.057602 28.219898,137.781418 
	C28.127159,133.692780 28.329144,129.597458 28.708893,125.207657 
z"/>
<path fill="#FEFEFE" opacity="1.000000" stroke="none" 
	d="
M30.635334,27.264355 
	C30.508762,28.203615 30.012213,29.057268 29.182262,29.928822 
	C29.321028,29.024063 29.793192,28.101406 30.635334,27.264355 
z"/>
<path fill="#171717" opacity="1.000000" stroke="none" 
	d="
M588.000000,808.967896 
	C596.286560,808.967896 604.073181,808.967896 611.997559,808.967896 
	C611.997559,811.716370 611.997559,814.008118 611.997559,816.587402 
	C579.242493,816.587402 546.519958,816.587402 513.479126,816.587402 
	C513.479126,814.265442 513.479126,811.998169 513.479126,808.967896 
	C538.018433,808.967896 562.759216,808.967896 588.000000,808.967896 
M605.503662,814.008423 
	C606.557434,813.776184 607.611145,813.543945 608.664917,813.311707 
	C608.600464,812.988098 608.536072,812.664551 608.471619,812.340942 
	C578.064514,812.340942 547.657471,812.340942 517.250366,812.340942 
	C517.247681,812.897461 517.244934,813.454041 517.242249,814.010559 
	C546.322327,814.010559 575.402344,814.010559 605.503662,814.008423 
z"/>
<path fill="#F4F4F4" opacity="1.000000" stroke="none" 
	d="
M527.000000,183.997559 
	C361.903625,183.997559 197.307281,183.997559 32.710911,183.997559 
	C32.710964,183.560394 32.711014,183.123230 32.711067,182.686066 
	C387.903259,182.686066 743.095459,182.686066 1098.287720,182.686066 
	C1098.288574,183.123230 1098.289429,183.560394 1098.290283,183.997559 
	C908.026855,183.997559 717.763428,183.997559 527.000000,183.997559 
z"/>
<path fill="#E9E9E9" opacity="1.000000" stroke="none" 
	d="
M74.019150,810.027100 
	C83.610962,810.027039 92.706963,810.027039 102.004799,810.027039 
	C102.004799,811.984741 102.004799,813.588135 102.004799,815.455933 
	C89.371956,815.455933 76.831604,815.455933 63.967545,815.455933 
	C63.967545,813.728394 63.967545,812.029297 63.967545,810.027100 
	C67.280884,810.027100 70.402107,810.027100 74.019150,810.027100 
z"/>
<path fill="#E9E9E9" opacity="1.000000" stroke="none" 
	d="
M119.055252,815.681396 
	C115.928223,815.681396 113.290825,815.681396 110.283783,815.681396 
	C110.283783,813.812134 110.283783,812.122620 110.283783,810.011719 
	C117.734131,810.011719 125.165276,809.919678 132.587234,810.138855 
	C133.427353,810.163696 134.858582,811.949524 134.846085,812.903381 
	C134.833740,813.844788 133.384857,815.511902 132.482697,815.570251 
	C128.185654,815.848328 123.860207,815.686646 119.055252,815.681396 
z"/>
<path fill="#E9E9E9" opacity="1.000000" stroke="none" 
	d="
M50.033905,810.026978 
	C52.121799,810.027100 53.746208,810.027100 55.700329,810.027100 
	C55.700329,811.927612 55.700329,813.612732 55.700329,815.684692 
	C52.643402,815.684692 49.692303,815.445435 46.795086,815.738586 
	C41.972023,816.226685 42.163193,813.707581 42.992836,810.026794 
	C45.357536,810.026794 47.463978,810.026794 50.033905,810.026978 
z"/>
<path fill="#E9E9E9" opacity="1.000000" stroke="none" 
	d="
M1036.995605,815.681396 
	C1029.531494,815.681335 1022.566223,815.681335 1015.078674,815.681335 
	C1014.986389,813.853516 1014.900696,812.157776 1014.802368,810.210999 
	C1027.706787,810.210999 1040.267090,810.210999 1053.116211,810.210999 
	C1053.116211,811.974548 1053.116211,813.709106 1053.116211,815.681396 
	C1047.717651,815.681396 1042.605957,815.681396 1036.995605,815.681396 
z"/>
<path fill="#E9E9E9" opacity="1.000000" stroke="none" 
	d="
M1064.249390,810.027100 
	C1071.668945,810.029236 1078.611450,810.029236 1085.592773,810.029236 
	C1087.025024,813.861145 1086.778564,815.934631 1082.072266,815.748962 
	C1075.299316,815.481812 1068.508057,815.680725 1061.257690,815.680725 
	C1061.555542,813.350464 1058.767822,810.229309 1064.249390,810.027100 
z"/>
<path fill="#E9E9E9" opacity="1.000000" stroke="none" 
	d="
M1001.002197,810.026917 
	C1003.102844,810.026672 1004.734009,810.026672 1006.883057,810.026672 
	C1006.963989,811.828308 1007.039917,813.518188 1007.114319,815.173462 
	C995.259277,816.943481 993.030884,816.211670 993.357544,810.027161 
	C995.718140,810.027161 998.125488,810.027161 1001.002197,810.026917 
z"/>
<path fill="#D6D6D6" opacity="1.000000" stroke="none" 
	d="
M604.993042,814.009521 
	C575.402344,814.010559 546.322327,814.010559 517.242249,814.010559 
	C517.244934,813.454041 517.247681,812.897461 517.250366,812.340942 
	C547.657471,812.340942 578.064514,812.340942 608.471619,812.340942 
	C608.536072,812.664551 608.600464,812.988098 608.664917,813.311707 
	C607.611145,813.543945 606.557434,813.776184 604.993042,814.009521 
z"/>
</svg>