<svg version="1.1" id="Layer_1" xmlns="http://www.w3.org/2000/svg" xmlns:xlink="http://www.w3.org/1999/xlink" x="0px" y="0px"
	 width="100%" viewBox="0 0 449 748" enable-background="new 0 0 449 748" xml:space="preserve">
<path fill="#090909" opacity="1.000000" stroke="none" 
	d="
M434.000000,749.000000 
	C295.309998,749.000000 156.620010,749.000000 17.373058,748.539062 
	C16.847692,738.248352 16.906652,728.418579 16.906881,718.588867 
	C16.912313,485.620789 16.910900,252.652725 16.923803,19.684654 
	C16.923883,18.236416 17.106998,16.788185 17.225948,15.023950 
	C18.991486,15.023950 20.455559,15.023944 21.919634,15.023950 
	C140.236954,15.024488 258.554291,15.021916 376.871613,15.028726 
	C395.868225,15.029819 414.864868,15.072809 433.933075,15.430517 
	C434.111816,16.206379 434.218933,16.648153 434.225647,17.543350 
	C434.095154,19.495916 434.038727,20.995066 434.038818,22.494209 
	C434.051849,255.649323 434.067047,488.804413 434.093781,721.959534 
	C434.094727,730.286865 434.211273,738.614136 434.175415,747.275391 
	C434.051270,748.072876 434.025635,748.536438 434.000000,749.000000 
M390.306122,744.272644 
	C392.264893,744.041504 394.223633,743.810303 397.095490,743.591431 
	C407.364349,743.591431 417.633209,743.591431 428.009644,743.591431 
	C428.009644,728.384338 428.009644,713.838562 428.009644,699.208496 
	C292.826752,699.208496 157.955231,699.208496 22.736700,699.208496 
	C22.736700,713.550232 22.719641,727.662476 22.788017,741.774414 
	C22.791368,742.466431 23.541807,743.154724 24.379490,744.432678 
	C32.310383,744.585571 40.241024,744.770447 48.172642,744.833008 
	C48.832111,744.838196 49.498093,744.018005 51.075634,743.636719 
	C60.661736,743.620483 70.247841,743.604248 80.359962,744.291870 
	C81.810410,744.517334 83.260788,744.939575 84.711311,744.940125 
	C174.860611,744.971558 265.009918,744.976013 355.159180,744.911377 
	C356.825378,744.910156 358.490997,744.049866 361.072418,743.637695 
	C370.660248,743.626892 380.248047,743.616089 390.306122,744.272644 
M428.298676,33.350449 
	C428.197327,32.900131 428.095978,32.449814 428.258148,31.101528 
	C428.258148,27.829557 428.258148,24.557587 428.258148,21.213419 
	C292.769592,21.213419 157.892944,21.213419 23.005089,21.213419 
	C23.005089,25.060110 23.005089,28.529835 22.711916,32.643490 
	C22.805449,33.095440 22.898981,33.547394 22.740213,34.648788 
	C22.817888,35.099426 22.895563,35.550068 22.874155,36.601486 
	C23.247732,36.679996 23.621311,36.758507 24.910463,37.003075 
	C157.779343,37.007969 290.648224,37.013325 423.517120,37.010296 
	C424.677612,37.010269 425.838135,36.897472 427.603668,36.923817 
	C427.744385,36.615891 427.885101,36.307964 428.264099,35.345802 
	C428.180511,34.896805 428.096954,34.447807 428.298676,33.350449 
M428.283234,163.276764 
	C428.186218,162.517715 428.089203,161.758682 428.265503,160.098495 
	C428.179565,154.399033 428.093628,148.699585 428.117218,142.409271 
	C427.748596,142.331070 427.379944,142.252869 426.087341,141.998123 
	C293.216736,141.992859 160.346100,141.987106 27.475491,141.990234 
	C26.315527,141.990250 25.155567,142.109543 23.399120,142.090088 
	C23.263456,142.393509 23.127792,142.696915 22.729195,143.904144 
	C22.822826,149.602631 22.916460,155.301102 22.720375,161.721634 
	C22.814857,162.481140 22.909342,163.240646 22.737156,164.773697 
	C22.826885,165.849045 22.916615,166.924393 22.785513,168.875061 
	C24.585308,169.251740 26.384974,169.957504 28.184917,169.958206 
	C159.698303,170.009674 291.211700,170.005569 422.725098,170.001099 
	C424.220215,170.001038 425.734833,170.057175 427.196411,169.818192 
	C427.552124,169.760025 427.733307,168.634537 428.262146,167.226379 
	C428.173584,166.150970 428.085052,165.075562 428.283234,163.276764 
M22.742727,131.880051 
	C22.798973,133.152496 22.855219,134.424957 22.925262,136.009506 
	C25.019030,136.009506 26.834484,136.009506 28.649937,136.009506 
	C159.775818,136.009735 290.901703,136.010727 422.027588,136.001633 
	C423.687653,136.001511 425.347748,135.872650 427.593018,135.888916 
	C427.726410,135.592728 427.859802,135.296539 428.269989,134.276306 
	C428.181091,133.517502 428.092163,132.758698 428.285461,131.229263 
	C428.188202,130.152756 428.090942,129.076233 428.263885,127.099388 
	C428.178650,121.732979 428.093384,116.366577 428.117249,110.408829 
	C427.748566,110.330307 427.379913,110.251778 426.088745,109.997147 
	C293.217712,109.992203 160.346680,109.986771 27.475653,109.990204 
	C26.315657,109.990234 25.155663,110.109406 23.398260,110.089195 
	C23.262272,110.392929 23.126284,110.696663 22.729031,111.902954 
	C22.822273,117.268509 22.915516,122.634056 22.724003,128.724243 
	C22.825220,129.483124 22.926439,130.242004 22.742727,131.880051 
M22.869473,331.602814 
	C23.244259,331.681061 23.619045,331.759308 24.909477,332.004120 
	C157.778976,332.008972 290.648468,332.014313 423.517975,332.011292 
	C424.678497,332.011261 425.839050,331.898743 427.606171,331.924255 
	C427.748901,331.616150 427.891602,331.308014 428.278107,330.220459 
	C428.182251,329.147217 428.086395,328.073975 428.282532,326.355530 
	C428.187195,325.903595 428.091888,325.451630 428.266052,324.097565 
	C428.185974,318.398071 428.105896,312.698578 428.127228,306.397156 
	C427.752899,306.318848 427.378601,306.240509 426.079285,305.997192 
	C293.214172,305.992218 160.349075,305.986786 27.483969,305.989655 
	C26.323353,305.989655 25.162739,306.101135 23.396551,306.073486 
	C23.255554,306.382202 23.114557,306.690918 22.730162,307.908203 
	C22.822737,313.605255 22.915312,319.302307 22.725832,325.648163 
	C22.822659,326.099182 22.919487,326.550232 22.747934,327.772614 
	C22.820892,328.848633 22.893850,329.924622 22.869473,331.602814 
M427.603363,201.919617 
	C427.745514,201.613144 427.887695,201.306686 428.274170,200.189362 
	C428.181885,198.792984 428.089600,197.396591 428.279236,195.351303 
	C428.181793,194.900467 428.084351,194.449631 428.262207,193.099899 
	C428.184235,187.732956 428.106293,182.366013 428.128235,176.396637 
	C427.753601,176.318253 427.378967,176.239853 426.080963,175.996201 
	C293.215210,175.991470 160.349457,175.986282 27.483715,175.989410 
	C26.323175,175.989441 25.162638,176.101624 23.396414,176.074890 
	C23.255508,176.383179 23.114601,176.691452 22.727579,177.906036 
	C22.825176,183.270111 22.922773,188.634186 22.730602,194.643356 
	C22.822849,195.095779 22.915096,195.548203 22.737425,196.803528 
	C22.815540,198.202621 22.893654,199.601730 22.871698,201.601425 
	C23.246099,201.678757 23.620501,201.756073 24.910721,201.997787 
	C157.779282,202.002441 290.647858,202.007553 423.516418,202.004395 
	C424.677032,202.004379 425.837646,201.893356 427.603363,201.919617 
M22.742529,396.868073 
	C23.321918,400.773499 26.392630,398.899200 28.207502,398.900574 
	C159.705719,398.999664 291.204010,398.990875 422.702301,398.988892 
	C424.035278,398.988892 425.518921,399.310974 426.646942,398.823059 
	C427.366943,398.511627 427.560577,396.983246 428.277252,395.177887 
	C428.180084,393.451721 428.082916,391.725525 428.263977,389.099548 
	C428.179169,383.399750 428.094391,377.699982 428.117615,371.409241 
	C427.748901,371.331635 427.380188,371.253998 426.087311,371.000702 
	C293.216644,370.994568 160.345947,370.987915 27.475267,370.990204 
	C26.315311,370.990204 25.155357,371.109741 23.398314,371.090393 
	C23.262671,371.393707 23.127028,371.697021 22.728086,372.904053 
	C22.824636,378.602448 22.921185,384.300812 22.736046,390.823059 
	C22.828569,392.548920 22.921091,394.274780 22.742529,396.868073 
M22.742954,554.889038 
	C22.742954,557.484924 22.742954,560.080811 22.742954,562.711670 
	C158.191681,562.711670 293.156525,562.711670 428.455109,562.711670 
	C428.283569,559.606567 428.128693,556.802917 428.262085,553.104370 
	C428.175201,548.069580 428.088287,543.034790 428.112366,537.413086 
	C427.746155,537.334534 427.379944,537.256042 426.089966,536.997803 
	C293.217499,536.992676 160.345047,536.987061 27.472578,536.990479 
	C26.312811,536.990540 25.153049,537.112122 23.399887,537.094788 
	C23.266119,537.396545 23.132351,537.698242 22.729918,538.900269 
	C22.828814,543.933289 22.927711,548.966248 22.742954,554.889038 
M23.399990,43.096592 
	C23.266117,43.397758 23.132242,43.698929 22.728809,44.902260 
	C22.824560,50.601337 22.920313,56.300415 22.729622,62.887684 
	C22.729622,65.484482 22.729622,68.081284 22.729622,70.718781 
	C158.210037,70.718781 293.169434,70.718781 428.441742,70.718781 
	C428.278992,67.612167 428.131989,64.805847 428.262726,61.099564 
	C428.175720,55.399757 428.088684,49.699947 428.113708,43.413746 
	C427.747162,43.336765 427.380646,43.259785 426.090179,43.003578 
	C293.217651,42.997540 160.345139,42.991013 27.472630,42.993465 
	C26.312830,42.993488 25.153036,43.114262 23.399990,43.096592 
M40.501019,496.017761 
	C169.727371,496.017761 298.953735,496.017761 428.098450,496.017761 
	C428.098450,486.312805 428.098450,477.368073 428.098450,468.357025 
	C292.859985,468.357025 157.838364,468.357025 22.901083,468.357025 
	C22.901083,477.681396 22.901083,486.626465 22.901083,496.017548 
	C28.572460,496.017548 34.036938,496.017548 40.501019,496.017761 
M202.500000,300.004486 
	C277.722046,300.004486 352.944122,300.004486 428.084259,300.004486 
	C428.084259,290.277924 428.084259,281.339600 428.084259,272.359833 
	C292.841492,272.359833 157.828720,272.359833 22.915133,272.359833 
	C22.915133,281.684723 22.915133,290.626770 22.915133,300.004486 
	C82.595406,300.004486 142.047699,300.004486 202.500000,300.004486 
M75.499969,629.892334 
	C192.913742,629.892334 310.327515,629.892334 428.001770,629.892334 
	C428.001770,620.326111 428.001770,611.296814 428.001770,602.230835 
	C292.782379,602.230835 157.890320,602.230835 23.127474,602.230835 
	C23.127474,611.538391 23.127474,620.579407 23.127474,629.892334 
	C40.554901,629.892334 57.527431,629.892334 75.499969,629.892334 
M302.500000,529.988098 
	C344.386627,529.988098 386.273224,529.988098 428.070618,529.988098 
	C428.070618,520.581909 428.070618,511.982361 428.070618,503.357239 
	C292.821930,503.357239 157.817474,503.357239 22.935671,503.357239 
	C22.935671,512.344055 22.935671,520.949951 22.935671,529.988098 
	C115.956940,529.988098 208.728470,529.988098 302.500000,529.988098 
M131.500000,595.009216 
	C230.394943,595.009216 329.289886,595.009216 428.095032,595.009216 
	C428.095032,585.967468 428.095032,577.691040 428.095032,569.362488 
	C292.855072,569.362488 157.834961,569.362488 22.902851,569.362488 
	C22.902851,578.024170 22.902851,586.300354 22.902851,595.009094 
	C58.912300,595.009094 94.706154,595.009094 131.500000,595.009216 
M385.500000,404.979675 
	C264.605652,404.979675 143.711273,404.979675 22.899315,404.979675 
	C22.899315,414.009216 22.899315,422.287933 22.899315,430.635651 
	C158.132904,430.635651 293.153168,430.635651 428.097656,430.635651 
	C428.097656,421.978271 428.097656,413.700714 428.097656,404.979095 
	C414.091064,404.979095 400.295532,404.979095 385.500000,404.979675 
M312.500000,365.015472 
	C351.062042,365.015472 389.624084,365.015472 428.084045,365.015472 
	C428.084045,355.947693 428.084045,347.674530 428.084045,339.370117 
	C292.838257,339.370117 157.824081,339.370117 22.915527,339.370117 
	C22.915527,348.037933 22.915527,356.312469 22.915527,365.015472 
	C119.263725,365.015472 215.381866,365.015472 312.500000,365.015472 
M40.501163,661.968872 
	C169.705841,661.968872 298.910522,661.968872 428.103790,661.968872 
	C428.103790,652.969910 428.103790,644.696411 428.103790,636.304138 
	C292.867950,636.304138 157.848083,636.304138 22.909464,636.304138 
	C22.909464,644.915344 22.909464,653.199524 22.909464,661.968933 
	C28.587067,661.968933 34.044373,661.968933 40.501163,661.968872 
M125.500000,76.980904 
	C91.268967,76.980904 57.037930,76.980904 22.912605,76.980904 
	C22.912605,86.041031 22.912605,94.315254 22.912605,102.621216 
	C158.154739,102.621216 293.169220,102.621216 428.086609,102.621216 
	C428.086609,93.951561 428.086609,85.677681 428.086609,76.980904 
	C327.405212,76.980904 226.952606,76.980904 125.500000,76.980904 
M144.500000,265.013672 
	C239.060120,265.013672 333.620239,265.013672 428.093079,265.013672 
	C428.093079,255.972183 428.093079,247.695816 428.093079,239.358871 
	C292.853851,239.358871 157.835007,239.358871 22.908186,239.358871 
	C22.908186,248.017456 22.908186,256.294830 22.908186,265.013672 
	C63.251656,265.013672 103.375832,265.013672 144.500000,265.013672 
M369.500000,667.980774 
	C253.939331,667.980774 138.378677,667.980774 22.904732,667.980774 
	C22.904732,676.671570 22.904732,684.617249 22.904732,692.634399 
	C158.139450,692.634399 293.156189,692.634399 428.096283,692.634399 
	C428.096283,684.309082 428.096283,676.365173 428.096283,667.980774 
	C408.754639,667.980774 389.627319,667.980774 369.500000,667.980774 
M425.394318,462.014771 
	C426.362946,461.285400 428.149994,460.580688 428.172791,459.822845 
	C428.387299,452.705536 428.300171,445.579132 428.300171,438.330505 
	C292.897034,438.330505 157.860382,438.330505 22.878231,438.330505 
	C22.878231,446.303131 22.878231,453.923065 22.878231,462.015594 
	C156.848221,462.015594 290.627625,462.015594 425.394318,462.014771 
M291.500000,208.979858 
	C201.937851,208.979858 112.375702,208.979858 22.908875,208.979858 
	C22.908875,217.355988 22.908875,224.966766 22.908875,232.629089 
	C158.149078,232.629089 293.165527,232.629089 428.093750,232.629089 
	C428.093750,224.631409 428.093750,217.021866 428.093750,208.979858 
	C382.749603,208.979858 337.624817,208.979858 291.500000,208.979858 
z"/>
<path fill="#F8F8F8" opacity="1.000000" stroke="none" 
	d="
M433.861481,15.096432 
	C414.864868,15.072809 395.868225,15.029819 376.871613,15.028726 
	C258.554291,15.021916 140.236954,15.024488 21.919634,15.023950 
	C20.455559,15.023944 18.991486,15.023950 17.225948,15.023950 
	C17.106998,16.788185 16.923883,18.236416 16.923803,19.684654 
	C16.910900,252.652725 16.912313,485.620789 16.906881,718.588867 
	C16.906652,728.418579 16.847692,738.248352 16.908047,748.539062 
	C12.975455,749.000000 8.950912,749.000000 4.241238,748.646240 
	C3.345777,746.484497 2.951335,744.676636 2.951194,742.868713 
	C2.932178,498.439514 2.941422,254.010300 2.959564,9.581100 
	C2.959724,7.422043 3.097897,5.262997 3.625256,3.045120 
	C151.072083,2.986294 298.065308,2.986294 446.564331,2.986294 
	C441.667236,7.654900 437.764343,11.375667 433.861481,15.096432 
z"/>
<path fill="#CCCCCC" opacity="1.000000" stroke="none" 
	d="
M434.471191,749.000000 
	C434.025635,748.536438 434.051270,748.072876 434.621368,747.300049 
	C437.497742,746.993164 439.857544,746.766296 442.155731,747.045776 
	C446.852875,747.617188 448.077728,745.669617 448.075867,741.093567 
	C447.976135,497.351227 447.988525,253.608826 447.948578,9.866432 
	C447.948334,8.304699 447.381195,6.743058 447.070190,4.840508 
	C447.029663,4.046469 446.997742,3.593297 447.346344,3.145570 
	C448.484589,3.100677 449.242279,3.050338 450.000000,3.000000 
	C450.000000,251.666672 450.000000,500.333344 450.000000,749.000000 
	C444.936584,749.000000 439.939484,749.000000 434.471191,749.000000 
z"/>
<path fill="#656565" opacity="1.000000" stroke="none" 
	d="
M3.171633,3.103945 
	C3.097897,5.262997 2.959724,7.422043 2.959564,9.581100 
	C2.941422,254.010300 2.932178,498.439514 2.951194,742.868713 
	C2.951335,744.676636 3.345777,746.484497 3.778054,748.646240 
	C2.345619,748.951904 0.128283,749.621460 0.975714,746.493408 
	C1.143980,745.872314 1.000000,745.166687 1.000000,744.500000 
	C1.000000,498.166656 0.998216,251.833328 1.041284,5.500007 
	C1.041546,3.999949 1.666667,2.500000 2.541605,1.350174 
	C3.112684,2.168213 3.142159,2.636079 3.171633,3.103945 
z"/>
<path fill="#BCBCBC" opacity="1.000000" stroke="none" 
	d="
M3.625256,3.045120 
	C3.142159,2.636079 3.112684,2.168213 3.041605,1.350174 
	C150.687561,1.000000 298.375122,1.000000 446.615356,1.352682 
	C447.100647,2.183617 447.033234,2.661870 446.965820,3.140123 
	C446.997742,3.593297 447.029663,4.046469 446.874542,5.096813 
	C442.567017,9.492629 438.446533,13.291273 434.326050,17.089924 
	C434.218933,16.648153 434.111816,16.206379 433.933075,15.430519 
	C437.764343,11.375667 441.667236,7.654900 446.564331,2.986294 
	C298.065308,2.986294 151.072083,2.986294 3.625256,3.045120 
z"/>
<path fill="#656565" opacity="1.000000" stroke="none" 
	d="
M447.346344,3.145569 
	C447.033234,2.661870 447.100647,2.183617 447.084045,1.352685 
	C448.000000,1.333339 449.000000,1.666673 450.000000,2.500003 
	C449.242279,3.050338 448.484589,3.100677 447.346344,3.145569 
z"/>
<path fill="#FDFDFD" opacity="1.000000" stroke="none" 
	d="
M23.944365,743.844788 
	C23.541807,743.154724 22.791368,742.466431 22.788017,741.774414 
	C22.719641,727.662476 22.736700,713.550232 22.736700,699.208496 
	C157.955231,699.208496 292.826752,699.208496 428.009644,699.208496 
	C428.009644,713.838562 428.009644,728.384338 428.009644,743.591431 
	C417.633209,743.591431 407.364349,743.591431 396.585693,743.152710 
	C396.464020,741.852966 396.852081,740.991943 397.620667,740.153198 
	C403.526031,740.161743 409.050873,740.147949 415.036469,740.072388 
	C421.036621,737.707397 416.519348,733.450684 417.957001,730.543701 
	C409.023163,730.011597 400.669861,729.167664 392.311005,729.108337 
	C382.935547,729.041687 373.556366,729.784607 364.175262,729.910889 
	C362.769897,729.929810 361.417725,728.144043 359.910858,727.841919 
	C358.034454,727.465820 355.967346,727.486084 354.088531,727.863098 
	C352.736267,728.134277 351.613434,729.767395 350.289429,729.916809 
	C347.377563,730.245300 344.403046,730.018799 341.407776,730.018799 
	C341.407776,733.582764 341.407776,736.753845 341.407776,740.115723 
	C343.831207,740.115723 345.822418,740.115723 347.874847,740.125549 
	C349.593994,740.134033 351.251923,740.132690 353.389160,740.278931 
	C354.731903,744.729004 351.482544,743.469421 349.510406,743.471130 
	C295.704437,743.518860 241.898453,743.511963 188.092468,743.511780 
	C155.608978,743.511658 123.125465,743.523804 90.642082,743.463501 
	C88.778717,743.460022 85.986153,744.648071 85.918007,740.782593 
	C86.001762,740.548950 86.088211,740.060120 86.049683,740.034424 
	C86.011147,740.008728 86.058914,740.088074 86.470886,740.059143 
	C87.754570,739.708862 88.626274,739.387512 89.908638,739.210205 
	C95.072495,739.613770 99.825699,739.873230 105.039566,740.073608 
	C111.021370,737.688110 106.541656,733.452637 108.203117,730.018494 
	C101.731216,730.018494 96.090530,730.092957 90.453827,729.975647 
	C88.631180,729.937744 85.993477,731.195923 85.573135,727.596619 
	C85.536469,727.282593 80.900009,726.916687 80.788254,727.289978 
	C79.386757,731.971130 75.684357,729.811401 73.056137,729.928040 
	C66.745476,730.208374 60.412807,730.083069 54.091549,729.974243 
	C52.428474,729.945557 49.773067,731.164978 49.900318,727.665771 
	C47.954113,727.732422 45.954510,727.548767 44.079445,727.948792 
	C42.701153,728.242798 41.537434,729.774475 40.187443,729.921326 
	C37.274754,730.238220 34.303719,730.018738 31.214087,730.018738 
	C31.214087,733.571655 31.214087,736.660522 31.214087,740.793518 
	C33.779156,739.830627 35.861259,739.049011 37.896896,738.272949 
	C38.502487,738.486206 39.154552,738.693909 40.238892,739.382080 
	C41.756775,740.479431 42.842384,741.096313 43.927994,741.713196 
	C42.821674,742.309631 41.739082,743.366272 40.605022,743.424744 
	C35.059006,743.710876 29.499260,743.730774 23.944365,743.844788 
M215.500000,739.045837 
	C231.277115,739.045837 247.054230,739.045837 262.585022,739.045837 
	C262.585022,736.593018 262.585022,734.488037 262.585022,732.158569 
	C237.301483,732.158569 211.754501,732.158569 186.397644,732.158569 
	C186.397644,734.404785 186.397644,736.524353 186.397644,739.045837 
	C195.610916,739.045837 205.055450,739.045837 215.500000,739.045837 
z"/>
<path fill="#FEFEFE" opacity="1.000000" stroke="none" 
	d="
M40.001221,496.017639 
	C34.036938,496.017548 28.572460,496.017548 22.901083,496.017548 
	C22.901083,486.626465 22.901083,477.681396 22.901083,468.357025 
	C157.838364,468.357025 292.859985,468.357025 428.098450,468.357025 
	C428.098450,477.368073 428.098450,486.312805 428.098450,496.017761 
	C298.953735,496.017761 169.727371,496.017761 40.001221,496.017639 
z"/>
<path fill="#FEFEFE" opacity="1.000000" stroke="none" 
	d="
M202.000000,300.004486 
	C142.047699,300.004486 82.595406,300.004486 22.915133,300.004486 
	C22.915133,290.626770 22.915133,281.684723 22.915133,272.359833 
	C157.828720,272.359833 292.841492,272.359833 428.084259,272.359833 
	C428.084259,281.339600 428.084259,290.277924 428.084259,300.004486 
	C352.944122,300.004486 277.722046,300.004486 202.000000,300.004486 
z"/>
<path fill="#FAFAFA" opacity="1.000000" stroke="none" 
	d="
M74.999969,629.892334 
	C57.527431,629.892334 40.554901,629.892334 23.127474,629.892334 
	C23.127474,620.579407 23.127474,611.538391 23.127474,602.230835 
	C157.890320,602.230835 292.782379,602.230835 428.001770,602.230835 
	C428.001770,611.296814 428.001770,620.326111 428.001770,629.892334 
	C310.327515,629.892334 192.913742,629.892334 74.999969,629.892334 
z"/>
<path fill="#FEFEFE" opacity="1.000000" stroke="none" 
	d="
M302.000000,529.988098 
	C208.728470,529.988098 115.956940,529.988098 22.935671,529.988098 
	C22.935671,520.949951 22.935671,512.344055 22.935671,503.357239 
	C157.817474,503.357239 292.821930,503.357239 428.070618,503.357239 
	C428.070618,511.982361 428.070618,520.581909 428.070618,529.988098 
	C386.273224,529.988098 344.386627,529.988098 302.000000,529.988098 
z"/>
<path fill="#FEFEFE" opacity="1.000000" stroke="none" 
	d="
M131.000000,595.009155 
	C94.706154,595.009094 58.912300,595.009094 22.902851,595.009094 
	C22.902851,586.300354 22.902851,578.024170 22.902851,569.362488 
	C157.834961,569.362488 292.855072,569.362488 428.095032,569.362488 
	C428.095032,577.691040 428.095032,585.967468 428.095032,595.009216 
	C329.289886,595.009216 230.394943,595.009216 131.000000,595.009155 
z"/>
<path fill="#FEFEFE" opacity="1.000000" stroke="none" 
	d="
M386.000000,404.979370 
	C400.295532,404.979095 414.091064,404.979095 428.097656,404.979095 
	C428.097656,413.700714 428.097656,421.978271 428.097656,430.635651 
	C293.153168,430.635651 158.132904,430.635651 22.899315,430.635651 
	C22.899315,422.287933 22.899315,414.009216 22.899315,404.979675 
	C143.711273,404.979675 264.605652,404.979675 386.000000,404.979370 
z"/>
<path fill="#FEFEFE" opacity="1.000000" stroke="none" 
	d="
M312.000000,365.015472 
	C215.381866,365.015472 119.263725,365.015472 22.915527,365.015472 
	C22.915527,356.312469 22.915527,348.037933 22.915527,339.370117 
	C157.824081,339.370117 292.838257,339.370117 428.084045,339.370117 
	C428.084045,347.674530 428.084045,355.947693 428.084045,365.015472 
	C389.624084,365.015472 351.062042,365.015472 312.000000,365.015472 
z"/>
<path fill="#FDFDFD" opacity="1.000000" stroke="none" 
	d="
M40.001419,661.968872 
	C34.044373,661.968933 28.587067,661.968933 22.909464,661.968933 
	C22.909464,653.199524 22.909464,644.915344 22.909464,636.304138 
	C157.848083,636.304138 292.867950,636.304138 428.103790,636.304138 
	C428.103790,644.696411 428.103790,652.969910 428.103790,661.968872 
	C298.910522,661.968872 169.705841,661.968872 40.001419,661.968872 
z"/>
<path fill="#FEFEFE" opacity="1.000000" stroke="none" 
	d="
M126.000000,76.980904 
	C226.952606,76.980904 327.405212,76.980904 428.086609,76.980904 
	C428.086609,85.677681 428.086609,93.951561 428.086609,102.621216 
	C293.169220,102.621216 158.154739,102.621216 22.912605,102.621216 
	C22.912605,94.315254 22.912605,86.041031 22.912605,76.980904 
	C57.037930,76.980904 91.268967,76.980904 126.000000,76.980904 
z"/>
<path fill="#FEFEFE" opacity="1.000000" stroke="none" 
	d="
M144.000000,265.013672 
	C103.375832,265.013672 63.251656,265.013672 22.908186,265.013672 
	C22.908186,256.294830 22.908186,248.017456 22.908186,239.358871 
	C157.835007,239.358871 292.853851,239.358871 428.093079,239.358871 
	C428.093079,247.695816 428.093079,255.972183 428.093079,265.013672 
	C333.620239,265.013672 239.060120,265.013672 144.000000,265.013672 
z"/>
<path fill="#F8F8F8" opacity="1.000000" stroke="none" 
	d="
M434.225647,17.543343 
	C438.446533,13.291273 442.567017,9.492629 446.883148,5.437679 
	C447.381195,6.743058 447.948334,8.304699 447.948578,9.866432 
	C447.988525,253.608826 447.976135,497.351227 448.075867,741.093567 
	C448.077728,745.669617 446.852875,747.617188 442.155731,747.045776 
	C439.857544,746.766296 437.497742,746.993164 434.719879,746.966187 
	C434.211273,738.614136 434.094727,730.286865 434.093781,721.959534 
	C434.067047,488.804413 434.051849,255.649323 434.038818,22.494209 
	C434.038727,20.995066 434.095154,19.495916 434.225647,17.543343 
z"/>
<path fill="#FEFEFE" opacity="1.000000" stroke="none" 
	d="
M370.000000,667.980774 
	C389.627319,667.980774 408.754639,667.980774 428.096283,667.980774 
	C428.096283,676.365173 428.096283,684.309082 428.096283,692.634399 
	C293.156189,692.634399 158.139450,692.634399 22.904732,692.634399 
	C22.904732,684.617249 22.904732,676.671570 22.904732,667.980774 
	C138.378677,667.980774 253.939331,667.980774 370.000000,667.980774 
z"/>
<path fill="#FEFEFE" opacity="1.000000" stroke="none" 
	d="
M424.900665,462.015198 
	C290.627625,462.015594 156.848221,462.015594 22.878231,462.015594 
	C22.878231,453.923065 22.878231,446.303131 22.878231,438.330505 
	C157.860382,438.330505 292.897034,438.330505 428.300171,438.330505 
	C428.300171,445.579132 428.387299,452.705536 428.172791,459.822845 
	C428.149994,460.580688 426.362946,461.285400 424.900665,462.015198 
z"/>
<path fill="#FEFEFE" opacity="1.000000" stroke="none" 
	d="
M292.000000,208.979858 
	C337.624817,208.979858 382.749603,208.979858 428.093750,208.979858 
	C428.093750,217.021866 428.093750,224.631409 428.093750,232.629089 
	C293.165527,232.629089 158.149078,232.629089 22.908875,232.629089 
	C22.908875,224.966766 22.908875,217.355988 22.908875,208.979858 
	C112.375702,208.979858 201.937851,208.979858 292.000000,208.979858 
z"/>
<path fill="#FFFFFF" opacity="1.000000" stroke="none" 
	d="
M24.002123,306.160553 
	C25.162739,306.101135 26.323353,305.989655 27.483969,305.989655 
	C160.349075,305.986786 293.214172,305.992218 426.662537,306.274353 
	C427.447968,306.801544 427.707977,306.950714 428.025818,306.999084 
	C428.105896,312.698578 428.185974,318.398071 427.666565,324.542236 
	C292.380707,324.991058 157.694290,324.995209 23.007889,324.999359 
	C22.915312,319.302307 22.822737,313.605255 23.069147,307.378784 
	C23.674463,306.678650 23.872459,306.449066 24.002123,306.160553 
z"/>
<path fill="#FFFFFF" opacity="1.000000" stroke="none" 
	d="
M428.009583,372.000183 
	C428.094391,377.699982 428.179169,383.399750 427.659851,389.545380 
	C292.376404,389.993866 157.697067,389.996552 23.017733,389.999207 
	C22.921185,384.300812 22.824636,378.602448 23.069807,372.372986 
	C23.674074,371.678436 23.868698,371.455597 23.995403,371.173462 
	C25.155357,371.109741 26.315311,370.990204 27.475267,370.990204 
	C160.345947,370.987915 293.216644,370.994568 426.668274,371.277893 
	C427.451355,371.791199 427.704803,371.939545 428.009583,372.000183 
z"/>
<path fill="#FFFFFF" opacity="1.000000" stroke="none" 
	d="
M428.007690,143.000122 
	C428.093628,148.699585 428.179565,154.399033 427.660706,160.545227 
	C292.373962,160.994507 157.692032,160.997040 23.010094,160.999588 
	C22.916460,155.301102 22.822826,149.602631 23.070692,143.372986 
	C23.674637,142.678268 23.869108,142.455368 23.995604,142.173157 
	C25.155567,142.109543 26.315527,141.990250 27.475491,141.990234 
	C160.346100,141.987106 293.216736,141.992859 426.667603,142.276199 
	C427.449341,142.791153 427.702606,142.939774 428.007690,143.000122 
z"/>
<path fill="#FFFFFF" opacity="1.000000" stroke="none" 
	d="
M428.001648,44.000141 
	C428.088684,49.699947 428.175720,55.399757 427.656189,61.546585 
	C292.371765,61.995571 157.693924,61.997532 23.016064,61.999493 
	C22.920313,56.300415 22.824560,50.601337 23.070637,44.370255 
	C23.672810,43.677170 23.866400,43.457302 23.993238,43.178658 
	C25.153036,43.114262 26.312830,42.993488 27.472630,42.993465 
	C160.345139,42.991013 293.217651,42.997540 426.670410,43.279984 
	C427.452087,43.787098 427.702423,43.935013 428.001648,44.000141 
z"/>
<path fill="#FFFFFF" opacity="1.000000" stroke="none" 
	d="
M23.008760,127.999611 
	C22.915516,122.634056 22.822273,117.268509 23.069931,111.372360 
	C23.673588,110.678131 23.868534,110.455193 23.995668,110.172951 
	C25.155663,110.109406 26.315657,109.990234 27.475653,109.990204 
	C160.346680,109.986771 293.217712,109.992203 426.668335,110.275223 
	C427.449463,110.790443 427.702881,110.939392 428.008118,111.000168 
	C428.093384,116.366577 428.178650,121.732979 427.660522,127.545799 
	C292.374390,127.994675 157.691574,127.997139 23.008760,127.999611 
z"/>
<path fill="#FFFFFF" opacity="1.000000" stroke="none" 
	d="
M428.028351,176.999069 
	C428.106293,182.366013 428.184235,187.732956 427.660583,193.541336 
	C292.379425,193.987946 157.699890,193.993103 23.020372,193.998260 
	C22.922773,188.634186 22.825176,183.270111 23.068045,177.378174 
	C23.674995,176.679825 23.872858,176.450211 24.002100,176.161453 
	C25.162638,176.101624 26.323175,175.989441 27.483715,175.989410 
	C160.349457,175.986282 293.215210,175.991470 426.663879,176.273682 
	C427.449463,176.801453 427.709961,176.950760 428.028351,176.999069 
z"/>
<path fill="#FFFFFF" opacity="1.000000" stroke="none" 
	d="
M428.001373,538.000000 
	C428.088287,543.034790 428.175201,548.069580 427.651001,553.548096 
	C292.368805,553.994324 157.697708,553.996826 23.026608,553.999268 
	C22.927711,548.966248 22.828814,543.933289 23.071344,538.368896 
	C23.673174,537.676208 23.866680,537.455994 23.993286,537.177002 
	C25.153049,537.112122 26.312811,536.990540 27.472578,536.990479 
	C160.345047,536.987061 293.217499,536.992676 426.669739,537.275391 
	C427.450714,537.785156 427.701324,537.934143 428.001373,538.000000 
z"/>
<path fill="#FFFFFF" opacity="1.000000" stroke="none" 
	d="
M23.005089,31.999557 
	C23.005089,28.529835 23.005089,25.060110 23.005089,21.213419 
	C157.892944,21.213419 292.769592,21.213419 428.258148,21.213419 
	C428.258148,24.557587 428.258148,27.829557 427.661804,31.543629 
	C292.378662,31.990339 157.691879,31.994947 23.005089,31.999557 
z"/>
<path fill="#F9F9F9" opacity="1.000000" stroke="none" 
	d="
M22.884781,554.444153 
	C157.697708,553.996826 292.368805,553.994324 427.506866,553.995605 
	C428.128693,556.802917 428.283569,559.606567 428.455109,562.711670 
	C293.156525,562.711670 158.191681,562.711670 22.742954,562.711670 
	C22.742954,560.080811 22.742954,557.484924 22.884781,554.444153 
z"/>
<path fill="#F9F9F9" opacity="1.000000" stroke="none" 
	d="
M22.872843,62.443588 
	C157.693924,61.997532 292.371765,61.995571 427.517273,61.996567 
	C428.131989,64.805847 428.278992,67.612167 428.441742,70.718781 
	C293.169434,70.718781 158.210037,70.718781 22.729622,70.718781 
	C22.729622,68.081284 22.729622,65.484482 22.872843,62.443588 
z"/>
<path fill="#F6F6F6" opacity="1.000000" stroke="none" 
	d="
M22.876888,390.411133 
	C157.697067,389.996552 292.376404,389.993866 427.520752,389.995300 
	C428.082916,391.725525 428.180084,393.451721 427.665710,395.592957 
	C292.373962,396.005585 157.693787,396.003113 23.013615,396.000641 
	C22.921091,394.274780 22.828569,392.548920 22.876888,390.411133 
z"/>
<path fill="#FEFEFE" opacity="1.000000" stroke="none" 
	d="
M427.997314,196.000214 
	C428.089600,197.396591 428.181885,198.792984 427.934631,200.669098 
	C427.328125,201.318054 427.129211,201.546509 426.998260,201.834167 
	C425.837646,201.893356 424.677032,202.004379 423.516418,202.004395 
	C290.647858,202.007553 157.779282,202.002441 24.331390,201.721680 
	C23.549128,201.197052 23.289028,201.048798 22.971767,201.000824 
	C22.893654,199.601730 22.815540,198.202621 23.336834,196.407562 
	C158.623260,196.007797 293.310303,196.003998 427.997314,196.000214 
z"/>
<path fill="#FDFDFD" opacity="1.000000" stroke="none" 
	d="
M427.990570,327.000732 
	C428.086395,328.073975 428.182251,329.147217 427.938782,330.686462 
	C427.331482,331.321747 427.131531,331.550507 426.999573,331.838745 
	C425.839050,331.898743 424.678497,332.011261 423.517975,332.011292 
	C290.648468,332.014313 157.778976,332.008972 24.329424,331.726562 
	C23.544756,331.201447 23.283901,331.051971 22.966808,331.000641 
	C22.893850,329.924622 22.820892,328.848633 23.345894,327.393372 
	C158.626099,327.009674 293.308319,327.005188 427.990570,327.000732 
z"/>
<path fill="#FDFDFD" opacity="1.000000" stroke="none" 
	d="
M427.007812,135.803894 
	C425.347748,135.872650 423.687653,136.001511 422.027588,136.001633 
	C290.901703,136.010727 159.775818,136.009735 28.649937,136.009506 
	C26.834484,136.009506 25.019030,136.009506 22.925262,136.009506 
	C22.855219,134.424957 22.798973,133.152496 23.317680,131.444443 
	C27.349522,131.338608 30.806301,131.955383 34.263317,131.956711 
	C162.241119,132.005920 290.218964,131.998154 418.196777,131.998230 
	C421.465607,131.998230 424.734406,131.999313 428.003235,131.999893 
	C428.092163,132.758698 428.181091,133.517502 427.926636,134.716248 
	C427.324615,135.312698 427.132812,135.528610 427.007812,135.803894 
z"/>
<path fill="#FEFEFE" opacity="1.000000" stroke="none" 
	d="
M23.006344,167.999741 
	C22.916615,166.924393 22.826885,165.849045 23.269520,164.382202 
	C27.721884,163.993393 31.641888,163.998428 35.561890,163.998444 
	C166.373413,163.999313 297.184937,163.999695 427.996460,164.000153 
	C428.085052,165.075562 428.173584,166.150970 427.660126,167.610001 
	C292.374176,167.995667 157.690262,167.997711 23.006344,167.999741 
z"/>
<path fill="#F6F6F6" opacity="1.000000" stroke="none" 
	d="
M428.144348,131.614578 
	C424.734406,131.999313 421.465607,131.998230 418.196777,131.998230 
	C290.218964,131.998154 162.241119,132.005920 34.263317,131.956711 
	C30.806301,131.955383 27.349522,131.338608 23.460144,131.004852 
	C22.926439,130.242004 22.825220,129.483124 22.866383,128.361923 
	C157.691574,127.997139 292.374390,127.994675 427.525452,127.995964 
	C428.090942,129.076233 428.188202,130.152756 428.144348,131.614578 
z"/>
<path fill="#1C1C1C" opacity="1.000000" stroke="none" 
	d="
M37.943367,738.267395 
	C35.861259,739.049011 33.779156,739.830627 31.214087,740.793518 
	C31.214087,736.660522 31.214087,733.571655 31.214087,730.018738 
	C34.303719,730.018738 37.274754,730.238220 40.187443,729.921326 
	C41.537434,729.774475 42.701153,728.242798 44.079445,727.948792 
	C45.954510,727.548767 47.954113,727.732422 49.900318,727.665771 
	C49.773067,731.164978 52.428474,729.945557 54.091549,729.974243 
	C60.412807,730.083069 66.745476,730.208374 73.056137,729.928040 
	C75.684357,729.811401 79.386757,731.971130 80.788254,727.289978 
	C80.900009,726.916687 85.536469,727.282593 85.573135,727.596619 
	C85.993477,731.195923 88.631180,729.937744 90.453827,729.975647 
	C96.090530,730.092957 101.731216,730.018494 108.203117,730.018494 
	C106.541656,733.452637 111.021370,737.688110 104.650131,739.675415 
	C104.390373,737.401672 104.980743,735.466919 105.677032,733.185059 
	C98.427444,733.185059 92.342422,733.185059 86.075752,733.185059 
	C86.075752,734.889954 86.075752,736.360962 86.053391,738.207642 
	C86.040329,739.084900 86.049622,739.586487 86.058914,740.088074 
	C86.058914,740.088074 86.011147,740.008728 85.799622,740.026489 
	C85.294510,740.151550 85.000923,740.258850 84.707321,740.366211 
	C85.082954,740.582947 85.458595,740.799622 85.834244,741.016296 
	C85.986153,744.648071 88.778717,743.460022 90.642082,743.463501 
	C123.125465,743.523804 155.608978,743.511658 188.092468,743.511780 
	C241.898453,743.511963 295.704437,743.518860 349.510406,743.471130 
	C351.482544,743.469421 354.731903,744.729004 353.182312,739.788940 
	C353.136475,737.320862 353.776794,735.490234 354.571106,733.219482 
	C350.448914,733.219482 347.381195,733.219482 344.560211,733.219482 
	C341.373688,737.867249 347.250793,737.588867 347.813599,740.115723 
	C345.822418,740.115723 343.831207,740.115723 341.407776,740.115723 
	C341.407776,736.753845 341.407776,733.582764 341.407776,730.018799 
	C344.403046,730.018799 347.377563,730.245300 350.289429,729.916809 
	C351.613434,729.767395 352.736267,728.134277 354.088531,727.863098 
	C355.967346,727.486084 358.034454,727.465820 359.910858,727.841919 
	C361.417725,728.144043 362.769897,729.929810 364.175262,729.910889 
	C373.556366,729.784607 382.935547,729.041687 392.311005,729.108337 
	C400.669861,729.167664 409.023163,730.011597 417.957001,730.543701 
	C416.519348,733.450684 421.036621,737.707397 414.655853,739.656982 
	C414.329803,737.550781 414.845093,735.798157 415.360352,734.045532 
	C413.710999,733.680054 412.068024,733.039490 410.411133,733.001282 
	C405.658356,732.891541 400.899933,733.025818 395.818665,733.037842 
	C393.714600,733.334961 391.935608,733.658508 389.912292,733.611755 
	C379.845520,733.241455 370.023132,733.241455 360.156860,733.241455 
	C360.156860,736.966736 360.156860,740.278564 360.156860,743.590332 
	C358.490997,744.049866 356.825378,744.910156 355.159180,744.911377 
	C265.009918,744.976013 174.860611,744.971558 84.711311,744.940125 
	C83.260788,744.939575 81.810410,744.517334 80.159653,743.476440 
	C79.959335,739.529236 79.959335,736.397522 79.959335,733.266357 
	C69.712891,733.266357 59.990959,733.266357 50.161037,733.266357 
	C50.161037,736.913513 50.161037,740.247375 50.161041,743.581238 
	C49.498093,744.018005 48.832111,744.838196 48.172642,744.833008 
	C40.241024,744.770447 32.310383,744.585571 24.161928,744.138733 
	C29.499260,743.730774 35.059006,743.710876 40.605022,743.424744 
	C41.739082,743.366272 42.821674,742.309631 43.927994,741.713196 
	C42.842384,741.096313 41.756775,740.479431 40.873238,739.063049 
	C45.114674,737.995911 44.213650,735.572998 43.612694,733.265747 
	C40.202007,733.265747 37.108269,733.265747 34.140129,733.265747 
	C32.522964,737.494263 34.881798,738.174988 37.943367,738.267395 
z"/>
<path fill="#FEFEFE" opacity="1.000000" stroke="none" 
	d="
M22.878071,396.434357 
	C157.693787,396.003113 292.373962,396.005585 427.522186,396.004272 
	C427.560577,396.983246 427.366943,398.511627 426.646942,398.823059 
	C425.518921,399.310974 424.035278,398.988892 422.702301,398.988892 
	C291.204010,398.990875 159.705719,398.999664 28.207502,398.900574 
	C26.392630,398.899200 23.321918,400.773499 22.878071,396.434357 
z"/>
<path fill="#FEFEFE" opacity="1.000000" stroke="none" 
	d="
M22.973240,36.000706 
	C22.895563,35.550068 22.817888,35.099426 23.331924,34.328354 
	C158.620224,34.004883 293.316803,34.001846 428.013397,33.998810 
	C428.096954,34.447807 428.180511,34.896805 427.928162,35.748245 
	C427.325867,36.320335 427.127991,36.549217 426.998627,36.837330 
	C425.838135,36.897472 424.677612,37.010269 423.517120,37.010296 
	C290.648224,37.013325 157.779343,37.007969 24.331669,36.725716 
	C23.550091,36.199715 23.290213,36.050499 22.973240,36.000706 
z"/>
<path fill="#F6F6F6" opacity="1.000000" stroke="none" 
	d="
M428.139832,163.638458 
	C297.184937,163.999695 166.373413,163.999313 35.561890,163.998444 
	C31.641888,163.998428 27.721884,163.993393 23.402853,163.995422 
	C22.909342,163.240646 22.814857,162.481140 22.865234,161.360611 
	C157.692032,160.997040 292.373962,160.994507 427.524048,160.995804 
	C428.089203,161.758682 428.186218,162.517715 428.139832,163.638458 
z"/>
<path fill="#EFEFEF" opacity="1.000000" stroke="none" 
	d="
M428.156036,33.674629 
	C293.316803,34.001846 158.620224,34.004883 23.458075,34.003632 
	C22.898981,33.547394 22.805449,33.095440 22.858501,32.321522 
	C157.691879,31.994947 292.378662,31.990339 427.530029,31.992615 
	C428.095978,32.449814 428.197327,32.900131 428.156036,33.674629 
z"/>
<path fill="#F6F6F6" opacity="1.000000" stroke="none" 
	d="
M22.895927,168.437408 
	C157.690262,167.997711 292.374176,167.995667 427.526428,167.996704 
	C427.733307,168.634537 427.552124,169.760025 427.196411,169.818192 
	C425.734833,170.057175 424.220215,170.001038 422.725098,170.001099 
	C291.211700,170.005569 159.698303,170.009674 28.184917,169.958206 
	C26.384974,169.957504 24.585308,169.251740 22.895927,168.437408 
z"/>
<path fill="#EFEFEF" opacity="1.000000" stroke="none" 
	d="
M428.136536,326.678131 
	C293.308319,327.005188 158.626099,327.009674 23.480085,327.007690 
	C22.919487,326.550232 22.822659,326.099182 22.866859,325.323761 
	C157.694290,324.995209 292.380707,324.991058 427.531860,324.993286 
	C428.091888,325.451630 428.187195,325.903595 428.136536,326.678131 
z"/>
<path fill="#EFEFEF" opacity="1.000000" stroke="none" 
	d="
M428.138275,195.675751 
	C293.310303,196.003998 158.623260,196.007797 23.471794,196.006104 
	C22.915096,195.548203 22.822849,195.095779 22.875488,194.320801 
	C157.699890,193.993103 292.379425,193.987946 427.522888,193.990784 
	C428.084351,194.449631 428.181793,194.900467 428.138275,195.675751 
z"/>
<path fill="#EFEFEF" opacity="1.000000" stroke="none" 
	d="
M360.614624,743.614014 
	C360.156860,740.278564 360.156860,736.966736 360.156860,733.241455 
	C370.023132,733.241455 379.845520,733.241455 389.853668,733.988892 
	C390.076935,735.496887 390.114441,736.257507 389.888977,737.440796 
	C389.695923,739.777466 389.765900,741.691406 389.835876,743.605347 
	C380.248047,743.616089 370.660248,743.626892 360.614624,743.614014 
z"/>
<path fill="#EFEFEF" opacity="1.000000" stroke="none" 
	d="
M50.618336,743.609009 
	C50.161037,740.247375 50.161037,736.913513 50.161037,733.266357 
	C59.990959,733.266357 69.712891,733.266357 79.959335,733.266357 
	C79.959335,736.397522 79.959335,739.529236 79.896637,743.124512 
	C70.247841,743.604248 60.661736,743.620483 50.618336,743.609009 
z"/>
<path fill="#1C1C1C" opacity="1.000000" stroke="none" 
	d="
M390.070984,743.938965 
	C389.765900,741.691406 389.695923,739.777466 390.209900,737.498657 
	C392.591064,737.410706 394.388336,737.687622 396.629028,738.145020 
	C397.128357,738.927307 397.184235,739.529053 397.240112,740.130859 
	C396.852081,740.991943 396.464020,741.852966 396.129150,743.146606 
	C394.223633,743.810303 392.264893,744.041504 390.070984,743.938965 
M393.425568,740.962341 
	C393.157257,741.119690 392.888977,741.277039 392.620667,741.434387 
	C393.115967,741.318665 393.611298,741.202881 394.376129,740.918274 
	C394.224426,740.913513 394.072754,740.908691 393.425568,740.962341 
z"/>
<path fill="#F6F6F6" opacity="1.000000" stroke="none" 
	d="
M23.697361,142.131622 
	C23.869108,142.455368 23.674637,142.678268 23.202158,142.921082 
	C23.127792,142.696915 23.263456,142.393509 23.697361,142.131622 
z"/>
<path fill="#F6F6F6" opacity="1.000000" stroke="none" 
	d="
M23.696964,110.131073 
	C23.868534,110.455193 23.673588,110.678131 23.200565,110.921082 
	C23.126284,110.696663 23.262272,110.392929 23.696964,110.131073 
z"/>
<path fill="#F6F6F6" opacity="1.000000" stroke="none" 
	d="
M427.300415,135.846405 
	C427.132812,135.528610 427.324615,135.312698 427.788239,135.078278 
	C427.859802,135.296539 427.726410,135.592728 427.300415,135.846405 
z"/>
<path fill="#EFEFEF" opacity="1.000000" stroke="none" 
	d="
M22.921734,201.301117 
	C23.289028,201.048798 23.549128,201.197052 23.873482,201.639496 
	C23.620501,201.756073 23.246099,201.678757 22.921734,201.301117 
z"/>
<path fill="#EFEFEF" opacity="1.000000" stroke="none" 
	d="
M23.699337,306.117004 
	C23.872459,306.449066 23.674463,306.678650 23.190845,306.924500 
	C23.114557,306.690918 23.255554,306.382202 23.699337,306.117004 
z"/>
<path fill="#F6F6F6" opacity="1.000000" stroke="none" 
	d="
M428.062683,110.704498 
	C427.702881,110.939392 427.449463,110.790443 427.129578,110.363281 
	C427.379913,110.251778 427.748566,110.330307 428.062683,110.704498 
z"/>
<path fill="#EFEFEF" opacity="1.000000" stroke="none" 
	d="
M428.076538,306.698120 
	C427.707977,306.950714 427.447968,306.801544 427.125061,306.356873 
	C427.378601,306.240509 427.752899,306.318848 428.076538,306.698120 
z"/>
<path fill="#EFEFEF" opacity="1.000000" stroke="none" 
	d="
M427.300812,201.876892 
	C427.129211,201.546509 427.328125,201.318054 427.812439,201.074524 
	C427.887695,201.306686 427.745514,201.613144 427.300812,201.876892 
z"/>
<path fill="#EFEFEF" opacity="1.000000" stroke="none" 
	d="
M22.918140,331.301727 
	C23.283901,331.051971 23.544756,331.201447 23.871601,331.643280 
	C23.619045,331.759308 23.244259,331.681061 22.918140,331.301727 
z"/>
<path fill="#EFEFEF" opacity="1.000000" stroke="none" 
	d="
M427.302856,331.881500 
	C427.131531,331.550507 427.331482,331.321747 427.816895,331.076172 
	C427.891602,331.308014 427.748901,331.616150 427.302856,331.881500 
z"/>
<path fill="#F9F9F9" opacity="1.000000" stroke="none" 
	d="
M428.057678,43.706944 
	C427.702423,43.935013 427.452087,43.787098 427.132385,43.369598 
	C427.380646,43.259785 427.747162,43.336765 428.057678,43.706944 
z"/>
<path fill="#F6F6F6" opacity="1.000000" stroke="none" 
	d="
M23.696857,371.131927 
	C23.868698,371.455597 23.674074,371.678436 23.201456,371.921143 
	C23.127028,371.697021 23.262671,371.393707 23.696857,371.131927 
z"/>
<path fill="#F6F6F6" opacity="1.000000" stroke="none" 
	d="
M428.062439,142.704697 
	C427.702606,142.939774 427.449341,142.791153 427.129578,142.364471 
	C427.379944,142.252869 427.748596,142.331070 428.062439,142.704697 
z"/>
<path fill="#F6F6F6" opacity="1.000000" stroke="none" 
	d="
M428.063599,371.704712 
	C427.704803,371.939545 427.451355,371.791199 427.130371,371.365753 
	C427.380188,371.253998 427.748901,371.331635 428.063599,371.704712 
z"/>
<path fill="#EFEFEF" opacity="1.000000" stroke="none" 
	d="
M428.078308,176.697845 
	C427.709961,176.950760 427.449463,176.801453 427.125549,176.356323 
	C427.378967,176.239853 427.753601,176.318253 428.078308,176.697845 
z"/>
<path fill="#F9F9F9" opacity="1.000000" stroke="none" 
	d="
M23.696613,43.137623 
	C23.866400,43.457302 23.672810,43.677170 23.205418,43.919174 
	C23.132242,43.698929 23.266117,43.397758 23.696613,43.137623 
z"/>
<path fill="#EFEFEF" opacity="1.000000" stroke="none" 
	d="
M427.301147,36.880573 
	C427.127991,36.549217 427.325867,36.320335 427.809021,36.075363 
	C427.885101,36.307964 427.744385,36.615891 427.301147,36.880573 
z"/>
<path fill="#EFEFEF" opacity="1.000000" stroke="none" 
	d="
M22.923698,36.301094 
	C23.290213,36.050499 23.550091,36.199715 23.873882,36.642689 
	C23.621311,36.758507 23.247732,36.679996 22.923698,36.301094 
z"/>
<path fill="#F9F9F9" opacity="1.000000" stroke="none" 
	d="
M23.696587,537.135864 
	C23.866680,537.455994 23.673174,537.676208 23.205677,537.918823 
	C23.132351,537.698242 23.266119,537.396545 23.696587,537.135864 
z"/>
<path fill="#EFEFEF" opacity="1.000000" stroke="none" 
	d="
M23.699257,176.118164 
	C23.872858,176.450211 23.674995,176.679825 23.191101,176.925018 
	C23.114601,176.691452 23.255508,176.383179 23.699257,176.118164 
z"/>
<path fill="#F9F9F9" opacity="1.000000" stroke="none" 
	d="
M428.056885,537.706543 
	C427.701324,537.934143 427.450714,537.785156 427.131653,537.365234 
	C427.379944,537.256042 427.746155,537.334534 428.056885,537.706543 
z"/>
<path fill="#3F3F3F" opacity="1.000000" stroke="none" 
	d="
M215.000000,739.045837 
	C205.055450,739.045837 195.610916,739.045837 186.397644,739.045837 
	C186.397644,736.524353 186.397644,734.404785 186.397644,732.158569 
	C211.754501,732.158569 237.301483,732.158569 262.585022,732.158569 
	C262.585022,734.488037 262.585022,736.593018 262.585022,739.045837 
	C247.054230,739.045837 231.277115,739.045837 215.000000,739.045837 
M234.500031,734.727112 
	C219.515930,734.727112 204.531815,734.727112 189.547714,734.727112 
	C189.553589,735.113831 189.559464,735.500488 189.565338,735.887207 
	C212.931564,735.887207 236.297806,735.887207 259.664032,735.887207 
	C259.670624,735.500427 259.677185,735.113647 259.683777,734.726868 
	C251.622528,734.726868 243.561279,734.726868 234.500031,734.727112 
z"/>
<path fill="#EFEFEF" opacity="1.000000" stroke="none" 
	d="
M397.620636,740.153198 
	C397.184235,739.529053 397.128357,738.927307 396.574188,737.738647 
	C396.098511,735.789246 396.121124,734.426758 396.143738,733.064209 
	C400.899933,733.025818 405.658356,732.891541 410.411133,733.001282 
	C412.068024,733.039490 413.710999,733.680054 415.360352,734.045532 
	C414.845093,735.798157 414.329803,737.550781 414.195129,739.718811 
	C409.050873,740.147949 403.526031,740.161743 397.620636,740.153198 
z"/>
<path fill="#EFEFEF" opacity="1.000000" stroke="none" 
	d="
M86.075752,737.831970 
	C86.075752,736.360962 86.075752,734.889954 86.075752,733.185059 
	C92.342422,733.185059 98.427444,733.185059 105.677032,733.185059 
	C104.980743,735.466919 104.390373,737.401672 104.189453,739.734497 
	C99.825699,739.873230 95.072495,739.613770 89.886505,738.779297 
	C88.327728,738.080200 87.201736,737.956055 86.075752,737.831970 
z"/>
<path fill="#EFEFEF" opacity="1.000000" stroke="none" 
	d="
M347.874847,740.125549 
	C347.250793,737.588867 341.373688,737.867249 344.560211,733.219482 
	C347.381195,733.219482 350.448914,733.219482 354.571106,733.219482 
	C353.776794,735.490234 353.136475,737.320862 352.702972,739.641479 
	C351.251923,740.132690 349.593994,740.134033 347.874847,740.125549 
z"/>
<path fill="#EFEFEF" opacity="1.000000" stroke="none" 
	d="
M37.896896,738.272949 
	C34.881798,738.174988 32.522964,737.494263 34.140129,733.265747 
	C37.108269,733.265747 40.202007,733.265747 43.612694,733.265747 
	C44.213650,735.572998 45.114674,737.995911 40.440960,738.582642 
	C39.154552,738.693909 38.502487,738.486206 37.896896,738.272949 
z"/>
<path fill="#2F2F2F" opacity="1.000000" stroke="none" 
	d="
M86.053391,738.207642 
	C87.201736,737.956055 88.327728,738.080200 89.475845,738.635254 
	C88.626274,739.387512 87.754570,739.708862 86.470886,740.059143 
	C86.049622,739.586487 86.040329,739.084900 86.053391,738.207642 
z"/>
<path fill="#2F2F2F" opacity="1.000000" stroke="none" 
	d="
M85.917999,740.782593 
	C85.458595,740.799622 85.082954,740.582947 84.707321,740.366211 
	C85.000923,740.258850 85.294510,740.151550 85.838150,740.052124 
	C86.088211,740.060120 86.001762,740.548950 85.917999,740.782593 
z"/>
<path fill="#2F2F2F" opacity="1.000000" stroke="none" 
	d="
M395.818665,733.037842 
	C396.121124,734.426758 396.098511,735.789246 396.130737,737.558167 
	C394.388336,737.687622 392.591064,737.410706 390.472900,737.075928 
	C390.114441,736.257507 390.076935,735.496887 390.098022,734.359192 
	C391.935608,733.658508 393.714600,733.334961 395.818665,733.037842 
z"/>
<path fill="#2F2F2F" opacity="1.000000" stroke="none" 
	d="
M394.106598,741.087158 
	C393.611298,741.202881 393.115967,741.318665 392.620667,741.434387 
	C392.888977,741.277039 393.157257,741.119690 393.717499,740.981140 
	C394.009430,740.999939 394.106598,741.087158 394.106598,741.087158 
z"/>
<path fill="#2F2F2F" opacity="1.000000" stroke="none" 
	d="
M393.965240,740.951904 
	C394.072754,740.908691 394.224426,740.913513 394.241364,741.002686 
	C394.106598,741.087158 394.009430,740.999939 393.965240,740.951904 
z"/>
<path fill="#CCCCCC" opacity="1.000000" stroke="none" 
	d="
M235.000031,734.726990 
	C243.561279,734.726868 251.622528,734.726868 259.683777,734.726868 
	C259.677185,735.113647 259.670624,735.500427 259.664032,735.887207 
	C236.297806,735.887207 212.931564,735.887207 189.565338,735.887207 
	C189.559464,735.500488 189.553589,735.113831 189.547714,734.727112 
	C204.531815,734.727112 219.515930,734.727112 235.000031,734.726990 
z"/>
</svg>