<svg version="1.1" id="Layer_1" xmlns="http://www.w3.org/2000/svg" xmlns:xlink="http://www.w3.org/1999/xlink" x="0px" y="0px"
	 width="100%" viewBox="0 0 930 830" enable-background="new 0 0 930 830" xml:space="preserve">
<path fill="#F9F9F9" opacity="1.000000" stroke="none" 
	d="
M0.999998,825.000000 
	C1.000000,552.970642 1.000000,280.941254 1.334549,8.658367 
	C2.008852,7.322535 2.348607,6.240235 3.095924,5.100046 
	C4.051712,5.052163 4.599937,5.062171 5.099092,5.431828 
	C6.044212,6.348529 7.006434,7.296611 8.039267,7.381054 
	C10.174881,7.555660 12.348085,7.186376 14.505836,7.186286 
	C314.405853,7.173802 614.305847,7.174638 914.205872,7.171267 
	C916.871277,7.171237 919.562500,6.902186 922.189087,7.208710 
	C923.199829,7.326667 924.063660,8.703192 924.653320,9.649487 
	C919.533630,13.619739 914.755066,17.446774 909.527954,21.134552 
	C908.746094,20.986212 908.412781,20.969172 908.079529,20.969170 
	C613.423279,20.968113 318.767029,20.967838 24.110790,20.979866 
	C22.846052,20.979918 21.581320,21.155903 20.095284,21.266140 
	C20.095284,22.907118 20.095282,24.218086 20.095284,25.529057 
	C20.095732,281.852661 20.099724,538.176270 20.084030,794.499878 
	C20.083387,804.988647 19.897699,815.477356 19.389175,825.963501 
	C13.647005,825.976257 8.313882,825.991638 2.789477,825.697876 
	C2.065463,825.259155 1.532729,825.129578 0.999998,825.000000 
z"/>
<path fill="#FFFFFF" opacity="1.000000" stroke="none" 
	d="
M5.148163,5.072178 
	C4.599937,5.062171 4.051712,5.052163 2.812969,5.102993 
	C1.748301,5.109220 1.374151,5.054610 1.000000,5.000000 
	C1.000000,3.667368 1.000000,2.334736 1.000000,1.003190 
	C311.000000,1.004277 621.000000,1.004277 931.000000,1.006415 
	C931.000000,2.341187 931.000000,3.673819 930.655518,5.252494 
	C928.354553,5.382066 926.398132,5.164309 924.441528,5.163622 
	C812.966614,5.124514 701.491760,5.090774 590.016846,5.083418 
	C395.060608,5.070553 200.104385,5.074990 5.148163,5.072178 
z"/>
<path fill="#FFFFFF" opacity="1.000000" stroke="none" 
	d="
M931.000000,827.000000 
	C931.000000,828.333313 931.000000,829.666687 931.000000,831.000000 
	C622.500000,831.000000 314.000000,831.004211 5.500067,830.858704 
	C4.211051,830.858154 0.872537,833.328430 1.467509,828.537842 
	C8.059143,827.985107 14.183268,827.894470 20.754810,827.844849 
	C25.199873,827.874207 29.197521,827.852417 33.195168,827.852356 
	C320.873138,827.851013 608.551147,827.851562 896.229126,827.851379 
	C900.725952,827.851379 905.222839,827.845947 910.204102,827.880920 
	C916.801941,827.587585 922.915344,827.256348 929.356323,826.972900 
	C930.122620,827.013794 930.561279,827.006897 931.000000,827.000000 
z"/>
<path fill="#B3B3B3" opacity="1.000000" stroke="none" 
	d="
M5.099092,5.431828 
	C200.104385,5.074990 395.060608,5.070553 590.016846,5.083418 
	C701.491760,5.090774 812.966614,5.124514 924.441528,5.163622 
	C926.398132,5.164309 928.354553,5.382066 930.655518,5.749268 
	C931.000000,6.000000 931.000000,6.500000 930.756348,6.916976 
	C930.255249,7.867759 929.997803,8.401567 929.497070,8.954025 
	C928.844543,9.204016 928.435364,9.435354 927.706055,9.773134 
	C926.577698,10.239646 925.769470,10.599717 924.943237,10.595816 
	C924.948364,9.989986 924.971436,9.748131 924.994446,9.506273 
	C924.063660,8.703192 923.199829,7.326667 922.189087,7.208710 
	C919.562500,6.902186 916.871277,7.171237 914.205872,7.171267 
	C614.305847,7.174638 314.405853,7.173802 14.505836,7.186286 
	C12.348085,7.186376 10.174881,7.555660 8.039267,7.381054 
	C7.006434,7.296611 6.044212,6.348529 5.099092,5.431828 
z"/>
<path fill="#C2C2C2" opacity="1.000000" stroke="none" 
	d="
M928.026184,9.666697 
	C928.435364,9.435354 928.844543,9.204016 929.582275,9.422786 
	C929.951721,11.871545 930.028320,13.870195 930.028381,15.868847 
	C930.033142,284.033813 930.030640,552.198730 930.071655,820.363708 
	C930.071838,821.909180 930.677246,823.454590 931.000000,825.000000 
	C931.000000,825.444458 931.000000,825.888916 931.000000,826.666687 
	C930.561279,827.006897 930.122620,827.013794 929.341187,826.598755 
	C928.970642,825.425903 928.942932,824.674988 928.772095,823.541321 
	C928.410339,821.030029 928.001648,818.901672 928.000671,816.773132 
	C927.967468,742.975586 927.967712,669.178040 927.973450,595.380493 
	C927.988525,400.142548 928.008301,204.904633 928.026184,9.666697 
z"/>
<path fill="#EBEBEB" opacity="1.000000" stroke="none" 
	d="
M931.000000,824.532166 
	C930.677246,823.454590 930.071838,821.909180 930.071655,820.363708 
	C930.030640,552.198730 930.033142,284.033813 930.028381,15.868847 
	C930.028320,13.870195 929.951721,11.871545 929.825562,9.404134 
	C929.997803,8.401567 930.255249,7.867759 930.756348,7.166976 
	C931.000000,279.354767 931.000000,551.709534 931.000000,824.532166 
z"/>
<path fill="#D5D5D5" opacity="1.000000" stroke="none" 
	d="
M20.307392,827.803833 
	C14.183268,827.894470 8.059143,827.985107 1.467509,828.037842 
	C1.000000,828.000000 1.000000,827.500000 1.297235,827.390625 
	C2.056576,826.856506 2.518680,826.431763 2.980771,826.006958 
	C8.313882,825.991638 13.647005,825.976257 19.479845,826.268494 
	C20.088839,826.985352 20.198114,827.394592 20.307392,827.803833 
z"/>
<path fill="#767676" opacity="1.000000" stroke="none" 
	d="
M1.000000,5.375000 
	C1.374151,5.054610 1.748301,5.109220 2.405407,5.160883 
	C2.348607,6.240235 2.008852,7.322535 1.334549,8.202417 
	C1.000000,7.250000 1.000000,6.500000 1.000000,5.375000 
z"/>
<path fill="#767676" opacity="1.000000" stroke="none" 
	d="
M2.789491,825.697876 
	C2.518680,826.431763 2.056576,826.856506 1.297235,827.140625 
	C1.000000,826.555542 1.000000,826.111084 0.999998,825.333313 
	C1.532729,825.129578 2.065463,825.259155 2.789491,825.697876 
z"/>
<path fill="#090909" opacity="1.000000" stroke="none" 
	d="
M20.754808,827.844849 
	C20.198114,827.394592 20.088839,826.985352 19.888893,826.271118 
	C19.897699,815.477356 20.083387,804.988647 20.084030,794.499878 
	C20.099724,538.176270 20.095732,281.852661 20.095284,25.529057 
	C20.095282,24.218086 20.095284,22.907118 20.095284,21.266140 
	C21.581320,21.155903 22.846052,20.979918 24.110790,20.979866 
	C318.767029,20.967838 613.423279,20.968113 908.079529,20.969170 
	C908.412781,20.969172 908.746094,20.986212 909.473999,21.446320 
	C909.955811,22.303978 910.042969,22.710611 910.079468,23.575958 
	C910.021118,32.033527 910.006958,40.032387 910.006836,48.031242 
	C910.004456,297.180786 910.000549,546.330322 910.012634,795.479858 
	C910.013123,805.638123 910.166504,815.796387 910.147522,826.265747 
	C909.937439,826.998901 909.828552,827.421021 909.719666,827.843079 
	C905.222839,827.845947 900.725952,827.851379 896.229126,827.851379 
	C608.551147,827.851562 320.873138,827.851013 33.195168,827.852356 
	C29.197521,827.852417 25.199873,827.874207 20.754808,827.844849 
M54.985863,810.033142 
	C54.985863,810.033142 54.917973,810.117798 54.973412,809.305969 
	C54.963219,808.492371 54.953022,807.678711 54.998989,805.986389 
	C55.085255,801.657532 58.401669,803.837219 60.166370,803.799194 
	C61.091076,803.779297 62.060802,805.848206 63.012684,807.709778 
	C63.005695,808.445557 62.998703,809.181335 62.745102,810.617126 
	C62.745102,812.337219 62.745102,814.057251 62.745102,815.572571 
	C75.949043,815.572571 88.402794,815.572571 101.286255,815.572571 
	C101.185616,813.571838 101.095436,811.779053 101.018867,809.223755 
	C101.004120,808.461304 100.989380,807.698914 101.157494,806.113220 
	C101.654007,801.746155 104.040260,803.437134 105.481316,804.893555 
	C101.831635,810.833435 102.171745,814.231140 106.393379,815.054138 
	C106.393379,811.613892 106.393379,808.141235 106.790993,804.040649 
	C107.542328,804.990967 108.293663,805.941345 109.033463,807.696350 
	C109.027054,808.500916 109.020638,809.305542 108.952057,810.670898 
	C108.952057,812.289978 108.952057,813.909058 108.952057,815.720154 
	C115.849632,815.720154 122.433960,815.444397 128.981995,815.813171 
	C133.669876,816.077148 135.088699,814.527039 134.252289,809.904968 
	C134.838043,808.976868 135.423813,808.048767 136.854980,807.313843 
	C136.854980,810.776917 136.854980,814.240051 136.854980,817.910034 
	C127.598938,817.910034 118.463913,817.910034 108.953468,817.910034 
	C109.071892,819.364746 109.171051,820.582825 109.267715,821.770264 
	C342.021729,821.770264 574.463745,821.770264 807.397034,822.415710 
	C809.942993,822.240479 812.489014,822.065247 815.967834,821.903870 
	C828.307190,821.919556 840.646545,821.935242 853.521362,822.543945 
	C856.059082,822.261414 858.596741,821.978943 862.047119,821.820068 
	C874.143311,821.807190 886.240356,821.857361 898.334717,821.703308 
	C899.884338,821.683533 901.420410,820.601501 903.570068,819.433289 
	C903.691467,804.856018 903.823242,790.278748 903.895203,775.701233 
	C903.897949,775.137695 903.326599,774.571228 902.581787,773.248352 
	C900.600281,773.121155 898.618713,772.882629 896.637207,772.882507 
	C608.811829,772.865906 320.986389,772.866699 33.160984,772.866638 
	C31.373854,772.866638 29.586721,772.866577 27.863140,772.866577 
	C27.863140,789.396484 27.863140,805.442444 27.863140,821.654175 
	C37.059658,821.654175 45.849503,821.654175 54.815376,821.654175 
	C54.815376,820.395935 54.815376,819.299805 54.815376,817.801758 
	C49.220951,817.801758 43.798752,817.801758 38.360710,817.801758 
	C38.360710,814.592712 38.360710,811.784607 38.745598,808.643311 
	C38.834835,808.148254 38.924068,807.653137 39.629799,806.991943 
	C40.050911,807.036621 40.472023,807.081299 40.546032,807.755127 
	C41.040970,808.540527 41.535912,809.325867 41.783096,810.776978 
	C40.821739,814.271729 41.561775,816.212463 45.775826,815.781311 
	C48.710201,815.481018 51.700115,815.723450 54.772224,815.723450 
	C54.935913,814.291321 55.065948,813.153564 55.909924,812.019104 
	C57.308334,812.932617 58.706749,813.846130 61.459538,815.644409 
	C60.707249,812.281128 60.247540,810.225891 59.760323,808.047729 
	C57.544186,808.970276 56.215336,809.523499 54.985863,810.033142 
M28.968987,731.816406 
	C28.968987,731.816406 29.006140,731.850586 29.951080,731.979004 
	C30.584005,731.936951 31.216930,731.894958 32.539169,732.002441 
	C320.150452,732.008362 607.761719,732.014404 895.372986,732.013245 
	C896.367554,732.013245 897.362183,731.908936 899.171631,731.981628 
	C900.287659,731.904358 901.403687,731.827148 902.664246,731.739868 
	C902.664246,723.096130 902.758118,714.656738 902.546326,706.225159 
	C902.519531,705.161621 900.885986,704.138428 899.831543,702.289001 
	C897.681702,701.860291 895.531921,701.056458 893.382019,701.056030 
	C606.896240,700.999939 320.410461,701.002625 33.924664,701.002808 
	C32.591408,701.002808 31.221750,700.835083 29.945509,701.105835 
	C29.523508,701.195374 29.342245,702.419739 28.676367,703.424194 
	C28.330175,703.507751 28.110363,703.721375 27.337538,704.557251 
	C27.574646,713.602478 27.811754,722.647766 28.322430,731.927429 
	C28.322430,731.927429 28.679611,731.974487 28.679611,731.974487 
	C28.679611,731.974487 29.017902,731.850586 28.968987,731.816406 
M27.567537,364.895508 
	C27.567537,366.192963 27.567537,367.490448 27.567537,368.955383 
	C319.323090,368.955383 610.823486,368.955383 902.802917,368.955383 
	C902.643799,367.536346 902.504456,366.293365 902.674622,364.263489 
	C902.562744,363.156433 902.450867,362.049408 902.607727,360.050385 
	C902.607727,353.770294 902.607727,347.490204 902.607727,341.200867 
	C610.681946,341.200867 319.104553,341.200867 27.888618,341.200867 
	C27.888618,348.391022 27.888618,355.202789 27.581066,362.647400 
	C27.682674,363.093262 27.784285,363.539093 27.567537,364.895508 
M27.576799,219.891342 
	C27.576799,221.858673 27.576799,223.825989 27.576799,225.847870 
	C319.406464,225.847870 611.039917,225.847870 902.833740,225.847870 
	C902.635620,223.637039 902.474182,221.835373 902.623779,219.294128 
	C902.517090,218.514404 902.410339,217.734665 902.602600,216.070084 
	C902.602600,210.127029 902.602600,204.183990 902.602600,198.247314 
	C610.669373,198.247314 319.098755,198.247314 27.902290,198.247314 
	C27.902290,204.722473 27.902290,210.864792 27.610811,217.650803 
	C27.714041,218.098724 27.817270,218.546646 27.576799,219.891342 
M27.555716,439.870453 
	C27.040785,444.959442 30.967773,442.898193 32.982330,442.898834 
	C321.023926,442.987213 609.065552,442.983063 897.107178,442.983124 
	C898.762634,442.983124 900.418091,442.983154 902.564697,442.983154 
	C902.459534,441.469269 902.373047,440.224548 902.584778,438.167328 
	C902.489319,436.457184 902.393799,434.747070 902.595703,432.135040 
	C902.401794,425.409119 902.207886,418.683167 901.812683,411.172852 
	C899.636597,410.783112 897.460632,410.052399 895.284485,410.052002 
	C608.481140,410.001099 321.677795,410.003632 34.874466,410.004303 
	C33.374668,410.004303 31.821970,409.781311 30.394369,410.105133 
	C29.499048,410.308228 28.791740,411.340179 27.553698,412.844330 
	C27.664541,419.565887 27.775385,426.287476 27.593531,433.827332 
	C27.691975,435.548584 27.790417,437.269836 27.555716,439.870453 
M902.610840,40.363388 
	C902.513062,39.899502 902.415222,39.435616 902.623779,38.109047 
	C902.623779,34.535271 902.623779,30.961493 902.623779,27.187630 
	C899.476379,27.187630 897.155945,27.187632 894.835449,27.187630 
	C608.556030,27.187422 322.276642,27.187332 35.997250,27.184399 
	C34.164780,27.184381 32.236481,26.788403 30.532776,27.246372 
	C29.353558,27.563360 27.676403,28.982779 27.613445,29.996061 
	C27.309196,34.892876 27.476347,39.818974 27.476347,44.723042 
	C319.507904,44.723042 611.060303,44.723042 902.833008,44.723042 
	C902.632446,43.293232 902.473450,42.160137 902.610840,40.363388 
M902.593811,145.134720 
	C902.393616,138.429092 902.193359,131.723450 901.808411,124.224152 
	C899.645996,123.819351 897.483704,123.060379 895.321228,123.059944 
	C628.825623,123.006203 362.330048,123.008385 95.834465,123.007889 
	C74.834816,123.007843 53.834877,122.964348 32.836079,123.098404 
	C31.227896,123.108665 29.627743,124.377380 27.587988,125.902496 
	C27.587988,135.143570 27.587988,144.384644 27.587988,153.654312 
	C319.566284,153.654312 610.960754,153.654312 902.761414,153.654312 
	C902.585999,151.538818 902.437866,149.751892 902.610168,147.348572 
	C902.504883,146.911011 902.399536,146.473450 902.593811,145.134720 
M27.493664,234.803009 
	C27.493664,243.208298 27.493664,251.613602 27.493664,260.067261 
	C319.567352,260.067261 611.071960,260.067261 902.015564,260.067261 
	C902.015564,251.131287 902.015564,242.543747 901.805176,233.175125 
	C899.629822,232.787811 897.454590,232.061600 895.279175,232.061218 
	C608.484497,232.010574 321.689850,232.013046 34.895168,232.013611 
	C33.395412,232.013611 31.844109,231.791916 30.414640,232.111282 
	C29.513189,232.312698 28.793936,233.329605 27.493664,234.803009 
M901.801941,665.177307 
	C899.628479,664.788269 897.455017,664.058899 895.281494,664.058472 
	C608.484009,664.007690 321.686523,664.010132 34.889027,664.010803 
	C33.389256,664.010803 31.837612,663.789246 30.408596,664.109802 
	C29.508972,664.311584 28.793055,665.332336 27.520557,666.818970 
	C27.631279,675.894653 27.742001,684.970276 27.590670,694.925720 
	C29.446318,695.612915 31.301781,696.901550 33.157646,696.902161 
	C320.891663,696.990906 608.625671,696.986694 896.359741,696.985535 
	C897.859070,696.985535 899.459717,697.283752 900.816711,696.840820 
	C901.540466,696.604675 901.843140,695.078003 902.611267,693.323730 
	C902.408630,684.202759 902.205933,675.081848 901.801941,665.177307 
M28.199797,296.628998 
	C30.158096,297.081512 32.116318,297.930145 34.074707,297.930542 
	C321.289978,297.989410 608.505310,297.986816 895.720581,297.985931 
	C897.053284,297.985931 898.459778,298.230255 899.693604,297.877319 
	C900.564514,297.628265 901.201233,296.560577 902.485962,295.077820 
	C902.485962,285.826813 902.485962,276.575836 902.485962,267.235840 
	C610.714966,267.235840 319.152161,267.235840 28.080572,267.235840 
	C28.080572,276.912964 28.080572,286.361084 28.199797,296.628998 
M901.697571,117.500763 
	C902.162537,108.075829 902.627563,98.650902 903.087952,89.320496 
	C610.588196,89.320496 319.068634,89.320496 27.508905,89.320496 
	C27.508905,97.797630 27.443459,105.963158 27.577982,114.125397 
	C27.598661,115.380013 28.539974,116.619453 28.846672,118.528442 
	C30.600702,119.017906 32.354637,119.935837 34.108776,119.936218 
	C320.649750,119.999504 607.190735,119.996956 893.731689,119.996010 
	C895.397522,119.996002 897.111206,120.212440 898.710083,119.881424 
	C899.573303,119.702721 900.240356,118.576553 901.697571,117.500763 
M901.800659,376.139709 
	C899.618469,375.761047 897.436340,375.050995 895.254089,375.050629 
	C614.139160,375.000763 333.024231,375.002991 51.909313,375.002716 
	C45.410511,375.002686 38.907951,374.885498 32.415726,375.092194 
	C30.919859,375.139801 29.459373,376.298828 27.454197,377.758850 
	C27.454197,386.876434 27.454197,395.994019 27.454197,405.349792 
	C319.408905,405.349792 610.905518,405.349792 902.002197,405.349792 
	C902.002197,395.631775 902.002197,386.275330 901.800659,376.139709 
M27.601969,557.929077 
	C27.735086,567.618286 27.868204,577.307434 28.195700,587.785522 
	C30.362095,588.185486 32.528427,588.935364 34.694904,588.935791 
	C321.493805,588.987976 608.292725,588.985413 895.091614,588.984802 
	C896.591370,588.984802 898.141846,589.205139 899.572571,588.888611 
	C900.478271,588.688171 901.205566,587.681335 902.597900,586.258057 
	C902.392822,576.520142 902.187805,566.782166 901.808289,556.246033 
	C899.652527,555.833923 897.496826,555.061279 895.341003,555.060852 
	C608.497803,555.007080 321.654572,555.009705 34.811359,555.010559 
	C33.312244,555.010559 31.756268,554.782593 30.335033,555.118591 
	C29.462053,555.325012 28.795237,556.403442 27.601969,557.929077 
M27.617014,303.963593 
	C27.617014,313.879730 27.617014,323.795898 27.617014,333.687469 
	C319.466003,333.687469 611.009094,333.687469 902.654541,333.687469 
	C902.654541,329.889130 902.730225,326.389221 902.638245,322.893677 
	C902.464478,316.290894 902.194336,309.690643 901.807068,302.283875 
	C899.660645,301.859558 897.514343,301.063904 895.367859,301.063477 
	C608.507812,301.008118 321.647827,301.010834 34.787800,301.011749 
	C33.288612,301.011749 31.730640,300.781494 30.312059,301.123291 
	C29.447954,301.331543 28.798697,302.431335 27.617014,303.963593 
M28.185909,550.576843 
	C30.297596,551.050415 32.409195,551.938354 34.520977,551.938843 
	C321.439026,552.000610 608.357056,551.997620 895.275146,551.996460 
	C896.774597,551.996460 898.336609,552.230225 899.750000,551.877014 
	C900.594849,551.665894 901.206970,550.523315 902.400940,549.130981 
	C902.400940,539.213135 902.400940,529.295349 902.400940,519.164673 
	C610.741516,519.164673 319.132996,519.164673 28.099611,519.164673 
	C28.099611,529.526123 28.099611,539.635376 28.185909,550.576843 
M279.500244,51.608257 
	C195.558884,51.608257 111.617508,51.608257 27.587257,51.608257 
	C27.587257,62.050400 27.587257,71.845131 27.587257,81.842262 
	C319.267639,81.842262 610.923889,81.842262 902.489807,81.842262 
	C902.489807,71.682510 902.489807,61.901554 902.489807,51.608227 
	C695.048462,51.608227 487.774384,51.608227 279.500244,51.608257 
M400.500000,477.995453 
	C567.762512,477.995453 735.025085,477.995453 902.471069,477.995453 
	C902.471069,468.377441 902.471069,459.164185 902.471069,449.840393 
	C610.695618,449.840393 319.173859,449.840393 27.555550,449.840393 
	C27.555550,459.349457 27.555550,468.482697 27.555550,477.995453 
	C151.587708,477.995453 275.543854,477.995453 400.500000,477.995453 
M330.500000,191.043030 
	C521.083923,191.043030 711.667786,191.043030 902.348022,191.043030 
	C902.348022,180.635284 902.348022,170.607025 902.348022,160.526733 
	C610.637329,160.526733 319.268311,160.526733 27.762199,160.526733 
	C27.762199,170.824799 27.762199,180.828598 27.762199,191.043030 
	C128.574097,191.043030 229.037048,191.043030 330.500000,191.043030 
M327.500000,629.947327 
	C227.547531,629.947327 127.595062,629.947327 27.571842,629.947327 
	C27.571842,639.484009 27.571842,648.602661 27.571842,657.955078 
	C319.288727,657.955078 610.938965,657.955078 902.498291,657.955078 
	C902.498291,648.479126 902.498291,639.368591 902.498291,629.947327 
	C711.056091,629.947327 519.778076,629.947327 327.500000,629.947327 
M186.499985,623.068481 
	C425.189819,623.068481 663.879639,623.068481 902.467896,623.068481 
	C902.467896,613.353088 902.467896,604.252563 902.467896,595.014038 
	C610.748291,595.014038 319.213257,595.014038 27.589802,595.014038 
	C27.589802,604.388000 27.589802,613.503113 27.589802,623.068481 
	C80.251328,623.068481 132.875656,623.068481 186.499985,623.068481 
M124.500107,738.759949 
	C92.204559,738.759949 59.909016,738.759949 27.618427,738.759949 
	C27.618427,748.093445 27.618427,756.870117 27.618427,765.805725 
	C319.334717,765.805725 610.939880,765.805725 902.526855,765.805725 
	C902.526855,756.800293 902.526855,748.006287 902.526855,738.759949 
	C643.435303,738.759949 384.467682,738.759949 124.500107,738.759949 
M240.500000,512.058472 
	C461.129913,512.058472 681.759827,512.058472 902.518311,512.058472 
	C902.518311,503.263092 902.518311,494.805084 902.518311,486.148560 
	C610.959290,486.148560 319.362000,486.148560 27.635189,486.148560 
	C27.635189,494.745667 27.635189,503.182617 27.635189,512.058472 
	C98.232338,512.058472 168.866165,512.058472 240.500000,512.058472 
M640.500000,592.002441 
	C436.774414,592.002441 233.048843,592.002441 29.323277,592.002441 
	C29.323591,592.238892 29.323906,592.475342 29.324221,592.711792 
	C319.841614,592.711792 610.359009,592.711792 900.876404,592.711792 
	C900.876587,592.475342 900.876770,592.238892 900.876892,592.002441 
	C814.417969,592.002441 727.958984,592.002441 640.500000,592.002441 
M89.466118,821.839050 
	C93.242531,821.839050 97.018936,821.839050 100.946976,821.839050 
	C100.946976,820.347595 100.946976,819.150696 100.946976,818.066589 
	C88.030518,818.066589 75.425987,818.066589 62.620350,818.066589 
	C62.731216,819.390320 62.825161,820.511963 62.936306,821.839050 
	C71.556244,821.839050 80.016876,821.839050 89.466118,821.839050 
M57.345287,819.274292 
	C58.441181,819.342773 59.537075,819.411255 60.632969,819.479736 
	C60.524002,818.804932 60.415039,818.130188 60.306072,817.455383 
	C59.262894,817.827148 58.219715,818.198975 57.345287,819.274292 
M104.800430,817.211670 
	C104.376762,817.943481 103.953087,818.675293 103.529411,819.407043 
	C104.431435,819.496948 105.333450,819.586853 106.235466,819.676819 
	C105.998428,818.830994 105.761391,817.985168 104.800430,817.211670 
M57.298241,822.868408 
	C58.231728,822.868408 59.165215,822.868408 60.098701,822.868408 
	C60.085613,822.613953 60.072525,822.359497 60.059437,822.105042 
	C59.007816,822.220093 57.956196,822.335083 57.298241,822.868408 
M106.103355,822.969360 
	C106.397865,822.851074 106.694038,822.736267 106.980461,822.600891 
	C106.991493,822.595642 106.910461,822.295166 106.869141,822.294434 
	C105.931091,822.276001 104.992584,822.280212 104.054169,822.280212 
	C104.063576,822.442566 104.072983,822.604919 104.082390,822.767334 
	C104.555107,822.839172 105.027832,822.911011 106.103355,822.969360 
M59.349598,806.911682 
	C59.603424,806.543274 59.857254,806.174927 60.111084,805.806519 
	C59.697464,805.649170 59.283848,805.491821 58.870232,805.334473 
	C58.841526,805.811340 58.812820,806.288208 59.349598,806.911682 
z"/>
<path fill="#767676" opacity="1.000000" stroke="none" 
	d="
M910.130127,23.117233 
	C910.042969,22.710611 909.955811,22.303978 909.922607,21.585577 
	C914.755066,17.446774 919.533630,13.619739 924.653320,9.649488 
	C924.971436,9.748131 924.948364,9.989986 924.736328,10.854015 
	C919.741516,15.356532 914.935791,19.236877 910.130127,23.117233 
z"/>
<path fill="#D5D5D5" opacity="1.000000" stroke="none" 
	d="
M910.204102,827.880920 
	C909.828552,827.421021 909.937439,826.998901 910.554199,826.258911 
	C914.136780,825.640991 917.215515,825.376343 920.285095,825.030762 
	C923.166748,824.706421 926.038879,824.296448 928.915161,823.924133 
	C928.942932,824.674988 928.970642,825.425903 929.013550,826.550964 
	C922.915344,827.256348 916.801941,827.587585 910.204102,827.880920 
z"/>
<path fill="#FBFBFB" opacity="1.000000" stroke="none" 
	d="
M928.772095,823.541321 
	C926.038879,824.296448 923.166748,824.706421 920.285095,825.030762 
	C917.215515,825.376343 914.136780,825.640991 910.655396,825.947876 
	C910.166504,815.796387 910.013123,805.638123 910.012634,795.479858 
	C910.000549,546.330322 910.004456,297.180786 910.006836,48.031242 
	C910.006958,40.032387 910.021118,32.033527 910.079468,23.575947 
	C914.935791,19.236877 919.741516,15.356532 924.754211,11.217989 
	C925.769470,10.599717 926.577698,10.239646 927.706055,9.773137 
	C928.008301,204.904633 927.988525,400.142548 927.973450,595.380493 
	C927.967712,669.178040 927.967468,742.975586 928.000671,816.773132 
	C928.001648,818.901672 928.410339,821.030029 928.772095,823.541321 
z"/>
<path fill="#FDFDFD" opacity="1.000000" stroke="none" 
	d="
M806.905762,821.770264 
	C574.463745,821.770264 342.021729,821.770264 109.267715,821.770264 
	C109.171051,820.582825 109.071892,819.364746 108.953468,817.910034 
	C118.463913,817.910034 127.598938,817.910034 136.854980,817.910034 
	C136.854980,814.240051 136.854980,810.776917 135.968445,807.141113 
	C126.402954,806.942810 117.723976,806.917236 109.044998,806.891663 
	C108.293663,805.941345 107.542328,804.990967 106.528633,804.346924 
	C106.266273,804.653198 106.239311,804.528015 106.239311,804.528015 
	C104.040260,803.437134 101.654007,801.746155 100.599106,806.534058 
	C87.697197,806.961243 75.353691,806.967529 63.010185,806.973755 
	C62.060802,805.848206 61.091076,803.779297 60.166370,803.799194 
	C58.401669,803.837219 55.085255,801.657532 54.525162,806.467651 
	C49.665268,807.007874 45.279202,807.066956 40.893139,807.125977 
	C40.472023,807.081299 40.050911,807.036621 39.003189,807.078247 
	C38.371284,807.768555 38.365997,808.372559 38.360710,808.976501 
	C38.360710,811.784607 38.360710,814.592712 38.360710,817.801758 
	C43.798752,817.801758 49.220951,817.801758 54.815376,817.801758 
	C54.815376,819.299805 54.815376,820.395935 54.815376,821.654175 
	C45.849503,821.654175 37.059658,821.654175 27.863140,821.654175 
	C27.863140,805.442444 27.863140,789.396484 27.863140,772.866577 
	C29.586721,772.866577 31.373854,772.866638 33.160984,772.866638 
	C320.986389,772.866699 608.811829,772.865906 896.637207,772.882507 
	C898.618713,772.882629 900.600281,773.121155 902.607117,773.984619 
	C902.742554,789.817810 902.852661,804.914734 902.962769,820.011597 
	C901.420410,820.601501 899.884338,821.683533 898.334717,821.703308 
	C886.240356,821.857361 874.143311,821.807190 861.574951,821.331543 
	C860.499878,818.227539 861.835571,817.882874 864.088257,817.914673 
	C872.353271,818.031799 880.620972,817.961121 889.012634,817.961121 
	C889.012634,814.125916 889.012634,810.725769 889.012634,806.956299 
	C880.855408,806.956299 872.907104,806.981995 864.959229,806.936462 
	C863.193054,806.926392 860.729004,807.807373 860.913330,804.478516 
	C858.344604,804.630920 855.747314,804.608215 853.220703,805.019348 
	C852.159973,805.191956 851.256042,806.854919 850.268127,806.867798 
	C839.458557,807.008179 828.645752,807.007507 817.836182,806.868408 
	C816.864685,806.855896 815.962708,805.146667 814.935669,805.028015 
	C812.321472,804.725830 809.631592,804.664978 807.019409,804.946838 
	C805.854309,805.072510 804.832397,806.798096 803.695007,806.859314 
	C799.290405,807.096313 794.865417,806.955627 790.587158,806.955627 
	C790.587158,811.011414 790.587158,814.403870 790.587158,818.045044 
	C796.246521,818.045044 801.539551,818.045044 806.905762,818.045044 
	C806.905762,819.460022 806.905762,820.615112 806.905762,821.770264 
M441.500000,808.966492 
	C432.209106,808.966492 422.918213,808.966492 413.485474,808.966492 
	C413.485474,811.783508 413.485474,814.163757 413.485474,816.579956 
	C446.533325,816.579956 479.255066,816.579956 511.992157,816.579956 
	C511.992157,813.992981 511.992157,811.702454 511.992157,808.966492 
	C488.729248,808.966492 465.614624,808.966492 441.500000,808.966492 
z"/>
<path fill="#FBFBFB" opacity="1.000000" stroke="none" 
	d="
M28.099611,549.744629 
	C28.099611,539.635376 28.099611,529.526123 28.099611,519.164673 
	C319.132996,519.164673 610.741516,519.164673 902.400940,519.164673 
	C902.400940,529.295349 902.400940,539.213135 901.700867,549.414673 
	C778.680908,549.699036 656.360962,549.694641 534.041077,549.701721 
	C365.393921,549.711487 196.746765,549.729919 28.099611,549.744629 
z"/>
<path fill="#FCFCFC" opacity="1.000000" stroke="none" 
	d="
M901.964233,303.089355 
	C902.194336,309.690643 902.464478,316.290894 902.638245,322.893677 
	C902.730225,326.389221 902.654541,329.889130 902.654541,333.687469 
	C611.009094,333.687469 319.466003,333.687469 27.617014,333.687469 
	C27.617014,323.795898 27.617014,313.879730 28.299438,303.576996 
	C316.977295,303.184906 604.972778,303.179657 892.968201,303.170410 
	C895.966858,303.170319 898.965515,303.117554 901.964233,303.089355 
z"/>
<path fill="#FDFDFD" opacity="1.000000" stroke="none" 
	d="
M280.000244,51.608242 
	C487.774384,51.608227 695.048462,51.608227 902.489807,51.608227 
	C902.489807,61.901554 902.489807,71.682510 902.489807,81.842262 
	C610.923889,81.842262 319.267639,81.842262 27.587257,81.842262 
	C27.587257,71.845131 27.587257,62.050400 27.587257,51.608257 
	C111.617508,51.608257 195.558884,51.608257 280.000244,51.608242 
z"/>
<path fill="#FDFDFD" opacity="1.000000" stroke="none" 
	d="
M28.001322,586.996643 
	C27.868204,577.307434 27.735086,567.618286 28.284782,557.533020 
	C317.141876,557.131592 605.316162,557.126404 893.490417,557.117615 
	C896.321167,557.117554 899.151978,557.069763 901.982727,557.044250 
	C902.187805,566.782166 902.392822,576.520142 901.837158,586.610840 
	C628.042175,586.961426 355.008057,586.958435 81.973885,586.958740 
	C63.983028,586.958801 45.992176,586.983459 28.001322,586.996643 
z"/>
<path fill="#FAFAFA" opacity="1.000000" stroke="none" 
	d="
M400.000000,477.995453 
	C275.543854,477.995453 151.587708,477.995453 27.555550,477.995453 
	C27.555550,468.482697 27.555550,459.349457 27.555550,449.840393 
	C319.173859,449.840393 610.695618,449.840393 902.471069,449.840393 
	C902.471069,459.164185 902.471069,468.377441 902.471069,477.995453 
	C735.025085,477.995453 567.762512,477.995453 400.000000,477.995453 
z"/>
<path fill="#FCFCFC" opacity="1.000000" stroke="none" 
	d="
M330.000000,191.043030 
	C229.037048,191.043030 128.574097,191.043030 27.762199,191.043030 
	C27.762199,180.828598 27.762199,170.824799 27.762199,160.526733 
	C319.268311,160.526733 610.637329,160.526733 902.348022,160.526733 
	C902.348022,170.607025 902.348022,180.635284 902.348022,191.043030 
	C711.667786,191.043030 521.083923,191.043030 330.000000,191.043030 
M194.500000,182.000000 
	C140.234634,182.000000 85.969254,182.000000 31.703882,182.000000 
	C31.706753,182.433334 31.709621,182.866684 31.712492,183.300018 
	C320.571442,183.300018 609.430359,183.300018 898.289307,183.300018 
	C898.289185,182.866684 898.289062,182.433334 898.288940,182.000000 
	C664.026001,182.000000 429.763000,182.000000 194.500000,182.000000 
z"/>
<path fill="#FAFAFA" opacity="1.000000" stroke="none" 
	d="
M902.002197,376.918854 
	C902.002197,386.275330 902.002197,395.631775 902.002197,405.349792 
	C610.905518,405.349792 319.408905,405.349792 27.454197,405.349792 
	C27.454197,395.994019 27.454197,386.876434 28.187162,377.385315 
	C318.616272,377.013885 608.312439,377.016174 898.008606,377.014069 
	C899.339783,377.014069 900.671021,376.951965 902.002197,376.918854 
z"/>
<path fill="#FAFAFA" opacity="1.000000" stroke="none" 
	d="
M29.055511,117.865913 
	C28.539974,116.619453 27.598661,115.380013 27.577982,114.125397 
	C27.443459,105.963158 27.508905,97.797630 27.508905,89.320496 
	C319.068634,89.320496 610.588196,89.320496 903.087952,89.320496 
	C902.627563,98.650902 902.162537,108.075829 900.891235,117.570984 
	C899.085510,117.630638 898.086121,117.610840 897.086731,117.610832 
	C609.400696,117.609184 321.714691,117.608467 34.028690,117.619202 
	C32.370960,117.619270 30.713238,117.780136 29.055511,117.865913 
z"/>
<path fill="#FCFCFC" opacity="1.000000" stroke="none" 
	d="
M28.080572,295.809143 
	C28.080572,286.361084 28.080572,276.912964 28.080572,267.235840 
	C319.152161,267.235840 610.714966,267.235840 902.485962,267.235840 
	C902.485962,276.575836 902.485962,285.826813 901.751587,295.417633 
	C611.537231,295.753693 322.057190,295.749847 32.577190,295.748749 
	C31.078318,295.748749 29.579445,295.788147 28.080572,295.809143 
z"/>
<path fill="#FFFFFF" opacity="1.000000" stroke="none" 
	d="
M27.852722,694.045959 
	C27.742001,684.970276 27.631279,675.894653 28.225914,666.430054 
	C318.623718,666.042847 608.316162,666.044678 898.008606,666.042786 
	C899.340149,666.042786 900.671753,665.989319 902.003296,665.960876 
	C902.205933,675.081848 902.408630,684.202759 901.982300,693.700806 
	C899.687805,694.062439 898.022217,694.033691 896.356689,694.033691 
	C606.855347,694.036438 317.354034,694.041199 27.852722,694.045959 
z"/>
<path fill="#FEFEFE" opacity="1.000000" stroke="none" 
	d="
M328.000000,629.947327 
	C519.778076,629.947327 711.056091,629.947327 902.498291,629.947327 
	C902.498291,639.368591 902.498291,648.479126 902.498291,657.955078 
	C610.938965,657.955078 319.288727,657.955078 27.571842,657.955078 
	C27.571842,648.602661 27.571842,639.484009 27.571842,629.947327 
	C127.595062,629.947327 227.547531,629.947327 328.000000,629.947327 
z"/>
<path fill="#FDFDFD" opacity="1.000000" stroke="none" 
	d="
M185.999969,623.068481 
	C132.875656,623.068481 80.251328,623.068481 27.589802,623.068481 
	C27.589802,613.503113 27.589802,604.388000 27.589802,595.014038 
	C319.213257,595.014038 610.748291,595.014038 902.467896,595.014038 
	C902.467896,604.252563 902.467896,613.353088 902.467896,623.068481 
	C663.879639,623.068481 425.189819,623.068481 185.999969,623.068481 
z"/>
<path fill="#FAFAFA" opacity="1.000000" stroke="none" 
	d="
M899.996826,703.096558 
	C900.885986,704.138428 902.519531,705.161621 902.546326,706.225159 
	C902.758118,714.656738 902.664246,723.096130 902.664246,731.739868 
	C901.403687,731.827148 900.287659,731.904358 898.801636,731.488281 
	C896.388733,730.667419 894.345886,730.053101 892.302979,730.052795 
	C607.495667,730.010132 322.688354,730.012085 37.881031,730.015564 
	C36.216053,730.015625 34.535583,729.953247 32.896847,730.174927 
	C32.479816,730.231384 32.195278,731.267151 31.849857,731.852905 
	C31.216930,731.894958 30.584005,731.936951 29.484554,731.389648 
	C29.009111,727.310791 29.111618,723.816711 28.965551,720.333069 
	C28.738031,714.906677 28.341715,709.487427 28.016930,704.065125 
	C28.110363,703.721375 28.330175,703.507751 29.318161,703.383301 
	C30.292969,703.353821 30.625984,703.375244 30.959002,703.375244 
	C319.150024,703.376282 607.341064,703.376343 895.532104,703.363953 
	C897.020325,703.363892 898.508606,703.189514 899.996826,703.096558 
z"/>
<path fill="#FEFEFE" opacity="1.000000" stroke="none" 
	d="
M125.000107,738.759949 
	C384.467682,738.759949 643.435303,738.759949 902.526855,738.759949 
	C902.526855,748.006287 902.526855,756.800293 902.526855,765.805725 
	C610.939880,765.805725 319.334717,765.805725 27.618427,765.805725 
	C27.618427,756.870117 27.618427,748.093445 27.618427,738.759949 
	C59.909016,738.759949 92.204559,738.759949 125.000107,738.759949 
z"/>
<path fill="#FEFEFE" opacity="1.000000" stroke="none" 
	d="
M240.000000,512.058472 
	C168.866165,512.058472 98.232338,512.058472 27.635189,512.058472 
	C27.635189,503.182617 27.635189,494.745667 27.635189,486.148560 
	C319.362000,486.148560 610.959290,486.148560 902.518311,486.148560 
	C902.518311,494.805084 902.518311,503.263092 902.518311,512.058472 
	C681.759827,512.058472 461.129913,512.058472 240.000000,512.058472 
z"/>
<path fill="#FEFEFE" opacity="1.000000" stroke="none" 
	d="
M902.015564,233.956207 
	C902.015564,242.543747 902.015564,251.131287 902.015564,260.067261 
	C611.071960,260.067261 319.567352,260.067261 27.493664,260.067261 
	C27.493664,251.613602 27.493664,243.208298 28.211605,234.421234 
	C318.626709,234.041183 608.323914,234.043015 898.021057,234.040970 
	C899.352539,234.040970 900.684082,233.985687 902.015564,233.956207 
z"/>
<path fill="#FFFFFF" opacity="1.000000" stroke="none" 
	d="
M902.289734,147.964951 
	C902.437866,149.751892 902.585999,151.538818 902.761414,153.654312 
	C610.960754,153.654312 319.566284,153.654312 27.587988,153.654312 
	C27.587988,144.384644 27.587988,135.143570 28.272686,125.502228 
	C316.971710,125.096359 604.986023,125.090942 893.000366,125.082344 
	C895.997986,125.082260 898.995544,125.040260 901.993164,125.017822 
	C902.193359,131.723450 902.393616,138.429092 902.000732,145.566544 
	C898.119873,145.667007 894.832031,145.045975 891.544128,145.045456 
	C607.093445,145.000916 322.642822,144.997757 38.192207,145.106689 
	C35.626221,145.107681 32.064674,143.113541 30.414169,147.192200 
	C32.967911,147.794800 35.521500,148.924469 38.075405,148.925186 
	C320.526398,149.004349 602.977417,149.005188 885.428406,148.955688 
	C891.048889,148.954697 896.669312,148.309555 902.289734,147.964951 
z"/>
<path fill="#FFFFFF" opacity="1.000000" stroke="none" 
	d="
M27.888618,362.014587 
	C27.888618,355.202789 27.888618,348.391022 27.888618,341.200867 
	C319.104553,341.200867 610.681946,341.200867 902.607727,341.200867 
	C902.607727,347.490204 902.607727,353.770294 902.110107,360.605164 
	C899.333679,361.440430 897.054932,361.966370 894.776123,361.966705 
	C605.813599,362.007782 316.851135,362.010223 27.888618,362.014587 
z"/>
<path fill="#FFFFFF" opacity="1.000000" stroke="none" 
	d="
M27.886229,433.009033 
	C27.775385,426.287476 27.664541,419.565887 28.245157,412.442871 
	C318.130737,412.036743 607.324890,412.032166 896.518982,412.024445 
	C898.350647,412.024384 900.182373,411.980621 902.014038,411.957245 
	C902.207886,418.683167 902.401794,425.409119 901.958557,432.573181 
	C610.176331,433.010559 319.031281,433.009796 27.886229,433.009033 
z"/>
<path fill="#FFFFFF" opacity="1.000000" stroke="none" 
	d="
M27.902290,217.007111 
	C27.902290,210.864792 27.902290,204.722473 27.902290,198.247314 
	C319.098755,198.247314 610.669373,198.247314 902.602600,198.247314 
	C902.602600,204.183990 902.602600,210.127029 902.030029,216.524536 
	C898.459045,216.986099 895.460571,216.999435 892.462158,216.999466 
	C604.275513,217.002686 316.088898,217.004852 27.902290,217.007111 
z"/>
<path fill="#F9F9F9" opacity="1.000000" stroke="none" 
	d="
M902.314453,41.027039 
	C902.473450,42.160137 902.632446,43.293232 902.833008,44.723042 
	C611.060303,44.723042 319.507904,44.723042 27.476347,44.723042 
	C27.476347,39.818974 27.309196,34.892876 27.613445,29.996061 
	C27.676403,28.982779 29.353558,27.563360 30.532776,27.246372 
	C32.236481,26.788403 34.164780,27.184381 35.997250,27.184399 
	C322.276642,27.187332 608.556030,27.187422 894.835449,27.187630 
	C897.155945,27.187632 899.476379,27.187630 902.623779,27.187630 
	C902.623779,30.961493 902.623779,34.535271 902.046509,38.549805 
	C611.216187,38.990559 320.963226,38.990559 30.710239,38.990559 
	C30.704342,39.660320 30.698446,40.330086 30.692549,40.999847 
	C32.572620,40.999847 34.452690,40.999844 36.332764,40.999844 
	C124.497589,40.999844 212.662415,40.997162 300.827240,41.000389 
	C501.322968,41.007732 701.818726,41.017979 902.314453,41.027039 
z"/>
<path fill="#F3F3F3" opacity="1.000000" stroke="none" 
	d="
M27.739880,433.418182 
	C319.031281,433.009796 610.176331,433.010559 901.809875,433.024109 
	C902.393799,434.747070 902.489319,436.457184 901.992798,438.587341 
	C897.946472,439.337830 894.492126,439.957062 891.037659,439.957611 
	C608.441650,440.002258 325.845612,440.004059 43.249577,439.956787 
	C38.129284,439.955933 33.009094,439.326996 27.888859,438.991089 
	C27.790417,437.269836 27.691975,435.548584 27.739880,433.418182 
z"/>
<path fill="#FEFEFE" opacity="1.000000" stroke="none" 
	d="
M902.312744,220.033707 
	C902.474182,221.835373 902.635620,223.637039 902.833740,225.847870 
	C611.039917,225.847870 319.406464,225.847870 27.576799,225.847870 
	C27.576799,223.825989 27.576799,221.858673 28.188412,219.451157 
	C32.589649,219.339828 36.379230,219.956009 40.168911,219.956604 
	C323.653229,220.001282 607.137573,219.999268 890.621887,219.967880 
	C893.251282,219.967590 895.877441,219.411407 898.511475,219.336441 
	C899.770935,219.300598 901.045166,219.784973 902.312744,220.033707 
z"/>
<path fill="#FEFEFE" opacity="1.000000" stroke="none" 
	d="
M902.365051,365.050415 
	C902.504456,366.293365 902.643799,367.536346 902.802917,368.955383 
	C610.823486,368.955383 319.323090,368.955383 27.567537,368.955383 
	C27.567537,367.490448 27.567537,366.192963 28.202980,364.449829 
	C317.911530,364.001953 606.984619,363.997528 896.057739,364.041107 
	C898.160217,364.041412 900.262634,364.699493 902.365051,365.050415 
z"/>
<path fill="#F3F3F3" opacity="1.000000" stroke="none" 
	d="
M902.449951,147.656769 
	C896.669312,148.309555 891.048889,148.954697 885.428406,148.955688 
	C602.977417,149.005188 320.526398,149.004349 38.075405,148.925186 
	C35.521500,148.924469 32.967911,147.794800 30.414169,147.192200 
	C32.064674,143.113541 35.626221,145.107681 38.192207,145.106689 
	C322.642822,144.997757 607.093445,145.000916 891.544128,145.045456 
	C894.832031,145.045975 898.119873,145.667007 901.850952,146.017120 
	C902.399536,146.473450 902.504883,146.911011 902.449951,147.656769 
z"/>
<path fill="#FFFFFF" opacity="1.000000" stroke="none" 
	d="
M27.722286,439.430786 
	C33.009094,439.326996 38.129284,439.955933 43.249577,439.956787 
	C325.845612,440.004059 608.441650,440.002258 891.037659,439.957611 
	C894.492126,439.957062 897.946472,439.337830 901.843750,438.993591 
	C902.373047,440.224548 902.459534,441.469269 902.564697,442.983154 
	C900.418091,442.983154 898.762634,442.983124 897.107178,442.983124 
	C609.065552,442.983063 321.023926,442.987213 32.982330,442.898834 
	C30.967773,442.898193 27.040785,444.959442 27.722286,439.430786 
z"/>
<path fill="#D5D5D5" opacity="1.000000" stroke="none" 
	d="
M27.721695,694.485840 
	C317.354034,694.041199 606.855347,694.036438 896.356689,694.033691 
	C898.022217,694.033691 899.687805,694.062439 901.844604,694.105835 
	C901.843140,695.078003 901.540466,696.604675 900.816711,696.840820 
	C899.459717,697.283752 897.859070,696.985535 896.359741,696.985535 
	C608.625671,696.986694 320.891663,696.990906 33.157646,696.902161 
	C31.301781,696.901550 29.446318,695.612915 27.721695,694.485840 
z"/>
<path fill="#F3F3F3" opacity="1.000000" stroke="none" 
	d="
M902.468262,219.663910 
	C901.045166,219.784973 899.770935,219.300598 898.511475,219.336441 
	C895.877441,219.411407 893.251282,219.967590 890.621887,219.967880 
	C607.137573,219.999268 323.653229,220.001282 40.168911,219.956604 
	C36.379230,219.956009 32.589649,219.339828 28.360262,219.002777 
	C27.817270,218.546646 27.714041,218.098724 27.756550,217.328949 
	C316.088898,217.004852 604.275513,217.002686 892.462158,216.999466 
	C895.460571,216.999435 898.459045,216.986099 901.880554,216.966949 
	C902.410339,217.734665 902.517090,218.514404 902.468262,219.663910 
z"/>
<path fill="#EBEBEB" opacity="1.000000" stroke="none" 
	d="
M902.519836,364.656982 
	C900.262634,364.699493 898.160217,364.041412 896.057739,364.041107 
	C606.984619,363.997528 317.911530,364.001953 28.362160,363.994568 
	C27.784285,363.539093 27.682674,363.093262 27.734842,362.330994 
	C316.851135,362.010223 605.813599,362.007782 894.776123,361.966705 
	C897.054932,361.966370 899.333679,361.440430 901.975708,361.051147 
	C902.450867,362.049408 902.562744,363.156433 902.519836,364.656982 
z"/>
<path fill="#0E0E0E" opacity="1.000000" stroke="none" 
	d="
M901.901428,376.529297 
	C900.671021,376.951965 899.339783,377.014069 898.008606,377.014069 
	C608.312439,377.016174 318.616272,377.013885 28.451366,376.979065 
	C29.459373,376.298828 30.919859,375.139801 32.415726,375.092194 
	C38.907951,374.885498 45.410511,375.002686 51.909313,375.002716 
	C333.024231,375.002991 614.139160,375.000763 895.254089,375.050629 
	C897.436340,375.050995 899.618469,375.761047 901.901428,376.529297 
z"/>
<path fill="#181818" opacity="1.000000" stroke="none" 
	d="
M901.902588,665.569092 
	C900.671753,665.989319 899.340149,666.042786 898.008606,666.042786 
	C608.316162,666.044678 318.623718,666.042847 28.462994,666.013428 
	C28.793055,665.332336 29.508972,664.311584 30.408596,664.109802 
	C31.837612,663.789246 33.389256,664.010803 34.889027,664.010803 
	C321.686523,664.010132 608.484009,664.007690 895.281494,664.058472 
	C897.455017,664.058899 899.628479,664.788269 901.902588,665.569092 
z"/>
<path fill="#181818" opacity="1.000000" stroke="none" 
	d="
M28.098511,587.391113 
	C45.992176,586.983459 63.983028,586.958801 81.973885,586.958740 
	C355.008057,586.958435 628.042175,586.961426 901.544617,586.999878 
	C901.205566,587.681335 900.478271,588.688171 899.572571,588.888611 
	C898.141846,589.205139 896.591370,588.984802 895.091614,588.984802 
	C608.292725,588.985413 321.493805,588.987976 34.694904,588.935791 
	C32.528427,588.935364 30.362095,588.185486 28.098511,587.391113 
z"/>
<path fill="#181818" opacity="1.000000" stroke="none" 
	d="
M901.900757,124.620987 
	C898.995544,125.040260 895.997986,125.082260 893.000366,125.082344 
	C604.986023,125.090942 316.971710,125.096359 28.490620,125.081551 
	C29.627743,124.377380 31.227896,123.108665 32.836079,123.098404 
	C53.834877,122.964348 74.834816,123.007843 95.834465,123.007889 
	C362.330048,123.008385 628.825623,123.006203 895.321228,123.059944 
	C897.483704,123.060379 899.645996,123.819351 901.900757,124.620987 
z"/>
<path fill="#0E0E0E" opacity="1.000000" stroke="none" 
	d="
M28.142761,550.160767 
	C196.746765,549.729919 365.393921,549.711487 534.041077,549.701721 
	C656.360962,549.694641 778.680908,549.699036 901.462280,549.748901 
	C901.206970,550.523315 900.594849,551.665894 899.750000,551.877014 
	C898.336609,552.230225 896.774597,551.996460 895.275146,551.996460 
	C608.357056,551.997620 321.439026,552.000610 34.520977,551.938843 
	C32.409195,551.938354 30.297596,551.050415 28.142761,550.160767 
z"/>
<path fill="#181818" opacity="1.000000" stroke="none" 
	d="
M901.885620,302.686615 
	C898.965515,303.117554 895.966858,303.170319 892.968201,303.170410 
	C604.972778,303.179657 316.977295,303.184906 28.517395,303.160522 
	C28.798697,302.431335 29.447954,301.331543 30.312059,301.123291 
	C31.730640,300.781494 33.288612,301.011749 34.787800,301.011749 
	C321.647827,301.010834 608.507812,301.008118 895.367859,301.063477 
	C897.514343,301.063904 899.660645,301.859558 901.885620,302.686615 
z"/>
<path fill="#0E0E0E" opacity="1.000000" stroke="none" 
	d="
M901.913330,411.565063 
	C900.182373,411.980621 898.350647,412.024384 896.518982,412.024445 
	C607.324890,412.032166 318.130737,412.036743 28.468349,412.020844 
	C28.791740,411.340179 29.499048,410.308228 30.394369,410.105133 
	C31.821970,409.781311 33.374668,410.004303 34.874466,410.004303 
	C321.677795,410.003632 608.481140,410.001099 895.284485,410.052002 
	C897.460632,410.052399 899.636597,410.783112 901.913330,411.565063 
z"/>
<path fill="#181818" opacity="1.000000" stroke="none" 
	d="
M28.140184,296.219055 
	C29.579445,295.788147 31.078318,295.748749 32.577190,295.748749 
	C322.057190,295.749847 611.537231,295.753693 901.479858,295.807922 
	C901.201233,296.560577 900.564514,297.628265 899.693604,297.877319 
	C898.459778,298.230255 897.053284,297.985931 895.720581,297.985931 
	C608.505310,297.986816 321.289978,297.989410 34.074707,297.930542 
	C32.116318,297.930145 30.158096,297.081512 28.140184,296.219055 
z"/>
<path fill="#181818" opacity="1.000000" stroke="none" 
	d="
M901.910400,233.565674 
	C900.684082,233.985687 899.352539,234.040970 898.021057,234.040970 
	C608.323914,234.043015 318.626709,234.041183 28.461250,234.010071 
	C28.793936,233.329605 29.513189,232.312698 30.414640,232.111282 
	C31.844109,231.791916 33.395412,232.013611 34.895168,232.013611 
	C321.689850,232.013046 608.484497,232.010574 895.279175,232.061218 
	C897.454590,232.061600 899.629822,232.787811 901.910400,233.565674 
z"/>
<path fill="#181818" opacity="1.000000" stroke="none" 
	d="
M901.895508,556.645142 
	C899.151978,557.069763 896.321167,557.117554 893.490417,557.117615 
	C605.316162,557.126404 317.141876,557.131592 28.501720,557.113647 
	C28.795237,556.403442 29.462053,555.325012 30.335033,555.118591 
	C31.756268,554.782593 33.312244,555.010559 34.811359,555.010559 
	C321.654572,555.009705 608.497803,555.007080 895.341003,555.060852 
	C897.496826,555.061279 899.652527,555.833923 901.895508,556.645142 
z"/>
<path fill="#F3F3F3" opacity="1.000000" stroke="none" 
	d="
M902.462646,40.695213 
	C701.818726,41.017979 501.322968,41.007732 300.827240,41.000389 
	C212.662415,40.997162 124.497589,40.999844 36.332764,40.999844 
	C34.452690,40.999844 32.572620,40.999847 30.692549,40.999847 
	C30.698446,40.330086 30.704342,39.660320 30.710239,38.990559 
	C320.963226,38.990559 611.216187,38.990559 901.893311,38.981148 
	C902.415222,39.435616 902.513062,39.899502 902.462646,40.695213 
z"/>
<path fill="#0E0E0E" opacity="1.000000" stroke="none" 
	d="
M28.951092,118.197174 
	C30.713238,117.780136 32.370960,117.619270 34.028690,117.619202 
	C321.714691,117.608467 609.400696,117.609184 897.086731,117.610832 
	C898.086121,117.610840 899.085510,117.630638 900.540405,117.759514 
	C900.240356,118.576553 899.573303,119.702721 898.710083,119.881424 
	C897.111206,120.212440 895.397522,119.996002 893.731689,119.996010 
	C607.190735,119.996956 320.649750,119.999504 34.108776,119.936218 
	C32.354637,119.935837 30.600702,119.017906 28.951092,118.197174 
z"/>
<path fill="#0E0E0E" opacity="1.000000" stroke="none" 
	d="
M899.914185,702.692749 
	C898.508606,703.189514 897.020325,703.363892 895.532104,703.363953 
	C607.341064,703.376343 319.150024,703.376282 30.959002,703.375244 
	C30.625984,703.375244 30.292969,703.353821 29.505432,703.233765 
	C29.342245,702.419739 29.523508,701.195374 29.945509,701.105835 
	C31.221750,700.835083 32.591408,701.002808 33.924664,701.002808 
	C320.410461,701.002625 606.896240,700.999939 893.382019,701.056030 
	C895.531921,701.056458 897.681702,701.860291 899.914185,702.692749 
z"/>
<path fill="#EBEBEB" opacity="1.000000" stroke="none" 
	d="
M32.194515,731.927673 
	C32.195278,731.267151 32.479816,730.231384 32.896847,730.174927 
	C34.535583,729.953247 36.216053,730.015625 37.881031,730.015564 
	C322.688354,730.012085 607.495667,730.010132 892.302979,730.052795 
	C894.345886,730.053101 896.388733,730.667419 898.394165,731.424194 
	C897.362183,731.908936 896.367554,732.013245 895.372986,732.013245 
	C607.761719,732.014404 320.150452,732.008362 32.194515,731.927673 
z"/>
<path fill="#0E0E0E" opacity="1.000000" stroke="none" 
	d="
M641.000000,592.002441 
	C727.958984,592.002441 814.417969,592.002441 900.876892,592.002441 
	C900.876770,592.238892 900.876587,592.475342 900.876404,592.711792 
	C610.359009,592.711792 319.841614,592.711792 29.324221,592.711792 
	C29.323906,592.475342 29.323591,592.238892 29.323277,592.002441 
	C233.048843,592.002441 436.774414,592.002441 641.000000,592.002441 
z"/>
<path fill="#181818" opacity="1.000000" stroke="none" 
	d="
M807.151367,822.093018 
	C806.905762,820.615112 806.905762,819.460022 806.905762,818.045044 
	C801.539551,818.045044 796.246521,818.045044 790.587158,818.045044 
	C790.587158,814.403870 790.587158,811.011414 790.587158,806.955627 
	C794.865417,806.955627 799.290405,807.096313 803.695007,806.859314 
	C804.832397,806.798096 805.854309,805.072510 807.019409,804.946838 
	C809.631592,804.664978 812.321472,804.725830 814.935669,805.028015 
	C815.962708,805.146667 816.864685,806.855896 817.836182,806.868408 
	C828.645752,807.007507 839.458557,807.008179 850.268127,806.867798 
	C851.256042,806.854919 852.159973,805.191956 853.220703,805.019348 
	C855.747314,804.608215 858.344604,804.630920 860.913330,804.478516 
	C860.729004,807.807373 863.193054,806.926392 864.959229,806.936462 
	C872.907104,806.981995 880.855408,806.956299 889.012634,806.956299 
	C889.012634,810.725769 889.012634,814.125916 889.012634,817.961121 
	C880.620972,817.961121 872.353271,818.031799 864.088257,817.914673 
	C861.835571,817.882874 860.499878,818.227539 861.118591,821.269775 
	C858.596741,821.978943 856.059082,822.261414 853.352356,821.792358 
	C852.629150,820.003479 852.087769,818.069397 851.518799,818.061218 
	C839.348511,817.887207 827.175049,817.929077 814.843079,817.929077 
	C814.924011,819.599487 814.979492,820.744751 815.034973,821.890015 
	C812.489014,822.065247 809.942993,822.240479 807.151367,822.093018 
M827.515015,815.671326 
	C835.947449,815.671326 844.379822,815.671326 853.103027,815.671326 
	C853.103027,813.715942 853.103027,811.982239 853.103027,810.215515 
	C840.269287,810.215515 827.715759,810.215515 814.813049,810.215515 
	C814.909363,812.149353 814.993835,813.845276 815.084778,815.671326 
	C819.244995,815.671326 822.884216,815.671326 827.515015,815.671326 
M879.363037,815.671814 
	C880.851746,815.683960 882.473938,816.065308 883.786499,815.590576 
	C884.822937,815.215759 886.122986,813.786438 886.120544,812.828552 
	C886.118103,811.887207 884.643921,810.159180 883.776855,810.134460 
	C876.244995,809.919556 868.704407,810.010498 860.900391,810.010498 
	C861.043884,812.263000 861.144531,813.842468 861.261047,815.671570 
	C867.195129,815.671570 872.793701,815.671570 879.363037,815.671814 
M802.380127,815.670837 
	C803.819153,815.670837 805.258179,815.670837 806.755371,815.670837 
	C806.755371,813.572388 806.755371,811.888000 806.755371,810.357544 
	C802.369019,810.357544 798.337830,810.357544 794.366272,810.357544 
	C793.184326,814.099243 793.820068,816.166565 798.002869,815.694824 
	C799.139160,815.566650 800.301941,815.673523 802.380127,815.670837 
z"/>
<path fill="#EBEBEB" opacity="1.000000" stroke="none" 
	d="
M101.005257,809.986328 
	C101.095436,811.779053 101.185616,813.571838 101.286255,815.572571 
	C88.402794,815.572571 75.949043,815.572571 62.745102,815.572571 
	C62.745102,814.057251 62.745102,812.337219 63.337646,810.282104 
	C76.288551,809.960205 88.646904,809.973267 101.005257,809.986328 
z"/>
<path fill="#EBEBEB" opacity="1.000000" stroke="none" 
	d="
M88.971817,821.839050 
	C80.016876,821.839050 71.556244,821.839050 62.936306,821.839050 
	C62.825161,820.511963 62.731216,819.390320 62.620350,818.066589 
	C75.425987,818.066589 88.030518,818.066589 100.946976,818.066589 
	C100.946976,819.150696 100.946976,820.347595 100.946976,821.839050 
	C97.018936,821.839050 93.242531,821.839050 88.971817,821.839050 
z"/>
<path fill="#EBEBEB" opacity="1.000000" stroke="none" 
	d="
M815.501404,821.896973 
	C814.979492,820.744751 814.924011,819.599487 814.843079,817.929077 
	C827.175049,817.929077 839.348511,817.887207 851.518799,818.061218 
	C852.087769,818.069397 852.629150,820.003479 853.084595,821.495850 
	C840.646545,821.935242 828.307190,821.919556 815.501404,821.896973 
z"/>
<path fill="#EBEBEB" opacity="1.000000" stroke="none" 
	d="
M133.607544,810.162720 
	C135.088699,814.527039 133.669876,816.077148 128.981995,815.813171 
	C122.433960,815.444397 115.849632,815.720154 108.952057,815.720154 
	C108.952057,813.909058 108.952057,812.289978 109.447449,810.329956 
	C117.831078,810.046936 125.719307,810.104858 133.607544,810.162720 
z"/>
<path fill="#181818" opacity="1.000000" stroke="none" 
	d="
M101.012062,809.605042 
	C88.646904,809.973267 76.288551,809.960205 63.460953,809.932129 
	C62.998703,809.181335 63.005695,808.445557 63.011433,807.341797 
	C75.353691,806.967529 87.697197,806.961243 100.507675,806.945679 
	C100.989380,807.698914 101.004120,808.461304 101.012062,809.605042 
z"/>
<path fill="#181818" opacity="1.000000" stroke="none" 
	d="
M903.266479,819.722473 
	C902.852661,804.914734 902.742554,789.817810 902.827576,774.363525 
	C903.326599,774.571228 903.897949,775.137695 903.895203,775.701233 
	C903.823242,790.278748 903.691467,804.856018 903.266479,819.722473 
z"/>
<path fill="#EBEBEB" opacity="1.000000" stroke="none" 
	d="
M55.195984,812.015869 
	C55.065948,813.153564 54.935913,814.291321 54.772224,815.723450 
	C51.700115,815.723450 48.710201,815.481018 45.775826,815.781311 
	C41.561775,816.212463 40.821739,814.271729 42.366714,810.415833 
	C46.939545,810.075745 50.928757,810.096741 54.917973,810.117798 
	C54.917973,810.117798 54.985863,810.033142 54.963554,810.382080 
	C55.026157,811.159241 55.111073,811.587585 55.195984,812.015869 
z"/>
<path fill="#181818" opacity="1.000000" stroke="none" 
	d="
M133.929916,810.033813 
	C125.719307,810.104858 117.831078,810.046936 109.478531,810.049561 
	C109.020638,809.305542 109.027054,808.500916 109.039230,807.294006 
	C117.723976,806.917236 126.402954,806.942810 135.545746,807.044556 
	C135.423813,808.048767 134.838043,808.976868 133.929916,810.033813 
z"/>
<path fill="#EBEBEB" opacity="1.000000" stroke="none" 
	d="
M27.677235,704.311157 
	C28.341715,709.487427 28.738031,714.906677 28.965551,720.333069 
	C29.111618,723.816711 29.009111,727.310791 29.012085,731.325439 
	C29.006140,731.850586 28.968987,731.816406 28.885807,731.658142 
	C28.506405,731.387756 28.255150,731.452087 28.048862,731.692993 
	C27.811754,722.647766 27.574646,713.602478 27.677235,704.311157 
z"/>
<path fill="#181818" opacity="1.000000" stroke="none" 
	d="
M54.945694,809.711914 
	C50.928757,810.096741 46.939545,810.075745 42.490593,810.083008 
	C41.535912,809.325867 41.040970,808.540527 40.719585,807.440552 
	C45.279202,807.066956 49.665268,807.007874 54.497078,806.906982 
	C54.953022,807.678711 54.963219,808.492371 54.945694,809.711914 
z"/>
<path fill="#181818" opacity="1.000000" stroke="none" 
	d="
M106.329826,804.660889 
	C106.393379,808.141235 106.393379,811.613892 106.393379,815.054138 
	C102.171745,814.231140 101.831635,810.833435 105.860313,804.710815 
	C106.239311,804.528015 106.266273,804.653198 106.329826,804.660889 
z"/>
<path fill="#181818" opacity="1.000000" stroke="none" 
	d="
M55.552956,812.017456 
	C55.111073,811.587585 55.026157,811.159241 54.913864,810.403809 
	C56.215336,809.523499 57.544186,808.970276 59.760323,808.047729 
	C60.247540,810.225891 60.707249,812.281128 61.459538,815.644409 
	C58.706749,813.846130 57.308334,812.932617 55.552956,812.017456 
z"/>
<path fill="#181818" opacity="1.000000" stroke="none" 
	d="
M57.260910,818.922485 
	C58.219715,818.198975 59.262894,817.827148 60.306072,817.455383 
	C60.415039,818.130188 60.524002,818.804932 60.632969,819.479736 
	C59.537075,819.411255 58.441181,819.342773 57.260910,818.922485 
z"/>
<path fill="#181818" opacity="1.000000" stroke="none" 
	d="
M105.162392,817.175537 
	C105.761391,817.985168 105.998428,818.830994 106.235466,819.676758 
	C105.333450,819.586853 104.431435,819.496948 103.529419,819.407104 
	C103.953087,818.675293 104.376762,817.943481 105.162392,817.175537 
z"/>
<path fill="#181818" opacity="1.000000" stroke="none" 
	d="
M57.101406,822.659241 
	C57.956196,822.335083 59.007816,822.220093 60.059437,822.105042 
	C60.072525,822.359497 60.085613,822.613953 60.098701,822.868408 
	C59.165215,822.868408 58.231728,822.868408 57.101406,822.659241 
z"/>
<path fill="#181818" opacity="1.000000" stroke="none" 
	d="
M105.801956,822.976074 
	C105.027832,822.911011 104.555107,822.839172 104.082390,822.767334 
	C104.072983,822.604919 104.063576,822.442566 104.054169,822.280212 
	C104.992584,822.280212 105.931091,822.276001 106.869141,822.294434 
	C106.910461,822.295166 106.991493,822.595642 106.980461,822.600891 
	C106.694038,822.736267 106.397865,822.851074 105.801956,822.976074 
z"/>
<path fill="#181818" opacity="1.000000" stroke="none" 
	d="
M59.066856,806.838379 
	C58.812820,806.288208 58.841526,805.811340 58.870232,805.334473 
	C59.283848,805.491821 59.697464,805.649170 60.111084,805.806519 
	C59.857254,806.174927 59.603424,806.543274 59.066856,806.838379 
z"/>
<path fill="#181818" opacity="1.000000" stroke="none" 
	d="
M38.553154,808.809937 
	C38.365997,808.372559 38.371284,807.768555 38.694939,807.161377 
	C38.924068,807.653137 38.834835,808.148254 38.553154,808.809937 
z"/>
<path fill="#FAFAFA" opacity="1.000000" stroke="none" 
	d="
M28.185646,731.810181 
	C28.255150,731.452087 28.506405,731.387756 28.910263,731.675232 
	C29.017902,731.850586 28.679611,731.974487 28.679611,731.974487 
	C28.679611,731.974487 28.322430,731.927429 28.185646,731.810181 
z"/>
<path fill="#181818" opacity="1.000000" stroke="none" 
	d="
M442.000000,808.966492 
	C465.614624,808.966492 488.729248,808.966492 511.992157,808.966492 
	C511.992157,811.702454 511.992157,813.992981 511.992157,816.579956 
	C479.255066,816.579956 446.533325,816.579956 413.485474,816.579956 
	C413.485474,814.163757 413.485474,811.783508 413.485474,808.966492 
	C422.918213,808.966492 432.209106,808.966492 442.000000,808.966492 
M446.500000,814.010681 
	C467.158386,814.010681 487.816803,814.010681 508.475189,814.010681 
	C508.464539,813.431335 508.453857,812.852051 508.443207,812.272705 
	C478.044556,812.272705 447.645935,812.272705 417.247314,812.272705 
	C417.235962,812.852051 417.224609,813.431335 417.213257,814.010681 
	C426.642181,814.010681 436.071075,814.010681 446.500000,814.010681 
z"/>
<path fill="#F3F3F3" opacity="1.000000" stroke="none" 
	d="
M195.000000,182.000000 
	C429.763000,182.000000 664.026001,182.000000 898.288940,182.000000 
	C898.289062,182.433334 898.289185,182.866684 898.289307,183.300018 
	C609.430359,183.300018 320.571442,183.300018 31.712492,183.300018 
	C31.709621,182.866684 31.706753,182.433334 31.703882,182.000000 
	C85.969254,182.000000 140.234634,182.000000 195.000000,182.000000 
z"/>
<path fill="#EBEBEB" opacity="1.000000" stroke="none" 
	d="
M827.019287,815.671326 
	C822.884216,815.671326 819.244995,815.671326 815.084778,815.671326 
	C814.993835,813.845276 814.909363,812.149353 814.813049,810.215515 
	C827.715759,810.215515 840.269287,810.215515 853.103027,810.215515 
	C853.103027,811.982239 853.103027,813.715942 853.103027,815.671326 
	C844.379822,815.671326 835.947449,815.671326 827.019287,815.671326 
z"/>
<path fill="#EBEBEB" opacity="1.000000" stroke="none" 
	d="
M878.877625,815.671692 
	C872.793701,815.671570 867.195129,815.671570 861.261047,815.671570 
	C861.144531,813.842468 861.043884,812.263000 860.900391,810.010498 
	C868.704407,810.010498 876.244995,809.919556 883.776855,810.134460 
	C884.643921,810.159180 886.118103,811.887207 886.120544,812.828552 
	C886.122986,813.786438 884.822937,815.215759 883.786499,815.590576 
	C882.473938,816.065308 880.851746,815.683960 878.877625,815.671692 
z"/>
<path fill="#EBEBEB" opacity="1.000000" stroke="none" 
	d="
M801.916382,815.671692 
	C800.301941,815.673523 799.139160,815.566650 798.002869,815.694824 
	C793.820068,816.166565 793.184326,814.099243 794.366272,810.357544 
	C798.337830,810.357544 802.369019,810.357544 806.755371,810.357544 
	C806.755371,811.888000 806.755371,813.572388 806.755371,815.670837 
	C805.258179,815.670837 803.819153,815.670837 801.916382,815.671692 
z"/>
<path fill="#D5D5D5" opacity="1.000000" stroke="none" 
	d="
M446.000000,814.010681 
	C436.071075,814.010681 426.642181,814.010681 417.213257,814.010681 
	C417.224609,813.431335 417.235962,812.852051 417.247314,812.272705 
	C447.645935,812.272705 478.044556,812.272705 508.443207,812.272705 
	C508.453857,812.852051 508.464539,813.431335 508.475189,814.010681 
	C487.816803,814.010681 467.158386,814.010681 446.000000,814.010681 
z"/>
</svg>