<svg version="1.1" id="Layer_1" xmlns="http://www.w3.org/2000/svg" xmlns:xlink="http://www.w3.org/1999/xlink" x="0px" y="0px"
	 width="100%" viewBox="0 0 649 748" enable-background="new 0 0 649 748" xml:space="preserve">
<path fill="#090909" opacity="1.000000" stroke="none" 
	d="
M24.999996,749.000000 
	C23.285604,749.000000 21.571207,749.000000 19.336634,748.538940 
	C18.848063,738.247681 18.907066,728.417419 18.907259,718.587219 
	C18.911804,485.615112 18.909464,252.643005 18.922035,19.670902 
	C18.922112,18.224035 19.113314,16.777180 19.236828,15.024342 
	C21.004070,15.024342 22.469624,15.024341 23.935179,15.024343 
	C224.078415,15.024533 424.221649,15.024463 624.364868,15.027878 
	C626.863770,15.027921 629.362610,15.072556 631.933594,15.431046 
	C632.115479,16.207619 632.225281,16.649521 632.229065,17.543636 
	C632.112793,26.994646 632.093689,35.993439 632.093567,44.992233 
	C632.089478,270.147858 632.085388,495.303497 632.093201,720.459106 
	C632.093506,729.286499 632.212524,738.113831 632.177979,747.275269 
	C632.053101,748.072937 632.026550,748.536438 632.000000,749.000000 
	C631.250000,749.000000 630.500000,749.000000 629.075195,748.709839 
	C626.923462,748.281311 625.446533,748.021912 623.969604,748.021790 
	C426.045013,748.003784 228.120392,748.002197 30.195797,748.045898 
	C28.463791,748.046265 26.731924,748.668213 24.999996,749.000000 
M81.997520,739.999695 
	C81.997520,739.999695 81.961830,740.054810 81.999603,739.435547 
	C82.082771,739.031799 82.165939,738.627991 82.915382,738.179077 
	C84.640945,738.096436 86.366508,738.013794 87.997292,737.979736 
	C87.997292,737.979736 88.072220,737.903809 88.007454,738.630615 
	C88.019165,739.116882 88.030876,739.603210 87.946953,740.915283 
	C87.717064,745.237549 91.043060,743.519287 92.861137,743.520935 
	C183.138016,743.603333 273.414978,743.596313 363.691925,743.597595 
	C424.820404,743.598450 485.948944,743.609680 547.077332,743.530945 
	C548.774109,743.528748 550.469604,742.551453 552.971985,742.014893 
	C554.584534,742.020447 556.197021,742.026062 558.055725,742.828674 
	C567.561035,743.092590 577.066040,743.406433 586.572571,743.467712 
	C587.030884,743.470764 587.503479,741.249573 587.985657,739.338257 
	C587.972290,738.855042 587.958923,738.371887 588.041199,737.093811 
	C588.010620,735.763245 587.980042,734.432739 588.002930,732.302368 
	C587.985596,731.500977 587.968323,730.699524 588.038940,729.074158 
	C589.332092,728.388367 590.588928,727.316711 591.934753,727.190002 
	C592.548096,727.132202 593.337219,728.940796 594.032776,730.703125 
	C594.038696,731.502808 594.044617,732.302490 593.957153,733.896118 
	C593.991089,735.224731 594.025085,736.553406 593.999634,738.616028 
	C594.013794,739.106750 594.027893,739.597534 593.942139,740.913696 
	C594.583191,741.803894 595.211609,743.458679 595.867188,743.469482 
	C605.826721,743.634460 615.789856,743.584167 626.033020,743.584167 
	C626.033020,728.533203 626.033020,713.974121 626.033020,699.340088 
	C425.524445,699.340088 225.169342,699.340088 24.947361,699.340088 
	C24.947361,714.160339 24.947361,728.614685 24.947361,743.579285 
	C31.663296,743.579285 38.124855,743.615784 44.584167,743.512085 
	C45.119492,743.503540 45.639576,742.545776 46.972775,741.999573 
	C48.586063,742.010132 50.199356,742.020691 52.058399,742.828918 
	C52.267254,743.068359 52.474606,743.515564 52.685211,743.517090 
	C61.842556,743.583557 71.000458,743.644714 80.157219,743.572449 
	C80.838219,743.567139 81.511391,742.569580 82.764671,741.901428 
	C82.491287,741.280457 82.217903,740.659485 81.997520,739.999695 
M626.256775,69.354103 
	C626.165405,68.902924 626.074036,68.451752 626.263245,67.176567 
	C626.171326,65.450882 626.079468,63.725201 626.265137,61.099506 
	C626.177979,55.399757 626.090759,49.700012 626.114136,43.412365 
	C625.747070,43.334385 625.380005,43.256405 624.088806,43.001122 
	C425.884064,42.996933 227.679337,42.992424 29.474613,42.996376 
	C28.314484,42.996399 27.154360,43.114784 25.399870,43.097462 
	C25.264778,43.398403 25.129684,43.699341 24.730009,44.903679 
	C24.824251,50.602291 24.918493,56.300907 24.730322,62.822773 
	C24.827240,64.548752 24.924158,66.274727 24.750959,68.649963 
	C24.842119,69.100357 24.933281,69.550758 24.913181,70.571365 
	C25.269592,70.644966 25.626005,70.718567 26.888111,70.980362 
	C225.102509,70.987473 423.316925,70.994942 621.531311,70.993164 
	C622.690857,70.993156 623.850342,70.863808 625.586548,70.880493 
	C625.717346,70.587517 625.848145,70.294540 626.256775,69.354103 
M24.746220,34.649914 
	C24.822405,35.100155 24.898590,35.550400 24.873405,36.601460 
	C25.247217,36.679993 25.621029,36.758526 26.902077,37.003952 
	C225.106796,37.008671 423.311523,37.013695 621.516235,37.010635 
	C622.677002,37.010616 623.837830,36.897442 625.603577,36.923203 
	C625.744141,36.615463 625.884705,36.307724 626.260193,35.345139 
	C626.176758,34.896465 626.093323,34.447792 626.300293,33.352573 
	C626.200745,32.901772 626.101257,32.450966 626.263977,31.101809 
	C626.263977,27.828749 626.263977,24.555687 626.263977,21.213156 
	C425.435486,21.213156 225.227203,21.213156 25.006516,21.213156 
	C25.006516,25.060965 25.006516,28.530195 24.711884,32.643089 
	C24.804972,33.095131 24.898060,33.547176 24.746220,34.649914 
M626.266418,162.971603 
	C626.175476,162.314301 626.084534,161.657013 626.267029,160.098648 
	C626.179260,154.399124 626.091492,148.699585 626.113403,142.410690 
	C625.746033,142.331833 625.378723,142.252975 624.087402,141.997330 
	C425.883820,141.992508 227.680252,141.987335 29.476669,141.990677 
	C28.316301,141.990692 27.155933,142.109451 25.398478,142.089447 
	C25.262379,142.393097 25.126280,142.696747 24.728386,143.904495 
	C24.822773,149.602844 24.917158,155.301178 24.730968,161.647614 
	C24.825611,162.098602 24.920254,162.549591 24.739637,163.803558 
	C24.830544,165.202209 24.921452,166.600845 24.787861,168.873810 
	C26.754818,169.251328 28.721691,169.959015 30.688744,169.959503 
	C227.417709,170.009735 424.146698,170.006622 620.875671,170.003723 
	C622.374146,170.003693 623.888245,170.068192 625.357971,169.851166 
	C625.655701,169.807205 625.785583,168.626511 626.250244,167.077271 
	C626.162964,165.852036 626.075684,164.626785 626.266418,162.971603 
M24.745461,131.770798 
	C24.831163,132.847229 24.916866,133.923645 24.894114,135.583313 
	C25.257860,135.658722 25.621609,135.734146 26.909548,135.987320 
	C226.635910,135.987320 426.362274,135.987320 626.418945,135.987320 
	C626.238098,133.937866 626.108459,132.469269 626.273499,130.279526 
	C626.178955,129.519531 626.084351,128.759537 626.260376,127.103661 
	C626.175293,121.735840 626.090210,116.368019 626.114990,110.410156 
	C625.747131,110.331436 625.379211,110.252716 624.094482,109.997185 
	C425.888519,109.992271 227.682571,109.987038 29.476614,109.990303 
	C28.316267,109.990326 27.155920,110.109276 25.398176,110.088509 
	C25.262203,110.392471 25.126228,110.696442 24.729393,111.898735 
	C24.823338,117.265656 24.917282,122.632584 24.724586,128.722961 
	C24.824989,129.482254 24.925390,130.241547 24.745461,131.770798 
M625.604126,331.920746 
	C625.744568,331.613708 625.885071,331.306671 626.269775,330.220581 
	C626.175903,329.147308 626.082031,328.074066 626.268921,326.353668 
	C626.176636,325.902252 626.084290,325.450806 626.267273,324.098785 
	C626.185486,318.399017 626.103760,312.699249 626.124512,306.400055 
	C625.751648,306.321472 625.378784,306.242859 624.081116,305.996979 
	C425.881805,305.992432 227.682495,305.987579 29.483196,305.990784 
	C28.322327,305.990814 27.161457,306.104218 25.396294,306.077820 
	C25.256254,306.385223 25.116215,306.692627 24.727547,307.907379 
	C24.823795,313.604523 24.920044,319.301636 24.740627,325.648041 
	C24.833891,326.099152 24.927155,326.550262 24.749998,327.771820 
	C24.824078,328.847931 24.898155,329.924072 24.873253,331.599609 
	C25.246260,331.678101 25.619267,331.756592 26.899677,332.003876 
	C225.106110,332.008850 423.312561,332.014130 621.518982,332.011261 
	C622.679688,332.011230 623.840393,331.897064 625.604126,331.920746 
M626.272827,195.350815 
	C626.176086,194.900085 626.079346,194.449341 626.257080,193.103851 
	C626.179321,187.735748 626.101562,182.367661 626.125061,176.400162 
	C625.752014,176.321625 625.379028,176.243103 624.088440,175.995865 
	C425.886566,175.991135 227.684723,175.986069 29.482864,175.989166 
	C28.322081,175.989182 27.161295,176.103104 25.396173,176.077423 
	C25.256195,176.384964 25.116215,176.692520 24.727350,177.901306 
	C24.827461,183.266846 24.927572,188.632401 24.738743,194.643082 
	C24.829123,195.095642 24.919504,195.548203 24.744913,196.804962 
	C24.821333,198.203445 24.897753,199.601929 24.874151,201.598999 
	C25.247200,201.676270 25.620247,201.753555 26.900969,201.996674 
	C225.106445,202.001648 423.311920,202.006927 621.517395,202.004120 
	C622.678223,202.004105 623.838989,201.890869 625.602600,201.915436 
	C625.742737,201.610245 625.882874,201.305054 626.266541,200.189163 
	C626.175781,198.792923 626.085022,197.396667 626.272827,195.350815 
M626.272522,395.177643 
	C626.177368,393.451569 626.082275,391.725494 626.265930,389.099731 
	C626.180359,383.399872 626.094727,377.700043 626.117615,371.408661 
	C625.748840,371.330139 625.380127,371.251648 624.087219,370.997314 
	C425.883545,370.992950 227.679855,370.988251 29.476181,370.992035 
	C28.315920,370.992035 27.155663,371.110840 25.399048,371.092316 
	C25.263220,371.394989 25.127392,371.697662 24.729460,372.904388 
	C24.825386,378.602692 24.921310,384.300964 24.735195,390.822693 
	C24.828318,392.548706 24.921442,394.274689 24.744015,396.868347 
	C25.324558,400.768250 28.393772,398.900085 30.207211,398.900970 
	C227.039780,398.997040 423.872406,398.991058 620.705017,398.989044 
	C622.038025,398.989044 623.521484,399.311035 624.649658,398.823273 
	C625.368408,398.512573 625.560364,396.983429 626.272522,395.177643 
M26.909763,562.974365 
	C226.645370,562.974365 426.380981,562.974365 626.424072,562.974365 
	C626.256592,560.283691 626.123291,558.142029 626.268677,555.352661 
	C626.175964,554.901611 626.083252,554.450500 626.265930,553.101074 
	C626.182373,548.067322 626.098877,543.033630 626.122009,537.404358 
	C625.750916,537.326050 625.379761,537.247681 624.084351,536.996948 
	C425.882812,536.992065 227.681274,536.986816 29.479736,536.989929 
	C28.319174,536.989990 27.158609,537.106445 25.397533,537.083679 
	C25.259869,537.389160 25.122204,537.694702 24.727823,538.903442 
	C24.822079,543.935425 24.916336,548.967407 24.732098,554.647095 
	C24.824694,555.098206 24.917288,555.549316 24.737761,556.826660 
	C24.827862,558.551086 24.917965,560.275574 24.905214,562.577026 
	C25.265553,562.649231 25.625889,562.721375 26.909763,562.974365 
M363.500000,467.980255 
	C250.604492,467.980255 137.708984,467.980255 24.909214,467.980255 
	C24.909214,477.697754 24.909214,486.640472 24.909214,495.630096 
	C225.482941,495.630096 425.833405,495.630096 626.092346,495.630096 
	C626.092346,486.296783 626.092346,477.354462 626.092346,467.980255 
	C538.747742,467.980255 451.623871,467.980255 363.500000,467.980255 
M623.381958,300.001770 
	C624.354736,299.268860 626.155457,298.555634 626.173462,297.800018 
	C626.374329,289.351562 626.300232,280.896545 626.300232,272.324524 
	C425.550507,272.324524 225.186844,272.324524 24.887989,272.324524 
	C24.887989,281.623749 24.887989,290.575439 24.887989,300.003174 
	C224.192001,300.003174 423.294434,300.003174 623.381958,300.001770 
M618.427795,629.892456 
	C620.876465,629.892456 623.325134,629.892456 625.990784,629.892456 
	C625.990784,620.306641 625.990784,611.276855 625.990784,602.243530 
	C425.419434,602.243530 225.188126,602.243530 25.139030,602.243530 
	C25.139030,611.567200 25.139030,620.611633 25.139030,629.892395 
	C222.887924,629.892395 420.167511,629.892395 618.427795,629.892456 
M617.467896,529.988159 
	C620.370422,529.988159 623.272888,529.988159 626.070129,529.988159 
	C626.070129,520.581360 626.070129,511.981354 626.070129,503.361450 
	C425.488403,503.361450 225.151428,503.361450 24.935841,503.361450 
	C24.935841,512.352356 24.935841,520.957886 24.935841,529.988159 
	C222.281754,529.988159 419.377502,529.988159 617.467896,529.988159 
M447.500000,265.013733 
	C507.060516,265.013733 566.621033,265.013733 626.081360,265.013733 
	C626.081360,255.949432 626.081360,247.676041 626.081360,239.372589 
	C425.504272,239.372589 225.159317,239.372589 24.918306,239.372589 
	C24.918306,248.041840 24.918306,256.315857 24.918306,265.013733 
	C165.599182,265.013733 306.049591,265.013733 447.500000,265.013733 
M590.500000,365.015533 
	C602.400757,365.015533 614.301514,365.015533 626.083984,365.015533 
	C626.083984,355.942352 626.083984,347.669769 626.083984,339.376556 
	C425.504761,339.376556 225.158798,339.376556 24.918190,339.376556 
	C24.918190,348.049591 24.918190,356.322937 24.918190,365.015533 
	C213.267197,365.015533 401.383606,365.015533 590.500000,365.015533 
M577.500000,404.981415 
	C393.272858,404.981415 209.045685,404.981415 24.901758,404.981415 
	C24.901758,414.006439 24.901758,422.285706 24.901758,430.635986 
	C225.468887,430.635986 425.820740,430.635986 626.098511,430.635986 
	C626.098511,421.977478 626.098511,413.699310 626.098511,404.981415 
	C610.091614,404.981415 594.295776,404.981415 577.500000,404.981415 
M66.500000,76.980835 
	C52.599495,76.980835 38.698986,76.980835 24.917917,76.980835 
	C24.917917,86.049889 24.917917,94.323311 24.917917,102.616287 
	C225.495422,102.616287 425.840393,102.616287 626.082520,102.616287 
	C626.082520,93.941917 626.082520,85.669205 626.082520,76.980835 
	C439.733643,76.980835 253.616821,76.980835 66.500000,76.980835 
M626.314331,572.579224 
	C627.042664,567.460327 623.193359,569.025452 620.810425,569.024841 
	C423.989868,568.976196 227.169281,568.980164 30.348721,568.980347 
	C28.560177,568.980347 26.771635,568.980286 24.980177,568.980286 
	C24.980177,577.903320 24.980177,586.291809 24.980177,594.742371 
	C225.523834,594.742371 425.772552,594.742371 626.314636,594.742371 
	C626.314636,587.506287 626.314636,580.534729 626.314331,572.579224 
M40.502640,635.981750 
	C35.259743,635.981750 30.016848,635.981750 24.961395,635.981750 
	C24.961395,645.036194 24.961395,653.303467 24.961395,661.729431 
	C225.451584,661.729431 425.661499,661.729431 626.048035,661.729431 
	C626.048035,653.106445 626.048035,644.726868 626.048035,635.981323 
	C431.018127,635.981323 236.259750,635.981323 40.502640,635.981750 
M113.500000,667.980713 
	C83.935074,667.980713 54.370152,667.980713 24.920963,667.980713 
	C24.920963,676.712341 24.920963,684.652283 24.920963,692.613220 
	C225.496246,692.613220 425.837311,692.613220 626.079773,692.613220 
	C626.079773,684.270813 626.079773,676.332336 626.079773,667.980713 
	C455.397247,667.980713 284.948608,667.980713 113.500000,667.980713 
M195.500000,233.013611 
	C339.059692,233.013611 482.619385,233.013611 626.095459,233.013611 
	C626.095459,224.635208 626.095459,217.024734 626.095459,209.358215 
	C425.522583,209.358215 225.169189,209.358215 24.906261,209.358215 
	C24.906261,217.351791 24.906261,224.963638 24.906261,233.013611 
	C81.584000,233.013611 138.041992,233.013611 195.500000,233.013611 
M27.602148,437.981750 
	C26.633379,438.709930 24.845980,439.413452 24.823191,440.170135 
	C24.608807,447.287872 24.695835,454.414703 24.695835,461.664490 
	C225.438187,461.664490 425.805573,461.664490 626.119324,461.664490 
	C626.119324,453.690002 626.119324,446.071259 626.119324,437.981049 
	C426.813416,437.981049 227.701782,437.981049 27.602148,437.981750 
z"/>
<path fill="#F8F8F8" opacity="1.000000" stroke="none" 
	d="
M631.861511,15.096363 
	C629.362610,15.072556 626.863770,15.027921 624.364868,15.027878 
	C424.221649,15.024463 224.078415,15.024533 23.935179,15.024343 
	C22.469624,15.024341 21.004070,15.024342 19.236828,15.024342 
	C19.113314,16.777180 18.922112,18.224035 18.922035,19.670902 
	C18.909464,252.643005 18.911804,485.615112 18.907259,718.587219 
	C18.907066,728.417419 18.848063,738.247681 18.908228,748.538940 
	C14.975455,749.000000 10.950912,749.000000 6.223301,748.648376 
	C5.321015,746.486389 4.947415,744.676025 4.947278,742.865662 
	C4.928820,498.105316 4.937160,253.344986 4.954977,8.584649 
	C4.955110,6.759481 5.102983,4.934324 5.634743,3.050293 
	C218.229172,2.991425 430.370728,2.991425 643.334961,2.991425 
	C639.032715,7.530475 635.447083,11.313413 631.861511,15.096363 
z"/>
<path fill="#CCCCCC" opacity="1.000000" stroke="none" 
	d="
M632.466125,749.000000 
	C632.026550,748.536438 632.053101,748.072937 632.623779,747.299683 
	C635.499329,746.992920 637.858582,746.766907 640.156250,747.046875 
	C644.854553,747.619446 646.076843,745.667786 646.075012,741.094788 
	C645.976990,495.751099 645.988892,250.407333 646.004761,4.806011 
	C646.634460,4.340334 647.248779,4.132214 647.901001,4.393880 
	C647.963135,41.856781 648.007080,78.849892 648.008301,115.843010 
	C648.015076,323.639832 648.016174,531.436707 647.969482,739.233521 
	C647.968750,742.489075 647.337158,745.744507 647.000000,749.000000 
	C642.310730,749.000000 637.621521,749.000000 632.466125,749.000000 
z"/>
<path fill="#FFFFFF" opacity="1.000000" stroke="none" 
	d="
M647.500000,749.000000 
	C647.337158,745.744507 647.968750,742.489075 647.969482,739.233521 
	C648.016174,531.436707 648.015076,323.639832 648.008301,115.843010 
	C648.007080,78.849892 647.963135,41.856781 647.927368,4.081194 
	C647.277222,2.532483 646.638611,1.766244 646.000000,1.000003 
	C647.333313,1.000000 648.666687,1.000000 650.000000,1.000000 
	C650.000000,248.833328 650.005249,496.666656 649.858643,744.499939 
	C649.857849,745.789062 652.328430,749.127441 647.500000,749.000000 
z"/>
<path fill="#656565" opacity="1.000000" stroke="none" 
	d="
M5.181870,3.109162 
	C5.102983,4.934324 4.955110,6.759481 4.954977,8.584649 
	C4.937160,253.344986 4.928820,498.105316 4.947278,742.865662 
	C4.947415,744.676025 5.321015,746.486389 5.760118,748.648376 
	C5.250000,749.000000 4.500000,749.000000 3.355113,748.540588 
	C2.947771,501.550629 2.935083,255.020111 2.926072,8.489569 
	C2.925981,5.993047 2.974287,3.496523 3.000000,1.000000 
	C3.444444,1.000000 3.888889,1.000000 4.708402,1.351165 
	C5.116271,2.171274 5.149071,2.640218 5.181870,3.109162 
z"/>
<path fill="#FFFFFF" opacity="1.000000" stroke="none" 
	d="
M2.500000,1.000000 
	C2.974287,3.496523 2.925981,5.993047 2.926072,8.489569 
	C2.935083,255.020111 2.947771,501.550629 2.980105,748.540588 
	C2.333318,748.666687 1.216348,748.452026 1.090952,747.976013 
	C0.803547,746.885071 1.000000,745.666687 1.000000,744.500000 
	C1.000000,498.166656 0.998216,251.833328 1.041284,5.500007 
	C1.041546,3.999949 1.666667,2.500000 2.500000,1.000000 
z"/>
<path fill="#BDBDBD" opacity="1.000000" stroke="none" 
	d="
M5.634743,3.050293 
	C5.149071,2.640218 5.116271,2.171274 5.041736,1.351165 
	C218.354233,1.000000 431.708466,1.000000 645.531372,1.000003 
	C646.638611,1.766244 647.277222,2.532483 647.889465,3.611408 
	C647.248779,4.132214 646.634460,4.340334 645.699463,4.929120 
	C641.030823,9.236995 636.682983,13.164204 632.335083,17.091419 
	C632.225281,16.649521 632.115479,16.207619 631.933594,15.431034 
	C635.447083,11.313413 639.032715,7.530475 643.334961,2.991425 
	C430.370728,2.991425 218.229172,2.991425 5.634743,3.050293 
z"/>
<path fill="#0E0E0E" opacity="1.000000" stroke="none" 
	d="
M25.468655,749.000000 
	C26.731924,748.668213 28.463791,748.046265 30.195797,748.045898 
	C228.120392,748.002197 426.045013,748.003784 623.969604,748.021790 
	C625.446533,748.021912 626.923462,748.281311 628.700195,748.709839 
	C427.979095,749.000000 226.958206,749.000000 25.468655,749.000000 
z"/>
<path fill="#FCFCFC" opacity="1.000000" stroke="none" 
	d="
M594.046631,729.902832 
	C593.337219,728.940796 592.548096,727.132202 591.934753,727.190002 
	C590.588928,727.316711 589.332092,728.388367 587.531006,729.526367 
	C578.857788,729.981934 570.691711,730.049133 562.528015,729.938538 
	C560.733032,729.914307 557.968994,731.298706 557.611084,727.580444 
	C557.591736,727.379761 552.499084,727.271118 552.460083,727.528076 
	C551.877563,731.369080 549.002563,729.781128 547.061523,729.936157 
	C544.468262,730.143311 541.846069,729.987366 539.239075,729.987366 
	C539.239075,733.611389 539.239075,736.682556 539.239075,740.076660 
	C543.661499,740.076660 547.801941,740.076660 551.966370,740.040894 
	C551.990295,740.005127 551.921753,740.056946 551.955200,740.387939 
	C552.047729,741.155579 552.106689,741.592163 552.165649,742.028809 
	C550.469604,742.551453 548.774109,743.528748 547.077332,743.530945 
	C485.948944,743.609680 424.820404,743.598450 363.691925,743.597595 
	C273.414978,743.596313 183.138016,743.603333 92.861137,743.520935 
	C91.043060,743.519287 87.717064,745.237549 88.459534,740.467712 
	C95.892151,740.020142 102.812202,740.020142 109.785278,740.020142 
	C109.785278,736.435364 109.785278,733.373718 109.785278,729.988464 
	C105.570992,729.988464 101.571800,730.357605 97.676559,729.879578 
	C94.123383,729.443604 89.571396,732.400696 87.037910,727.130310 
	C86.776718,726.586914 82.692589,726.935120 82.570473,727.420288 
	C81.565552,731.413086 78.510948,729.868958 76.283981,729.928894 
	C69.977875,730.098755 63.660534,730.109680 57.355667,729.918213 
	C55.318867,729.856323 52.265591,731.527771 51.498791,727.504089 
	C51.440563,727.198608 46.385319,727.381531 46.363808,727.601990 
	C46.000191,731.328369 43.235905,729.808716 41.454468,729.936646 
	C38.709194,730.133911 35.939308,729.988586 33.253937,729.988586 
	C33.253937,733.658752 33.253937,736.723633 33.253937,740.076721 
	C37.685043,740.076721 41.814430,740.076721 45.969414,740.039917 
	C45.995010,740.003052 45.922886,740.056519 45.954922,740.387817 
	C46.046879,741.155701 46.106800,741.592346 46.166733,742.028992 
	C45.639576,742.545776 45.119492,743.503540 44.584167,743.512085 
	C38.124855,743.615784 31.663296,743.579285 24.947361,743.579285 
	C24.947361,728.614685 24.947361,714.160339 24.947361,699.340088 
	C225.169342,699.340088 425.524445,699.340088 626.033020,699.340088 
	C626.033020,713.974121 626.033020,728.533203 626.033020,743.584167 
	C615.789856,743.584167 605.826721,743.634460 595.867188,743.469482 
	C595.211609,743.458679 594.583191,741.803894 594.457031,740.467773 
	C601.910645,740.021912 608.849426,740.021912 615.753174,740.021912 
	C615.753174,736.379395 615.753174,733.310242 615.753174,729.902832 
	C608.321655,729.902832 601.184143,729.902832 594.046631,729.902832 
M316.500000,731.953796 
	C306.386627,731.953796 296.273254,731.953796 286.390137,731.953796 
	C286.390137,734.490051 286.390137,736.606384 286.390137,739.048950 
	C287.528778,739.048950 288.841766,739.049011 290.154785,739.048950 
	C312.123077,739.048279 334.094604,738.844055 356.057434,739.189819 
	C361.566986,739.276489 362.718231,736.740234 363.019897,731.953796 
	C347.735748,731.953796 332.617889,731.953796 316.500000,731.953796 
z"/>
<path fill="#FEFEFE" opacity="1.000000" stroke="none" 
	d="
M364.000000,467.980255 
	C451.623871,467.980255 538.747742,467.980255 626.092346,467.980255 
	C626.092346,477.354462 626.092346,486.296783 626.092346,495.630096 
	C425.833405,495.630096 225.482941,495.630096 24.909214,495.630096 
	C24.909214,486.640472 24.909214,477.697754 24.909214,467.980255 
	C137.708984,467.980255 250.604492,467.980255 364.000000,467.980255 
z"/>
<path fill="#FEFEFE" opacity="1.000000" stroke="none" 
	d="
M622.889404,300.002472 
	C423.294434,300.003174 224.192001,300.003174 24.887989,300.003174 
	C24.887989,290.575439 24.887989,281.623749 24.887989,272.324524 
	C225.186844,272.324524 425.550507,272.324524 626.300232,272.324524 
	C626.300232,280.896545 626.374329,289.351562 626.173462,297.800018 
	C626.155457,298.555634 624.354736,299.268860 622.889404,300.002472 
z"/>
<path fill="#FAFAFA" opacity="1.000000" stroke="none" 
	d="
M617.937439,629.892456 
	C420.167511,629.892395 222.887924,629.892395 25.139030,629.892395 
	C25.139030,620.611633 25.139030,611.567200 25.139030,602.243530 
	C225.188126,602.243530 425.419434,602.243530 625.990784,602.243530 
	C625.990784,611.276855 625.990784,620.306641 625.990784,629.892456 
	C623.325134,629.892456 620.876465,629.892456 617.937439,629.892456 
z"/>
<path fill="#FEFEFE" opacity="1.000000" stroke="none" 
	d="
M616.970581,529.988159 
	C419.377502,529.988159 222.281754,529.988159 24.935841,529.988159 
	C24.935841,520.957886 24.935841,512.352356 24.935841,503.361450 
	C225.151428,503.361450 425.488403,503.361450 626.070129,503.361450 
	C626.070129,511.981354 626.070129,520.581360 626.070129,529.988159 
	C623.272888,529.988159 620.370422,529.988159 616.970581,529.988159 
z"/>
<path fill="#FEFEFE" opacity="1.000000" stroke="none" 
	d="
M447.000000,265.013733 
	C306.049591,265.013733 165.599182,265.013733 24.918306,265.013733 
	C24.918306,256.315857 24.918306,248.041840 24.918306,239.372589 
	C225.159317,239.372589 425.504272,239.372589 626.081360,239.372589 
	C626.081360,247.676041 626.081360,255.949432 626.081360,265.013733 
	C566.621033,265.013733 507.060516,265.013733 447.000000,265.013733 
z"/>
<path fill="#FEFEFE" opacity="1.000000" stroke="none" 
	d="
M590.000000,365.015533 
	C401.383606,365.015533 213.267197,365.015533 24.918190,365.015533 
	C24.918190,356.322937 24.918190,348.049591 24.918190,339.376556 
	C225.158798,339.376556 425.504761,339.376556 626.083984,339.376556 
	C626.083984,347.669769 626.083984,355.942352 626.083984,365.015533 
	C614.301514,365.015533 602.400757,365.015533 590.000000,365.015533 
z"/>
<path fill="#FEFEFE" opacity="1.000000" stroke="none" 
	d="
M578.000000,404.981415 
	C594.295776,404.981415 610.091614,404.981415 626.098511,404.981415 
	C626.098511,413.699310 626.098511,421.977478 626.098511,430.635986 
	C425.820740,430.635986 225.468887,430.635986 24.901758,430.635986 
	C24.901758,422.285706 24.901758,414.006439 24.901758,404.981415 
	C209.045685,404.981415 393.272858,404.981415 578.000000,404.981415 
z"/>
<path fill="#FEFEFE" opacity="1.000000" stroke="none" 
	d="
M67.000000,76.980835 
	C253.616821,76.980835 439.733643,76.980835 626.082520,76.980835 
	C626.082520,85.669205 626.082520,93.941917 626.082520,102.616287 
	C425.840393,102.616287 225.495422,102.616287 24.917917,102.616287 
	C24.917917,94.323311 24.917917,86.049889 24.917917,76.980835 
	C38.698986,76.980835 52.599495,76.980835 67.000000,76.980835 
z"/>
<path fill="#FEFEFE" opacity="1.000000" stroke="none" 
	d="
M626.314453,573.071228 
	C626.314636,580.534729 626.314636,587.506287 626.314636,594.742371 
	C425.772552,594.742371 225.523834,594.742371 24.980177,594.742371 
	C24.980177,586.291809 24.980177,577.903320 24.980177,568.980286 
	C26.771635,568.980286 28.560177,568.980347 30.348721,568.980347 
	C227.169281,568.980164 423.989868,568.976196 620.810425,569.024841 
	C623.193359,569.025452 627.042664,567.460327 626.314453,573.071228 
z"/>
<path fill="#FDFDFD" opacity="1.000000" stroke="none" 
	d="
M41.002018,635.981567 
	C236.259750,635.981323 431.018127,635.981323 626.048035,635.981323 
	C626.048035,644.726868 626.048035,653.106445 626.048035,661.729431 
	C425.661499,661.729431 225.451584,661.729431 24.961395,661.729431 
	C24.961395,653.303467 24.961395,645.036194 24.961395,635.981750 
	C30.016848,635.981750 35.259743,635.981750 41.002018,635.981567 
z"/>
<path fill="#FEFEFE" opacity="1.000000" stroke="none" 
	d="
M114.000000,667.980713 
	C284.948608,667.980713 455.397247,667.980713 626.079773,667.980713 
	C626.079773,676.332336 626.079773,684.270813 626.079773,692.613220 
	C425.837311,692.613220 225.496246,692.613220 24.920963,692.613220 
	C24.920963,684.652283 24.920963,676.712341 24.920963,667.980713 
	C54.370152,667.980713 83.935074,667.980713 114.000000,667.980713 
z"/>
<path fill="#FEFEFE" opacity="1.000000" stroke="none" 
	d="
M195.000000,233.013611 
	C138.041992,233.013611 81.584000,233.013611 24.906261,233.013611 
	C24.906261,224.963638 24.906261,217.351791 24.906261,209.358215 
	C225.169189,209.358215 425.522583,209.358215 626.095459,209.358215 
	C626.095459,217.024734 626.095459,224.635208 626.095459,233.013611 
	C482.619385,233.013611 339.059692,233.013611 195.000000,233.013611 
z"/>
<path fill="#FEFEFE" opacity="1.000000" stroke="none" 
	d="
M28.096142,437.981384 
	C227.701782,437.981049 426.813416,437.981049 626.119324,437.981049 
	C626.119324,446.071259 626.119324,453.690002 626.119324,461.664490 
	C425.805573,461.664490 225.438187,461.664490 24.695835,461.664490 
	C24.695835,454.414703 24.608807,447.287872 24.823191,440.170135 
	C24.845980,439.413452 26.633379,438.709930 28.096142,437.981384 
z"/>
<path fill="#FFFFFF" opacity="1.000000" stroke="none" 
	d="
M25.995565,142.172760 
	C27.155933,142.109451 28.316301,141.990692 29.476669,141.990677 
	C227.680252,141.987335 425.883820,141.992508 624.666992,142.275360 
	C625.447266,142.790039 625.699585,142.938934 626.003723,143.000061 
	C626.091492,148.699585 626.179260,154.399124 625.662048,160.545380 
	C425.041901,160.994583 225.026718,160.997055 25.011545,160.999527 
	C24.917158,155.301178 24.822773,149.602844 25.069500,143.372986 
	C25.673351,142.677856 25.868334,142.454956 25.995565,142.172760 
z"/>
<path fill="#FFFFFF" opacity="1.000000" stroke="none" 
	d="
M626.009155,372.000183 
	C626.094727,377.700043 626.180359,383.399872 625.664917,389.546021 
	C425.048401,389.994629 225.032806,389.996948 25.017237,389.999268 
	C24.921310,384.300964 24.825386,378.602692 25.070312,372.372925 
	C25.673527,371.678223 25.868273,371.455811 25.995405,371.174164 
	C27.155663,371.110840 28.315920,370.992035 29.476181,370.992035 
	C227.679855,370.988251 425.883545,370.992950 624.667847,371.275208 
	C625.450378,371.790009 625.703918,371.939056 626.009155,372.000183 
z"/>
<path fill="#FFFFFF" opacity="1.000000" stroke="none" 
	d="
M25.016293,324.998779 
	C24.920044,319.301636 24.823795,313.604523 25.067879,307.378113 
	C25.674330,306.680267 25.871788,306.452179 26.000587,306.164642 
	C27.161457,306.104218 28.322327,305.990814 29.483196,305.990784 
	C227.682495,305.987579 425.881805,305.992432 624.663696,306.274353 
	C625.448425,306.798767 625.706970,306.948029 626.021973,306.999481 
	C626.103760,312.699249 626.185486,318.399017 625.669067,324.543701 
	C425.052673,324.991974 225.034485,324.995392 25.016293,324.998779 
z"/>
<path fill="#FFFFFF" opacity="1.000000" stroke="none" 
	d="
M25.994232,43.177902 
	C27.154360,43.114784 28.314484,42.996399 29.474613,42.996376 
	C227.679337,42.992424 425.884064,42.996933 624.669006,43.277958 
	C625.450562,43.788231 625.702026,43.936722 626.003601,44.000263 
	C626.090759,49.700012 626.177979,55.399757 625.664673,61.546646 
	C425.047089,61.995697 225.029922,61.997608 25.012737,61.999519 
	C24.918493,56.300907 24.824251,50.602291 25.070532,44.371777 
	C25.672333,43.678146 25.866726,43.457489 25.994232,43.177902 
z"/>
<path fill="#FFFFFF" opacity="1.000000" stroke="none" 
	d="
M25.011225,127.999504 
	C24.917282,122.632584 24.823338,117.265656 25.070072,111.370155 
	C25.673573,110.677963 25.868511,110.455002 25.995573,110.172684 
	C27.155920,110.109276 28.316267,109.990326 29.476614,109.990303 
	C227.682571,109.987038 425.888519,109.992271 624.670715,110.275345 
	C625.447937,110.790199 625.700623,110.939095 626.005127,111.000198 
	C626.090210,116.368019 626.175293,121.735840 625.657104,127.547745 
	C425.039642,127.994385 225.025421,127.996948 25.011225,127.999504 
z"/>
<path fill="#FFFFFF" opacity="1.000000" stroke="none" 
	d="
M25.027683,193.997940 
	C24.927572,188.632401 24.827461,183.266846 25.067852,177.375000 
	C25.674559,176.679916 25.871943,176.451645 26.000511,176.163849 
	C27.161295,176.103104 28.322081,175.989182 29.482864,175.989166 
	C227.684723,175.986069 425.886566,175.991135 624.667419,176.274261 
	C625.448914,176.800110 625.708069,176.949081 626.023804,176.999557 
	C626.101562,182.367661 626.179321,187.735748 625.660156,193.544464 
	C425.051331,193.989380 225.039520,193.993652 25.027683,193.997940 
z"/>
<path fill="#F8F8F8" opacity="1.000000" stroke="none" 
	d="
M632.229065,17.543633 
	C636.682983,13.164204 641.030823,9.236995 645.684082,5.186676 
	C645.988892,250.407333 645.976990,495.751099 646.075012,741.094788 
	C646.076843,745.667786 644.854553,747.619446 640.156250,747.046875 
	C637.858582,746.766907 635.499329,746.992920 632.722107,746.965576 
	C632.212524,738.113831 632.093506,729.286499 632.093201,720.459106 
	C632.085388,495.303497 632.089478,270.147858 632.093567,44.992233 
	C632.093689,35.993439 632.112793,26.994646 632.229065,17.543633 
z"/>
<path fill="#FFFFFF" opacity="1.000000" stroke="none" 
	d="
M25.010592,553.999390 
	C24.916336,548.967407 24.822079,543.935425 25.069237,538.374390 
	C25.675102,537.679321 25.870901,537.453735 25.998047,537.168518 
	C27.158609,537.106445 28.319174,536.989990 29.479736,536.989929 
	C227.681274,536.986816 425.882812,536.992065 624.665527,537.275146 
	C625.448730,537.795532 625.704956,537.944336 626.015381,537.999878 
	C626.098877,543.033630 626.182373,548.067322 625.667725,553.546021 
	C425.049927,553.993774 225.030258,553.996582 25.010592,553.999390 
z"/>
<path fill="#FFFFFF" opacity="1.000000" stroke="none" 
	d="
M25.006516,31.999426 
	C25.006516,28.530195 25.006516,25.060965 25.006516,21.213156 
	C225.227203,21.213156 425.435486,21.213156 626.263977,21.213156 
	C626.263977,24.555687 626.263977,27.828749 625.664062,31.544006 
	C425.044983,31.990610 225.025742,31.995018 25.006516,31.999426 
z"/>
<path fill="#FCFCFC" opacity="1.000000" stroke="none" 
	d="
M625.989990,556.000427 
	C626.123291,558.142029 626.256592,560.283691 626.424072,562.974365 
	C426.380981,562.974365 226.645370,562.974365 26.332432,562.699097 
	C25.555359,562.195740 25.306347,562.054443 25.008066,562.000000 
	C24.917965,560.275574 24.827862,558.551086 25.334221,556.416931 
	C225.950455,556.004944 425.970215,556.002686 625.989990,556.000427 
z"/>
<path fill="#F8F8F8" opacity="1.000000" stroke="none" 
	d="
M24.871529,62.411148 
	C225.029922,61.997608 425.047089,61.995697 625.525940,61.996651 
	C626.079468,63.725201 626.171326,65.450882 625.664795,67.590576 
	C425.051208,68.003296 225.036148,68.001999 25.021076,68.000702 
	C24.924158,66.274727 24.827240,64.548752 24.871529,62.411148 
z"/>
<path fill="#F6F6F6" opacity="1.000000" stroke="none" 
	d="
M24.876217,390.410980 
	C225.032806,389.996948 425.048401,389.994629 625.525574,389.995880 
	C626.082275,391.725494 626.177368,393.451569 625.662598,395.592896 
	C425.039978,396.005707 225.027267,396.003204 25.014566,396.000702 
	C24.921442,394.274689 24.828318,392.548706 24.876217,390.410980 
z"/>
<path fill="#FEFEFE" opacity="1.000000" stroke="none" 
	d="
M24.974171,201.000412 
	C24.897753,199.601929 24.821333,198.203445 25.337791,196.407623 
	C225.951843,196.006989 425.973022,196.003708 625.994202,196.000427 
	C626.085022,197.396667 626.175781,198.792923 625.929504,200.669861 
	C625.326904,201.317932 625.129333,201.544571 624.999817,201.830505 
	C623.838989,201.890869 622.678223,202.004105 621.517395,202.004120 
	C423.311920,202.006927 225.106445,202.001648 26.325937,201.720917 
	C25.547541,201.199921 25.288628,201.051666 24.974171,201.000412 
z"/>
<path fill="#FDFDFD" opacity="1.000000" stroke="none" 
	d="
M24.972235,331.000183 
	C24.898155,329.924072 24.824078,328.847931 25.344692,327.391602 
	C225.955627,327.007843 425.971863,327.004303 625.988098,327.000793 
	C626.082031,328.074066 626.175903,329.147308 625.932617,330.687744 
	C625.329407,331.322662 625.131226,331.549744 625.001099,331.836182 
	C623.840393,331.897064 622.679688,332.011230 621.518982,332.011261 
	C423.312561,332.014130 225.106110,332.008850 26.324545,331.726318 
	C25.545095,331.204437 25.286036,331.054901 24.972235,331.000183 
z"/>
<path fill="#FDFDFD" opacity="1.000000" stroke="none" 
	d="
M25.002571,135.000076 
	C24.916866,133.923645 24.831163,132.847229 25.312572,131.391327 
	C31.168674,131.340637 36.457577,131.955078 41.746662,131.956711 
	C206.540451,132.007339 371.334290,132.047318 536.128052,131.953217 
	C566.078491,131.936111 596.028625,131.333176 625.978882,131.000671 
	C626.108459,132.469269 626.238098,133.937866 626.418945,135.987320 
	C426.362274,135.987320 226.635910,135.987320 26.330025,135.712723 
	C25.549738,135.209229 25.300428,135.063202 25.002571,135.000076 
z"/>
<path fill="#FEFEFE" opacity="1.000000" stroke="none" 
	d="
M25.012360,167.999496 
	C24.921452,166.600845 24.830544,165.202209 25.316191,163.406219 
	C29.516954,163.338837 33.141094,163.956665 36.765385,163.957550 
	C228.250702,164.004242 419.736053,164.003235 611.221375,163.973770 
	C616.143738,163.973007 621.066101,163.600632 625.988464,163.401550 
	C626.075684,164.626785 626.162964,165.852036 625.585815,167.521118 
	C424.951752,167.976486 224.982056,167.987991 25.012360,167.999496 
z"/>
<path fill="#F6F6F6" opacity="1.000000" stroke="none" 
	d="
M626.126221,130.640106 
	C596.028625,131.333176 566.078491,131.936111 536.128052,131.953217 
	C371.334290,132.047318 206.540451,132.007339 41.746662,131.956711 
	C36.457577,131.955078 31.168674,131.340637 25.452740,131.006348 
	C24.925390,130.241547 24.824989,129.482254 24.867905,128.361237 
	C225.025421,127.996948 425.039642,127.994385 625.521851,127.995682 
	C626.084351,128.759537 626.178955,129.519531 626.126221,130.640106 
z"/>
<path fill="#FEFEFE" opacity="1.000000" stroke="none" 
	d="
M24.879292,396.434509 
	C225.027267,396.003204 425.039978,396.005707 625.520569,396.004395 
	C625.560364,396.983429 625.368408,398.512573 624.649658,398.823273 
	C623.521484,399.311035 622.038025,398.989044 620.705017,398.989044 
	C423.872406,398.991058 227.039780,398.997040 30.207211,398.900970 
	C28.393772,398.900085 25.324558,400.768250 24.879292,396.434509 
z"/>
<path fill="#FEFEFE" opacity="1.000000" stroke="none" 
	d="
M624.998596,36.837112 
	C623.837830,36.897442 622.677002,37.010616 621.516235,37.010635 
	C423.311523,37.013695 225.106796,37.008671 26.327663,36.726295 
	C25.550856,36.200104 25.291363,36.050770 24.974773,36.000641 
	C24.898590,35.550400 24.822405,35.100155 25.337912,34.328876 
	C225.956360,34.004936 425.983124,34.002029 626.009888,33.999123 
	C626.093323,34.447792 626.176758,34.896465 625.925903,35.747757 
	C625.325317,36.320019 625.127625,36.548927 624.998596,36.837112 
z"/>
<path fill="#FDFDFD" opacity="1.000000" stroke="none" 
	d="
M24.886017,68.325333 
	C225.036148,68.001999 425.051208,68.003296 625.524475,68.002579 
	C626.074036,68.451752 626.165405,68.902924 625.916992,69.756393 
	C625.322937,70.312614 625.133850,70.524673 625.009888,70.794861 
	C623.850342,70.863808 622.690857,70.993156 621.531311,70.993164 
	C423.316925,70.994942 225.102509,70.987473 26.320520,70.705429 
	C25.556204,70.209160 25.313375,70.066048 25.024441,70.001152 
	C24.933281,69.550758 24.842119,69.100357 24.886017,68.325333 
z"/>
<path fill="#F6F6F6" opacity="1.000000" stroke="none" 
	d="
M626.127441,163.186584 
	C621.066101,163.600632 616.143738,163.973007 611.221375,163.973770 
	C419.736053,164.003235 228.250702,164.004242 36.765385,163.957550 
	C33.141094,163.956665 29.516954,163.338837 25.453819,163.004730 
	C24.920254,162.549591 24.825611,162.098602 24.871258,161.323578 
	C225.026718,160.997055 425.041901,160.994583 625.525330,160.995911 
	C626.084534,161.657013 626.175476,162.314301 626.127441,163.186584 
z"/>
<path fill="#EFEFEF" opacity="1.000000" stroke="none" 
	d="
M626.155090,33.675850 
	C425.983124,34.002029 225.956360,34.004936 25.460375,34.003529 
	C24.898060,33.547176 24.804972,33.095131 24.859200,32.321259 
	C225.025742,31.995018 425.044983,31.990610 625.532959,31.993181 
	C626.101257,32.450966 626.200745,32.901772 626.155090,33.675850 
z"/>
<path fill="#F4F4F4" opacity="1.000000" stroke="none" 
	d="
M626.129333,555.676514 
	C425.970215,556.002686 225.950455,556.004944 25.470282,556.003784 
	C24.917288,555.549316 24.824694,555.098206 24.871346,554.323242 
	C225.030258,553.996582 425.049927,553.993774 625.530029,553.995178 
	C626.083252,554.450500 626.175964,554.901611 626.129333,555.676514 
z"/>
<path fill="#F1F1F1" opacity="1.000000" stroke="none" 
	d="
M626.128540,326.677246 
	C425.971863,327.004303 225.955627,327.007843 25.479904,327.006348 
	C24.927155,326.550262 24.833891,326.099152 24.878460,325.323425 
	C225.034485,324.995392 425.052673,324.991974 625.531433,324.993988 
	C626.084290,325.450806 626.176636,325.902252 626.128540,326.677246 
z"/>
<path fill="#F6F6F6" opacity="1.000000" stroke="none" 
	d="
M24.900110,168.436646 
	C224.982056,167.987991 424.951752,167.976486 625.457153,167.967407 
	C625.785583,168.626511 625.655701,169.807205 625.357971,169.851166 
	C623.888245,170.068192 622.374146,170.003693 620.875671,170.003723 
	C424.146698,170.006622 227.417709,170.009735 30.688744,169.959503 
	C28.721691,169.959015 26.754818,169.251328 24.900110,168.436646 
z"/>
<path fill="#F1F1F1" opacity="1.000000" stroke="none" 
	d="
M626.133545,195.675629 
	C425.973022,196.003708 225.951843,196.006989 25.470276,196.005524 
	C24.919504,195.548203 24.829123,195.095642 24.883213,194.320511 
	C225.039520,193.993652 425.051331,193.989380 625.522888,193.991852 
	C626.079346,194.449341 626.176086,194.900085 626.133545,195.675629 
z"/>
<path fill="#2A2A2A" opacity="1.000000" stroke="none" 
	d="
M45.943817,740.076721 
	C41.814430,740.076721 37.685043,740.076721 33.253937,740.076721 
	C33.253937,736.723633 33.253937,733.658752 33.253937,729.988586 
	C35.939308,729.988586 38.709194,730.133911 41.454468,729.936646 
	C43.235905,729.808716 46.000191,731.328369 46.363808,727.601990 
	C46.385319,727.381531 51.440563,727.198608 51.498791,727.504089 
	C52.265591,731.527771 55.318867,729.856323 57.355667,729.918213 
	C63.660534,730.109680 69.977875,730.098755 76.283981,729.928894 
	C78.510948,729.868958 81.565552,731.413086 82.570473,727.420288 
	C82.692589,726.935120 86.776718,726.586914 87.037910,727.130310 
	C89.571396,732.400696 94.123383,729.443604 97.676559,729.879578 
	C101.571800,730.357605 105.570992,729.988464 109.785278,729.988464 
	C109.785278,733.373718 109.785278,736.435364 109.785278,740.020142 
	C102.812202,740.020142 95.892151,740.020142 88.507355,740.054810 
	C88.030876,739.603210 88.019165,739.116882 88.502533,738.299622 
	C93.829796,737.972229 98.667313,737.837402 103.492493,738.022888 
	C107.396523,738.172974 108.057137,736.561523 106.806770,733.247253 
	C100.472824,733.247253 94.374268,733.247253 88.092072,733.247253 
	C88.092072,734.974670 88.092072,736.452881 88.092072,737.931152 
	C86.366508,738.013794 84.640945,738.096436 82.485481,738.113403 
	C82.055580,738.047668 81.867317,737.869080 81.915695,737.435547 
	C81.898849,735.755920 81.833633,734.509766 81.766907,733.234802 
	C71.682770,733.234802 61.980766,733.234802 52.132137,733.234802 
	C52.132137,734.937622 52.132137,736.403259 52.036407,737.965698 
	C51.940681,738.062500 51.749798,738.256714 51.485294,738.220215 
	C50.937004,738.472168 50.653217,738.760620 50.369408,739.049072 
	C50.834209,739.284485 51.299034,739.519836 51.844990,739.839233 
	C51.926121,739.923218 52.088833,740.090759 52.036366,740.414551 
	C51.926815,741.169373 51.869732,741.600342 51.812649,742.031311 
	C50.199356,742.020691 48.586063,742.010132 46.569748,742.014282 
	C46.106800,741.592346 46.046879,741.155701 46.263763,740.335815 
	C46.871967,739.529663 47.203369,739.106812 47.534775,738.683960 
	C46.993778,738.432617 46.452782,738.181274 45.936436,737.492310 
	C45.902138,735.797119 45.843193,734.539429 45.784801,733.293701 
	C42.310776,733.293701 39.227718,733.293701 36.203941,733.293701 
	C34.913628,736.808228 35.936409,738.259033 39.449650,738.003662 
	C41.600540,737.847351 43.768810,737.930054 45.961403,738.266541 
	C45.976959,739.110657 45.960388,739.593689 45.943817,740.076721 
z"/>
<path fill="#2A2A2A" opacity="1.000000" stroke="none" 
	d="
M551.942383,740.076660 
	C547.801941,740.076660 543.661499,740.076660 539.239075,740.076660 
	C539.239075,736.682556 539.239075,733.611389 539.239075,729.987366 
	C541.846069,729.987366 544.468262,730.143311 547.061523,729.936157 
	C549.002563,729.781128 551.877563,731.369080 552.460083,727.528076 
	C552.499084,727.271118 557.591736,727.379761 557.611084,727.580444 
	C557.968994,731.298706 560.733032,729.914307 562.528015,729.938538 
	C570.691711,730.049133 578.857788,729.981934 587.487061,729.938354 
	C587.968323,730.699524 587.985596,731.500977 587.512817,732.656128 
	C577.444031,733.009888 567.865417,733.009888 558.131592,733.009888 
	C558.131592,734.929932 558.131592,736.396912 558.036865,737.961731 
	C557.942078,738.059631 557.752136,738.255066 557.490540,738.224121 
	C556.948486,738.481323 556.668030,738.769409 556.387573,739.057495 
	C556.846497,739.289978 557.305481,739.522522 557.845459,739.839233 
	C557.926453,739.923462 558.089233,740.091187 558.037964,740.415283 
	C557.927612,741.170105 557.868591,741.600891 557.809570,742.031616 
	C556.197021,742.026062 554.584534,742.020447 552.568848,742.021851 
	C552.106689,741.592163 552.047729,741.155579 552.266602,740.338867 
	C552.878113,739.534668 553.211792,739.110535 553.545410,738.686401 
	C553.000610,738.434875 552.455872,738.183350 551.935608,737.494019 
	C551.960083,735.810303 551.960083,734.564392 551.960083,733.296265 
	C548.377319,733.296265 545.325500,733.296265 542.320923,733.296265 
	C541.087341,736.726196 541.984131,738.252930 545.509460,738.001831 
	C547.640747,737.850037 549.788574,737.930603 551.961914,738.267517 
	C551.977417,739.111084 551.959900,739.593872 551.942383,740.076660 
z"/>
<path fill="#EFEFEF" opacity="1.000000" stroke="none" 
	d="
M558.131592,737.863831 
	C558.131592,736.396912 558.131592,734.929932 558.131592,733.009888 
	C567.865417,733.009888 577.444031,733.009888 587.486023,733.056030 
	C587.980042,734.432739 588.010620,735.763245 587.529785,737.531494 
	C577.389465,737.934082 567.760498,737.898926 558.131592,737.863831 
z"/>
<path fill="#2A2A2A" opacity="1.000000" stroke="none" 
	d="
M594.039673,730.302979 
	C601.184143,729.902832 608.321655,729.902832 615.753174,729.902832 
	C615.753174,733.310242 615.753174,736.379395 615.753174,740.021912 
	C608.849426,740.021912 601.910645,740.021912 594.506958,740.055054 
	C594.027893,739.597534 594.013794,739.106750 594.492126,738.290833 
	C600.149536,737.970398 605.322449,738.126892 610.472961,737.856750 
	C611.551025,737.800110 612.546509,736.170349 613.580078,735.265564 
	C612.566956,734.510010 611.574646,733.137207 610.537170,733.102112 
	C605.047913,732.916687 599.547241,733.067749 594.050537,733.102173 
	C594.044617,732.302490 594.038696,731.502808 594.039673,730.302979 
z"/>
<path fill="#EFEFEF" opacity="1.000000" stroke="none" 
	d="
M51.935524,742.430115 
	C51.869732,741.600342 51.926815,741.169373 52.497181,740.367188 
	C62.660919,740.015625 72.311378,740.035217 81.961830,740.054810 
	C81.961830,740.054810 81.997520,739.999695 82.010223,740.353088 
	C82.078026,741.148743 82.133118,741.591003 82.188202,742.033264 
	C81.511391,742.569580 80.838219,743.567139 80.157219,743.572449 
	C71.000458,743.644714 61.842556,743.583557 52.685211,743.517090 
	C52.474606,743.515564 52.267254,743.068359 51.935524,742.430115 
z"/>
<path fill="#EFEFEF" opacity="1.000000" stroke="none" 
	d="
M557.932617,742.430176 
	C557.868591,741.600891 557.927612,741.170105 558.498657,740.366821 
	C568.663574,740.017517 578.316528,740.040833 587.969360,740.064209 
	C587.503479,741.249573 587.030884,743.470764 586.572571,743.467712 
	C577.066040,743.406433 567.561035,743.092590 557.932617,742.430176 
z"/>
<path fill="#EFEFEF" opacity="1.000000" stroke="none" 
	d="
M594.003845,733.499146 
	C599.547241,733.067749 605.047913,732.916687 610.537170,733.102112 
	C611.574646,733.137207 612.566956,734.510010 613.580078,735.265564 
	C612.546509,736.170349 611.551025,737.800110 610.472961,737.856750 
	C605.322449,738.126892 600.149536,737.970398 594.521851,737.923828 
	C594.025085,736.553406 593.991089,735.224731 594.003845,733.499146 
z"/>
<path fill="#2A2A2A" opacity="1.000000" stroke="none" 
	d="
M587.977539,739.701233 
	C578.316528,740.040833 568.663574,740.017517 558.549927,740.042725 
	C558.089233,740.091187 557.926453,739.923462 557.910645,739.592529 
	C557.847290,738.926086 557.799744,738.590576 557.752136,738.255066 
	C557.752136,738.255066 557.942078,738.059631 558.036865,737.961731 
	C567.760498,737.898926 577.389465,737.934082 587.481934,737.928955 
	C587.958923,738.371887 587.972290,738.855042 587.977539,739.701233 
z"/>
<path fill="#2A2A2A" opacity="1.000000" stroke="none" 
	d="
M81.980713,739.745178 
	C72.311378,740.035217 62.660919,740.015625 52.549648,740.043396 
	C52.088833,740.090759 51.926121,739.923218 51.910522,739.592651 
	C51.846550,738.927002 51.798176,738.591858 51.749798,738.256714 
	C51.749798,738.256714 51.940681,738.062500 52.494217,738.014099 
	C62.654278,737.933472 72.260796,737.901306 81.867317,737.869080 
	C81.867317,737.869080 82.055580,738.047668 82.152344,738.135986 
	C82.165939,738.627991 82.082771,739.031799 81.980713,739.745178 
z"/>
<path fill="#2A2A2A" opacity="1.000000" stroke="none" 
	d="
M82.476440,741.967346 
	C82.133118,741.591003 82.078026,741.148743 81.983727,740.372498 
	C82.217903,740.659485 82.491287,741.280457 82.476440,741.967346 
z"/>
<path fill="#EFEFEF" opacity="1.000000" stroke="none" 
	d="
M24.924089,36.301048 
	C25.291363,36.050770 25.550856,36.200104 25.874046,36.642849 
	C25.621029,36.758526 25.247217,36.679993 24.924089,36.301048 
z"/>
<path fill="#F8F8F8" opacity="1.000000" stroke="none" 
	d="
M25.697052,43.137680 
	C25.866726,43.457489 25.672333,43.678146 25.202824,43.920078 
	C25.129684,43.699341 25.264778,43.398403 25.697052,43.137680 
z"/>
<path fill="#F6F6F6" opacity="1.000000" stroke="none" 
	d="
M25.697021,142.131104 
	C25.868334,142.454956 25.673351,142.677856 25.200397,142.920944 
	C25.126280,142.696747 25.262379,142.393097 25.697021,142.131104 
z"/>
<path fill="#F1F1F1" opacity="1.000000" stroke="none" 
	d="
M25.698441,306.121216 
	C25.871788,306.452179 25.674330,306.680267 25.192192,306.924438 
	C25.116215,306.692627 25.256254,306.385223 25.698441,306.121216 
z"/>
<path fill="#F1F1F1" opacity="1.000000" stroke="none" 
	d="
M24.922745,331.299896 
	C25.286036,331.054901 25.545095,331.204437 25.870842,331.641937 
	C25.619267,331.756592 25.246260,331.678101 24.922745,331.299896 
z"/>
<path fill="#F1F1F1" opacity="1.000000" stroke="none" 
	d="
M625.302612,331.878479 
	C625.131226,331.549744 625.329407,331.322662 625.810547,331.077271 
	C625.885071,331.306671 625.744568,331.613708 625.302612,331.878479 
z"/>
<path fill="#F1F1F1" opacity="1.000000" stroke="none" 
	d="
M625.301208,201.872971 
	C625.129333,201.544571 625.326904,201.317932 625.807739,201.075226 
	C625.882874,201.305054 625.742737,201.610245 625.301208,201.872971 
z"/>
<path fill="#F6F6F6" opacity="1.000000" stroke="none" 
	d="
M25.697227,371.133240 
	C25.868273,371.455811 25.673527,371.678223 25.201363,371.920898 
	C25.127392,371.697662 25.263220,371.394989 25.697227,371.133240 
z"/>
<path fill="#F1F1F1" opacity="1.000000" stroke="none" 
	d="
M24.924160,201.299713 
	C25.288628,201.051666 25.547541,201.199921 25.872101,201.638000 
	C25.620247,201.753555 25.247200,201.676270 24.924160,201.299713 
z"/>
<path fill="#F6F6F6" opacity="1.000000" stroke="none" 
	d="
M626.063354,371.704407 
	C625.703918,371.939056 625.450378,371.790009 625.129944,371.363129 
	C625.380127,371.251648 625.748840,371.330139 626.063354,371.704407 
z"/>
<path fill="#F1F1F1" opacity="1.000000" stroke="none" 
	d="
M626.074463,176.699860 
	C625.708069,176.949081 625.448914,176.800110 625.126221,176.358612 
	C625.379028,176.243103 625.752014,176.321625 626.074463,176.699860 
z"/>
<path fill="#F1F1F1" opacity="1.000000" stroke="none" 
	d="
M25.698341,176.120636 
	C25.871943,176.451645 25.674559,176.679916 25.192295,176.924377 
	C25.116215,176.692520 25.256195,176.384964 25.698341,176.120636 
z"/>
<path fill="#F6F6F6" opacity="1.000000" stroke="none" 
	d="
M626.058594,142.705383 
	C625.699585,142.938934 625.447266,142.790039 625.129028,142.363739 
	C625.378723,142.252975 625.746033,142.331833 626.058594,142.705383 
z"/>
<path fill="#EFEFEF" opacity="1.000000" stroke="none" 
	d="
M625.301086,36.880157 
	C625.127625,36.548927 625.325317,36.320019 625.808472,36.075180 
	C625.884705,36.307724 625.744141,36.615463 625.301086,36.880157 
z"/>
<path fill="#F4F4F4" opacity="1.000000" stroke="none" 
	d="
M25.697788,537.126099 
	C25.870901,537.453735 25.675102,537.679321 25.197596,537.922729 
	C25.122204,537.694702 25.259869,537.389160 25.697788,537.126099 
z"/>
<path fill="#F6F6F6" opacity="1.000000" stroke="none" 
	d="
M24.948341,135.291687 
	C25.300428,135.063202 25.549738,135.209229 25.867929,135.623840 
	C25.621609,135.734146 25.257860,135.658722 24.948341,135.291687 
z"/>
<path fill="#F4F4F4" opacity="1.000000" stroke="none" 
	d="
M626.068726,537.702148 
	C625.704956,537.944336 625.448730,537.795532 625.127686,537.361328 
	C625.379761,537.247681 625.750916,537.326050 626.068726,537.702148 
z"/>
<path fill="#F6F6F6" opacity="1.000000" stroke="none" 
	d="
M626.060059,110.705177 
	C625.700623,110.939095 625.447937,110.790199 625.129150,110.363754 
	C625.379211,110.252716 625.747131,110.331436 626.060059,110.705177 
z"/>
<path fill="#F6F6F6" opacity="1.000000" stroke="none" 
	d="
M25.696875,110.130600 
	C25.868511,110.455002 25.673573,110.677963 25.200504,110.920990 
	C25.126228,110.696442 25.262203,110.392471 25.696875,110.130600 
z"/>
<path fill="#F4F4F4" opacity="1.000000" stroke="none" 
	d="
M24.956640,562.288513 
	C25.306347,562.054443 25.555359,562.195740 25.870665,562.608643 
	C25.625889,562.721375 25.265553,562.649231 24.956640,562.288513 
z"/>
<path fill="#F8F8F8" opacity="1.000000" stroke="none" 
	d="
M625.298218,70.837677 
	C625.133850,70.524673 625.322937,70.312614 625.778076,70.080124 
	C625.848145,70.294540 625.717346,70.587517 625.298218,70.837677 
z"/>
<path fill="#F8F8F8" opacity="1.000000" stroke="none" 
	d="
M24.968811,70.286255 
	C25.313375,70.066048 25.556204,70.209160 25.867674,70.611328 
	C25.626005,70.718567 25.269592,70.644966 24.968811,70.286255 
z"/>
<path fill="#F8F8F8" opacity="1.000000" stroke="none" 
	d="
M626.058838,43.706314 
	C625.702026,43.936722 625.450562,43.788231 625.131104,43.366608 
	C625.380005,43.256405 625.747070,43.334385 626.058838,43.706314 
z"/>
<path fill="#F1F1F1" opacity="1.000000" stroke="none" 
	d="
M626.073242,306.699768 
	C625.706970,306.948029 625.448425,306.798767 625.126099,306.357971 
	C625.378784,306.242859 625.751648,306.321472 626.073242,306.699768 
z"/>
<path fill="#3F3F3F" opacity="1.000000" stroke="none" 
	d="
M317.000000,731.953796 
	C332.617889,731.953796 347.735748,731.953796 363.019897,731.953796 
	C362.718231,736.740234 361.566986,739.276489 356.057434,739.189819 
	C334.094604,738.844055 312.123077,739.048279 290.154785,739.048950 
	C288.841766,739.049011 287.528778,739.048950 286.390137,739.048950 
	C286.390137,736.606384 286.390137,734.490051 286.390137,731.953796 
	C296.273254,731.953796 306.386627,731.953796 317.000000,731.953796 
M330.499969,736.243286 
	C340.230103,736.243286 349.960205,736.243286 359.690338,736.243286 
	C359.684631,735.869751 359.678894,735.496155 359.673187,735.122620 
	C336.264496,735.122620 312.855804,735.122620 289.447113,735.122620 
	C289.441833,735.496277 289.436584,735.869873 289.431305,736.243530 
	C302.787537,736.243530 316.143738,736.243530 330.499969,736.243286 
z"/>
<path fill="#EFEFEF" opacity="1.000000" stroke="none" 
	d="
M81.915695,737.435547 
	C72.260796,737.901306 62.654278,737.933472 52.589947,737.917297 
	C52.132137,736.403259 52.132137,734.937622 52.132137,733.234802 
	C61.980766,733.234802 71.682770,733.234802 81.766907,733.234802 
	C81.833633,734.509766 81.898849,735.755920 81.915695,737.435547 
z"/>
<path fill="#EFEFEF" opacity="1.000000" stroke="none" 
	d="
M88.044678,737.955444 
	C88.092072,736.452881 88.092072,734.974670 88.092072,733.247253 
	C94.374268,733.247253 100.472824,733.247253 106.806770,733.247253 
	C108.057137,736.561523 107.396523,738.172974 103.492493,738.022888 
	C98.667313,737.837402 93.829796,737.972229 88.534912,737.936218 
	C88.072220,737.903809 87.997292,737.979736 88.044678,737.955444 
z"/>
<path fill="#EFEFEF" opacity="1.000000" stroke="none" 
	d="
M45.929276,737.905457 
	C43.768810,737.930054 41.600540,737.847351 39.449650,738.003662 
	C35.936409,738.259033 34.913628,736.808228 36.203941,733.293701 
	C39.227718,733.293701 42.310776,733.293701 45.784801,733.293701 
	C45.843193,734.539429 45.902138,735.797119 45.981262,737.515503 
	C46.001434,737.976196 45.929276,737.905457 45.929276,737.905457 
z"/>
<path fill="#090909" opacity="1.000000" stroke="none" 
	d="
M45.969414,740.039917 
	C45.960388,739.593689 45.976959,739.110657 45.961403,738.266541 
	C45.929276,737.905457 46.001434,737.976196 45.956612,737.953064 
	C46.452782,738.181274 46.993778,738.432617 47.534775,738.683960 
	C47.203369,739.106812 46.871967,739.529663 46.231728,740.004517 
	C45.922886,740.056519 45.995010,740.003052 45.969414,740.039917 
z"/>
<path fill="#090909" opacity="1.000000" stroke="none" 
	d="
M51.485294,738.220215 
	C51.798176,738.591858 51.846550,738.927002 51.829391,739.508667 
	C51.299034,739.519836 50.834209,739.284485 50.369408,739.049072 
	C50.653217,738.760620 50.937004,738.472168 51.485294,738.220215 
z"/>
<path fill="#EFEFEF" opacity="1.000000" stroke="none" 
	d="
M551.928955,737.906738 
	C549.788574,737.930603 547.640747,737.850037 545.509460,738.001831 
	C541.984131,738.252930 541.087341,736.726196 542.320923,733.296265 
	C545.325500,733.296265 548.377319,733.296265 551.960083,733.296265 
	C551.960083,734.564392 551.960083,735.810303 551.982300,737.518433 
	C552.004456,737.980652 551.928955,737.906738 551.928955,737.906738 
z"/>
<path fill="#090909" opacity="1.000000" stroke="none" 
	d="
M557.490540,738.224121 
	C557.799744,738.590576 557.847290,738.926086 557.829590,739.508301 
	C557.305481,739.522522 556.846497,739.289978 556.387573,739.057495 
	C556.668030,738.769409 556.948486,738.481323 557.490540,738.224121 
z"/>
<path fill="#090909" opacity="1.000000" stroke="none" 
	d="
M551.957764,737.956177 
	C552.455872,738.183350 553.000610,738.434875 553.545410,738.686401 
	C553.211792,739.110535 552.878113,739.534668 552.233154,740.007874 
	C551.921753,740.056946 551.990295,740.005127 551.966309,740.040894 
	C551.959900,739.593872 551.977417,739.111084 551.961914,738.267517 
	C551.928955,737.906738 552.004456,737.980652 551.957764,737.956177 
z"/>
<path fill="#CCCCCC" opacity="1.000000" stroke="none" 
	d="
M329.999939,736.243408 
	C316.143738,736.243530 302.787537,736.243530 289.431305,736.243530 
	C289.436584,735.869873 289.441833,735.496277 289.447113,735.122620 
	C312.855804,735.122620 336.264496,735.122620 359.673187,735.122620 
	C359.678894,735.496155 359.684631,735.869751 359.690338,736.243286 
	C349.960205,736.243286 340.230103,736.243286 329.999939,736.243408 
z"/>
</svg>