<svg version="1.1" id="Layer_1" xmlns="http://www.w3.org/2000/svg" xmlns:xlink="http://www.w3.org/1999/xlink" x="0px" y="0px"
	 width="100%" viewBox="0 0 830 830" enable-background="new 0 0 830 830" xml:space="preserve">
<path fill="#F9F9F9" opacity="1.000000" stroke="none" 
	d="
M1.000002,825.000000 
	C1.000000,552.637329 1.000000,280.274597 1.285153,7.824229 
	C2.139102,7.505661 2.707898,7.274764 3.523388,7.023057 
	C3.770082,7.002246 4.265231,7.001189 4.265231,7.001189 
	C4.265231,7.001189 4.759511,7.030550 5.132643,7.134744 
	C8.643591,7.218079 11.781405,7.178989 14.919221,7.178954 
	C280.849518,7.175991 546.779846,7.176330 812.710144,7.171963 
	C815.375610,7.171919 818.054504,6.967008 820.694641,7.210233 
	C821.190369,7.255901 821.531555,8.980643 821.651978,10.091152 
	C816.861084,13.897184 812.362366,17.542624 807.421875,21.091845 
	C547.808472,20.993052 288.636810,20.989836 29.465134,20.996258 
	C26.641163,20.996328 23.817196,21.122335 20.737108,21.153595 
	C20.428398,21.403414 20.375807,21.689186 20.248577,22.432934 
	C20.148232,23.390062 20.099995,23.889215 20.099998,24.388369 
	C20.101576,280.598236 20.110161,536.808105 20.098444,793.018005 
	C20.097940,804.001343 19.910166,814.984680 19.399929,825.964417 
	C13.653433,825.976379 8.316638,825.991943 2.788377,825.697754 
	C2.064608,825.258545 1.532306,825.129272 1.000002,825.000000 
z"/>
<path fill="#FFFFFF" opacity="1.000000" stroke="none" 
	d="
M4.759511,7.030550 
	C4.759511,7.030550 4.265231,7.001189 4.265231,7.001189 
	C4.265231,7.001189 3.770082,7.002246 3.460526,6.692820 
	C2.433980,5.922263 1.716990,5.461131 1.000000,5.000000 
	C1.000000,3.666933 1.000000,2.333867 1.000000,1.000600 
	C277.611084,1.000400 554.222168,1.000400 830.916626,1.000400 
	C830.916626,277.555725 830.916626,554.111450 830.916626,831.000000 
	C828.955322,831.000000 826.894653,831.000000 824.834045,831.000000 
	C551.721985,831.000000 278.609985,831.004700 5.498010,830.858643 
	C4.209486,830.857971 0.871635,833.327271 1.467511,828.538025 
	C8.063475,827.982788 14.191929,827.889465 20.754883,827.832275 
	C221.733353,827.857178 422.277313,827.844910 622.821289,827.835388 
	C684.449707,827.832458 746.078186,827.837219 808.191772,827.876465 
	C814.132202,827.912598 819.587463,827.910767 825.442139,827.986816 
	C826.782532,827.182922 828.292786,826.430237 828.529297,825.388306 
	C828.873657,823.871887 828.141541,822.147095 828.141418,820.511169 
	C828.119019,551.977783 828.121948,283.444397 828.107300,14.911027 
	C828.107239,12.921450 827.881470,10.931884 827.924866,8.517576 
	C828.882263,5.472130 827.610168,4.941345 825.268372,5.016085 
	C820.943054,5.154128 816.610657,5.080670 812.281250,5.080693 
	C547.928040,5.082056 283.574860,5.081870 19.221647,5.082572 
	C15.723596,5.082581 12.211827,4.915359 8.734339,5.185317 
	C7.369871,5.291240 6.082171,6.386077 4.759511,7.030550 
z"/>
<path fill="#D5D5D5" opacity="1.000000" stroke="none" 
	d="
M20.320385,827.796143 
	C14.191929,827.889465 8.063475,827.982788 1.467511,828.038025 
	C1.000000,828.000000 1.000000,827.500000 1.296956,827.390625 
	C2.055900,826.856628 2.517888,826.432068 2.979860,826.007568 
	C8.316638,825.991943 13.653433,825.976379 19.492687,826.267334 
	C20.103561,826.981262 20.211975,827.388733 20.320385,827.796143 
z"/>
<path fill="#767676" opacity="1.000000" stroke="none" 
	d="
M2.788392,825.697754 
	C2.517888,826.432068 2.055900,826.856628 1.296956,827.140625 
	C1.000000,826.555542 1.000000,826.111084 1.000002,825.333313 
	C1.532306,825.129272 2.064608,825.258545 2.788392,825.697754 
z"/>
<path fill="#767676" opacity="1.000000" stroke="none" 
	d="
M1.000000,5.333333 
	C1.716990,5.461131 2.433980,5.922263 3.213832,6.713631 
	C2.707898,7.274764 2.139102,7.505661 1.285153,7.368279 
	C1.000000,6.555555 1.000000,6.111111 1.000000,5.333333 
z"/>
<path fill="#020202" opacity="1.000000" stroke="none" 
	d="
M20.754887,827.832275 
	C20.211975,827.388733 20.103561,826.981262 19.902390,826.270874 
	C19.910166,814.984680 20.097940,804.001343 20.098444,793.018005 
	C20.110161,536.808105 20.101576,280.598236 20.099998,24.388369 
	C20.099995,23.889215 20.148232,23.390062 20.402981,22.343552 
	C20.812113,21.629524 20.932512,21.427309 20.993227,21.189550 
	C23.817196,21.122335 26.641163,20.996328 29.465134,20.996258 
	C288.636810,20.989836 547.808472,20.993052 807.406799,21.419296 
	C807.928650,22.263695 808.023865,22.684425 808.066284,23.564461 
	C808.005066,31.856146 807.989563,39.688526 807.989502,47.520908 
	C807.987976,296.675140 807.984863,545.829346 807.998047,794.983582 
	C807.998596,805.308411 808.153015,815.633179 808.133423,826.267456 
	C807.922913,826.997375 807.814819,827.417908 807.706665,827.838440 
	C746.078186,827.837219 684.449707,827.832458 622.821289,827.835388 
	C422.277313,827.844910 221.733353,827.857178 20.754887,827.832275 
M26.543612,694.356567 
	C27.020592,695.240662 27.497574,696.124817 28.914904,696.989441 
	C284.529907,696.993835 540.144958,696.998230 795.759949,697.002197 
	C796.759705,697.002197 798.057861,697.382263 798.685852,696.897339 
	C799.529236,696.246216 799.854858,694.924561 800.649780,692.999207 
	C800.715820,684.109558 800.781799,675.219971 800.776733,665.494263 
	C798.685974,664.997803 796.595398,664.066956 794.504517,664.066406 
	C541.133911,664.001221 287.763336,664.004761 34.392738,664.007019 
	C32.894218,664.007019 31.352409,663.837097 29.915154,664.142883 
	C29.179140,664.299561 28.630215,665.335327 27.483017,666.627502 
	C27.566402,672.051514 27.649788,677.475586 27.371040,683.598755 
	C27.271551,687.056274 27.172064,690.513794 26.543612,694.356567 
M28.966528,731.827637 
	C28.966528,731.827637 28.995054,731.860046 29.984838,731.992493 
	C30.647705,731.949158 31.310572,731.905762 32.640770,732.015747 
	C286.435455,732.022827 540.230164,732.030029 794.024841,732.029724 
	C795.020081,732.029724 796.015259,731.920715 797.675842,731.993896 
	C798.121887,731.941345 798.567871,731.888855 799.509277,731.963257 
	C799.659241,731.882202 799.809265,731.801147 800.691406,731.353333 
	C800.695496,722.136353 800.699646,712.919373 800.780273,702.819885 
	C798.614319,702.213867 796.448486,701.077820 794.282349,701.077148 
	C541.055603,700.997559 287.828827,701.002197 34.602077,701.003967 
	C33.102917,701.003967 31.533569,700.764709 30.131119,701.139343 
	C29.299541,701.361450 28.731268,702.569153 27.834455,703.775208 
	C27.722532,703.893005 27.521067,704.007751 27.516857,704.129272 
	C27.507338,704.404236 27.595144,704.682556 27.437628,705.880554 
	C27.640457,714.488220 27.843287,723.095886 28.316608,731.940674 
	C28.316608,731.940674 28.673243,731.987915 28.673243,731.987915 
	C28.673243,731.987915 29.009501,731.860046 28.966528,731.827637 
M63.469543,821.957336 
	C75.960434,821.964233 88.451317,821.971130 101.627121,822.004883 
	C102.084068,822.003235 102.541016,822.001648 103.503868,822.563293 
	C105.669060,822.399414 107.834244,822.235474 110.911545,821.838379 
	C112.409859,821.825867 113.908180,821.802307 115.406494,821.802307 
	C311.911041,821.797363 508.415558,821.794250 705.408936,822.434265 
	C707.948669,822.257629 710.488403,822.080933 713.961792,821.927307 
	C726.304871,821.940125 738.647949,821.952942 751.527954,822.554871 
	C754.059143,822.272644 756.590271,821.990479 760.034790,821.840515 
	C772.143372,821.828247 784.252686,821.879822 796.359436,821.724487 
	C797.904663,821.704651 799.436035,820.606323 801.581360,819.430115 
	C801.701477,804.856995 801.831848,790.283936 801.903076,775.710571 
	C801.905823,775.145142 801.341553,774.577026 800.605896,773.244568 
	C798.626709,773.113647 796.647583,772.868408 794.668396,772.868042 
	C690.897705,772.848816 587.127014,772.849976 483.356323,772.849792 
	C333.280243,772.849426 183.204163,772.845215 33.128109,772.896362 
	C31.113523,772.897034 29.099180,773.599731 26.473961,774.552856 
	C26.360184,789.864685 26.218546,805.176514 26.253544,820.487976 
	C26.254715,821.000671 28.040871,821.509216 29.923538,821.876282 
	C38.201946,821.885010 46.480354,821.893677 55.379417,821.967773 
	C55.587170,821.978516 55.794926,821.989258 56.456764,822.542786 
	C57.971828,822.361877 59.486897,822.180908 61.838718,821.852844 
	C62.114174,821.787048 62.389633,821.721252 63.469543,821.957336 
M27.251431,557.163879 
	C26.865192,557.658081 26.147421,558.148682 26.142014,558.647034 
	C26.048130,567.301453 25.990036,575.957458 26.101019,584.610840 
	C26.111431,585.422546 27.308882,586.219055 27.971138,587.002625 
	C27.971138,587.002625 27.996119,587.006714 28.197313,587.793335 
	C30.363373,588.192322 32.529358,588.940308 34.695496,588.940735 
	C287.039490,588.993225 539.383545,588.990234 791.727539,588.990173 
	C793.726318,588.990173 795.766052,589.231323 797.708984,588.901794 
	C798.945068,588.692078 800.037415,587.634888 801.697205,586.325256 
	C801.799744,580.575500 802.035706,574.823914 801.953979,569.076782 
	C801.906128,565.716492 801.350830,562.363464 800.816040,558.512207 
	C800.809753,558.158813 800.803406,557.805420 800.779785,556.599121 
	C798.550598,556.066895 796.321472,555.069092 794.092163,555.068481 
	C541.003296,554.998413 287.914459,555.002502 34.825600,555.003540 
	C33.326126,555.003540 31.770401,554.777161 30.347980,555.111633 
	C29.474737,555.316956 28.805586,556.390137 27.991486,557.027100 
	C27.991486,557.027100 28.061417,557.036377 27.251431,557.163879 
M27.223982,125.160637 
	C26.845091,125.662468 26.141296,126.160751 26.135771,126.666649 
	C26.044807,134.996643 25.987833,143.328354 26.106924,151.657059 
	C26.118166,152.443314 27.359972,153.211975 28.961527,153.949036 
	C284.664185,153.955154 540.366821,153.961319 796.069458,153.966171 
	C797.068787,153.966202 798.159912,154.193756 799.039978,153.864944 
	C799.819092,153.573837 800.363403,152.654236 801.562927,151.550873 
	C801.710266,148.089218 802.056030,144.621857 801.956604,141.167297 
	C801.820557,136.441498 801.346069,131.725449 800.794739,126.475807 
	C800.526245,125.985138 800.257690,125.494469 800.477966,124.519753 
	C798.505859,124.014000 796.533936,123.065811 794.561707,123.065239 
	C561.980591,122.998047 329.399506,123.001022 96.818390,123.000565 
	C75.492905,123.000519 54.167141,122.958527 32.842476,123.091713 
	C31.233500,123.101753 29.632355,124.365715 27.996103,125.029549 
	C27.996103,125.029549 28.028654,125.016174 27.223982,125.160637 
M27.134619,234.156647 
	C26.781593,234.668365 26.126392,235.176880 26.120949,235.692261 
	C26.041388,243.223846 26.015787,250.756683 26.095451,258.287964 
	C26.102043,258.911041 26.961777,259.525116 27.781509,260.091614 
	C27.781509,260.091614 27.938484,260.415741 28.227520,260.801208 
	C28.485361,261.201202 28.743202,261.601227 28.726768,262.108124 
	C28.817574,262.071686 28.908379,262.035248 29.857088,262.001892 
	C35.144054,262.334198 40.430962,262.956146 45.717995,262.957153 
	C294.630524,263.004913 543.543091,262.998840 792.455627,262.998016 
	C793.954956,262.997986 795.520264,263.242737 796.928711,262.881592 
	C797.759094,262.668671 798.340881,261.486237 799.619934,260.358215 
	C800.100891,259.897675 800.581909,259.437103 801.636475,258.376801 
	C801.489563,250.265320 801.342712,242.153839 800.891541,233.269653 
	C798.726196,232.849274 796.560852,232.061218 794.395447,232.060699 
	C562.062744,232.004639 329.730103,232.007614 97.397423,232.007217 
	C75.897484,232.007187 54.397289,231.964767 32.898109,232.092468 
	C31.256742,232.102234 29.622536,233.316971 27.948103,233.999954 
	C27.948103,233.999954 27.920614,233.962402 27.134619,234.156647 
M26.370863,412.598846 
	C26.249495,421.784058 26.070065,430.969391 26.093330,440.154236 
	C26.095753,441.110565 27.300034,442.063873 28.858517,442.986450 
	C284.115875,442.989746 539.373230,442.992920 794.630554,442.998199 
	C796.463013,442.998230 798.295471,443.026581 800.907410,442.837646 
	C801.273254,439.351746 801.971924,435.862061 801.932434,432.380768 
	C801.860474,426.033813 801.351013,419.691864 800.641724,412.601654 
	C800.459351,412.389893 800.276978,412.178162 800.539124,411.448425 
	C798.531799,410.966431 796.524658,410.062744 794.517212,410.062256 
	C540.967773,409.999115 287.418365,410.002441 33.868950,410.003174 
	C32.369694,410.003174 30.818405,409.782166 29.389883,410.102936 
	C28.471273,410.309174 27.733192,411.319458 26.370863,412.598846 
M26.340168,303.653595 
	C26.230986,312.952179 26.074018,322.250885 26.094339,331.549194 
	C26.096159,332.382355 27.246340,333.213013 28.808201,334.005096 
	C29.974321,334.003723 31.140440,334.001099 32.306561,334.001099 
	C286.525848,334.000916 540.745117,334.003357 794.964417,333.958893 
	C796.993408,333.958557 799.022339,333.322418 801.628967,332.385254 
	C801.754272,326.958405 802.028259,321.529510 801.953247,316.105408 
	C801.901978,312.404327 801.363159,308.710022 800.826843,304.474792 
	C800.510315,303.998962 800.193787,303.523132 800.414185,302.598938 
	C798.485107,302.067383 796.556152,301.070679 794.626953,301.070160 
	C541.022034,301.000916 287.417084,301.004578 33.812126,301.005707 
	C32.312576,301.005707 30.757380,300.781403 29.333437,301.113373 
	C28.413881,301.327728 27.686632,302.366974 26.340168,303.653595 
M801.013367,295.377655 
	C801.013367,295.377655 800.972839,294.929871 800.868469,294.448059 
	C800.868469,294.448059 801.041443,293.986359 801.623596,293.391449 
	C801.750671,289.613861 802.063721,285.830963 801.956177,282.060089 
	C801.831848,277.701508 801.337036,273.353516 800.746826,268.190582 
	C798.813171,267.793030 796.879700,267.047791 794.945923,267.047272 
	C605.387024,266.994232 415.828064,267.000793 226.269135,266.996002 
	C160.140259,266.994324 94.011383,266.973541 27.103373,267.165070 
	C26.735703,270.316437 26.022266,273.473633 26.075314,276.617920 
	C26.173279,282.424469 26.720665,288.223389 27.259584,294.393158 
	C27.259584,294.393158 27.094051,294.766998 27.013111,295.317780 
	C27.008104,295.503296 27.003099,295.688782 27.182629,296.677826 
	C29.325199,297.115723 31.467678,297.936676 33.610352,297.937164 
	C279.827271,297.995392 526.044250,297.992584 772.261169,297.993042 
	C780.423950,297.993073 788.589355,298.095398 796.747192,297.894501 
	C798.174072,297.859375 799.569519,296.547974 801.013367,295.377655 
M801.619019,43.395935 
	C801.743958,38.836109 801.984558,34.274029 801.895874,29.718369 
	C801.878235,28.811535 800.601013,27.929203 798.982361,27.118193 
	C796.983643,27.140768 794.984863,27.183094 792.986145,27.183115 
	C540.572693,27.185781 288.159241,27.184532 35.745804,27.197493 
	C33.441223,27.197611 31.136652,27.385635 28.220282,27.563633 
	C28.155745,27.758810 28.091208,27.953989 27.514156,28.749126 
	C27.632515,31.825018 27.750874,34.900909 27.549627,38.803490 
	C27.549627,40.751015 27.549627,42.698540 27.549627,44.998444 
	C29.019854,44.998444 30.157207,44.998444 31.294559,44.998444 
	C286.337189,44.998352 541.379822,45.000034 796.422485,44.956470 
	C797.960083,44.956207 799.497559,44.324757 801.619019,43.395935 
M800.812134,368.033844 
	C800.656189,366.707703 800.500244,365.381531 800.664246,363.369751 
	C800.550476,362.892151 800.436707,362.414551 800.617371,361.052460 
	C800.617371,354.437439 800.617371,347.822449 800.617371,340.813934 
	C798.826050,340.813934 797.359741,340.813934 795.893433,340.813934 
	C541.292419,340.813354 286.691437,340.810516 32.090462,340.860413 
	C30.410328,340.860748 28.730333,341.591125 26.439953,342.559204 
	C26.293406,347.674438 25.985329,352.791992 26.057440,357.904144 
	C26.105038,361.278381 26.699217,364.644928 27.244141,368.495911 
	C27.493301,368.736237 27.742464,368.976562 28.032530,370.021179 
	C30.153278,370.680786 32.273827,371.917419 34.394802,371.918152 
	C287.676758,372.004791 540.958740,372.000000 794.240723,371.999481 
	C795.573730,371.999481 797.104248,372.399384 798.185608,371.875641 
	C799.325928,371.323395 800.037476,369.885986 800.812134,368.033844 
M799.557373,226.236115 
	C799.815918,224.168640 800.074524,222.101166 800.649963,219.296021 
	C800.541992,218.516296 800.433960,217.736588 800.628113,216.072281 
	C800.628113,210.127655 800.628113,204.183029 800.628113,197.902298 
	C798.291138,197.902298 796.319275,197.902298 794.347351,197.902298 
	C736.701904,197.902573 679.056396,197.902969 621.410950,197.903107 
	C425.316376,197.903534 229.221817,197.900650 33.127266,197.948883 
	C31.100931,197.949387 29.074759,198.622253 26.438877,199.560242 
	C26.292765,205.007446 26.000933,210.456192 26.057726,215.901276 
	C26.089447,218.942459 26.700167,221.977615 27.213547,225.371948 
	C27.213547,225.371948 27.099005,225.747055 27.153950,226.540726 
	C30.876822,227.360260 34.599373,228.895538 38.322613,228.897202 
	C290.592438,229.009903 542.862305,228.999313 795.132202,228.999313 
	C796.734924,228.999313 798.337708,228.999313 800.258118,228.999313 
	C799.645142,227.895447 799.257446,227.197266 799.557373,226.236115 
M801.632141,621.381958 
	C801.443420,612.927734 801.254700,604.473450 800.908936,595.602173 
	C800.908936,595.602173 800.936218,595.157410 800.955933,594.309021 
	C800.357605,590.500854 797.329956,592.069641 795.383850,592.069092 
	C541.473633,591.996399 287.563416,592.000000 33.653206,592.000977 
	C32.487087,592.000977 31.157612,591.669128 30.201246,592.120789 
	C29.263395,592.563599 28.705111,593.810181 27.619423,595.098145 
	C27.429146,595.392517 27.238869,595.686951 26.438433,596.559875 
	C26.302074,604.688354 26.122879,612.816711 26.104258,620.945496 
	C26.102631,621.656433 27.155474,622.369690 28.683281,623.078064 
	C54.511120,623.078369 80.338959,623.078979 106.166794,623.078979 
	C335.785034,623.078857 565.403320,623.081421 795.021545,623.033081 
	C797.033447,623.032654 799.045166,622.347168 801.632141,621.381958 
M801.641846,80.373108 
	C801.762878,74.950302 802.029907,69.525452 801.954285,64.105392 
	C801.902710,60.405685 801.372498,56.712666 800.859253,52.482212 
	C800.233093,52.080894 799.606995,51.679577 798.852844,50.442802 
	C796.572998,49.961796 794.293335,49.060059 792.013367,49.059486 
	C539.597107,48.996006 287.180817,48.999805 34.764523,49.000351 
	C33.265045,49.000355 31.668478,48.695293 30.299677,49.120274 
	C29.362291,49.411308 28.742035,50.723782 27.661285,52.041988 
	C27.460566,52.353676 27.259846,52.665363 26.445656,53.553791 
	C26.302385,62.306675 26.121027,71.059387 26.082434,79.812729 
	C26.079056,80.578392 27.013107,81.348183 28.506367,82.212074 
	C40.833210,82.224426 53.160057,82.247452 65.486900,82.247528 
	C308.527496,82.249008 551.568115,82.251129 794.608704,82.194626 
	C796.763428,82.194122 798.917969,81.399910 801.641846,80.373108 
M28.683720,512.063477 
	C73.341751,512.066528 117.999786,512.072021 162.657822,512.072144 
	C373.450500,512.072754 584.243225,512.074951 795.035889,512.026306 
	C797.046936,512.025879 799.057861,511.342285 801.639832,510.375519 
	C801.448608,502.590149 801.257385,494.804779 800.626099,486.299500 
	C798.476868,486.179199 796.327576,485.953644 794.178345,485.953461 
	C538.694275,485.931732 283.210266,485.926697 26.978140,486.182037 
	C26.803713,494.577026 26.618999,502.971924 26.508472,511.367706 
	C26.505407,511.600494 27.297781,511.843719 28.683720,512.063477 
M801.634399,764.379700 
	C801.445557,756.259644 801.256653,748.139648 800.653931,739.260925 
	C798.519043,739.088196 796.384094,738.764343 794.249207,738.764160 
	C540.655945,738.741577 287.062622,738.742676 33.469334,738.748962 
	C31.471478,738.748962 29.473627,738.835754 26.792116,739.237915 
	C26.617449,747.825012 26.424498,756.411926 26.334072,764.999878 
	C26.330404,765.348206 27.294109,765.706726 28.759104,766.031189 
	C32.591110,766.029419 36.423115,766.026123 40.255119,766.026123 
	C291.836487,766.025818 543.417847,766.028320 794.999207,765.982544 
	C797.019775,765.982178 799.040283,765.328735 801.634399,764.379700 
M801.496582,184.641617 
	C801.325439,183.759216 801.154297,182.876801 800.722412,181.090683 
	C800.810791,175.395279 800.899109,169.699860 801.445984,163.728775 
	C801.313782,163.157425 801.181580,162.586075 800.728516,161.266037 
	C798.521667,160.916641 796.314819,160.261597 794.107910,160.261200 
	C541.666138,160.215759 289.224335,160.219421 36.782532,160.214722 
	C33.952560,160.214661 31.122587,160.140839 27.706659,160.254288 
	C27.499323,160.585098 27.291988,160.915924 27.243053,161.616837 
	C27.243053,161.616837 27.064753,161.977783 26.449142,162.552475 
	C26.299528,169.668762 26.062090,176.784973 26.055712,183.901382 
	C26.053883,185.942383 26.719904,187.983978 27.469061,190.634277 
	C28.644497,190.718857 29.819933,190.803436 31.919361,191.059998 
	C286.120422,191.064774 540.321533,191.069809 794.522583,191.066559 
	C795.683289,191.066544 796.843933,190.948639 798.821655,191.041199 
	C799.543579,189.029037 800.265503,187.016876 801.496582,184.641617 
M26.986338,630.180664 
	C26.698217,630.567566 26.161604,630.952454 26.158569,631.341614 
	C26.093998,639.623779 26.059227,647.906616 26.131145,656.188416 
	C26.136808,656.840271 26.966267,657.485046 27.247263,658.531372 
	C27.247263,658.531372 27.445978,658.147949 27.250479,658.861328 
	C27.482300,659.363831 27.714119,659.866394 27.945953,660.368896 
	C28.282228,659.774597 28.618505,659.180298 29.643707,658.394958 
	C30.105942,658.480042 30.568176,658.565125 31.141939,659.496643 
	C33.406738,659.997742 35.671425,660.937256 37.936356,660.937805 
	C289.477142,661.003967 541.017944,661.000000 792.558777,660.998596 
	C794.057800,660.998596 795.628906,661.245728 797.028137,660.866760 
	C797.838257,660.647400 798.371582,659.405640 799.624390,658.284546 
	C800.105347,657.849121 800.586304,657.413635 801.638428,656.376282 
	C801.447571,647.924011 801.256714,639.471680 800.623230,630.298706 
	C798.641235,630.176636 796.659180,629.947876 794.677185,629.947693 
	C539.030396,629.928833 283.383636,629.926575 26.986338,630.180664 
M27.489485,404.813721 
	C29.403942,405.114716 31.318356,405.679138 33.232864,405.679443 
	C287.150421,405.719055 541.067993,405.717316 794.985535,405.717590 
	C796.768250,405.717590 798.550964,405.717590 800.893188,405.717590 
	C800.893188,395.818146 800.893188,386.535950 800.803650,376.424103 
	C798.692139,375.949799 796.580750,375.060638 794.469116,375.060059 
	C561.776184,374.997070 329.083252,375.000397 96.390305,375.000122 
	C75.236397,375.000092 54.082237,374.957916 32.929081,375.084656 
	C31.280994,375.094543 29.640003,376.289093 27.647795,377.249817 
	C27.407038,377.456909 27.211111,377.700104 26.445866,378.554962 
	C26.297419,384.679901 26.036903,390.805206 26.057100,396.929596 
	C26.064899,399.294556 26.709696,401.657410 27.489485,404.813721 
M27.258577,116.475098 
	C27.547663,116.880638 27.836748,117.286179 28.195843,118.529510 
	C30.294504,119.019287 32.393055,119.937546 34.491844,119.938080 
	C287.719757,120.002563 540.947693,119.999260 794.175659,119.997444 
	C795.674622,119.997429 797.276184,120.283051 798.635681,119.839821 
	C799.508362,119.555305 800.024536,118.177406 800.850769,116.453918 
	C800.850769,107.358871 800.850769,98.263824 800.850769,88.994247 
	C799.122620,88.994247 798.128906,88.994247 797.135132,88.994247 
	C541.987976,88.994354 286.840881,88.992722 31.693758,89.035233 
	C30.148962,89.035492 28.604269,89.651245 26.445635,90.555344 
	C26.297207,96.003647 26.002390,101.453438 26.057791,106.899666 
	C26.088734,109.941513 26.701317,112.977448 27.258577,116.475098 
M26.526382,451.361786 
	C26.730223,452.256073 26.934063,453.150330 27.414505,454.932343 
	C27.322014,459.272125 27.229525,463.611938 26.516985,468.473236 
	C26.699554,471.322205 26.882124,474.171204 27.590502,477.686798 
	C29.407612,477.794434 31.224718,477.996216 33.041836,477.996307 
	C286.850189,478.009979 540.658569,478.008972 794.466919,478.008606 
	C796.424377,478.008606 798.381836,478.008606 800.496033,478.008606 
	C800.496033,468.367859 800.496033,459.151825 800.496033,449.445831 
	C798.276306,449.445831 796.307373,449.445831 794.338440,449.445831 
	C690.015381,449.445129 585.692261,449.443909 481.369202,449.443878 
	C331.883911,449.443848 182.398636,449.438782 32.913383,449.508942 
	C30.958126,449.509857 29.003317,450.470795 26.526382,451.361786 
M26.435146,520.565308 
	C26.290277,527.684326 26.060278,534.803345 26.054441,541.922485 
	C26.052774,543.954895 26.701391,545.987793 27.339497,548.636353 
	C27.592146,549.011658 27.844797,549.386963 28.190582,550.591980 
	C30.304310,551.062134 32.417938,551.943665 34.531780,551.944153 
	C287.738556,552.005920 540.945312,552.002563 794.152100,552.000732 
	C795.651001,552.000732 797.250671,552.286499 798.612854,551.847778 
	C799.497253,551.562866 800.035522,550.203186 800.842590,548.479187 
	C800.842590,538.713318 800.842590,528.947449 800.842590,518.902283 
	C798.246094,518.902283 796.265503,518.902283 794.284912,518.902283 
	C726.480713,518.902344 658.676575,518.902405 590.872375,518.902405 
	C404.952332,518.902466 219.032303,518.899048 33.112282,518.947388 
	C31.088984,518.947937 29.065861,519.624512 26.435146,520.565308 
M262.500000,483.998779 
	C441.222260,483.998779 619.944519,483.998779 798.666809,483.998779 
	C798.666443,483.761200 798.666077,483.523590 798.665710,483.286011 
	C542.487915,483.286011 286.310150,483.286011 30.132349,483.286011 
	C30.132160,483.523590 30.131971,483.761200 30.131781,483.998779 
	C107.254524,483.998779 184.377258,483.998779 262.500000,483.998779 
z"/>
<path fill="#B3B3B3" opacity="1.000000" stroke="none" 
	d="
M5.132643,7.134744 
	C6.082171,6.386077 7.369871,5.291240 8.734339,5.185317 
	C12.211827,4.915359 15.723596,5.082581 19.221647,5.082572 
	C283.574860,5.081870 547.928040,5.082056 812.281250,5.080693 
	C816.610657,5.080670 820.943054,5.154128 825.268372,5.016085 
	C827.610168,4.941345 828.882263,5.472130 827.684692,8.536717 
	C826.862183,9.203174 826.443542,9.425754 825.704834,9.758682 
	C824.572266,10.227577 823.759827,10.586123 822.830261,10.731848 
	C822.492188,10.276574 822.235840,10.080420 821.944031,9.930563 
	C821.531555,8.980643 821.190369,7.255901 820.694641,7.210233 
	C818.054504,6.967008 815.375610,7.171919 812.710144,7.171963 
	C546.779846,7.176330 280.849518,7.175991 14.919221,7.178954 
	C11.781405,7.178989 8.643591,7.218079 5.132643,7.134744 
z"/>
<path fill="#767676" opacity="1.000000" stroke="none" 
	d="
M821.651978,10.091154 
	C822.235840,10.080420 822.492188,10.276574 822.622498,10.989505 
	C817.727539,15.341704 812.923340,19.223427 808.119080,23.105152 
	C808.023865,22.684425 807.928650,22.263695 807.848511,21.515514 
	C812.362366,17.542624 816.861084,13.897184 821.651978,10.091154 
z"/>
<path fill="#090909" opacity="1.000000" stroke="none" 
	d="
M20.737108,21.153595 
	C20.932512,21.427309 20.812113,21.629524 20.477621,21.885578 
	C20.375807,21.689186 20.428398,21.403414 20.737108,21.153595 
z"/>
<path fill="#C2C2C2" opacity="1.000000" stroke="none" 
	d="
M826.024963,9.648340 
	C826.443542,9.425754 826.862183,9.203174 827.520874,8.961452 
	C827.881470,10.931884 828.107239,12.921450 828.107300,14.911027 
	C828.121948,283.444397 828.119019,551.977783 828.141418,820.511169 
	C828.141541,822.147095 828.873657,823.871887 828.529297,825.388306 
	C828.292786,826.430237 826.782532,827.182922 825.415405,827.640137 
	C825.012329,826.518433 825.035400,825.821289 825.341919,824.920166 
	C825.742859,822.503357 825.963074,820.290649 825.963318,818.077942 
	C825.994385,548.601440 826.009216,279.124878 826.024963,9.648340 
z"/>
<path fill="#D5D5D5" opacity="1.000000" stroke="none" 
	d="
M825.058472,825.124146 
	C825.035400,825.821289 825.012329,826.518433 825.015991,827.562195 
	C819.587463,827.910767 814.132202,827.912598 808.191833,827.876465 
	C807.814819,827.417908 807.922913,826.997375 808.540649,826.261292 
	C814.386353,825.671875 819.722412,825.398010 825.058472,825.124146 
z"/>
<path fill="#FDFDFD" opacity="1.000000" stroke="none" 
	d="
M54.758762,821.902405 
	C46.480354,821.893677 38.201946,821.885010 29.107626,821.675171 
	C28.056360,817.557190 27.688017,813.642944 27.610508,809.722900 
	C27.374920,797.808044 27.251694,785.890930 27.084721,773.974731 
	C29.099180,773.599731 31.113523,772.897034 33.128109,772.896362 
	C183.204163,772.845215 333.280243,772.849426 483.356323,772.849792 
	C587.127014,772.849976 690.897705,772.848816 794.668396,772.868042 
	C796.647583,772.868408 798.626709,773.113647 800.622925,773.981812 
	C800.751282,789.815308 800.862549,804.911438 800.973755,820.007629 
	C799.436035,820.606323 797.904663,821.704651 796.359436,821.724487 
	C784.252686,821.879822 772.143372,821.828247 759.568726,821.347046 
	C758.509460,818.252197 759.820862,817.880859 762.086609,817.913330 
	C770.353882,818.032227 778.623840,817.960266 787.014221,817.960266 
	C787.014221,814.123108 787.014221,810.721069 787.014221,806.955994 
	C778.690979,806.955994 770.573425,807.034851 762.461060,806.867004 
	C761.304565,806.843079 760.223755,805.187866 759.019104,805.046997 
	C756.445129,804.745850 753.792847,804.752991 751.214539,805.027405 
	C750.177429,805.137878 749.257874,806.854858 748.272095,806.867676 
	C737.459839,807.007874 726.644348,807.007263 715.832092,806.868103 
	C714.861328,806.855652 713.960022,805.145264 712.933777,805.026917 
	C710.320374,804.725403 707.631226,804.665710 705.019836,804.948120 
	C703.854797,805.074036 702.833008,806.798645 701.695740,806.859741 
	C697.290771,807.096619 692.865479,806.956055 688.592041,806.956055 
	C688.592041,811.019226 688.592041,814.410706 688.592041,818.055908 
	C694.258911,818.055908 699.551147,818.055908 704.920105,818.055908 
	C704.920105,819.477783 704.920105,820.634399 704.920105,821.791016 
	C508.415558,821.794250 311.911041,821.797363 115.406494,821.802307 
	C113.908180,821.802307 112.409859,821.825867 110.275887,821.847778 
	C109.640228,821.857239 109.226540,821.919128 109.159241,821.615601 
	C109.091949,820.227966 109.091949,819.143860 109.091949,817.916077 
	C118.508331,817.916077 127.588921,817.916077 137.481628,817.916077 
	C136.969666,814.161133 136.489685,810.640930 135.545898,807.044434 
	C126.403076,806.942688 117.724075,806.917175 108.994797,806.547241 
	C108.715179,805.389709 108.485840,804.576599 108.256508,803.763428 
	C107.637062,804.063782 107.017616,804.364197 106.335480,804.655884 
	C106.272781,804.647217 106.244301,804.523865 106.069641,804.129089 
	C103.366493,803.436646 100.603439,802.778564 100.507629,806.945679 
	C87.697159,806.961182 75.353661,806.967468 62.860809,806.556213 
	C62.907490,801.736572 59.558640,804.084839 57.776253,803.641357 
	C55.048664,802.962769 54.847984,804.867310 54.496994,806.906982 
	C49.664425,807.007812 45.277573,807.066895 40.578667,807.060425 
	C39.848808,807.049255 39.431004,807.103638 38.696213,807.159912 
	C38.373920,807.761841 38.368610,808.361938 38.255013,809.396851 
	C38.146725,812.440308 38.146725,815.048889 38.146725,818.045959 
	C44.042908,818.045959 49.457928,818.045959 55.075562,818.045959 
	C54.947384,819.606323 54.853073,820.754333 54.758762,821.902405 
M376.512573,816.802673 
	C404.951996,816.802673 433.391418,816.802673 461.868591,816.802673 
	C461.868591,814.007385 461.868591,811.612000 461.868591,809.283752 
	C428.863312,809.283752 396.134308,809.283752 363.598572,809.283752 
	C363.598572,812.009521 363.598572,814.384827 363.598572,816.802612 
	C367.863007,816.802612 371.690704,816.802612 376.512573,816.802673 
z"/>
<path fill="#FBFBFB" opacity="1.000000" stroke="none" 
	d="
M28.097441,549.762268 
	C27.844797,549.386963 27.592146,549.011658 27.393475,547.897949 
	C27.312521,538.101562 27.177589,529.043518 27.042656,519.985474 
	C29.065861,519.624512 31.088984,518.947937 33.112282,518.947388 
	C219.032303,518.899048 404.952332,518.902466 590.872375,518.902405 
	C658.676575,518.902405 726.480713,518.902344 794.284912,518.902283 
	C796.265503,518.902283 798.246094,518.902283 800.842590,518.902283 
	C800.842590,528.947449 800.842590,538.713318 800.342346,548.992310 
	C797.847534,549.571167 795.852905,549.694458 793.858337,549.694580 
	C599.584595,549.702942 405.310822,549.697205 211.037064,549.704346 
	C150.057190,549.706604 89.077309,549.742004 28.097441,549.762268 
z"/>
<path fill="#FCFCFC" opacity="1.000000" stroke="none" 
	d="
M799.877258,303.047241 
	C800.193787,303.523132 800.510315,303.998962 800.759583,305.109467 
	C800.811951,314.823792 800.931641,323.903473 801.051270,332.983124 
	C799.022339,333.322418 796.993408,333.958557 794.964417,333.958893 
	C540.745117,334.003357 286.525848,334.000916 32.306561,334.001099 
	C31.140440,334.001099 29.974321,334.003723 28.128376,333.592773 
	C27.466352,328.376801 27.397390,323.570831 27.525343,318.770142 
	C27.664881,313.534821 27.986927,308.304352 28.680992,303.124817 
	C268.722260,303.176605 508.311981,303.177979 747.901672,303.168610 
	C765.226868,303.167938 782.552063,303.089508 799.877258,303.047241 
z"/>
<path fill="#FDFDFD" opacity="1.000000" stroke="none" 
	d="
M800.797058,557.452026 
	C800.803406,557.805420 800.809753,558.158813 800.753662,559.129517 
	C800.491760,568.839294 800.292297,577.931763 799.619324,586.993042 
	C544.094360,586.960144 289.043030,586.958313 33.991650,586.958862 
	C31.993139,586.958862 29.994629,586.990051 27.996119,587.006714 
	C27.996119,587.006714 27.971138,587.002625 27.763088,586.579590 
	C27.723829,576.449768 27.892624,566.743103 28.061417,557.036377 
	C28.061417,557.036377 27.991486,557.027100 28.483006,557.081177 
	C284.591614,557.130432 540.208740,557.124939 795.825806,557.134399 
	C797.482910,557.134460 799.139954,557.341614 800.797058,557.452026 
z"/>
<path fill="#FAFAFA" opacity="1.000000" stroke="none" 
	d="
M27.137035,467.951721 
	C27.229525,463.611938 27.322014,459.272125 27.429415,454.260345 
	C27.312315,452.720123 27.180307,451.851868 27.048300,450.983643 
	C29.003317,450.470795 30.958126,449.509857 32.913383,449.508942 
	C182.398636,449.438782 331.883911,449.443848 481.369202,449.443878 
	C585.692261,449.443909 690.015381,449.445129 794.338440,449.445831 
	C796.307373,449.445831 798.276306,449.445831 800.496033,449.445831 
	C800.496033,459.151825 800.496033,468.367859 800.496033,478.008606 
	C798.381836,478.008606 796.424377,478.008606 794.466919,478.008606 
	C540.658569,478.008972 286.850189,478.009979 33.041836,477.996307 
	C31.224718,477.996216 29.407612,477.794434 27.515755,477.020325 
	C27.339682,473.553162 27.238358,470.752441 27.137035,467.951721 
z"/>
<path fill="#FAFAFA" opacity="1.000000" stroke="none" 
	d="
M28.125834,117.691719 
	C27.836748,117.286179 27.547663,116.880638 27.352770,115.886627 
	C27.317818,106.858627 27.188671,98.419098 27.059528,89.979584 
	C28.604269,89.651245 30.148962,89.035492 31.693758,89.035233 
	C286.840881,88.992722 541.987976,88.994354 797.135132,88.994247 
	C798.128906,88.994247 799.122620,88.994247 800.850769,88.994247 
	C800.850769,98.263824 800.850769,107.358871 800.330444,116.935555 
	C798.149109,117.482002 796.488037,117.603531 794.826965,117.603600 
	C602.900391,117.611404 410.973785,117.603409 219.047195,117.613243 
	C155.406738,117.616501 91.766289,117.664291 28.125834,117.691719 
z"/>
<path fill="#FBFBFB" opacity="1.000000" stroke="none" 
	d="
M800.893188,377.253723 
	C800.893188,386.535950 800.893188,395.818146 800.893188,405.717590 
	C798.550964,405.717590 796.768250,405.717590 794.985535,405.717590 
	C541.067993,405.717316 287.150421,405.719055 33.232864,405.679443 
	C31.318356,405.679138 29.403942,405.114716 27.468872,403.984741 
	C27.318846,394.763641 27.189430,386.371521 27.060015,377.979401 
	C27.211111,377.700104 27.407038,377.456909 28.289261,377.130493 
	C283.923248,377.013641 538.915771,377.015472 793.908325,377.028259 
	C796.236633,377.028381 798.564880,377.175323 800.893188,377.253723 
z"/>
<path fill="#FCFCFC" opacity="1.000000" stroke="none" 
	d="
M27.094053,294.766998 
	C27.094051,294.766998 27.259584,294.393158 27.364523,293.848206 
	C27.607143,284.522675 27.744825,275.742065 27.882507,266.961487 
	C94.011383,266.973541 160.140259,266.994324 226.269135,266.996002 
	C415.828064,267.000793 605.387024,266.994232 794.945923,267.047272 
	C796.879700,267.047791 798.813171,267.793030 800.722839,268.971436 
	C800.813049,277.830292 800.927246,285.908325 801.041443,293.986359 
	C801.041443,293.986359 800.868469,294.448059 800.688416,294.822327 
	C800.244324,295.436859 799.980286,295.677124 799.270325,295.845764 
	C797.657837,295.765381 796.491211,295.748871 795.324646,295.748840 
	C541.331787,295.746826 287.338959,295.745636 33.346107,295.751373 
	C31.682991,295.751434 30.019880,295.847687 28.162594,295.690979 
	C27.676966,295.244263 27.385511,295.005646 27.094053,294.766998 
z"/>
<path fill="#FEFEFE" opacity="1.000000" stroke="none" 
	d="
M800.847839,666.330322 
	C800.781799,675.219971 800.715820,684.109558 800.097656,693.480103 
	C798.713257,693.986572 797.880920,694.034363 797.048584,694.034363 
	C542.304321,694.036560 287.560059,694.036011 32.815792,694.021667 
	C31.326437,694.021606 29.837093,693.829346 28.339214,693.351074 
	C28.131516,689.616760 27.932344,686.258179 27.733173,682.899597 
	C27.649788,677.475586 27.566402,672.051514 28.207724,666.333862 
	C284.078339,666.042297 539.224243,666.043701 794.370117,666.058228 
	C796.529358,666.058350 798.688599,666.235718 800.847839,666.330322 
z"/>
<path fill="#FEFEFE" opacity="1.000000" stroke="none" 
	d="
M31.030411,658.650269 
	C30.568176,658.565125 30.105942,658.480042 29.074984,658.337585 
	C28.152832,658.236145 27.799404,658.192078 27.445976,658.147949 
	C27.445978,658.147949 27.247263,658.531372 27.285084,657.917603 
	C27.460886,648.177063 27.598866,639.050354 27.736847,629.923584 
	C283.383636,629.926575 539.030396,629.928833 794.677185,629.947693 
	C796.659180,629.947876 798.641235,630.176636 800.658447,631.019348 
	C800.818115,640.152710 800.942688,648.565491 801.067261,656.978210 
	C800.586304,657.413635 800.105347,657.849121 798.874268,658.317749 
	C797.624634,658.339478 797.125000,658.318054 796.625427,658.318054 
	C542.910400,658.316711 289.195435,658.316223 35.480442,658.330811 
	C33.997093,658.330872 32.513756,658.539185 31.030411,658.650269 
z"/>
<path fill="#FCFCFC" opacity="1.000000" stroke="none" 
	d="
M27.064751,161.977783 
	C27.064753,161.977783 27.243053,161.616837 27.408211,161.290527 
	C27.813118,160.676620 28.052868,160.389038 28.292618,160.101456 
	C31.122587,160.140839 33.952560,160.214661 36.782532,160.214722 
	C289.224335,160.219421 541.666138,160.215759 794.107910,160.261200 
	C796.314819,160.261597 798.521667,160.916641 800.731079,161.798752 
	C800.818298,162.889130 800.902893,163.446793 800.987427,164.004456 
	C800.899109,169.699860 800.810791,175.395279 800.704224,181.763245 
	C800.786499,183.292114 800.886963,184.148407 800.987427,185.004700 
	C800.265503,187.016876 799.543579,189.029037 798.307617,190.577393 
	C795.605164,189.743393 793.416931,189.049423 791.228516,189.048996 
	C540.142395,189.000244 289.056335,189.003021 37.970242,189.003571 
	C36.470749,189.003571 34.923725,188.788971 33.488911,189.095688 
	C32.571922,189.291718 31.820831,190.263824 30.995369,190.888031 
	C29.819933,190.803436 28.644497,190.718857 27.477537,189.973404 
	C27.345592,180.200943 27.205172,171.089371 27.064751,161.977783 
M615.500000,183.997559 
	C675.761963,183.997559 736.023987,183.997559 796.285950,183.997559 
	C796.283325,183.564804 796.280701,183.132050 796.278076,182.699295 
	C541.425476,182.699295 286.572845,182.699295 31.720215,182.699295 
	C31.720343,183.132050 31.720472,183.564804 31.720600,183.997559 
	C225.980408,183.997559 420.240204,183.997559 615.500000,183.997559 
z"/>
<path fill="#FAFAFA" opacity="1.000000" stroke="none" 
	d="
M27.643364,704.959473 
	C27.595144,704.682556 27.507338,704.404236 27.516857,704.129272 
	C27.521067,704.007751 27.722532,703.893005 28.404099,703.588623 
	C284.725830,703.392517 540.477966,703.382324 796.230042,703.386963 
	C797.721313,703.386963 799.212524,703.592773 800.703796,703.702393 
	C800.699646,712.919373 800.695496,722.136353 800.218628,731.415283 
	C799.404053,731.342346 799.160095,731.462036 799.013916,731.836304 
	C798.567871,731.888855 798.121887,731.941345 797.230103,731.546021 
	C794.758057,730.736877 792.731873,730.059692 790.705505,730.059265 
	C539.769287,730.012024 288.833069,730.014465 37.896854,730.018127 
	C36.232109,730.018127 34.553513,729.963989 32.912956,730.177551 
	C32.533096,730.227112 32.283161,731.274353 31.973438,731.862427 
	C31.310572,731.905762 30.647705,731.949158 29.498571,731.400635 
	C29.004358,723.657959 29.070278,716.505676 28.927702,709.357544 
	C28.898300,707.883545 28.091728,706.425110 27.643364,704.959473 
z"/>
<path fill="#FEFEFE" opacity="1.000000" stroke="none" 
	d="
M27.475775,738.882080 
	C29.473627,738.835754 31.471478,738.748962 33.469334,738.748962 
	C287.062622,738.742676 540.655945,738.741577 794.249207,738.764160 
	C796.384094,738.764343 798.519043,739.088196 800.671753,739.999146 
	C800.813293,748.818298 800.937012,756.899231 801.060791,764.980225 
	C799.040283,765.328735 797.019775,765.982178 794.999207,765.982544 
	C543.417847,766.028320 291.836487,766.025818 40.255119,766.026123 
	C36.423115,766.026123 32.591110,766.029419 28.096603,765.604614 
	C27.447992,756.412659 27.461884,747.647400 27.475775,738.882080 
z"/>
<path fill="#FEFEFE" opacity="1.000000" stroke="none" 
	d="
M27.726215,485.920776 
	C283.210266,485.926697 538.694275,485.931732 794.178345,485.953461 
	C796.327576,485.953644 798.476868,486.179199 800.659180,487.019379 
	C800.817810,495.485382 800.943298,503.231476 801.068848,510.977600 
	C799.057861,511.342285 797.046936,512.025879 795.035889,512.026306 
	C584.243225,512.074951 373.450500,512.072754 162.657822,512.072144 
	C117.999786,512.072021 73.341751,512.066528 28.044872,511.620087 
	C27.512756,502.758057 27.619486,494.339417 27.726215,485.920776 
z"/>
<path fill="#FEFEFE" opacity="1.000000" stroke="none" 
	d="
M801.062927,258.976562 
	C800.581909,259.437103 800.100891,259.897675 798.876221,260.406525 
	C794.967407,260.436981 791.802246,260.403503 788.637085,260.403534 
	C535.070862,260.405884 281.504669,260.410919 27.938484,260.415741 
	C27.938484,260.415741 27.781509,260.091614 27.572823,259.639465 
	C27.549627,250.779007 27.735121,242.370712 27.920616,233.962402 
	C27.920614,233.962402 27.948103,233.999954 28.435125,234.019302 
	C284.650543,234.040665 540.378967,234.042801 796.107361,234.041733 
	C797.439392,234.041733 798.771423,233.996826 800.373901,234.374207 
	C800.783936,242.842529 800.923401,250.909546 801.062927,258.976562 
z"/>
<path fill="#FEFEFE" opacity="1.000000" stroke="none" 
	d="
M801.011353,152.012100 
	C800.363403,152.654236 799.819092,153.573837 799.039978,153.864944 
	C798.159912,154.193756 797.068787,153.966202 796.069458,153.966171 
	C540.366821,153.961319 284.664185,153.955154 28.285534,153.541962 
	C27.749245,143.761978 27.888948,134.389069 28.028654,125.016174 
	C28.028654,125.016174 27.996103,125.029549 28.478050,125.065033 
	C282.639587,125.095375 536.319153,125.090561 789.998718,125.081741 
	C793.328857,125.081627 796.659058,125.030899 799.989197,125.003799 
	C800.257690,125.494469 800.526245,125.985138 800.736938,127.109215 
	C800.550171,133.840179 800.421204,139.937744 799.849487,146.016602 
	C796.118408,145.666885 792.830200,145.046661 789.541870,145.046066 
	C539.094055,145.001068 288.646179,144.998291 38.198368,145.095444 
	C35.605179,145.096451 33.012520,146.462921 30.419611,147.191956 
	C32.973412,147.794632 35.527042,148.924301 38.081036,148.925125 
	C286.529266,149.005417 534.977539,149.006790 783.425781,148.956833 
	C789.046814,148.955704 794.667664,148.311050 800.437683,148.356659 
	C800.728271,149.835190 800.869812,150.923645 801.011353,152.012100 
z"/>
<path fill="#FFFFFF" opacity="1.000000" stroke="none" 
	d="
M27.050272,341.980621 
	C28.730333,341.591125 30.410328,340.860748 32.090462,340.860413 
	C286.691437,340.810516 541.292419,340.813354 795.893433,340.813934 
	C797.359741,340.813934 798.826050,340.813934 800.617371,340.813934 
	C800.617371,347.822449 800.617371,354.437439 800.053406,361.512390 
	C797.657166,361.982422 795.824951,362.001282 793.992676,362.001343 
	C538.624207,362.006775 283.255707,362.010803 27.732510,361.567413 
	C27.401957,354.740173 27.226114,348.360382 27.050272,341.980621 
z"/>
<path fill="#FFFFFF" opacity="1.000000" stroke="none" 
	d="
M800.094604,411.966400 
	C800.276978,412.178162 800.459351,412.389893 800.675476,413.392029 
	C800.571838,420.465942 800.434448,426.749481 799.808350,433.022583 
	C542.176392,433.010498 285.033173,433.008881 27.728592,432.562073 
	C27.711594,425.411285 27.855961,418.705658 28.468571,412.020691 
	C282.824707,412.036682 536.712585,412.032257 790.600464,412.024841 
	C793.765198,412.024750 796.929871,411.986725 800.094604,411.966400 
z"/>
<path fill="#FFFFFF" opacity="1.000000" stroke="none" 
	d="
M27.059126,52.977051 
	C27.259846,52.665363 27.460566,52.353676 28.289335,51.845566 
	C30.083258,51.637081 31.249132,51.614471 32.415005,51.614460 
	C285.954163,51.611950 539.493286,51.611790 793.032471,51.596359 
	C795.015259,51.596237 796.998047,51.388874 798.980835,51.278267 
	C799.606995,51.679577 800.233093,52.080894 800.766724,53.107307 
	C800.548889,59.826145 800.423462,65.919891 799.810730,72.009918 
	C546.116211,72.004333 292.908997,72.000175 39.701824,72.023148 
	C36.019897,72.023483 31.707636,70.645950 29.804674,75.717293 
	C29.695301,76.008766 28.564190,75.916840 27.752781,75.556778 
	C27.417686,67.732498 27.238405,60.354774 27.059126,52.977051 
z"/>
<path fill="#FFFFFF" opacity="1.000000" stroke="none" 
	d="
M27.048512,198.981216 
	C29.074759,198.622253 31.100931,197.949387 33.127266,197.948883 
	C229.221817,197.900650 425.316376,197.903534 621.410950,197.903107 
	C679.056396,197.902969 736.701904,197.902573 794.347351,197.902298 
	C796.319275,197.902298 798.291138,197.902298 800.628113,197.902298 
	C800.628113,204.183029 800.628113,210.127655 800.052368,216.525177 
	C795.811951,216.985504 792.147339,216.999390 788.482727,216.999435 
	C534.955750,217.002686 281.428772,217.004852 27.735264,216.564468 
	C27.395321,210.408295 27.221916,204.694748 27.048512,198.981216 
z"/>
<path fill="#FAFAFA" opacity="1.000000" stroke="none" 
	d="
M825.341919,824.920105 
	C819.722412,825.398010 814.386353,825.671875 808.643066,825.951904 
	C808.153015,815.633179 807.998596,805.308411 807.998047,794.983582 
	C807.984863,545.829346 807.987976,296.675140 807.989502,47.520908 
	C807.989563,39.688526 808.005066,31.856146 808.066284,23.564457 
	C812.923340,19.223427 817.727539,15.341704 822.739563,11.202326 
	C823.759827,10.586123 824.572266,10.227577 825.704834,9.758688 
	C826.009216,279.124878 825.994385,548.601440 825.963318,818.077942 
	C825.963074,820.290649 825.742859,822.503357 825.341919,824.920105 
z"/>
<path fill="#FFFFFF" opacity="1.000000" stroke="none" 
	d="
M27.048592,595.981323 
	C27.238869,595.686951 27.429146,595.392517 28.267921,594.944641 
	C284.602295,594.787109 540.288208,594.782349 795.974060,594.794617 
	C797.628113,594.794678 799.282166,595.031250 800.936218,595.157410 
	C800.936218,595.157410 800.908936,595.602173 800.797852,596.168701 
	C800.558044,602.168152 800.429382,607.601013 799.811768,613.023926 
	C543.217529,613.010986 287.112213,613.007935 30.619732,613.003052 
	C29.458191,613.001343 28.683821,613.001343 27.740444,612.560547 
	C27.397156,606.740295 27.222876,601.360779 27.048592,595.981323 
z"/>
<path fill="#FFFFFF" opacity="1.000000" stroke="none" 
	d="
M28.832077,27.485931 
	C31.136652,27.385635 33.441223,27.197611 35.745804,27.197493 
	C288.159241,27.184532 540.572693,27.185781 792.986145,27.183115 
	C794.984863,27.183094 796.983643,27.140768 799.659363,27.494957 
	C800.323547,31.593634 800.310669,35.315544 799.809082,39.026222 
	C542.880371,39.010399 286.440399,39.005810 29.876732,38.779613 
	C29.125120,38.364273 28.497175,38.170540 27.869230,37.976803 
	C27.750874,34.900909 27.632515,31.825018 27.931740,28.571354 
	C28.510242,28.091030 28.671158,27.788481 28.832077,27.485931 
z"/>
<path fill="#F9F9F9" opacity="1.000000" stroke="none" 
	d="
M27.908594,76.003342 
	C28.564190,75.916840 29.695301,76.008766 29.804674,75.717293 
	C31.707636,70.645950 36.019897,72.023483 39.701824,72.023148 
	C292.908997,72.000175 546.116211,72.004333 799.965576,72.417480 
	C800.762695,75.544601 800.917664,78.260445 801.072632,80.976273 
	C798.917969,81.399910 796.763428,82.194122 794.608704,82.194626 
	C551.568115,82.251129 308.527496,82.249008 65.486900,82.247528 
	C53.160057,82.247452 40.833210,82.224426 27.938248,81.727295 
	C27.549618,79.496124 27.729105,77.749741 27.908594,76.003342 
z"/>
<path fill="#FCFCFC" opacity="1.000000" stroke="none" 
	d="
M27.909454,613.001404 
	C28.683821,613.001343 29.458191,613.001343 30.633778,613.417908 
	C32.767395,614.555542 34.499580,615.907654 36.232235,615.908203 
	C290.921417,615.993835 545.610596,615.981445 800.445801,616.340271 
	C800.746887,618.465271 800.901978,620.223389 801.057007,621.981506 
	C799.045166,622.347168 797.033447,623.032654 795.021545,623.033081 
	C565.403320,623.081421 335.785034,623.078857 106.166794,623.078979 
	C80.338959,623.078979 54.511120,623.078369 28.048458,622.640381 
	C27.578909,619.135620 27.744183,616.068542 27.909454,613.001404 
z"/>
<path fill="#FEFEFE" opacity="1.000000" stroke="none" 
	d="
M27.099005,225.747055 
	C27.099005,225.747055 27.213547,225.371948 27.341707,224.876831 
	C27.620356,222.586136 27.770844,220.790543 28.360607,219.003571 
	C34.256611,219.340637 39.713284,219.955368 45.170074,219.956406 
	C292.825928,220.003860 540.481812,219.999908 788.137695,219.968048 
	C790.934082,219.967682 793.727295,219.415527 796.528198,219.333588 
	C797.788574,219.296707 799.064331,219.784134 800.333069,220.033691 
	C800.074524,222.101166 799.815918,224.168640 798.830933,226.254028 
	C795.939209,226.262482 793.773926,226.244781 791.608582,226.244766 
	C539.084595,226.243668 286.560638,226.245224 34.036648,226.223465 
	C31.724087,226.223267 29.411552,225.912704 27.099005,225.747055 
z"/>
<path fill="#FEFEFE" opacity="1.000000" stroke="none" 
	d="
M27.991627,369.216888 
	C27.742464,368.976562 27.493301,368.736237 27.350761,367.970612 
	C27.599703,366.292175 27.742020,365.139069 28.358154,363.995483 
	C283.338104,364.002380 537.844238,363.999481 792.350342,363.999359 
	C795.015015,363.999359 797.679688,364.035889 800.344360,364.055359 
	C800.500244,365.381531 800.656189,366.707703 800.415894,368.518402 
	C798.356384,369.045288 796.693237,369.124695 795.030029,369.124725 
	C603.509155,369.130219 411.988281,369.129181 220.467422,369.138855 
	C218.642761,369.138947 216.818085,369.276917 214.533417,369.257843 
	C200.051498,369.228363 186.029556,369.291534 171.586548,369.254272 
	C169.441422,369.220367 167.717407,369.286926 165.625977,369.260376 
	C164.508240,369.228455 163.757919,369.289642 162.548218,369.250458 
	C141.723679,369.217560 121.358543,369.285034 100.601280,369.259918 
	C99.141975,369.228394 98.074783,369.289429 96.548286,369.249695 
	C82.390442,369.216766 68.691902,369.284637 54.601227,369.259949 
	C53.141937,369.229126 52.074791,369.290802 50.548359,369.251740 
	C42.723263,369.172974 35.357445,369.194946 27.991627,369.216888 
z"/>
<path fill="#FEFEFE" opacity="1.000000" stroke="none" 
	d="
M27.709429,38.390144 
	C28.497175,38.170540 29.125120,38.364273 29.967934,39.175964 
	C32.183598,40.197067 34.184105,40.951012 36.185230,40.952663 
	C109.481430,41.013157 182.777695,41.007469 256.073944,41.003338 
	C437.482086,40.993111 618.890198,40.979210 800.446594,41.249832 
	C800.741577,42.351265 800.888367,43.169651 801.035156,43.988045 
	C799.497559,44.324757 797.960083,44.956207 796.422485,44.956470 
	C541.379822,45.000034 286.337189,44.998352 31.294559,44.998444 
	C30.157207,44.998444 29.019854,44.998444 27.549627,44.998444 
	C27.549627,42.698540 27.549627,40.751015 27.709429,38.390144 
z"/>
<path fill="#FFFFFF" opacity="1.000000" stroke="none" 
	d="
M800.127930,443.041687 
	C798.295471,443.026581 796.463013,442.998230 794.630554,442.998199 
	C539.373230,442.992920 284.115875,442.989746 28.206144,442.631531 
	C27.666853,441.181946 27.779932,440.087311 28.321379,439.006104 
	C31.867548,439.346344 34.985302,439.958771 38.103165,439.959320 
	C286.544403,440.003601 534.985657,440.006744 783.426941,439.957031 
	C789.044189,439.955902 794.661316,439.314392 800.434082,439.369690 
	C800.435730,440.859100 800.281860,441.950378 800.127930,443.041687 
z"/>
<path fill="#0E0E0E" opacity="1.000000" stroke="none" 
	d="
M800.946045,594.733215 
	C799.282166,595.031250 797.628113,594.794678 795.974060,594.794617 
	C540.288208,594.782349 284.602295,594.787109 28.448330,594.747559 
	C28.705111,593.810181 29.263395,592.563599 30.201246,592.120789 
	C31.157612,591.669128 32.487087,592.000977 33.653206,592.000977 
	C287.563416,592.000000 541.473633,591.996399 795.383850,592.069092 
	C797.329956,592.069641 800.357605,590.500854 800.946045,594.733215 
z"/>
<path fill="#D5D5D5" opacity="1.000000" stroke="none" 
	d="
M28.347744,693.726868 
	C29.837093,693.829346 31.326437,694.021606 32.815792,694.021667 
	C287.560059,694.036011 542.304321,694.036560 797.048584,694.034363 
	C797.880920,694.034363 798.713257,693.986572 799.974121,693.925903 
	C799.854858,694.924561 799.529236,696.246216 798.685852,696.897339 
	C798.057861,697.382263 796.759705,697.002197 795.759949,697.002197 
	C540.144958,696.998230 284.529907,696.993835 28.272320,696.680420 
	C27.671165,695.656555 27.712597,694.941589 27.900324,694.099243 
	C28.046618,693.971741 28.347744,693.726868 28.347744,693.726868 
z"/>
<path fill="#090909" opacity="1.000000" stroke="none" 
	d="
M27.126476,226.143890 
	C29.411552,225.912704 31.724087,226.223267 34.036648,226.223465 
	C286.560638,226.245224 539.084595,226.243668 791.608582,226.244766 
	C793.773926,226.244781 795.939209,226.262482 798.487183,226.385513 
	C799.257446,227.197266 799.645142,227.895447 800.258118,228.999313 
	C798.337708,228.999313 796.734924,228.999313 795.132202,228.999313 
	C542.862305,228.999313 290.592438,229.009903 38.322613,228.897202 
	C34.599373,228.895538 30.876822,227.360260 27.126476,226.143890 
z"/>
<path fill="#F3F3F3" opacity="1.000000" stroke="none" 
	d="
M800.491516,219.664856 
	C799.064331,219.784134 797.788574,219.296707 796.528198,219.333588 
	C793.727295,219.415527 790.934082,219.967682 788.137695,219.968048 
	C540.481812,219.999908 292.825928,220.003860 45.170074,219.956406 
	C39.713284,219.955368 34.256611,219.340637 28.207012,218.685181 
	C27.710030,217.907822 27.805916,217.457458 27.901802,217.007111 
	C281.428772,217.004852 534.955750,217.002686 788.482727,216.999435 
	C792.147339,216.999390 795.811951,216.985504 799.901245,216.967468 
	C800.433960,217.736588 800.541992,218.516296 800.491516,219.664856 
z"/>
<path fill="#090909" opacity="1.000000" stroke="none" 
	d="
M28.083002,260.608459 
	C281.504669,260.410919 535.070862,260.405884 788.637085,260.403534 
	C791.802246,260.403503 794.967407,260.436981 798.583496,260.597321 
	C798.340881,261.486237 797.759094,262.668671 796.928711,262.881592 
	C795.520264,263.242737 793.954956,262.997986 792.455627,262.998016 
	C543.543091,262.998840 294.630524,263.004913 45.717995,262.957153 
	C40.430962,262.956146 35.144054,262.334198 29.428543,262.000946 
	C29.000000,262.000000 29.001038,262.001221 29.001041,262.001221 
	C28.743202,261.601227 28.485361,261.201202 28.083002,260.608459 
z"/>
<path fill="#090909" opacity="1.000000" stroke="none" 
	d="
M798.916870,50.860538 
	C796.998047,51.388874 795.015259,51.596237 793.032471,51.596359 
	C539.493286,51.611790 285.954163,51.611950 32.415005,51.614460 
	C31.249132,51.614471 30.083258,51.637081 28.448698,51.614388 
	C28.742035,50.723782 29.362291,49.411308 30.299677,49.120274 
	C31.668478,48.695293 33.265045,49.000355 34.764523,49.000351 
	C287.180817,48.999805 539.597107,48.996006 792.013367,49.059486 
	C794.293335,49.060059 796.572998,49.961796 798.916870,50.860538 
z"/>
<path fill="#090909" opacity="1.000000" stroke="none" 
	d="
M31.086176,659.073486 
	C32.513756,658.539185 33.997093,658.330872 35.480442,658.330811 
	C289.195435,658.316223 542.910400,658.316711 796.625427,658.318054 
	C797.125000,658.318054 797.624634,658.339478 798.576843,658.487427 
	C798.371582,659.405640 797.838257,660.647400 797.028137,660.866760 
	C795.628906,661.245728 794.057800,660.998596 792.558777,660.998596 
	C541.017944,661.000000 289.477142,661.003967 37.936356,660.937805 
	C35.671425,660.937256 33.406738,659.997742 31.086176,659.073486 
z"/>
<path fill="#090909" opacity="1.000000" stroke="none" 
	d="
M100.993401,369.352478 
	C121.358543,369.285034 141.723679,369.217560 162.619415,369.543457 
	C164.097794,369.742401 165.045578,369.547913 165.993378,369.353455 
	C167.717407,369.286926 169.441422,369.220367 171.718857,369.617981 
	C172.829483,370.377319 173.385559,370.927795 173.944077,370.930298 
	C186.741074,370.987946 199.538574,371.018616 212.335022,370.924103 
	C213.224991,370.917511 214.107468,369.898621 214.993423,369.350494 
	C216.818085,369.276917 218.642761,369.138947 220.467422,369.138855 
	C411.988281,369.129181 603.509155,369.130219 795.030029,369.124725 
	C796.693237,369.124695 798.356384,369.045288 800.477966,368.919128 
	C800.037476,369.885986 799.325928,371.323395 798.185608,371.875641 
	C797.104248,372.399384 795.573730,371.999481 794.240723,371.999481 
	C540.958740,372.000000 287.676758,372.004791 34.394802,371.918152 
	C32.273827,371.917419 30.153278,370.680786 28.012081,369.619019 
	C35.357445,369.194946 42.723263,369.172974 50.634705,369.558197 
	C52.451347,369.761078 53.722359,369.556793 54.993370,369.352478 
	C68.691902,369.284637 82.390442,369.216766 96.634430,369.556335 
	C98.451065,369.759979 99.722229,369.556213 100.993401,369.352478 
z"/>
<path fill="#181818" opacity="1.000000" stroke="none" 
	d="
M28.356766,295.899017 
	C30.019880,295.847687 31.682991,295.751434 33.346107,295.751373 
	C287.338959,295.745636 541.331787,295.746826 795.324646,295.748840 
	C796.491211,295.748871 797.657837,295.765381 799.585815,295.817932 
	C800.557983,295.849762 800.768738,295.837860 800.979431,295.825989 
	C799.569519,296.547974 798.174072,297.859375 796.747192,297.894501 
	C788.589355,298.095398 780.423950,297.993073 772.261169,297.993042 
	C526.044250,297.992584 279.827271,297.995392 33.610352,297.937164 
	C31.467678,297.936676 29.325199,297.115723 27.430050,296.275696 
	C27.903900,295.882050 28.130333,295.890533 28.356766,295.899017 
z"/>
<path fill="#181818" opacity="1.000000" stroke="none" 
	d="
M800.145752,302.823090 
	C782.552063,303.089508 765.226868,303.167938 747.901672,303.168610 
	C508.311981,303.177979 268.722260,303.176605 28.341505,303.132568 
	C27.324692,303.070374 27.098946,303.053467 26.873201,303.036560 
	C27.686632,302.366974 28.413881,301.327728 29.333437,301.113373 
	C30.757380,300.781403 32.312576,301.005707 33.812126,301.005707 
	C287.417084,301.004578 541.022034,301.000916 794.626953,301.070160 
	C796.556152,301.070679 798.485107,302.067383 800.145752,302.823090 
z"/>
<path fill="#0E0E0E" opacity="1.000000" stroke="none" 
	d="
M800.316895,411.707397 
	C796.929871,411.986725 793.765198,412.024750 790.600464,412.024841 
	C536.712585,412.032257 282.824707,412.036682 28.196697,412.025024 
	C27.275789,411.995605 27.094992,411.982483 26.914196,411.969360 
	C27.733192,411.319458 28.471273,410.309174 29.389883,410.102936 
	C30.818405,409.782166 32.369694,410.003174 33.868950,410.003174 
	C287.418365,410.002441 540.967773,409.999115 794.517212,410.062256 
	C796.524658,410.062744 798.531799,410.966431 800.316895,411.707397 
z"/>
<path fill="#181818" opacity="1.000000" stroke="none" 
	d="
M28.096716,587.400024 
	C29.994629,586.990051 31.993139,586.958862 33.991650,586.958862 
	C289.043030,586.958313 544.094360,586.960144 799.892822,586.945862 
	C800.824646,586.939148 801.009460,586.948425 801.194214,586.957703 
	C800.037415,587.634888 798.945068,588.692078 797.708984,588.901794 
	C795.766052,589.231323 793.726318,588.990173 791.727539,588.990173 
	C539.383545,588.990234 287.039490,588.993225 34.695496,588.940735 
	C32.529358,588.940308 30.363373,588.192322 28.096716,587.400024 
z"/>
<path fill="#181818" opacity="1.000000" stroke="none" 
	d="
M800.103455,233.972885 
	C798.771423,233.996826 797.439392,234.041733 796.107361,234.041733 
	C540.378967,234.042801 284.650543,234.040665 28.453575,234.005127 
	C29.622536,233.316971 31.256742,232.102234 32.898109,232.092468 
	C54.397289,231.964767 75.897484,232.007187 97.397423,232.007217 
	C329.730103,232.007614 562.062744,232.004639 794.395447,232.060699 
	C796.560852,232.061218 798.726196,232.849274 800.767944,233.669785 
	C800.464050,234.037567 800.283752,234.005219 800.103455,233.972885 
z"/>
<path fill="#0E0E0E" opacity="1.000000" stroke="none" 
	d="
M800.848389,376.838928 
	C798.564880,377.175323 796.236633,377.028381 793.908325,377.028259 
	C538.915771,377.015472 283.923248,377.013641 28.463223,376.972107 
	C29.640003,376.289093 31.280994,375.094543 32.929081,375.084656 
	C54.082237,374.957916 75.236397,375.000092 96.390305,375.000122 
	C329.083252,375.000397 561.776184,374.997070 794.469116,375.060059 
	C796.580750,375.060638 798.692139,375.949799 800.848389,376.838928 
z"/>
<path fill="#181818" opacity="1.000000" stroke="none" 
	d="
M800.233582,124.761780 
	C796.659058,125.030899 793.328857,125.081627 789.998718,125.081741 
	C536.319153,125.090561 282.639587,125.095375 28.493784,125.073654 
	C29.632355,124.365715 31.233500,123.101753 32.842476,123.091713 
	C54.167141,122.958527 75.492905,123.000519 96.818390,123.000565 
	C329.399506,123.001022 561.980591,122.998047 794.561707,123.065239 
	C796.533936,123.065811 798.505859,124.014000 800.233582,124.761780 
z"/>
<path fill="#EBEBEB" opacity="1.000000" stroke="none" 
	d="
M800.504272,363.712555 
	C797.679688,364.035889 795.015015,363.999359 792.350342,363.999359 
	C537.844238,363.999481 283.338104,364.002380 28.205223,363.678467 
	C27.681389,362.906189 27.784304,362.460541 27.887218,362.014893 
	C283.255707,362.010803 538.624207,362.006775 793.992676,362.001343 
	C795.824951,362.001282 797.657166,361.982422 799.906128,361.954651 
	C800.436707,362.414551 800.550476,362.892151 800.504272,363.712555 
z"/>
<path fill="#0E0E0E" opacity="1.000000" stroke="none" 
	d="
M28.160839,118.110611 
	C91.766289,117.664291 155.406738,117.616501 219.047195,117.613243 
	C410.973785,117.603409 602.900391,117.611404 794.826965,117.603600 
	C796.488037,117.603531 798.149109,117.482002 800.255371,117.353401 
	C800.024536,118.177406 799.508362,119.555305 798.635681,119.839821 
	C797.276184,120.283051 795.674622,119.997429 794.175659,119.997444 
	C540.947693,119.999260 287.719757,120.002563 34.491844,119.938080 
	C32.393055,119.937546 30.294504,119.019287 28.160839,118.110611 
z"/>
<path fill="#0E0E0E" opacity="1.000000" stroke="none" 
	d="
M28.144009,550.177124 
	C89.077309,549.742004 150.057190,549.706604 211.037064,549.704346 
	C405.310822,549.697205 599.584595,549.702942 793.858337,549.694580 
	C795.852905,549.694458 797.847534,549.571167 800.285461,549.415283 
	C800.035522,550.203186 799.497253,551.562866 798.612854,551.847778 
	C797.250671,552.286499 795.651001,552.000732 794.152100,552.000732 
	C540.945312,552.002563 287.738556,552.005920 34.531780,551.944153 
	C32.417938,551.943665 30.304310,551.062134 28.144009,550.177124 
z"/>
<path fill="#0E0E0E" opacity="1.000000" stroke="none" 
	d="
M800.742065,703.261169 
	C799.212524,703.592773 797.721313,703.386963 796.230042,703.386963 
	C540.477966,703.382324 284.725830,703.392517 28.509171,703.367920 
	C28.731268,702.569153 29.299541,701.361450 30.131119,701.139343 
	C31.533569,700.764709 33.102917,701.003967 34.602077,701.003967 
	C287.828827,701.002197 541.055603,700.997559 794.282349,701.077148 
	C796.448486,701.077820 798.614319,702.213867 800.742065,703.261169 
z"/>
<path fill="#181818" opacity="1.000000" stroke="none" 
	d="
M800.812256,665.912292 
	C798.688599,666.235718 796.529358,666.058350 794.370117,666.058228 
	C539.224243,666.043701 284.078339,666.042297 28.464584,666.006958 
	C28.630215,665.335327 29.179140,664.299561 29.915154,664.142883 
	C31.352409,663.837097 32.894218,664.007019 34.392738,664.007019 
	C287.763336,664.004761 541.133911,664.001221 794.504517,664.066406 
	C796.595398,664.066956 798.685974,664.997803 800.812256,665.912292 
z"/>
<path fill="#181818" opacity="1.000000" stroke="none" 
	d="
M800.788452,557.025574 
	C799.139954,557.341614 797.482910,557.134460 795.825806,557.134399 
	C540.208740,557.124939 284.591614,557.130432 28.509659,557.104492 
	C28.805586,556.390137 29.474737,555.316956 30.347980,555.111633 
	C31.770401,554.777161 33.326126,555.003540 34.825600,555.003540 
	C287.914459,555.002502 541.003296,554.998413 794.092163,555.068481 
	C796.321472,555.069092 798.550598,556.066895 800.788452,557.025574 
z"/>
<path fill="#F3F3F3" opacity="1.000000" stroke="none" 
	d="
M31.457363,190.973999 
	C31.820831,190.263824 32.571922,189.291718 33.488911,189.095688 
	C34.923725,188.788971 36.470749,189.003571 37.970242,189.003571 
	C289.056335,189.003021 540.142395,189.000244 791.228516,189.048996 
	C793.416931,189.049423 795.605164,189.743393 797.899048,190.499680 
	C796.843933,190.948639 795.683289,191.066544 794.522583,191.066559 
	C540.321533,191.069809 286.120422,191.064774 31.457363,190.973999 
z"/>
<path fill="#EBEBEB" opacity="1.000000" stroke="none" 
	d="
M32.307102,731.939087 
	C32.283161,731.274353 32.533096,730.227112 32.912956,730.177551 
	C34.553513,729.963989 36.232109,730.018127 37.896854,730.018127 
	C288.833069,730.014465 539.769287,730.012024 790.705505,730.059265 
	C792.731873,730.059692 794.758057,730.736877 796.897461,731.480347 
	C796.015259,731.920715 795.020081,732.029724 794.024841,732.029724 
	C540.230164,732.030029 286.435455,732.022827 32.307102,731.939087 
z"/>
<path fill="#181818" opacity="1.000000" stroke="none" 
	d="
M705.164551,822.112671 
	C704.920105,820.634399 704.920105,819.477783 704.920105,818.055908 
	C699.551147,818.055908 694.258911,818.055908 688.592041,818.055908 
	C688.592041,814.410706 688.592041,811.019226 688.592041,806.956055 
	C692.865479,806.956055 697.290771,807.096619 701.695740,806.859741 
	C702.833008,806.798645 703.854797,805.074036 705.019836,804.948120 
	C707.631226,804.665710 710.320374,804.725403 712.933777,805.026917 
	C713.960022,805.145264 714.861328,806.855652 715.832092,806.868103 
	C726.644348,807.007263 737.459839,807.007874 748.272095,806.867676 
	C749.257874,806.854858 750.177429,805.137878 751.214539,805.027405 
	C753.792847,804.752991 756.445129,804.745850 759.019104,805.046997 
	C760.223755,805.187866 761.304565,806.843079 762.461060,806.867004 
	C770.573425,807.034851 778.690979,806.955994 787.014221,806.955994 
	C787.014221,810.721069 787.014221,814.123108 787.014221,817.960266 
	C778.623840,817.960266 770.353882,818.032227 762.086609,817.913330 
	C759.820862,817.880859 758.509460,818.252197 759.112061,821.280945 
	C756.590271,821.990479 754.059143,822.272644 751.358765,821.804199 
	C750.637878,820.010803 750.099060,818.066284 749.532532,818.058167 
	C737.355530,817.883484 725.175415,817.925476 712.842041,817.925476 
	C712.920837,819.610596 712.974487,820.757446 713.028076,821.904297 
	C710.488403,822.080933 707.948669,822.257629 705.164551,822.112671 
M733.498413,810.035828 
	C726.726746,810.035828 719.955017,810.035828 712.814514,810.035828 
	C712.907715,812.125305 712.983459,813.822693 713.062561,815.596191 
	C725.972473,815.596191 738.377258,815.596191 751.087524,815.596191 
	C751.087524,813.742737 751.087524,812.008423 751.087524,810.035828 
	C745.397034,810.035828 739.947205,810.035828 733.498413,810.035828 
M778.358521,810.034668 
	C771.963318,810.034668 765.568115,810.034668 758.912842,810.034668 
	C759.040466,812.223389 759.132874,813.808838 759.241882,815.678101 
	C766.810425,815.678101 774.066284,815.768799 781.314514,815.574524 
	C782.333557,815.547241 783.829590,814.292419 784.154480,813.295898 
	C784.424255,812.468323 783.560181,810.799988 782.709595,810.215210 
	C781.914490,809.668640 780.476379,810.057312 778.358521,810.034668 
M699.481079,810.036926 
	C697.076416,810.036926 694.671753,810.036926 692.518127,810.036926 
	C690.332275,816.168091 692.060547,816.273315 704.914307,815.188904 
	C704.914307,813.613647 704.914307,812.028625 704.914307,810.037598 
	C703.295227,810.037598 701.859680,810.037598 699.481079,810.036926 
z"/>
<path fill="#090909" opacity="1.000000" stroke="none" 
	d="
M262.000000,483.998779 
	C184.377258,483.998779 107.254524,483.998779 30.131781,483.998779 
	C30.131971,483.761200 30.132160,483.523590 30.132349,483.286011 
	C286.310150,483.286011 542.487915,483.286011 798.665710,483.286011 
	C798.666077,483.523590 798.666443,483.761200 798.666809,483.998779 
	C619.944519,483.998779 441.222260,483.998779 262.000000,483.998779 
z"/>
<path fill="#090909" opacity="1.000000" stroke="none" 
	d="
M106.398170,804.664551 
	C107.017616,804.364197 107.637062,804.063782 108.256508,803.763428 
	C108.485840,804.576599 108.715179,805.389709 108.989227,806.949585 
	C109.027199,808.500854 109.020462,809.305420 108.982620,810.390503 
	C108.951515,812.290344 108.951515,813.909668 108.951515,815.721375 
	C115.850365,815.721375 122.435661,815.446472 128.984894,815.814087 
	C133.674072,816.077271 135.092377,814.525635 133.928436,810.032715 
	C134.836914,808.976562 135.423309,808.048584 136.009705,807.120667 
	C136.489685,810.640930 136.969666,814.161133 137.481628,817.916077 
	C127.588921,817.916077 118.508331,817.916077 109.091949,817.916077 
	C109.091949,819.143860 109.091949,820.227966 108.714241,821.636475 
	C106.557007,821.973877 104.777489,821.986938 102.997963,822.000000 
	C102.541016,822.001648 102.084068,822.003235 101.342758,821.675781 
	C101.058403,820.255737 101.058403,819.164734 101.058403,818.061401 
	C88.123993,818.061401 75.446167,818.061401 62.665089,818.061401 
	C62.665089,819.384766 62.665089,820.520142 62.665089,821.655518 
	C62.389633,821.721252 62.114174,821.787048 61.003601,821.928711 
	C58.779881,822.002991 57.391277,822.001526 56.002678,822.000000 
	C55.794926,821.989258 55.587170,821.978516 55.069092,821.935059 
	C54.853073,820.754333 54.947384,819.606323 55.075562,818.045959 
	C49.457928,818.045959 44.042908,818.045959 38.146725,818.045959 
	C38.146725,815.048889 38.146725,812.440308 38.446167,809.231934 
	C38.834805,808.140747 38.924004,807.649414 39.013199,807.158081 
	C39.431004,807.103638 39.848808,807.049255 40.409615,807.376038 
	C41.040257,808.545227 41.527897,809.333313 41.895760,810.454895 
	C40.814095,814.294495 41.585541,816.212158 45.782867,815.782532 
	C48.715790,815.482361 51.704247,815.724670 54.773682,815.724670 
	C54.937122,814.290833 55.066761,813.153503 55.553059,812.018005 
	C57.307476,812.932495 58.705235,813.845154 61.459923,815.643860 
	C60.706856,812.280151 60.247356,810.227783 59.759701,808.049561 
	C57.543732,808.971313 56.215389,809.523865 54.911545,810.067200 
	C54.936043,810.057983 54.907101,810.102295 54.938053,809.698486 
	C54.960239,808.484863 54.951473,807.675049 54.942707,806.865173 
	C54.847984,804.867310 55.048664,802.962769 57.776253,803.641357 
	C59.558640,804.084839 62.907490,801.736572 62.862198,806.924194 
	C63.005569,808.445435 62.998215,809.181213 62.867527,810.266968 
	C62.744194,812.337402 62.744194,814.057861 62.744194,815.573120 
	C75.948997,815.573120 88.403801,815.573120 101.287872,815.573120 
	C101.186646,813.571533 101.095963,811.778564 101.012161,809.604370 
	C101.004227,808.460938 100.989403,807.698730 100.974586,806.936462 
	C100.603439,802.778564 103.366493,803.436646 105.691223,804.313293 
	C101.833046,810.816223 102.170959,814.227966 106.398170,815.055176 
	C106.398170,811.606262 106.398170,808.135376 106.398170,804.664551 
M103.453117,819.365356 
	C104.542084,819.227844 105.631058,819.090332 106.720032,818.952881 
	C106.622429,818.500793 106.524826,818.048645 106.427231,817.596558 
	C105.383080,817.951050 104.338928,818.305481 103.453117,819.365356 
M57.182877,818.563232 
	C58.238964,818.986389 59.295048,819.409485 60.351131,819.832642 
	C60.452293,819.179749 60.553452,818.526917 60.654613,817.874023 
	C59.540771,817.874023 58.426933,817.874023 57.182877,818.563232 
M59.349255,806.909180 
	C59.602139,806.541687 59.855019,806.174194 60.107887,805.806702 
	C59.696060,805.650452 59.284237,805.494202 58.872421,805.337952 
	C58.843777,805.812744 58.815132,806.287537 59.349255,806.909180 
z"/>
<path fill="#EBEBEB" opacity="1.000000" stroke="none" 
	d="
M63.067314,821.806396 
	C62.665089,820.520142 62.665089,819.384766 62.665089,818.061401 
	C75.446167,818.061401 88.123993,818.061401 101.058403,818.061401 
	C101.058403,819.164734 101.058403,820.255737 101.000305,821.662354 
	C88.451317,821.971130 75.960434,821.964233 63.067314,821.806396 
z"/>
<path fill="#EBEBEB" opacity="1.000000" stroke="none" 
	d="
M713.494934,821.915771 
	C712.974487,820.757446 712.920837,819.610596 712.842041,817.925476 
	C725.175415,817.925476 737.355530,817.883484 749.532532,818.058167 
	C750.099060,818.066284 750.637878,820.010803 751.090332,821.509644 
	C738.647949,821.952942 726.304871,821.940125 713.494934,821.915771 
z"/>
<path fill="#181818" opacity="1.000000" stroke="none" 
	d="
M26.779339,774.263794 
	C27.251694,785.890930 27.374920,797.808044 27.610508,809.722900 
	C27.688017,813.642944 28.056360,817.557190 28.643354,821.746948 
	C28.040871,821.509216 26.254715,821.000671 26.253544,820.487976 
	C26.218546,805.176514 26.360184,789.864685 26.779339,774.263794 
z"/>
<path fill="#181818" opacity="1.000000" stroke="none" 
	d="
M801.277588,819.718872 
	C800.862549,804.911438 800.751282,789.815308 800.840759,774.364624 
	C801.341553,774.577026 801.905823,775.145142 801.903076,775.710571 
	C801.831848,790.283936 801.701477,804.856995 801.277588,819.718872 
z"/>
<path fill="#090909" opacity="1.000000" stroke="none" 
	d="
M26.606682,303.345093 
	C27.098946,303.053467 27.324692,303.070374 27.889927,303.079529 
	C27.986927,308.304352 27.664881,313.534821 27.525343,318.770142 
	C27.397390,323.570831 27.466352,328.376801 27.655876,333.612610 
	C27.246340,333.213013 26.096159,332.382355 26.094339,331.549194 
	C26.074018,322.250885 26.230986,312.952179 26.606682,303.345093 
z"/>
<path fill="#090909" opacity="1.000000" stroke="none" 
	d="
M26.642529,412.284119 
	C27.094992,411.982483 27.275789,411.995605 27.728456,412.004395 
	C27.855961,418.705658 27.711594,425.411285 27.574997,432.970398 
	C27.686182,435.546814 27.789598,437.269745 27.893015,438.992676 
	C27.779932,440.087311 27.666853,441.181946 27.750225,442.647583 
	C27.300034,442.063873 26.095753,441.110565 26.093330,440.154236 
	C26.070065,430.969391 26.249495,421.784058 26.642529,412.284119 
z"/>
<path fill="#090909" opacity="1.000000" stroke="none" 
	d="
M27.656424,557.100098 
	C27.892624,566.743103 27.723829,576.449768 27.755119,586.589539 
	C27.308882,586.219055 26.111431,585.422546 26.101019,584.610840 
	C25.990036,575.957458 26.048130,567.301453 26.142014,558.647034 
	C26.147421,558.148682 26.865192,557.658081 27.656424,557.100098 
z"/>
<path fill="#090909" opacity="1.000000" stroke="none" 
	d="
M800.517700,442.939667 
	C800.281860,441.950378 800.435730,440.859100 800.596802,438.967957 
	C800.501648,436.456390 800.399292,434.744720 800.296997,433.033020 
	C800.434448,426.749481 800.571838,420.465942 800.866699,413.765106 
	C801.351013,419.691864 801.860474,426.033813 801.932434,432.380768 
	C801.971924,435.862061 801.273254,439.351746 800.517700,442.939667 
z"/>
<path fill="#090909" opacity="1.000000" stroke="none" 
	d="
M27.752781,75.556786 
	C27.729105,77.749741 27.549618,79.496124 27.440933,81.679291 
	C27.013107,81.348183 26.079056,80.578392 26.082434,79.812729 
	C26.121027,71.059387 26.302385,62.306675 26.752392,53.265419 
	C27.238405,60.354774 27.417686,67.732498 27.752781,75.556786 
z"/>
<path fill="#090909" opacity="1.000000" stroke="none" 
	d="
M27.626318,125.088409 
	C27.888948,134.389069 27.749245,143.761978 27.820000,153.561844 
	C27.359972,153.211975 26.118166,152.443314 26.106924,151.657059 
	C25.987833,143.328354 26.044807,134.996643 26.135771,126.666649 
	C26.141296,126.160751 26.845091,125.662468 27.626318,125.088409 
z"/>
<path fill="#090909" opacity="1.000000" stroke="none" 
	d="
M27.361591,630.052124 
	C27.598866,639.050354 27.460886,648.177063 27.367886,657.718506 
	C26.966267,657.485046 26.136808,656.840271 26.131145,656.188416 
	C26.059227,647.906616 26.093998,639.623779 26.158569,631.341614 
	C26.161604,630.952454 26.698217,630.567566 27.361591,630.052124 
z"/>
<path fill="#090909" opacity="1.000000" stroke="none" 
	d="
M801.445679,586.641479 
	C801.009460,586.948425 800.824646,586.939148 800.366394,586.977051 
	C800.292297,577.931763 800.491760,568.839294 800.857544,559.376953 
	C801.350830,562.363464 801.906128,565.716492 801.953979,569.076782 
	C802.035706,574.823914 801.799744,580.575500 801.445679,586.641479 
z"/>
<path fill="#090909" opacity="1.000000" stroke="none" 
	d="
M801.357239,80.674698 
	C800.917664,78.260445 800.762695,75.544601 800.452881,72.421204 
	C800.423462,65.919891 800.548889,59.826145 800.865295,53.374527 
	C801.372498,56.712666 801.902710,60.405685 801.954285,64.105392 
	C802.029907,69.525452 801.762878,74.950302 801.357239,80.674698 
z"/>
<path fill="#090909" opacity="1.000000" stroke="none" 
	d="
M801.340088,332.684204 
	C800.931641,323.903473 800.811951,314.823792 800.867310,305.378418 
	C801.363159,308.710022 801.901978,312.404327 801.953247,316.105408 
	C802.028259,321.529510 801.754272,326.958405 801.340088,332.684204 
z"/>
<path fill="#090909" opacity="1.000000" stroke="none" 
	d="
M26.738903,520.275391 
	C27.177589,529.043518 27.312521,538.101562 27.249634,547.590088 
	C26.701391,545.987793 26.052774,543.954895 26.054441,541.922485 
	C26.060278,534.803345 26.290277,527.684326 26.738903,520.275391 
z"/>
<path fill="#090909" opacity="1.000000" stroke="none" 
	d="
M26.756947,162.265137 
	C27.205172,171.089371 27.345592,180.200943 27.282860,189.668915 
	C26.719904,187.983978 26.053883,185.942383 26.055712,183.901382 
	C26.062090,176.784973 26.299528,169.668762 26.756947,162.265137 
z"/>
<path fill="#090909" opacity="1.000000" stroke="none" 
	d="
M27.492941,267.063293 
	C27.744825,275.742065 27.607143,284.522675 27.275139,293.664368 
	C26.720665,288.223389 26.173279,282.424469 26.075314,276.617920 
	C26.022266,273.473633 26.735703,270.316437 27.492941,267.063293 
z"/>
<path fill="#090909" opacity="1.000000" stroke="none" 
	d="
M27.133945,739.059998 
	C27.461884,747.647400 27.447992,756.412659 27.620602,765.619263 
	C27.294109,765.706726 26.330404,765.348206 26.334072,764.999878 
	C26.424498,756.411926 26.617449,747.825012 27.133945,739.059998 
z"/>
<path fill="#090909" opacity="1.000000" stroke="none" 
	d="
M27.740446,612.560547 
	C27.744183,616.068542 27.578909,619.135620 27.566082,622.642334 
	C27.155474,622.369690 26.102631,621.656433 26.104258,620.945496 
	C26.122879,612.816711 26.302074,604.688354 26.743513,596.270630 
	C27.222876,601.360779 27.397156,606.740295 27.740446,612.560547 
z"/>
<path fill="#EBEBEB" opacity="1.000000" stroke="none" 
	d="
M27.540495,705.420044 
	C28.091728,706.425110 28.898300,707.883545 28.927702,709.357544 
	C29.070278,716.505676 29.004358,723.657959 29.003679,731.334412 
	C28.995054,731.860046 28.966528,731.827637 28.880077,731.671143 
	C28.500805,731.403931 28.251635,731.466919 28.046116,731.703552 
	C27.843287,723.095886 27.640457,714.488220 27.540495,705.420044 
z"/>
<path fill="#090909" opacity="1.000000" stroke="none" 
	d="
M27.735264,216.564468 
	C27.805916,217.457458 27.710030,217.907822 27.767738,218.676575 
	C27.770844,220.790543 27.620356,222.586136 27.259922,224.698608 
	C26.700167,221.977615 26.089447,218.942459 26.057726,215.901276 
	C26.000933,210.456192 26.292765,205.007446 26.743694,199.270721 
	C27.221916,204.694748 27.395321,210.408295 27.735264,216.564468 
z"/>
<path fill="#090909" opacity="1.000000" stroke="none" 
	d="
M801.352844,656.677246 
	C800.942688,648.565491 800.818115,640.152710 800.879700,631.379700 
	C801.256714,639.471680 801.447571,647.924011 801.352844,656.677246 
z"/>
<path fill="#090909" opacity="1.000000" stroke="none" 
	d="
M27.352177,486.051392 
	C27.619486,494.339417 27.512756,502.758057 27.562634,511.629395 
	C27.297781,511.843719 26.505407,511.600494 26.508472,511.367706 
	C26.618999,502.971924 26.803713,494.577026 27.352177,486.051392 
z"/>
<path fill="#090909" opacity="1.000000" stroke="none" 
	d="
M27.527618,234.059525 
	C27.735121,242.370712 27.549627,250.779007 27.394625,259.665344 
	C26.961777,259.525116 26.102043,258.911041 26.095451,258.287964 
	C26.015787,250.756683 26.041388,243.223846 26.120949,235.692261 
	C26.126392,235.176880 26.781593,234.668365 27.527618,234.059525 
z"/>
<path fill="#090909" opacity="1.000000" stroke="none" 
	d="
M801.344604,621.681763 
	C800.901978,620.223389 800.746887,618.465271 800.602966,615.989380 
	C800.509583,614.525635 800.405151,613.779785 800.300720,613.033875 
	C800.429382,607.601013 800.558044,602.168152 800.876343,596.377258 
	C801.254700,604.473450 801.443420,612.927734 801.344604,621.681763 
z"/>
<path fill="#090909" opacity="1.000000" stroke="none" 
	d="
M27.732510,361.567413 
	C27.784304,362.460541 27.681389,362.906189 27.731405,363.668884 
	C27.742020,365.139069 27.599703,366.292175 27.253027,367.730103 
	C26.699217,364.644928 26.105038,361.278381 26.057440,357.904144 
	C25.985329,352.791992 26.293406,347.674438 26.745113,342.269897 
	C27.226114,348.360382 27.401957,354.740173 27.732510,361.567413 
z"/>
<path fill="#090909" opacity="1.000000" stroke="none" 
	d="
M26.752581,90.267456 
	C27.188671,98.419098 27.317818,106.858627 27.249382,115.657097 
	C26.701317,112.977448 26.088734,109.941513 26.057791,106.899666 
	C26.002390,101.453438 26.297207,96.003647 26.752581,90.267456 
z"/>
<path fill="#090909" opacity="1.000000" stroke="none" 
	d="
M26.752941,378.267181 
	C27.189430,386.371521 27.318846,394.763641 27.256271,403.588501 
	C26.709696,401.657410 26.064899,399.294556 26.057100,396.929596 
	C26.036903,390.805206 26.297419,384.679901 26.752941,378.267181 
z"/>
<path fill="#090909" opacity="1.000000" stroke="none" 
	d="
M800.373901,234.374207 
	C800.283752,234.005219 800.464050,234.037567 800.920044,234.056137 
	C801.342712,242.153839 801.489563,250.265320 801.349731,258.676697 
	C800.923401,250.909546 800.783936,242.842529 800.373901,234.374207 
z"/>
<path fill="#090909" opacity="1.000000" stroke="none" 
	d="
M801.332520,293.688904 
	C800.927246,285.908325 800.813049,277.830292 800.850952,269.376587 
	C801.337036,273.353516 801.831848,277.701508 801.956177,282.060089 
	C802.063721,285.830963 801.750671,289.613861 801.332520,293.688904 
z"/>
<path fill="#090909" opacity="1.000000" stroke="none" 
	d="
M800.292236,146.035309 
	C800.421204,139.937744 800.550171,133.840179 800.847900,127.373924 
	C801.346069,131.725449 801.820557,136.441498 801.956604,141.167297 
	C802.056030,144.621857 801.710266,148.089218 801.287109,151.781494 
	C800.869812,150.923645 800.728271,149.835190 800.598389,148.048157 
	C800.504150,146.911484 800.398132,146.473404 800.292236,146.035309 
z"/>
<path fill="#090909" opacity="1.000000" stroke="none" 
	d="
M801.347595,764.679932 
	C800.937012,756.899231 800.813293,748.818298 800.878662,740.378418 
	C801.256653,748.139648 801.445557,756.259644 801.347595,764.679932 
z"/>
<path fill="#090909" opacity="1.000000" stroke="none" 
	d="
M801.354309,510.676575 
	C800.943298,503.231476 800.817810,495.485382 800.879211,487.379333 
	C801.257385,494.804779 801.448608,502.590149 801.354309,510.676575 
z"/>
<path fill="#090909" opacity="1.000000" stroke="none" 
	d="
M801.327087,43.691986 
	C800.888367,43.169651 800.741577,42.351265 800.599121,40.940132 
	C800.501526,39.910751 800.399658,39.474106 800.297852,39.037460 
	C800.310669,35.315544 800.323547,31.593634 800.120483,27.453648 
	C800.601013,27.929203 801.878235,28.811535 801.895874,29.718369 
	C801.984558,34.274029 801.743958,38.836109 801.327087,43.691986 
z"/>
<path fill="#D5D5D5" opacity="1.000000" stroke="none" 
	d="
M27.552107,683.249146 
	C27.932344,686.258179 28.131516,689.616760 28.339214,693.351074 
	C28.347744,693.726868 28.046618,693.971741 27.729486,694.036621 
	C27.412355,694.101501 27.072575,693.971313 27.072575,693.971313 
	C27.172064,690.513794 27.271551,687.056274 27.552107,683.249146 
z"/>
<path fill="#090909" opacity="1.000000" stroke="none" 
	d="
M26.827009,468.212463 
	C27.238358,470.752441 27.339682,473.553162 27.252850,476.687012 
	C26.882124,474.171204 26.699554,471.322205 26.827009,468.212463 
z"/>
<path fill="#181818" opacity="1.000000" stroke="none" 
	d="
M103.250916,822.281616 
	C104.777489,821.986938 106.557007,821.973877 108.781540,821.939941 
	C109.226540,821.919128 109.640228,821.857239 109.819832,821.964355 
	C107.834244,822.235474 105.669060,822.399414 103.250916,822.281616 
z"/>
<path fill="#090909" opacity="1.000000" stroke="none" 
	d="
M801.242004,184.823151 
	C800.886963,184.148407 800.786499,183.292114 800.834595,182.215103 
	C801.154297,182.876801 801.325439,183.759216 801.242004,184.823151 
z"/>
<path fill="#090909" opacity="1.000000" stroke="none" 
	d="
M26.808094,694.163940 
	C27.072575,693.971313 27.412355,694.101501 27.583193,694.164062 
	C27.712597,694.941589 27.671165,695.656555 27.802145,696.690186 
	C27.497574,696.124817 27.020592,695.240662 26.808094,694.163940 
z"/>
<path fill="#090909" opacity="1.000000" stroke="none" 
	d="
M26.787342,451.172729 
	C27.180307,451.851868 27.312315,452.720123 27.291115,453.816467 
	C26.934063,453.150330 26.730223,452.256073 26.787342,451.172729 
z"/>
<path fill="#181818" opacity="1.000000" stroke="none" 
	d="
M56.229721,822.271362 
	C57.391277,822.001526 58.779881,822.002991 60.585220,822.002258 
	C59.486897,822.180908 57.971828,822.361877 56.229721,822.271362 
z"/>
<path fill="#090909" opacity="1.000000" stroke="none" 
	d="
M801.216675,163.866608 
	C800.902893,163.446793 800.818298,162.889130 800.891541,162.173096 
	C801.181580,162.586075 801.313782,163.157425 801.216675,163.866608 
z"/>
<path fill="#090909" opacity="1.000000" stroke="none" 
	d="
M27.348228,658.504639 
	C27.799404,658.192078 28.152832,658.236145 28.730522,658.433105 
	C28.618505,659.180298 28.282228,659.774597 27.945946,660.368896 
	C27.714119,659.866394 27.482300,659.363831 27.348228,658.504639 
z"/>
<path fill="#FEFEFE" opacity="1.000000" stroke="none" 
	d="
M28.526178,27.524782 
	C28.671158,27.788481 28.510242,28.091030 28.187998,28.271374 
	C28.091208,27.953989 28.155745,27.758810 28.526178,27.524782 
z"/>
<path fill="#090909" opacity="1.000000" stroke="none" 
	d="
M27.999640,160.177872 
	C28.052868,160.389038 27.813118,160.676620 27.329010,161.105469 
	C27.291988,160.915924 27.499323,160.585098 27.999640,160.177872 
z"/>
<path fill="#090909" opacity="1.000000" stroke="none" 
	d="
M28.999592,261.999390 
	C28.908379,262.035248 28.817574,262.071686 28.863903,262.054688 
	C29.001038,262.001221 29.000000,262.000000 28.999592,261.999390 
z"/>
<path fill="#FFFFFF" opacity="1.000000" stroke="none" 
	d="
M799.261597,731.899780 
	C799.160095,731.462036 799.404053,731.342346 799.852539,731.598694 
	C799.809265,731.801147 799.659241,731.882202 799.261597,731.899780 
z"/>
<path fill="#090909" opacity="1.000000" stroke="none" 
	d="
M28.162594,295.690979 
	C28.130333,295.890533 27.903900,295.882050 27.337780,295.873932 
	C27.003099,295.688782 27.008104,295.503296 27.053583,295.042389 
	C27.385511,295.005646 27.676966,295.244263 28.162594,295.690979 
z"/>
<path fill="#090909" opacity="1.000000" stroke="none" 
	d="
M800.996399,295.601807 
	C800.768738,295.837860 800.557983,295.849762 800.031738,295.889526 
	C799.980286,295.677124 800.244324,295.436859 800.740601,295.063232 
	C800.972839,294.929871 801.013367,295.377655 800.996399,295.601807 
z"/>
<path fill="#FAFAFA" opacity="1.000000" stroke="none" 
	d="
M28.181362,731.822144 
	C28.251635,731.466919 28.500805,731.403931 28.901566,731.687317 
	C29.009501,731.860046 28.673243,731.987915 28.673243,731.987915 
	C28.673243,731.987915 28.316608,731.940674 28.181362,731.822144 
z"/>
<path fill="#181818" opacity="1.000000" stroke="none" 
	d="
M376.015503,816.802612 
	C371.690704,816.802612 367.863007,816.802612 363.598572,816.802612 
	C363.598572,814.384827 363.598572,812.009521 363.598572,809.283752 
	C396.134308,809.283752 428.863312,809.283752 461.868591,809.283752 
	C461.868591,811.612000 461.868591,814.007385 461.868591,816.802673 
	C433.391418,816.802673 404.951996,816.802673 376.015503,816.802612 
M415.500061,811.768188 
	C399.407501,811.768188 383.314911,811.768188 367.222351,811.768188 
	C367.230957,812.281250 367.239563,812.794312 367.248169,813.307373 
	C397.652740,813.307373 428.057281,813.307373 458.461823,813.307373 
	C458.466156,812.794312 458.470490,812.281250 458.474792,811.768188 
	C444.483215,811.768188 430.491638,811.768188 415.500061,811.768188 
z"/>
<path fill="#181818" opacity="1.000000" stroke="none" 
	d="
M62.990860,809.916931 
	C62.998215,809.181213 63.005569,808.445435 63.011543,807.341736 
	C75.353661,806.967468 87.697159,806.961182 100.507629,806.945679 
	C100.989403,807.698730 101.004227,808.460938 100.543182,809.592041 
	C87.708496,809.946289 75.349678,809.931641 62.990860,809.916931 
z"/>
<path fill="#181818" opacity="1.000000" stroke="none" 
	d="
M135.545883,807.044434 
	C135.423309,808.048584 134.836914,808.976562 133.489349,809.970093 
	C124.823372,810.060486 116.918549,810.085205 109.013725,810.109924 
	C109.020462,809.305420 109.027199,808.500854 109.039505,807.294006 
	C117.724075,806.917175 126.403076,806.942688 135.545883,807.044434 
z"/>
<path fill="#181818" opacity="1.000000" stroke="none" 
	d="
M42.015533,810.121338 
	C41.527897,809.333313 41.040257,808.545227 40.721664,807.441589 
	C45.277573,807.066895 49.664425,807.007812 54.496994,806.906982 
	C54.951473,807.675049 54.960239,808.484863 54.483810,809.644043 
	C50.004250,810.036011 46.009892,810.078674 42.015533,810.121338 
z"/>
<path fill="#181818" opacity="1.000000" stroke="none" 
	d="
M38.696220,807.159912 
	C38.924004,807.649414 38.834805,808.140747 38.554451,808.797058 
	C38.368610,808.361938 38.373920,807.761841 38.696220,807.159912 
z"/>
<path fill="#F3F3F3" opacity="1.000000" stroke="none" 
	d="
M615.000000,183.997559 
	C420.240204,183.997559 225.980408,183.997559 31.720600,183.997559 
	C31.720472,183.564804 31.720343,183.132050 31.720215,182.699295 
	C286.572845,182.699295 541.425476,182.699295 796.278076,182.699295 
	C796.280701,183.132050 796.283325,183.564804 796.285950,183.997559 
	C736.023987,183.997559 675.761963,183.997559 615.000000,183.997559 
z"/>
<path fill="#F3F3F3" opacity="1.000000" stroke="none" 
	d="
M799.849426,146.016602 
	C800.398132,146.473404 800.504150,146.911484 800.449341,147.658081 
	C794.667664,148.311050 789.046814,148.955704 783.425781,148.956833 
	C534.977539,149.006790 286.529266,149.005417 38.081036,148.925125 
	C35.527042,148.924301 32.973412,147.794632 30.419611,147.191956 
	C33.012520,146.462921 35.605179,145.096451 38.198368,145.095444 
	C288.646179,144.998291 539.094055,145.001068 789.541870,145.046066 
	C792.830200,145.046661 796.118408,145.666885 799.849426,146.016602 
z"/>
<path fill="#F5F5F5" opacity="1.000000" stroke="none" 
	d="
M799.808350,433.022583 
	C800.399292,434.744720 800.501648,436.456390 800.441284,438.569824 
	C794.661316,439.314392 789.044189,439.955902 783.426941,439.957031 
	C534.985657,440.006744 286.544403,440.003601 38.103165,439.959320 
	C34.985302,439.958771 31.867548,439.346344 28.321381,439.006104 
	C27.789598,437.269745 27.686182,435.546814 27.736362,433.415588 
	C285.033173,433.008881 542.176392,433.010498 799.808350,433.022583 
z"/>
<path fill="#F5F5F5" opacity="1.000000" stroke="none" 
	d="
M799.811768,613.023926 
	C800.405151,613.779785 800.509583,614.525635 800.456909,615.622437 
	C545.610596,615.981445 290.921417,615.993835 36.232235,615.908203 
	C34.499580,615.907654 32.767395,614.555542 31.020950,613.419678 
	C287.112213,613.007935 543.217529,613.010986 799.811768,613.023926 
z"/>
<path fill="#F3F3F3" opacity="1.000000" stroke="none" 
	d="
M799.809082,39.026230 
	C800.399658,39.474106 800.501526,39.910751 800.450806,40.657089 
	C618.890198,40.979210 437.482086,40.993111 256.073944,41.003338 
	C182.777695,41.007469 109.481430,41.013157 36.185230,40.952663 
	C34.184105,40.951012 32.183598,40.197067 30.091600,39.397575 
	C286.440399,39.005810 542.880371,39.010399 799.809082,39.026230 
z"/>
<path fill="#020202" opacity="1.000000" stroke="none" 
	d="
M214.533417,369.257843 
	C214.107468,369.898621 213.224991,370.917511 212.335022,370.924103 
	C199.538574,371.018616 186.741074,370.987946 173.944077,370.930298 
	C173.385559,370.927795 172.829483,370.377319 172.139954,369.718414 
	C186.029556,369.291534 200.051498,369.228363 214.533417,369.257843 
z"/>
<path fill="#020202" opacity="1.000000" stroke="none" 
	d="
M100.601280,369.259918 
	C99.722229,369.556213 98.451065,369.759979 97.093750,369.657104 
	C98.074783,369.289429 99.141975,369.228394 100.601280,369.259918 
z"/>
<path fill="#020202" opacity="1.000000" stroke="none" 
	d="
M54.601227,369.259949 
	C53.722359,369.556793 52.451347,369.761078 51.093987,369.658936 
	C52.074791,369.290802 53.141937,369.229126 54.601227,369.259949 
z"/>
<path fill="#020202" opacity="1.000000" stroke="none" 
	d="
M165.625977,369.260376 
	C165.045578,369.547913 164.097794,369.742401 163.078796,369.643860 
	C163.757919,369.289642 164.508240,369.228455 165.625977,369.260376 
z"/>
<path fill="#EBEBEB" opacity="1.000000" stroke="none" 
	d="
M733.997864,810.035828 
	C739.947205,810.035828 745.397034,810.035828 751.087524,810.035828 
	C751.087524,812.008423 751.087524,813.742737 751.087524,815.596191 
	C738.377258,815.596191 725.972473,815.596191 713.062561,815.596191 
	C712.983459,813.822693 712.907715,812.125305 712.814514,810.035828 
	C719.955017,810.035828 726.726746,810.035828 733.997864,810.035828 
z"/>
<path fill="#EBEBEB" opacity="1.000000" stroke="none" 
	d="
M778.839905,810.034546 
	C780.476379,810.057312 781.914490,809.668640 782.709595,810.215210 
	C783.560181,810.799988 784.424255,812.468323 784.154480,813.295898 
	C783.829590,814.292419 782.333557,815.547241 781.314514,815.574524 
	C774.066284,815.768799 766.810425,815.678101 759.241882,815.678101 
	C759.132874,813.808838 759.040466,812.223389 758.912842,810.034668 
	C765.568115,810.034668 771.963318,810.034668 778.839905,810.034546 
z"/>
<path fill="#EBEBEB" opacity="1.000000" stroke="none" 
	d="
M699.952637,810.037231 
	C701.859680,810.037598 703.295227,810.037598 704.914307,810.037598 
	C704.914307,812.028625 704.914307,813.613647 704.914307,815.188904 
	C692.060547,816.273315 690.332275,816.168091 692.518127,810.036926 
	C694.671753,810.036926 697.076416,810.036926 699.952637,810.037231 
z"/>
<path fill="#EBEBEB" opacity="1.000000" stroke="none" 
	d="
M62.867527,810.266968 
	C75.349678,809.931641 87.708496,809.946289 100.536301,809.973267 
	C101.095963,811.778564 101.186646,813.571533 101.287872,815.573120 
	C88.403801,815.573120 75.948997,815.573120 62.744194,815.573120 
	C62.744194,814.057861 62.744194,812.337402 62.867527,810.266968 
z"/>
<path fill="#EBEBEB" opacity="1.000000" stroke="none" 
	d="
M108.982620,810.390503 
	C116.918549,810.085205 124.823372,810.060486 133.167282,810.098389 
	C135.092377,814.525635 133.674072,816.077271 128.984894,815.814087 
	C122.435661,815.446472 115.850365,815.721375 108.951515,815.721375 
	C108.951515,813.909668 108.951515,812.290344 108.982620,810.390503 
z"/>
<path fill="#EBEBEB" opacity="1.000000" stroke="none" 
	d="
M41.895752,810.454895 
	C46.009892,810.078674 50.004250,810.036011 54.452858,810.047791 
	C54.907101,810.102295 54.936043,810.057983 54.938965,810.394348 
	C55.026726,811.159180 55.111568,811.587708 55.196407,812.016174 
	C55.066761,813.153503 54.937122,814.290833 54.773682,815.724670 
	C51.704247,815.724670 48.715790,815.482361 45.782867,815.782532 
	C41.585541,816.212158 40.814095,814.294495 41.895752,810.454895 
z"/>
<path fill="#181818" opacity="1.000000" stroke="none" 
	d="
M106.335480,804.655884 
	C106.398170,808.135376 106.398170,811.606262 106.398170,815.055176 
	C102.170959,814.227966 101.833046,810.816223 105.865875,804.708069 
	C106.244301,804.523865 106.272781,804.647217 106.335480,804.655884 
z"/>
<path fill="#181818" opacity="1.000000" stroke="none" 
	d="
M55.553062,812.018005 
	C55.111568,811.587708 55.026726,811.159180 54.914467,810.403564 
	C56.215389,809.523865 57.543732,808.971313 59.759701,808.049561 
	C60.247356,810.227783 60.706856,812.280151 61.459923,815.643860 
	C58.705235,813.845154 57.307476,812.932495 55.553062,812.018005 
z"/>
<path fill="#181818" opacity="1.000000" stroke="none" 
	d="
M103.373947,819.012634 
	C104.338928,818.305481 105.383080,817.951050 106.427231,817.596558 
	C106.524826,818.048645 106.622429,818.500793 106.720032,818.952881 
	C105.631058,819.090332 104.542084,819.227844 103.373947,819.012634 
z"/>
<path fill="#181818" opacity="1.000000" stroke="none" 
	d="
M57.247986,818.218628 
	C58.426933,817.874023 59.540771,817.874023 60.654613,817.874023 
	C60.553452,818.526917 60.452293,819.179749 60.351131,819.832642 
	C59.295048,819.409485 58.238964,818.986389 57.247986,818.218628 
z"/>
<path fill="#181818" opacity="1.000000" stroke="none" 
	d="
M59.067871,806.835754 
	C58.815132,806.287537 58.843777,805.812744 58.872414,805.337952 
	C59.284237,805.494202 59.696060,805.650452 60.107895,805.806702 
	C59.855019,806.174194 59.602139,806.541687 59.067871,806.835754 
z"/>
<path fill="#D5D5D5" opacity="1.000000" stroke="none" 
	d="
M416.000061,811.768188 
	C430.491638,811.768188 444.483215,811.768188 458.474792,811.768188 
	C458.470490,812.281250 458.466156,812.794312 458.461823,813.307373 
	C428.057281,813.307373 397.652740,813.307373 367.248169,813.307373 
	C367.239563,812.794312 367.230957,812.281250 367.222351,811.768188 
	C383.314911,811.768188 399.407501,811.768188 416.000061,811.768188 
z"/>
</svg>