<svg version="1.1" id="Layer_1" xmlns="http://www.w3.org/2000/svg" xmlns:xlink="http://www.w3.org/1999/xlink" x="0px" y="0px"
	 width="100%" viewBox="0 0 2352 1352" enable-background="new 0 0 2352 1352" xml:space="preserve">
<path fill="#F7F7F7" opacity="1.000000" stroke="none" 
	d="
M2353.000000,401.000000 
	C2353.000000,718.666687 2353.000000,1035.833374 2353.000000,1353.000000 
	C1569.000000,1353.000000 785.000000,1353.000000 1.000000,1353.000000 
	C1.000000,902.333313 1.000000,451.666656 1.000000,1.000000 
	C785.000000,1.000000 1569.000000,1.000000 2353.000000,1.000000 
	C2353.000000,134.166672 2353.000000,267.333344 2353.000000,401.000000 
M1693.500000,4.829733 
	C1133.367676,4.832193 573.235352,4.834840 13.103005,4.835416 
	C4.223971,4.835425 4.221590,4.823557 4.221570,13.526601 
	C4.220539,453.667175 4.220316,893.807800 4.213357,1333.948364 
	C4.213291,1338.113525 4.313676,1342.292358 4.013273,1346.439209 
	C3.787905,1349.550171 4.964981,1350.752563 7.943940,1350.622437 
	C9.272144,1350.564453 10.607752,1350.705933 11.940005,1350.706055 
	C47.771179,1350.709473 83.602348,1350.704346 119.433525,1350.704346 
	C853.890015,1350.703979 1588.346436,1350.704102 2322.802979,1350.703735 
	C2330.468994,1350.703735 2338.139404,1350.550903 2345.799561,1350.759766 
	C2349.650879,1350.864868 2350.886230,1349.713501 2350.885254,1345.639160 
	C2350.785156,902.165588 2350.791260,458.691986 2350.790527,15.218407 
	C2350.790527,4.811915 2350.786621,4.810322 2340.461670,4.810616 
	C2125.141113,4.816756 1909.820557,4.823282 1693.500000,4.829733 
z"/>
<path fill="#1D1D1D" opacity="1.000000" stroke="none" 
	d="
M1694.000000,4.829733 
	C1909.820557,4.823282 2125.141113,4.816756 2340.461670,4.810616 
	C2350.786621,4.810322 2350.790527,4.811915 2350.790527,15.218407 
	C2350.791260,458.691986 2350.785156,902.165588 2350.885254,1345.639160 
	C2350.886230,1349.713501 2349.650879,1350.864868 2345.799561,1350.759766 
	C2338.139404,1350.550903 2330.468994,1350.703735 2322.802979,1350.703735 
	C1588.346436,1350.704102 853.890015,1350.703979 119.433525,1350.704346 
	C83.602348,1350.704346 47.771179,1350.709473 11.940005,1350.706055 
	C10.607752,1350.705933 9.272144,1350.564453 7.943940,1350.622437 
	C4.964981,1350.752563 3.787905,1349.550171 4.013273,1346.439209 
	C4.313676,1342.292358 4.213291,1338.113525 4.213357,1333.948364 
	C4.220316,893.807800 4.220539,453.667175 4.221570,13.526601 
	C4.221590,4.823557 4.223971,4.835425 13.103005,4.835416 
	C573.235352,4.834840 1133.367676,4.832193 1694.000000,4.829733 
M2343.408203,7.216561 
	C2343.196045,7.303028 2342.984131,7.389494 2342.064697,7.454776 
	C2341.612061,7.556618 2341.159424,7.658460 2339.843750,7.513358 
	C2308.396973,7.533924 2276.949951,7.538126 2245.503174,7.585895 
	C2237.027100,7.598770 2228.551025,7.743903 2219.182129,7.495783 
	C2217.016602,7.462286 2214.850830,7.399447 2212.685303,7.399434 
	C1514.408813,7.395176 816.132324,7.394873 117.855797,7.413428 
	C115.877167,7.413481 113.898529,7.690126 111.024696,7.607361 
	C80.421745,7.637027 49.818790,7.666693 18.547739,7.380598 
	C17.356318,7.495801 16.164896,7.611004 13.894108,7.645371 
	C12.115080,7.650610 10.336053,7.655849 8.188787,8.272944 
	C8.225787,9.598364 8.295163,10.923781 8.295223,12.249203 
	C8.315217,454.029694 8.329894,895.810181 8.358155,1337.590698 
	C8.358335,1340.408447 8.545476,1343.226318 8.591961,1346.956299 
	C12.416215,1347.306885 16.240452,1347.964355 20.064732,1347.964478 
	C788.885742,1348.008667 1557.706787,1348.006714 2326.527832,1348.008301 
	C2332.693848,1348.008301 2338.859619,1348.041504 2345.613037,1348.170654 
	C2345.869385,1347.436035 2346.125732,1346.701294 2346.404053,1345.069946 
	C2346.433838,1340.404541 2346.489746,1335.739258 2346.489746,1331.073853 
	C2346.493896,894.680847 2346.494141,458.287842 2346.480957,21.894848 
	C2346.480713,18.579189 2346.291260,15.263536 2346.393311,11.121002 
	C2346.462402,10.273879 2346.531494,9.426756 2346.512451,7.900318 
	C2345.706543,7.683945 2344.900391,7.467572 2343.408203,7.216561 
z"/>
<path fill="#D8D8D8" opacity="1.000000" stroke="none" 
	d="
M2220.074951,7.828344 
	C2228.551025,7.743903 2237.027100,7.598770 2245.503174,7.585895 
	C2276.949951,7.538126 2308.396973,7.533924 2340.105469,7.900610 
	C2340.244873,12.238853 2340.015381,16.189838 2340.015137,20.140833 
	C2339.999023,457.793243 2339.999756,895.445618 2340.000732,1333.098022 
	C2340.000732,1334.931274 2339.808350,1336.799683 2340.111572,1338.582764 
	C2340.262695,1339.470947 2341.334717,1340.202515 2342.001465,1341.378662 
	C2342.005127,1342.499878 2341.997559,1343.247559 2341.552979,1343.996338 
	C1599.880981,1343.998291 858.646240,1343.998413 117.411507,1344.002075 
	C82.583221,1344.002319 47.754940,1344.033569 12.608376,1343.763550 
	C12.117815,1340.172119 11.794801,1336.867554 11.794608,1333.562866 
	C11.769154,895.673584 11.767276,457.784271 11.764528,19.894985 
	C11.764517,18.062117 12.166951,16.112635 11.673532,14.424527 
	C10.984665,12.067754 9.627958,9.906185 8.557025,7.661088 
	C10.336053,7.655849 12.115080,7.650610 14.621130,7.934508 
	C16.637381,8.047884 17.926609,7.872121 19.215839,7.696359 
	C49.818790,7.666693 80.421745,7.637027 111.506546,8.088425 
	C112.825676,12.909315 116.290581,10.884954 118.456070,10.885257 
	C816.444641,10.982747 1514.433228,10.979802 2212.421875,10.978787 
	C2213.755127,10.978786 2215.268555,11.374496 2216.376709,10.874305 
	C2217.781494,10.240117 2218.857178,8.877107 2220.074951,7.828344 
M1823.515747,1317.507812 
	C1823.649536,1315.128906 1823.958252,1312.744507 1823.884399,1310.372070 
	C1823.662842,1303.246582 1823.292236,1296.125854 1822.980713,1288.247192 
	C1822.664429,1286.788574 1822.348145,1285.329956 1822.943970,1283.655273 
	C1954.275513,1283.679443 2085.606934,1283.703735 2217.353271,1284.405518 
	C2222.284180,1285.049561 2227.241455,1286.332397 2232.136963,1286.127808 
	C2235.797363,1285.974731 2238.015625,1283.330200 2237.553955,1278.778320 
	C2236.939697,1272.727051 2237.037109,1266.591064 2237.036621,1260.491577 
	C2237.017090,916.857910 2237.019531,573.224182 2237.019531,229.590500 
	C2237.019531,175.553635 2237.019531,121.516769 2237.019531,68.050339 
	C2229.472168,68.050339 2220.972168,67.923134 2212.477539,68.082741 
	C2202.014404,68.279343 2191.555664,69.005020 2181.094971,69.005745 
	C1500.826904,69.052673 820.558838,69.049400 140.290787,69.048294 
	C133.175079,69.048279 126.058266,68.940331 118.944252,69.042130 
	C116.311478,69.079796 113.873344,69.406754 114.253502,73.355911 
	C114.598274,76.937462 114.052490,80.596077 114.052368,84.220718 
	C114.038918,479.182831 114.040176,874.144958 114.036194,1269.107056 
	C114.036140,1274.421021 113.979454,1279.734863 113.506439,1285.494141 
	C116.068382,1286.256592 118.600273,1287.514160 121.198898,1287.671997 
	C125.714935,1287.946167 130.283707,1287.283569 134.809296,1287.485596 
	C140.420685,1287.736206 146.010498,1288.923706 151.609802,1288.924927 
	C471.093018,1288.998291 790.576233,1288.990234 1110.059448,1288.990234 
	C1112.225952,1288.990234 1114.394043,1289.041748 1116.558838,1288.979736 
	C1121.290649,1288.844360 1126.030762,1288.785156 1130.748047,1288.433350 
	C1133.809937,1288.205078 1136.861450,1286.997437 1139.875854,1287.135620 
	C1147.241089,1287.473389 1154.604614,1289.079102 1161.928833,1288.857544 
	C1188.776855,1288.045654 1215.633423,1290.653564 1242.524658,1287.347168 
	C1254.195068,1285.912231 1266.341919,1288.044556 1278.246460,1288.911255 
	C1288.772949,1289.677734 1299.244629,1291.259033 1309.775879,1291.876343 
	C1318.421875,1292.383179 1327.120483,1292.063232 1335.794800,1291.998291 
	C1344.747925,1291.931396 1353.594116,1293.417725 1362.559204,1293.635620 
	C1369.164551,1293.796143 1375.724487,1295.674927 1382.569824,1295.176636 
	C1386.386353,1294.899170 1390.304199,1296.538208 1394.214844,1296.933228 
	C1405.202393,1298.042847 1416.208008,1298.972534 1427.210327,1299.930908 
	C1429.655273,1300.143921 1432.119385,1300.336792 1434.567505,1300.270752 
	C1440.423706,1300.113037 1446.276123,1299.809204 1452.129028,1299.539185 
	C1457.458130,1299.293335 1462.785767,1299.014282 1468.749390,1298.824585 
	C1469.167358,1298.896362 1469.585205,1298.968262 1470.158081,1299.796143 
	C1472.438965,1300.202393 1474.719849,1300.608521 1477.813965,1301.023071 
	C1481.855713,1301.626099 1485.879517,1302.487183 1489.943481,1302.767822 
	C1495.212769,1303.131592 1500.751831,1302.103027 1505.738647,1303.378784 
	C1511.445801,1304.838989 1516.849609,1304.888306 1522.498291,1304.145874 
	C1524.281738,1303.911499 1526.144043,1304.133789 1527.956909,1304.295654 
	C1531.942505,1304.651733 1535.918335,1305.117065 1539.901611,1305.501953 
	C1540.685181,1305.577759 1541.746338,1305.154053 1542.235474,1305.533325 
	C1546.583496,1308.904541 1551.813965,1308.271973 1556.397705,1307.519043 
	C1558.904175,1307.107300 1560.723999,1306.557983 1562.923462,1307.944092 
	C1565.479126,1309.554932 1567.919434,1310.729736 1570.989990,1308.319214 
	C1572.303101,1307.288330 1574.813965,1307.415894 1576.729736,1307.586548 
	C1583.469116,1308.187134 1590.260376,1309.999634 1596.889282,1309.491211 
	C1602.449097,1309.064819 1607.266602,1312.313965 1613.309448,1310.431763 
	C1618.674194,1308.760864 1625.155640,1310.701050 1631.146118,1311.006714 
	C1638.376709,1311.375854 1645.610962,1311.677246 1652.839722,1312.077393 
	C1653.802612,1312.130493 1654.727417,1312.690674 1655.696899,1312.840942 
	C1658.282715,1313.241577 1660.877563,1313.782471 1663.479126,1313.846191 
	C1671.549805,1314.043701 1679.625244,1314.042480 1687.698730,1314.134399 
	C1688.019287,1314.138062 1688.407837,1314.216431 1688.647339,1314.407227 
	C1695.320557,1319.726807 1703.380127,1316.379272 1710.719482,1317.674561 
	C1718.983032,1319.133179 1727.669312,1318.149048 1736.169556,1318.328857 
	C1743.625854,1318.486572 1751.079468,1318.777222 1758.533569,1319.026489 
	C1760.023682,1319.076172 1761.520752,1319.128540 1762.998047,1319.312012 
	C1766.668823,1319.767822 1770.456909,1321.151855 1773.969482,1320.628784 
	C1781.893921,1319.448608 1789.397339,1320.425903 1796.878540,1322.832764 
	C1797.683594,1323.091919 1798.620117,1322.953491 1799.496338,1322.978638 
	C1802.507202,1323.065063 1805.520996,1323.261230 1808.528809,1323.194702 
	C1812.912964,1323.097778 1817.307617,1322.940552 1821.656616,1322.446167 
	C1822.236816,1322.380249 1822.575806,1320.193115 1823.002197,1318.493164 
	C1823.002197,1318.493164 1822.977173,1317.997559 1823.515747,1317.507812 
z"/>
<path fill="#C7C7C7" opacity="1.000000" stroke="none" 
	d="
M2219.628418,7.662072 
	C2218.857178,8.877107 2217.781494,10.240117 2216.376709,10.874305 
	C2215.268555,11.374496 2213.755127,10.978786 2212.421875,10.978787 
	C1514.433228,10.979802 816.444641,10.982747 118.456070,10.885257 
	C116.290581,10.884954 112.825676,12.909315 111.954147,8.203536 
	C113.898529,7.690126 115.877167,7.413481 117.855797,7.413428 
	C816.132324,7.394873 1514.408813,7.395176 2212.685303,7.399434 
	C2214.850830,7.399447 2217.016602,7.462286 2219.628418,7.662072 
z"/>
<path fill="#939393" opacity="1.000000" stroke="none" 
	d="
M8.372906,7.967016 
	C9.627958,9.906185 10.984665,12.067754 11.673532,14.424527 
	C12.166951,16.112635 11.764517,18.062117 11.764528,19.894985 
	C11.767276,457.784271 11.769154,895.673584 11.794608,1333.562866 
	C11.794801,1336.867554 12.117815,1340.172119 12.623135,1344.074829 
	C12.935349,1345.088501 12.914524,1345.504150 12.468161,1345.911133 
	C10.910186,1345.949585 9.777750,1345.996826 8.645315,1346.044067 
	C8.545476,1343.226318 8.358335,1340.408447 8.358155,1337.590698 
	C8.329894,895.810181 8.315217,454.029694 8.295223,12.249203 
	C8.295163,10.923781 8.225787,9.598364 8.372906,7.967016 
z"/>
<path fill="#D8D8D8" opacity="1.000000" stroke="none" 
	d="
M8.618638,1346.500244 
	C9.777750,1345.996826 10.910186,1345.949585 12.928438,1345.947632 
	C785.579224,1345.995361 1557.344116,1345.997681 2329.109131,1345.996338 
	C2333.440918,1345.996338 2337.772461,1345.941040 2342.425781,1345.923462 
	C2343.383789,1345.883301 2344.020264,1345.831177 2344.885254,1346.015625 
	C2345.264648,1346.411011 2345.415771,1346.569702 2345.503906,1346.958252 
	C2345.361328,1347.506348 2345.222656,1347.796631 2345.025635,1348.059204 
	C2338.859619,1348.041504 2332.693848,1348.008301 2326.527832,1348.008301 
	C1557.706787,1348.006714 788.885742,1348.008667 20.064732,1347.964478 
	C16.240452,1347.964355 12.416215,1347.306885 8.618638,1346.500244 
z"/>
<path fill="#C7C7C7" opacity="1.000000" stroke="none" 
	d="
M2341.990234,1341.004883 
	C2341.334717,1340.202515 2340.262695,1339.470947 2340.111572,1338.582764 
	C2339.808350,1336.799683 2340.000732,1334.931274 2340.000732,1333.098022 
	C2339.999756,895.445618 2339.999023,457.793243 2340.015137,20.140833 
	C2340.015381,16.189838 2340.244873,12.238853 2340.537109,8.024082 
	C2341.159424,7.658460 2341.612061,7.556618 2342.466309,7.715040 
	C2343.227051,8.297612 2343.586182,8.619920 2344.394043,8.944292 
	C2345.428467,8.824117 2346.014648,8.701879 2346.600586,8.579636 
	C2346.531494,9.426756 2346.462402,10.273879 2345.987305,11.549583 
	C2345.378418,11.979224 2345.175293,11.980284 2344.807617,11.676405 
	C2343.783203,11.588451 2342.217041,11.718934 2342.177979,12.036556 
	C2341.936523,14.008307 2342.026611,16.022034 2342.026611,18.021820 
	C2342.025879,455.850006 2342.026855,893.678162 2342.026367,1331.506348 
	C2342.026367,1334.672485 2342.002930,1337.838745 2341.990234,1341.004883 
z"/>
<path fill="#E3E3E3" opacity="1.000000" stroke="none" 
	d="
M2344.972168,11.981342 
	C2345.175293,11.980284 2345.378418,11.979224 2345.885742,11.963022 
	C2346.291260,15.263536 2346.480713,18.579189 2346.480957,21.894848 
	C2346.494141,458.287842 2346.493896,894.680847 2346.489746,1331.073853 
	C2346.489746,1335.739258 2346.433838,1340.404541 2346.138184,1345.654053 
	C2345.770508,1346.401611 2345.668701,1346.564941 2345.566650,1346.728394 
	C2345.415771,1346.569702 2345.264648,1346.411011 2344.986572,1345.577148 
	C2344.882812,1342.403320 2344.925537,1339.904419 2344.925537,1337.405640 
	C2344.928955,898.930237 2344.929199,460.454865 2344.931641,21.979473 
	C2344.931885,18.646763 2344.958252,15.314054 2344.972168,11.981342 
z"/>
<path fill="#939393" opacity="1.000000" stroke="none" 
	d="
M18.881790,7.538478 
	C17.926609,7.872121 16.637381,8.047884 15.160812,7.974927 
	C16.164896,7.611004 17.356318,7.495801 18.881790,7.538478 
z"/>
<path fill="#A6A6A6" opacity="1.000000" stroke="none" 
	d="
M2345.503906,1346.958252 
	C2345.668701,1346.564941 2345.770508,1346.401611 2346.126953,1346.102417 
	C2346.125732,1346.701294 2345.869385,1347.436035 2345.319336,1348.114990 
	C2345.222656,1347.796631 2345.361328,1347.506348 2345.503906,1346.958252 
z"/>
<path fill="#A6A6A6" opacity="1.000000" stroke="none" 
	d="
M2346.556641,8.239979 
	C2346.014648,8.701879 2345.428467,8.824117 2344.433105,8.664257 
	C2344.047119,8.005172 2344.070801,7.628185 2344.094482,7.251199 
	C2344.900391,7.467572 2345.706543,7.683945 2346.556641,8.239979 
z"/>
<path fill="#7D7D7D" opacity="1.000000" stroke="none" 
	d="
M2343.751465,7.233879 
	C2344.070801,7.628185 2344.047119,8.005172 2343.984375,8.662193 
	C2343.586182,8.619920 2343.227051,8.297612 2342.819824,7.725633 
	C2342.984131,7.389494 2343.196045,7.303028 2343.751465,7.233879 
z"/>
<path fill="#090909" opacity="1.000000" stroke="none" 
	d="
M2216.938477,1283.727905 
	C2085.606934,1283.703735 1954.275513,1283.679443 1822.019531,1283.716797 
	C1820.674805,1284.751099 1819.892212,1285.723511 1819.890747,1286.697021 
	C1819.878418,1295.461060 1820.003296,1304.225098 1819.955566,1313.318359 
	C1819.912720,1314.105225 1820.002319,1314.562988 1819.979248,1315.423096 
	C1819.901611,1317.214233 1819.936279,1318.603149 1819.520264,1320.083984 
	C1792.817505,1318.577271 1766.562378,1317.028931 1740.314697,1315.363281 
	C1719.707886,1314.055542 1699.114624,1312.533936 1678.507446,1311.231201 
	C1652.255615,1309.571533 1625.993530,1308.072266 1599.739868,1306.439575 
	C1566.003784,1304.341675 1532.272583,1302.165771 1498.537109,1300.056763 
	C1491.456177,1299.614014 1484.366211,1299.316528 1477.016357,1298.811035 
	C1474.502563,1298.793213 1472.252930,1298.916626 1470.003174,1299.040039 
	C1469.585205,1298.968262 1469.167358,1298.896362 1468.189575,1298.439331 
	C1437.575439,1296.095825 1407.523682,1294.097290 1377.466064,1292.190552 
	C1346.248657,1290.210327 1315.029663,1288.252197 1283.803589,1286.415405 
	C1267.202393,1285.438965 1250.584839,1284.740112 1233.604492,1283.736450 
	C1196.909668,1283.513672 1160.585327,1283.435669 1124.260864,1283.433228 
	C942.094971,1283.420532 759.929016,1283.427612 577.763123,1283.427612 
	C434.263702,1283.427612 290.764282,1283.416870 147.264877,1283.457397 
	C139.832748,1283.459473 132.400772,1283.898438 124.647095,1284.119629 
	C123.912987,1284.219360 123.500511,1284.333618 122.783875,1284.222656 
	C122.380875,1279.197510 122.195618,1274.397583 122.195465,1269.597778 
	C122.182953,873.135254 122.185890,476.672699 122.162132,80.210159 
	C122.161980,77.610413 121.806656,75.010674 121.594383,72.098091 
	C825.557068,72.098091 1529.704712,72.098091 2233.937988,72.098091 
	C2233.937988,475.864838 2233.937988,879.349976 2233.937988,1282.877563 
	C2228.129150,1283.168091 2222.533691,1283.447998 2216.938477,1283.727905 
M1819.863647,235.175262 
	C1819.863647,561.265076 1819.863647,887.354858 1819.863647,1213.547241 
	C1911.030151,1213.547241 2001.881104,1213.547241 2092.649414,1213.547241 
	C2092.649414,856.058655 2092.649414,498.985046 2092.649414,141.889969 
	C1517.358154,141.889969 942.358398,141.889969 367.358734,141.889969 
	C395.055176,144.113388 422.756500,145.659607 450.445496,147.401260 
	C488.848602,149.816803 527.238708,152.438095 565.641174,154.864563 
	C620.996033,158.362152 676.358459,161.738998 731.714722,165.214127 
	C778.764893,168.167801 825.811768,171.175522 872.858643,174.181152 
	C934.031189,178.089188 995.204895,181.980637 1056.372925,185.958176 
	C1080.614502,187.534546 1104.838379,189.384583 1129.080811,190.948532 
	C1132.753052,191.185440 1136.482300,190.540802 1140.608643,190.264542 
	C1140.608643,190.264542 1140.976440,190.051041 1141.523438,190.502777 
	C1143.342529,190.883194 1145.161743,191.263611 1147.708374,191.919540 
	C1148.476807,191.881195 1149.245361,191.842834 1150.888306,191.992905 
	C1189.254883,194.420593 1227.621704,196.843933 1265.987915,199.277451 
	C1292.222778,200.941467 1318.457031,202.617294 1344.691284,204.292114 
	C1382.720459,206.719940 1420.747803,209.175842 1458.778931,211.572968 
	C1483.520752,213.132446 1508.267578,214.608765 1533.465820,216.348053 
	C1533.624146,216.289078 1533.782349,216.230118 1534.726440,216.441238 
	C1629.761719,222.451309 1724.797119,228.461380 1819.863647,235.175262 
M2104.768066,634.499878 
	C2104.768066,829.760254 2104.768066,1025.020630 2104.768066,1220.710938 
	C2009.567871,1220.710938 1914.832031,1220.710938 1819.904053,1220.710938 
	C1819.904053,1240.545654 1819.904053,1259.949829 1819.904053,1279.595703 
	C1955.733887,1279.595703 2091.310547,1279.595703 2227.182617,1279.595703 
	C2227.182617,878.269287 2227.182617,477.214691 2227.182617,76.190643 
	C1527.674561,76.190643 828.411560,76.190643 128.915344,76.190643 
	C128.915344,477.276917 128.915344,878.330627 128.915344,1279.501465 
	C475.957336,1279.501465 822.708862,1279.501465 1169.460449,1279.501465 
	C1169.469849,1279.346680 1169.479126,1279.191772 1169.488525,1279.036987 
	C863.066223,1259.586914 556.643921,1240.136841 250.263214,1220.689453 
	C250.263214,858.403748 250.263214,496.818085 250.263214,135.188675 
	C868.546387,135.188675 1486.590454,135.188675 2104.768066,135.188675 
	C2104.768066,301.553955 2104.768066,467.526917 2104.768066,634.499878 
M281.428925,1072.499634 
	C281.428925,1116.455566 281.428925,1160.411377 281.428925,1204.708008 
	C783.885010,1236.609985 1286.092896,1268.496338 1788.300781,1300.382568 
	C1788.300781,950.044983 1788.300781,600.461487 1788.300781,250.456543 
	C1285.894409,218.566315 783.679810,186.688263 281.428894,154.807907 
	C281.428894,460.909912 281.428894,766.204712 281.428925,1072.499634 
z"/>
<path fill="#B7B7B7" opacity="1.000000" stroke="none" 
	d="
M2217.145996,1284.066650 
	C2222.533691,1283.447998 2228.129150,1283.168091 2233.937988,1282.877563 
	C2233.937988,879.349976 2233.937988,475.864838 2233.937988,72.098091 
	C1529.704712,72.098091 825.557068,72.098091 121.594383,72.098091 
	C121.806656,75.010674 122.161980,77.610413 122.162132,80.210159 
	C122.185890,476.672699 122.182953,873.135254 122.195465,1269.597778 
	C122.195618,1274.397583 122.380875,1279.197510 122.667419,1284.566895 
	C119.886482,1285.107178 116.917839,1285.078003 113.949203,1285.048828 
	C113.979454,1279.734863 114.036140,1274.421021 114.036194,1269.107056 
	C114.040176,874.144958 114.038918,479.182831 114.052368,84.220718 
	C114.052490,80.596077 114.598274,76.937462 114.253502,73.355911 
	C113.873344,69.406754 116.311478,69.079796 118.944252,69.042130 
	C126.058266,68.940331 133.175079,69.048279 140.290787,69.048294 
	C820.558838,69.049400 1500.826904,69.052673 2181.094971,69.005745 
	C2191.555664,69.005020 2202.014404,68.279343 2212.477539,68.082741 
	C2220.972168,67.923134 2229.472168,68.050339 2237.019531,68.050339 
	C2237.019531,121.516769 2237.019531,175.553635 2237.019531,229.590500 
	C2237.019531,573.224182 2237.017090,916.857910 2237.036621,1260.491577 
	C2237.037109,1266.591064 2236.939697,1272.727051 2237.553955,1278.778320 
	C2238.015625,1283.330200 2235.797363,1285.974731 2232.136963,1286.127808 
	C2227.241455,1286.332397 2222.284180,1285.049561 2217.145996,1284.066650 
z"/>
<path fill="#C7C7C7" opacity="1.000000" stroke="none" 
	d="
M2342.104492,1345.911377 
	C2337.772461,1345.941040 2333.440918,1345.996338 2329.109131,1345.996338 
	C1557.344116,1345.997681 785.579224,1345.995361 13.353976,1345.956299 
	C12.914524,1345.504150 12.935349,1345.088501 12.941415,1344.361572 
	C47.754940,1344.033569 82.583221,1344.002319 117.411507,1344.002075 
	C858.646240,1343.998413 1599.880981,1343.998291 2341.573975,1344.316162 
	C2342.056396,1345.060303 2342.080322,1345.485840 2342.104492,1345.911377 
z"/>
<path fill="#A6A6A6" opacity="1.000000" stroke="none" 
	d="
M2342.425781,1345.923340 
	C2342.080322,1345.485840 2342.056396,1345.060303 2342.011230,1344.314941 
	C2341.997559,1343.247559 2342.005127,1342.499878 2342.001465,1341.378662 
	C2342.002930,1337.838745 2342.026367,1334.672485 2342.026367,1331.506348 
	C2342.026855,893.678162 2342.025879,455.850006 2342.026611,18.021820 
	C2342.026611,16.022034 2341.936523,14.008307 2342.177979,12.036556 
	C2342.217041,11.718934 2343.783203,11.588451 2344.807861,11.676406 
	C2344.958252,15.314054 2344.931885,18.646763 2344.931641,21.979473 
	C2344.929199,460.454865 2344.928955,898.930237 2344.925537,1337.405640 
	C2344.925537,1339.904419 2344.882812,1342.403320 2344.758301,1345.340576 
	C2344.020264,1345.831177 2343.383789,1345.883301 2342.425781,1345.923340 
z"/>
<path fill="#E5E5E5" opacity="1.000000" stroke="none" 
	d="
M113.727821,1285.271484 
	C116.917839,1285.078003 119.886482,1285.107178 122.971573,1284.792236 
	C123.500511,1284.333618 123.912987,1284.219360 124.737900,1284.508667 
	C127.027298,1285.256104 128.904221,1285.901245 130.781235,1285.901489 
	C462.081055,1285.950684 793.380859,1285.954102 1124.680664,1285.958862 
	C1159.343750,1285.959351 1194.006958,1285.989380 1228.669678,1285.872803 
	C1230.440186,1285.866821 1232.206421,1284.597290 1233.974731,1283.916016 
	C1250.584839,1284.740112 1267.202393,1285.438965 1283.803589,1286.415405 
	C1315.029663,1288.252197 1346.248657,1290.210327 1377.466064,1292.190552 
	C1407.523682,1294.097290 1437.575439,1296.095825 1467.871826,1298.401855 
	C1462.785767,1299.014282 1457.458130,1299.293335 1452.129028,1299.539185 
	C1446.276123,1299.809204 1440.423706,1300.113037 1434.567505,1300.270752 
	C1432.119385,1300.336792 1429.655273,1300.143921 1427.210327,1299.930908 
	C1416.208008,1298.972534 1405.202393,1298.042847 1394.214844,1296.933228 
	C1390.304199,1296.538208 1386.386353,1294.899170 1382.569824,1295.176636 
	C1375.724487,1295.674927 1369.164551,1293.796143 1362.559204,1293.635620 
	C1353.594116,1293.417725 1344.747925,1291.931396 1335.794800,1291.998291 
	C1327.120483,1292.063232 1318.421875,1292.383179 1309.775879,1291.876343 
	C1299.244629,1291.259033 1288.772949,1289.677734 1278.246460,1288.911255 
	C1266.341919,1288.044556 1254.195068,1285.912231 1242.524658,1287.347168 
	C1215.633423,1290.653564 1188.776855,1288.045654 1161.928833,1288.857544 
	C1154.604614,1289.079102 1147.241089,1287.473389 1139.875854,1287.135620 
	C1136.861450,1286.997437 1133.809937,1288.205078 1130.748047,1288.433350 
	C1126.030762,1288.785156 1121.290649,1288.844360 1116.558838,1288.979736 
	C1114.394043,1289.041748 1112.225952,1288.990234 1110.059448,1288.990234 
	C790.576233,1288.990234 471.093018,1288.998291 151.609802,1288.924927 
	C146.010498,1288.923706 140.420685,1287.736206 134.809296,1287.485596 
	C130.283707,1287.283569 125.714935,1287.946167 121.198898,1287.671997 
	C118.600273,1287.514160 116.068382,1286.256592 113.727821,1285.271484 
z"/>
<path fill="#E4E4E4" opacity="1.000000" stroke="none" 
	d="
M1477.280396,1298.952148 
	C1484.366211,1299.316528 1491.456177,1299.614014 1498.537109,1300.056763 
	C1532.272583,1302.165771 1566.003784,1304.341675 1599.739868,1306.439575 
	C1625.993530,1308.072266 1652.255615,1309.571533 1678.507446,1311.231201 
	C1699.114624,1312.533936 1719.707886,1314.055542 1740.314697,1315.363281 
	C1766.562378,1317.028931 1792.817505,1318.577271 1819.861938,1320.067871 
	C1821.445190,1319.635864 1822.235840,1319.312012 1823.026489,1318.988281 
	C1822.575806,1320.193115 1822.236816,1322.380249 1821.656616,1322.446167 
	C1817.307617,1322.940552 1812.912964,1323.097778 1808.528809,1323.194702 
	C1805.520996,1323.261230 1802.507202,1323.065063 1799.496338,1322.978638 
	C1798.620117,1322.953491 1797.683594,1323.091919 1796.878540,1322.832764 
	C1789.397339,1320.425903 1781.893921,1319.448608 1773.969482,1320.628784 
	C1770.456909,1321.151855 1766.668823,1319.767822 1762.998047,1319.312012 
	C1761.520752,1319.128540 1760.023682,1319.076172 1758.533569,1319.026489 
	C1751.079468,1318.777222 1743.625854,1318.486572 1736.169556,1318.328857 
	C1727.669312,1318.149048 1718.983032,1319.133179 1710.719482,1317.674561 
	C1703.380127,1316.379272 1695.320557,1319.726807 1688.647339,1314.407227 
	C1688.407837,1314.216431 1688.019287,1314.138062 1687.698730,1314.134399 
	C1679.625244,1314.042480 1671.549805,1314.043701 1663.479126,1313.846191 
	C1660.877563,1313.782471 1658.282715,1313.241577 1655.696899,1312.840942 
	C1654.727417,1312.690674 1653.802612,1312.130493 1652.839722,1312.077393 
	C1645.610962,1311.677246 1638.376709,1311.375854 1631.146118,1311.006714 
	C1625.155640,1310.701050 1618.674194,1308.760864 1613.309448,1310.431763 
	C1607.266602,1312.313965 1602.449097,1309.064819 1596.889282,1309.491211 
	C1590.260376,1309.999634 1583.469116,1308.187134 1576.729736,1307.586548 
	C1574.813965,1307.415894 1572.303101,1307.288330 1570.989990,1308.319214 
	C1567.919434,1310.729736 1565.479126,1309.554932 1562.923462,1307.944092 
	C1560.723999,1306.557983 1558.904175,1307.107300 1556.397705,1307.519043 
	C1551.813965,1308.271973 1546.583496,1308.904541 1542.235474,1305.533325 
	C1541.746338,1305.154053 1540.685181,1305.577759 1539.901611,1305.501953 
	C1535.918335,1305.117065 1531.942505,1304.651733 1527.956909,1304.295654 
	C1526.144043,1304.133789 1524.281738,1303.911499 1522.498291,1304.145874 
	C1516.849609,1304.888306 1511.445801,1304.838989 1505.738647,1303.378784 
	C1500.751831,1302.103027 1495.212769,1303.131592 1489.943481,1302.767822 
	C1485.879517,1302.487183 1481.855713,1301.626099 1477.474609,1300.502686 
	C1477.183716,1299.639038 1477.232056,1299.295532 1477.280396,1298.952148 
z"/>
<path fill="#E4E4E4" opacity="1.000000" stroke="none" 
	d="
M1820.091797,1315.020630 
	C1820.002319,1314.562988 1819.912720,1314.105225 1820.344238,1313.214722 
	C1821.253296,1310.977295 1821.862671,1309.187988 1821.988770,1307.365234 
	C1822.411987,1301.250977 1822.662842,1295.124756 1822.979736,1289.003174 
	C1823.292236,1296.125854 1823.662842,1303.246582 1823.884399,1310.372070 
	C1823.958252,1312.744507 1823.649536,1315.128906 1823.005615,1317.574707 
	C1821.694214,1316.767944 1820.893066,1315.894287 1820.091797,1315.020630 
z"/>
<path fill="#F7F7F7" opacity="1.000000" stroke="none" 
	d="
M1822.980225,1288.625244 
	C1822.662842,1295.124756 1822.411987,1301.250977 1821.988770,1307.365234 
	C1821.862671,1309.187988 1821.253296,1310.977295 1820.476562,1312.885498 
	C1820.003296,1304.225098 1819.878418,1295.461060 1819.890747,1286.697021 
	C1819.892212,1285.723511 1820.674805,1284.751099 1821.563477,1283.824707 
	C1822.348145,1285.329956 1822.664429,1286.788574 1822.980225,1288.625244 
z"/>
<path fill="#E5E5E5" opacity="1.000000" stroke="none" 
	d="
M1477.016357,1298.811035 
	C1477.232056,1299.295532 1477.183716,1299.639038 1477.068115,1300.498535 
	C1474.719849,1300.608521 1472.438965,1300.202393 1470.080566,1299.418091 
	C1472.252930,1298.916626 1474.502563,1298.793213 1477.016357,1298.811035 
z"/>
<path fill="#F7F7F7" opacity="1.000000" stroke="none" 
	d="
M1819.979248,1315.423096 
	C1820.893066,1315.894287 1821.694214,1316.767944 1822.736328,1317.819580 
	C1822.977173,1317.997559 1823.002197,1318.493164 1823.014404,1318.740723 
	C1822.235840,1319.312012 1821.445190,1319.635864 1820.312744,1319.975830 
	C1819.936279,1318.603149 1819.901611,1317.214233 1819.979248,1315.423096 
z"/>
<path fill="#FEFEFE" opacity="1.000000" stroke="none" 
	d="
M2104.768066,633.999878 
	C2104.768066,467.526917 2104.768066,301.553955 2104.768066,135.188675 
	C1486.590454,135.188675 868.546387,135.188675 250.263214,135.188675 
	C250.263214,496.818085 250.263214,858.403748 250.263214,1220.689453 
	C556.643921,1240.136841 863.066223,1259.586914 1169.488525,1279.036987 
	C1169.479126,1279.191772 1169.469849,1279.346680 1169.460449,1279.501465 
	C822.708862,1279.501465 475.957336,1279.501465 128.915344,1279.501465 
	C128.915344,878.330627 128.915344,477.276917 128.915344,76.190643 
	C828.411560,76.190643 1527.674561,76.190643 2227.182617,76.190643 
	C2227.182617,477.214691 2227.182617,878.269287 2227.182617,1279.595703 
	C2091.310547,1279.595703 1955.733887,1279.595703 1819.904053,1279.595703 
	C1819.904053,1259.949829 1819.904053,1240.545654 1819.904053,1220.710938 
	C1914.832031,1220.710938 2009.567871,1220.710938 2104.768066,1220.710938 
	C2104.768066,1025.020630 2104.768066,829.760254 2104.768066,633.999878 
z"/>
<path fill="#D0D0D0" opacity="1.000000" stroke="none" 
	d="
M1140.976440,190.051041 
	C1140.976440,190.051041 1140.608643,190.264542 1140.138672,189.947144 
	C1127.362183,188.433945 1115.071655,187.021790 1102.744751,186.095917 
	C1086.545532,184.879227 1070.316162,184.066238 1054.102295,183.041641 
	C1033.422729,181.734833 1012.747131,180.363586 992.066711,179.069901 
	C975.347595,178.024017 958.621216,177.091980 941.902771,176.034943 
	C927.020020,175.093979 912.149109,173.961334 897.263428,173.073151 
	C873.423523,171.650665 849.574524,170.381149 825.731812,169.004837 
	C814.810486,168.374405 803.895020,167.644257 792.976868,166.958618 
	C771.965271,165.639130 750.953857,164.317612 729.942078,162.999939 
	C718.901672,162.307571 707.857788,161.667328 696.820923,160.922516 
	C677.971863,159.650482 659.132324,158.234314 640.278870,157.033234 
	C627.200989,156.200104 614.098633,155.750259 601.021545,154.906754 
	C582.664062,153.722641 564.327087,152.217834 545.967773,151.066711 
	C531.886780,150.183868 517.784058,149.650238 503.693848,148.906265 
	C502.760773,148.857010 501.852386,148.340103 500.904053,147.732361 
	C500.364197,146.666824 499.852783,145.909637 499.372101,145.197998 
	C499.554077,145.063354 500.275177,144.529770 501.465149,143.997787 
	C509.956024,143.999786 517.978027,144.000198 526.062866,144.325546 
	C527.083069,144.433243 528.040283,144.216019 529.466370,143.999634 
	C1048.293457,143.997543 1566.651733,143.994629 2085.281738,144.261108 
	C2090.160645,145.037109 2089.011230,148.549042 2089.011475,151.335114 
	C2089.030273,501.661194 2089.027344,851.987305 2089.072021,1202.313354 
	C2089.072266,1204.539551 2089.718262,1206.765869 2090.053711,1209.261230 
	C2090.038330,1209.709595 2090.031982,1209.889038 2089.554688,1210.058105 
	C2000.380493,1210.054810 1911.677490,1210.061523 1822.978394,1209.595459 
	C1822.983276,887.719727 1822.984253,566.316895 1822.985840,244.914093 
	C1822.985840,241.941635 1822.993164,238.969162 1823.312256,235.939240 
	C1823.927979,235.135971 1824.228271,234.390152 1824.528687,233.644333 
	C1824.008179,233.807175 1823.487549,233.970001 1822.718506,234.098526 
	C1822.303345,234.046814 1822.136963,234.029434 1821.861816,233.803162 
	C1821.557129,233.329636 1821.298340,233.162720 1820.730835,233.081573 
	C1820.485229,233.069672 1819.993652,233.052979 1819.756104,232.745728 
	C1818.459229,231.990417 1817.424805,231.229538 1816.336914,231.143265 
	C1806.777100,230.385101 1797.215210,229.597427 1787.639160,229.113281 
	C1776.822266,228.566406 1765.988159,228.369675 1755.165405,227.926331 
	C1751.097534,227.759674 1747.040405,227.328354 1742.899902,226.645416 
	C1740.338379,224.428955 1737.976440,223.896240 1735.582397,226.917068 
	C1734.503540,226.915283 1733.784424,226.904861 1732.972168,226.571869 
	C1731.587524,226.188339 1730.295654,226.127365 1728.562012,226.050812 
	C1725.763428,225.998795 1723.406738,225.962372 1720.933838,225.559448 
	C1717.879639,225.142197 1714.941284,225.091431 1711.567993,225.031067 
	C1709.104126,224.992218 1707.075439,224.962997 1704.946289,224.580994 
	C1698.279297,219.587769 1691.025879,222.357773 1684.037720,222.372635 
	C1683.666016,222.373428 1683.296387,223.345612 1682.618530,223.873413 
	C1681.901855,223.871445 1681.492432,223.861633 1680.997314,223.552704 
	C1679.945801,223.176605 1678.979858,223.099625 1677.587646,223.015152 
	C1675.456909,222.981567 1673.752441,222.955475 1671.923584,222.551193 
	C1666.862793,222.109161 1661.926270,222.045334 1656.661865,221.977020 
	C1655.896484,221.969788 1655.459106,221.967026 1654.919189,221.817307 
	C1654.535156,221.763580 1654.253784,221.856827 1653.609863,221.948395 
	C1652.522705,221.924759 1651.798218,221.902817 1651.009277,221.606583 
	C1650.297119,221.244736 1649.649414,221.157150 1648.583984,221.054382 
	C1646.772705,221.030167 1645.379272,221.021118 1643.934326,220.689117 
	C1639.292847,218.048325 1638.984009,218.080093 1637.560181,220.959015 
	C1633.112549,220.606308 1629.080688,220.268326 1624.971191,219.614441 
	C1623.907715,219.498993 1622.922119,219.699432 1621.551025,219.910004 
	C1619.445923,219.610916 1617.726440,219.301697 1615.926270,218.640350 
	C1613.913086,216.277725 1612.238892,216.150894 1610.646484,218.955338 
	C1609.899170,218.947418 1609.472168,218.941269 1608.932739,218.573364 
	C1606.214111,218.142105 1603.608032,218.072617 1600.630859,217.999237 
	C1599.517822,217.982101 1598.775757,217.968826 1597.917480,217.574341 
	C1592.963135,216.806580 1588.125610,216.415253 1583.284424,216.072937 
	C1583.201050,216.067032 1583.075928,216.653244 1582.547607,216.964233 
	C1580.434326,216.950043 1578.743530,216.934784 1576.933838,216.554382 
	C1574.165649,215.610519 1571.536621,214.860275 1568.856445,214.549973 
	C1567.967651,214.447037 1566.947754,215.475296 1565.576660,215.982880 
	C1563.795898,215.957352 1562.426147,215.935318 1560.958984,215.574997 
	C1559.242554,215.181824 1557.623657,215.126968 1555.544800,215.059357 
	C1551.408691,215.003403 1547.732422,214.960205 1543.990234,214.636597 
	C1543.264404,214.543472 1542.604370,214.730774 1541.512207,214.927032 
	C1538.700195,215.347702 1536.320435,215.759415 1533.940674,216.171143 
	C1533.782349,216.230118 1533.624146,216.289078 1533.238770,215.840729 
	C1532.828491,212.814743 1531.706909,211.783173 1529.052734,212.436066 
	C1527.308594,212.865128 1525.422607,213.102646 1523.643921,212.942017 
	C1513.819946,212.055008 1504.024414,210.817276 1494.190063,210.095520 
	C1485.642456,209.468201 1477.056885,209.340195 1468.486328,209.048080 
	C1465.729370,208.954117 1462.867554,209.503510 1460.227905,208.940948 
	C1455.637329,207.962646 1451.588501,207.280960 1446.505005,208.327103 
	C1440.088501,209.647583 1432.957031,207.485962 1426.133179,206.836945 
	C1417.782715,206.042725 1409.440430,205.129639 1401.075928,204.529144 
	C1397.210449,204.251648 1393.261230,204.966553 1389.420776,204.561035 
	C1384.538452,204.045502 1379.846191,200.981293 1374.754272,203.873398 
	C1374.197266,204.189774 1373.162354,203.693787 1372.356323,203.536926 
	C1369.815674,203.042389 1367.288086,202.157623 1364.738281,202.092194 
	C1356.067993,201.869659 1347.354492,202.407852 1338.725708,201.754105 
	C1330.250610,201.111984 1321.891235,199.040100 1313.421021,198.205872 
	C1305.288818,197.404968 1297.072754,197.012787 1288.907227,197.167068 
	C1284.146118,197.257019 1279.447876,198.720215 1275.431030,194.831238 
	C1274.973145,194.388031 1273.882568,194.470291 1273.096680,194.513840 
	C1264.775513,194.975052 1256.461548,195.679245 1248.134888,195.889679 
	C1243.523682,196.006180 1238.888062,195.365067 1234.270874,194.977463 
	C1227.353027,194.396698 1220.444946,193.699051 1213.526611,193.124802 
	C1207.073486,192.589157 1200.615845,192.095245 1194.153687,191.684921 
	C1188.895508,191.351028 1183.625366,191.206863 1178.364746,190.904984 
	C1174.573486,190.687424 1170.785522,190.386932 1167.002686,190.050766 
	C1164.531006,189.831131 1162.012329,189.009140 1159.619751,189.305420 
	C1156.363647,189.708649 1151.942139,186.277588 1150.013794,191.804474 
	C1149.245361,191.842834 1148.476807,191.881195 1147.315063,191.417938 
	C1145.390625,187.531387 1143.168579,188.894287 1140.976440,190.051041 
z"/>
<path fill="#FAFBFC" opacity="1.000000" stroke="none" 
	d="
M281.428894,1071.999512 
	C281.428894,766.204712 281.428894,460.909912 281.428894,154.807907 
	C783.679810,186.688263 1285.894409,218.566315 1788.300781,250.456543 
	C1788.300781,600.461487 1788.300781,950.044983 1788.300781,1300.382568 
	C1286.092896,1268.496338 783.885010,1236.609985 281.428925,1204.708008 
	C281.428925,1160.411377 281.428925,1116.455566 281.428894,1071.999512 
M307.051971,641.918274 
	C307.045532,697.655273 307.037720,753.392273 307.041107,809.129272 
	C307.041199,810.454712 307.166901,811.780151 307.089661,814.019470 
	C307.066986,939.001404 307.043152,1063.983398 307.043396,1188.965332 
	C307.043396,1189.890625 307.373260,1190.815918 307.558533,1191.790894 
	C792.679077,1222.589600 1277.532104,1253.371216 1763.073364,1284.196533 
	C1763.073364,1281.138306 1763.073364,1278.524902 1763.073364,1275.911377 
	C1763.071289,1036.777954 1763.070190,797.644470 1763.054932,558.511047 
	C1763.054810,556.687866 1762.864258,554.864624 1763.021729,552.126404 
	C1763.041138,495.937592 1763.062622,439.748779 1763.066528,383.559967 
	C1763.066650,382.404755 1762.864868,381.249573 1762.998535,379.172546 
	C1763.023193,342.175293 1762.980225,305.177673 1763.167725,268.181244 
	C1763.188599,264.046204 1761.657104,263.144470 1757.965210,263.010773 
	C1748.482056,262.667267 1739.009521,262.000061 1729.537109,261.394531 
	C1683.664185,258.462158 1637.793945,255.484436 1591.919922,252.567856 
	C1554.522217,250.190186 1517.117920,247.915817 1479.721191,245.522949 
	C1441.163574,243.055832 1402.614136,240.460678 1364.056396,237.996460 
	C1330.983887,235.882812 1297.903320,233.900970 1264.829224,231.812683 
	C1233.749023,229.850296 1202.674805,227.790421 1171.593994,225.837585 
	C1144.172363,224.114624 1116.741455,222.537537 1089.321289,220.793015 
	C1049.761353,218.276123 1010.210510,215.617584 970.649963,213.111618 
	C940.899414,211.227036 911.136292,209.541458 881.385071,207.667618 
	C851.964233,205.814606 822.553101,203.810120 793.134399,201.923050 
	C774.689087,200.739868 756.235046,199.693604 737.789795,198.510071 
	C704.382507,196.366547 670.981689,194.121292 637.572754,192.004608 
	C612.640442,190.424973 587.694153,189.063293 562.763733,187.455917 
	C530.366089,185.367096 497.981812,183.070969 465.584473,180.977402 
	C440.154785,179.334076 414.711060,177.908615 389.278870,176.302597 
	C362.044464,174.582748 334.816284,172.764816 307.026093,170.953232 
	C307.026093,172.948120 307.026093,174.739792 307.026093,176.531448 
	C307.024445,328.187988 307.021729,479.844543 307.028351,631.501099 
	C307.028503,634.663757 307.136932,637.826477 307.051971,641.918274 
z"/>
<path fill="#EBEBEB" opacity="1.000000" stroke="none" 
	d="
M2090.025879,1210.068359 
	C2090.031982,1209.889038 2090.038330,1209.709595 2090.324707,1208.950684 
	C2090.730225,1206.223755 2090.964844,1204.076538 2090.965088,1201.929321 
	C2090.981445,971.015564 2090.980469,740.101746 2090.980469,509.187988 
	C2090.980469,389.732605 2090.964600,270.277191 2091.043701,150.821854 
	C2091.046631,146.370651 2090.678467,143.052979 2085.010010,143.991699 
	C1566.651733,143.994629 1048.293457,143.997543 529.091736,143.995667 
	C527.498840,143.994095 526.749451,143.997345 526.000000,144.000610 
	C517.978027,144.000198 509.956024,143.999786 501.028320,143.994125 
	C498.083496,143.990997 496.044342,143.993134 493.560425,143.996964 
	C490.742676,143.998291 488.369720,143.997925 485.535187,143.993378 
	C481.427795,144.138443 477.781982,144.287689 474.136200,144.436935 
	C474.166351,145.299911 474.196472,146.162903 474.226593,147.025879 
	C478.136017,147.025879 482.045471,147.025879 486.365540,147.030792 
	C489.179626,147.353165 491.583099,147.670593 494.422607,147.995560 
	C496.883270,148.015640 498.907898,148.028183 500.932495,148.040710 
	C501.852386,148.340103 502.760773,148.857010 503.693848,148.906265 
	C517.784058,149.650238 531.886780,150.183868 545.967773,151.066711 
	C564.327087,152.217834 582.664062,153.722641 601.021545,154.906754 
	C614.098633,155.750259 627.200989,156.200104 640.278870,157.033234 
	C659.132324,158.234314 677.971863,159.650482 696.820923,160.922516 
	C707.857788,161.667328 718.901672,162.307571 729.942078,162.999939 
	C750.953857,164.317612 771.965271,165.639130 792.976868,166.958618 
	C803.895020,167.644257 814.810486,168.374405 825.731812,169.004837 
	C849.574524,170.381149 873.423523,171.650665 897.263428,173.073151 
	C912.149109,173.961334 927.020020,175.093979 941.902771,176.034943 
	C958.621216,177.091980 975.347595,178.024017 992.066711,179.069901 
	C1012.747131,180.363586 1033.422729,181.734833 1054.102295,183.041641 
	C1070.316162,184.066238 1086.545532,184.879227 1102.744751,186.095917 
	C1115.071655,187.021790 1127.362183,188.433945 1139.927002,189.966858 
	C1136.482300,190.540802 1132.753052,191.185440 1129.080811,190.948532 
	C1104.838379,189.384583 1080.614502,187.534546 1056.372925,185.958176 
	C995.204895,181.980637 934.031189,178.089188 872.858643,174.181152 
	C825.811768,171.175522 778.764893,168.167801 731.714722,165.214127 
	C676.358459,161.738998 620.996033,158.362152 565.641174,154.864563 
	C527.238708,152.438095 488.848602,149.816803 450.445496,147.401260 
	C422.756500,145.659607 395.055176,144.113388 367.358734,141.889969 
	C942.358398,141.889969 1517.358154,141.889969 2092.649414,141.889969 
	C2092.649414,498.985046 2092.649414,856.058655 2092.649414,1213.547241 
	C2001.881104,1213.547241 1911.030151,1213.547241 1819.863647,1213.547241 
	C1819.863647,887.354858 1819.863647,561.265076 1819.896240,234.469620 
	C1819.950317,233.526978 1819.971924,233.289978 1819.993652,233.052979 
	C1819.993652,233.052979 1820.485229,233.069672 1820.847168,233.282043 
	C1821.410522,233.744232 1821.664307,233.916779 1821.970703,234.012070 
	C1822.136963,234.029434 1822.303345,234.046814 1822.724609,234.407593 
	C1822.985229,235.166214 1822.991089,235.581451 1822.996948,235.996704 
	C1822.993164,238.969162 1822.985840,241.941635 1822.985840,244.914093 
	C1822.984253,566.316895 1822.983276,887.719727 1823.082275,1209.981445 
	C1825.033081,1211.222046 1826.883423,1211.935059 1828.734619,1211.937012 
	C1882.198608,1211.996704 1935.662720,1211.984741 1989.126709,1211.985474 
	C2020.938599,1211.985962 2052.750488,1212.020142 2084.562256,1211.908203 
	C2086.385498,1211.901733 2088.204834,1210.708984 2090.025879,1210.068359 
M438.437347,144.011307 
	C437.980316,144.139420 437.523285,144.267548 437.066284,144.395660 
	C437.072754,144.678375 437.079254,144.961090 437.085724,145.243805 
	C448.152496,145.243805 459.219238,145.243805 470.286011,145.243805 
	C470.293549,144.830139 470.301117,144.416458 470.308685,144.002792 
	C459.953705,144.002792 449.598694,144.002792 438.437347,144.011307 
z"/>
<path fill="#B7B7B7" opacity="1.000000" stroke="none" 
	d="
M1233.604492,1283.736450 
	C1232.206421,1284.597290 1230.440186,1285.866821 1228.669678,1285.872803 
	C1194.006958,1285.989380 1159.343750,1285.959351 1124.680664,1285.958862 
	C793.380859,1285.954102 462.081055,1285.950684 130.781235,1285.901489 
	C128.904221,1285.901245 127.027298,1285.256104 125.059525,1284.523193 
	C132.400772,1283.898438 139.832748,1283.459473 147.264877,1283.457397 
	C290.764282,1283.416870 434.263702,1283.427612 577.763123,1283.427612 
	C759.929016,1283.427612 942.094971,1283.420532 1124.260864,1283.433228 
	C1160.585327,1283.435669 1196.909668,1283.513672 1233.604492,1283.736450 
z"/>
<path fill="#DDDDDD" opacity="1.000000" stroke="none" 
	d="
M1150.451050,191.898682 
	C1151.942139,186.277588 1156.363647,189.708649 1159.619751,189.305420 
	C1162.012329,189.009140 1164.531006,189.831131 1167.002686,190.050766 
	C1170.785522,190.386932 1174.573486,190.687424 1178.364746,190.904984 
	C1183.625366,191.206863 1188.895508,191.351028 1194.153687,191.684921 
	C1200.615845,192.095245 1207.073486,192.589157 1213.526611,193.124802 
	C1220.444946,193.699051 1227.353027,194.396698 1234.270874,194.977463 
	C1238.888062,195.365067 1243.523682,196.006180 1248.134888,195.889679 
	C1256.461548,195.679245 1264.775513,194.975052 1273.096680,194.513840 
	C1273.882568,194.470291 1274.973145,194.388031 1275.431030,194.831238 
	C1279.447876,198.720215 1284.146118,197.257019 1288.907227,197.167068 
	C1297.072754,197.012787 1305.288818,197.404968 1313.421021,198.205872 
	C1321.891235,199.040100 1330.250610,201.111984 1338.725708,201.754105 
	C1347.354492,202.407852 1356.067993,201.869659 1364.738281,202.092194 
	C1367.288086,202.157623 1369.815674,203.042389 1372.356323,203.536926 
	C1373.162354,203.693787 1374.197266,204.189774 1374.754272,203.873398 
	C1379.846191,200.981293 1384.538452,204.045502 1389.420776,204.561035 
	C1393.261230,204.966553 1397.210449,204.251648 1401.075928,204.529144 
	C1409.440430,205.129639 1417.782715,206.042725 1426.133179,206.836945 
	C1432.957031,207.485962 1440.088501,209.647583 1446.505005,208.327103 
	C1451.588501,207.280960 1455.637329,207.962646 1460.227905,208.940948 
	C1462.867554,209.503510 1465.729370,208.954117 1468.486328,209.048080 
	C1477.056885,209.340195 1485.642456,209.468201 1494.190063,210.095520 
	C1504.024414,210.817276 1513.819946,212.055008 1523.643921,212.942017 
	C1525.422607,213.102646 1527.308594,212.865128 1529.052734,212.436066 
	C1531.706909,211.783173 1532.828491,212.814743 1533.011963,215.727859 
	C1508.267578,214.608765 1483.520752,213.132446 1458.778931,211.572968 
	C1420.747803,209.175842 1382.720459,206.719940 1344.691284,204.292114 
	C1318.457031,202.617294 1292.222778,200.941467 1265.987915,199.277451 
	C1227.621704,196.843933 1189.254883,194.420593 1150.451050,191.898682 
z"/>
<path fill="#E8E8E8" opacity="1.000000" stroke="none" 
	d="
M1819.756104,232.745728 
	C1819.971924,233.289978 1819.950317,233.526978 1819.880615,234.117706 
	C1724.797119,228.461380 1629.761719,222.451309 1534.333496,216.306183 
	C1536.320435,215.759415 1538.700195,215.347702 1541.864258,214.949860 
	C1543.117676,214.948166 1543.587036,214.932587 1544.056274,214.917007 
	C1547.732422,214.960205 1551.408691,215.003403 1555.812622,215.314789 
	C1558.045776,215.693085 1559.551147,215.803192 1561.056519,215.913300 
	C1562.426147,215.935318 1563.795898,215.957352 1565.992676,216.001221 
	C1570.230835,216.321899 1573.641846,216.620712 1577.052856,216.919525 
	C1578.743530,216.934784 1580.434326,216.950043 1582.988525,216.978638 
	C1588.579346,217.313141 1593.306641,217.634338 1598.033813,217.955536 
	C1598.775757,217.968826 1599.517822,217.982101 1601.033691,218.012695 
	C1604.220093,218.331726 1606.632568,218.633423 1609.045166,218.935120 
	C1609.472168,218.941269 1609.899170,218.947418 1611.067139,218.971893 
	C1613.207764,218.990982 1614.607422,218.991714 1616.006958,218.992462 
	C1617.726440,219.301697 1619.445923,219.610916 1621.939941,219.940552 
	C1623.492676,219.950745 1624.270752,219.940536 1625.048950,219.930328 
	C1629.080688,220.268326 1633.112549,220.606308 1637.990601,220.970352 
	C1640.553223,221.001633 1642.269531,221.006851 1643.985840,221.012085 
	C1645.379272,221.021118 1646.772705,221.030167 1648.770752,221.282257 
	C1649.941528,221.643829 1650.507568,221.762344 1651.073608,221.880859 
	C1651.798218,221.902817 1652.522705,221.924759 1653.872192,221.961227 
	C1654.671875,221.971924 1654.846802,221.968109 1655.021851,221.964279 
	C1655.459106,221.967026 1655.896484,221.969788 1657.110596,221.986877 
	C1662.607666,222.310593 1667.327881,222.619980 1672.047974,222.929382 
	C1673.752441,222.955475 1675.456909,222.981567 1677.885742,223.139969 
	C1679.434326,223.465454 1680.258545,223.658630 1681.082886,223.851807 
	C1681.492432,223.861633 1681.901855,223.871445 1683.092773,223.914352 
	C1690.931763,224.276230 1697.989136,224.604996 1705.046631,224.933762 
	C1707.075439,224.962997 1709.104126,224.992218 1711.863037,225.301361 
	C1715.412109,225.696152 1718.230957,225.811050 1721.049927,225.925949 
	C1723.406738,225.962372 1725.763428,225.998795 1728.812622,226.302658 
	C1730.691772,226.678192 1731.878418,226.786316 1733.065186,226.894440 
	C1733.784424,226.904861 1734.503540,226.915283 1736.024414,226.946457 
	C1738.876953,226.984039 1740.927612,227.000854 1742.978394,227.017685 
	C1747.040405,227.328354 1751.097534,227.759674 1755.165405,227.926331 
	C1765.988159,228.369675 1776.822266,228.566406 1787.639160,229.113281 
	C1797.215210,229.597427 1806.777100,230.385101 1816.336914,231.143265 
	C1817.424805,231.229538 1818.459229,231.990417 1819.756104,232.745728 
z"/>
<path fill="#DDDDDD" opacity="1.000000" stroke="none" 
	d="
M1141.250000,190.276917 
	C1143.168579,188.894287 1145.390625,187.531387 1146.951294,191.280197 
	C1145.161743,191.263611 1143.342529,190.883194 1141.250000,190.276917 
z"/>
<path fill="#E0E0E0" opacity="1.000000" stroke="none" 
	d="
M2085.281738,144.261108 
	C2090.678467,143.052979 2091.046631,146.370651 2091.043701,150.821854 
	C2090.964600,270.277191 2090.980469,389.732605 2090.980469,509.187988 
	C2090.980469,740.101746 2090.981445,971.015564 2090.965088,1201.929321 
	C2090.964844,1204.076538 2090.730225,1206.223755 2090.333984,1208.681519 
	C2089.718262,1206.765869 2089.072266,1204.539551 2089.072021,1202.313354 
	C2089.027344,851.987305 2089.030273,501.661194 2089.011475,151.335114 
	C2089.011230,148.549042 2090.160645,145.037109 2085.281738,144.261108 
z"/>
<path fill="#E0E0E0" opacity="1.000000" stroke="none" 
	d="
M2089.554688,1210.058105 
	C2088.204834,1210.708984 2086.385498,1211.901733 2084.562256,1211.908203 
	C2052.750488,1212.020142 2020.938599,1211.985962 1989.126709,1211.985474 
	C1935.662720,1211.984741 1882.198608,1211.996704 1828.734619,1211.937012 
	C1826.883423,1211.935059 1825.033081,1211.222046 1823.078369,1210.454346 
	C1911.677490,1210.061523 2000.380493,1210.054810 2089.554688,1210.058105 
z"/>
<path fill="#DDDDDD" opacity="1.000000" stroke="none" 
	d="
M1704.946289,224.580994 
	C1697.989136,224.604996 1690.931763,224.276230 1683.399902,223.906525 
	C1683.296387,223.345612 1683.666016,222.373428 1684.037720,222.372635 
	C1691.025879,222.357773 1698.279297,219.587769 1704.946289,224.580994 
z"/>
<path fill="#DDDDDD" opacity="1.000000" stroke="none" 
	d="
M1597.917480,217.574341 
	C1593.306641,217.634338 1588.579346,217.313141 1583.411255,216.977554 
	C1583.075928,216.653244 1583.201050,216.067032 1583.284424,216.072937 
	C1588.125610,216.415253 1592.963135,216.806580 1597.917480,217.574341 
z"/>
<path fill="#E0E0E0" opacity="1.000000" stroke="none" 
	d="
M494.005219,143.995255 
	C496.044342,143.993134 498.083496,143.990997 500.559448,143.992538 
	C500.275177,144.529770 499.554077,145.063354 499.372101,145.197998 
	C499.852783,145.909637 500.364197,146.666824 500.904053,147.732361 
	C498.907898,148.028183 496.883270,148.015640 494.460327,147.699173 
	C494.043091,146.261917 494.024139,145.128586 494.005219,143.995255 
z"/>
<path fill="#DDDDDD" opacity="1.000000" stroke="none" 
	d="
M1576.933838,216.554382 
	C1573.641846,216.620712 1570.230835,216.321899 1566.403809,216.004730 
	C1566.947754,215.475296 1567.967651,214.447037 1568.856445,214.549973 
	C1571.536621,214.860275 1574.165649,215.610519 1576.933838,216.554382 
z"/>
<path fill="#DDDDDD" opacity="1.000000" stroke="none" 
	d="
M1671.923584,222.551178 
	C1667.327881,222.619980 1662.607666,222.310593 1657.438721,221.991348 
	C1661.926270,222.045334 1666.862793,222.109161 1671.923584,222.551178 
z"/>
<path fill="#DDDDDD" opacity="1.000000" stroke="none" 
	d="
M1720.933838,225.559448 
	C1718.230957,225.811050 1715.412109,225.696152 1712.298096,225.310959 
	C1714.941284,225.091431 1717.879639,225.142197 1720.933838,225.559448 
z"/>
<path fill="#DDDDDD" opacity="1.000000" stroke="none" 
	d="
M1742.899902,226.645416 
	C1740.927612,227.000854 1738.876953,226.984039 1736.384033,226.937820 
	C1737.976440,223.896240 1740.338379,224.428955 1742.899902,226.645416 
z"/>
<path fill="#DDDDDD" opacity="1.000000" stroke="none" 
	d="
M1608.932739,218.573364 
	C1606.632568,218.633423 1604.220093,218.331726 1601.404663,218.016571 
	C1603.608032,218.072617 1606.214111,218.142105 1608.932739,218.573364 
z"/>
<path fill="#DDDDDD" opacity="1.000000" stroke="none" 
	d="
M1643.934326,220.689117 
	C1642.269531,221.006851 1640.553223,221.001633 1638.406494,220.985077 
	C1638.984009,218.080093 1639.292847,218.048325 1643.934326,220.689117 
z"/>
<path fill="#DDDDDD" opacity="1.000000" stroke="none" 
	d="
M1615.926270,218.640350 
	C1614.607422,218.991714 1613.207764,218.990982 1611.387451,218.973663 
	C1612.238892,216.150894 1613.913086,216.277725 1615.926270,218.640350 
z"/>
<path fill="#DDDDDD" opacity="1.000000" stroke="none" 
	d="
M1560.958984,215.574997 
	C1559.551147,215.803192 1558.045776,215.693085 1556.272583,215.327530 
	C1557.623657,215.126968 1559.242554,215.181824 1560.958984,215.574997 
z"/>
<path fill="#DDDDDD" opacity="1.000000" stroke="none" 
	d="
M1732.972168,226.571869 
	C1731.878418,226.786316 1730.691772,226.678192 1729.254395,226.318237 
	C1730.295654,226.127365 1731.587524,226.188339 1732.972168,226.571869 
z"/>
<path fill="#E0E0E0" opacity="1.000000" stroke="none" 
	d="
M1823.312256,235.939240 
	C1822.991089,235.581451 1822.985229,235.166214 1822.973145,234.441895 
	C1823.487549,233.970001 1824.008179,233.807175 1824.528687,233.644333 
	C1824.228271,234.390152 1823.927979,235.135971 1823.312256,235.939240 
z"/>
<path fill="#DDDDDD" opacity="1.000000" stroke="none" 
	d="
M1624.971191,219.614441 
	C1624.270752,219.940536 1623.492676,219.950745 1622.325439,219.930405 
	C1622.922119,219.699432 1623.907715,219.498993 1624.971191,219.614441 
z"/>
<path fill="#E0E0E0" opacity="1.000000" stroke="none" 
	d="
M526.062866,144.325546 
	C526.749451,143.997345 527.498840,143.994095 528.622925,143.994812 
	C528.040283,144.216019 527.083069,144.433243 526.062866,144.325546 
z"/>
<path fill="#DDDDDD" opacity="1.000000" stroke="none" 
	d="
M1680.997314,223.552704 
	C1680.258545,223.658630 1679.434326,223.465454 1678.311890,223.147461 
	C1678.979858,223.099625 1679.945801,223.176605 1680.997314,223.552704 
z"/>
<path fill="#DDDDDD" opacity="1.000000" stroke="none" 
	d="
M1543.990234,214.636597 
	C1543.587036,214.932587 1543.117676,214.948166 1542.296387,214.940918 
	C1542.604370,214.730774 1543.264404,214.543472 1543.990234,214.636597 
z"/>
<path fill="#DDDDDD" opacity="1.000000" stroke="none" 
	d="
M1651.009277,221.606583 
	C1650.507568,221.762344 1649.941528,221.643829 1649.188599,221.297455 
	C1649.649414,221.157150 1650.297119,221.244736 1651.009277,221.606583 
z"/>
<path fill="#DDDDDD" opacity="1.000000" stroke="none" 
	d="
M1654.919189,221.817307 
	C1654.846802,221.968109 1654.671875,221.971924 1654.234741,221.962906 
	C1654.253784,221.856827 1654.535156,221.763580 1654.919189,221.817307 
z"/>
<path fill="#E0E0E0" opacity="1.000000" stroke="none" 
	d="
M1821.861816,233.803162 
	C1821.664307,233.916779 1821.410522,233.744232 1821.092773,233.293961 
	C1821.298340,233.162720 1821.557129,233.329636 1821.861816,233.803162 
z"/>
<path fill="#01BFD5" opacity="1.000000" stroke="none" 
	d="
M1762.762695,553.041443 
	C1762.864258,554.864624 1763.054810,556.687866 1763.054932,558.511047 
	C1763.070190,797.644470 1763.071289,1036.777954 1763.073364,1275.911377 
	C1763.073364,1278.524902 1763.073364,1281.138306 1763.073364,1284.196533 
	C1277.532104,1253.371216 792.679077,1222.589600 307.558533,1191.790894 
	C307.373260,1190.815918 307.043396,1189.890625 307.043396,1188.965332 
	C307.043152,1063.983398 307.066986,939.001404 307.597778,813.538635 
	C323.778717,810.522888 339.469940,808.095337 355.118835,805.420410 
	C368.659363,803.105896 382.135559,800.416260 395.670135,798.064758 
	C410.674072,795.457886 425.736877,793.186218 440.727417,790.507385 
	C453.591614,788.208557 466.366852,785.414490 479.223206,783.068542 
	C496.313354,779.949951 513.447083,777.070679 530.556152,774.054871 
	C539.849487,772.416687 549.118164,770.636536 558.419739,769.047668 
	C575.063477,766.204712 591.749329,763.601135 608.368774,760.624939 
	C621.236511,758.320618 634.000000,755.435669 646.863159,753.102722 
	C667.377747,749.382080 687.946106,745.958679 708.473877,742.309448 
	C725.433777,739.294495 742.357849,736.078125 759.316101,733.053589 
	C779.685486,729.420654 800.084045,725.950989 820.451660,722.308167 
	C837.242676,719.305115 853.994934,716.085388 870.786072,713.083191 
	C892.940186,709.122070 915.121399,705.312866 937.279663,701.374756 
	C952.605896,698.650879 967.905640,695.778259 983.230469,693.045959 
	C1005.225403,689.124512 1027.242065,685.324768 1049.230713,681.368774 
	C1064.059082,678.701050 1078.840088,675.769165 1093.670288,673.112488 
	C1105.563354,670.981995 1117.515259,669.179504 1129.411011,667.063599 
	C1141.957275,664.832031 1154.452515,662.314392 1166.997681,660.076782 
	C1188.989502,656.154175 1211.010742,652.398071 1233.002686,648.476074 
	C1244.410889,646.441650 1255.765015,644.103149 1267.174072,642.074036 
	C1293.259399,637.434692 1319.374756,632.963074 1345.456177,628.302307 
	C1362.083374,625.330994 1378.651733,622.029175 1395.282837,619.081421 
	C1415.820801,615.441162 1436.415161,612.118164 1456.951050,608.466248 
	C1477.645996,604.786072 1498.285400,600.794739 1518.974365,597.079468 
	C1540.963867,593.130554 1562.990845,589.391968 1584.985962,585.473572 
	C1600.306396,582.744263 1615.588013,579.796997 1630.909058,577.071838 
	C1652.913696,573.157837 1674.944946,569.393982 1696.952026,565.493591 
	C1708.692871,563.412781 1720.414185,561.219910 1732.130249,559.003540 
	C1742.351318,557.070129 1752.552612,555.032837 1762.762695,553.041443 
z"/>
<path fill="#01BFD5" opacity="1.000000" stroke="none" 
	d="
M307.194824,640.989136 
	C307.136932,637.826477 307.028503,634.663757 307.028351,631.501099 
	C307.021729,479.844543 307.024445,328.187988 307.026093,176.531448 
	C307.026093,174.739792 307.026093,172.948120 307.026093,170.953232 
	C334.816284,172.764816 362.044464,174.582748 389.278870,176.302597 
	C414.711060,177.908615 440.154785,179.334076 465.584473,180.977402 
	C497.981812,183.070969 530.366089,185.367096 562.763733,187.455917 
	C587.694153,189.063293 612.640442,190.424973 637.572754,192.004608 
	C670.981689,194.121292 704.382507,196.366547 737.789795,198.510071 
	C756.235046,199.693604 774.689087,200.739868 793.134399,201.923050 
	C822.553101,203.810120 851.964233,205.814606 881.385071,207.667618 
	C911.136292,209.541458 940.899414,211.227036 970.649963,213.111618 
	C1010.210510,215.617584 1049.761353,218.276123 1089.321289,220.793015 
	C1116.741455,222.537537 1144.172363,224.114624 1171.593994,225.837585 
	C1202.674805,227.790421 1233.749023,229.850296 1264.829224,231.812683 
	C1297.903320,233.900970 1330.983887,235.882812 1364.056396,237.996460 
	C1402.614136,240.460678 1441.163574,243.055832 1479.721191,245.522949 
	C1517.117920,247.915817 1554.522217,250.190186 1591.919922,252.567856 
	C1637.793945,255.484436 1683.664185,258.462158 1729.537109,261.394531 
	C1739.009521,262.000061 1748.482056,262.667267 1757.965210,263.010773 
	C1761.657104,263.144470 1763.188599,264.046204 1763.167725,268.181244 
	C1762.980225,305.177673 1763.023193,342.175293 1762.491455,379.675690 
	C1757.119995,381.118164 1752.264282,382.104492 1747.390015,382.988495 
	C1728.991943,386.325195 1710.591675,389.649933 1692.185059,392.938660 
	C1673.290527,396.314575 1654.389771,399.655426 1635.487549,402.988190 
	C1622.940796,405.200409 1610.380737,407.337311 1597.837524,409.569092 
	C1580.234863,412.701080 1562.643555,415.898193 1545.044678,419.052002 
	C1528.260864,422.059784 1511.463623,424.993439 1494.690186,428.058746 
	C1475.155884,431.628662 1455.661377,435.418762 1436.112671,438.906555 
	C1415.261475,442.626678 1394.348022,445.997467 1373.497681,449.721863 
	C1355.244873,452.982269 1337.062256,456.635406 1318.811890,459.910065 
	C1292.757202,464.585022 1266.662598,469.036438 1240.598267,473.657806 
	C1229.349731,475.652252 1218.154541,477.949646 1206.899414,479.903564 
	C1186.519531,483.441711 1166.101685,486.760468 1145.720703,490.293030 
	C1127.300049,493.485809 1108.899048,496.794525 1090.504761,500.137299 
	C1065.760376,504.634064 1041.030518,509.211578 1016.294922,513.756470 
	C1005.061768,515.820496 993.840820,517.953491 982.594482,519.942871 
	C956.678284,524.527161 930.736938,528.970459 904.831055,533.612122 
	C888.220764,536.588257 871.678833,539.946228 855.064758,542.900146 
	C829.157898,547.506287 803.205872,551.857605 777.292603,556.428528 
	C761.801697,559.161011 746.360107,562.172119 730.875244,564.940063 
	C708.888184,568.870178 686.875122,572.654907 664.885742,576.572327 
	C649.563965,579.301880 634.273132,582.205505 618.950745,584.931519 
	C596.962524,588.843506 574.951843,592.628723 552.962891,596.536743 
	C537.479248,599.288513 522.017944,602.165771 506.542908,604.966309 
	C487.981628,608.325256 469.422729,611.698364 450.851105,614.999451 
	C429.984589,618.708435 409.097870,622.303894 388.233734,626.026184 
	C375.685852,628.264832 363.164734,630.653748 350.630676,632.970276 
	C336.152618,635.645996 321.673492,638.316406 307.194824,640.989136 
z"/>
<path fill="#00E4FD" opacity="1.000000" stroke="none" 
	d="
M307.123413,641.453735 
	C321.673492,638.316406 336.152618,635.645996 350.630676,632.970276 
	C363.164734,630.653748 375.685852,628.264832 388.233734,626.026184 
	C409.097870,622.303894 429.984589,618.708435 450.851105,614.999451 
	C469.422729,611.698364 487.981628,608.325256 506.542908,604.966309 
	C522.017944,602.165771 537.479248,599.288513 552.962891,596.536743 
	C574.951843,592.628723 596.962524,588.843506 618.950745,584.931519 
	C634.273132,582.205505 649.563965,579.301880 664.885742,576.572327 
	C686.875122,572.654907 708.888184,568.870178 730.875244,564.940063 
	C746.360107,562.172119 761.801697,559.161011 777.292603,556.428528 
	C803.205872,551.857605 829.157898,547.506287 855.064758,542.900146 
	C871.678833,539.946228 888.220764,536.588257 904.831055,533.612122 
	C930.736938,528.970459 956.678284,524.527161 982.594482,519.942871 
	C993.840820,517.953491 1005.061768,515.820496 1016.294922,513.756470 
	C1041.030518,509.211578 1065.760376,504.634064 1090.504761,500.137299 
	C1108.899048,496.794525 1127.300049,493.485809 1145.720703,490.293030 
	C1166.101685,486.760468 1186.519531,483.441711 1206.899414,479.903564 
	C1218.154541,477.949646 1229.349731,475.652252 1240.598267,473.657806 
	C1266.662598,469.036438 1292.757202,464.585022 1318.811890,459.910065 
	C1337.062256,456.635406 1355.244873,452.982269 1373.497681,449.721863 
	C1394.348022,445.997467 1415.261475,442.626678 1436.112671,438.906555 
	C1455.661377,435.418762 1475.155884,431.628662 1494.690186,428.058746 
	C1511.463623,424.993439 1528.260864,422.059784 1545.044678,419.052002 
	C1562.643555,415.898193 1580.234863,412.701080 1597.837524,409.569092 
	C1610.380737,407.337311 1622.940796,405.200409 1635.487549,402.988190 
	C1654.389771,399.655426 1673.290527,396.314575 1692.185059,392.938660 
	C1710.591675,389.649933 1728.991943,386.325195 1747.390015,382.988495 
	C1752.264282,382.104492 1757.119995,381.118164 1762.370728,380.136597 
	C1762.864868,381.249573 1763.066650,382.404755 1763.066528,383.559967 
	C1763.062622,439.748779 1763.041138,495.937592 1762.892212,552.583923 
	C1752.552612,555.032837 1742.351318,557.070129 1732.130249,559.003540 
	C1720.414185,561.219910 1708.692871,563.412781 1696.952026,565.493591 
	C1674.944946,569.393982 1652.913696,573.157837 1630.909058,577.071838 
	C1615.588013,579.796997 1600.306396,582.744263 1584.985962,585.473572 
	C1562.990845,589.391968 1540.963867,593.130554 1518.974365,597.079468 
	C1498.285400,600.794739 1477.645996,604.786072 1456.951050,608.466248 
	C1436.415161,612.118164 1415.820801,615.441162 1395.282837,619.081421 
	C1378.651733,622.029175 1362.083374,625.330994 1345.456177,628.302307 
	C1319.374756,632.963074 1293.259399,637.434692 1267.174072,642.074036 
	C1255.765015,644.103149 1244.410889,646.441650 1233.002686,648.476074 
	C1211.010742,652.398071 1188.989502,656.154175 1166.997681,660.076782 
	C1154.452515,662.314392 1141.957275,664.832031 1129.411011,667.063599 
	C1117.515259,669.179504 1105.563354,670.981995 1093.670288,673.112488 
	C1078.840088,675.769165 1064.059082,678.701050 1049.230713,681.368774 
	C1027.242065,685.324768 1005.225403,689.124512 983.230469,693.045959 
	C967.905640,695.778259 952.605896,698.650879 937.279663,701.374756 
	C915.121399,705.312866 892.940186,709.122070 870.786072,713.083191 
	C853.994934,716.085388 837.242676,719.305115 820.451660,722.308167 
	C800.084045,725.950989 779.685486,729.420654 759.316101,733.053589 
	C742.357849,736.078125 725.433777,739.294495 708.473877,742.309448 
	C687.946106,745.958679 667.377747,749.382080 646.863159,753.102722 
	C634.000000,755.435669 621.236511,758.320618 608.368774,760.624939 
	C591.749329,763.601135 575.063477,766.204712 558.419739,769.047668 
	C549.118164,770.636536 539.849487,772.416687 530.556152,774.054871 
	C513.447083,777.070679 496.313354,779.949951 479.223206,783.068542 
	C466.366852,785.414490 453.591614,788.208557 440.727417,790.507385 
	C425.736877,793.186218 410.674072,795.457886 395.670135,798.064758 
	C382.135559,800.416260 368.659363,803.105896 355.118835,805.420410 
	C339.469940,808.095337 323.778717,810.522888 307.669983,813.081665 
	C307.166901,811.780151 307.041199,810.454712 307.041107,809.129272 
	C307.037720,753.392273 307.045532,697.655273 307.123413,641.453735 
z"/>
<path fill="#E0E0E0" opacity="1.000000" stroke="none" 
	d="
M438.840515,144.007050 
	C449.598694,144.002792 459.953705,144.002792 470.308685,144.002792 
	C470.301117,144.416458 470.293549,144.830139 470.286011,145.243805 
	C459.219238,145.243805 448.152496,145.243805 437.085724,145.243805 
	C437.079254,144.961090 437.072754,144.678375 437.066284,144.395660 
	C437.523285,144.267548 437.980316,144.139420 438.840515,144.007050 
z"/>
<path fill="#E0E0E0" opacity="1.000000" stroke="none" 
	d="
M485.954895,147.025879 
	C482.045471,147.025879 478.136017,147.025879 474.226593,147.025879 
	C474.196472,146.162903 474.166351,145.299911 474.136200,144.436935 
	C477.781982,144.287689 481.427795,144.138443 485.523560,144.371552 
	C485.967346,145.511230 485.961121,146.268555 485.954895,147.025879 
z"/>
<path fill="#D0D0D0" opacity="1.000000" stroke="none" 
	d="
M486.365540,147.030792 
	C485.961121,146.268555 485.967346,145.511230 485.985168,144.375732 
	C488.369720,143.997925 490.742676,143.998291 493.560425,143.996964 
	C494.024139,145.128586 494.043091,146.261917 494.024292,147.691635 
	C491.583099,147.670593 489.179626,147.353165 486.365540,147.030792 
z"/>
</svg>