<svg version="1.1" id="Layer_1" xmlns="http://www.w3.org/2000/svg" xmlns:xlink="http://www.w3.org/1999/xlink" x="0px" y="0px"
	 width="100%" viewBox="0 0 1804 1125" enable-background="new 0 0 1804 1125" xml:space="preserve">
<path fill="#C5C5C5" opacity="1.000000" stroke="none" 
	d="
M1802.000000,1.000000 
	C1803.654419,1.048076 1805.871704,0.378562 1805.024414,3.506599 
	C1804.856079,4.127683 1805.000000,4.833333 1805.000000,5.500000 
	C1805.000000,377.500000 1805.003540,749.500000 1804.858887,1121.500000 
	C1804.858398,1122.788818 1807.328491,1126.127441 1802.508545,1125.765869 
	C1802.017212,1125.531738 1801.992554,1125.063721 1802.363770,1124.826172 
	C1802.912598,1122.958984 1803.245972,1121.329346 1803.246094,1119.699585 
	C1803.270020,748.729553 1803.272339,377.759521 1803.220947,6.789498 
	C1803.220703,5.114878 1802.443970,3.440366 1802.022705,1.574343 
	C1802.015503,1.382882 1802.000000,1.000000 1802.000000,1.000000 
z"/>
<path fill="#FFFFFF" opacity="1.000000" stroke="none" 
	d="
M2.999995,1126.000000 
	C2.333323,1125.666626 1.216327,1125.452026 1.090941,1124.976074 
	C0.803490,1123.885132 1.000000,1122.666626 1.000000,1121.500000 
	C1.000000,748.000000 1.000000,374.500000 1.574106,1.236365 
	C2.227805,1.875994 2.471020,2.047916 2.706890,2.431351 
	C2.537999,6.870174 2.541965,10.866143 2.541881,14.862112 
	C2.534101,382.273499 2.525013,749.684937 2.538749,1117.096313 
	C2.538847,1119.715576 2.852678,1122.334961 3.009725,1125.215576 
	C2.999623,1125.651245 2.999812,1125.825562 2.999995,1126.000000 
z"/>
<path fill="#DBDBDB" opacity="1.000000" stroke="none" 
	d="
M3.443604,1126.000000 
	C2.999812,1125.825562 2.999623,1125.651245 3.517853,1125.206177 
	C6.726310,1124.502930 9.416350,1124.070190 12.146196,1123.672607 
	C15.093955,1124.159302 18.001780,1125.005249 20.909885,1125.006104 
	C213.532333,1125.068359 406.154816,1125.062378 598.777283,1125.062378 
	C791.566345,1125.062378 984.357117,1125.561768 1177.144043,1124.921875 
	C1369.681519,1124.282837 1562.231323,1127.579834 1754.759888,1123.210327 
	C1769.641724,1122.872681 1784.567017,1124.456299 1799.888672,1125.075684 
	C1800.867676,1125.024292 1801.430176,1125.044067 1801.992554,1125.063721 
	C1801.992554,1125.063721 1802.017212,1125.531738 1802.008545,1125.765869 
	C1202.629028,1126.000000 603.258118,1126.000000 3.443604,1126.000000 
z"/>
<path fill="#B1B1B1" opacity="1.000000" stroke="none" 
	d="
M2.877855,1.988497 
	C2.471020,2.047916 2.227805,1.875994 2.074106,1.236365 
	C601.701599,1.000000 1201.403198,1.000000 1801.552368,1.000000 
	C1802.000000,1.000000 1802.015503,1.382882 1801.556519,1.639337 
	C1798.598999,1.930678 1796.100342,1.996110 1793.601807,1.996138 
	C1224.688354,2.002585 655.775024,2.004709 86.861588,2.005673 
	C58.867008,2.005721 30.872433,1.994481 2.877855,1.988497 
z"/>
<path fill="#121212" opacity="1.000000" stroke="none" 
	d="
M2.706890,2.431351 
	C30.872433,1.994481 58.867008,2.005721 86.861588,2.005673 
	C655.775024,2.004709 1224.688354,2.002585 1793.601807,1.996138 
	C1796.100342,1.996110 1798.598999,1.930678 1801.563721,1.830798 
	C1802.443970,3.440366 1803.220703,5.114878 1803.220947,6.789498 
	C1803.272339,377.759521 1803.270020,748.729553 1803.246094,1119.699585 
	C1803.245972,1121.329346 1802.912598,1122.958984 1802.363770,1124.826172 
	C1801.430176,1125.044067 1800.867676,1125.024292 1799.549805,1124.632568 
	C1799.265381,1121.597290 1800.148682,1118.934204 1800.149170,1116.270996 
	C1800.209351,748.441528 1800.205200,380.612122 1800.204102,12.782681 
	C1800.204102,9.990066 1800.204224,7.197450 1800.204224,4.179349 
	C1201.900146,4.179349 603.993774,4.179349 6.242089,4.179349 
	C6.242089,377.158600 6.242089,749.915771 6.242089,1122.616211 
	C8.251402,1122.966187 10.178896,1123.301880 12.106390,1123.637573 
	C9.416350,1124.070190 6.726310,1124.502930 3.528143,1124.944824 
	C2.852678,1122.334961 2.538847,1119.715576 2.538749,1117.096313 
	C2.525013,749.684937 2.534101,382.273499 2.541881,14.862112 
	C2.541965,10.866143 2.537999,6.870174 2.706890,2.431351 
z"/>
<path fill="#D7D7D7" opacity="1.000000" stroke="none" 
	d="
M12.146196,1123.672607 
	C10.178896,1123.301880 8.251402,1122.966187 6.242089,1122.616211 
	C6.242089,749.915771 6.242089,377.158600 6.242089,4.179349 
	C603.993774,4.179349 1201.900146,4.179349 1800.204224,4.179349 
	C1800.204224,7.197450 1800.204102,9.990066 1800.204102,12.782681 
	C1800.205200,380.612122 1800.209351,748.441528 1800.149170,1116.270996 
	C1800.148682,1118.934204 1799.265381,1121.597290 1799.133301,1124.703613 
	C1784.567017,1124.456299 1769.641724,1122.872681 1754.759888,1123.210327 
	C1562.231323,1127.579834 1369.681519,1124.282837 1177.144043,1124.921875 
	C984.357117,1125.561768 791.566345,1125.062378 598.777283,1125.062378 
	C406.154816,1125.062378 213.532333,1125.068359 20.909885,1125.006104 
	C18.001780,1125.005249 15.093955,1124.159302 12.146196,1123.672607 
M955.936218,1069.817261 
	C970.884094,1070.741333 985.837280,1071.587280 1000.778931,1072.602905 
	C1071.003906,1077.375977 1141.228638,1082.153687 1211.447876,1087.010986 
	C1272.863037,1091.259155 1334.270630,1095.615356 1396.512085,1099.764038 
	C1397.006958,1099.018066 1397.921631,1098.277954 1397.932129,1097.525146 
	C1398.043457,1089.545654 1398.063721,1081.563110 1397.941772,1073.584229 
	C1397.928711,1072.728638 1396.855835,1071.889404 1396.133545,1070.201660 
	C1397.757080,1069.848755 1399.380127,1069.188599 1401.004028,1069.186646 
	C1505.285522,1069.062744 1609.566895,1068.992188 1714.612061,1068.935913 
	C1715.302734,1067.822388 1716.548096,1066.723633 1716.578247,1065.592651 
	C1716.661621,1062.466187 1716.041870,1059.326050 1716.041626,1056.191406 
	C1716.012451,727.048096 1716.014771,397.904785 1716.024536,68.761452 
	C1716.024658,67.101196 1716.203735,65.441460 1716.224121,63.780560 
	C1716.258667,60.952919 1716.233521,58.124546 1716.233521,55.976158 
	C1701.468994,55.976158 1687.935913,55.976162 1674.402832,55.976158 
	C1151.106567,55.976070 627.810364,55.976246 104.514084,55.971016 
	C100.399155,55.970974 96.190102,56.428215 92.193817,55.719719 
	C87.507286,54.888855 86.954849,57.332588 87.093010,60.700794 
	C87.269341,64.999519 87.976501,69.287880 87.977074,73.580780 
	C88.020546,397.557800 88.022629,721.534790 87.975212,1045.511841 
	C87.974266,1051.971802 87.540604,1058.448975 86.955147,1064.885986 
	C86.528236,1069.579712 87.964363,1071.232056 92.925148,1071.102295 
	C106.248344,1070.754150 119.586327,1070.966064 132.918442,1070.965820 
	C404.565704,1070.961670 676.212952,1070.961670 947.860229,1070.912720 
	C950.246338,1070.912231 952.632263,1070.260742 955.936218,1069.817261 
z"/>
<path fill="#080808" opacity="1.000000" stroke="none" 
	d="
M1395.681641,1099.923950 
	C1334.270630,1095.615356 1272.863037,1091.259155 1211.447876,1087.010986 
	C1141.228638,1082.153687 1071.003906,1077.375977 1000.778931,1072.602905 
	C985.837280,1071.587280 970.884094,1070.741333 955.127075,1069.648804 
	C951.826233,1069.328369 949.334595,1069.043335 946.842957,1069.043213 
	C666.528320,1069.021484 386.213684,1069.020874 105.899055,1069.019165 
	C101.621346,1069.019165 97.343643,1069.019287 92.954918,1069.019287 
	C92.954918,731.801514 92.954918,394.952759 92.954918,58.169411 
	C633.357239,58.169411 1173.520508,58.169411 1713.724243,58.169411 
	C1713.724243,60.872681 1713.724243,63.186642 1713.724243,65.500603 
	C1713.733521,393.812988 1713.742065,722.125366 1713.755859,1050.437744 
	C1713.756104,1056.597534 1713.816284,1062.757202 1713.848389,1068.916992 
	C1609.566895,1068.992188 1505.285522,1069.062744 1401.004028,1069.186646 
	C1399.380127,1069.188599 1397.757080,1069.848755 1396.081055,1071.073608 
	C1395.912964,1081.271729 1395.797363,1090.597778 1395.681641,1099.923950 
M1603.832153,1010.944153 
	C1604.377930,1009.490112 1605.401611,1008.036194 1605.401855,1006.581970 
	C1605.469727,712.596252 1605.465210,418.610535 1605.464478,124.624825 
	C1605.464478,122.458359 1605.696167,120.260361 1605.380981,118.142326 
	C1605.268677,117.387466 1603.853271,116.826485 1602.111816,115.967697 
	C1595.447266,115.962616 1588.782837,115.953194 1582.118286,115.953094 
	C1152.252808,115.946861 722.387390,115.941376 292.521912,115.935829 
	C289.256531,115.935783 285.991150,115.935814 282.725769,115.935814 
	C286.516510,116.968201 290.315430,117.237724 294.115845,117.483994 
	C316.351532,118.924934 338.587616,120.360428 361.506927,122.086464 
	C362.988190,122.117645 364.469421,122.148819 366.774475,122.440071 
	C370.180511,122.594742 373.586578,122.749413 377.870972,123.163193 
	C391.159485,124.130074 404.444824,125.143700 417.737122,126.055519 
	C467.400726,129.462341 517.069641,132.792191 566.730835,136.233017 
	C626.199402,140.353348 685.658203,144.614258 745.128418,148.710693 
	C811.248169,153.265137 877.379150,157.654984 943.499023,162.206985 
	C994.169922,165.695389 1044.828491,169.360794 1095.497314,172.879074 
	C1135.203003,175.636108 1174.916016,178.289032 1214.625732,180.986954 
	C1249.678467,183.368469 1284.732788,185.723129 1319.783203,188.137466 
	C1343.871826,189.796722 1367.956665,191.512955 1392.035645,193.304062 
	C1393.475220,193.411118 1394.848511,194.409683 1396.031006,195.908691 
	C1396.022705,464.257904 1396.014282,732.607117 1396.010132,1000.956299 
	C1396.010132,1003.287415 1396.067749,1005.618469 1395.768433,1008.826477 
	C1395.780762,1012.767334 1398.824585,1011.094055 1400.500122,1011.096436 
	C1466.534424,1011.191895 1532.568970,1011.190247 1598.603394,1011.185059 
	C1600.089478,1011.184937 1601.575439,1010.998230 1603.832153,1010.944153 
M875.643616,1065.606445 
	C881.569275,1065.606445 887.494934,1065.606445 893.420593,1065.606445 
	C893.436768,1065.367554 893.452942,1065.128784 893.469116,1064.889893 
	C887.309998,1064.603027 881.150879,1064.316040 874.098022,1063.848999 
	C873.105835,1063.764771 872.114685,1063.666016 871.121399,1063.598511 
	C828.243347,1060.686035 785.362122,1057.821655 742.488220,1054.849243 
	C716.739014,1053.064087 691.007629,1051.019897 665.257141,1049.254517 
	C627.533386,1046.668213 589.794617,1044.299561 552.071533,1041.703735 
	C517.515869,1039.325806 482.977600,1036.693848 448.422241,1034.310791 
	C401.392456,1031.067139 354.351593,1027.984009 307.319489,1024.773682 
	C272.586853,1022.402832 237.860458,1019.940491 203.131714,1017.512451 
	C199.212936,1017.238464 195.297028,1016.923462 191.443512,1016.632263 
	C191.443512,714.248413 191.443512,412.483826 191.443512,110.536041 
	C665.903259,110.536041 1140.114380,110.536041 1614.333740,110.536041 
	C1614.333740,412.743805 1614.333740,714.636475 1614.333740,1016.909912 
	C1541.397705,1016.909912 1468.816895,1016.909912 1396.145996,1016.909912 
	C1396.145996,1033.372070 1396.145996,1049.452026 1396.145996,1065.632324 
	C1500.439087,1065.632324 1604.474243,1065.632324 1708.632812,1065.632324 
	C1708.632812,730.659912 1708.632812,396.072449 1708.632812,61.338188 
	C1171.760254,61.338188 635.135193,61.338188 98.378860,61.338188 
	C98.378860,396.189636 98.378860,730.898743 98.378860,1066.000488 
	C101.026039,1066.000488 103.327568,1066.000488 105.629105,1066.000488 
	C349.460541,1065.999634 593.291992,1066.012695 837.123413,1065.958374 
	C849.745117,1065.955566 862.366699,1065.377319 875.643616,1065.606445 
M841.931152,1046.602417 
	C1018.471375,1058.787964 1195.011597,1070.973511 1371.714600,1083.170288 
	C1371.714600,790.656982 1371.714600,498.893188 1371.714600,206.786591 
	C986.239868,180.180405 600.964722,153.587982 215.593765,126.988945 
	C215.593765,419.384705 215.593765,711.261536 215.593765,1003.357544 
	C424.283752,1017.760986 632.641418,1032.141479 841.931152,1046.602417 
z"/>
<path fill="#B2B2B2" opacity="1.000000" stroke="none" 
	d="
M1714.230225,1068.926514 
	C1713.816284,1062.757202 1713.756104,1056.597534 1713.755859,1050.437744 
	C1713.742065,722.125366 1713.733521,393.812988 1713.724243,65.500603 
	C1713.724243,63.186642 1713.724243,60.872681 1713.724243,58.169411 
	C1173.520508,58.169411 633.357239,58.169411 92.954918,58.169411 
	C92.954918,394.952759 92.954918,731.801514 92.954918,1069.019287 
	C97.343643,1069.019287 101.621346,1069.019165 105.899055,1069.019165 
	C386.213684,1069.020874 666.528320,1069.021484 946.842957,1069.043213 
	C949.334595,1069.043335 951.826233,1069.328369 954.668091,1069.696777 
	C952.632263,1070.260742 950.246338,1070.912231 947.860229,1070.912720 
	C676.212952,1070.961670 404.565704,1070.961670 132.918442,1070.965820 
	C119.586327,1070.966064 106.248344,1070.754150 92.925148,1071.102295 
	C87.964363,1071.232056 86.528236,1069.579712 86.955147,1064.885986 
	C87.540604,1058.448975 87.974266,1051.971802 87.975212,1045.511841 
	C88.022629,721.534790 88.020546,397.557800 87.977074,73.580780 
	C87.976501,69.287880 87.269341,64.999519 87.093010,60.700794 
	C86.954849,57.332588 87.507286,54.888855 92.193817,55.719719 
	C96.190102,56.428215 100.399155,55.970974 104.514084,55.971016 
	C627.810364,55.976246 1151.106567,55.976070 1674.402832,55.976158 
	C1687.935913,55.976162 1701.468994,55.976158 1716.233521,55.976158 
	C1716.233521,58.124546 1716.258667,60.952919 1716.224121,63.780560 
	C1716.203735,65.441460 1716.024658,67.101196 1716.024536,68.761452 
	C1716.014771,397.904785 1716.012451,727.048096 1716.041626,1056.191406 
	C1716.041870,1059.326050 1716.661621,1062.466187 1716.578247,1065.592651 
	C1716.548096,1066.723633 1715.302734,1067.822388 1714.230225,1068.926514 
z"/>
<path fill="#F6F6F6" opacity="1.000000" stroke="none" 
	d="
M1396.096924,1099.843994 
	C1395.797363,1090.597778 1395.912964,1081.271729 1396.151611,1071.494141 
	C1396.855835,1071.889404 1397.928711,1072.728638 1397.941772,1073.584229 
	C1398.063721,1081.563110 1398.043457,1089.545654 1397.932129,1097.525146 
	C1397.921631,1098.277954 1397.006958,1099.018066 1396.096924,1099.843994 
z"/>
<path fill="#FEFEFE" opacity="1.000000" stroke="none" 
	d="
M874.988342,1065.067139 
	C862.366699,1065.377319 849.745117,1065.955566 837.123413,1065.958374 
	C593.291992,1066.012695 349.460541,1065.999634 105.629105,1066.000488 
	C103.327568,1066.000488 101.026039,1066.000488 98.378860,1066.000488 
	C98.378860,730.898743 98.378860,396.189636 98.378860,61.338188 
	C635.135193,61.338188 1171.760254,61.338188 1708.632812,61.338188 
	C1708.632812,396.072449 1708.632812,730.659912 1708.632812,1065.632324 
	C1604.474243,1065.632324 1500.439087,1065.632324 1396.145996,1065.632324 
	C1396.145996,1049.452026 1396.145996,1033.372070 1396.145996,1016.909912 
	C1468.816895,1016.909912 1541.397705,1016.909912 1614.333740,1016.909912 
	C1614.333740,714.636475 1614.333740,412.743805 1614.333740,110.536041 
	C1140.114380,110.536041 665.903259,110.536041 191.443512,110.536041 
	C191.443512,412.483826 191.443512,714.248413 191.443512,1016.632263 
	C195.297028,1016.923462 199.212936,1017.238464 203.131714,1017.512451 
	C237.860458,1019.940491 272.586853,1022.402832 307.319489,1024.773682 
	C354.351593,1027.984009 401.392456,1031.067139 448.422241,1034.310791 
	C482.977600,1036.693848 517.515869,1039.325806 552.071533,1041.703735 
	C589.794617,1044.299561 627.533386,1046.668213 665.257141,1049.254517 
	C691.007629,1051.019897 716.739014,1053.064087 742.488220,1054.849243 
	C785.362122,1057.821655 828.243347,1060.686035 871.121399,1063.598511 
	C872.114685,1063.666016 873.105835,1063.764771 874.558411,1064.198608 
	C875.008606,1064.721313 874.998474,1064.894287 874.988342,1065.067139 
z"/>
<path fill="#D0D0D0" opacity="1.000000" stroke="none" 
	d="
M1396.252563,194.993423 
	C1394.848511,194.409683 1393.475220,193.411118 1392.035645,193.304062 
	C1367.956665,191.512955 1343.871826,189.796722 1319.783203,188.137466 
	C1284.732788,185.723129 1249.678467,183.368469 1214.625732,180.986954 
	C1174.916016,178.289032 1135.203003,175.636108 1095.497314,172.879074 
	C1044.828491,169.360794 994.169922,165.695389 943.499023,162.206985 
	C877.379150,157.654984 811.248169,153.265137 745.128418,148.710693 
	C685.658203,144.614258 626.199402,140.353348 566.730835,136.233017 
	C517.069641,132.792191 467.400726,129.462341 417.737122,126.055519 
	C404.444824,125.143700 391.159485,124.130074 377.338257,122.649208 
	C373.187225,122.150146 369.568970,122.165070 365.950684,122.179993 
	C364.469421,122.148819 362.988190,122.117645 361.057373,121.519272 
	C353.171051,120.050308 345.734283,119.148529 338.297516,118.246758 
	C338.294739,118.164101 338.291992,118.081451 338.289215,117.998802 
	C759.860291,117.998802 1181.431396,117.998802 1603.296143,118.295517 
	C1603.722778,121.071411 1603.971802,123.550583 1603.972046,126.029778 
	C1603.989624,379.950989 1603.988525,633.872253 1603.988525,887.793457 
	C1603.988525,926.281494 1604.010864,964.769653 1603.923218,1003.257507 
	C1603.918823,1005.199890 1602.966431,1007.140198 1602.046143,1009.162903 
	C1536.081177,1009.256958 1470.525269,1009.270935 1404.969482,1009.272156 
	C1403.812012,1009.272156 1402.654541,1009.118469 1401.037720,1009.033203 
	C1399.693359,1008.872620 1398.808350,1008.715393 1397.899048,1008.554077 
	C1397.874756,1008.549927 1397.832520,1008.576416 1397.885742,1008.074097 
	C1397.960205,1002.574280 1397.999634,997.576721 1397.999756,992.579163 
	C1398.007446,727.846619 1398.011963,463.114014 1398.016724,198.381454 
	C1398.016724,196.901260 1398.016724,195.421082 1398.016724,193.393311 
	C1396.984131,194.329849 1396.618408,194.661652 1396.252563,194.993423 
z"/>
<path fill="#F7FAFB" opacity="1.000000" stroke="none" 
	d="
M841.465088,1046.562256 
	C632.641418,1032.141479 424.283752,1017.760986 215.593765,1003.357544 
	C215.593765,711.261536 215.593765,419.384705 215.593765,126.988945 
	C600.964722,153.587982 986.239868,180.180405 1371.714600,206.786591 
	C1371.714600,498.893188 1371.714600,790.656982 1371.714600,1083.170288 
	C1195.011597,1070.973511 1018.471375,1058.787964 841.465088,1046.562256 
M1352.305664,314.100616 
	C1352.305664,282.030579 1352.305664,249.960556 1352.305664,217.631393 
	C979.497375,191.901581 607.488586,166.226944 235.174515,140.531235 
	C235.081924,142.618790 234.960419,144.080292 234.960342,145.541779 
	C234.952911,271.856232 234.953659,398.170654 234.963806,524.485107 
	C234.964035,527.313354 235.078339,530.141663 234.990738,533.901306 
	C234.974884,557.662109 234.928711,581.422852 234.951660,605.183655 
	C234.974777,629.106445 235.066589,653.029236 234.984970,677.885864 
	C234.984970,782.665100 234.984970,887.444336 234.984970,992.502747 
	C607.546021,1018.220886 979.668884,1043.908813 1352.355957,1069.635742 
	C1352.355957,1066.415771 1352.355957,1063.955688 1352.355957,1061.495483 
	C1352.356201,863.182251 1352.357422,664.868958 1352.345215,466.555695 
	C1352.345093,464.064941 1352.172485,461.574158 1352.303101,458.147125 
	C1352.326416,413.091339 1352.354492,368.035583 1352.360962,322.979797 
	C1352.361328,320.327118 1352.187500,317.674408 1352.305664,314.100616 
z"/>
<path fill="#DBDBDB" opacity="1.000000" stroke="none" 
	d="
M1603.002441,117.998802 
	C1181.431396,117.998802 759.860291,117.998802 338.289215,117.998802 
	C338.291992,118.081451 338.294739,118.164101 338.297516,118.246758 
	C345.734283,119.148529 353.171051,120.050308 360.715698,121.374916 
	C338.587616,120.360428 316.351532,118.924934 294.115845,117.483994 
	C290.315430,117.237724 286.516510,116.968201 282.725769,115.935814 
	C285.991150,115.935814 289.256531,115.935783 292.521912,115.935829 
	C722.387390,115.941376 1152.252808,115.946861 1582.118286,115.953094 
	C1588.782837,115.953194 1595.447266,115.962616 1602.576172,116.376106 
	C1603.027710,117.189278 1603.015137,117.594040 1603.002441,117.998802 
z"/>
<path fill="#ECECEC" opacity="1.000000" stroke="none" 
	d="
M1396.141846,195.451065 
	C1396.618408,194.661652 1396.984131,194.329849 1398.016724,193.393311 
	C1398.016724,195.421082 1398.016724,196.901260 1398.016724,198.381454 
	C1398.011963,463.114014 1398.007446,727.846619 1397.999756,992.579163 
	C1397.999634,997.576721 1397.960205,1002.574280 1397.590576,1007.983887 
	C1396.860962,1008.247131 1396.479736,1008.098389 1396.098511,1007.949585 
	C1396.067749,1005.618469 1396.010132,1003.287415 1396.010132,1000.956299 
	C1396.014282,732.607117 1396.022705,464.257904 1396.141846,195.451065 
z"/>
<path fill="#FFFFFF" opacity="1.000000" stroke="none" 
	d="
M1603.296143,118.295517 
	C1603.015137,117.594040 1603.027710,117.189278 1603.036499,116.480759 
	C1603.853271,116.826485 1605.268677,117.387466 1605.380981,118.142326 
	C1605.696167,120.260361 1605.464478,122.458359 1605.464478,124.624825 
	C1605.465210,418.610535 1605.469727,712.596252 1605.401855,1006.581970 
	C1605.401611,1008.036194 1604.377930,1009.490112 1603.324951,1010.625977 
	C1602.697021,1009.898987 1602.576172,1009.490234 1602.455322,1009.081482 
	C1602.966431,1007.140198 1603.918823,1005.199890 1603.923218,1003.257507 
	C1604.010864,964.769653 1603.988525,926.281494 1603.988525,887.793457 
	C1603.988525,633.872253 1603.989624,379.950989 1603.972046,126.029778 
	C1603.971802,123.550583 1603.722778,121.071411 1603.296143,118.295517 
z"/>
<path fill="#9C9C9C" opacity="1.000000" stroke="none" 
	d="
M1602.046143,1009.162903 
	C1602.576172,1009.490234 1602.697021,1009.898987 1602.939697,1010.603149 
	C1601.575439,1010.998230 1600.089478,1011.184937 1598.603394,1011.185059 
	C1532.568970,1011.190247 1466.534424,1011.191895 1400.500122,1011.096436 
	C1398.824585,1011.094055 1395.780762,1012.767334 1395.933472,1008.388062 
	C1396.479736,1008.098389 1396.860962,1008.247131 1397.537354,1008.486206 
	C1397.832520,1008.576416 1397.874756,1008.549927 1397.882568,1008.986694 
	C1399.092651,1009.294495 1400.294922,1009.165527 1401.497070,1009.036560 
	C1402.654541,1009.118469 1403.812012,1009.272156 1404.969482,1009.272156 
	C1470.525269,1009.270935 1536.081177,1009.256958 1602.046143,1009.162903 
z"/>
<path fill="#CFCFCF" opacity="1.000000" stroke="none" 
	d="
M875.315979,1065.336792 
	C874.998474,1064.894287 875.008606,1064.721313 875.005249,1064.288696 
	C881.150879,1064.316040 887.309998,1064.603027 893.469116,1064.889893 
	C893.452942,1065.128784 893.436768,1065.367554 893.420593,1065.606445 
	C887.494934,1065.606445 881.569275,1065.606445 875.315979,1065.336792 
z"/>
<path fill="#DBDBDB" opacity="1.000000" stroke="none" 
	d="
M366.362579,122.310036 
	C369.568970,122.165070 373.187225,122.150146 376.899048,122.519653 
	C373.586578,122.749413 370.180511,122.594742 366.362579,122.310036 
z"/>
<path fill="#ECECEC" opacity="1.000000" stroke="none" 
	d="
M1401.037720,1009.033203 
	C1400.294922,1009.165527 1399.092651,1009.294495 1397.906982,1008.990845 
	C1398.808350,1008.715393 1399.693359,1008.872620 1401.037720,1009.033203 
z"/>
<path fill="#01BFD5" opacity="1.000000" stroke="none" 
	d="
M1352.080444,459.083374 
	C1352.172485,461.574158 1352.345093,464.064941 1352.345215,466.555695 
	C1352.357422,664.868958 1352.356201,863.182251 1352.355957,1061.495483 
	C1352.355957,1063.955688 1352.355957,1066.415771 1352.355957,1069.635742 
	C979.668884,1043.908813 607.546021,1018.220886 234.984970,992.502747 
	C234.984970,887.444336 234.984970,782.665100 235.464142,677.426575 
	C261.464752,672.191162 286.997406,667.473938 312.504395,662.621765 
	C336.221863,658.110107 359.925690,653.524109 383.610138,648.842346 
	C404.869110,644.640015 426.095856,640.274414 447.332306,635.958557 
	C461.763153,633.025696 476.154816,629.888733 490.622131,627.150024 
	C503.123383,624.783447 515.734253,622.999084 528.245972,620.683716 
	C541.416260,618.246399 554.523499,615.469177 567.663757,612.867920 
	C586.627014,609.113953 605.588989,605.352783 624.562927,601.653381 
	C646.636047,597.349915 668.725647,593.131042 690.800415,588.836121 
	C711.254211,584.856567 731.686401,580.765015 752.149292,576.833069 
	C773.248352,572.778687 794.391418,568.952515 815.481140,564.851013 
	C835.937256,560.872742 856.348816,556.665344 876.782227,552.570068 
	C896.075928,548.703247 915.356201,544.766968 934.672302,541.015198 
	C957.549316,536.571777 980.475281,532.379883 1003.345886,527.904297 
	C1013.900452,525.838867 1024.330322,523.129150 1034.895386,521.126160 
	C1047.231934,518.787354 1059.691895,517.100586 1072.028687,514.762817 
	C1084.347900,512.428406 1096.549683,509.477905 1108.858276,507.082458 
	C1134.011597,502.187256 1159.212280,497.536713 1184.373047,492.679626 
	C1198.812988,489.892120 1213.195190,486.806549 1227.634644,484.017181 
	C1248.899048,479.909363 1270.195923,475.971252 1291.469604,471.911346 
	C1303.334595,469.647034 1315.204468,467.398773 1327.026245,464.923737 
	C1335.417480,463.166962 1343.731812,461.043274 1352.080444,459.083374 
z"/>
<path fill="#01BFD5" opacity="1.000000" stroke="none" 
	d="
M235.139420,532.969910 
	C235.078339,530.141663 234.964035,527.313354 234.963806,524.485107 
	C234.953659,398.170654 234.952911,271.856232 234.960342,145.541779 
	C234.960419,144.080292 235.081924,142.618790 235.174515,140.531235 
	C607.488586,166.226944 979.497375,191.901581 1352.305664,217.631393 
	C1352.305664,249.960556 1352.305664,282.030579 1351.796631,314.604126 
	C1346.878906,315.799194 1342.444092,316.355713 1338.066528,317.207397 
	C1324.760620,319.796143 1311.484863,322.539154 1298.182861,325.148499 
	C1274.020020,329.888367 1249.832275,334.502899 1225.681641,339.303772 
	C1199.891846,344.430511 1174.162231,349.862640 1148.352417,354.885071 
	C1121.246094,360.159912 1094.069092,365.070557 1066.936157,370.210175 
	C1047.933716,373.809723 1028.947021,377.493286 1009.965515,381.202240 
	C996.661865,383.801788 983.379272,386.509308 970.086670,389.165283 
	C952.578491,392.663513 935.076965,396.195709 917.559143,399.644928 
	C898.092346,403.477875 878.617798,407.271942 859.133179,411.013275 
	C837.691345,415.130402 816.214539,419.067719 794.789429,423.269226 
	C773.861450,427.373230 753.001221,431.822571 732.070618,435.912262 
	C715.364319,439.176514 698.578125,442.031006 681.862671,445.250153 
	C669.365112,447.656952 656.953064,450.509796 644.450684,452.889191 
	C622.358093,457.093719 600.199097,460.950623 578.117310,465.209473 
	C554.568665,469.751221 531.083008,474.618500 507.559357,479.290741 
	C485.991333,483.574554 464.418854,487.837097 442.830383,492.016113 
	C426.439209,495.189087 410.006226,498.146515 393.616943,501.329041 
	C379.174377,504.133514 364.788635,507.232361 350.338135,509.993561 
	C330.196869,513.842163 310.006561,517.433655 289.860565,521.257996 
	C276.540680,523.786560 263.246826,526.458923 249.972092,529.215210 
	C244.983078,530.251099 240.081085,531.705994 235.139420,532.969910 
z"/>
<path fill="#00E4FD" opacity="1.000000" stroke="none" 
	d="
M235.065079,533.435608 
	C240.081085,531.705994 244.983078,530.251099 249.972092,529.215210 
	C263.246826,526.458923 276.540680,523.786560 289.860565,521.257996 
	C310.006561,517.433655 330.196869,513.842163 350.338135,509.993561 
	C364.788635,507.232361 379.174377,504.133514 393.616943,501.329041 
	C410.006226,498.146515 426.439209,495.189087 442.830383,492.016113 
	C464.418854,487.837097 485.991333,483.574554 507.559357,479.290741 
	C531.083008,474.618500 554.568665,469.751221 578.117310,465.209473 
	C600.199097,460.950623 622.358093,457.093719 644.450684,452.889191 
	C656.953064,450.509796 669.365112,447.656952 681.862671,445.250153 
	C698.578125,442.031006 715.364319,439.176514 732.070618,435.912262 
	C753.001221,431.822571 773.861450,427.373230 794.789429,423.269226 
	C816.214539,419.067719 837.691345,415.130402 859.133179,411.013275 
	C878.617798,407.271942 898.092346,403.477875 917.559143,399.644928 
	C935.076965,396.195709 952.578491,392.663513 970.086670,389.165283 
	C983.379272,386.509308 996.661865,383.801788 1009.965515,381.202240 
	C1028.947021,377.493286 1047.933716,373.809723 1066.936157,370.210175 
	C1094.069092,365.070557 1121.246094,360.159912 1148.352417,354.885071 
	C1174.162231,349.862640 1199.891846,344.430511 1225.681641,339.303772 
	C1249.832275,334.502899 1274.020020,329.888367 1298.182861,325.148499 
	C1311.484863,322.539154 1324.760620,319.796143 1338.066528,317.207397 
	C1342.444092,316.355713 1346.878906,315.799194 1351.691162,315.064697 
	C1352.187500,317.674408 1352.361328,320.327118 1352.360962,322.979797 
	C1352.354492,368.035583 1352.326416,413.091339 1352.191772,458.615234 
	C1343.731812,461.043274 1335.417480,463.166962 1327.026245,464.923737 
	C1315.204468,467.398773 1303.334595,469.647034 1291.469604,471.911346 
	C1270.195923,475.971252 1248.899048,479.909363 1227.634644,484.017181 
	C1213.195190,486.806549 1198.812988,489.892120 1184.373047,492.679626 
	C1159.212280,497.536713 1134.011597,502.187256 1108.858276,507.082458 
	C1096.549683,509.477905 1084.347900,512.428406 1072.028687,514.762817 
	C1059.691895,517.100586 1047.231934,518.787354 1034.895386,521.126160 
	C1024.330322,523.129150 1013.900452,525.838867 1003.345886,527.904297 
	C980.475281,532.379883 957.549316,536.571777 934.672302,541.015198 
	C915.356201,544.766968 896.075928,548.703247 876.782227,552.570068 
	C856.348816,556.665344 835.937256,560.872742 815.481140,564.851013 
	C794.391418,568.952515 773.248352,572.778687 752.149292,576.833069 
	C731.686401,580.765015 711.254211,584.856567 690.800415,588.836121 
	C668.725647,593.131042 646.636047,597.349915 624.562927,601.653381 
	C605.588989,605.352783 586.627014,609.113953 567.663757,612.867920 
	C554.523499,615.469177 541.416260,618.246399 528.245972,620.683716 
	C515.734253,622.999084 503.123383,624.783447 490.622131,627.150024 
	C476.154816,629.888733 461.763153,633.025696 447.332306,635.958557 
	C426.095856,640.274414 404.869110,644.640015 383.610138,648.842346 
	C359.925690,653.524109 336.221863,658.110107 312.504395,662.621765 
	C286.997406,667.473938 261.464752,672.191162 235.535812,676.959656 
	C235.066589,653.029236 234.974777,629.106445 234.951660,605.183655 
	C234.928711,581.422852 234.974884,557.662109 235.065079,533.435608 
z"/>
</svg>