<svg version="1.1" id="Layer_1" xmlns="http://www.w3.org/2000/svg" xmlns:xlink="http://www.w3.org/1999/xlink" x="0px" y="0px"
	 width="100%" viewBox="0 0 2352 1132" enable-background="new 0 0 2352 1132" xml:space="preserve">
<path fill="#EFEFEF" opacity="1.000000" stroke="none" 
	d="
M6.000000,1133.000000 
	C4.333512,1133.000000 2.667025,1133.000000 1.000403,1133.000000 
	C1.000269,755.707397 1.000269,378.414795 1.000269,1.062496 
	C785.000000,1.062496 1569.000000,1.062496 2352.998291,1.062496 
	C2352.998291,378.416656 2352.998291,755.708313 2352.997559,1133.000000 
	C2351.996338,1133.000000 2350.996338,1133.000000 2349.500000,1132.787354 
	C2349.003906,1132.574829 2349.020264,1132.149902 2349.387939,1131.965088 
	C2350.102295,1130.243652 2350.752686,1128.706909 2350.752686,1127.170288 
	C2350.794189,757.359192 2350.791260,387.548065 2350.782959,17.736971 
	C2350.782471,4.792043 2350.750977,4.796212 2337.875488,4.796275 
	C1826.072998,4.798798 1314.270386,4.810332 802.467896,4.798268 
	C538.317688,4.792041 274.167542,4.742922 10.017353,4.729500 
	C8.109461,4.729403 6.201556,4.957953 4.218711,5.084525 
	C4.218711,9.382445 4.218955,13.029526 4.218675,16.676607 
	C4.190293,387.154144 4.159880,757.631714 4.209416,1128.109253 
	C4.209597,1129.460327 5.363157,1130.811035 5.986424,1132.371460 
	C5.994808,1132.580933 6.000000,1133.000000 6.000000,1133.000000 
z"/>
<path fill="#D8D8D8" opacity="1.000000" stroke="none" 
	d="
M6.438477,1133.000000 
	C6.000000,1133.000000 5.994808,1132.580933 6.488830,1132.297363 
	C9.966267,1131.425415 12.949680,1130.837158 15.926195,1130.229248 
	C15.919294,1130.209595 16.144205,1129.913452 16.170242,1129.939941 
	C16.196280,1129.966553 16.121132,1129.941895 15.933155,1130.462402 
	C17.602844,1131.330688 19.460493,1131.983032 21.318167,1131.983154 
	C793.591187,1132.025391 1565.864136,1132.023560 2338.137207,1132.019775 
	C2339.636230,1132.019775 2341.158936,1132.120361 2342.618652,1131.870117 
	C2343.024414,1131.800537 2343.242920,1130.638428 2343.550293,1130.033936 
	C2343.553467,1130.090332 2343.647949,1130.170166 2343.773926,1130.710815 
	C2345.606445,1131.550903 2347.313477,1131.850342 2349.020264,1132.149902 
	C2349.020264,1132.149902 2349.003906,1132.574829 2349.001953,1132.787354 
	C1568.292358,1133.000000 787.584656,1133.000000 6.438477,1133.000000 
z"/>
<path fill="#1F1F1F" opacity="1.000000" stroke="none" 
	d="
M2349.387939,1131.965088 
	C2347.313477,1131.850342 2345.606445,1131.550903 2344.420898,1130.659668 
	C2345.494141,1127.656494 2346.530273,1125.245117 2346.530762,1122.833618 
	C2346.603516,753.183716 2346.601562,383.533844 2346.603027,13.883977 
	C2346.603027,11.626213 2346.603027,9.368449 2346.603027,6.773069 
	C2343.210693,6.938618 2340.582031,7.066912 2337.489258,7.151633 
	C2298.034668,7.144897 2259.043945,7.181732 2219.592773,7.106887 
	C2217.466064,6.978392 2215.799805,6.946854 2214.133789,6.946840 
	C1515.225464,6.941092 816.317200,6.937204 117.408936,6.946930 
	C115.252686,6.946960 113.096443,7.145496 110.479156,7.189837 
	C77.363579,7.158292 44.709049,7.188229 11.616439,7.071421 
	C7.099986,7.074713 8.758997,10.235314 8.758541,12.081000 
	C8.693933,273.823669 8.707895,535.566345 8.715309,797.309021 
	C8.718335,904.105408 8.714737,1010.901733 8.714155,1117.698120 
	C8.714134,1121.666016 8.714153,1125.633789 8.714153,1129.813232 
	C11.346694,1129.972168 13.639892,1130.110474 15.933092,1130.248901 
	C12.949680,1130.837158 9.966267,1131.425415 6.480446,1132.087891 
	C5.363157,1130.811035 4.209597,1129.460327 4.209416,1128.109253 
	C4.159880,757.631714 4.190293,387.154144 4.218675,16.676607 
	C4.218955,13.029526 4.218711,9.382445 4.218711,5.084525 
	C6.201556,4.957953 8.109461,4.729403 10.017353,4.729500 
	C274.167542,4.742922 538.317688,4.792041 802.467896,4.798268 
	C1314.270386,4.810332 1826.072998,4.798798 2337.875488,4.796275 
	C2350.750977,4.796212 2350.782471,4.792043 2350.782959,17.736971 
	C2350.791260,387.548065 2350.794189,757.359192 2350.752686,1127.170288 
	C2350.752686,1128.706909 2350.102295,1130.243652 2349.387939,1131.965088 
z"/>
<path fill="#B2B2B2" opacity="1.000000" stroke="none" 
	d="
M2337.953125,7.195204 
	C2340.582031,7.066912 2343.210693,6.938618 2346.603027,6.773069 
	C2346.603027,9.368449 2346.603027,11.626213 2346.603027,13.883977 
	C2346.601562,383.533844 2346.603516,753.183716 2346.530762,1122.833618 
	C2346.530273,1125.245117 2345.494141,1127.656494 2344.294922,1130.119141 
	C2343.647949,1130.170166 2343.553467,1130.090332 2343.144531,1130.043335 
	C2342.473145,1129.929688 2342.210938,1129.863037 2341.890137,1129.464111 
	C2340.570801,1129.358887 2339.310059,1129.586060 2337.602783,1129.911499 
	C2334.421143,1129.942627 2331.685791,1129.875366 2328.855957,1129.423462 
	C2326.567627,1128.684448 2324.374268,1128.019531 2322.180664,1128.019409 
	C1586.434570,1127.974731 850.688538,1127.975586 114.942451,1127.975586 
	C83.612831,1127.975586 52.283112,1127.947144 20.953888,1128.058350 
	C19.348486,1128.064087 17.747334,1129.267578 16.144203,1129.913452 
	C16.144205,1129.913452 15.919294,1130.209595 15.926191,1130.229248 
	C13.639892,1130.110474 11.346694,1129.972168 8.714153,1129.813232 
	C8.714153,1125.633789 8.714134,1121.666016 8.714155,1117.698120 
	C8.714737,1010.901733 8.718335,904.105408 8.715309,797.309021 
	C8.707895,535.566345 8.693933,273.823669 8.758541,12.081000 
	C8.758997,10.235314 7.099986,7.074713 11.594708,7.525162 
	C11.992867,8.791608 11.958734,9.457570 11.958737,10.123531 
	C11.960751,380.285248 11.964846,750.446960 11.970875,1120.608643 
	C11.970980,1127.042114 11.982051,1127.047485 18.869844,1127.047485 
	C257.366669,1127.047363 495.863464,1127.045532 734.360291,1127.045166 
	C1267.519775,1127.044678 1800.679321,1127.045044 2333.838867,1127.044922 
	C2336.096191,1127.044922 2338.353516,1127.044800 2341.010254,1127.044800 
	C2341.010254,1122.020752 2341.010254,1117.775146 2341.010254,1113.529663 
	C2341.010010,747.867920 2341.005371,382.206116 2341.076904,16.544373 
	C2341.077637,12.918114 2340.758057,9.727679 2337.953125,7.195204 
z"/>
<path fill="#1F1F1F" opacity="1.000000" stroke="none" 
	d="
M2341.948486,1129.796509 
	C2342.210938,1129.863037 2342.473145,1129.929688 2343.141602,1129.986938 
	C2343.242920,1130.638428 2343.024414,1131.800537 2342.618652,1131.870117 
	C2341.158936,1132.120361 2339.636230,1132.019775 2338.137207,1132.019775 
	C1565.864136,1132.023560 793.591187,1132.025391 21.318167,1131.983154 
	C19.460493,1131.983032 17.602844,1131.330688 16.463339,1130.456177 
	C785.439941,1129.928589 1553.698364,1129.927856 2321.956787,1129.922119 
	C2324.288086,1129.922119 2326.619141,1129.847900 2328.950439,1129.808105 
	C2331.685791,1129.875366 2334.421143,1129.942627 2337.990723,1129.962891 
	C2339.865967,1129.876343 2340.907227,1129.836426 2341.948486,1129.796509 
z"/>
<path fill="#D7D7D7" opacity="1.000000" stroke="none" 
	d="
M2328.855957,1129.423584 
	C2326.619141,1129.847900 2324.288086,1129.922119 2321.956787,1129.922119 
	C1553.698364,1129.927856 785.439941,1129.928589 16.651316,1129.935547 
	C16.121132,1129.941895 16.196280,1129.966553 16.170242,1129.939941 
	C17.747334,1129.267578 19.348486,1128.064087 20.953888,1128.058350 
	C52.283112,1127.947144 83.612831,1127.975586 114.942451,1127.975586 
	C850.688538,1127.975586 1586.434570,1127.974731 2322.180664,1128.019409 
	C2324.374268,1128.019531 2326.567627,1128.684448 2328.855957,1129.423584 
z"/>
<path fill="#D7D7D7" opacity="1.000000" stroke="none" 
	d="
M2337.489258,7.151632 
	C2340.758057,9.727679 2341.077637,12.918114 2341.076904,16.544373 
	C2341.005371,382.206116 2341.010010,747.867920 2341.010254,1113.529663 
	C2341.010254,1117.775146 2341.010254,1122.020752 2341.010254,1127.044800 
	C2338.353516,1127.044800 2336.096191,1127.044922 2333.838867,1127.044922 
	C1800.679321,1127.045044 1267.519775,1127.044678 734.360291,1127.045166 
	C495.863464,1127.045532 257.366669,1127.047363 18.869844,1127.047485 
	C11.982051,1127.047485 11.970980,1127.042114 11.970875,1120.608643 
	C11.964846,750.446960 11.960751,380.285248 11.958737,10.123531 
	C11.958734,9.457570 11.992867,8.791608 12.032784,7.671906 
	C44.709049,7.188229 77.363579,7.158292 110.609299,7.559463 
	C113.427040,8.322661 115.653572,8.945672 117.880142,8.945804 
	C813.237671,8.986888 1508.595093,8.985077 2203.952637,8.983932 
	C2207.951904,8.983925 2211.959473,9.129058 2215.945557,8.897524 
	C2217.342529,8.816369 2218.685547,7.805097 2220.053223,7.218563 
	C2259.043945,7.181732 2298.034668,7.144897 2337.489258,7.151632 
M1822.994263,1105.062744 
	C1823.013672,1096.711304 1823.033081,1088.359741 1823.815063,1079.906982 
	C1827.782104,1078.336304 1831.387085,1078.355713 1832.170410,1083.458130 
	C1832.939331,1088.466064 1835.712769,1089.090942 1840.127441,1089.086792 
	C1955.280151,1088.977173 2070.432861,1089.000000 2185.585693,1088.999756 
	C2186.752197,1088.999756 2187.919922,1088.961548 2189.084961,1089.000610 
	C2191.804199,1089.091797 2192.873047,1087.798828 2193.042236,1085.088135 
	C2193.436768,1078.761108 2196.184326,1077.430176 2202.094727,1080.004517 
	C2204.979736,1081.260986 2208.325439,1082.831543 2211.216309,1082.440186 
	C2219.115723,1081.370972 2226.889893,1079.358765 2234.702637,1077.669434 
	C2237.447998,1077.075684 2240.162109,1076.335693 2244.210938,1075.336548 
	C2249.577637,1077.944336 2250.318848,1077.479492 2249.973389,1069.610107 
	C2249.777588,1065.147339 2249.042236,1060.695557 2249.041748,1056.238770 
	C2248.996338,727.278442 2249.000000,398.318146 2249.000000,69.357841 
	C2249.000000,67.076561 2249.000000,64.795280 2249.000000,61.711464 
	C2246.663086,62.343391 2245.165283,62.833862 2243.630127,63.130455 
	C2242.749023,63.300671 2241.305176,63.509983 2241.000732,63.077545 
	C2240.423828,62.258858 2240.279297,60.982117 2240.323730,59.910885 
	C2240.427246,57.410362 2241.025146,54.900326 2240.859619,52.431911 
	C2240.782715,51.282753 2239.562256,49.529091 2238.562500,49.288982 
	C2237.198730,48.961472 2234.599121,49.365883 2234.182861,50.241943 
	C2231.938965,54.966091 2228.449707,54.167213 2224.472412,53.429291 
	C2221.953125,52.961876 2219.237061,53.469261 2216.616943,53.650463 
	C2210.989258,54.039684 2205.472656,54.352871 2200.688477,50.318481 
	C2198.329102,48.329060 2194.309570,47.703205 2193.547607,50.808800 
	C2192.143555,56.530647 2188.475586,56.008793 2184.452637,56.008694 
	C1840.327515,56.000172 1496.202393,56.000862 1152.077271,56.000942 
	C1150.744141,56.000942 1149.314575,55.690723 1148.098145,56.067585 
	C1145.673584,56.818649 1143.366211,57.947308 1140.072876,58.989376 
	C842.694275,58.994282 545.315735,58.998695 247.937134,59.004677 
	C209.119644,59.005459 170.302078,58.989700 131.484863,59.095490 
	C129.639420,59.100517 127.796989,60.215260 125.195648,60.856033 
	C124.449539,60.723492 123.703423,60.590946 122.823891,59.757030 
	C120.871277,59.499084 118.918655,59.241142 116.184227,59.099117 
	C115.457985,61.427094 114.096169,63.754887 114.095497,66.083069 
	C114.000694,397.508606 114.006706,728.934204 113.979889,1060.359741 
	C113.979599,1063.999268 113.286491,1067.661499 113.539749,1071.269409 
	C113.677307,1073.228882 115.130547,1075.096069 116.498589,1077.551880 
	C117.998512,1077.697998 119.498428,1077.844116 121.423813,1078.568115 
	C124.510696,1079.254150 127.664703,1079.731812 130.661758,1080.696899 
	C132.800079,1081.385498 136.401428,1082.633423 136.467957,1083.796631 
	C136.810699,1089.789917 140.738220,1089.010132 144.557983,1089.010010 
	C510.184814,1088.999268 875.811646,1088.999878 1241.438477,1088.999756 
	C1242.604980,1088.999756 1243.963745,1089.378174 1244.894531,1088.909058 
	C1246.404663,1088.147827 1248.592285,1086.982422 1248.793091,1085.717529 
	C1249.289307,1082.594604 1250.897949,1082.143921 1253.557495,1081.935059 
	C1258.920166,1081.513672 1264.249390,1080.680176 1269.601318,1080.098999 
	C1270.558105,1079.995117 1271.570679,1080.222778 1272.535400,1080.411133 
	C1275.073242,1080.906860 1277.595825,1081.885620 1280.130127,1081.904175 
	C1284.338501,1081.934692 1288.550781,1081.163818 1292.762329,1081.156006 
	C1294.232788,1081.153320 1295.995972,1082.100830 1297.113403,1083.156250 
	C1299.061646,1084.996460 1305.777710,1086.108154 1307.569580,1084.101562 
	C1311.260986,1079.967651 1315.920776,1083.865967 1319.831299,1082.233398 
	C1320.962646,1087.391846 1325.971924,1084.542969 1328.089355,1086.531372 
	C1329.734985,1085.190186 1331.831543,1082.997925 1332.199707,1083.257324 
	C1335.476074,1085.567017 1341.222168,1080.015747 1343.147705,1086.611572 
	C1343.191895,1086.762939 1346.268555,1086.149780 1347.863892,1085.670166 
	C1348.531738,1085.469482 1349.138062,1084.152954 1349.579346,1084.247314 
	C1355.816284,1085.580444 1363.709473,1080.016479 1368.212158,1090.073364 
	C1369.868286,1083.879272 1373.902588,1084.778320 1377.374390,1085.067139 
	C1387.229492,1085.887451 1397.039551,1086.872192 1406.961548,1087.202271 
	C1423.225220,1087.743408 1439.435303,1089.734619 1455.691284,1090.736328 
	C1463.997437,1091.248291 1472.356812,1090.834961 1480.687134,1091.041138 
	C1485.648804,1091.163940 1490.618286,1091.522095 1495.549927,1092.078369 
	C1498.101074,1092.366089 1500.816284,1094.291870 1503.034790,1093.749268 
	C1506.825195,1092.822632 1510.188477,1093.134155 1513.984131,1093.466309 
	C1518.421387,1093.854370 1522.990234,1092.361938 1527.322876,1094.867798 
	C1527.870117,1095.184448 1529.085815,1094.299683 1530.007812,1094.025391 
	C1531.236816,1093.659790 1532.544678,1092.914551 1533.709106,1093.084351 
	C1539.707764,1093.958374 1545.669312,1095.085693 1551.649536,1096.090088 
	C1552.555664,1096.242310 1553.494263,1096.283569 1554.414429,1096.258301 
	C1560.468384,1096.092407 1566.525146,1095.672607 1572.573486,1095.776733 
	C1577.393433,1095.859619 1582.195068,1096.772217 1587.018311,1096.948364 
	C1593.009888,1097.167236 1599.018921,1096.876099 1605.013428,1097.048218 
	C1610.885620,1097.216797 1616.757324,1097.591919 1622.613159,1098.071777 
	C1625.528320,1098.310669 1628.407471,1098.987183 1631.547729,1099.506226 
	C1631.156250,1100.557373 1630.837280,1101.413574 1630.519409,1102.267212 
	C1634.441895,1103.915771 1634.291992,1103.818848 1636.131226,1100.975586 
	C1636.761475,1100.001465 1638.370483,1099.067261 1639.494873,1099.109619 
	C1644.104736,1099.282471 1648.724854,1099.663330 1653.293945,1100.304932 
	C1657.625732,1100.913452 1661.898438,1101.942749 1666.651367,1102.876099 
	C1667.137573,1102.255005 1668.127808,1100.990112 1669.896240,1099.809448 
	C1670.931763,1099.907471 1671.967285,1100.005493 1673.107666,1100.746460 
	C1674.070679,1100.538818 1675.033813,1100.331299 1676.823486,1099.982788 
	C1678.216675,1100.031006 1679.609863,1100.079346 1681.011963,1100.860474 
	C1683.236450,1107.275635 1685.137939,1102.201538 1688.045166,1100.741943 
	C1692.031128,1100.863892 1696.016968,1100.985718 1700.130859,1101.805664 
	C1701.526001,1102.453979 1702.909424,1103.621460 1704.318604,1103.653564 
	C1708.619019,1103.751953 1712.940186,1103.134399 1717.234009,1103.298462 
	C1728.384521,1103.724365 1739.526367,1104.391357 1750.667236,1105.037964 
	C1752.270386,1105.130859 1753.840210,1105.702393 1755.441650,1105.944824 
	C1757.673828,1106.282593 1759.917114,1106.561157 1762.163330,1106.788452 
	C1766.002197,1107.176880 1769.848633,1107.489746 1773.688599,1107.867920 
	C1775.092529,1108.006226 1776.515015,1108.512451 1777.880005,1108.372681 
	C1780.601562,1108.093872 1783.619629,1106.467285 1785.924316,1107.216064 
	C1791.238647,1108.942261 1798.556641,1105.059448 1801.508545,1112.478638 
	C1805.265137,1112.042603 1808.652832,1111.649414 1813.598145,1111.075317 
	C1814.093506,1111.043701 1815.996460,1110.628174 1817.814819,1110.864258 
	C1822.069336,1111.416504 1823.668579,1110.043579 1822.994263,1105.062744 
z"/>
<path fill="#B2B2B2" opacity="1.000000" stroke="none" 
	d="
M2219.592773,7.106882 
	C2218.685547,7.805097 2217.342529,8.816369 2215.945557,8.897524 
	C2211.959473,9.129058 2207.951904,8.983925 2203.952637,8.983932 
	C1508.595093,8.985077 813.237671,8.986888 117.880142,8.945804 
	C115.653572,8.945672 113.427040,8.322661 111.070343,7.620944 
	C113.096443,7.145496 115.252686,6.946960 117.408936,6.946930 
	C816.317200,6.937204 1515.225464,6.941092 2214.133789,6.946840 
	C2215.799805,6.946854 2217.466064,6.978392 2219.592773,7.106882 
z"/>
<path fill="#D7D7D7" opacity="1.000000" stroke="none" 
	d="
M2341.890137,1129.464111 
	C2340.907227,1129.836426 2339.865967,1129.876343 2338.437012,1129.864746 
	C2339.310059,1129.586060 2340.570801,1129.358887 2341.890137,1129.464111 
z"/>
<path fill="#060606" opacity="1.000000" stroke="none" 
	d="
M122.957314,60.458401 
	C123.703423,60.590946 124.449539,60.723492 126.026268,60.981041 
	C127.356445,61.116333 127.856003,61.135632 128.355560,61.135624 
	C461.414490,61.131908 794.473389,61.126007 1127.532349,61.130600 
	C1132.356812,61.130669 1137.181396,61.261562 1142.008301,61.706524 
	C1142.044922,62.830959 1142.079102,63.580273 1141.788696,64.595657 
	C1136.636841,64.554367 1131.809692,64.247002 1126.677734,63.658829 
	C1124.891724,63.255260 1123.410522,63.025021 1121.929321,63.024944 
	C828.031677,63.009480 534.133972,63.008682 240.236313,63.049065 
	C238.495712,63.049305 236.755157,63.632351 234.550964,64.023689 
	C199.147202,64.108070 164.207047,64.112007 128.976410,64.085930 
	C128.255432,64.414139 127.824959,64.772354 127.394501,65.130569 
	C127.722809,65.434227 128.051117,65.737877 128.535095,66.483276 
	C128.716736,130.920471 128.763199,194.915924 128.765152,258.911377 
	C128.773331,527.228516 128.768219,795.545654 128.767975,1063.862793 
	C128.767960,1066.777344 128.767960,1069.691895 128.767960,1072.581177 
	C131.389771,1072.778320 133.202332,1072.914673 135.199493,1073.290039 
	C136.251450,1073.369995 137.118820,1073.210938 138.359070,1072.958374 
	C139.493011,1072.926636 140.254074,1072.988525 141.159821,1073.267090 
	C141.865311,1073.338867 142.426132,1073.193848 143.448059,1072.953979 
	C444.623108,1072.852661 745.337036,1072.842407 1046.051025,1072.847046 
	C1070.701050,1072.847412 1095.350952,1072.949097 1120.249512,1073.274170 
	C1122.332520,1073.361450 1124.166870,1073.178345 1126.419067,1072.900269 
	C1132.529907,1072.794067 1138.223022,1072.782837 1144.374390,1072.900757 
	C1155.112671,1072.966064 1165.392700,1072.902222 1176.081787,1072.926147 
	C1177.978271,1073.013916 1179.465454,1073.013916 1180.952759,1073.013916 
	C1180.931763,1072.556396 1180.910645,1072.098877 1180.889648,1071.641357 
	C1179.229858,1071.828125 1177.570068,1072.014771 1175.453857,1072.260986 
	C1164.662842,1071.885132 1154.328003,1071.449951 1143.560303,1070.929932 
	C1119.174927,1069.570801 1095.221680,1068.313965 1071.270508,1067.018188 
	C1022.032288,1064.354858 972.797485,1061.627808 923.557068,1059.007568 
	C879.148254,1056.644409 834.730713,1054.446655 790.322571,1052.071045 
	C723.448364,1048.493774 656.581299,1044.784180 589.707031,1041.207764 
	C536.805786,1038.378662 483.896240,1035.705811 430.994385,1032.888550 
	C377.759308,1030.053467 324.529602,1027.118530 271.296417,1024.248169 
	C264.344025,1023.873169 257.384979,1023.622009 250.417328,1023.313049 
	C250.417328,719.836853 250.417328,416.954559 250.417328,113.766022 
	C252.681641,113.766022 254.660660,113.766037 256.639679,113.766014 
	C868.284668,113.761101 1479.929688,113.755478 2091.574707,113.766075 
	C2095.700195,113.766151 2099.825928,113.990211 2103.798340,114.439468 
	C2103.921631,116.864723 2104.197998,118.960205 2104.592285,121.506683 
	C2104.720947,122.457268 2104.741455,122.956848 2104.741455,123.456436 
	C2104.743408,420.629364 2104.744385,717.802307 2104.735596,1014.975220 
	C2104.735596,1016.299988 2104.596924,1017.624817 2104.201660,1019.051270 
	C2103.588135,1020.444763 2103.296143,1021.736572 2102.542480,1023.115967 
	C2008.023804,1023.203613 1913.966797,1023.203613 1819.934204,1023.203613 
	C1819.934204,1040.104858 1819.934204,1056.202148 1819.934204,1072.554688 
	C1955.768799,1072.554688 2091.323242,1072.554688 2227.462891,1072.554688 
	C2227.462891,1070.648682 2227.463135,1069.027466 2227.463135,1067.406250 
	C2227.463135,734.783386 2227.463623,402.160522 2227.442627,69.537636 
	C2227.442627,67.724953 2227.131836,65.912285 2226.974121,63.753250 
	C2226.985596,62.714149 2226.989746,62.021408 2227.266846,61.200897 
	C2227.712646,60.971115 2227.885742,60.869099 2228.494141,60.826492 
	C2230.984863,61.376980 2234.802002,58.856434 2234.008301,64.398354 
	C2233.821777,66.513161 2233.767578,68.178612 2233.767578,69.844055 
	C2233.770996,210.630173 2233.786377,351.416290 2233.783447,492.202393 
	C2233.779785,686.136902 2233.762207,880.071472 2233.560059,1074.150513 
	C2233.231445,1074.741455 2233.093018,1075.187744 2232.497314,1075.725830 
	C2225.881836,1075.895142 2219.723633,1076.040527 2213.565674,1076.040527 
	C2088.684082,1076.040527 1963.802368,1076.024658 1838.920654,1076.009155 
	C1833.592651,1076.008545 1828.263428,1076.043091 1822.937012,1075.941284 
	C1820.678101,1075.898193 1819.264771,1076.335205 1819.955566,1079.464111 
	C1819.943115,1088.606323 1820.049072,1097.293701 1819.796387,1106.160156 
	C1818.792847,1106.462524 1818.140625,1106.722778 1817.504028,1106.688599 
	C1791.437500,1105.293945 1765.376587,1103.788574 1739.305420,1102.490234 
	C1726.213989,1101.838257 1713.104370,1101.556641 1700.002930,1101.107544 
	C1696.016968,1100.985718 1692.031128,1100.863892 1687.496948,1100.398682 
	C1684.966797,1100.079468 1682.984985,1100.103516 1681.003052,1100.127686 
	C1679.609863,1100.079346 1678.216675,1100.031006 1676.039185,1099.987061 
	C1674.504150,1100.028809 1673.753540,1100.066162 1673.002808,1100.103516 
	C1671.967285,1100.005493 1670.931763,1099.907471 1669.339233,1099.409058 
	C1660.324585,1098.398193 1651.874512,1097.644775 1643.408081,1097.201904 
	C1606.487793,1095.270752 1569.559692,1093.490234 1532.640381,1091.539551 
	C1493.063354,1089.448120 1453.494385,1087.199341 1413.919189,1085.071167 
	C1379.167114,1083.202515 1344.422119,1081.148804 1309.653687,1079.649658 
	C1274.553223,1078.136230 1239.427856,1077.205078 1204.313354,1076.016846 
	C1202.320312,1075.949463 1200.327637,1075.866821 1198.121948,1075.781982 
	C1197.483276,1075.779175 1197.057617,1075.785400 1196.131714,1075.888672 
	C1181.094238,1076.049072 1166.556885,1076.112549 1151.615967,1076.034790 
	C1149.803711,1075.986816 1148.395020,1076.080078 1146.523193,1076.105591 
	C1140.396973,1076.041748 1134.734131,1076.049194 1129.071289,1076.049072 
	C879.510376,1076.045288 629.949524,1076.040771 380.388611,1076.036499 
	C377.090485,1076.036377 373.792358,1076.038574 370.531494,1076.063965 
	C370.568726,1076.088379 370.727051,1076.072021 370.310425,1075.972656 
	C369.059601,1075.999512 368.225403,1076.125732 367.008057,1076.168213 
	C361.648224,1076.160767 356.671448,1076.309448 351.694885,1076.302246 
	C276.128967,1076.191772 200.563080,1076.060913 124.838272,1075.693726 
	C123.837135,1074.980103 122.994911,1074.507568 122.155342,1073.608887 
	C122.262245,1070.522095 122.457748,1067.861694 122.457832,1065.201172 
	C122.468216,735.843140 122.463684,406.485168 122.466530,77.127159 
	C122.466576,72.630806 122.550781,68.134460 122.722443,63.217232 
	C122.909447,62.215542 122.969719,61.634727 123.079674,60.896755 
	C123.129356,60.739594 122.957314,60.458401 122.957314,60.458401 
M387.194397,119.202438 
	C379.931793,119.202438 372.669220,119.202438 365.406616,119.202438 
	C365.405396,119.777794 365.404175,120.353157 365.402985,120.928513 
	C372.942749,120.928513 380.482513,120.928513 388.921539,121.072517 
	C396.949463,121.375458 404.977417,121.678398 413.748016,122.291420 
	C441.915405,123.868652 470.080261,125.493011 498.251221,127.003677 
	C512.827271,127.785309 527.414062,128.365326 542.848267,129.277069 
	C579.773621,131.264511 616.697449,133.279587 653.624634,135.232666 
	C704.186584,137.906845 754.752747,140.499405 805.313782,143.190567 
	C860.374329,146.121231 915.429382,149.153580 970.489685,152.088028 
	C1022.383118,154.853699 1074.281616,157.524399 1126.175415,160.284256 
	C1168.429077,162.531433 1210.677979,164.863647 1252.930664,167.129608 
	C1281.703735,168.672699 1310.479858,170.158554 1339.253906,171.684616 
	C1370.358521,173.334259 1401.461182,175.023239 1432.566772,176.654907 
	C1481.975220,179.246658 1531.387207,181.772156 1580.794312,184.388062 
	C1620.048218,186.466400 1659.296875,188.640930 1698.548096,190.767502 
	C1738.968140,192.957367 1779.388550,195.140900 1819.785400,198.221130 
	C1819.773193,199.053925 1819.750244,199.886734 1819.750122,200.719528 
	C1819.746826,471.792267 1819.744751,742.864990 1819.755615,1013.937744 
	C1819.755737,1015.043396 1819.942627,1016.149048 1820.060547,1017.459167 
	C1821.454468,1017.541748 1822.586548,1017.667419 1823.718750,1017.667542 
	C1907.523071,1017.676147 1991.327271,1017.677307 2075.131592,1017.658630 
	C2077.112061,1017.658203 2079.092285,1017.425476 2081.945068,1017.553772 
	C2085.520020,1017.553772 2089.094971,1017.553772 2092.583496,1017.553772 
	C2092.583496,717.774780 2092.583496,418.731293 2092.583496,119.332840 
	C2090.318848,119.332840 2088.341797,119.332832 2086.364746,119.332848 
	C1548.275024,119.336891 1010.185364,119.340012 472.095642,119.350357 
	C458.767548,119.350616 445.439453,119.430977 431.216034,119.200638 
	C428.112213,119.291084 425.008362,119.381531 420.988922,119.336143 
	C410.028839,119.384422 399.068787,119.432701 387.194397,119.202438 
M853.248047,1040.185303 
	C856.235779,1040.422485 859.219849,1040.729248 862.211792,1040.886230 
	C902.633972,1043.006348 943.059204,1045.070557 983.479919,1047.219238 
	C1025.573120,1049.456665 1067.661621,1051.783325 1109.753662,1054.046387 
	C1139.027344,1055.620239 1168.302490,1057.167725 1197.578369,1058.699951 
	C1228.189209,1060.302246 1258.802368,1061.859619 1289.413452,1063.458862 
	C1327.177856,1065.431885 1364.943237,1067.388184 1402.704224,1069.426147 
	C1435.137573,1071.176636 1467.561401,1073.106812 1499.996826,1074.820190 
	C1537.259399,1076.788452 1574.532715,1078.555298 1611.796265,1080.505859 
	C1639.243042,1081.942505 1666.681396,1083.541382 1694.124390,1085.053833 
	C1722.397095,1086.612061 1750.669800,1088.168091 1778.945068,1089.678833 
	C1782.023682,1089.843262 1785.118774,1089.701050 1788.213379,1089.701050 
	C1788.213379,796.440308 1788.213379,503.668335 1788.213379,210.511444 
	C1285.990845,183.813385 783.987305,157.126968 281.713989,130.426224 
	C281.713989,423.834198 281.713989,716.705200 281.713989,1009.574524 
	C282.445465,1009.786560 282.904663,1010.016541 283.375061,1010.042236 
	C312.482819,1011.633911 341.589203,1013.252686 370.700653,1014.774414 
	C408.133057,1016.731079 445.573151,1018.542236 483.003448,1020.537781 
	C527.249451,1022.896729 571.486084,1025.430908 615.731384,1027.804688 
	C655.656250,1029.946533 695.587158,1031.975342 735.515503,1034.052734 
	C774.444275,1036.078125 813.373108,1038.101807 853.248047,1040.185303 
M124.577698,1073.516113 
	C124.577698,1073.516113 124.474312,1073.575073 124.577698,1073.516113 
z"/>
<path fill="#DCDCDC" opacity="1.000000" stroke="none" 
	d="
M2234.166016,63.948967 
	C2234.802002,58.856434 2230.984863,61.376980 2228.417480,60.460716 
	C2225.742432,59.434528 2223.576172,58.308044 2221.416504,58.321079 
	C2210.513672,58.386879 2199.612549,58.974136 2188.710938,58.975204 
	C1845.474854,59.008862 1502.238770,58.995991 1159.002686,58.986668 
	C1153.005249,58.986504 1147.007812,58.943172 1141.010376,58.919991 
	C1143.366211,57.947308 1145.673584,56.818649 1148.098145,56.067585 
	C1149.314575,55.690723 1150.744141,56.000942 1152.077271,56.000942 
	C1496.202393,56.000862 1840.327515,56.000172 2184.452637,56.008694 
	C2188.475586,56.008793 2192.143555,56.530647 2193.547607,50.808800 
	C2194.309570,47.703205 2198.329102,48.329060 2200.688477,50.318481 
	C2205.472656,54.352871 2210.989258,54.039684 2216.616943,53.650463 
	C2219.237061,53.469261 2221.953125,52.961876 2224.472412,53.429291 
	C2228.449707,54.167213 2231.938965,54.966091 2234.182861,50.241943 
	C2234.599121,49.365883 2237.198730,48.961472 2238.562500,49.288982 
	C2239.562256,49.529091 2240.782715,51.282753 2240.859619,52.431911 
	C2241.025146,54.900326 2240.427246,57.410362 2240.323730,59.910885 
	C2240.279297,60.982117 2240.423828,62.258858 2241.000732,63.077545 
	C2241.305176,63.509983 2242.749023,63.300671 2243.630127,63.130455 
	C2245.165283,62.833862 2246.663086,62.343391 2249.000000,61.711464 
	C2249.000000,64.795280 2249.000000,67.076561 2249.000000,69.357841 
	C2249.000000,398.318146 2248.996338,727.278442 2249.041748,1056.238770 
	C2249.042236,1060.695557 2249.777588,1065.147339 2249.973389,1069.610107 
	C2250.318848,1077.479492 2249.577637,1077.944336 2244.210938,1075.336548 
	C2240.162109,1076.335693 2237.447998,1077.075684 2234.702637,1077.669434 
	C2226.889893,1079.358765 2219.115723,1081.370972 2211.216309,1082.440186 
	C2208.325439,1082.831543 2204.979736,1081.260986 2202.094727,1080.004517 
	C2196.184326,1077.430176 2193.436768,1078.761108 2193.042236,1085.088135 
	C2192.873047,1087.798828 2191.804199,1089.091797 2189.084961,1089.000610 
	C2187.919922,1088.961548 2186.752197,1088.999756 2185.585693,1088.999756 
	C2070.432861,1089.000000 1955.280151,1088.977173 1840.127441,1089.086792 
	C1835.712769,1089.090942 1832.939331,1088.466064 1832.170410,1083.458130 
	C1831.387085,1078.355713 1827.782104,1078.336304 1823.227295,1079.694824 
	C1821.784302,1079.324707 1820.929077,1079.166870 1820.073975,1079.009033 
	C1819.264771,1076.335205 1820.678101,1075.898193 1822.937012,1075.941284 
	C1828.263428,1076.043091 1833.592651,1076.008545 1838.920654,1076.009155 
	C1963.802368,1076.024658 2088.684082,1076.040527 2213.565674,1076.040527 
	C2219.723633,1076.040527 2225.881836,1075.895142 2232.699219,1075.816650 
	C2233.358643,1075.815796 2233.800049,1075.852173 2234.209717,1075.881592 
	C2235.416260,1073.821655 2236.910645,1071.732544 2236.911377,1069.642822 
	C2237.011230,737.089600 2237.003662,404.536438 2237.000244,71.983231 
	C2237.000244,70.317131 2237.356201,68.539124 2236.882080,67.020683 
	C2236.510254,65.830170 2235.109619,64.960915 2234.166016,63.948967 
M2246.290527,1069.440186 
	C2244.893555,1070.107422 2243.496582,1070.774658 2242.099609,1071.441895 
	C2242.493652,1072.024780 2242.887695,1072.607666 2243.281738,1073.190552 
	C2244.436035,1072.110840 2245.590332,1071.031128 2246.290527,1069.440186 
M2234.974854,59.750164 
	C2235.261230,60.370552 2235.547363,60.990940 2235.833740,61.611382 
	C2236.198975,61.020851 2236.564209,60.430325 2236.929199,59.839790 
	C2236.332275,59.579704 2235.735107,59.319618 2234.974854,59.750164 
z"/>
<path fill="#DCDCDC" opacity="1.000000" stroke="none" 
	d="
M1152.019531,1076.176025 
	C1166.556885,1076.112549 1181.094238,1076.049072 1196.252686,1076.049316 
	C1197.360840,1076.005737 1197.847778,1075.898560 1198.334839,1075.791260 
	C1200.327637,1075.866821 1202.320312,1075.949463 1204.313354,1076.016846 
	C1239.427856,1077.205078 1274.553223,1078.136230 1309.653687,1079.649658 
	C1344.422119,1081.148804 1379.167114,1083.202515 1413.919189,1085.071167 
	C1453.494385,1087.199341 1493.063354,1089.448120 1532.640381,1091.539551 
	C1569.559692,1093.490234 1606.487793,1095.270752 1643.408081,1097.201904 
	C1651.874512,1097.644775 1660.324585,1098.398193 1668.950073,1099.366943 
	C1668.127808,1100.990112 1667.137573,1102.255005 1666.651367,1102.876099 
	C1661.898438,1101.942749 1657.625732,1100.913452 1653.293945,1100.304932 
	C1648.724854,1099.663330 1644.104736,1099.282471 1639.494873,1099.109619 
	C1638.370483,1099.067261 1636.761475,1100.001465 1636.131226,1100.975586 
	C1634.291992,1103.818848 1634.441895,1103.915771 1630.519409,1102.267212 
	C1630.837280,1101.413574 1631.156250,1100.557373 1631.547729,1099.506226 
	C1628.407471,1098.987183 1625.528320,1098.310669 1622.613159,1098.071777 
	C1616.757324,1097.591919 1610.885620,1097.216797 1605.013428,1097.048218 
	C1599.018921,1096.876099 1593.009888,1097.167236 1587.018311,1096.948364 
	C1582.195068,1096.772217 1577.393433,1095.859619 1572.573486,1095.776733 
	C1566.525146,1095.672607 1560.468384,1096.092407 1554.414429,1096.258301 
	C1553.494263,1096.283569 1552.555664,1096.242310 1551.649536,1096.090088 
	C1545.669312,1095.085693 1539.707764,1093.958374 1533.709106,1093.084351 
	C1532.544678,1092.914551 1531.236816,1093.659790 1530.007812,1094.025391 
	C1529.085815,1094.299683 1527.870117,1095.184448 1527.322876,1094.867798 
	C1522.990234,1092.361938 1518.421387,1093.854370 1513.984131,1093.466309 
	C1510.188477,1093.134155 1506.825195,1092.822632 1503.034790,1093.749268 
	C1500.816284,1094.291870 1498.101074,1092.366089 1495.549927,1092.078369 
	C1490.618286,1091.522095 1485.648804,1091.163940 1480.687134,1091.041138 
	C1472.356812,1090.834961 1463.997437,1091.248291 1455.691284,1090.736328 
	C1439.435303,1089.734619 1423.225220,1087.743408 1406.961548,1087.202271 
	C1397.039551,1086.872192 1387.229492,1085.887451 1377.374390,1085.067139 
	C1373.902588,1084.778320 1369.868286,1083.879272 1368.212158,1090.073364 
	C1363.709473,1080.016479 1355.816284,1085.580444 1349.579346,1084.247314 
	C1349.138062,1084.152954 1348.531738,1085.469482 1347.863892,1085.670166 
	C1346.268555,1086.149780 1343.191895,1086.762939 1343.147705,1086.611572 
	C1341.222168,1080.015747 1335.476074,1085.567017 1332.199707,1083.257324 
	C1331.831543,1082.997925 1329.734985,1085.190186 1328.089355,1086.531372 
	C1325.971924,1084.542969 1320.962646,1087.391846 1319.831299,1082.233398 
	C1315.920776,1083.865967 1311.260986,1079.967651 1307.569580,1084.101562 
	C1305.777710,1086.108154 1299.061646,1084.996460 1297.113403,1083.156250 
	C1295.995972,1082.100830 1294.232788,1081.153320 1292.762329,1081.156006 
	C1288.550781,1081.163818 1284.338501,1081.934692 1280.130127,1081.904175 
	C1277.595825,1081.885620 1275.073242,1080.906860 1272.535400,1080.411133 
	C1271.570679,1080.222778 1270.558105,1079.995117 1269.601318,1080.098999 
	C1264.249390,1080.680176 1258.920166,1081.513672 1253.557495,1081.935059 
	C1250.897949,1082.143921 1249.289307,1082.594604 1248.793091,1085.717529 
	C1248.592285,1086.982422 1246.404663,1088.147827 1244.894531,1088.909058 
	C1243.963745,1089.378174 1242.604980,1088.999756 1241.438477,1088.999756 
	C875.811646,1088.999878 510.184814,1088.999268 144.557983,1089.010010 
	C140.738220,1089.010132 136.810699,1089.789917 136.467957,1083.796631 
	C136.401428,1082.633423 132.800079,1081.385498 130.661758,1080.696899 
	C127.664703,1079.731812 124.510696,1079.254150 121.479416,1078.109985 
	C121.709167,1077.282837 121.883316,1076.913940 122.365219,1076.538574 
	C123.447723,1076.333130 124.222466,1076.134033 124.997192,1075.934937 
	C200.563080,1076.060913 276.128967,1076.191772 351.694885,1076.302246 
	C356.671448,1076.309448 361.648224,1076.160767 367.532471,1076.387207 
	C369.162842,1076.531982 369.885681,1076.374268 370.612854,1076.151123 
	C370.617218,1076.085693 370.494232,1076.039673 370.494232,1076.039673 
	C373.792358,1076.038574 377.090485,1076.036377 380.388611,1076.036499 
	C629.949524,1076.040771 879.510376,1076.045288 1129.071289,1076.049072 
	C1134.734131,1076.049194 1140.396973,1076.041748 1146.753906,1076.370972 
	C1148.971924,1076.528076 1150.495728,1076.352051 1152.019531,1076.176025 
M1246.866699,1079.202637 
	C1245.432739,1079.202637 1243.998901,1079.202637 1242.564941,1079.202637 
	C1242.663574,1079.884033 1242.762085,1080.565430 1242.860718,1081.246948 
	C1244.377930,1080.715454 1245.895264,1080.184082 1246.866699,1079.202637 
z"/>
<path fill="#C6C6C6" opacity="1.000000" stroke="none" 
	d="
M115.990341,1077.004883 
	C115.130547,1075.096069 113.677307,1073.228882 113.539749,1071.269409 
	C113.286491,1067.661499 113.979599,1063.999268 113.979889,1060.359741 
	C114.006706,728.934204 114.000694,397.508606 114.095497,66.083069 
	C114.096169,63.754887 115.457985,61.427094 116.785461,59.327663 
	C118.151115,61.248962 119.390869,62.894524 119.564735,64.645905 
	C119.805000,67.066017 119.050491,69.565849 119.050262,72.031563 
	C119.019279,403.703003 119.015114,735.374451 119.055901,1067.045898 
	C119.056358,1070.769775 119.435074,1074.425293 115.990341,1077.004883 
z"/>
<path fill="#ADADAD" opacity="1.000000" stroke="none" 
	d="
M1140.541626,58.954681 
	C1147.007812,58.943172 1153.005249,58.986504 1159.002686,58.986668 
	C1502.238770,58.995991 1845.474854,59.008862 2188.710938,58.975204 
	C2199.612549,58.974136 2210.513672,58.386879 2221.416504,58.321079 
	C2223.576172,58.308044 2225.742432,59.434528 2227.982422,60.401306 
	C2227.885742,60.869099 2227.712646,60.971115 2226.809082,61.122547 
	C2225.412354,61.161846 2224.746094,61.142872 2224.079834,61.142860 
	C1868.047974,61.136524 1512.016113,61.130688 1155.984253,61.134914 
	C1151.324829,61.134968 1146.665283,61.263065 1142.005859,61.331398 
	C1137.181396,61.261562 1132.356812,61.130669 1127.532349,61.130600 
	C794.473389,61.126007 461.414490,61.131908 128.355560,61.135624 
	C127.856003,61.135632 127.356445,61.116333 126.405029,60.959625 
	C127.796989,60.215260 129.639420,59.100517 131.484863,59.095490 
	C170.302078,58.989700 209.119644,59.005459 247.937134,59.004677 
	C545.315735,58.998695 842.694275,58.994282 1140.541626,58.954681 
z"/>
<path fill="#ADADAD" opacity="1.000000" stroke="none" 
	d="
M116.244461,1077.278320 
	C119.435074,1074.425293 119.056358,1070.769775 119.055901,1067.045898 
	C119.015114,735.374451 119.019279,403.703003 119.050262,72.031563 
	C119.050491,69.565849 119.805000,67.066017 119.564735,64.645905 
	C119.390869,62.894524 118.151115,61.248962 117.176369,59.269703 
	C118.918655,59.241142 120.871277,59.499084 122.890602,60.107716 
	C122.957314,60.458401 123.129356,60.739594 122.763176,60.849632 
	C122.463234,61.852486 122.529472,62.745296 122.595711,63.638111 
	C122.550781,68.134460 122.466576,72.630806 122.466530,77.127159 
	C122.463684,406.485168 122.468216,735.843140 122.457832,1065.201172 
	C122.457748,1067.861694 122.262245,1070.522095 121.934570,1073.729126 
	C121.826576,1075.032104 121.942001,1075.788452 122.057434,1076.544922 
	C121.883316,1076.913940 121.709167,1077.282837 121.266685,1077.821045 
	C119.498428,1077.844116 117.998512,1077.697998 116.244461,1077.278320 
z"/>
<path fill="#DCDCDC" opacity="1.000000" stroke="none" 
	d="
M1700.066895,1101.456543 
	C1713.104370,1101.556641 1726.213989,1101.838257 1739.305420,1102.490234 
	C1765.376587,1103.788574 1791.437500,1105.293945 1817.504028,1106.688599 
	C1818.140625,1106.722778 1818.792847,1106.462524 1820.152100,1106.148193 
	C1821.577637,1105.971313 1822.288818,1105.985718 1823.000000,1106.000000 
	C1823.668579,1110.043579 1822.069336,1111.416504 1817.814819,1110.864258 
	C1815.996460,1110.628174 1814.093506,1111.043701 1813.598145,1111.075317 
	C1808.652832,1111.649414 1805.265137,1112.042603 1801.508545,1112.478638 
	C1798.556641,1105.059448 1791.238647,1108.942261 1785.924316,1107.216064 
	C1783.619629,1106.467285 1780.601562,1108.093872 1777.880005,1108.372681 
	C1776.515015,1108.512451 1775.092529,1108.006226 1773.688599,1107.867920 
	C1769.848633,1107.489746 1766.002197,1107.176880 1762.163330,1106.788452 
	C1759.917114,1106.561157 1757.673828,1106.282593 1755.441650,1105.944824 
	C1753.840210,1105.702393 1752.270386,1105.130859 1750.667236,1105.037964 
	C1739.526367,1104.391357 1728.384521,1103.724365 1717.234009,1103.298462 
	C1712.940186,1103.134399 1708.619019,1103.751953 1704.318604,1103.653564 
	C1702.909424,1103.621460 1701.526001,1102.453979 1700.066895,1101.456543 
z"/>
<path fill="#F1F1F1" opacity="1.000000" stroke="none" 
	d="
M1822.997070,1105.531494 
	C1822.288818,1105.985718 1821.577637,1105.971313 1820.510742,1105.968994 
	C1820.049072,1097.293701 1819.943115,1088.606323 1819.955566,1079.464111 
	C1820.929077,1079.166870 1821.784302,1079.324707 1822.845947,1079.745361 
	C1823.033081,1088.359741 1823.013672,1096.711304 1822.997070,1105.531494 
z"/>
<path fill="#DCDCDC" opacity="1.000000" stroke="none" 
	d="
M1681.007568,1100.494141 
	C1682.984985,1100.103516 1684.966797,1100.079468 1687.044189,1100.371826 
	C1685.137939,1102.201538 1683.236450,1107.275635 1681.007568,1100.494141 
z"/>
<path fill="#DCDCDC" opacity="1.000000" stroke="none" 
	d="
M1673.055176,1100.425049 
	C1673.753540,1100.066162 1674.504150,1100.028809 1675.625854,1100.057617 
	C1675.033813,1100.331299 1674.070679,1100.538818 1673.055176,1100.425049 
z"/>
<path fill="#FDFEFE" opacity="1.000000" stroke="none" 
	d="
M1120.000977,1073.003662 
	C1095.350952,1072.949097 1070.701050,1072.847412 1046.051025,1072.847046 
	C745.337036,1072.842407 444.623108,1072.852661 143.271759,1072.837036 
	C142.094620,1072.893433 141.554886,1072.971802 141.015152,1073.050293 
	C140.254074,1072.988525 139.493011,1072.926636 138.129944,1072.841919 
	C136.690277,1072.896240 135.852600,1072.973633 135.014908,1073.051025 
	C133.202332,1072.914673 131.389771,1072.778320 128.767960,1072.581177 
	C128.767960,1069.691895 128.767960,1066.777344 128.767975,1063.862793 
	C128.768219,795.545654 128.773331,527.228516 128.765152,258.911377 
	C128.763199,194.915924 128.716736,130.920471 128.703156,66.171883 
	C128.899338,64.984474 129.083130,64.550209 129.266907,64.115936 
	C164.207047,64.112007 199.147202,64.108070 234.933563,64.148201 
	C531.528687,64.196495 827.277527,64.201073 1123.026367,64.194016 
	C1124.345093,64.193985 1125.663696,64.028076 1126.982422,63.939640 
	C1131.809692,64.247002 1136.636841,64.554367 1142.156494,64.566055 
	C1143.574219,64.149078 1144.299683,64.027771 1145.403564,64.041138 
	C1146.281860,64.185371 1146.781494,64.203262 1147.281250,64.203262 
	C1491.692993,64.202827 1836.104614,64.201530 2180.516357,64.188339 
	C2182.003174,64.188286 2183.489746,64.018120 2185.375000,64.015831 
	C2186.855469,64.046173 2187.937500,63.988075 2189.402588,64.049934 
	C2201.516113,64.089012 2213.246338,64.008133 2225.301758,64.012009 
	C2226.073486,64.097717 2226.520020,64.098671 2226.966309,64.099625 
	C2227.131836,65.912285 2227.442627,67.724953 2227.442627,69.537636 
	C2227.463623,402.160522 2227.463135,734.783386 2227.463135,1067.406250 
	C2227.463135,1069.027466 2227.462891,1070.648682 2227.462891,1072.554688 
	C2091.323242,1072.554688 1955.768799,1072.554688 1819.934204,1072.554688 
	C1819.934204,1056.202148 1819.934204,1040.104858 1819.934204,1023.203613 
	C1913.966797,1023.203613 2008.023804,1023.203613 2102.939453,1023.173035 
	C2104.039795,1021.744812 2104.281494,1020.347229 2104.523193,1018.949585 
	C2104.596924,1017.624817 2104.735596,1016.299988 2104.735596,1014.975220 
	C2104.744385,717.802307 2104.743408,420.629364 2104.741455,123.456436 
	C2104.741455,122.956848 2104.720947,122.457268 2104.749512,121.109985 
	C2104.509766,118.211433 2104.230469,116.160568 2103.951172,114.109695 
	C2099.825928,113.990211 2095.700195,113.766151 2091.574707,113.766075 
	C1479.929688,113.755478 868.284668,113.761101 256.639679,113.766014 
	C254.660660,113.766037 252.681641,113.766022 250.417328,113.766022 
	C250.417328,416.954559 250.417328,719.836853 250.417328,1023.313049 
	C257.384979,1023.622009 264.344025,1023.873169 271.296417,1024.248169 
	C324.529602,1027.118530 377.759308,1030.053467 430.994385,1032.888550 
	C483.896240,1035.705811 536.805786,1038.378662 589.707031,1041.207764 
	C656.581299,1044.784180 723.448364,1048.493774 790.322571,1052.071045 
	C834.730713,1054.446655 879.148254,1056.644409 923.557068,1059.007568 
	C972.797485,1061.627808 1022.032288,1064.354858 1071.270508,1067.018188 
	C1095.221680,1068.313965 1119.174927,1069.570801 1143.583252,1071.223877 
	C1143.998047,1071.992188 1143.957031,1072.381958 1143.916016,1072.771606 
	C1138.223022,1072.782837 1132.529907,1072.794067 1126.104248,1072.775391 
	C1123.581421,1072.831543 1121.791138,1072.917603 1120.000977,1073.003662 
z"/>
<path fill="#D0D0D0" opacity="1.000000" stroke="none" 
	d="
M1819.808716,197.327209 
	C1779.388550,195.140900 1738.968140,192.957367 1698.548096,190.767502 
	C1659.296875,188.640930 1620.048218,186.466400 1580.794312,184.388062 
	C1531.387207,181.772156 1481.975220,179.246658 1432.566772,176.654907 
	C1401.461182,175.023239 1370.358521,173.334259 1339.253906,171.684616 
	C1310.479858,170.158554 1281.703735,168.672699 1252.930664,167.129608 
	C1210.677979,164.863647 1168.429077,162.531433 1126.175415,160.284256 
	C1074.281616,157.524399 1022.383118,154.853699 970.489685,152.088028 
	C915.429382,149.153580 860.374329,146.121231 805.313782,143.190567 
	C754.752747,140.499405 704.186584,137.906845 653.624634,135.232666 
	C616.697449,133.279587 579.773621,131.264511 542.328125,128.767761 
	C536.793518,127.380470 531.808289,126.135429 526.755859,125.732544 
	C522.132080,125.363831 517.430908,126.103958 512.772705,125.990784 
	C507.963715,125.873947 503.170044,125.232521 498.361511,124.969681 
	C485.887421,124.287819 473.405701,123.739632 460.936523,122.981422 
	C459.573608,122.898544 458.272705,121.795105 457.412628,121.113129 
	C460.214752,121.037842 462.547272,120.993973 464.879822,120.993950 
	C1004.525940,120.988632 1544.171997,120.986374 2083.818115,120.984184 
	C2084.651367,120.984177 2085.492432,121.059555 2086.316650,120.974182 
	C2089.154785,120.680275 2090.267578,121.960510 2090.048828,124.741997 
	C2089.918701,126.398247 2090.029053,128.073318 2090.029053,129.739914 
	C2090.029297,422.062134 2090.029053,714.384338 2090.029541,1006.706543 
	C2090.029541,1016.019104 2090.031982,1016.019104 2080.541504,1016.000977 
	C1994.837524,1015.992065 1909.603394,1015.992065 1823.004883,1015.992065 
	C1823.004883,1008.657654 1823.005005,1002.218506 1823.005005,995.779358 
	C1823.005005,742.483154 1822.996216,489.186920 1823.031616,235.890686 
	C1823.033325,224.088791 1823.521362,212.287048 1823.531006,200.485016 
	C1823.532349,198.825485 1823.823486,195.059204 1819.808716,197.327209 
z"/>
<path fill="#F8FAFB" opacity="1.000000" stroke="none" 
	d="
M852.775024,1040.155762 
	C813.373108,1038.101807 774.444275,1036.078125 735.515503,1034.052734 
	C695.587158,1031.975342 655.656250,1029.946533 615.731384,1027.804688 
	C571.486084,1025.430908 527.249451,1022.896729 483.003448,1020.537781 
	C445.573151,1018.542236 408.133057,1016.731079 370.700653,1014.774414 
	C341.589203,1013.252686 312.482819,1011.633911 283.375061,1010.042236 
	C282.904663,1010.016541 282.445465,1009.786560 281.713989,1009.574524 
	C281.713989,716.705200 281.713989,423.834198 281.713989,130.426224 
	C783.987305,157.126968 1285.990845,183.813385 1788.213379,210.511444 
	C1788.213379,503.668335 1788.213379,796.440308 1788.213379,1089.701050 
	C1785.118774,1089.701050 1782.023682,1089.843262 1778.945068,1089.678833 
	C1750.669800,1088.168091 1722.397095,1086.612061 1694.124390,1085.053833 
	C1666.681396,1083.541382 1639.243042,1081.942505 1611.796265,1080.505859 
	C1574.532715,1078.555298 1537.259399,1076.788452 1499.996826,1074.820190 
	C1467.561401,1073.106812 1435.137573,1071.176636 1402.704224,1069.426147 
	C1364.943237,1067.388184 1327.177856,1065.431885 1289.413452,1063.458862 
	C1258.802368,1061.859619 1228.189209,1060.302246 1197.578369,1058.699951 
	C1168.302490,1057.167725 1139.027344,1055.620239 1109.753662,1054.046387 
	C1067.661621,1051.783325 1025.573120,1049.456665 983.479919,1047.219238 
	C943.059204,1045.070557 902.633972,1043.006348 862.211792,1040.886230 
	C859.219849,1040.729248 856.235779,1040.422485 852.775024,1040.155762 
M1762.948975,319.013062 
	C1762.979614,287.849060 1762.973267,256.684937 1763.096069,225.521301 
	C1763.109009,222.249084 1761.926514,221.222336 1758.755981,221.071335 
	C1739.457520,220.152267 1720.168091,219.045410 1700.874023,218.031830 
	C1660.956421,215.934845 1621.035889,213.895462 1581.120361,211.761932 
	C1527.727661,208.908051 1474.340942,205.947006 1420.947388,203.108307 
	C1380.534912,200.959763 1340.113525,198.981644 1299.700928,196.835312 
	C1251.634766,194.282532 1203.574341,191.622375 1155.510620,189.024933 
	C1119.256226,187.065704 1083.001221,185.115555 1046.744995,183.190491 
	C976.885193,179.481186 907.024963,175.780304 837.163635,172.099564 
	C791.755371,169.707169 746.344604,167.361465 700.935425,164.985870 
	C654.860596,162.575455 608.784302,160.191925 562.712463,157.724655 
	C529.284485,155.934479 495.865112,153.984848 462.437805,152.182281 
	C419.027527,149.841385 375.613708,147.566635 332.200195,145.286041 
	C323.978699,144.854156 315.751648,144.527878 307.033203,144.130341 
	C307.033203,146.984818 307.033203,149.285095 307.033203,151.585373 
	C307.033478,278.412476 307.032867,405.239563 307.043427,532.066650 
	C307.043579,533.726257 307.185822,535.385925 307.076599,537.956299 
	C307.064545,583.830383 307.049255,629.704407 307.050659,675.578491 
	C307.050720,677.732300 307.199585,679.886047 307.105133,682.956970 
	C307.087646,787.115784 307.068787,891.274658 307.071075,995.433472 
	C307.071106,996.544189 307.348267,997.654907 307.528503,999.009521 
	C310.059753,999.176331 312.368347,999.352722 314.679749,999.477234 
	C360.916016,1001.967163 407.151398,1004.474182 453.389465,1006.929810 
	C501.118286,1009.464417 548.849121,1011.960571 596.580322,1014.450439 
	C647.148987,1017.088318 697.721252,1019.658203 748.287903,1022.334106 
	C789.198669,1024.499023 830.102539,1026.793213 871.011047,1029.000977 
	C914.094604,1031.326416 957.180725,1033.605103 1000.264404,1035.927979 
	C1030.693237,1037.568237 1061.117920,1039.286377 1091.548218,1040.899048 
	C1120.152344,1042.414917 1148.762329,1043.824707 1177.368286,1045.305786 
	C1209.642334,1046.976562 1241.914917,1048.673096 1274.187988,1050.361450 
	C1299.797852,1051.701172 1325.409424,1053.009888 1351.016724,1054.396240 
	C1384.104614,1056.187378 1417.187622,1058.072144 1450.275635,1059.859497 
	C1475.388184,1061.216187 1500.505981,1062.476074 1525.620483,1063.793579 
	C1559.551636,1065.573486 1593.483032,1067.344727 1627.412109,1069.162476 
	C1654.850098,1070.632324 1682.283936,1072.177979 1709.721069,1073.666016 
	C1726.187256,1074.559082 1742.660645,1075.331055 1759.119629,1076.338867 
	C1762.378052,1076.538452 1763.304443,1075.304077 1763.053467,1072.387451 
	C1762.953735,1071.229614 1763.040283,1070.055786 1763.040283,1068.889160 
	C1763.039673,869.570618 1763.039795,670.252075 1763.024658,470.933533 
	C1763.024536,468.945312 1762.821533,466.957123 1762.977661,464.071625 
	C1763.001465,416.998840 1763.027588,369.926086 1763.033813,322.853302 
	C1763.033936,321.869690 1762.803345,320.886078 1762.948975,319.013062 
z"/>
<path fill="#F2F2F2" opacity="1.000000" stroke="none" 
	d="
M2081.011475,1016.009827 
	C2090.031982,1016.019104 2090.029541,1016.019104 2090.029541,1006.706543 
	C2090.029053,714.384338 2090.029297,422.062134 2090.029053,129.739914 
	C2090.029053,128.073318 2089.918701,126.398247 2090.048828,124.741997 
	C2090.267578,121.960510 2089.154785,120.680275 2086.316650,120.974182 
	C2085.492432,121.059555 2084.651367,120.984177 2083.818115,120.984184 
	C1544.171997,120.986374 1004.525940,120.988632 464.879822,120.993950 
	C462.547272,120.993973 460.214752,121.037842 456.991089,121.079041 
	C454.403381,121.115715 452.706787,121.134583 450.634491,121.102646 
	C449.503265,121.086136 448.747681,121.120445 447.527039,121.132233 
	C443.267120,121.107231 439.465271,121.233765 435.681549,121.027596 
	C434.466858,120.961395 433.300079,120.016739 432.111359,119.473976 
	C445.439453,119.430977 458.767548,119.350616 472.095642,119.350357 
	C1010.185364,119.340012 1548.275024,119.336891 2086.364746,119.332848 
	C2088.341797,119.332832 2090.318848,119.332840 2092.583496,119.332840 
	C2092.583496,418.731293 2092.583496,717.774780 2092.583496,1017.553772 
	C2089.094971,1017.553772 2085.520020,1017.553772 2081.516113,1017.211304 
	C2081.027100,1016.585571 2081.001953,1016.299255 2081.011475,1016.009827 
z"/>
<path fill="#ADADAD" opacity="1.000000" stroke="none" 
	d="
M2234.008301,64.398323 
	C2235.109619,64.960915 2236.510254,65.830170 2236.882080,67.020683 
	C2237.356201,68.539124 2237.000244,70.317131 2237.000244,71.983231 
	C2237.003662,404.536438 2237.011230,737.089600 2236.911377,1069.642822 
	C2236.910645,1071.732544 2235.416260,1073.821655 2234.334473,1075.564697 
	C2233.949951,1074.814209 2233.850098,1074.410034 2233.750244,1074.005981 
	C2233.762207,880.071472 2233.779785,686.136902 2233.783447,492.202393 
	C2233.786377,351.416290 2233.770996,210.630173 2233.767578,69.844055 
	C2233.767578,68.178612 2233.821777,66.513161 2234.008301,64.398323 
z"/>
<path fill="#DCDCDC" opacity="1.000000" stroke="none" 
	d="
M2080.541504,1016.000977 
	C2081.001953,1016.299255 2081.027100,1016.585571 2081.080078,1017.084961 
	C2079.092285,1017.425476 2077.112061,1017.658203 2075.131592,1017.658630 
	C1991.327271,1017.677307 1907.523071,1017.676147 1823.718750,1017.667542 
	C1822.586548,1017.667419 1821.454468,1017.541748 1820.060547,1017.459167 
	C1819.942627,1016.149048 1819.755737,1015.043396 1819.755615,1013.937744 
	C1819.744751,742.864990 1819.746826,471.792267 1819.750122,200.719528 
	C1819.750244,199.886734 1819.773193,199.053925 1819.797119,197.774170 
	C1823.823486,195.059204 1823.532349,198.825485 1823.531006,200.485016 
	C1823.521362,212.287048 1823.033325,224.088791 1823.031616,235.890686 
	C1822.996216,489.186920 1823.005005,742.483154 1823.005005,995.779358 
	C1823.005005,1002.218506 1823.004883,1008.657654 1823.004883,1015.992065 
	C1909.603394,1015.992065 1994.837524,1015.992065 2080.541504,1016.000977 
z"/>
<path fill="#010101" opacity="1.000000" stroke="none" 
	d="
M1145.025146,63.906456 
	C1144.299683,64.027771 1143.574219,64.149078 1142.480957,64.299988 
	C1142.079102,63.580273 1142.044922,62.830959 1142.008301,61.706524 
	C1146.665283,61.263065 1151.324829,61.134968 1155.984253,61.134914 
	C1512.016113,61.130688 1868.047974,61.136524 2224.079834,61.142860 
	C2224.746094,61.142872 2225.412354,61.161846 2226.536133,61.250320 
	C2226.989746,62.021408 2226.985596,62.714149 2226.973877,63.753258 
	C2226.520020,64.098671 2226.073486,64.097717 2224.997314,63.731777 
	C2213.979980,63.247578 2203.592529,63.092213 2193.204590,63.052132 
	C2191.810547,63.046757 2190.414551,63.623058 2189.019287,63.929993 
	C2187.937500,63.988075 2186.855469,64.046173 2185.072021,63.733471 
	C2182.388428,63.243847 2180.406738,63.020988 2178.424805,63.020897 
	C1836.036255,63.005581 1493.647705,63.004589 1151.259155,63.043358 
	C1149.181152,63.043591 1147.103149,63.606369 1145.025146,63.906456 
z"/>
<path fill="#171717" opacity="1.000000" stroke="none" 
	d="
M1126.677734,63.658829 
	C1125.663696,64.028076 1124.345093,64.193985 1123.026367,64.194016 
	C827.277527,64.201073 531.528687,64.196495 235.397186,64.067757 
	C236.755157,63.632351 238.495712,63.049305 240.236313,63.049065 
	C534.133972,63.008682 828.031677,63.009480 1121.929321,63.024944 
	C1123.410522,63.025021 1124.891724,63.255260 1126.677734,63.658829 
z"/>
<path fill="#BFBFBF" opacity="1.000000" stroke="none" 
	d="
M431.663696,119.337311 
	C433.300079,120.016739 434.466858,120.961395 435.681549,121.027596 
	C439.465271,121.233765 443.267120,121.107231 447.724579,121.354660 
	C449.261536,121.450890 450.135864,121.302170 451.010162,121.153450 
	C452.706787,121.134583 454.403381,121.115715 456.521545,121.130936 
	C458.272705,121.795105 459.573608,122.898544 460.936523,122.981422 
	C473.405701,123.739632 485.887421,124.287819 498.361511,124.969681 
	C503.170044,125.232521 507.963715,125.873947 512.772705,125.990784 
	C517.430908,126.103958 522.132080,125.363831 526.755859,125.732544 
	C531.808289,126.135429 536.793518,127.380470 541.902039,128.647430 
	C527.414062,128.365326 512.827271,127.785309 498.251221,127.003677 
	C470.080261,125.493011 441.915405,123.868652 413.673462,121.889351 
	C416.367432,120.815514 419.135986,120.143745 421.904541,119.471985 
	C425.008362,119.381531 428.112213,119.291084 431.663696,119.337311 
z"/>
<path fill="#F2F2F2" opacity="1.000000" stroke="none" 
	d="
M421.446716,119.404068 
	C419.135986,120.143745 416.367432,120.815514 413.302124,121.734314 
	C404.977417,121.678398 396.949463,121.375458 388.474609,120.755966 
	C388.178802,120.130440 388.205811,119.810959 388.108704,119.480972 
	C399.068787,119.432701 410.028839,119.384422 421.446716,119.404068 
z"/>
<path fill="#B7B7B7" opacity="1.000000" stroke="none" 
	d="
M1144.374390,1072.900757 
	C1143.957031,1072.381958 1143.998047,1071.992188 1144.016113,1071.308594 
	C1154.328003,1071.449951 1164.662842,1071.885132 1175.358398,1072.406616 
	C1175.719116,1072.492920 1175.672607,1072.838379 1175.672607,1072.838379 
	C1165.392700,1072.902222 1155.112671,1072.966064 1144.374390,1072.900757 
z"/>
<path fill="#BFBFBF" opacity="1.000000" stroke="none" 
	d="
M387.651550,119.341705 
	C388.205811,119.810959 388.178802,120.130440 388.024963,120.683960 
	C380.482513,120.928513 372.942749,120.928513 365.402985,120.928513 
	C365.404175,120.353157 365.405396,119.777794 365.406616,119.202438 
	C372.669220,119.202438 379.931793,119.202438 387.651550,119.341705 
z"/>
<path fill="#1F1F1F" opacity="1.000000" stroke="none" 
	d="
M2103.798096,114.439476 
	C2104.230469,116.160568 2104.509766,118.211433 2104.631836,120.658989 
	C2104.197998,118.960205 2103.921631,116.864723 2103.798096,114.439476 
z"/>
<path fill="#171717" opacity="1.000000" stroke="none" 
	d="
M1120.249512,1073.274170 
	C1121.791138,1072.917603 1123.581421,1072.831543 1125.686401,1072.870361 
	C1124.166870,1073.178345 1122.332520,1073.361450 1120.249512,1073.274170 
z"/>
<path fill="#1E1E1E" opacity="1.000000" stroke="none" 
	d="
M1176.081787,1072.926147 
	C1175.672607,1072.838379 1175.719116,1072.492920 1175.814697,1072.347168 
	C1177.570068,1072.014771 1179.229858,1071.828125 1180.889648,1071.641357 
	C1180.910645,1072.098877 1180.931763,1072.556396 1180.952759,1073.013916 
	C1179.465454,1073.013916 1177.978271,1073.013916 1176.081787,1072.926147 
z"/>
<path fill="#1F1F1F" opacity="1.000000" stroke="none" 
	d="
M122.365204,1076.538574 
	C121.942001,1075.788452 121.826576,1075.032104 121.931923,1074.155396 
	C122.994911,1074.507568 123.837135,1074.980103 124.838280,1075.693726 
	C124.222466,1076.134033 123.447723,1076.333130 122.365204,1076.538574 
z"/>
<path fill="#1F1F1F" opacity="1.000000" stroke="none" 
	d="
M2104.201660,1019.051270 
	C2104.281494,1020.347229 2104.039795,1021.744812 2103.401367,1023.085388 
	C2103.296143,1021.736572 2103.588135,1020.444763 2104.201660,1019.051270 
z"/>
<path fill="#171717" opacity="1.000000" stroke="none" 
	d="
M135.199493,1073.290039 
	C135.852600,1072.973633 136.690277,1072.896240 137.757080,1072.935425 
	C137.118820,1073.210938 136.251450,1073.369995 135.199493,1073.290039 
z"/>
<path fill="#ADADAD" opacity="1.000000" stroke="none" 
	d="
M1151.615967,1076.034790 
	C1150.495728,1076.352051 1148.971924,1076.528076 1147.217285,1076.438721 
	C1148.395020,1076.080078 1149.803711,1075.986816 1151.615967,1076.034790 
z"/>
<path fill="#171717" opacity="1.000000" stroke="none" 
	d="
M1198.121948,1075.781982 
	C1197.847778,1075.898560 1197.360840,1076.005737 1196.752808,1075.952393 
	C1197.057617,1075.785400 1197.483276,1075.779175 1198.121948,1075.781982 
z"/>
<path fill="#171717" opacity="1.000000" stroke="none" 
	d="
M128.976410,64.085930 
	C129.083130,64.550209 128.899338,64.984474 128.547485,65.730133 
	C128.051117,65.737877 127.722809,65.434227 127.394501,65.130569 
	C127.824959,64.772354 128.255432,64.414139 128.976410,64.085930 
z"/>
<path fill="#1F1F1F" opacity="1.000000" stroke="none" 
	d="
M122.722443,63.217232 
	C122.529472,62.745296 122.463234,61.852486 122.713493,61.006794 
	C122.969719,61.634727 122.909447,62.215542 122.722443,63.217232 
z"/>
<path fill="#171717" opacity="1.000000" stroke="none" 
	d="
M141.159821,1073.267090 
	C141.554886,1072.971802 142.094620,1072.893433 142.810669,1072.931885 
	C142.426132,1073.193848 141.865311,1073.338867 141.159821,1073.267090 
z"/>
<path fill="#ADADAD" opacity="1.000000" stroke="none" 
	d="
M370.608490,1076.216553 
	C369.885681,1076.374268 369.162842,1076.531982 367.915588,1076.470703 
	C368.225403,1076.125732 369.059601,1075.999512 370.276733,1076.004150 
	C370.659668,1076.135132 370.608490,1076.216553 370.608490,1076.216553 
z"/>
<path fill="#1F1F1F" opacity="1.000000" stroke="none" 
	d="
M2233.560059,1074.150513 
	C2233.850098,1074.410034 2233.949951,1074.814209 2233.924805,1075.535156 
	C2233.800049,1075.852173 2233.358643,1075.815796 2233.156738,1075.724976 
	C2233.093018,1075.187744 2233.231445,1074.741455 2233.560059,1074.150513 
z"/>
<path fill="#171717" opacity="1.000000" stroke="none" 
	d="
M370.612854,1076.151123 
	C370.608490,1076.216553 370.659668,1076.135132 370.693359,1076.103516 
	C370.727051,1076.072021 370.568726,1076.088379 370.531494,1076.063965 
	C370.494232,1076.039673 370.617218,1076.085693 370.612854,1076.151123 
z"/>
<path fill="#171717" opacity="1.000000" stroke="none" 
	d="
M124.526001,1073.545654 
	C124.474312,1073.575073 124.577698,1073.516113 124.526001,1073.545654 
z"/>
<path fill="#D7D7D7" opacity="1.000000" stroke="none" 
	d="
M2246.517578,1069.695801 
	C2245.590332,1071.031128 2244.436035,1072.110840 2243.281738,1073.190552 
	C2242.887695,1072.607666 2242.493652,1072.024780 2242.099609,1071.441895 
	C2243.496582,1070.774658 2244.893555,1070.107422 2246.517578,1069.695801 
z"/>
<path fill="#ADADAD" opacity="1.000000" stroke="none" 
	d="
M2235.056641,59.404846 
	C2235.735107,59.319618 2236.332275,59.579704 2236.929199,59.839794 
	C2236.564209,60.430325 2236.198975,61.020851 2235.833740,61.611355 
	C2235.547363,60.990940 2235.261230,60.370552 2235.056641,59.404846 
z"/>
<path fill="#D7D7D7" opacity="1.000000" stroke="none" 
	d="
M1247.139648,1079.427734 
	C1245.895264,1080.184082 1244.377930,1080.715454 1242.860718,1081.246948 
	C1242.762085,1080.565430 1242.663574,1079.884033 1242.564941,1079.202637 
	C1243.998901,1079.202637 1245.432739,1079.202637 1247.139648,1079.427734 
z"/>
<path fill="#171717" opacity="1.000000" stroke="none" 
	d="
M1145.403564,64.041138 
	C1147.103149,63.606369 1149.181152,63.043591 1151.259155,63.043358 
	C1493.647705,63.004589 1836.036255,63.005581 2178.424805,63.020897 
	C2180.406738,63.020988 2182.388428,63.243847 2184.673340,63.645039 
	C2183.489746,64.018120 2182.003174,64.188286 2180.516357,64.188339 
	C1836.104614,64.201530 1491.692993,64.202827 1147.281250,64.203262 
	C1146.781494,64.203262 1146.281860,64.185371 1145.403564,64.041138 
z"/>
<path fill="#171717" opacity="1.000000" stroke="none" 
	d="
M2189.402588,64.049950 
	C2190.414551,63.623058 2191.810547,63.046757 2193.204590,63.052132 
	C2203.592529,63.092213 2213.979980,63.247578 2224.671875,63.647026 
	C2213.246338,64.008133 2201.516113,64.089012 2189.402588,64.049950 
z"/>
<path fill="#01BFD5" opacity="1.000000" stroke="none" 
	d="
M1762.713379,464.968903 
	C1762.821533,466.957123 1763.024536,468.945312 1763.024658,470.933533 
	C1763.039795,670.252075 1763.039673,869.570618 1763.040283,1068.889160 
	C1763.040283,1070.055786 1762.953735,1071.229614 1763.053467,1072.387451 
	C1763.304443,1075.304077 1762.378052,1076.538452 1759.119629,1076.338867 
	C1742.660645,1075.331055 1726.187256,1074.559082 1709.721069,1073.666016 
	C1682.283936,1072.177979 1654.850098,1070.632324 1627.412109,1069.162476 
	C1593.483032,1067.344727 1559.551636,1065.573486 1525.620483,1063.793579 
	C1500.505981,1062.476074 1475.388184,1061.216187 1450.275635,1059.859497 
	C1417.187622,1058.072144 1384.104614,1056.187378 1351.016724,1054.396240 
	C1325.409424,1053.009888 1299.797852,1051.701172 1274.187988,1050.361450 
	C1241.914917,1048.673096 1209.642334,1046.976562 1177.368286,1045.305786 
	C1148.762329,1043.824707 1120.152344,1042.414917 1091.548218,1040.899048 
	C1061.117920,1039.286377 1030.693237,1037.568237 1000.264404,1035.927979 
	C957.180725,1033.605103 914.094604,1031.326416 871.011047,1029.000977 
	C830.102539,1026.793213 789.198669,1024.499023 748.287903,1022.334106 
	C697.721252,1019.658203 647.148987,1017.088318 596.580322,1014.450439 
	C548.849121,1011.960571 501.118286,1009.464417 453.389465,1006.929810 
	C407.151398,1004.474182 360.916016,1001.967163 314.679749,999.477234 
	C312.368347,999.352722 310.059753,999.176331 307.528503,999.009521 
	C307.348267,997.654907 307.071106,996.544189 307.071075,995.433472 
	C307.068787,891.274658 307.087646,787.115784 307.610718,682.489380 
	C321.384644,680.192505 334.655365,678.380432 347.920502,676.527954 
	C357.746582,675.155701 367.578247,673.815002 377.384308,672.309753 
	C392.757111,669.950012 408.099396,667.391052 423.475006,665.050354 
	C438.847504,662.710327 454.249542,660.564697 469.630188,658.277222 
	C481.085724,656.573547 492.524017,654.753967 503.976898,653.032043 
	C519.841370,650.646851 535.714233,648.317322 551.580017,645.940552 
	C562.374451,644.323425 573.157593,642.630310 583.955322,641.035339 
	C599.006409,638.812256 614.067383,636.656677 629.122070,634.457642 
	C641.560608,632.640869 653.995361,630.798645 666.433044,628.976135 
	C676.580078,627.489258 686.740234,626.088501 696.874023,624.517151 
	C710.442017,622.413269 723.976135,620.088562 737.550964,618.031372 
	C750.797974,616.023804 764.086243,614.290039 777.340820,612.330322 
	C788.799011,610.636230 800.229126,608.752991 811.682739,607.027161 
	C827.054321,604.711121 842.443298,602.510071 857.812439,600.178345 
	C873.187927,597.845703 888.537720,595.342163 903.918213,593.043945 
	C918.802734,590.819946 933.719971,588.815369 948.608093,586.614441 
	C960.713623,584.824951 972.794678,582.870605 984.891357,581.020447 
	C1000.586121,578.620117 1016.282166,576.227661 1031.984253,573.875305 
	C1043.101929,572.209656 1054.228760,570.604187 1065.354614,568.993347 
	C1078.938599,567.026611 1092.536133,565.150696 1106.108887,563.108337 
	C1119.034058,561.163330 1131.923340,558.979858 1144.848877,557.037415 
	C1159.895508,554.776245 1174.973877,552.725647 1190.020630,550.464783 
	C1201.471436,548.744202 1212.875854,546.711731 1224.334229,545.047668 
	C1237.754395,543.098694 1251.227295,541.512085 1264.646240,539.556152 
	C1276.266602,537.862305 1287.834595,535.811951 1299.442383,534.026978 
	C1316.434570,531.414124 1333.438232,528.875122 1350.443359,526.347595 
	C1362.718628,524.523010 1375.008057,522.794861 1387.284058,520.975098 
	C1400.699097,518.986572 1414.111450,516.978088 1427.514526,514.911072 
	C1439.939453,512.994751 1452.338867,510.909210 1464.771362,509.044189 
	C1479.817505,506.787140 1494.898071,504.759827 1509.942017,502.488373 
	C1521.227783,500.784363 1532.460571,498.726929 1543.750366,497.052551 
	C1557.814209,494.966705 1571.921265,493.174774 1585.992432,491.136108 
	C1594.674561,489.878265 1603.313965,488.327789 1611.990967,487.031555 
	C1627.036011,484.784058 1642.101807,482.675323 1657.146606,480.425507 
	C1668.766235,478.687836 1680.358521,476.768066 1691.978027,475.028900 
	C1707.024048,472.776886 1722.080566,470.593781 1737.140991,468.439850 
	C1745.656372,467.221954 1754.188721,466.121979 1762.713379,464.968903 
z"/>
<path fill="#01BFD5" opacity="1.000000" stroke="none" 
	d="
M307.261719,537.045532 
	C307.185822,535.385925 307.043579,533.726257 307.043427,532.066650 
	C307.032867,405.239563 307.033478,278.412476 307.033203,151.585373 
	C307.033203,149.285095 307.033203,146.984818 307.033203,144.130341 
	C315.751648,144.527878 323.978699,144.854156 332.200195,145.286041 
	C375.613708,147.566635 419.027527,149.841385 462.437805,152.182281 
	C495.865112,153.984848 529.284485,155.934479 562.712463,157.724655 
	C608.784302,160.191925 654.860596,162.575455 700.935425,164.985870 
	C746.344604,167.361465 791.755371,169.707169 837.163635,172.099564 
	C907.024963,175.780304 976.885193,179.481186 1046.744995,183.190491 
	C1083.001221,185.115555 1119.256226,187.065704 1155.510620,189.024933 
	C1203.574341,191.622375 1251.634766,194.282532 1299.700928,196.835312 
	C1340.113525,198.981644 1380.534912,200.959763 1420.947388,203.108307 
	C1474.340942,205.947006 1527.727661,208.908051 1581.120361,211.761932 
	C1621.035889,213.895462 1660.956421,215.934845 1700.874023,218.031830 
	C1720.168091,219.045410 1739.457520,220.152267 1758.755981,221.071335 
	C1761.926514,221.222336 1763.109009,222.249084 1763.096069,225.521301 
	C1762.973267,256.684937 1762.979614,287.849060 1762.385498,319.481934 
	C1755.408325,320.655731 1748.967529,321.173126 1742.587158,322.105225 
	C1729.984375,323.946259 1717.428955,326.110138 1704.828735,327.969727 
	C1687.805664,330.482117 1670.739258,332.704773 1653.728027,335.291840 
	C1638.037231,337.678101 1622.420898,340.556885 1606.723999,342.898315 
	C1589.223877,345.508698 1571.651978,347.633881 1554.144409,350.197144 
	C1534.996216,353.000641 1515.887939,356.076111 1496.758667,359.009644 
	C1481.883545,361.290802 1467.002441,363.532562 1452.125000,365.798615 
	C1440.840332,367.517395 1429.566040,369.307251 1418.271362,370.956543 
	C1403.377075,373.131439 1388.447021,375.068909 1373.569336,377.349792 
	C1358.043213,379.730133 1342.588379,382.582123 1327.052612,384.893951 
	C1305.459839,388.107117 1283.807495,390.918152 1262.205811,394.073425 
	C1245.182983,396.559875 1228.201538,399.329437 1211.195190,401.930511 
	C1195.656616,404.307098 1180.111694,406.643646 1164.564819,408.966400 
	C1147.225464,411.556915 1129.877075,414.087311 1112.539673,416.691071 
	C1101.090210,418.410522 1089.661743,420.270905 1078.208618,421.964386 
	C1063.157715,424.189728 1048.081299,426.243225 1033.036255,428.506439 
	C1024.048462,429.858490 1015.117310,431.587433 1006.128967,432.935577 
	C995.006775,434.603699 983.833801,435.935242 972.715149,437.625092 
	C957.346802,439.960815 942.033997,442.670135 926.651245,444.900940 
	C906.512573,447.821411 886.303894,450.261719 866.172485,453.229126 
	C850.465515,455.544373 834.862183,458.561951 819.156372,460.886047 
	C794.934448,464.470367 770.653015,467.649963 746.418030,471.148224 
	C724.153809,474.362000 701.910461,477.722809 679.671387,481.106934 
	C660.542297,484.017792 641.439636,487.102692 622.310791,490.015472 
	C610.046631,491.882965 597.745850,493.509888 585.480408,495.369476 
	C573.708618,497.154175 561.972046,499.171478 550.200378,500.956970 
	C534.993774,503.263397 519.762451,505.406952 504.551544,507.685394 
	C493.096893,509.401215 481.666290,511.277588 470.209229,512.976379 
	C455.159760,515.207764 440.086548,517.279480 425.039246,519.525146 
	C413.423859,521.258667 401.841766,523.215027 390.228424,524.962830 
	C375.022797,527.251282 359.802338,529.441589 344.585602,531.656067 
	C332.146301,533.466248 319.703186,535.250000 307.261719,537.045532 
z"/>
<path fill="#00E4FD" opacity="1.000000" stroke="none" 
	d="
M307.169189,537.500916 
	C319.703186,535.250000 332.146301,533.466248 344.585602,531.656067 
	C359.802338,529.441589 375.022797,527.251282 390.228424,524.962830 
	C401.841766,523.215027 413.423859,521.258667 425.039246,519.525146 
	C440.086548,517.279480 455.159760,515.207764 470.209229,512.976379 
	C481.666290,511.277588 493.096893,509.401215 504.551544,507.685394 
	C519.762451,505.406952 534.993774,503.263397 550.200378,500.956970 
	C561.972046,499.171478 573.708618,497.154175 585.480408,495.369476 
	C597.745850,493.509888 610.046631,491.882965 622.310791,490.015472 
	C641.439636,487.102692 660.542297,484.017792 679.671387,481.106934 
	C701.910461,477.722809 724.153809,474.362000 746.418030,471.148224 
	C770.653015,467.649963 794.934448,464.470367 819.156372,460.886047 
	C834.862183,458.561951 850.465515,455.544373 866.172485,453.229126 
	C886.303894,450.261719 906.512573,447.821411 926.651245,444.900940 
	C942.033997,442.670135 957.346802,439.960815 972.715149,437.625092 
	C983.833801,435.935242 995.006775,434.603699 1006.128967,432.935577 
	C1015.117310,431.587433 1024.048462,429.858490 1033.036255,428.506439 
	C1048.081299,426.243225 1063.157715,424.189728 1078.208618,421.964386 
	C1089.661743,420.270905 1101.090210,418.410522 1112.539673,416.691071 
	C1129.877075,414.087311 1147.225464,411.556915 1164.564819,408.966400 
	C1180.111694,406.643646 1195.656616,404.307098 1211.195190,401.930511 
	C1228.201538,399.329437 1245.182983,396.559875 1262.205811,394.073425 
	C1283.807495,390.918152 1305.459839,388.107117 1327.052612,384.893951 
	C1342.588379,382.582123 1358.043213,379.730133 1373.569336,377.349792 
	C1388.447021,375.068909 1403.377075,373.131439 1418.271362,370.956543 
	C1429.566040,369.307251 1440.840332,367.517395 1452.125000,365.798615 
	C1467.002441,363.532562 1481.883545,361.290802 1496.758667,359.009644 
	C1515.887939,356.076111 1534.996216,353.000641 1554.144409,350.197144 
	C1571.651978,347.633881 1589.223877,345.508698 1606.723999,342.898315 
	C1622.420898,340.556885 1638.037231,337.678101 1653.728027,335.291840 
	C1670.739258,332.704773 1687.805664,330.482117 1704.828735,327.969727 
	C1717.428955,326.110138 1729.984375,323.946259 1742.587158,322.105225 
	C1748.967529,321.173126 1755.408325,320.655731 1762.251221,319.926636 
	C1762.803345,320.886078 1763.033936,321.869690 1763.033813,322.853302 
	C1763.027588,369.926086 1763.001465,416.998840 1762.845459,464.520264 
	C1754.188721,466.121979 1745.656372,467.221954 1737.140991,468.439850 
	C1722.080566,470.593781 1707.024048,472.776886 1691.978027,475.028900 
	C1680.358521,476.768066 1668.766235,478.687836 1657.146606,480.425507 
	C1642.101807,482.675323 1627.036011,484.784058 1611.990967,487.031555 
	C1603.313965,488.327789 1594.674561,489.878265 1585.992432,491.136108 
	C1571.921265,493.174774 1557.814209,494.966705 1543.750366,497.052551 
	C1532.460571,498.726929 1521.227783,500.784363 1509.942017,502.488373 
	C1494.898071,504.759827 1479.817505,506.787140 1464.771362,509.044189 
	C1452.338867,510.909210 1439.939453,512.994751 1427.514526,514.911072 
	C1414.111450,516.978088 1400.699097,518.986572 1387.284058,520.975098 
	C1375.008057,522.794861 1362.718628,524.523010 1350.443359,526.347595 
	C1333.438232,528.875122 1316.434570,531.414124 1299.442383,534.026978 
	C1287.834595,535.811951 1276.266602,537.862305 1264.646240,539.556152 
	C1251.227295,541.512085 1237.754395,543.098694 1224.334229,545.047668 
	C1212.875854,546.711731 1201.471436,548.744202 1190.020630,550.464783 
	C1174.973877,552.725647 1159.895508,554.776245 1144.848877,557.037415 
	C1131.923340,558.979858 1119.034058,561.163330 1106.108887,563.108337 
	C1092.536133,565.150696 1078.938599,567.026611 1065.354614,568.993347 
	C1054.228760,570.604187 1043.101929,572.209656 1031.984253,573.875305 
	C1016.282166,576.227661 1000.586121,578.620117 984.891357,581.020447 
	C972.794678,582.870605 960.713623,584.824951 948.608093,586.614441 
	C933.719971,588.815369 918.802734,590.819946 903.918213,593.043945 
	C888.537720,595.342163 873.187927,597.845703 857.812439,600.178345 
	C842.443298,602.510071 827.054321,604.711121 811.682739,607.027161 
	C800.229126,608.752991 788.799011,610.636230 777.340820,612.330322 
	C764.086243,614.290039 750.797974,616.023804 737.550964,618.031372 
	C723.976135,620.088562 710.442017,622.413269 696.874023,624.517151 
	C686.740234,626.088501 676.580078,627.489258 666.433044,628.976135 
	C653.995361,630.798645 641.560608,632.640869 629.122070,634.457642 
	C614.067383,636.656677 599.006409,638.812256 583.955322,641.035339 
	C573.157593,642.630310 562.374451,644.323425 551.580017,645.940552 
	C535.714233,648.317322 519.841370,650.646851 503.976898,653.032043 
	C492.524017,654.753967 481.085724,656.573547 469.630188,658.277222 
	C454.249542,660.564697 438.847504,662.710327 423.475006,665.050354 
	C408.099396,667.391052 392.757111,669.950012 377.384308,672.309753 
	C367.578247,673.815002 357.746582,675.155701 347.920502,676.527954 
	C334.655365,678.380432 321.384644,680.192505 307.697723,682.030884 
	C307.199585,679.886047 307.050720,677.732300 307.050659,675.578491 
	C307.049255,629.704407 307.064545,583.830383 307.169189,537.500916 
z"/>
<path fill="#D0D0D0" opacity="1.000000" stroke="none" 
	d="
M450.634491,121.102646 
	C450.135864,121.302170 449.261536,121.450890 448.189697,121.377182 
	C448.747681,121.120445 449.503265,121.086136 450.634491,121.102646 
z"/>
</svg>