<svg version="1.1" id="Layer_1" xmlns="http://www.w3.org/2000/svg" xmlns:xlink="http://www.w3.org/1999/xlink" x="0px" y="0px"
	 width="100%" viewBox="0 0 1204 1204" enable-background="new 0 0 1204 1204" xml:space="preserve">
<path fill="#FEFEFE" opacity="1.000000" stroke="none" 
	d="
M1204.000000,0.999979 
	C1204.333374,1.166626 1204.943726,1.315892 1204.955566,1.502750 
	C1205.038940,2.830884 1205.000000,4.166667 1205.000000,5.500000 
	C1205.000000,405.333344 1205.000000,805.166687 1205.000000,1205.000000 
	C803.666687,1205.000000 402.333344,1205.000000 1.000000,1205.000000 
	C1.000000,803.666687 1.000000,402.333344 1.509528,1.303645 
	C2.059304,1.805779 2.099553,2.004269 2.089463,2.656182 
	C2.023874,3.442360 1.995256,3.775115 1.995254,4.107871 
	C1.992612,402.407227 1.991829,800.706604 1.991087,1199.005981 
	C1.991084,1200.585571 1.991084,1202.165283 1.991084,1203.734497 
	C403.042053,1203.734497 803.273499,1203.734497 1204.010864,1203.734497 
	C1204.010864,1201.513184 1204.010864,1199.559326 1204.010864,1197.605469 
	C1204.010864,802.638916 1204.011108,407.672302 1204.004395,12.705736 
	C1204.004272,9.208754 1203.906250,5.711773 1203.904541,1.912786 
	C1203.970093,1.407187 1203.984985,1.203594 1204.000000,0.999979 
z"/>
<path fill="#C2C2C2" opacity="1.000000" stroke="none" 
	d="
M1203.549072,1.000000 
	C1203.984985,1.203594 1203.970093,1.407187 1203.448853,1.848650 
	C1201.110962,2.050830 1199.279541,1.983890 1197.447998,1.983869 
	C801.341187,1.979457 405.234406,1.979367 9.127616,1.989096 
	C6.798343,1.989153 4.469073,2.128472 2.139802,2.202759 
	C2.099553,2.004269 2.059304,1.805779 2.009528,1.303645 
	C402.366058,1.000000 802.732117,1.000000 1203.549072,1.000000 
z"/>
<path fill="#050505" opacity="1.000000" stroke="none" 
	d="
M2.089463,2.656182 
	C4.469073,2.128472 6.798343,1.989153 9.127616,1.989096 
	C405.234406,1.979367 801.341187,1.979457 1197.447998,1.983869 
	C1199.279541,1.983890 1201.110962,2.050830 1203.398193,2.150654 
	C1203.906250,5.711773 1204.004272,9.208754 1204.004395,12.705736 
	C1204.011108,407.672302 1204.010864,802.638916 1204.010864,1197.605469 
	C1204.010864,1199.559326 1204.010864,1201.513184 1204.010864,1203.734497 
	C803.273499,1203.734497 403.042053,1203.734497 1.991084,1203.734497 
	C1.991084,1202.165283 1.991084,1200.585571 1.991087,1199.005981 
	C1.991829,800.706604 1.992612,402.407227 1.995254,4.107871 
	C1.995256,3.775115 2.023874,3.442360 2.089463,2.656182 
M702.500000,1201.957520 
	C868.904724,1201.957520 1035.309448,1201.957520 1201.587158,1201.957520 
	C1201.587158,802.234070 1201.587158,403.198303 1201.587158,4.200765 
	C802.332092,4.200765 403.433777,4.200765 4.402224,4.200765 
	C4.402224,403.484528 4.402224,802.515686 4.402224,1201.957520 
	C236.951172,1201.957520 469.225586,1201.957520 702.500000,1201.957520 
z"/>
<path fill="#ADADAD" opacity="1.000000" stroke="none" 
	d="
M702.000000,1201.957520 
	C469.225586,1201.957520 236.951172,1201.957520 4.402224,1201.957520 
	C4.402224,802.515686 4.402224,403.484528 4.402224,4.200765 
	C403.433777,4.200765 802.332092,4.200765 1201.587158,4.200765 
	C1201.587158,403.198303 1201.587158,802.234070 1201.587158,1201.957520 
	C1035.309448,1201.957520 868.904724,1201.957520 702.000000,1201.957520 
M1199.024414,816.500000 
	C1199.024414,548.522522 1199.024536,280.545013 1199.024170,12.567518 
	C1199.024170,5.969646 1199.021240,5.887300 1192.658447,5.975671 
	C1172.367798,6.257479 1152.077881,6.900128 1131.788086,6.885308 
	C771.858887,6.622411 411.929718,6.282302 52.000530,5.961080 
	C38.501633,5.949032 25.002695,5.948213 11.503836,5.973164 
	C9.756776,5.976393 8.010063,6.166912 6.005492,6.285983 
	C6.005492,8.568575 6.005489,10.223835 6.005491,11.879095 
	C6.006036,405.180573 6.006457,798.482056 6.007846,1191.783569 
	C6.007872,1199.050049 6.013036,1199.049927 13.240952,1199.049927 
	C287.718719,1199.049561 562.196472,1199.049438 836.674255,1199.048584 
	C955.497986,1199.048218 1074.321655,1199.026855 1193.145386,1199.120728 
	C1197.438843,1199.124023 1199.163574,1198.385742 1199.157471,1193.469360 
	C1199.003418,1068.146362 1199.029663,942.823181 1199.024414,816.500000 
z"/>
<path fill="#D6D6D6" opacity="1.000000" stroke="none" 
	d="
M1199.024414,817.000000 
	C1199.029663,942.823181 1199.003418,1068.146362 1199.157471,1193.469360 
	C1199.163574,1198.385742 1197.438843,1199.124023 1193.145386,1199.120728 
	C1074.321655,1199.026855 955.497986,1199.048218 836.674255,1199.048584 
	C562.196472,1199.049438 287.718719,1199.049561 13.240952,1199.049927 
	C6.013036,1199.049927 6.007872,1199.050049 6.007846,1191.783569 
	C6.006457,798.482056 6.006036,405.180573 6.005491,11.879095 
	C6.005489,10.223835 6.005492,8.568575 6.005492,6.285983 
	C8.010063,6.166912 9.756776,5.976393 11.503836,5.973164 
	C25.002695,5.948213 38.501633,5.949032 52.000530,5.961080 
	C411.929718,6.282302 771.858887,6.622411 1131.788086,6.885308 
	C1152.077881,6.900128 1172.367798,6.257479 1192.658447,5.975671 
	C1199.021240,5.887300 1199.024170,5.969646 1199.024170,12.567518 
	C1199.024536,280.545013 1199.024414,548.522522 1199.024414,817.000000 
M176.499954,1144.170044 
	C305.986786,1144.168457 435.473694,1144.104370 564.960388,1144.206543 
	C599.741455,1144.233887 634.541565,1143.009033 669.217041,1147.824585 
	C695.087708,1151.417603 721.140625,1153.699341 747.112976,1156.559204 
	C772.754578,1159.382690 798.398315,1162.187988 824.038818,1165.021973 
	C846.537170,1167.508789 869.031921,1170.027588 891.529053,1172.525879 
	C904.871155,1174.007568 918.214661,1175.476807 932.148438,1177.016846 
	C932.148438,1165.879883 932.148438,1155.142456 932.148438,1143.984863 
	C1003.130310,1143.984863 1073.557739,1143.984863 1144.020630,1143.984863 
	C1144.020630,783.025879 1144.020630,422.507538 1144.020630,62.098152 
	C783.253540,62.098152 422.736298,62.098152 62.300232,62.098152 
	C62.300232,422.990540 62.300232,783.530518 62.300232,1144.170166 
	C100.219650,1144.170166 137.859802,1144.170166 176.499954,1144.170044 
z"/>
<path fill="#030303" opacity="1.000000" stroke="none" 
	d="
M175.999939,1144.170166 
	C137.859802,1144.170166 100.219650,1144.170166 62.300232,1144.170166 
	C62.300232,783.530518 62.300232,422.990540 62.300232,62.098152 
	C422.736298,62.098152 783.253540,62.098152 1144.020630,62.098152 
	C1144.020630,422.507538 1144.020630,783.025879 1144.020630,1143.984863 
	C1073.557739,1143.984863 1003.130310,1143.984863 932.148438,1143.984863 
	C932.148438,1155.142456 932.148438,1165.879883 932.148438,1177.016846 
	C918.214661,1175.476807 904.871155,1174.007568 891.529053,1172.525879 
	C869.031921,1170.027588 846.537170,1167.508789 824.038818,1165.021973 
	C798.398315,1162.187988 772.754578,1159.382690 747.112976,1156.559204 
	C721.140625,1153.699341 695.087708,1151.417603 669.217041,1147.824585 
	C634.541565,1143.009033 599.741455,1144.233887 564.960388,1144.206543 
	C435.473694,1144.104370 305.986786,1144.168457 175.999939,1144.170166 
M65.846153,449.499939 
	C65.846153,679.776306 65.846153,910.052673 65.846153,1140.085815 
	C240.603134,1140.085815 414.911743,1140.085815 589.220337,1140.085815 
	C589.229370,1139.747681 589.238403,1139.409546 589.247498,1139.071411 
	C435.527557,1122.051636 281.807648,1105.031982 128.297333,1088.035522 
	C128.297333,764.294922 128.297333,441.233734 128.297333,118.283676 
	C444.998596,118.283676 761.393066,118.283676 1077.738770,118.283676 
	C1077.738770,441.638245 1077.738770,764.698547 1077.738770,1088.159912 
	C1029.053101,1088.159912 980.646729,1088.159912 932.206177,1088.159912 
	C932.206177,1105.825195 932.206177,1123.088379 932.206177,1140.459717 
	C1001.784485,1140.459717 1071.150391,1140.459717 1140.487305,1140.459717 
	C1140.487305,781.873901 1140.487305,423.660889 1140.487305,65.491913 
	C782.180847,65.491913 424.224274,65.491913 65.846153,65.491913 
	C65.846153,193.259109 65.846153,320.879517 65.846153,449.499939 
M670.500000,124.006310 
	C509.912872,124.006310 349.325745,124.006310 188.738632,124.006310 
	C188.728958,124.239655 188.719269,124.473007 188.709595,124.706352 
	C436.411346,152.128220 684.113098,179.550079 932.147156,207.008743 
	C932.147156,498.913055 932.147156,790.306641 932.147156,1081.699707 
	C978.934937,1081.699707 1025.328613,1081.699707 1071.694824,1081.699707 
	C1071.694824,762.357666 1071.694824,443.314148 1071.694824,124.006310 
	C938.092163,124.006310 804.796082,124.006310 670.500000,124.006310 
M798.220154,208.106537 
	C787.300049,206.948074 776.375427,205.830490 765.460754,204.622665 
	C742.800415,202.115082 720.148132,199.535522 697.487488,197.030685 
	C674.991882,194.544113 652.487000,192.142090 629.992065,189.649841 
	C604.357727,186.809753 578.732727,183.885345 553.098389,181.045258 
	C530.604004,178.553040 508.099701,176.150162 485.604492,173.665024 
	C459.639587,170.796631 433.681335,167.868317 407.717529,164.990128 
	C382.412476,162.184952 357.102509,159.424866 331.797668,156.617966 
	C306.161163,153.774246 280.529327,150.888474 254.893600,148.037613 
	C229.090729,145.168167 203.286301,142.312607 177.481125,139.463974 
	C166.459930,138.247345 155.435074,137.063751 144.368011,135.860382 
	C144.368011,448.815613 144.368011,761.331604 144.368011,1073.808472 
	C401.676056,1102.291016 658.635498,1130.734985 915.777100,1159.199097 
	C915.777100,846.257446 915.777100,533.865906 915.777100,221.230286 
	C896.942200,219.139755 878.292603,217.079498 859.645569,214.997421 
	C839.469360,212.744629 819.295410,210.471436 798.220154,208.106537 
z"/>
<path fill="#FEFEFE" opacity="1.000000" stroke="none" 
	d="
M65.846153,448.999939 
	C65.846153,320.879517 65.846153,193.259109 65.846153,65.491913 
	C424.224274,65.491913 782.180847,65.491913 1140.487305,65.491913 
	C1140.487305,423.660889 1140.487305,781.873901 1140.487305,1140.459717 
	C1071.150391,1140.459717 1001.784485,1140.459717 932.206177,1140.459717 
	C932.206177,1123.088379 932.206177,1105.825195 932.206177,1088.159912 
	C980.646729,1088.159912 1029.053101,1088.159912 1077.738770,1088.159912 
	C1077.738770,764.698547 1077.738770,441.638245 1077.738770,118.283676 
	C761.393066,118.283676 444.998596,118.283676 128.297333,118.283676 
	C128.297333,441.233734 128.297333,764.294922 128.297333,1088.035522 
	C281.807648,1105.031982 435.527557,1122.051636 589.247498,1139.071411 
	C589.238403,1139.409546 589.229370,1139.747681 589.220337,1140.085815 
	C414.911743,1140.085815 240.603134,1140.085815 65.846153,1140.085815 
	C65.846153,910.052673 65.846153,679.776306 65.846153,448.999939 
z"/>
<path fill="#D0D0D0" opacity="1.000000" stroke="none" 
	d="
M671.000000,124.006310 
	C804.796082,124.006310 938.092163,124.006310 1071.694824,124.006310 
	C1071.694824,443.314148 1071.694824,762.357666 1071.694824,1081.699707 
	C1025.328613,1081.699707 978.934937,1081.699707 932.147156,1081.699707 
	C932.147156,790.306641 932.147156,498.913055 932.147156,207.008743 
	C684.113098,179.550079 436.411346,152.128220 188.709595,124.706352 
	C188.719269,124.473007 188.728958,124.239655 188.738632,124.006310 
	C349.325745,124.006310 509.912872,124.006310 671.000000,124.006310 
z"/>
<path fill="#FCFDFD" opacity="1.000000" stroke="none" 
	d="
M798.670288,208.156830 
	C819.295410,210.471436 839.469360,212.744629 859.645569,214.997421 
	C878.292603,217.079498 896.942200,219.139755 915.777100,221.230286 
	C915.777100,533.865906 915.777100,846.257446 915.777100,1159.199097 
	C658.635498,1130.734985 401.676056,1102.291016 144.368011,1073.808472 
	C144.368011,761.331604 144.368011,448.815613 144.368011,135.860382 
	C155.435074,137.063751 166.459930,138.247345 177.481125,139.463974 
	C203.286301,142.312607 229.090729,145.168167 254.893600,148.037613 
	C280.529327,150.888474 306.161163,153.774246 331.797668,156.617966 
	C357.102509,159.424866 382.412476,162.184952 407.717529,164.990128 
	C433.681335,167.868317 459.639587,170.796631 485.604492,173.665024 
	C508.099701,176.150162 530.604004,178.553040 553.098389,181.045258 
	C578.732727,183.885345 604.357727,186.809753 629.992065,189.649841 
	C652.487000,192.142090 674.991882,194.544113 697.487488,197.030685 
	C720.148132,199.535522 742.800415,202.115082 765.460754,204.622665 
	C776.375427,205.830490 787.300049,206.948074 798.670288,208.156830 
M902.958801,336.122772 
	C902.958801,301.824005 902.958801,267.525269 902.958801,232.809464 
	C654.251221,205.277191 405.867737,177.780807 157.007767,150.231659 
	C157.007767,152.538651 157.007767,154.342987 157.007767,156.147339 
	C157.007812,291.938049 157.007202,427.728760 157.014694,563.519470 
	C157.014786,565.348755 157.116821,567.178040 157.032227,569.933533 
	C157.023666,608.175598 156.999023,646.417603 157.015335,684.659668 
	C157.020950,697.791016 157.128998,710.922424 157.043625,724.973938 
	C157.043625,837.246643 157.043625,949.519348 157.043625,1062.193359 
	C405.840332,1089.736694 654.226990,1117.234497 902.987244,1144.773804 
	C902.987244,1142.425537 902.987244,1140.607422 902.987244,1138.789307 
	C902.986511,926.507385 902.986389,714.225464 902.978699,501.943512 
	C902.978577,498.947571 902.882690,495.951630 902.967896,492.037933 
	C902.976013,459.373169 903.005615,426.708435 902.984131,394.043671 
	C902.971619,375.048462 902.877136,356.053345 902.958801,336.122772 
z"/>
<path fill="#01BFD5" opacity="1.000000" stroke="none" 
	d="
M902.831543,492.955688 
	C902.882690,495.951630 902.978577,498.947571 902.978699,501.943512 
	C902.986389,714.225464 902.986511,926.507385 902.987244,1138.789307 
	C902.987244,1140.607422 902.987244,1142.425537 902.987244,1144.773804 
	C654.226990,1117.234497 405.840332,1089.736694 157.043625,1062.193359 
	C157.043625,949.519348 157.043625,837.246643 157.512909,724.501831 
	C163.233109,722.555054 168.519165,721.194275 173.728745,719.585754 
	C194.008469,713.324219 214.258438,706.966309 234.530212,700.678894 
	C250.186081,695.823120 265.876373,691.077698 281.518158,686.177307 
	C300.660278,680.180237 319.746307,674.003723 338.896576,668.033081 
	C356.907166,662.417908 375.000671,657.067993 393.001099,651.420898 
	C411.815521,645.518616 430.527222,639.288330 449.348969,633.409912 
	C467.818329,627.641479 486.396027,622.220398 504.878296,616.492371 
	C527.806946,609.386353 550.682068,602.108093 573.588257,594.929504 
	C589.537659,589.931091 605.514709,585.020813 621.453308,579.988342 
	C639.134338,574.405640 656.757385,568.638428 674.457458,563.117371 
	C693.577026,557.153442 712.790100,551.488647 731.901123,545.497986 
	C755.307495,538.160706 778.616211,530.511414 802.029907,523.197815 
	C827.318604,515.298523 852.664124,507.579376 878.018311,499.892090 
	C886.235046,497.400787 894.557434,495.257904 902.831543,492.955688 
z"/>
<path fill="#01BFD5" opacity="1.000000" stroke="none" 
	d="
M157.171265,569.007324 
	C157.116821,567.178040 157.014786,565.348755 157.014694,563.519470 
	C157.007202,427.728760 157.007812,291.938049 157.007767,156.147339 
	C157.007767,154.342987 157.007767,152.538651 157.007767,150.231659 
	C405.867737,177.780807 654.251221,205.277191 902.958801,232.809464 
	C902.958801,267.525269 902.958801,301.824005 902.559021,336.741119 
	C889.678772,341.251495 877.210754,345.184052 864.714783,349.025574 
	C847.934265,354.184235 831.108337,359.196228 814.345642,364.411713 
	C795.684326,370.217987 777.081848,376.213104 758.435059,382.066528 
	C745.799255,386.033051 733.121521,389.866241 720.480103,393.815094 
	C706.405090,398.211761 692.363892,402.716919 678.281860,407.090729 
	C666.265259,410.822968 654.181152,414.339447 642.184143,418.132477 
	C632.551636,421.177917 623.052185,424.645905 613.408936,427.654877 
	C599.674072,431.940613 585.822754,435.853577 572.092102,440.152344 
	C554.703308,445.596405 537.421631,451.382874 520.027588,456.809540 
	C501.704041,462.526245 483.276489,467.908905 464.942108,473.591553 
	C445.013550,479.768219 425.149780,486.153625 405.238922,492.387909 
	C391.496704,496.690765 377.701599,500.825165 363.967804,505.154419 
	C346.434265,510.681427 328.969055,516.426147 311.418396,521.897461 
	C293.388672,527.518127 275.281799,532.890808 257.227509,538.433411 
	C246.984879,541.577820 236.780136,544.845642 226.558273,548.057739 
	C211.542984,552.776001 196.553909,557.580139 181.501785,562.177856 
	C173.447723,564.638000 165.284958,566.742371 157.171265,569.007324 
z"/>
<path fill="#00E4FD" opacity="1.000000" stroke="none" 
	d="
M157.101746,569.470459 
	C165.284958,566.742371 173.447723,564.638000 181.501785,562.177856 
	C196.553909,557.580139 211.542984,552.776001 226.558273,548.057739 
	C236.780136,544.845642 246.984879,541.577820 257.227509,538.433411 
	C275.281799,532.890808 293.388672,527.518127 311.418396,521.897461 
	C328.969055,516.426147 346.434265,510.681427 363.967804,505.154419 
	C377.701599,500.825165 391.496704,496.690765 405.238922,492.387909 
	C425.149780,486.153625 445.013550,479.768219 464.942108,473.591553 
	C483.276489,467.908905 501.704041,462.526245 520.027588,456.809540 
	C537.421631,451.382874 554.703308,445.596405 572.092102,440.152344 
	C585.822754,435.853577 599.674072,431.940613 613.408936,427.654877 
	C623.052185,424.645905 632.551636,421.177917 642.184143,418.132477 
	C654.181152,414.339447 666.265259,410.822968 678.281860,407.090729 
	C692.363892,402.716919 706.405090,398.211761 720.480103,393.815094 
	C733.121521,389.866241 745.799255,386.033051 758.435059,382.066528 
	C777.081848,376.213104 795.684326,370.217987 814.345642,364.411713 
	C831.108337,359.196228 847.934265,354.184235 864.714783,349.025574 
	C877.210754,345.184052 889.678772,341.251495 902.489380,337.208801 
	C902.877136,356.053345 902.971619,375.048462 902.984131,394.043671 
	C903.005615,426.708435 902.976013,459.373169 902.899719,492.496796 
	C894.557434,495.257904 886.235046,497.400787 878.018311,499.892090 
	C852.664124,507.579376 827.318604,515.298523 802.029907,523.197815 
	C778.616211,530.511414 755.307495,538.160706 731.901123,545.497986 
	C712.790100,551.488647 693.577026,557.153442 674.457458,563.117371 
	C656.757385,568.638428 639.134338,574.405640 621.453308,579.988342 
	C605.514709,585.020813 589.537659,589.931091 573.588257,594.929504 
	C550.682068,602.108093 527.806946,609.386353 504.878296,616.492371 
	C486.396027,622.220398 467.818329,627.641479 449.348969,633.409912 
	C430.527222,639.288330 411.815521,645.518616 393.001099,651.420898 
	C375.000671,657.067993 356.907166,662.417908 338.896576,668.033081 
	C319.746307,674.003723 300.660278,680.180237 281.518158,686.177307 
	C265.876373,691.077698 250.186081,695.823120 234.530212,700.678894 
	C214.258438,706.966309 194.008469,713.324219 173.728745,719.585754 
	C168.519165,721.194275 163.233109,722.555054 157.586212,724.041748 
	C157.128998,710.922424 157.020950,697.791016 157.015335,684.659668 
	C156.999023,646.417603 157.023666,608.175598 157.101746,569.470459 
z"/>
</svg>