<svg version="1.1" id="Layer_1" xmlns="http://www.w3.org/2000/svg" xmlns:xlink="http://www.w3.org/1999/xlink" x="0px" y="0px"
	 width="100%" viewBox="0 0 2752 1132" enable-background="new 0 0 2752 1132" xml:space="preserve">
<path fill="#E6E6E6" opacity="1.000000" stroke="none" 
	d="
M8.000000,1133.000000 
	C5.666871,1133.000000 3.333741,1133.000000 1.000459,1133.000000 
	C1.000306,755.699890 1.000306,378.399719 1.000306,1.049797 
	C918.219910,1.049797 1835.439819,1.049797 2752.829834,1.049797 
	C2752.829834,378.333282 2752.829834,755.666626 2752.829834,1133.000000 
	C2750.606201,1133.000000 2748.272949,1133.000000 2745.470947,1132.798584 
	C2745.001953,1132.597046 2744.964844,1132.195923 2745.399902,1132.120850 
	C2750.555420,1132.790649 2750.268799,1129.706543 2750.268555,1126.512451 
	C2750.239746,758.517883 2750.242676,390.523315 2750.243652,22.528767 
	C2750.243652,18.195621 2750.037354,13.850151 2750.300049,9.533085 
	C2750.524170,5.848187 2749.294922,4.694316 2745.518066,4.702568 
	C2682.520020,4.840211 2619.521484,4.863003 2556.523193,4.863390 
	C1709.869019,4.868598 863.214905,4.866339 16.560722,4.865933 
	C12.786265,4.865932 9.011807,4.865933 4.923672,4.865933 
	C4.923672,8.124106 4.923710,10.742564 4.923669,13.361022 
	C4.917946,380.855591 4.912602,748.350159 4.902192,1115.844727 
	C4.902074,1120.010986 5.010093,1124.188599 4.737989,1128.339355 
	C4.567044,1130.946899 5.521255,1132.059937 7.992069,1132.369385 
	C7.996500,1132.579590 8.000000,1133.000000 8.000000,1133.000000 
z"/>
<path fill="#D8D8D8" opacity="1.000000" stroke="none" 
	d="
M2744.964844,1132.195923 
	C2744.964844,1132.195923 2745.001953,1132.597046 2745.000977,1132.798584 
	C1832.958984,1133.000000 920.917969,1133.000000 8.438477,1133.000000 
	C8.000000,1133.000000 7.996500,1132.579590 8.496146,1132.285034 
	C12.035910,1131.449707 15.076028,1130.908936 18.196577,1130.357056 
	C68.940277,1130.349976 119.603546,1130.357788 170.266815,1130.357788 
	C967.222778,1130.358643 1764.178833,1130.357666 2561.134766,1130.387573 
	C2563.597168,1130.387695 2566.059570,1130.833496 2568.569336,1131.226074 
	C2568.616943,1131.381226 2568.927490,1131.475464 2569.269531,1131.723389 
	C2612.902832,1131.996582 2656.194336,1132.021973 2699.962891,1132.020752 
	C2702.602783,1131.985229 2704.781738,1132.120850 2706.917236,1131.875000 
	C2707.525879,1131.804932 2708.006836,1130.627075 2708.961426,1130.102539 
	C2720.116699,1130.164795 2730.857178,1130.082031 2741.654297,1130.043213 
	C2741.711426,1130.087280 2741.874268,1130.134155 2742.102539,1130.790283 
	C2743.208984,1131.696289 2744.086914,1131.946045 2744.964844,1132.195923 
z"/>
<path fill="#101010" opacity="1.000000" stroke="none" 
	d="
M18.116146,1130.368164 
	C15.076028,1130.908936 12.035910,1131.449707 8.491714,1132.074951 
	C5.521255,1132.059937 4.567044,1130.946899 4.737989,1128.339355 
	C5.010093,1124.188599 4.902074,1120.010986 4.902192,1115.844727 
	C4.912602,748.350159 4.917946,380.855591 4.923669,13.361022 
	C4.923710,10.742564 4.923672,8.124106 4.923672,4.865933 
	C9.011807,4.865933 12.786265,4.865932 16.560722,4.865933 
	C863.214905,4.866339 1709.869019,4.868598 2556.523193,4.863390 
	C2619.521484,4.863003 2682.520020,4.840211 2745.518066,4.702568 
	C2749.294922,4.694316 2750.524170,5.848187 2750.300049,9.533085 
	C2750.037354,13.850151 2750.243652,18.195621 2750.243652,22.528767 
	C2750.242676,390.523315 2750.239746,758.517883 2750.268555,1126.512451 
	C2750.268799,1129.706543 2750.555420,1132.790649 2745.399902,1132.120850 
	C2744.086914,1131.946045 2743.208984,1131.696289 2742.746094,1130.786133 
	C2743.989014,1128.801880 2745.380371,1127.538452 2745.530518,1126.141602 
	C2745.866699,1123.015625 2745.557861,1119.822998 2745.557861,1116.657593 
	C2745.553711,752.258301 2745.554443,387.858978 2745.546387,23.459665 
	C2745.546387,18.963949 2745.434570,14.468235 2745.590088,9.770740 
	C2745.758789,8.839036 2745.712158,8.109114 2745.665771,7.379176 
	C2745.111572,7.584199 2744.557373,7.789236 2743.634033,7.906231 
	C2741.833252,7.597075 2740.401367,7.375961 2738.507324,7.086855 
	C2720.436523,7.028927 2702.827881,7.029191 2685.219482,7.051221 
	C2654.491211,7.089668 2623.763184,7.141513 2592.598145,7.073915 
	C2589.762207,7.036968 2587.363525,7.113848 2584.503418,7.116554 
	C2562.032471,7.090841 2540.022217,7.139300 2517.757080,7.091917 
	C2517.332031,7.059969 2517.161865,7.123865 2516.528564,7.113701 
	C2417.904785,7.031485 2319.744141,7.001227 2221.583252,7.019143 
	C1869.608765,7.083383 1517.634399,7.163032 1165.659912,7.244190 
	C1158.005005,7.245955 1150.349976,7.335575 1142.695068,7.357418 
	C1141.584839,7.168324 1140.474609,7.006025 1138.894287,6.916780 
	C1137.476074,6.945899 1136.528076,6.901966 1135.569824,6.890377 
	C1135.559692,6.922722 1135.666382,6.984360 1135.177124,7.000547 
	C1128.527466,7.091087 1122.366943,7.230291 1116.206543,7.230495 
	C798.803467,7.241013 481.400452,7.240193 163.997391,7.237472 
	C154.009857,7.237387 144.022324,7.204708 133.621735,7.074261 
	C131.792572,7.047291 130.376465,7.133284 128.499466,7.145683 
	C89.708023,7.097440 51.377460,7.122790 12.800422,7.020549 
	C12.370474,6.916900 12.187002,6.940842 11.752003,6.861983 
	C11.326052,6.808086 11.151628,6.856990 10.650890,6.914591 
	C10.201887,7.278722 10.079197,7.634158 9.933743,8.390303 
	C9.992534,9.851176 10.074090,10.911342 10.007016,12.421924 
	C9.841763,15.537223 9.810596,18.202105 9.810579,20.866985 
	C9.808347,383.590393 9.807352,746.313843 9.817238,1109.037231 
	C9.817410,1115.360107 9.950347,1121.683105 9.900570,1128.361694 
	C12.558585,1129.267578 15.337364,1129.817871 18.116146,1130.368164 
z"/>
<path fill="#C6C6C6" opacity="1.000000" stroke="none" 
	d="
M18.196575,1130.356934 
	C15.337364,1129.817871 12.558585,1129.267578 10.266815,1128.369629 
	C11.857325,1127.673828 12.960826,1127.325562 14.528954,1126.976562 
	C16.660273,1126.983032 18.326965,1126.996704 19.993658,1126.996704 
	C918.083557,1126.996826 1816.173462,1126.995972 2714.263428,1126.996338 
	C2722.514893,1126.996338 2730.766602,1127.014404 2739.222656,1127.272705 
	C2740.150391,1128.347290 2740.873779,1129.173218 2741.597412,1129.999268 
	C2730.857178,1130.082031 2720.116699,1130.164795 2708.473389,1130.134277 
	C2705.315674,1130.034912 2703.049805,1129.931885 2700.815430,1130.152466 
	C2700.314697,1130.202271 2699.926025,1131.385742 2699.485596,1132.047241 
	C2656.194336,1132.021973 2612.902832,1131.996582 2569.724121,1131.929688 
	C2570.220703,1131.440308 2570.604736,1130.992554 2570.988770,1130.544922 
	C2570.166504,1130.720337 2569.344238,1130.895874 2568.521973,1131.071167 
	C2566.059570,1130.833496 2563.597168,1130.387695 2561.134766,1130.387573 
	C1764.178833,1130.357666 967.222778,1130.358643 170.266815,1130.357788 
	C119.603546,1130.357788 68.940277,1130.349976 18.196575,1130.356934 
z"/>
<path fill="#BABABA" opacity="1.000000" stroke="none" 
	d="
M2741.654297,1130.043213 
	C2740.873779,1129.173218 2740.150391,1128.347290 2739.469727,1127.052490 
	C2739.659668,1125.725342 2739.806885,1124.867065 2740.223633,1123.776855 
	C2739.999023,1116.581909 2739.080322,1109.619385 2739.073730,1102.655884 
	C2738.979492,1005.352173 2739.011475,908.048401 2739.009277,810.744568 
	C2739.003662,545.491760 2738.996582,280.238892 2738.988770,14.549684 
	C2738.981201,11.793813 2738.975342,9.474323 2738.969727,7.154840 
	C2740.401367,7.375961 2741.833252,7.597075 2743.645752,8.257121 
	C2744.476074,9.121549 2744.925537,9.547046 2745.375000,9.972531 
	C2745.434570,14.468235 2745.546387,18.963949 2745.546387,23.459665 
	C2745.554443,387.858978 2745.553711,752.258301 2745.557861,1116.657593 
	C2745.557861,1119.822998 2745.866699,1123.015625 2745.530518,1126.141602 
	C2745.380371,1127.538452 2743.989014,1128.801880 2742.517578,1130.129883 
	C2741.874268,1130.134155 2741.711426,1130.087280 2741.654297,1130.043213 
z"/>
<path fill="#101010" opacity="1.000000" stroke="none" 
	d="
M2699.962891,1132.020752 
	C2699.926025,1131.385742 2700.314697,1130.202271 2700.815430,1130.152466 
	C2703.049805,1129.931885 2705.315674,1130.034912 2708.058350,1129.989136 
	C2708.006836,1130.627075 2707.525879,1131.804932 2706.917236,1131.875000 
	C2704.781738,1132.120850 2702.602783,1131.985229 2699.962891,1132.020752 
z"/>
<path fill="#D8D8D8" opacity="1.000000" stroke="none" 
	d="
M2739.954102,1124.008789 
	C2739.806885,1124.867065 2739.659668,1125.725342 2739.265137,1126.803955 
	C2730.766602,1127.014404 2722.514893,1126.996338 2714.263428,1126.996338 
	C1816.173462,1126.995972 918.083557,1126.996826 19.993658,1126.996704 
	C18.326965,1126.996704 16.660273,1126.983032 14.474522,1126.512451 
	C13.924981,1123.383179 13.867825,1120.717285 13.867799,1118.051392 
	C13.864200,752.749329 13.865141,387.447235 13.859844,22.145140 
	C13.859796,18.813463 13.778790,15.481786 13.814768,11.779871 
	C13.611601,9.989135 13.329249,8.568638 13.046897,7.148141 
	C51.377460,7.122790 89.708023,7.097440 128.584717,7.484475 
	C130.765488,7.660316 132.400146,7.423769 134.034790,7.187224 
	C144.022324,7.204708 154.009857,7.237387 163.997391,7.237472 
	C481.400452,7.240193 798.803467,7.241013 1116.206543,7.230495 
	C1122.366943,7.230291 1128.527466,7.091087 1135.115967,6.938895 
	C1135.544067,6.861056 1135.579956,6.858033 1135.579956,6.858033 
	C1136.528076,6.901966 1137.476074,6.945899 1139.113403,7.090177 
	C1140.766724,7.255085 1141.730957,7.319649 1142.695068,7.384212 
	C1150.349976,7.335575 1158.005005,7.245955 1165.659912,7.244190 
	C1517.634399,7.163032 1869.608765,7.083383 2221.583252,7.019143 
	C2319.744141,7.001227 2417.904785,7.031485 2516.618408,7.273766 
	C2517.451416,7.401186 2517.731934,7.294482 2518.012207,7.187768 
	C2540.022217,7.139300 2562.032471,7.090841 2584.598389,7.482645 
	C2587.929932,9.272858 2590.692383,10.480384 2593.034912,7.187742 
	C2623.763184,7.141513 2654.491211,7.089668 2685.219482,7.051221 
	C2702.827881,7.029191 2720.436523,7.028927 2738.507324,7.086848 
	C2738.975342,9.474323 2738.981201,11.793813 2738.598633,14.654041 
	C2737.812988,17.369370 2737.068848,19.543911 2737.068359,21.718565 
	C2737.017334,385.127747 2737.019531,748.536987 2737.019287,1111.946167 
	C2737.019287,1114.445557 2736.657959,1117.017212 2737.140869,1119.419434 
	C2737.473145,1121.070923 2738.975098,1122.487305 2739.954102,1124.008789 
M2129.092773,1106.193359 
	C2129.249756,1106.095337 2129.406982,1105.997192 2130.444824,1105.920654 
	C2131.293945,1104.816162 2132.841309,1103.734009 2132.877441,1102.603394 
	C2133.100098,1095.631958 2133.159180,1088.641602 2132.842529,1081.677124 
	C2132.770508,1080.092285 2131.006592,1078.584473 2130.495117,1076.624878 
	C2130.751953,1076.290039 2131.008789,1075.955078 2132.267578,1075.874878 
	C2133.598633,1075.918457 2134.929688,1075.999878 2136.260742,1075.999878 
	C2284.513184,1075.998535 2432.765381,1075.993286 2581.017822,1075.973633 
	C2585.005615,1075.973145 2588.993652,1075.817749 2593.900635,1075.941284 
	C2600.217285,1075.926880 2606.534180,1075.912354 2613.677979,1076.034546 
	C2618.799805,1076.172119 2617.881592,1072.455811 2617.881592,1069.384644 
	C2617.880371,739.587524 2617.871094,409.790375 2617.863525,79.993240 
	C2617.863281,74.160568 2618.070068,68.317551 2617.756104,62.502323 
	C2617.673584,60.971916 2616.002930,59.527237 2614.435303,58.058529 
	C2614.229248,58.092487 2614.023193,58.126442 2613.128906,58.162750 
	C2612.442139,58.203064 2611.755615,58.243374 2610.678467,57.660564 
	C2609.421387,57.844936 2608.164551,58.029305 2606.281250,58.191116 
	C2605.863770,58.182545 2605.446045,58.173977 2604.615479,57.588043 
	C2603.407471,58.053936 2602.199463,58.519829 2600.055664,59.011131 
	C2586.791748,59.026962 2573.527588,59.056454 2560.263672,59.056648 
	C2152.006836,59.062584 1743.750122,59.069702 1335.493408,59.067993 
	C940.900940,59.066345 546.308472,59.055256 151.716034,59.047066 
	C146.492401,59.046959 141.268784,59.030487 135.279846,59.154552 
	C134.523560,63.095802 133.106277,67.036842 133.105057,70.978333 
	C133.003067,400.834442 133.011002,730.690613 133.010651,1060.546753 
	C133.010651,1064.878174 132.792236,1069.226929 133.139572,1073.530029 
	C133.238907,1074.761108 134.970947,1075.860474 136.542969,1077.529663 
	C138.431137,1077.134277 140.319305,1076.739014 143.009674,1076.383057 
	C153.497223,1076.268066 163.984833,1076.049316 174.472336,1076.053467 
	C348.415344,1076.122681 522.358398,1076.294800 696.301392,1076.291382 
	C904.068542,1076.287231 1111.835693,1076.145996 1319.602783,1076.038696 
	C1340.074829,1076.028076 1360.546997,1075.839600 1381.930298,1075.941162 
	C1397.195190,1075.960815 1412.461182,1075.871582 1427.724609,1076.029907 
	C1443.827637,1076.197144 1459.927979,1076.600342 1476.372070,1077.151733 
	C1476.916138,1077.105347 1477.460083,1077.058960 1478.830566,1077.260986 
	C1492.901489,1077.791626 1506.972534,1078.322144 1521.475098,1079.130005 
	C1522.315674,1079.083618 1523.156250,1079.037354 1524.827759,1079.228516 
	C1559.934692,1080.832886 1595.041382,1082.443726 1630.148682,1084.039673 
	C1662.259277,1085.499634 1694.371338,1086.926025 1726.481445,1088.398315 
	C1763.422241,1090.092163 1800.359497,1091.861694 1837.301636,1093.522217 
	C1874.075195,1095.175293 1910.854492,1096.700806 1947.627808,1098.358643 
	C1956.426147,1098.755371 1965.210815,1099.455200 1974.206055,1100.795532 
	C1979.826904,1100.790894 1985.447876,1100.786377 1991.704956,1100.548706 
	C1992.131470,1100.661743 1992.557861,1100.774902 1993.108032,1101.624023 
	C1994.769043,1101.684204 1996.429932,1101.744263 1999.011230,1101.868896 
	C2004.009766,1101.931885 2009.008179,1101.994873 2014.159668,1102.768433 
	C2015.809570,1102.769287 2017.459595,1102.770020 2020.030640,1102.815674 
	C2025.683228,1102.849365 2031.335938,1102.883179 2037.139893,1103.681274 
	C2039.462769,1103.710938 2041.785522,1103.740601 2045.020020,1103.811523 
	C2049.007324,1103.832764 2052.994629,1103.854004 2057.135986,1104.654175 
	C2059.792725,1104.695068 2062.449463,1104.735962 2066.028809,1104.820923 
	C2072.019287,1104.880493 2078.009521,1104.940063 2084.151123,1105.735718 
	C2086.136719,1105.748047 2088.122559,1105.760376 2090.928711,1105.817749 
	C2092.290039,1105.922729 2093.651611,1106.027710 2095.095947,1106.690186 
	C2095.409668,1106.983521 2095.723633,1107.276855 2096.037354,1107.570190 
	C2096.353516,1107.094727 2096.669678,1106.619263 2097.777832,1105.986328 
	C2098.854004,1106.008789 2099.930176,1106.031372 2101.189453,1106.812378 
	C2104.165283,1106.794556 2107.141113,1106.776611 2111.033447,1106.816040 
	C2115.676514,1106.843628 2120.319336,1106.871216 2125.069336,1107.582642 
	C2126.940918,1109.929932 2128.241699,1109.659912 2129.092773,1106.193359 
z"/>
<path fill="#A4A4A4" opacity="1.000000" stroke="none" 
	d="
M13.735582,12.150110 
	C13.778790,15.481786 13.859796,18.813463 13.859844,22.145140 
	C13.865141,387.447235 13.864200,752.749329 13.867799,1118.051392 
	C13.867825,1120.717285 13.924981,1123.383179 14.009895,1126.513184 
	C12.960826,1127.325562 11.857325,1127.673828 10.387578,1128.013916 
	C9.950347,1121.683105 9.817410,1115.360107 9.817238,1109.037231 
	C9.807352,746.313843 9.808347,383.590393 9.810579,20.866985 
	C9.810596,18.202105 9.841763,15.537223 10.369196,12.415833 
	C11.831864,12.022919 12.783724,12.086514 13.735582,12.150110 
z"/>
<path fill="#BABABA" opacity="1.000000" stroke="none" 
	d="
M13.814768,11.779871 
	C12.783724,12.086514 11.831864,12.022919 10.517826,11.965415 
	C10.074090,10.911342 9.992534,9.851176 10.195686,8.406981 
	C10.655113,8.015801 10.829833,8.008655 11.222196,7.883279 
	C11.709823,7.556124 11.897720,7.289368 12.003531,6.964784 
	C12.187002,6.940842 12.370474,6.916900 12.800422,7.020549 
	C13.329249,8.568638 13.611601,9.989135 13.814768,11.779871 
z"/>
<path fill="#BABABA" opacity="1.000000" stroke="none" 
	d="
M2592.598145,7.073915 
	C2590.692383,10.480384 2587.929932,9.272858 2585.059570,7.556818 
	C2587.363525,7.113848 2589.762207,7.036968 2592.598145,7.073915 
z"/>
<path fill="#BABABA" opacity="1.000000" stroke="none" 
	d="
M133.621735,7.074261 
	C132.400146,7.423769 130.765488,7.660316 129.045593,7.558069 
	C130.376465,7.133284 131.792572,7.047291 133.621735,7.074261 
z"/>
<path fill="#2E2E2E" opacity="1.000000" stroke="none" 
	d="
M1142.695068,7.357419 
	C1141.730957,7.319649 1140.766724,7.255085 1139.583496,7.017123 
	C1140.474609,7.006025 1141.584839,7.168324 1142.695068,7.357419 
z"/>
<path fill="#6E6E6E" opacity="1.000000" stroke="none" 
	d="
M2745.590088,9.770751 
	C2744.925537,9.547046 2744.476074,9.121549 2744.014893,8.345162 
	C2744.557373,7.789236 2745.111572,7.584199 2745.665771,7.379176 
	C2745.712158,8.109114 2745.758789,8.839036 2745.590088,9.770751 
z"/>
<path fill="#2E2E2E" opacity="1.000000" stroke="none" 
	d="
M1135.569824,6.890378 
	C1135.579956,6.858033 1135.544067,6.861056 1135.605225,6.922708 
	C1135.666382,6.984360 1135.559692,6.922722 1135.569824,6.890378 
z"/>
<path fill="#BABABA" opacity="1.000000" stroke="none" 
	d="
M2517.757080,7.091927 
	C2517.731934,7.294482 2517.451416,7.401186 2517.081299,7.347824 
	C2517.161865,7.123865 2517.332031,7.059969 2517.757080,7.091927 
z"/>
<path fill="#BABABA" opacity="1.000000" stroke="none" 
	d="
M11.752003,6.861983 
	C11.897720,7.289368 11.709823,7.556124 11.210217,7.609491 
	C10.979465,7.271252 10.978334,7.088573 10.977204,6.905894 
	C11.151628,6.856990 11.326052,6.808086 11.752003,6.861983 
z"/>
<path fill="#A4A4A4" opacity="1.000000" stroke="none" 
	d="
M10.650890,6.914591 
	C10.978334,7.088573 10.979465,7.271252 10.992575,7.727719 
	C10.829833,8.008655 10.655113,8.015801 10.218451,8.006271 
	C10.079197,7.634158 10.201887,7.278722 10.650890,6.914591 
z"/>
<path fill="#2A2A2A" opacity="1.000000" stroke="none" 
	d="
M2568.569336,1131.226318 
	C2569.344238,1130.895874 2570.166504,1130.720337 2570.988770,1130.544922 
	C2570.604736,1130.992554 2570.220703,1131.440308 2569.382080,1131.681763 
	C2568.927490,1131.475464 2568.616943,1131.381226 2568.569336,1131.226318 
z"/>
<path fill="#C6C6C6" opacity="1.000000" stroke="none" 
	d="
M2740.223877,1123.776855 
	C2738.975098,1122.487305 2737.473145,1121.070923 2737.140869,1119.419434 
	C2736.657959,1117.017212 2737.019287,1114.445557 2737.019287,1111.946167 
	C2737.019531,748.536987 2737.017334,385.127747 2737.068359,21.718565 
	C2737.068848,19.543911 2737.812988,17.369370 2738.600098,15.090422 
	C2738.996582,280.238892 2739.003662,545.491760 2739.009277,810.744568 
	C2739.011475,908.048401 2738.979492,1005.352173 2739.073730,1102.655884 
	C2739.080322,1109.619385 2739.999023,1116.581909 2740.223877,1123.776855 
z"/>
<path fill="#050505" opacity="1.000000" stroke="none" 
	d="
M2592.981445,1075.734619 
	C2588.993652,1075.817749 2585.005615,1075.973145 2581.017822,1075.973633 
	C2432.765381,1075.993286 2284.513184,1075.998535 2136.260742,1075.999878 
	C2134.929688,1075.999878 2133.598633,1075.918457 2131.483154,1075.579102 
	C2129.783203,1076.379639 2128.095215,1077.461670 2128.074219,1078.575073 
	C2127.899170,1087.851929 2128.031250,1097.134399 2127.788086,1106.571411 
	C2126.657471,1106.784668 2125.810059,1106.841797 2124.962402,1106.898926 
	C2120.319336,1106.871216 2115.676514,1106.843628 2110.356201,1106.419312 
	C2106.788086,1106.033081 2103.897217,1106.043457 2101.006348,1106.053833 
	C2099.930176,1106.031372 2098.854004,1106.008789 2097.055908,1105.993408 
	C2095.893555,1106.044556 2095.453369,1106.088623 2095.012939,1106.132812 
	C2093.651611,1106.027710 2092.290039,1105.922729 2090.311035,1105.444946 
	C2087.795654,1105.047974 2085.897949,1105.023804 2084.000000,1104.999634 
	C2078.009521,1104.940063 2072.019287,1104.880493 2065.350830,1104.436157 
	C2062.109131,1103.992676 2059.545654,1103.933960 2056.981934,1103.875244 
	C2052.994629,1103.854004 2049.007324,1103.832764 2044.341431,1103.442749 
	C2041.438110,1103.021729 2039.213257,1102.969360 2036.988525,1102.916992 
	C2031.335938,1102.883179 2025.683228,1102.849365 2019.373535,1102.444824 
	C2017.146606,1102.068726 2015.576660,1102.063354 2014.006714,1102.057983 
	C2009.008179,1101.994873 2004.009766,1101.931885 1998.359863,1101.489258 
	C1996.133667,1101.035889 1994.559082,1100.962036 1992.984375,1100.888062 
	C1992.557861,1100.774902 1992.131470,1100.661743 1990.985107,1100.513306 
	C1984.843994,1100.323853 1979.422974,1100.169678 1974.001831,1100.015625 
	C1965.210815,1099.455200 1956.426147,1098.755371 1947.627808,1098.358643 
	C1910.854492,1096.700806 1874.075195,1095.175293 1837.301636,1093.522217 
	C1800.359497,1091.861694 1763.422241,1090.092163 1726.481445,1088.398315 
	C1694.371338,1086.926025 1662.259277,1085.499634 1630.148682,1084.039673 
	C1595.041382,1082.443726 1559.934692,1080.832886 1524.233887,1078.870728 
	C1522.774536,1078.626221 1521.908936,1078.739502 1521.043457,1078.852783 
	C1506.972534,1078.322144 1492.901489,1077.791626 1478.278809,1076.916016 
	C1477.161255,1076.680786 1476.595337,1076.790649 1476.029541,1076.900513 
	C1459.927979,1076.600342 1443.827637,1076.197144 1427.724609,1076.029907 
	C1412.461182,1075.871582 1397.195190,1075.960815 1381.492188,1075.493896 
	C1381.928345,1074.088867 1382.802612,1073.131104 1384.851807,1070.885986 
	C1378.917847,1071.324585 1373.947754,1071.691895 1368.524658,1072.021973 
	C1358.372559,1071.678101 1348.673340,1071.371460 1338.608887,1070.993408 
	C1337.501831,1070.903442 1336.760010,1070.884888 1335.776855,1070.686035 
	C1334.964478,1070.560303 1334.393555,1070.614990 1333.401245,1070.547485 
	C986.223999,1054.723633 639.468018,1039.021973 292.794464,1023.323975 
	C292.794464,719.651794 292.794464,416.886932 292.794464,114.108032 
	C1016.089539,114.108032 1739.115845,114.108032 2462.249023,114.108032 
	C2462.249023,417.272461 2462.249023,720.035522 2462.249023,1023.338806 
	C2351.076172,1023.338806 2240.167725,1023.338806 2128.977295,1023.338806 
	C2128.977295,1039.520020 2128.963623,1055.162231 2129.021240,1070.804321 
	C2129.023926,1071.525757 2129.667480,1072.244873 2130.082764,1073.137329 
	C2130.435791,1073.222778 2130.718506,1073.136230 2131.461914,1072.957764 
	C2284.621582,1072.856445 2437.320557,1072.846680 2590.019531,1072.846558 
	C2591.011963,1072.846558 2592.004639,1072.978882 2592.997314,1073.385132 
	C2592.992188,1074.392090 2592.986816,1075.063354 2592.981445,1075.734619 
M2443.742188,1017.505981 
	C2444.783447,1017.508057 2445.824951,1017.510193 2447.661621,1017.647766 
	C2448.061279,1014.006714 2448.810303,1010.365784 2448.811035,1006.724731 
	C2448.866943,712.909058 2448.864502,419.093384 2448.866211,125.277718 
	C2448.866211,123.355080 2448.865967,121.432442 2448.865967,119.515060 
	C1773.784790,119.515060 1099.423950,119.515060 425.657898,119.515060 
	C427.974304,119.783073 430.877991,120.299042 433.798615,120.426697 
	C448.610718,121.074089 463.429901,121.560280 478.241638,122.215103 
	C509.862274,123.613037 541.478455,125.111328 573.099182,126.507393 
	C593.064392,127.388885 613.034485,128.159912 633.865479,129.217010 
	C650.831543,130.042389 667.794922,130.928970 684.764160,131.681641 
	C735.177429,133.917679 785.594971,136.058456 836.007141,138.318481 
	C875.933411,140.108414 915.853210,142.044510 955.777954,143.869644 
	C998.203918,145.809143 1040.633667,147.667557 1083.059448,149.610580 
	C1128.642944,151.698196 1174.222900,153.864594 1219.806274,155.955795 
	C1253.910645,157.520386 1288.017090,159.041229 1322.124390,160.542313 
	C1349.410034,161.743179 1376.697998,162.885071 1404.755005,164.319824 
	C1645.996948,175.299500 1887.238892,186.279190 2128.844238,197.275406 
	C2128.844238,200.433655 2128.844238,203.069107 2128.844238,205.704544 
	C2128.844238,471.990997 2128.844482,738.277466 2128.842041,1004.563904 
	C2128.842041,1007.896545 2128.851562,1011.229980 2128.782471,1014.561523 
	C2128.737305,1016.731689 2129.141357,1018.296997 2132.685059,1017.642395 
	C2233.987549,1017.630615 2335.289795,1017.621338 2436.592285,1017.590088 
	C2438.734863,1017.589417 2440.877197,1017.333984 2443.742188,1017.505981 
M1492.287842,183.145050 
	C1465.158936,181.929489 1438.030518,180.703674 1410.901001,179.500565 
	C1360.463989,177.263840 1310.023804,175.094208 1259.589600,172.795639 
	C1212.988892,170.671768 1166.397583,168.344543 1119.796265,166.237045 
	C1069.691895,163.971130 1019.577332,161.930450 969.473450,159.654572 
	C923.873962,157.583298 878.285583,155.265656 832.687134,153.170807 
	C779.591003,150.731522 726.488892,148.422989 673.389893,146.045609 
	C606.810364,143.064682 540.230469,140.090195 473.652374,137.077118 
	C427.047546,134.967957 380.445496,132.797058 333.841705,130.664749 
	C332.412018,130.599350 330.976746,130.656509 329.527313,130.656509 
	C329.527313,424.045471 329.527313,716.911194 329.527313,1009.922668 
	C917.357910,1036.637329 1504.753418,1063.332153 2092.144531,1090.026855 
	C2092.144531,796.366699 2092.144531,503.606110 2092.144531,210.135468 
	C2088.865723,210.135468 2085.899414,210.253754 2082.944336,210.118057 
	C2018.030884,207.137466 1953.120239,204.090927 1888.205444,201.138031 
	C1841.602417,199.018127 1794.992188,197.053696 1748.388306,194.950668 
	C1704.444214,192.967667 1660.504639,190.888077 1616.562500,188.862152 
	C1575.454224,186.966873 1534.345337,185.086273 1492.287842,183.145050 
z"/>
<path fill="#111111" opacity="1.000000" stroke="none" 
	d="
M2593.440918,1075.837891 
	C2592.986816,1075.063354 2592.992188,1074.392090 2593.447266,1073.274902 
	C2597.819580,1072.828857 2601.742188,1072.828857 2605.601074,1072.828857 
	C2605.601074,736.198303 2605.601074,400.350616 2605.601074,64.518463 
	C1787.051514,64.518463 968.957581,64.518463 150.816818,64.518463 
	C150.816818,400.705963 150.816818,736.559631 150.816818,1072.814941 
	C154.865387,1072.814941 158.506409,1072.814941 162.147430,1072.814941 
	C513.954102,1072.815552 865.760803,1072.845459 1217.567505,1072.775391 
	C1256.362305,1072.767700 1295.157227,1072.187500 1334.276733,1071.985474 
	C1335.054321,1072.092651 1335.507202,1072.087036 1336.231323,1072.235718 
	C1337.305908,1072.506226 1338.109131,1072.622314 1339.372681,1072.859863 
	C1347.231445,1072.999023 1354.630981,1073.093994 1362.027832,1072.988770 
	C1364.348389,1072.955688 1366.661133,1072.384399 1368.977539,1072.059326 
	C1373.947754,1071.691895 1378.917847,1071.324585 1384.851807,1070.885986 
	C1382.802612,1073.131104 1381.928345,1074.088867 1381.036621,1075.390137 
	C1360.546997,1075.839600 1340.074829,1076.028076 1319.602783,1076.038696 
	C1111.835693,1076.145996 904.068542,1076.287231 696.301392,1076.291382 
	C522.358398,1076.294800 348.415344,1076.122681 174.472336,1076.053467 
	C163.984833,1076.049316 153.497223,1076.268066 142.598633,1075.988525 
	C142.434967,1073.294800 142.898819,1070.995605 142.899048,1068.696533 
	C142.931503,736.551880 142.930344,404.407196 142.930649,72.262535 
	C142.930649,68.650574 142.930649,65.038612 142.930649,61.115753 
	C146.662598,61.115753 150.955032,61.115791 155.247482,61.115742 
	C548.553650,61.110966 941.859863,61.099991 1335.166016,61.103092 
	C1755.638062,61.106407 2176.110107,61.123810 2596.582275,61.120010 
	C2600.070557,61.119980 2603.559082,60.911766 2607.408447,60.854237 
	C2608.493652,60.850426 2609.217773,60.793129 2610.336914,60.823776 
	C2611.649414,61.761814 2613.082764,62.470478 2613.363525,63.495037 
	C2613.784668,65.030937 2613.358154,66.788612 2613.358154,68.451942 
	C2613.347168,402.004333 2613.343018,735.556763 2613.316895,1069.109131 
	C2613.316650,1071.372070 2613.012939,1073.635010 2612.850830,1075.897949 
	C2606.534180,1075.912354 2600.217285,1075.926880 2593.440918,1075.837891 
z"/>
<path fill="#A4A4A4" opacity="1.000000" stroke="none" 
	d="
M2607.047363,60.800762 
	C2603.559082,60.911766 2600.070557,61.119980 2596.582275,61.120010 
	C2176.110107,61.123810 1755.638062,61.106407 1335.166016,61.103092 
	C941.859863,61.099991 548.553650,61.110966 155.247482,61.115742 
	C150.955032,61.115791 146.662598,61.115753 142.930649,61.115753 
	C142.930649,65.038612 142.930649,68.650574 142.930649,72.262535 
	C142.930344,404.407196 142.931503,736.551880 142.899048,1068.696533 
	C142.898819,1070.995605 142.434967,1073.294800 142.197540,1075.968750 
	C140.319305,1076.739014 138.431137,1077.134277 136.443878,1076.962646 
	C137.569138,1074.878052 139.710800,1073.439209 139.849045,1071.828369 
	C140.297363,1066.604858 140.008255,1061.318359 140.008270,1056.056030 
	C140.008957,726.480225 140.003052,396.904480 140.100433,67.328720 
	C140.101547,63.586060 139.241180,60.895947 136.045151,59.021656 
	C141.268784,59.030487 146.492401,59.046959 151.716034,59.047066 
	C546.308472,59.055256 940.900940,59.066345 1335.493408,59.067993 
	C1743.750122,59.069702 2152.006836,59.062584 2560.263672,59.056648 
	C2573.527588,59.056454 2586.791748,59.026962 2600.884766,59.021965 
	C2602.818848,58.743668 2603.923828,58.454533 2605.028564,58.165401 
	C2605.446045,58.173977 2605.863770,58.182545 2606.609375,58.522400 
	C2606.974121,59.502712 2607.010742,60.151741 2607.047363,60.800762 
z"/>
<path fill="#C5C5C5" opacity="1.000000" stroke="none" 
	d="
M135.662506,59.088104 
	C139.241180,60.895947 140.101547,63.586060 140.100433,67.328720 
	C140.003052,396.904480 140.008957,726.480225 140.008270,1056.056030 
	C140.008255,1061.318359 140.297363,1066.604858 139.849045,1071.828369 
	C139.710800,1073.439209 137.569138,1074.878052 136.149567,1076.708008 
	C134.970947,1075.860474 133.238907,1074.761108 133.139572,1073.530029 
	C132.792236,1069.226929 133.010651,1064.878174 133.010651,1060.546753 
	C133.011002,730.690613 133.003067,400.834442 133.105057,70.978333 
	C133.106277,67.036842 134.523560,63.095802 135.662506,59.088104 
z"/>
<path fill="#A4A4A4" opacity="1.000000" stroke="none" 
	d="
M2613.264404,1075.966309 
	C2613.012939,1073.635010 2613.316650,1071.372070 2613.316895,1069.109131 
	C2613.343018,735.556763 2613.347168,402.004333 2613.358154,68.451942 
	C2613.358154,66.788612 2613.784668,65.030937 2613.363525,63.495037 
	C2613.082764,62.470478 2611.649414,61.761814 2610.369873,60.548901 
	C2610.361572,59.551945 2610.715088,58.917809 2611.068848,58.283680 
	C2611.755615,58.243374 2612.442139,58.203064 2613.534668,58.399826 
	C2614.138184,58.871395 2614.335693,59.105892 2614.533203,59.340340 
	C2614.709229,58.907871 2614.885254,58.475452 2615.061279,58.043114 
	C2616.002930,59.527237 2617.673584,60.971916 2617.756104,62.502323 
	C2618.070068,68.317551 2617.863281,74.160568 2617.863525,79.993240 
	C2617.871094,409.790375 2617.880371,739.587524 2617.881592,1069.384644 
	C2617.881592,1072.455811 2618.799805,1076.172119 2613.264404,1075.966309 
z"/>
<path fill="#EAEAEA" opacity="1.000000" stroke="none" 
	d="
M2130.021240,1077.041260 
	C2131.006592,1078.584473 2132.770508,1080.092285 2132.842529,1081.677124 
	C2133.159180,1088.641602 2133.100098,1095.631958 2132.877441,1102.603394 
	C2132.841309,1103.734009 2131.293945,1104.816162 2129.888184,1105.459717 
	C2129.290771,1101.541016 2129.132568,1098.079712 2129.235596,1094.626343 
	C2129.410645,1088.762085 2129.750732,1082.902588 2130.021240,1077.041260 
z"/>
<path fill="#171717" opacity="1.000000" stroke="none" 
	d="
M2130.258301,1076.833008 
	C2129.750732,1082.902588 2129.410645,1088.762085 2129.235596,1094.626343 
	C2129.132568,1098.079712 2129.290771,1101.541016 2129.447754,1105.448975 
	C2129.406982,1105.997192 2129.249756,1106.095337 2128.791992,1106.419678 
	C2128.491211,1106.646118 2128.070801,1106.415283 2128.070801,1106.415283 
	C2128.031250,1097.134399 2127.899170,1087.851929 2128.074219,1078.575073 
	C2128.095215,1077.461670 2129.783203,1076.379639 2130.981934,1075.451660 
	C2131.008789,1075.955078 2130.751953,1076.290039 2130.258301,1076.833008 
z"/>
<path fill="#EAEAEA" opacity="1.000000" stroke="none" 
	d="
M1974.104004,1100.405518 
	C1979.422974,1100.169678 1984.843994,1100.323853 1990.666992,1100.629883 
	C1985.447876,1100.786377 1979.826904,1100.790894 1974.104004,1100.405518 
z"/>
<path fill="#EAEAEA" opacity="1.000000" stroke="none" 
	d="
M2101.097900,1106.433105 
	C2103.897217,1106.043457 2106.788086,1106.033081 2109.897949,1106.390625 
	C2107.141113,1106.776611 2104.165283,1106.794556 2101.097900,1106.433105 
z"/>
<path fill="#EAEAEA" opacity="1.000000" stroke="none" 
	d="
M2057.059082,1104.264648 
	C2059.545654,1103.933960 2062.109131,1103.992676 2064.889648,1104.414062 
	C2062.449463,1104.735962 2059.792725,1104.695068 2057.059082,1104.264648 
z"/>
<path fill="#C8C8C8" opacity="1.000000" stroke="none" 
	d="
M2610.873535,57.972118 
	C2610.715088,58.917809 2610.361572,59.551945 2609.974854,60.460957 
	C2609.217773,60.793129 2608.493652,60.850426 2607.408203,60.854244 
	C2607.010742,60.151741 2606.974121,59.502712 2606.922363,58.533676 
	C2608.164551,58.029305 2609.421387,57.844936 2610.873535,57.972118 
z"/>
<path fill="#EAEAEA" opacity="1.000000" stroke="none" 
	d="
M2037.064209,1103.299072 
	C2039.213257,1102.969360 2041.438110,1103.021729 2043.885620,1103.422119 
	C2041.785522,1103.740601 2039.462769,1103.710938 2037.064209,1103.299072 
z"/>
<path fill="#EAEAEA" opacity="1.000000" stroke="none" 
	d="
M2127.788086,1106.571411 
	C2128.070801,1106.415283 2128.491211,1106.646118 2128.727051,1106.689697 
	C2128.241699,1109.659912 2126.940918,1109.929932 2125.015869,1107.240723 
	C2125.810059,1106.841797 2126.657471,1106.784668 2127.788086,1106.571411 
z"/>
<path fill="#EAEAEA" opacity="1.000000" stroke="none" 
	d="
M2084.075684,1105.367676 
	C2085.897949,1105.023804 2087.795654,1105.047974 2089.900879,1105.422363 
	C2088.122559,1105.760376 2086.136719,1105.748047 2084.075684,1105.367676 
z"/>
<path fill="#EAEAEA" opacity="1.000000" stroke="none" 
	d="
M2014.083252,1102.413208 
	C2015.576660,1102.063354 2017.146606,1102.068726 2018.913086,1102.422363 
	C2017.459595,1102.770020 2015.809570,1102.769287 2014.083252,1102.413208 
z"/>
<path fill="#EAEAEA" opacity="1.000000" stroke="none" 
	d="
M1993.046143,1101.256104 
	C1994.559082,1100.962036 1996.133667,1101.035889 1997.899658,1101.457031 
	C1996.429932,1101.744263 1994.769043,1101.684204 1993.046143,1101.256104 
z"/>
<path fill="#C8C8C8" opacity="1.000000" stroke="none" 
	d="
M2604.822021,57.876720 
	C2603.923828,58.454533 2602.818848,58.743668 2601.352783,59.009262 
	C2602.199463,58.519829 2603.407471,58.053936 2604.822021,57.876720 
z"/>
<path fill="#111111" opacity="1.000000" stroke="none" 
	d="
M1521.259277,1078.991455 
	C1521.908936,1078.739502 1522.774536,1078.626221 1523.818359,1078.751953 
	C1523.156250,1079.037354 1522.315674,1079.083618 1521.259277,1078.991455 
z"/>
<path fill="#111111" opacity="1.000000" stroke="none" 
	d="
M1476.200806,1077.026123 
	C1476.595337,1076.790649 1477.161255,1076.680786 1477.865601,1076.791748 
	C1477.460083,1077.058960 1476.916138,1077.105347 1476.200806,1077.026123 
z"/>
<path fill="#EAEAEA" opacity="1.000000" stroke="none" 
	d="
M2095.054443,1106.411377 
	C2095.453369,1106.088623 2095.893555,1106.044556 2096.659912,1106.072144 
	C2096.669678,1106.619263 2096.353516,1107.094727 2096.037354,1107.570190 
	C2095.723633,1107.276855 2095.409668,1106.983521 2095.054443,1106.411377 
z"/>
<path fill="#C8C8C8" opacity="1.000000" stroke="none" 
	d="
M2614.748291,58.050781 
	C2614.885254,58.475452 2614.709229,58.907871 2614.533203,59.340340 
	C2614.335693,59.105892 2614.138184,58.871395 2613.878906,58.398643 
	C2614.023193,58.126442 2614.229248,58.092487 2614.748291,58.050781 
z"/>
<path fill="#FDFDFD" opacity="1.000000" stroke="none" 
	d="
M1333.952026,1071.872681 
	C1295.157227,1072.187500 1256.362305,1072.767700 1217.567505,1072.775391 
	C865.760803,1072.845459 513.954102,1072.815552 162.147430,1072.814941 
	C158.506409,1072.814941 154.865387,1072.814941 150.816818,1072.814941 
	C150.816818,736.559631 150.816818,400.705963 150.816818,64.518463 
	C968.957581,64.518463 1787.051514,64.518463 2605.601074,64.518463 
	C2605.601074,400.350616 2605.601074,736.198303 2605.601074,1072.828857 
	C2601.742188,1072.828857 2597.819580,1072.828857 2593.447021,1072.939209 
	C2592.004639,1072.978882 2591.011963,1072.846558 2590.019531,1072.846558 
	C2437.320557,1072.846680 2284.621582,1072.856445 2131.221191,1072.858887 
	C2130.350586,1072.889893 2130.181396,1072.927490 2130.012451,1072.965210 
	C2129.667480,1072.244873 2129.023926,1071.525757 2129.021240,1070.804321 
	C2128.963623,1055.162231 2128.977295,1039.520020 2128.977295,1023.338806 
	C2240.167725,1023.338806 2351.076172,1023.338806 2462.249023,1023.338806 
	C2462.249023,720.035522 2462.249023,417.272461 2462.249023,114.108032 
	C1739.115845,114.108032 1016.089539,114.108032 292.794464,114.108032 
	C292.794464,416.886932 292.794464,719.651794 292.794464,1023.323975 
	C639.468018,1039.021973 986.223999,1054.723633 1333.362549,1070.752197 
	C1333.899414,1071.321411 1333.968384,1071.585938 1333.952026,1071.872681 
z"/>
<path fill="#D0D0D0" opacity="1.000000" stroke="none" 
	d="
M1403.984985,164.053131 
	C1376.697998,162.885071 1349.410034,161.743179 1322.124390,160.542313 
	C1288.017090,159.041229 1253.910645,157.520386 1219.806274,155.955795 
	C1174.222900,153.864594 1128.642944,151.698196 1083.059448,149.610580 
	C1040.633667,147.667557 998.203918,145.809143 955.777954,143.869644 
	C915.853210,142.044510 875.933411,140.108414 836.007141,138.318481 
	C785.594971,136.058456 735.177429,133.917679 684.764160,131.681641 
	C667.794922,130.928970 650.831543,130.042389 633.324036,128.717285 
	C631.931396,127.834808 631.112122,127.237915 630.223633,127.105743 
	C626.008362,126.478714 621.786621,125.826149 617.543030,125.478722 
	C613.813110,125.173355 609.808167,124.391685 606.354980,125.358047 
	C599.561523,127.259186 594.158630,124.928307 588.746277,120.923637 
	C590.847595,120.923637 592.948975,120.923645 595.050293,120.923637 
	C1202.372681,120.922737 1809.694946,120.921700 2417.017334,120.922272 
	C2426.517090,120.922279 2436.016602,120.942200 2445.659180,121.333466 
	C2445.738525,122.517151 2445.675293,123.320213 2445.254395,124.119446 
	C2441.984863,127.013367 2442.238281,129.326340 2445.734375,131.349319 
	C2445.871826,133.814026 2445.949463,135.812119 2445.949707,137.810196 
	C2445.955078,426.420898 2445.955566,715.031616 2445.943604,1003.642334 
	C2445.943359,1005.802490 2445.771973,1007.962708 2445.434570,1010.153198 
	C2445.351074,1010.747375 2445.513428,1011.311218 2445.750000,1012.238403 
	C2444.902100,1013.772400 2443.980225,1014.943115 2442.587402,1016.074829 
	C2341.621826,1016.026367 2241.126953,1016.016968 2140.632080,1016.007324 
	C2139.298828,1016.007202 2137.949219,1015.870239 2136.635498,1016.029663 
	C2133.413086,1016.420715 2132.494385,1014.408447 2132.375488,1011.867676 
	C2132.151367,1007.081055 2132.050781,1002.284607 2132.050537,997.492249 
	C2132.035645,733.005432 2132.040039,468.518646 2131.985840,204.031830 
	C2131.985352,201.678589 2131.221436,199.325516 2130.476074,196.909241 
	C2128.459961,193.432800 2125.486572,195.167328 2122.981934,195.048889 
	C2108.910400,194.383514 2094.829834,193.864594 2080.772949,192.970596 
	C2076.627441,192.706924 2072.553711,191.360748 2068.435303,190.573853 
	C2067.687500,190.431000 2066.875244,190.540558 2066.103027,190.626282 
	C2062.226807,191.056625 2058.301514,192.161926 2054.489014,191.852982 
	C2040.393066,190.710724 2026.366455,189.243332 2012.143555,189.632843 
	C2008.802002,189.724365 2005.510742,188.875366 2001.722778,189.494186 
	C1995.797119,190.462250 1989.169312,190.479218 1983.496826,188.745941 
	C1977.318481,186.858063 1971.559570,188.409988 1965.646118,188.019226 
	C1959.222534,187.594788 1952.836670,186.449646 1946.412720,186.214722 
	C1936.941040,185.868332 1927.441650,186.284439 1917.969849,185.940826 
	C1908.049561,185.580963 1898.154907,184.555725 1888.236328,184.098633 
	C1877.218994,183.590912 1866.186157,183.425995 1855.162964,183.030411 
	C1853.701172,182.977966 1852.269775,182.332977 1850.801025,182.159134 
	C1847.200928,181.733032 1843.592163,181.356262 1839.977539,181.082764 
	C1836.271240,180.802307 1832.552856,180.686646 1828.842163,180.459030 
	C1827.690552,180.388397 1826.547241,180.069107 1825.399536,180.065079 
	C1814.717285,180.027557 1804.027344,180.283493 1793.354248,179.964676 
	C1779.940796,179.563995 1766.541870,178.685699 1753.135132,178.045868 
	C1738.897461,177.366364 1724.659424,176.231339 1710.418945,176.188873 
	C1691.744751,176.133179 1673.247803,173.020950 1654.512329,173.803314 
	C1645.230469,174.190933 1635.877808,172.557602 1626.544312,172.109482 
	C1610.040283,171.317123 1593.526978,170.712219 1577.016235,170.067245 
	C1567.232666,169.685059 1557.437622,169.529633 1547.663818,168.983398 
	C1540.571533,168.587036 1533.499023,167.780441 1526.431274,167.028198 
	C1523.446411,166.710510 1520.488892,165.615921 1517.532715,165.667130 
	C1512.849243,165.748276 1508.145264,167.080536 1503.508179,166.825073 
	C1496.423584,166.434784 1489.410400,164.782196 1482.325317,164.351761 
	C1477.002319,164.028366 1471.610474,165.057281 1466.255005,164.995407 
	C1457.554810,164.894897 1448.853882,164.487335 1440.165039,164.001465 
	C1437.809448,163.869736 1435.510986,162.623032 1433.159790,162.525269 
	C1426.406860,162.244431 1419.634521,162.096252 1412.881714,162.295792 
	C1409.901367,162.383881 1406.949707,163.437744 1403.984985,164.053131 
z"/>
<path fill="#F8FBFB" opacity="1.000000" stroke="none" 
	d="
M1492.762207,183.172119 
	C1534.345337,185.086273 1575.454224,186.966873 1616.562500,188.862152 
	C1660.504639,190.888077 1704.444214,192.967667 1748.388306,194.950668 
	C1794.992188,197.053696 1841.602417,199.018127 1888.205444,201.138031 
	C1953.120239,204.090927 2018.030884,207.137466 2082.944336,210.118057 
	C2085.899414,210.253754 2088.865723,210.135468 2092.144531,210.135468 
	C2092.144531,503.606110 2092.144531,796.366699 2092.144531,1090.026855 
	C1504.753418,1063.332153 917.357910,1036.637329 329.527313,1009.922668 
	C329.527313,716.911194 329.527313,424.045471 329.527313,130.656509 
	C330.976746,130.656509 332.412018,130.599350 333.841705,130.664749 
	C380.445496,132.797058 427.047546,134.967957 473.652374,137.077118 
	C540.230469,140.090195 606.810364,143.064682 673.389893,146.045609 
	C726.488892,148.422989 779.591003,150.731522 832.687134,153.170807 
	C878.285583,155.265656 923.873962,157.583298 969.473450,159.654572 
	C1019.577332,161.930450 1069.691895,163.971130 1119.796265,166.237045 
	C1166.397583,168.344543 1212.988892,170.671768 1259.589600,172.795639 
	C1310.023804,175.094208 1360.463989,177.263840 1410.901001,179.500565 
	C1438.030518,180.703674 1465.158936,181.929489 1492.762207,183.172119 
M359.115540,537.957886 
	C359.098114,584.989929 359.078369,632.022034 359.079346,679.054077 
	C359.079376,680.035950 359.319550,681.017883 359.190125,682.903320 
	C359.165894,683.236328 359.120453,683.569275 359.120422,683.902283 
	C359.106750,787.392517 359.131714,890.882812 358.974487,994.372803 
	C358.967102,999.232483 361.411804,999.207764 364.802612,999.361145 
	C419.880951,1001.851990 474.955048,1004.437134 530.033936,1006.915100 
	C577.289612,1009.041138 624.553162,1010.992371 671.807922,1013.138489 
	C742.529297,1016.350220 813.245911,1019.666199 883.964661,1022.935425 
	C926.395447,1024.896973 968.825256,1026.879761 1011.257568,1028.806641 
	C1079.151489,1031.889404 1147.046875,1034.938110 1214.942139,1037.993042 
	C1253.215210,1039.715210 1291.489990,1041.404053 1329.762695,1043.138306 
	C1388.009521,1045.777466 1446.254883,1048.448242 1504.501465,1051.095459 
	C1530.791504,1052.290283 1557.083618,1053.441284 1583.373169,1054.647583 
	C1620.643311,1056.357788 1657.910645,1058.127441 1695.181519,1059.821167 
	C1725.302368,1061.190063 1755.427979,1062.448975 1785.548706,1063.820923 
	C1823.321411,1065.541382 1861.090210,1067.349609 1898.862427,1069.078979 
	C1932.473999,1070.617920 1966.088379,1072.093750 1999.700806,1073.610962 
	C2019.338989,1074.497559 2038.978760,1075.360840 2058.610840,1076.367798 
	C2061.458984,1076.514038 2062.654541,1075.635376 2062.527344,1072.825806 
	C2062.467285,1071.496582 2062.563965,1070.160889 2062.563965,1068.828125 
	C2062.561523,869.513489 2062.558105,670.198853 2062.539795,470.884247 
	C2062.539795,468.895905 2062.345947,466.907562 2062.469727,464.020752 
	C2062.491699,416.867310 2062.515869,369.713867 2062.523438,322.560425 
	C2062.523682,321.402252 2062.341797,320.244049 2062.493408,318.162994 
	C2062.516602,287.670929 2062.462891,257.178406 2062.647949,226.687332 
	C2062.674805,222.256882 2061.164307,221.108414 2056.901611,220.994370 
	C2042.753662,220.615875 2028.618164,219.774979 2014.476807,219.134689 
	C1957.904785,216.573196 1901.333496,213.997635 1844.760010,211.471298 
	C1793.341797,209.175171 1741.917480,207.012299 1690.502441,204.650467 
	C1638.433105,202.258591 1586.374023,199.640076 1534.305786,197.222580 
	C1487.550659,195.051743 1440.788330,193.034332 1394.030518,190.921616 
	C1336.628052,188.327942 1279.228638,185.668701 1221.824829,183.106796 
	C1172.400024,180.901016 1122.967041,178.876678 1073.544800,176.616913 
	C1021.808228,174.251297 970.082581,171.649567 918.347595,169.249374 
	C885.570068,167.728699 852.783325,166.406693 820.002258,164.961395 
	C780.064026,163.200531 740.124939,161.454788 700.190552,159.609970 
	C647.783508,157.188950 595.384338,154.596817 542.975037,152.226730 
	C484.734711,149.592941 426.486603,147.130173 368.242737,144.574387 
	C365.459839,144.452271 362.684784,144.150681 359.094147,143.868958 
	C359.094147,146.637436 359.094147,148.907410 359.094147,151.177368 
	C359.094177,275.816162 359.091736,400.454956 359.105316,525.093750 
	C359.105743,529.083557 359.270142,533.073303 359.115540,537.957886 
z"/>
<path fill="#BDBDBD" opacity="1.000000" stroke="none" 
	d="
M2445.516357,120.952805 
	C2436.016602,120.942200 2426.517090,120.922279 2417.017334,120.922272 
	C1809.694946,120.921700 1202.372681,120.922737 595.050293,120.923637 
	C592.948975,120.923645 590.847595,120.923637 588.746277,120.923637 
	C594.158630,124.928307 599.561523,127.259186 606.354980,125.358047 
	C609.808167,124.391685 613.813110,125.173355 617.543030,125.478722 
	C621.786621,125.826149 626.008362,126.478714 630.223633,127.105743 
	C631.112122,127.237915 631.931396,127.834808 632.892456,128.599030 
	C613.034485,128.159912 593.064392,127.388885 573.099182,126.507393 
	C541.478455,125.111328 509.862274,123.613037 478.241638,122.215103 
	C463.429901,121.560280 448.610718,121.074089 433.798615,120.426697 
	C430.877991,120.299042 427.974304,119.783073 425.657898,119.515060 
	C1099.423950,119.515060 1773.784790,119.515060 2448.865967,119.515060 
	C2448.865967,121.432442 2448.866211,123.355080 2448.866211,125.277718 
	C2448.864502,419.093384 2448.866943,712.909058 2448.811035,1006.724731 
	C2448.810303,1010.365784 2448.061279,1014.006714 2447.336182,1017.147339 
	C2447.069824,1014.983704 2447.180664,1013.320435 2447.180664,1011.657166 
	C2447.191895,718.207703 2447.195312,424.758209 2447.197998,131.308731 
	C2447.197998,128.309296 2447.256836,125.306099 2447.102539,122.314178 
	C2447.077881,121.834389 2446.069824,121.405304 2445.516357,120.952805 
M581.988953,125.061676 
	C583.298706,124.163673 584.608459,123.265671 586.539917,121.941437 
	C578.523254,119.969696 566.454285,120.636894 563.709717,123.470154 
	C569.878967,124.043243 575.508911,124.566231 581.988953,125.061676 
M550.475952,120.922379 
	C546.209534,120.922379 541.943115,120.922379 537.676697,120.922379 
	C537.687012,121.612411 537.697327,122.302437 537.707642,122.992470 
	C545.376770,122.992470 553.045898,122.992470 560.715027,122.992470 
	C560.735718,122.302391 560.756348,121.612305 560.776978,120.922226 
	C557.669006,120.922226 554.560974,120.922226 550.475952,120.922379 
M516.597473,120.995590 
	C516.469849,121.100960 516.317200,121.188530 516.224548,121.318756 
	C516.173706,121.390205 516.223694,121.630913 516.228943,121.630936 
	C519.395386,121.644798 522.561951,121.644646 525.728455,121.644646 
	C525.719055,121.401680 525.709656,121.158722 525.700256,120.915756 
	C522.917603,120.915756 520.134949,120.915756 516.597473,120.995590 
z"/>
<path fill="#BDBDBD" opacity="1.000000" stroke="none" 
	d="
M1404.369995,164.186493 
	C1406.949707,163.437744 1409.901367,162.383881 1412.881714,162.295792 
	C1419.634521,162.096252 1426.406860,162.244431 1433.159790,162.525269 
	C1435.510986,162.623032 1437.809448,163.869736 1440.165039,164.001465 
	C1448.853882,164.487335 1457.554810,164.894897 1466.255005,164.995407 
	C1471.610474,165.057281 1477.002319,164.028366 1482.325317,164.351761 
	C1489.410400,164.782196 1496.423584,166.434784 1503.508179,166.825073 
	C1508.145264,167.080536 1512.849243,165.748276 1517.532715,165.667130 
	C1520.488892,165.615921 1523.446411,166.710510 1526.431274,167.028198 
	C1533.499023,167.780441 1540.571533,168.587036 1547.663818,168.983398 
	C1557.437622,169.529633 1567.232666,169.685059 1577.016235,170.067245 
	C1593.526978,170.712219 1610.040283,171.317123 1626.544312,172.109482 
	C1635.877808,172.557602 1645.230469,174.190933 1654.512329,173.803314 
	C1673.247803,173.020950 1691.744751,176.133179 1710.418945,176.188873 
	C1724.659424,176.231339 1738.897461,177.366364 1753.135132,178.045868 
	C1766.541870,178.685699 1779.940796,179.563995 1793.354248,179.964676 
	C1804.027344,180.283493 1814.717285,180.027557 1825.399536,180.065079 
	C1826.547241,180.069107 1827.690552,180.388397 1828.842163,180.459030 
	C1832.552856,180.686646 1836.271240,180.802307 1839.977539,181.082764 
	C1843.592163,181.356262 1847.200928,181.733032 1850.801025,182.159134 
	C1852.269775,182.332977 1853.701172,182.977966 1855.162964,183.030411 
	C1866.186157,183.425995 1877.218994,183.590912 1888.236328,184.098633 
	C1898.154907,184.555725 1908.049561,185.580963 1917.969849,185.940826 
	C1927.441650,186.284439 1936.941040,185.868332 1946.412720,186.214722 
	C1952.836670,186.449646 1959.222534,187.594788 1965.646118,188.019226 
	C1971.559570,188.409988 1977.318481,186.858063 1983.496826,188.745941 
	C1989.169312,190.479218 1995.797119,190.462250 2001.722778,189.494186 
	C2005.510742,188.875366 2008.802002,189.724365 2012.143555,189.632843 
	C2026.366455,189.243332 2040.393066,190.710724 2054.489014,191.852982 
	C2058.301514,192.161926 2062.226807,191.056625 2066.103027,190.626282 
	C2066.875244,190.540558 2067.687500,190.431000 2068.435303,190.573853 
	C2072.553711,191.360748 2076.627441,192.706924 2080.772949,192.970596 
	C2094.829834,193.864594 2108.910400,194.383514 2122.981934,195.048889 
	C2125.486572,195.167328 2128.459961,193.432800 2130.508301,197.380585 
	C2130.875488,467.342468 2130.867920,736.769897 2130.910156,1006.197327 
	C2130.910889,1009.976807 2131.531738,1013.756104 2131.863037,1017.535522 
	C2129.141357,1018.296997 2128.737305,1016.731689 2128.782471,1014.561523 
	C2128.851562,1011.229980 2128.842041,1007.896545 2128.842041,1004.563904 
	C2128.844482,738.277466 2128.844238,471.990997 2128.844238,205.704544 
	C2128.844238,203.069107 2128.844238,200.433655 2128.844238,197.275406 
	C1887.238892,186.279190 1645.996948,175.299500 1404.369995,164.186493 
M1998.506592,190.474289 
	C1998.506592,190.474289 1998.504150,190.512207 1998.506592,190.474289 
z"/>
<path fill="#EFEFEF" opacity="1.000000" stroke="none" 
	d="
M2132.273926,1017.588989 
	C2131.531738,1013.756104 2130.910889,1009.976807 2130.910156,1006.197327 
	C2130.867920,736.769897 2130.875488,467.342468 2130.846191,197.443695 
	C2131.221436,199.325516 2131.985352,201.678589 2131.985840,204.031830 
	C2132.040039,468.518646 2132.035645,733.005432 2132.050537,997.492249 
	C2132.050781,1002.284607 2132.151367,1007.081055 2132.375488,1011.867676 
	C2132.494385,1014.408447 2133.413086,1016.420715 2136.635498,1016.029663 
	C2137.949219,1015.870239 2139.298828,1016.007202 2140.632080,1016.007324 
	C2241.126953,1016.016968 2341.621826,1016.026367 2442.586426,1016.254761 
	C2443.097900,1016.717651 2443.085693,1016.958862 2443.019775,1017.197388 
	C2440.877197,1017.333984 2438.734863,1017.589417 2436.592285,1017.590088 
	C2335.289795,1017.621338 2233.987549,1017.630615 2132.273926,1017.588989 
z"/>
<path fill="#FFFFFF" opacity="1.000000" stroke="none" 
	d="
M2443.380859,1017.351685 
	C2443.085693,1016.958862 2443.097900,1016.717651 2443.057129,1016.293762 
	C2443.980225,1014.943115 2444.902100,1013.772400 2445.818359,1011.949463 
	C2445.768555,1010.905701 2445.724609,1010.514282 2445.680664,1010.122864 
	C2445.771973,1007.962708 2445.943359,1005.802490 2445.943604,1003.642334 
	C2445.955566,715.031616 2445.955078,426.420898 2445.949707,137.810196 
	C2445.949463,135.812119 2445.871826,133.814026 2445.812500,130.932816 
	C2445.733887,128.074219 2445.673096,126.098747 2445.612061,124.123276 
	C2445.675293,123.320213 2445.738525,122.517151 2445.659180,121.333427 
	C2446.069824,121.405304 2447.077881,121.834389 2447.102539,122.314178 
	C2447.256836,125.306099 2447.197998,128.309296 2447.197998,131.308731 
	C2447.195312,424.758209 2447.191895,718.207703 2447.180664,1011.657166 
	C2447.180664,1013.320435 2447.069824,1014.983704 2446.938477,1017.079651 
	C2445.824951,1017.510193 2444.783447,1017.508057 2443.380859,1017.351685 
z"/>
<path fill="#BDBDBD" opacity="1.000000" stroke="none" 
	d="
M1368.524658,1072.021973 
	C1366.661133,1072.384399 1364.348389,1072.955688 1362.027832,1072.988770 
	C1354.630981,1073.093994 1347.231445,1072.999023 1339.374756,1072.580200 
	C1338.935791,1071.807617 1338.954956,1071.436279 1338.974243,1071.064941 
	C1348.673340,1071.371460 1358.372559,1071.678101 1368.524658,1072.021973 
z"/>
<path fill="#FDFDFD" opacity="1.000000" stroke="none" 
	d="
M1338.608887,1070.993408 
	C1338.954956,1071.436279 1338.935791,1071.807617 1338.914551,1072.458740 
	C1338.109131,1072.622314 1337.305908,1072.506226 1336.219360,1071.930664 
	C1335.963501,1071.269775 1335.990845,1071.068115 1336.018311,1070.866455 
	C1336.760010,1070.884888 1337.501831,1070.903442 1338.608887,1070.993408 
z"/>
<path fill="#BDBDBD" opacity="1.000000" stroke="none" 
	d="
M1335.776855,1070.686035 
	C1335.990845,1071.068115 1335.963501,1071.269775 1335.948120,1071.776367 
	C1335.507202,1072.087036 1335.054321,1072.092651 1334.276733,1071.985474 
	C1333.968384,1071.585938 1333.899414,1071.321411 1333.783813,1070.874512 
	C1334.393555,1070.614990 1334.964478,1070.560303 1335.776855,1070.686035 
z"/>
<path fill="#171717" opacity="1.000000" stroke="none" 
	d="
M2130.082764,1073.137329 
	C2130.181396,1072.927490 2130.350586,1072.889893 2130.760742,1072.950928 
	C2130.718506,1073.136230 2130.435791,1073.222778 2130.082764,1073.137329 
z"/>
<path fill="#BDBDBD" opacity="1.000000" stroke="none" 
	d="
M2445.254395,124.119446 
	C2445.673096,126.098747 2445.733887,128.074219 2445.716553,130.466187 
	C2442.238281,129.326340 2441.984863,127.013367 2445.254395,124.119446 
z"/>
<path fill="#BDBDBD" opacity="1.000000" stroke="none" 
	d="
M2445.434570,1010.153198 
	C2445.724609,1010.514282 2445.768555,1010.905701 2445.744141,1011.586121 
	C2445.513428,1011.311218 2445.351074,1010.747375 2445.434570,1010.153198 
z"/>
<path fill="#01BFD5" opacity="1.000000" stroke="none" 
	d="
M2062.242676,464.919250 
	C2062.345947,466.907562 2062.539795,468.895905 2062.539795,470.884247 
	C2062.558105,670.198853 2062.561523,869.513489 2062.563965,1068.828125 
	C2062.563965,1070.160889 2062.467285,1071.496582 2062.527344,1072.825806 
	C2062.654541,1075.635376 2061.458984,1076.514038 2058.610840,1076.367798 
	C2038.978760,1075.360840 2019.338989,1074.497559 1999.700806,1073.610962 
	C1966.088379,1072.093750 1932.473999,1070.617920 1898.862427,1069.078979 
	C1861.090210,1067.349609 1823.321411,1065.541382 1785.548706,1063.820923 
	C1755.427979,1062.448975 1725.302368,1061.190063 1695.181519,1059.821167 
	C1657.910645,1058.127441 1620.643311,1056.357788 1583.373169,1054.647583 
	C1557.083618,1053.441284 1530.791504,1052.290283 1504.501465,1051.095459 
	C1446.254883,1048.448242 1388.009521,1045.777466 1329.762695,1043.138306 
	C1291.489990,1041.404053 1253.215210,1039.715210 1214.942139,1037.993042 
	C1147.046875,1034.938110 1079.151489,1031.889404 1011.257568,1028.806641 
	C968.825256,1026.879761 926.395447,1024.896973 883.964661,1022.935425 
	C813.245911,1019.666199 742.529297,1016.350220 671.807922,1013.138489 
	C624.553162,1010.992371 577.289612,1009.041138 530.033936,1006.915100 
	C474.955048,1004.437134 419.880951,1001.851990 364.802612,999.361145 
	C361.411804,999.207764 358.967102,999.232483 358.974487,994.372803 
	C359.131714,890.882812 359.106750,787.392517 359.120422,683.902283 
	C359.120453,683.569275 359.165894,683.236328 359.743774,682.455994 
	C364.590393,681.670898 368.901062,681.480347 373.173004,680.967285 
	C385.165497,679.526978 397.146820,677.989990 409.123260,676.420288 
	C417.329529,675.344727 425.508911,674.059753 433.720612,673.030518 
	C446.530823,671.425049 459.368134,670.034546 472.175354,668.406738 
	C482.850739,667.049988 493.486328,665.379517 504.163116,664.035095 
	C518.788086,662.193359 533.444031,660.597900 548.070801,658.770325 
	C565.643188,656.574768 583.205139,654.293457 600.759766,651.959839 
	C614.373413,650.150024 627.959961,648.136169 641.574951,646.337097 
	C653.229309,644.797119 664.908569,643.446045 676.573914,641.988403 
	C688.890137,640.449341 701.208496,638.925049 713.515686,637.315857 
	C724.019592,635.942322 734.501648,634.400146 745.006897,633.036804 
	C757.478943,631.418274 769.967773,629.929138 782.445251,628.351562 
	C799.035706,626.253967 815.621887,624.123413 832.210388,622.010315 
	C844.200867,620.482910 856.194702,618.981567 868.182068,617.430298 
	C879.348694,615.985229 890.501770,614.433655 901.673523,613.030273 
	C916.784302,611.132202 931.912598,609.374146 947.023254,607.475891 
	C961.147888,605.701477 975.255432,603.791748 989.377808,601.998779 
	C1001.041138,600.517944 1012.720276,599.160889 1024.383057,597.676147 
	C1038.992676,595.816345 1053.594116,593.891541 1068.196777,591.977173 
	C1081.658813,590.212463 1095.114136,588.397339 1108.578979,586.654053 
	C1123.355957,584.740784 1138.142944,582.904846 1152.920654,580.997070 
	C1165.719849,579.344727 1178.510376,577.624329 1191.308350,575.961121 
	C1202.307373,574.531677 1213.310547,573.132507 1224.313599,571.734375 
	C1239.417969,569.815125 1254.526489,567.928040 1269.628784,565.992310 
	C1281.615723,564.455933 1293.594727,562.857422 1305.579712,561.304871 
	C1316.744751,559.858459 1327.909180,558.407654 1339.080444,557.010925 
	C1351.888794,555.409424 1364.709351,553.903564 1377.515259,552.282410 
	C1385.563477,551.263489 1393.589844,550.071289 1401.634644,549.024231 
	C1413.940796,547.422424 1426.253296,545.869629 1438.565186,544.312988 
	C1450.064941,542.858948 1461.569092,541.440125 1473.068237,539.981812 
	C1485.220337,538.440735 1497.371216,536.889343 1509.518311,535.309631 
	C1522.977661,533.559326 1536.432861,531.775085 1549.888916,529.999390 
	C1561.857910,528.419983 1573.823730,526.815125 1585.794922,525.252869 
	C1596.797607,523.817017 1607.801025,522.385681 1618.812744,521.021362 
	C1628.995605,519.759705 1639.196045,518.640320 1649.377197,517.365845 
	C1660.547241,515.967529 1671.696655,514.401855 1682.868774,513.021790 
	C1695.519531,511.459106 1708.195557,510.100067 1720.841553,508.501190 
	C1728.888306,507.483826 1736.888062,506.099060 1744.930420,505.042480 
	C1759.702393,503.101746 1774.488770,501.269501 1789.272095,499.414795 
	C1803.730835,497.600800 1818.197388,495.847961 1832.652832,494.007812 
	C1846.776855,492.209869 1860.891724,490.341370 1875.009277,488.492767 
	C1886.334595,487.009796 1897.652344,485.469086 1908.983154,484.029327 
	C1920.806519,482.526978 1932.645020,481.143524 1944.470337,479.656189 
	C1959.253906,477.796722 1974.029663,475.875305 1988.810913,473.997375 
	C2000.960693,472.453735 2013.110840,470.912415 2025.265747,469.410370 
	C2037.588257,467.887573 2049.916748,466.414246 2062.242676,464.919250 
z"/>
<path fill="#01BFD5" opacity="1.000000" stroke="none" 
	d="
M359.358093,537.063110 
	C359.270142,533.073303 359.105743,529.083557 359.105316,525.093750 
	C359.091736,400.454956 359.094177,275.816162 359.094147,151.177368 
	C359.094147,148.907410 359.094147,146.637436 359.094147,143.868958 
	C362.684784,144.150681 365.459839,144.452271 368.242737,144.574387 
	C426.486603,147.130173 484.734711,149.592941 542.975037,152.226730 
	C595.384338,154.596817 647.783508,157.188950 700.190552,159.609970 
	C740.124939,161.454788 780.064026,163.200531 820.002258,164.961395 
	C852.783325,166.406693 885.570068,167.728699 918.347595,169.249374 
	C970.082581,171.649567 1021.808228,174.251297 1073.544800,176.616913 
	C1122.967041,178.876678 1172.400024,180.901016 1221.824829,183.106796 
	C1279.228638,185.668701 1336.628052,188.327942 1394.030518,190.921616 
	C1440.788330,193.034332 1487.550659,195.051743 1534.305786,197.222580 
	C1586.374023,199.640076 1638.433105,202.258591 1690.502441,204.650467 
	C1741.917480,207.012299 1793.341797,209.175171 1844.760010,211.471298 
	C1901.333496,213.997635 1957.904785,216.573196 2014.476807,219.134689 
	C2028.618164,219.774979 2042.753662,220.615875 2056.901611,220.994370 
	C2061.164307,221.108414 2062.674805,222.256882 2062.647949,226.687332 
	C2062.462891,257.178406 2062.516602,287.670929 2061.937256,318.618835 
	C2057.459473,319.708862 2053.551025,320.444489 2049.613770,320.959198 
	C2035.011597,322.867950 2020.394409,324.663330 2005.793213,326.579315 
	C1992.499390,328.323700 1979.230347,330.258820 1965.929565,331.946411 
	C1951.156494,333.820801 1936.355225,335.472473 1921.574951,337.291626 
	C1909.258545,338.807526 1896.958008,340.449371 1884.644775,341.990753 
	C1873.973022,343.326630 1863.290649,344.577026 1852.618408,345.908142 
	C1844.569580,346.912048 1836.529297,347.984833 1828.485107,349.025146 
	C1816.506958,350.574280 1804.528564,352.121246 1792.550415,353.670410 
	C1784.014160,354.774414 1775.484741,355.935760 1766.940308,356.972473 
	C1754.452026,358.487732 1741.940063,359.815094 1729.462036,361.408264 
	C1718.466431,362.812164 1707.510864,364.526733 1696.524170,366.003174 
	C1682.254517,367.920715 1667.968628,369.716461 1653.695190,371.605408 
	C1640.406006,373.364136 1627.137085,375.283203 1613.834717,376.933899 
	C1601.184692,378.503601 1588.484985,379.673828 1575.839966,381.279053 
	C1559.262451,383.383484 1542.730103,385.843689 1526.154175,387.961273 
	C1511.540283,389.828217 1496.874390,391.289673 1482.265259,393.190430 
	C1460.768677,395.987274 1439.321411,399.166901 1417.817139,401.901245 
	C1397.447632,404.491302 1377.014282,406.578949 1356.640869,409.141357 
	C1334.310547,411.949982 1312.018188,415.062103 1289.706055,418.016449 
	C1276.412109,419.776672 1263.113403,421.502228 1249.813599,423.217255 
	C1234.715698,425.164215 1219.616943,427.103821 1204.513306,429.005219 
	C1192.852783,430.473145 1181.179321,431.839020 1169.520630,433.320160 
	C1157.539429,434.842285 1145.569580,436.452087 1133.593994,438.018158 
	C1119.811523,439.820435 1106.027588,441.611389 1092.245605,443.417389 
	C1078.130859,445.266998 1064.027710,447.207977 1049.901489,448.965210 
	C1032.650146,451.111267 1015.365967,452.997192 998.122131,455.200409 
	C981.543335,457.318604 965.009033,459.783875 948.434631,461.938812 
	C931.694092,464.115295 914.919250,466.027313 898.176025,468.183807 
	C878.644104,470.699432 859.137878,473.414703 839.606018,475.930603 
	C823.195496,478.044434 806.762878,479.985718 790.342468,482.022888 
	C771.449646,484.366791 752.550110,486.659332 733.670593,489.106079 
	C708.715881,492.340088 683.780701,495.723877 658.831421,499.000427 
	C645.866394,500.703064 632.886292,502.290253 619.918579,503.972900 
	C609.907410,505.271881 599.914795,506.717438 589.896423,507.956085 
	C575.276062,509.763672 560.626099,511.335358 546.014282,513.207336 
	C529.272278,515.352234 512.561096,517.737122 495.831055,519.976807 
	C483.531769,521.623352 471.225067,523.214783 458.919128,524.811157 
	C448.080078,526.217224 437.241974,527.632385 426.395294,528.977844 
	C413.420380,530.587219 400.437256,532.130615 387.456757,533.695068 
	C378.091309,534.823975 368.724365,535.940918 359.358093,537.063110 
z"/>
<path fill="#00E4FD" opacity="1.000000" stroke="none" 
	d="
M359.236816,537.510498 
	C368.724365,535.940918 378.091309,534.823975 387.456757,533.695068 
	C400.437256,532.130615 413.420380,530.587219 426.395294,528.977844 
	C437.241974,527.632385 448.080078,526.217224 458.919128,524.811157 
	C471.225067,523.214783 483.531769,521.623352 495.831055,519.976807 
	C512.561096,517.737122 529.272278,515.352234 546.014282,513.207336 
	C560.626099,511.335358 575.276062,509.763672 589.896423,507.956085 
	C599.914795,506.717438 609.907410,505.271881 619.918579,503.972900 
	C632.886292,502.290253 645.866394,500.703064 658.831421,499.000427 
	C683.780701,495.723877 708.715881,492.340088 733.670593,489.106079 
	C752.550110,486.659332 771.449646,484.366791 790.342468,482.022888 
	C806.762878,479.985718 823.195496,478.044434 839.606018,475.930603 
	C859.137878,473.414703 878.644104,470.699432 898.176025,468.183807 
	C914.919250,466.027313 931.694092,464.115295 948.434631,461.938812 
	C965.009033,459.783875 981.543335,457.318604 998.122131,455.200409 
	C1015.365967,452.997192 1032.650146,451.111267 1049.901489,448.965210 
	C1064.027710,447.207977 1078.130859,445.266998 1092.245605,443.417389 
	C1106.027588,441.611389 1119.811523,439.820435 1133.593994,438.018158 
	C1145.569580,436.452087 1157.539429,434.842285 1169.520630,433.320160 
	C1181.179321,431.839020 1192.852783,430.473145 1204.513306,429.005219 
	C1219.616943,427.103821 1234.715698,425.164215 1249.813599,423.217255 
	C1263.113403,421.502228 1276.412109,419.776672 1289.706055,418.016449 
	C1312.018188,415.062103 1334.310547,411.949982 1356.640869,409.141357 
	C1377.014282,406.578949 1397.447632,404.491302 1417.817139,401.901245 
	C1439.321411,399.166901 1460.768677,395.987274 1482.265259,393.190430 
	C1496.874390,391.289673 1511.540283,389.828217 1526.154175,387.961273 
	C1542.730103,385.843689 1559.262451,383.383484 1575.839966,381.279053 
	C1588.484985,379.673828 1601.184692,378.503601 1613.834717,376.933899 
	C1627.137085,375.283203 1640.406006,373.364136 1653.695190,371.605408 
	C1667.968628,369.716461 1682.254517,367.920715 1696.524170,366.003174 
	C1707.510864,364.526733 1718.466431,362.812164 1729.462036,361.408264 
	C1741.940063,359.815094 1754.452026,358.487732 1766.940308,356.972473 
	C1775.484741,355.935760 1784.014160,354.774414 1792.550415,353.670410 
	C1804.528564,352.121246 1816.506958,350.574280 1828.485107,349.025146 
	C1836.529297,347.984833 1844.569580,346.912048 1852.618408,345.908142 
	C1863.290649,344.577026 1873.973022,343.326630 1884.644775,341.990753 
	C1896.958008,340.449371 1909.258545,338.807526 1921.574951,337.291626 
	C1936.355225,335.472473 1951.156494,333.820801 1965.929565,331.946411 
	C1979.230347,330.258820 1992.499390,328.323700 2005.793213,326.579315 
	C2020.394409,324.663330 2035.011597,322.867950 2049.613770,320.959198 
	C2053.551025,320.444489 2057.459473,319.708862 2061.812988,319.080261 
	C2062.341797,320.244049 2062.523682,321.402252 2062.523438,322.560425 
	C2062.515869,369.713867 2062.491699,416.867310 2062.356201,464.469971 
	C2049.916748,466.414246 2037.588257,467.887573 2025.265747,469.410370 
	C2013.110840,470.912415 2000.960693,472.453735 1988.810913,473.997375 
	C1974.029663,475.875305 1959.253906,477.796722 1944.470337,479.656189 
	C1932.645020,481.143524 1920.806519,482.526978 1908.983154,484.029327 
	C1897.652344,485.469086 1886.334595,487.009796 1875.009277,488.492767 
	C1860.891724,490.341370 1846.776855,492.209869 1832.652832,494.007812 
	C1818.197388,495.847961 1803.730835,497.600800 1789.272095,499.414795 
	C1774.488770,501.269501 1759.702393,503.101746 1744.930420,505.042480 
	C1736.888062,506.099060 1728.888306,507.483826 1720.841553,508.501190 
	C1708.195557,510.100067 1695.519531,511.459106 1682.868774,513.021790 
	C1671.696655,514.401855 1660.547241,515.967529 1649.377197,517.365845 
	C1639.196045,518.640320 1628.995605,519.759705 1618.812744,521.021362 
	C1607.801025,522.385681 1596.797607,523.817017 1585.794922,525.252869 
	C1573.823730,526.815125 1561.857910,528.419983 1549.888916,529.999390 
	C1536.432861,531.775085 1522.977661,533.559326 1509.518311,535.309631 
	C1497.371216,536.889343 1485.220337,538.440735 1473.068237,539.981812 
	C1461.569092,541.440125 1450.064941,542.858948 1438.565186,544.312988 
	C1426.253296,545.869629 1413.940796,547.422424 1401.634644,549.024231 
	C1393.589844,550.071289 1385.563477,551.263489 1377.515259,552.282410 
	C1364.709351,553.903564 1351.888794,555.409424 1339.080444,557.010925 
	C1327.909180,558.407654 1316.744751,559.858459 1305.579712,561.304871 
	C1293.594727,562.857422 1281.615723,564.455933 1269.628784,565.992310 
	C1254.526489,567.928040 1239.417969,569.815125 1224.313599,571.734375 
	C1213.310547,573.132507 1202.307373,574.531677 1191.308350,575.961121 
	C1178.510376,577.624329 1165.719849,579.344727 1152.920654,580.997070 
	C1138.142944,582.904846 1123.355957,584.740784 1108.578979,586.654053 
	C1095.114136,588.397339 1081.658813,590.212463 1068.196777,591.977173 
	C1053.594116,593.891541 1038.992676,595.816345 1024.383057,597.676147 
	C1012.720276,599.160889 1001.041138,600.517944 989.377808,601.998779 
	C975.255432,603.791748 961.147888,605.701477 947.023254,607.475891 
	C931.912598,609.374146 916.784302,611.132202 901.673523,613.030273 
	C890.501770,614.433655 879.348694,615.985229 868.182068,617.430298 
	C856.194702,618.981567 844.200867,620.482910 832.210388,622.010315 
	C815.621887,624.123413 799.035706,626.253967 782.445251,628.351562 
	C769.967773,629.929138 757.478943,631.418274 745.006897,633.036804 
	C734.501648,634.400146 724.019592,635.942322 713.515686,637.315857 
	C701.208496,638.925049 688.890137,640.449341 676.573914,641.988403 
	C664.908569,643.446045 653.229309,644.797119 641.574951,646.337097 
	C627.959961,648.136169 614.373413,650.150024 600.759766,651.959839 
	C583.205139,654.293457 565.643188,656.574768 548.070801,658.770325 
	C533.444031,660.597900 518.788086,662.193359 504.163116,664.035095 
	C493.486328,665.379517 482.850739,667.049988 472.175354,668.406738 
	C459.368134,670.034546 446.530823,671.425049 433.720612,673.030518 
	C425.508911,674.059753 417.329529,675.344727 409.123260,676.420288 
	C397.146820,677.989990 385.165497,679.526978 373.173004,680.967285 
	C368.901062,681.480347 364.590393,681.670898 359.872559,682.004211 
	C359.319550,681.017883 359.079376,680.035950 359.079346,679.054077 
	C359.078369,632.022034 359.098114,584.989929 359.236816,537.510498 
z"/>
<path fill="#D0D0D0" opacity="1.000000" stroke="none" 
	d="
M581.563843,125.075439 
	C575.508911,124.566231 569.878967,124.043243 563.709717,123.470154 
	C566.454285,120.636894 578.523254,119.969696 586.539917,121.941437 
	C584.608459,123.265671 583.298706,124.163673 581.563843,125.075439 
z"/>
<path fill="#D0D0D0" opacity="1.000000" stroke="none" 
	d="
M550.964478,120.922302 
	C554.560974,120.922226 557.669006,120.922226 560.776978,120.922226 
	C560.756348,121.612305 560.735718,122.302391 560.715027,122.992470 
	C553.045898,122.992470 545.376770,122.992470 537.707642,122.992470 
	C537.697327,122.302437 537.687012,121.612411 537.676697,120.922379 
	C541.943115,120.922379 546.209534,120.922379 550.964478,120.922302 
z"/>
<path fill="#D0D0D0" opacity="1.000000" stroke="none" 
	d="
M516.974854,120.955673 
	C520.134949,120.915756 522.917603,120.915756 525.700256,120.915756 
	C525.709656,121.158722 525.719055,121.401680 525.728455,121.644646 
	C522.561951,121.644646 519.395386,121.644798 516.228943,121.630936 
	C516.223694,121.630913 516.173706,121.390205 516.224548,121.318756 
	C516.317200,121.188530 516.469849,121.100960 516.974854,120.955673 
z"/>
<path fill="#050505" opacity="1.000000" stroke="none" 
	d="
M1998.505371,190.493256 
	C1998.504150,190.512207 1998.506592,190.474289 1998.505371,190.493256 
z"/>
</svg>