<svg version="1.1" id="Layer_1" xmlns="http://www.w3.org/2000/svg" xmlns:xlink="http://www.w3.org/1999/xlink" x="0px" y="0px"
	 width="100%" viewBox="0 0 2752 1352" enable-background="new 0 0 2752 1352" xml:space="preserve">
<path fill="#F1F1F1" opacity="1.000000" stroke="none" 
	d="
M1847.000000,1353.000000 
	C1231.333374,1353.000000 616.166687,1353.000000 1.000000,1353.000000 
	C1.000000,902.333313 1.000000,451.666656 1.000000,1.000000 
	C918.333313,1.000000 1835.666626,1.000000 2753.000000,1.000000 
	C2753.000000,451.666656 2753.000000,902.333313 2753.000000,1353.000000 
	C2451.166748,1353.000000 2149.333252,1353.000000 1847.000000,1353.000000 
M2750.219482,815.500061 
	C2750.219482,551.669495 2750.219482,287.838959 2750.219238,24.008419 
	C2750.219238,19.008656 2750.035156,13.999931 2750.280762,9.012304 
	C2750.441162,5.753322 2749.418701,4.642981 2746.082031,4.651443 
	C2695.250732,4.780354 2644.419434,4.841781 2593.587891,4.842225 
	C1773.760742,4.849387 953.933655,4.845362 134.106567,4.845011 
	C93.940804,4.844994 53.775032,4.866525 13.609272,4.852892 
	C3.920567,4.849604 3.914390,4.803467 3.914313,14.196821 
	C3.910705,455.193420 3.908201,896.190063 3.906013,1337.186646 
	C3.905946,1350.661133 3.907988,1350.657959 17.352001,1350.658081 
	C916.178406,1350.666504 1815.004883,1350.675537 2713.831299,1350.682129 
	C2724.331055,1350.682129 2734.833252,1350.510986 2745.328857,1350.708496 
	C2749.311768,1350.783569 2750.325439,1349.418335 2750.323242,1345.496094 
	C2750.218994,1169.164062 2750.225830,992.832092 2750.219482,815.500061 
z"/>
<path fill="#1D1D1D" opacity="1.000000" stroke="none" 
	d="
M2750.219482,816.000122 
	C2750.225830,992.832092 2750.218994,1169.164062 2750.323242,1345.496094 
	C2750.325439,1349.418335 2749.311768,1350.783569 2745.328857,1350.708496 
	C2734.833252,1350.510986 2724.331055,1350.682129 2713.831299,1350.682129 
	C1815.004883,1350.675537 916.178406,1350.666504 17.352001,1350.658081 
	C3.907988,1350.657959 3.905946,1350.661133 3.906013,1337.186646 
	C3.908201,896.190063 3.910705,455.193420 3.914313,14.196821 
	C3.914390,4.803467 3.920567,4.849604 13.609272,4.852892 
	C53.775032,4.866525 93.940804,4.844994 134.106567,4.845011 
	C953.933655,4.845362 1773.760742,4.849387 2593.587891,4.842225 
	C2644.419434,4.841781 2695.250732,4.780354 2746.082031,4.651443 
	C2749.418701,4.642981 2750.441162,5.753322 2750.280762,9.012304 
	C2750.035156,13.999931 2750.219238,19.008656 2750.219238,24.008419 
	C2750.219482,287.838959 2750.219482,551.669495 2750.219482,816.000122 
M2745.283691,1343.046021 
	C2745.291748,1342.046509 2745.306396,1341.046875 2745.306396,1340.047363 
	C2745.312988,899.365356 2745.318604,458.683411 2745.317139,18.001411 
	C2745.317139,16.005201 2745.218262,14.008990 2745.500732,11.434881 
	C2745.595215,8.933561 2746.104004,6.056610 2741.207764,7.437158 
	C2740.770752,7.555896 2740.333984,7.674635 2739.115967,7.524176 
	C2737.466553,7.569901 2735.817383,7.615625 2733.273193,7.356544 
	C2730.455566,7.480190 2727.637695,7.603836 2723.918945,7.598058 
	C2681.205566,7.615177 2638.491943,7.632297 2595.033936,7.358745 
	C2593.368896,7.317121 2591.703613,7.239028 2590.038574,7.239017 
	C1771.438354,7.233787 952.838135,7.233545 134.237961,7.252944 
	C132.429932,7.252987 130.621887,7.543405 127.909386,7.601315 
	C93.663582,7.641966 59.417774,7.682616 24.363453,7.398357 
	C21.897402,7.523840 19.431353,7.649323 16.415213,7.680140 
	C16.230812,7.704932 16.046413,7.729724 15.138127,7.467620 
	C13.091698,7.331249 11.045268,7.194879 8.676300,7.037015 
	C8.866827,9.836595 9.009221,11.928921 8.992614,14.943984 
	C8.973311,16.276453 8.937096,17.608921 8.937089,18.941391 
	C8.934969,456.626373 8.935101,894.311340 8.943430,1331.996338 
	C8.943461,1333.658203 9.062285,1335.319946 8.925980,1337.868652 
	C8.910913,1340.882324 8.895846,1343.895874 8.910085,1347.513428 
	C9.267812,1347.666748 9.625540,1347.820068 10.495522,1348.166138 
	C10.666884,1348.103516 10.838247,1348.041016 11.884035,1347.998413 
	C15.050032,1348.000610 18.216028,1348.004517 21.382025,1348.004517 
	C924.914734,1348.005127 1828.447510,1348.005615 2731.980225,1348.002563 
	C2734.645264,1348.002563 2737.310303,1347.951172 2740.786865,1348.096313 
	C2743.819824,1348.393677 2746.930176,1348.773193 2745.283691,1343.046021 
z"/>
<path fill="#D8D8D8" opacity="1.000000" stroke="none" 
	d="
M2734.167969,7.661351 
	C2735.817383,7.615625 2737.466553,7.569901 2739.371826,7.966012 
	C2739.084961,10.716708 2738.067627,13.025495 2738.067139,15.334453 
	C2737.997559,454.934357 2737.999756,894.534241 2738.000977,1334.134155 
	C2738.000977,1335.633789 2737.780762,1337.188843 2738.113281,1338.612793 
	C2738.320557,1339.500488 2739.374756,1340.190430 2740.051025,1341.303467 
	C2740.056152,1342.082031 2740.059082,1342.526367 2739.666992,1342.993530 
	C2737.015869,1343.344849 2734.759766,1343.961060 2732.503906,1343.961182 
	C1866.557251,1344.001831 1000.610474,1344.000732 134.663788,1343.999512 
	C94.117935,1343.999390 53.572075,1343.990845 12.991787,1343.519287 
	C12.920075,1337.887939 12.850220,1332.723389 12.850161,1327.558838 
	C12.845189,891.492188 12.847048,455.425568 12.810159,19.358942 
	C12.809952,16.906277 12.271849,14.453659 12.003466,11.735574 
	C12.005628,11.293489 11.989257,11.116852 12.345294,10.891068 
	C13.765806,9.812786 14.813910,8.783651 15.862014,7.754517 
	C16.046413,7.729724 16.230812,7.704932 16.939581,8.020311 
	C20.033289,8.148078 22.602631,7.935672 25.171970,7.723266 
	C59.417774,7.682616 93.663582,7.641966 128.513916,7.927028 
	C130.312012,9.056255 131.450180,10.432441 132.709717,10.554341 
	C136.279266,10.899809 139.898468,10.762353 143.498123,10.762372 
	C957.448303,10.766767 1771.398438,10.767492 2585.348633,10.731452 
	C2588.147217,10.731328 2590.973633,10.344487 2593.726562,9.820149 
	C2594.519775,9.669058 2595.100342,8.403849 2595.778564,7.649431 
	C2638.491943,7.632297 2681.205566,7.615177 2724.597168,7.927204 
	C2728.239502,8.058017 2731.203613,7.859684 2734.167969,7.661351 
M2131.634766,1318.531616 
	C2131.763672,1316.729492 2131.980713,1314.928589 2132.007080,1313.124878 
	C2132.140137,1304.026245 2132.223877,1294.926758 2133.218506,1285.888550 
	C2134.882568,1285.898926 2136.546631,1285.918213 2138.210693,1285.918213 
	C2284.041748,1285.918091 2429.872803,1285.909302 2575.703857,1285.960938 
	C2579.063721,1285.962158 2582.427490,1286.982666 2585.782959,1286.946045 
	C2594.333740,1286.853149 2602.938965,1286.899414 2611.393555,1285.852173 
	C2613.909424,1285.540405 2617.065918,1282.167969 2618.004639,1279.516968 
	C2619.087158,1276.458618 2617.933594,1272.646729 2617.933350,1269.161987 
	C2617.918457,871.168213 2617.924316,473.174408 2617.844482,75.180618 
	C2617.843994,72.500031 2616.672363,69.819672 2615.957275,66.751404 
	C2613.932373,67.835052 2613.063477,68.707443 2612.208252,68.694099 
	C2604.571777,68.574867 2596.935547,68.057076 2589.303467,68.128288 
	C2578.572754,68.228409 2567.845947,69.020554 2557.117432,69.021187 
	C1755.629883,69.068481 954.142395,69.066902 152.654907,69.066551 
	C150.322144,69.066551 147.988861,68.986397 145.656677,69.014336 
	C133.518097,69.159721 132.134384,66.482132 132.132385,80.921524 
	C132.077621,476.748657 132.089523,872.575806 132.083496,1268.402954 
	C132.083466,1270.233276 131.851303,1272.071777 131.961685,1273.892212 
	C132.205093,1277.906494 132.598267,1281.911743 133.150879,1286.692627 
	C134.805817,1287.119873 136.468491,1287.942261 138.114426,1287.910034 
	C148.355698,1287.709961 158.593216,1287.032837 168.832016,1287.031494 
	C549.325989,1286.982544 929.820007,1286.992065 1310.313965,1286.949097 
	C1312.546997,1286.948853 1314.779907,1286.323975 1317.751953,1285.945068 
	C1318.491821,1285.956055 1319.231689,1285.967041 1320.574585,1286.565186 
	C1321.383179,1286.707031 1322.191650,1286.972534 1323.000366,1286.973022 
	C1358.113525,1286.993286 1393.226685,1287.000366 1428.339722,1286.946899 
	C1429.569946,1286.945068 1430.798950,1286.314819 1432.922974,1285.931030 
	C1435.610474,1285.947876 1438.297852,1285.964844 1441.181641,1286.748535 
	C1442.345947,1287.159668 1443.519775,1287.950195 1444.673096,1287.921143 
	C1453.293823,1287.704224 1461.912109,1287.356812 1470.526367,1286.948242 
	C1471.400146,1286.906860 1472.241943,1286.191528 1473.741089,1285.835327 
	C1474.162231,1285.902344 1474.583252,1285.969360 1475.181030,1286.822266 
	C1475.865479,1287.204224 1476.532471,1287.882324 1477.236938,1287.924072 
	C1489.654419,1288.656372 1502.083862,1289.203247 1514.493774,1290.039917 
	C1519.016479,1290.344971 1523.478516,1291.517334 1528.001221,1291.871948 
	C1530.421997,1292.061768 1532.919067,1291.056152 1535.371338,1291.105103 
	C1545.257935,1291.301636 1555.140381,1291.698853 1565.615234,1291.978516 
	C1566.075928,1291.658081 1566.536621,1291.337769 1567.660278,1290.858765 
	C1568.107666,1290.915894 1568.555054,1290.973022 1569.123901,1291.765015 
	C1571.671997,1292.367920 1574.192871,1293.216431 1576.776123,1293.502441 
	C1579.197632,1293.770264 1581.693481,1293.282959 1584.141479,1293.413330 
	C1588.471924,1293.644043 1592.785034,1294.207153 1597.115845,1294.422119 
	C1604.463867,1294.786987 1611.824951,1294.899780 1619.171387,1295.289185 
	C1624.691284,1295.581665 1630.194702,1296.173096 1635.710083,1296.566406 
	C1637.648438,1296.704590 1639.619141,1296.488281 1641.543091,1296.710693 
	C1650.514282,1297.747925 1659.451416,1299.186157 1668.447266,1299.863525 
	C1673.549561,1300.247803 1678.744995,1299.195679 1683.891846,1299.268188 
	C1686.776611,1299.308716 1689.644409,1300.783081 1692.525391,1300.802979 
	C1698.259888,1300.842529 1703.997192,1300.304321 1709.735718,1300.057739 
	C1710.537842,1300.023193 1711.892700,1300.042969 1712.077271,1300.451050 
	C1713.670532,1303.973511 1716.246704,1301.837280 1718.447510,1301.696167 
	C1721.248047,1301.516846 1724.064331,1300.946533 1726.838379,1301.118408 
	C1733.939941,1301.558105 1741.015991,1302.395508 1748.113525,1302.922729 
	C1755.094360,1303.441040 1762.086060,1303.839722 1769.078979,1304.159546 
	C1772.664185,1304.323486 1776.262573,1304.197876 1779.854980,1304.208252 
	C1781.176514,1304.212036 1782.501587,1304.170776 1783.818848,1304.252808 
	C1789.629517,1304.614258 1795.443115,1304.949463 1801.244873,1305.425781 
	C1804.091675,1305.659668 1806.909790,1306.223999 1809.750122,1306.561279 
	C1813.671509,1307.026978 1817.594116,1307.641113 1821.530518,1307.778320 
	C1825.177856,1307.905640 1828.843628,1307.377563 1832.502441,1307.355713 
	C1834.637207,1307.342896 1836.771973,1307.916504 1838.911011,1307.949219 
	C1845.127075,1308.044556 1851.464233,1307.067627 1857.243042,1310.461426 
	C1857.710327,1310.735840 1858.516357,1310.368408 1859.152222,1310.430542 
	C1864.837158,1310.986206 1870.623779,1307.310181 1876.245728,1310.832520 
	C1876.493286,1310.987549 1876.972412,1311.028076 1877.218140,1310.893188 
	C1882.738281,1307.863647 1888.539795,1310.447510 1894.188599,1310.176880 
	C1899.861816,1309.905029 1905.592285,1310.907349 1911.301636,1311.290405 
	C1917.300781,1311.692627 1923.302490,1312.068970 1929.307739,1312.359497 
	C1931.447632,1312.463135 1933.608154,1312.149536 1935.747192,1312.259521 
	C1939.884399,1312.472290 1944.011841,1312.866333 1948.145874,1313.149658 
	C1949.299683,1313.229004 1951.036865,1312.694458 1951.530151,1313.273560 
	C1955.779297,1318.258423 1960.519775,1315.060791 1965.184937,1314.476196 
	C1971.774292,1313.650391 1978.343628,1313.431519 1983.727295,1319.072998 
	C1985.823486,1315.562134 1988.343506,1315.008057 1992.378174,1316.363647 
	C1996.487549,1317.744141 2001.169067,1317.577515 2005.613159,1317.745361 
	C2008.224365,1317.843872 2010.933594,1316.764771 2013.468506,1317.127197 
	C2017.027100,1317.635864 2020.614868,1320.148071 2023.919067,1319.718628 
	C2029.026855,1319.054688 2033.790527,1319.206299 2038.909302,1319.744141 
	C2049.406006,1320.847290 2060.040283,1320.639648 2070.617920,1320.977295 
	C2081.164062,1321.313843 2091.718018,1321.507935 2102.252930,1322.062012 
	C2107.412598,1322.333374 2112.618896,1324.129395 2117.649902,1323.642578 
	C2121.439209,1323.276123 2126.372803,1325.192505 2129.520996,1320.780884 
	C2129.520996,1320.780884 2129.865967,1320.890259 2130.404297,1320.694092 
	C2130.627441,1320.190674 2130.850586,1319.687378 2131.634766,1318.531616 
z"/>
<path fill="#A0A0A0" opacity="1.000000" stroke="none" 
	d="
M2595.406250,7.504096 
	C2595.100342,8.403849 2594.519775,9.669058 2593.726562,9.820149 
	C2590.973633,10.344487 2588.147217,10.731328 2585.348633,10.731452 
	C1771.398438,10.767492 957.448303,10.766767 143.498123,10.762372 
	C139.898468,10.762353 136.279266,10.899809 132.709717,10.554341 
	C131.450180,10.432441 130.312012,9.056255 128.966156,7.975467 
	C130.621887,7.543405 132.429932,7.252987 134.237961,7.252944 
	C952.838135,7.233545 1771.438354,7.233787 2590.038574,7.239017 
	C2591.703613,7.239028 2593.368896,7.317121 2595.406250,7.504096 
z"/>
<path fill="#D8D8D8" opacity="1.000000" stroke="none" 
	d="
M2739.975342,1347.923828 
	C2737.310303,1347.951172 2734.645264,1348.002563 2731.980225,1348.002563 
	C1828.447510,1348.005615 924.914734,1348.005127 21.382025,1348.004517 
	C18.216028,1348.004517 15.050032,1348.000610 11.338959,1347.621460 
	C10.864979,1346.744263 10.936075,1346.244141 11.324741,1345.842773 
	C12.084489,1345.951538 12.526668,1345.961548 13.419600,1345.983765 
	C917.944885,1345.997314 1822.019409,1345.998901 2726.093994,1345.997070 
	C2730.759521,1345.997070 2735.425049,1345.949097 2740.301270,1346.055542 
	C2740.333008,1346.766235 2740.154297,1347.344971 2739.975342,1347.923828 
z"/>
<path fill="#A0A0A0" opacity="1.000000" stroke="none" 
	d="
M11.007181,1345.743896 
	C10.936075,1346.244141 10.864979,1346.744263 10.901747,1347.611450 
	C10.838247,1348.041016 10.666884,1348.103516 10.175794,1347.796753 
	C9.530966,1347.254761 9.205868,1347.082153 8.880774,1346.909546 
	C8.895846,1343.895874 8.910913,1340.882324 9.410910,1337.323730 
	C10.268198,1334.591309 10.966599,1332.403809 10.966838,1330.216309 
	C11.014576,893.814697 11.012932,457.413116 11.012379,21.011532 
	C11.012377,19.511902 11.223637,17.965969 10.920612,16.529327 
	C10.726666,15.609832 9.767649,14.851711 9.151615,14.021246 
	C9.009221,11.928921 8.866827,9.836595 8.676300,7.037015 
	C11.045268,7.194879 13.091698,7.331249 15.500071,7.611068 
	C14.813910,8.783651 13.765806,9.812786 12.206270,10.746751 
	C11.791537,11.101394 11.888234,11.551207 11.984932,12.001019 
	C12.271849,14.453659 12.809952,16.906277 12.810159,19.358942 
	C12.847048,455.425568 12.845189,891.492188 12.850161,1327.558838 
	C12.850220,1332.723389 12.920075,1337.887939 12.971828,1343.766113 
	C12.986303,1344.479614 12.947300,1344.972168 12.676657,1344.996338 
	C11.939740,1345.261719 11.473466,1345.502808 11.007181,1345.743896 
z"/>
<path fill="#C6C6C6" opacity="1.000000" stroke="none" 
	d="
M2740.048828,1340.969238 
	C2739.374756,1340.190430 2738.320557,1339.500488 2738.113281,1338.612793 
	C2737.780762,1337.188843 2738.000977,1335.633789 2738.000977,1334.134155 
	C2737.999756,894.534241 2737.997559,454.934357 2738.067139,15.334453 
	C2738.067627,13.025495 2739.084961,10.716708 2739.762207,8.100611 
	C2740.333984,7.674635 2740.770752,7.555896 2741.600098,7.803320 
	C2741.340332,10.437230 2740.688477,12.704976 2740.020508,15.425080 
	C2740.002686,455.769531 2740.001465,895.661621 2740.003174,1335.553711 
	C2740.003174,1337.052612 2740.052246,1338.551514 2740.084473,1340.280518 
	C2740.090820,1340.510620 2740.048828,1340.969238 2740.048828,1340.969238 
z"/>
<path fill="#D1D1D1" opacity="1.000000" stroke="none" 
	d="
M2745.165527,12.012812 
	C2745.218262,14.008990 2745.317139,16.005201 2745.317139,18.001411 
	C2745.318604,458.683411 2745.312988,899.365356 2745.306396,1340.047363 
	C2745.306396,1341.046875 2745.291748,1342.046509 2744.928223,1343.665283 
	C2743.968994,1344.555664 2743.365234,1344.826660 2742.840820,1344.739502 
	C2742.900146,1343.896362 2742.880127,1343.411377 2742.886719,1342.564575 
	C2742.926514,1341.477417 2742.939209,1340.752075 2742.972656,1339.575439 
	C2742.996826,898.571655 2743.000488,458.019226 2743.001709,17.466848 
	C2743.001709,16.634251 2742.963379,15.801652 2742.948730,14.593040 
	C2743.691650,13.482300 2744.428711,12.747571 2745.165527,12.012812 
z"/>
<path fill="#AEAEAE" opacity="1.000000" stroke="none" 
	d="
M9.072115,14.482615 
	C9.767649,14.851711 10.726666,15.609832 10.920612,16.529327 
	C11.223637,17.965969 11.012377,19.511902 11.012379,21.011532 
	C11.012932,457.413116 11.014576,893.814697 10.966838,1330.216309 
	C10.966599,1332.403809 10.268198,1334.591309 9.510733,1336.880371 
	C9.062285,1335.319946 8.943461,1333.658203 8.943430,1331.996338 
	C8.935101,894.311340 8.934969,456.626373 8.937089,18.941391 
	C8.937096,17.608921 8.973311,16.276453 9.072115,14.482615 
z"/>
<path fill="#A0A0A0" opacity="1.000000" stroke="none" 
	d="
M2745.333008,11.723862 
	C2744.428711,12.747571 2743.691650,13.482300 2742.587402,14.604176 
	C2741.492432,14.985114 2740.764648,14.978904 2740.036621,14.972708 
	C2740.688477,12.704976 2741.340332,10.437230 2741.943359,7.812487 
	C2746.104004,6.056610 2745.595215,8.933561 2745.333008,11.723862 
z"/>
<path fill="#A0A0A0" opacity="1.000000" stroke="none" 
	d="
M2742.761719,1345.097656 
	C2743.365234,1344.826660 2743.968994,1344.555664 2744.869629,1344.129395 
	C2746.930176,1348.773193 2743.819824,1348.393677 2740.381104,1348.010010 
	C2740.154297,1347.344971 2740.333008,1346.766235 2740.293945,1345.851074 
	C2740.075928,1345.514771 2740.174561,1345.113037 2740.496826,1345.084961 
	C2741.466553,1345.070312 2742.114258,1345.083984 2742.761719,1345.097656 
z"/>
<path fill="#A0A0A0" opacity="1.000000" stroke="none" 
	d="
M2733.720703,7.508947 
	C2731.203613,7.859684 2728.239502,8.058017 2725.047607,7.991916 
	C2727.637695,7.603836 2730.455566,7.480190 2733.720703,7.508947 
z"/>
<path fill="#A0A0A0" opacity="1.000000" stroke="none" 
	d="
M24.767712,7.560812 
	C22.602631,7.935672 20.033289,8.148078 17.214626,8.067645 
	C19.431353,7.649323 21.897402,7.523840 24.767712,7.560812 
z"/>
<path fill="#D8D8D8" opacity="1.000000" stroke="none" 
	d="
M8.895427,1347.211426 
	C9.205868,1347.082153 9.530966,1347.254761 9.919666,1347.700439 
	C9.625540,1347.820068 9.267812,1347.666748 8.895427,1347.211426 
z"/>
<path fill="#080808" opacity="1.000000" stroke="none" 
	d="
M1475.004395,1286.036377 
	C1474.583252,1285.969360 1474.162231,1285.902344 1473.173828,1285.455566 
	C1465.757324,1284.775146 1458.907837,1284.474609 1451.687256,1283.968140 
	C1449.157104,1283.658325 1446.998047,1283.465454 1444.838867,1283.463867 
	C1401.013916,1283.430908 1357.189087,1283.403198 1313.364136,1283.407104 
	C926.051147,1283.441284 538.738159,1283.481812 151.425201,1283.520386 
	C148.028854,1283.520752 144.632492,1283.520508 141.531540,1283.520508 
	C141.531540,879.485535 141.531540,475.860565 141.531540,72.053139 
	C965.475281,72.053139 1789.515869,72.053139 2613.526367,72.053139 
	C2613.526367,475.824493 2613.526367,879.315796 2613.526367,1283.405884 
	C2604.115234,1283.405884 2594.809570,1283.406006 2585.504150,1283.405884 
	C2437.178223,1283.404785 2288.852539,1283.401367 2140.526611,1283.421387 
	C2137.714844,1283.421753 2134.903320,1283.702637 2131.641357,1283.766724 
	C2130.428711,1285.006226 2129.022217,1286.323608 2129.005615,1287.658325 
	C2128.870605,1298.475708 2128.996094,1309.296143 2128.575684,1320.146973 
	C2125.781250,1320.126831 2123.449951,1320.136963 2121.125488,1320.014526 
	C2094.024902,1318.588623 2066.922607,1317.189453 2039.826050,1315.691895 
	C1988.786133,1312.870972 1937.751831,1309.950195 1886.710938,1307.148560 
	C1852.958252,1305.295776 1819.197144,1303.599487 1785.441895,1301.793457 
	C1754.018555,1300.112183 1722.596924,1298.400513 1691.176758,1296.660400 
	C1666.072632,1295.270264 1640.979492,1293.664062 1615.867188,1292.447754 
	C1600.259399,1291.691772 1584.624878,1291.484009 1569.002441,1291.030151 
	C1568.555054,1290.973022 1568.107666,1290.915894 1566.997803,1290.867310 
	C1565.890015,1290.923828 1565.444702,1290.971802 1564.580933,1290.908936 
	C1563.107056,1290.431274 1562.068726,1289.812744 1560.993042,1289.738647 
	C1554.269897,1289.275269 1547.542114,1288.840454 1540.808838,1288.568848 
	C1518.875610,1287.684570 1496.939453,1286.874756 1475.004395,1286.036377 
M1421.783936,196.174744 
	C1476.666260,199.162949 1531.547852,202.164536 1586.431152,205.135391 
	C1635.496094,207.791321 1684.562256,210.430374 1733.629639,213.042038 
	C1753.416870,214.095230 1773.208984,215.055664 1793.792969,216.336075 
	C1797.617065,216.513550 1801.442505,216.663879 1805.264893,216.872772 
	C1837.343872,218.625717 1869.424927,220.341675 1901.500122,222.162079 
	C1941.029541,224.405533 1980.549194,226.826279 2020.082275,228.999344 
	C2042.851929,230.250946 2065.645020,231.069016 2088.417725,232.266312 
	C2102.020020,232.981491 2115.604004,234.052719 2129.072266,235.885788 
	C2129.025391,237.216400 2128.937256,238.546997 2128.937256,239.877609 
	C2128.933105,561.603271 2128.934082,883.328918 2128.948975,1205.054565 
	C2128.949219,1207.040771 2129.141357,1209.026978 2128.909912,1211.827759 
	C2130.414795,1212.500610 2131.919189,1213.760864 2133.424561,1213.762329 
	C2236.590088,1213.856201 2339.755859,1213.849121 2442.921387,1213.850464 
	C2444.684814,1213.850464 2446.447998,1213.850464 2448.319336,1213.850464 
	C2448.319336,1211.265625 2448.319336,1209.284302 2448.319336,1207.303101 
	C2448.319824,854.473145 2448.320068,501.643219 2448.324463,148.813278 
	C2448.324463,147.150024 2448.648193,145.430420 2448.307617,143.847534 
	C2448.139648,143.067413 2446.797119,142.540085 2445.083740,141.630997 
	C2443.750488,141.620544 2442.417480,141.600952 2441.084229,141.600952 
	C1811.941040,141.605652 1182.797729,141.617065 553.654480,141.604492 
	C515.324646,141.603729 476.994812,141.399826 438.664917,141.334412 
	C435.548706,141.329102 432.431915,141.665619 429.315399,141.843307 
	C438.046173,143.038391 446.698853,143.446869 455.349304,143.899033 
	C495.777222,146.012131 536.206482,148.100418 576.631470,150.269318 
	C612.063721,152.170349 647.488586,154.208572 682.920776,156.110367 
	C727.837036,158.521194 772.760132,160.803284 817.675049,163.238724 
	C855.435547,165.286209 893.184814,167.539993 930.945557,169.583954 
	C989.169617,172.735611 1047.400879,175.754974 1105.625732,178.890411 
	C1143.551025,180.932709 1181.468506,183.117752 1219.393066,185.172897 
	C1265.140015,187.651947 1310.889771,190.076935 1356.640015,192.492706 
	C1374.437134,193.432465 1392.239136,194.283310 1410.637695,195.428085 
	C1411.058105,195.367416 1411.478516,195.306747 1412.652710,195.517120 
	C1415.432373,195.639603 1418.211914,195.762070 1421.783936,196.174744 
M2606.003906,115.500000 
	C2606.003906,102.396683 2606.003906,89.293365 2606.003906,76.208755 
	C1786.828613,76.208755 968.267822,76.208755 149.736755,76.208755 
	C149.736755,477.420105 149.736755,878.348633 149.736755,1279.285889 
	C549.426331,1279.285889 948.848145,1279.285889 1348.269897,1279.285889 
	C1348.281494,1278.854004 1348.293091,1278.422119 1348.304688,1277.990234 
	C996.186462,1258.890381 644.068237,1239.790649 291.794006,1220.682373 
	C291.794006,858.491638 291.794006,496.905304 291.794006,135.157166 
	C1015.368591,135.157166 1738.734131,135.157166 2462.182861,135.157166 
	C2462.182861,497.104980 2462.182861,858.688293 2462.182861,1220.862671 
	C2350.890869,1220.862671 2239.863281,1220.862671 2128.905762,1220.862671 
	C2128.905762,1240.734497 2128.905762,1260.014526 2128.905762,1279.421387 
	C2288.010498,1279.421387 2446.857178,1279.421387 2606.003906,1279.421387 
	C2606.003906,891.471313 2606.003906,503.985657 2606.003906,115.500000 
M328.281799,541.499878 
	C328.281799,762.440613 328.281799,983.381409 328.281799,1204.711060 
	C916.395386,1236.613525 1504.121948,1268.494995 2091.966309,1300.382935 
	C2091.966309,950.047607 2091.966309,600.464111 2091.966309,250.454407 
	C1504.022827,218.568619 916.294006,186.694473 328.281799,154.804947 
	C328.281799,283.908203 328.281799,412.204041 328.281799,541.499878 
M1360.027344,1278.525757 
	C1356.815796,1278.296509 1353.604126,1278.067261 1350.392578,1277.838013 
	C1350.381714,1278.422485 1350.370850,1279.007080 1350.359985,1279.591553 
	C1356.749634,1279.591553 1363.139282,1279.591553 1369.528931,1279.591553 
	C1369.546387,1279.425293 1369.563965,1279.259033 1369.581421,1279.092773 
	C1366.699585,1278.933594 1363.817871,1278.774292 1360.027344,1278.525757 
z"/>
<path fill="#B3B3B3" opacity="1.000000" stroke="none" 
	d="
M2132.091553,1283.852783 
	C2134.903320,1283.702637 2137.714844,1283.421753 2140.526611,1283.421387 
	C2288.852539,1283.401367 2437.178223,1283.404785 2585.504150,1283.405884 
	C2594.809570,1283.406006 2604.115234,1283.405884 2613.526367,1283.405884 
	C2613.526367,879.315796 2613.526367,475.824493 2613.526367,72.053139 
	C1789.515869,72.053139 965.475281,72.053139 141.531540,72.053139 
	C141.531540,475.860565 141.531540,879.485535 141.531540,1283.520508 
	C144.632492,1283.520508 148.028854,1283.520752 151.425201,1283.520386 
	C538.738159,1283.481812 926.051147,1283.441284 1313.364136,1283.407104 
	C1357.189087,1283.403198 1401.013916,1283.430908 1444.838867,1283.463867 
	C1446.998047,1283.465454 1449.157104,1283.658325 1451.591187,1284.347656 
	C1448.239258,1285.282715 1444.612305,1285.632202 1440.985352,1285.981689 
	C1438.297852,1285.964844 1435.610474,1285.947876 1432.003906,1285.946289 
	C1394.046997,1285.967041 1357.009277,1285.972412 1319.971558,1285.977905 
	C1319.231689,1285.967041 1318.491821,1285.956055 1316.912354,1285.955933 
	C933.186157,1285.963257 550.299744,1285.960083 167.413269,1285.954712 
	C155.918961,1285.954468 144.424637,1285.932373 132.930328,1285.920654 
	C132.598267,1281.911743 132.205093,1277.906494 131.961685,1273.892212 
	C131.851303,1272.071777 132.083466,1270.233276 132.083496,1268.402954 
	C132.089523,872.575806 132.077621,476.748657 132.132385,80.921524 
	C132.134384,66.482132 133.518097,69.159721 145.656677,69.014336 
	C147.988861,68.986397 150.322144,69.066551 152.654907,69.066551 
	C954.142395,69.066902 1755.629883,69.068481 2557.117432,69.021187 
	C2567.845947,69.020554 2578.572754,68.228409 2589.303467,68.128288 
	C2596.935547,68.057076 2604.571777,68.574867 2612.208252,68.694099 
	C2613.063477,68.707443 2613.932373,67.835052 2615.957275,66.751404 
	C2616.672363,69.819672 2617.843994,72.500031 2617.844482,75.180618 
	C2617.924316,473.174408 2617.918457,871.168213 2617.933350,1269.161987 
	C2617.933594,1272.646729 2619.087158,1276.458618 2618.004639,1279.516968 
	C2617.065918,1282.167969 2613.909424,1285.540405 2611.393555,1285.852173 
	C2602.938965,1286.899414 2594.333740,1286.853149 2585.782959,1286.946045 
	C2582.427490,1286.982666 2579.063721,1285.962158 2575.703857,1285.960938 
	C2429.872803,1285.909302 2284.041748,1285.918091 2138.210693,1285.918213 
	C2136.546631,1285.918213 2134.882568,1285.898926 2132.710693,1285.532227 
	C2132.165771,1284.734863 2132.128662,1284.293823 2132.091553,1283.852783 
z"/>
<path fill="#C6C6C6" opacity="1.000000" stroke="none" 
	d="
M2740.174561,1345.113037 
	C2740.174561,1345.113037 2740.075928,1345.514771 2740.083252,1345.719238 
	C2735.425049,1345.949097 2730.759521,1345.997070 2726.093994,1345.997070 
	C1822.019409,1345.998901 917.944885,1345.997314 13.426526,1345.733887 
	C12.970901,1345.305176 12.959100,1345.138672 12.947300,1344.972168 
	C12.947300,1344.972168 12.986303,1344.479614 13.006262,1344.232910 
	C53.572075,1343.990845 94.117935,1343.999390 134.663788,1343.999512 
	C1000.610474,1344.000732 1866.557251,1344.001831 2732.503906,1343.961182 
	C2734.759766,1343.961060 2737.015869,1343.344849 2739.685547,1342.966064 
	C2740.099609,1342.915649 2740.164551,1342.935181 2740.119873,1343.296997 
	C2740.108398,1344.143555 2740.141602,1344.628296 2740.174561,1345.113037 
z"/>
<path fill="#E4E4E4" opacity="1.000000" stroke="none" 
	d="
M1569.063232,1291.397583 
	C1584.624878,1291.484009 1600.259399,1291.691772 1615.867188,1292.447754 
	C1640.979492,1293.664062 1666.072632,1295.270264 1691.176758,1296.660400 
	C1722.596924,1298.400513 1754.018555,1300.112183 1785.441895,1301.793457 
	C1819.197144,1303.599487 1852.958252,1305.295776 1886.710938,1307.148560 
	C1937.751831,1309.950195 1988.786133,1312.870972 2039.826050,1315.691895 
	C2066.922607,1317.189453 2094.024902,1318.588623 2121.125488,1320.014526 
	C2123.449951,1320.136963 2125.781250,1320.126831 2128.630859,1320.261963 
	C2129.152344,1320.345581 2129.210938,1320.593628 2129.210938,1320.593628 
	C2126.372803,1325.192505 2121.439209,1323.276123 2117.649902,1323.642578 
	C2112.618896,1324.129395 2107.412598,1322.333374 2102.252930,1322.062012 
	C2091.718018,1321.507935 2081.164062,1321.313843 2070.617920,1320.977295 
	C2060.040283,1320.639648 2049.406006,1320.847290 2038.909302,1319.744141 
	C2033.790527,1319.206299 2029.026855,1319.054688 2023.919067,1319.718628 
	C2020.614868,1320.148071 2017.027100,1317.635864 2013.468506,1317.127197 
	C2010.933594,1316.764771 2008.224365,1317.843872 2005.613159,1317.745361 
	C2001.169067,1317.577515 1996.487549,1317.744141 1992.378174,1316.363647 
	C1988.343506,1315.008057 1985.823486,1315.562134 1983.727295,1319.072998 
	C1978.343628,1313.431519 1971.774292,1313.650391 1965.184937,1314.476196 
	C1960.519775,1315.060791 1955.779297,1318.258423 1951.530151,1313.273560 
	C1951.036865,1312.694458 1949.299683,1313.229004 1948.145874,1313.149658 
	C1944.011841,1312.866333 1939.884399,1312.472290 1935.747192,1312.259521 
	C1933.608154,1312.149536 1931.447632,1312.463135 1929.307739,1312.359497 
	C1923.302490,1312.068970 1917.300781,1311.692627 1911.301636,1311.290405 
	C1905.592285,1310.907349 1899.861816,1309.905029 1894.188599,1310.176880 
	C1888.539795,1310.447510 1882.738281,1307.863647 1877.218140,1310.893188 
	C1876.972412,1311.028076 1876.493286,1310.987549 1876.245728,1310.832520 
	C1870.623779,1307.310181 1864.837158,1310.986206 1859.152222,1310.430542 
	C1858.516357,1310.368408 1857.710327,1310.735840 1857.243042,1310.461426 
	C1851.464233,1307.067627 1845.127075,1308.044556 1838.911011,1307.949219 
	C1836.771973,1307.916504 1834.637207,1307.342896 1832.502441,1307.355713 
	C1828.843628,1307.377563 1825.177856,1307.905640 1821.530518,1307.778320 
	C1817.594116,1307.641113 1813.671509,1307.026978 1809.750122,1306.561279 
	C1806.909790,1306.223999 1804.091675,1305.659668 1801.244873,1305.425781 
	C1795.443115,1304.949463 1789.629517,1304.614258 1783.818848,1304.252808 
	C1782.501587,1304.170776 1781.176514,1304.212036 1779.854980,1304.208252 
	C1776.262573,1304.197876 1772.664185,1304.323486 1769.078979,1304.159546 
	C1762.086060,1303.839722 1755.094360,1303.441040 1748.113525,1302.922729 
	C1741.015991,1302.395508 1733.939941,1301.558105 1726.838379,1301.118408 
	C1724.064331,1300.946533 1721.248047,1301.516846 1718.447510,1301.696167 
	C1716.246704,1301.837280 1713.670532,1303.973511 1712.077271,1300.451050 
	C1711.892700,1300.042969 1710.537842,1300.023193 1709.735718,1300.057739 
	C1703.997192,1300.304321 1698.259888,1300.842529 1692.525391,1300.802979 
	C1689.644409,1300.783081 1686.776611,1299.308716 1683.891846,1299.268188 
	C1678.744995,1299.195679 1673.549561,1300.247803 1668.447266,1299.863525 
	C1659.451416,1299.186157 1650.514282,1297.747925 1641.543091,1296.710693 
	C1639.619141,1296.488281 1637.648438,1296.704590 1635.710083,1296.566406 
	C1630.194702,1296.173096 1624.691284,1295.581665 1619.171387,1295.289185 
	C1611.824951,1294.899780 1604.463867,1294.786987 1597.115845,1294.422119 
	C1592.785034,1294.207153 1588.471924,1293.644043 1584.141479,1293.413330 
	C1581.693481,1293.282959 1579.197632,1293.770264 1576.776123,1293.502441 
	C1574.192871,1293.216431 1571.671997,1292.367920 1569.063232,1291.397583 
z"/>
<path fill="#EBEBEB" opacity="1.000000" stroke="none" 
	d="
M133.040604,1286.306641 
	C144.424637,1285.932373 155.918961,1285.954468 167.413269,1285.954712 
	C550.299744,1285.960083 933.186157,1285.963257 1316.542725,1285.978760 
	C1314.779907,1286.323975 1312.546997,1286.948853 1310.313965,1286.949097 
	C929.820007,1286.992065 549.325989,1286.982544 168.832016,1287.031494 
	C158.593216,1287.032837 148.355698,1287.709961 138.114426,1287.910034 
	C136.468491,1287.942261 134.805817,1287.119873 133.040604,1286.306641 
z"/>
<path fill="#EBEBEB" opacity="1.000000" stroke="none" 
	d="
M1475.092773,1286.429321 
	C1496.939453,1286.874756 1518.875610,1287.684570 1540.808838,1288.568848 
	C1547.542114,1288.840454 1554.269897,1289.275269 1560.993042,1289.738647 
	C1562.068726,1289.812744 1563.107056,1290.431274 1564.589844,1291.159424 
	C1565.019409,1291.687988 1565.021851,1291.854980 1565.024414,1292.022095 
	C1555.140381,1291.698853 1545.257935,1291.301636 1535.371338,1291.105103 
	C1532.919067,1291.056152 1530.421997,1292.061768 1528.001221,1291.871948 
	C1523.478516,1291.517334 1519.016479,1290.344971 1514.493774,1290.039917 
	C1502.083862,1289.203247 1489.654419,1288.656372 1477.236938,1287.924072 
	C1476.532471,1287.882324 1475.865479,1287.204224 1475.092773,1286.429321 
z"/>
<path fill="#EBEBEB" opacity="1.000000" stroke="none" 
	d="
M1320.273071,1286.271484 
	C1357.009277,1285.972412 1394.046997,1285.967041 1431.556641,1285.969482 
	C1430.798950,1286.314819 1429.569946,1286.945068 1428.339722,1286.946899 
	C1393.226685,1287.000366 1358.113525,1286.993286 1323.000366,1286.973022 
	C1322.191650,1286.972534 1321.383179,1286.707031 1320.273071,1286.271484 
z"/>
<path fill="#FBFBFB" opacity="1.000000" stroke="none" 
	d="
M2129.365967,1320.687256 
	C2129.210938,1320.593628 2129.152344,1320.345581 2129.097168,1320.230713 
	C2128.996094,1309.296143 2128.870605,1298.475708 2129.005615,1287.658325 
	C2129.022217,1286.323608 2130.428711,1285.006226 2131.641357,1283.766846 
	C2132.128662,1284.293823 2132.165771,1284.734863 2132.263916,1285.501709 
	C2132.223877,1294.926758 2132.140137,1304.026245 2132.007080,1313.124878 
	C2131.980713,1314.928589 2131.763672,1316.729492 2131.085938,1318.953125 
	C2130.313477,1319.879883 2130.089844,1320.385010 2129.865967,1320.890259 
	C2129.865967,1320.890259 2129.520996,1320.780884 2129.365967,1320.687256 
z"/>
<path fill="#EBEBEB" opacity="1.000000" stroke="none" 
	d="
M1441.083496,1286.365112 
	C1444.612305,1285.632202 1448.239258,1285.282715 1451.962402,1284.553711 
	C1458.907837,1284.474609 1465.757324,1284.775146 1472.852539,1285.432373 
	C1472.241943,1286.191528 1471.400146,1286.906860 1470.526367,1286.948242 
	C1461.912109,1287.356812 1453.293823,1287.704224 1444.673096,1287.921143 
	C1443.519775,1287.950195 1442.345947,1287.159668 1441.083496,1286.365112 
z"/>
<path fill="#A0A0A0" opacity="1.000000" stroke="none" 
	d="
M2742.952148,1340.026733 
	C2742.939209,1340.752075 2742.926514,1341.477417 2742.550781,1342.582520 
	C2741.513428,1342.953247 2740.839111,1342.944214 2740.164551,1342.935181 
	C2740.164551,1342.935181 2740.099609,1342.915649 2740.080811,1342.943115 
	C2740.059082,1342.526367 2740.056152,1342.082031 2740.051025,1341.303467 
	C2740.048828,1340.969238 2740.090820,1340.510620 2740.440674,1340.264526 
	C2741.510986,1340.021240 2742.231689,1340.023926 2742.952148,1340.026733 
z"/>
<path fill="#E4E4E4" opacity="1.000000" stroke="none" 
	d="
M2130.135254,1320.792236 
	C2130.089844,1320.385010 2130.313477,1319.879883 2130.805420,1319.279297 
	C2130.850586,1319.687378 2130.627441,1320.190674 2130.135254,1320.792236 
z"/>
<path fill="#AEAEAE" opacity="1.000000" stroke="none" 
	d="
M12.003466,11.735574 
	C11.888234,11.551207 11.791537,11.101394 11.833862,10.795897 
	C11.989257,11.116852 12.005628,11.293489 12.003466,11.735574 
z"/>
<path fill="#E4E4E4" opacity="1.000000" stroke="none" 
	d="
M1565.319824,1292.000244 
	C1565.021851,1291.854980 1565.019409,1291.687988 1565.008057,1291.270264 
	C1565.444702,1290.971802 1565.890015,1290.923828 1566.666504,1290.946655 
	C1566.536621,1291.337769 1566.075928,1291.658081 1565.319824,1292.000244 
z"/>
<path fill="#AEAEAE" opacity="1.000000" stroke="none" 
	d="
M12.676657,1344.996338 
	C12.959100,1345.138672 12.970901,1345.305176 12.975773,1345.721680 
	C12.526668,1345.961548 12.084489,1345.951538 11.324751,1345.842773 
	C11.473466,1345.502808 11.939740,1345.261719 12.676657,1344.996338 
z"/>
<path fill="#B2B2B2" opacity="1.000000" stroke="none" 
	d="
M2742.972656,1339.575439 
	C2742.231689,1340.023926 2741.510986,1340.021240 2740.434570,1340.034424 
	C2740.052246,1338.551514 2740.003174,1337.052612 2740.003174,1335.553711 
	C2740.001465,895.661621 2740.002686,455.769531 2740.020508,15.425066 
	C2740.764648,14.978904 2741.492432,14.985114 2742.581543,14.980188 
	C2742.963379,15.801652 2743.001709,16.634251 2743.001709,17.466848 
	C2743.000488,458.019226 2742.996826,898.571655 2742.972656,1339.575439 
z"/>
<path fill="#B2B2B2" opacity="1.000000" stroke="none" 
	d="
M2740.119873,1343.296997 
	C2740.839111,1342.944214 2741.513428,1342.953247 2742.523926,1342.944336 
	C2742.880127,1343.411377 2742.900146,1343.896362 2742.840820,1344.739502 
	C2742.114258,1345.083984 2741.466553,1345.070312 2740.496826,1345.084961 
	C2740.141602,1344.628296 2740.108398,1344.143555 2740.119873,1343.296997 
z"/>
<path fill="#FEFEFE" opacity="1.000000" stroke="none" 
	d="
M2606.003906,116.000000 
	C2606.003906,503.985657 2606.003906,891.471313 2606.003906,1279.421387 
	C2446.857178,1279.421387 2288.010498,1279.421387 2128.905762,1279.421387 
	C2128.905762,1260.014526 2128.905762,1240.734497 2128.905762,1220.862671 
	C2239.863281,1220.862671 2350.890869,1220.862671 2462.182861,1220.862671 
	C2462.182861,858.688293 2462.182861,497.104980 2462.182861,135.157166 
	C1738.734131,135.157166 1015.368591,135.157166 291.794006,135.157166 
	C291.794006,496.905304 291.794006,858.491638 291.794006,1220.682373 
	C644.068237,1239.790649 996.186462,1258.890381 1348.304688,1277.990234 
	C1348.293091,1278.422119 1348.281494,1278.854004 1348.269897,1279.285889 
	C948.848145,1279.285889 549.426331,1279.285889 149.736755,1279.285889 
	C149.736755,878.348633 149.736755,477.420105 149.736755,76.208755 
	C968.267822,76.208755 1786.828613,76.208755 2606.003906,76.208755 
	C2606.003906,89.293365 2606.003906,102.396683 2606.003906,116.000000 
z"/>
<path fill="#D0D0D0" opacity="1.000000" stroke="none" 
	d="
M1411.898926,195.246078 
	C1411.478516,195.306747 1411.058105,195.367416 1410.278564,194.893509 
	C1405.817993,193.584061 1401.744263,192.380249 1397.610107,192.113052 
	C1384.032715,191.235580 1370.429688,190.766739 1356.843506,190.012268 
	C1340.285156,189.092728 1323.737061,187.993195 1307.179321,187.062531 
	C1288.297607,186.001221 1269.411621,185.012375 1250.524780,184.044724 
	C1236.604614,183.331528 1222.676880,182.763779 1208.758423,182.021362 
	C1191.202026,181.084915 1173.652344,180.024170 1156.098389,179.040131 
	C1138.042236,178.027908 1119.983887,177.052917 1101.927368,176.044144 
	C1084.210693,175.054382 1066.498535,173.975952 1048.777954,173.060913 
	C1033.695435,172.282120 1018.597168,171.798508 1003.517883,170.967133 
	C988.455200,170.136658 973.413330,168.933334 958.351685,168.080200 
	C938.642578,166.963852 918.922668,166.039597 899.208252,165.015732 
	C886.949402,164.379089 874.690125,163.746719 862.434631,163.049362 
	C839.419250,161.739746 816.408813,160.343399 793.391968,159.060822 
	C774.339966,157.999191 755.282043,157.042236 736.226074,156.052002 
	C716.675110,155.036072 697.121033,154.078140 677.572510,153.016373 
	C660.508911,152.089569 643.456116,150.958817 626.389771,150.089600 
	C604.342651,148.966705 582.284424,148.063141 560.236694,146.950790 
	C555.331116,146.703308 550.449524,145.979324 545.556885,145.474747 
	C545.596680,144.982834 545.636475,144.490936 545.676270,143.999039 
	C547.426208,143.999039 549.176147,143.999039 550.926086,143.999039 
	C1178.313477,143.999939 1805.700806,143.998779 2433.088135,144.044601 
	C2437.379639,144.044907 2441.671387,144.693604 2445.961914,145.503937 
	C2445.960693,498.483246 2445.960938,850.998169 2445.959717,1203.513062 
	C2445.959717,1205.178833 2446.212891,1206.909668 2445.833984,1208.486694 
	C2445.593506,1209.489136 2444.401611,1210.262939 2443.654541,1211.001221 
	C2443.672852,1210.863281 2443.402344,1210.806519 2443.402344,1210.806519 
	C2443.402344,1210.806519 2443.426514,1211.186157 2443.211914,1211.361084 
	C2442.659424,1211.681763 2442.321533,1211.827637 2441.739746,1211.969727 
	C2441.495850,1211.966064 2441.008789,1211.986450 2440.539551,1211.980957 
	C2340.110840,1211.974121 2240.151367,1211.980469 2140.191895,1211.931396 
	C2137.448486,1211.930054 2134.705566,1211.333984 2131.979004,1210.553101 
	C2132.001465,886.578918 2132.008789,563.066956 2131.974365,239.554932 
	C2131.974365,237.998566 2131.384277,236.442261 2130.977783,234.537872 
	C2129.488525,233.440002 2128.151123,232.199860 2126.684082,232.020248 
	C2117.470215,230.892212 2108.244629,229.745148 2098.988037,229.130936 
	C2093.860840,228.790741 2088.641602,229.894592 2083.507324,229.597610 
	C2075.181152,229.116028 2066.907227,227.661285 2058.580811,227.271378 
	C2048.433594,226.796219 2038.254517,226.997620 2027.980957,226.571823 
	C2026.254395,226.172989 2024.635864,226.108749 2022.550781,226.032623 
	C2012.419556,225.648270 2002.755127,225.275818 1992.959351,224.542526 
	C1988.696167,222.374222 1983.786621,222.286957 1981.570801,223.986115 
	C1979.791626,223.974091 1978.423096,223.964859 1976.958496,223.614685 
	C1975.248047,223.199127 1973.633789,223.124512 1971.638916,223.039902 
	C1970.496948,223.022598 1969.735474,223.015320 1968.702271,222.735199 
	C1965.953735,222.641373 1963.476807,222.820389 1960.566895,222.993835 
	C1958.115112,222.966644 1956.096313,222.945007 1953.945557,222.547974 
	C1949.198975,222.106400 1944.584717,222.040253 1939.527344,221.971985 
	C1935.710205,221.649643 1932.335938,221.329407 1928.731445,220.748596 
	C1927.002319,220.659393 1925.503662,220.830765 1923.605469,220.998993 
	C1922.140747,220.995239 1921.075317,220.994629 1919.912109,220.841064 
	C1919.536377,220.787796 1919.258667,220.887482 1918.539795,220.983582 
	C1913.747437,220.642212 1909.396118,220.304413 1904.924805,219.590607 
	C1901.210815,219.145599 1897.616577,219.076614 1893.578735,219.004700 
	C1890.770142,218.991348 1888.405273,218.980927 1885.928711,218.599640 
	C1882.882324,218.163635 1879.947754,218.098511 1876.555908,218.023163 
	C1872.758301,217.983231 1869.417847,217.953522 1865.947021,217.556198 
	C1862.194946,216.575912 1858.577759,215.929428 1854.940918,215.426117 
	C1854.696777,215.392319 1854.302612,216.441345 1853.569214,216.983017 
	C1851.796875,216.964233 1850.433472,216.949173 1848.937866,216.559921 
	C1844.541748,216.125854 1840.277832,216.066010 1835.556885,216.002289 
	C1831.761963,215.968781 1828.424194,215.939133 1824.959961,215.552673 
	C1822.225220,215.137466 1819.616943,215.079086 1816.539551,215.011749 
	C1808.395752,214.972275 1800.721069,214.941742 1792.765747,214.644897 
	C1782.316162,213.261017 1772.159302,212.010605 1761.972412,211.093491 
	C1758.084717,210.743454 1754.109741,211.430725 1750.207031,211.165359 
	C1742.284668,210.626694 1734.396729,209.499115 1726.470703,209.124252 
	C1721.367310,208.882889 1716.221313,209.751419 1711.093994,209.757278 
	C1704.750366,209.764511 1699.021606,206.849228 1691.957397,208.430527 
	C1684.735352,210.047195 1676.273315,208.572937 1668.945557,206.429657 
	C1663.848022,204.938660 1659.230103,204.811081 1654.191284,204.918915 
	C1648.356812,205.043747 1642.508179,204.201416 1636.659668,204.086807 
	C1633.043701,204.015930 1629.386719,204.937653 1625.800171,204.682419 
	C1616.368164,204.011215 1606.976440,202.780945 1597.546021,202.077759 
	C1589.853149,201.504135 1582.128052,201.357742 1574.416016,201.052887 
	C1573.088379,201.000412 1571.754028,201.146423 1570.423828,201.126602 
	C1562.175781,201.003662 1553.870972,201.413681 1545.696289,200.568924 
	C1537.269897,199.698166 1529.070312,196.452576 1520.392212,198.898773 
	C1519.236816,199.224487 1517.811401,198.632553 1516.518188,198.421158 
	C1513.817139,197.979584 1511.133423,197.226593 1508.420044,197.106064 
	C1502.163086,196.828156 1495.882812,197.037491 1489.630737,196.700287 
	C1483.337158,196.360886 1477.076050,195.300537 1470.783203,195.094696 
	C1461.820557,194.801514 1452.839478,195.122345 1443.870728,194.950714 
	C1436.242188,194.804733 1428.620117,194.333252 1420.583374,193.998871 
	C1417.481567,194.855377 1413.977295,190.347504 1411.898926,195.246078 
z"/>
<path fill="#FAFBFB" opacity="1.000000" stroke="none" 
	d="
M328.281799,540.999878 
	C328.281799,412.204041 328.281799,283.908203 328.281799,154.804947 
	C916.294006,186.694473 1504.022827,218.568619 2091.966309,250.454407 
	C2091.966309,600.464111 2091.966309,950.047607 2091.966309,1300.382935 
	C1504.121948,1268.494995 916.395386,1236.613525 328.281799,1204.711060 
	C328.281799,983.381409 328.281799,762.440613 328.281799,540.999878 
M358.151367,816.944519 
	C358.142456,938.297974 358.133209,1059.651489 358.130005,1181.004883 
	C358.129974,1182.001709 358.212097,1182.998535 358.083679,1184.654907 
	C358.141907,1185.101807 358.200165,1185.548706 358.157288,1186.849976 
	C357.007416,1193.120117 361.219849,1192.258057 365.760590,1192.184082 
	C366.819855,1192.212769 367.879089,1192.241455 369.649506,1192.676392 
	C374.113403,1192.748291 378.577301,1192.820312 383.917114,1193.050171 
	C393.555939,1193.669556 403.189728,1194.385376 412.834534,1194.890747 
	C448.759033,1196.773438 484.691742,1198.502197 520.612732,1200.447998 
	C566.349915,1202.925537 612.075745,1205.611206 657.811951,1208.107788 
	C703.217651,1210.586426 748.632751,1212.893066 794.038696,1215.366211 
	C831.955261,1217.431519 869.860168,1219.710571 907.778259,1221.746460 
	C951.354431,1224.086060 994.941711,1226.216431 1038.519653,1228.524170 
	C1072.285522,1230.312500 1106.044434,1232.231323 1139.806274,1234.096680 
	C1163.252930,1235.392090 1186.700317,1236.675659 1210.145264,1238.001831 
	C1232.424683,1239.261963 1254.697021,1240.648926 1276.980347,1241.833008 
	C1295.604858,1242.822632 1314.246948,1243.484497 1332.870239,1244.495239 
	C1369.961914,1246.508301 1407.042480,1248.724365 1444.134033,1250.738892 
	C1480.721191,1252.725952 1517.319824,1254.502686 1553.906860,1256.491089 
	C1592.312622,1258.578369 1630.707642,1260.862671 1669.113037,1262.957275 
	C1699.383911,1264.608276 1729.666504,1266.043213 1759.938232,1267.678833 
	C1812.492432,1270.518555 1865.041626,1273.452026 1917.594360,1276.320312 
	C1943.038818,1277.709229 1968.488525,1279.004028 1993.932251,1280.406616 
	C2016.046509,1281.625610 2038.155396,1282.941528 2060.268799,1284.177124 
	C2060.858643,1284.209961 2061.472656,1283.812866 2062.421875,1283.503052 
	C2062.421875,1280.949097 2062.421875,1278.471680 2062.421875,1275.994263 
	C2062.416260,1038.170654 2062.411377,800.347107 2062.393555,562.523499 
	C2062.393311,559.365479 2062.219238,556.207520 2062.366943,552.125305 
	C2062.394043,495.853363 2062.422852,439.581390 2062.431152,383.309448 
	C2062.431152,382.495178 2062.176758,381.680817 2062.288086,379.972504 
	C2062.332031,342.981812 2062.290283,305.990601 2062.527588,269.001160 
	C2062.557373,264.346741 2061.107422,263.193481 2056.646240,262.962860 
	C2000.099121,260.040253 1943.562988,256.907532 1887.023193,253.842224 
	C1832.811768,250.903168 1778.598877,247.993332 1724.387939,245.046143 
	C1681.984497,242.740875 1639.583374,240.393036 1597.180664,238.073532 
	C1554.942627,235.763046 1512.705566,233.436661 1470.465210,231.168457 
	C1431.882446,229.096664 1393.296143,227.093277 1354.711304,225.060059 
	C1314.636719,222.948303 1274.558960,220.892365 1234.488281,218.710693 
	C1188.922852,216.229889 1143.365723,213.599655 1097.800903,211.107941 
	C1074.187988,209.816711 1050.562256,208.757492 1026.949707,207.460190 
	C1002.343506,206.108276 977.750732,204.511520 953.143738,203.175461 
	C923.047729,201.541397 892.940002,200.126404 862.843140,198.507660 
	C829.916992,196.736694 797.000732,194.782715 764.074402,193.015976 
	C728.987488,191.133347 693.888977,189.465210 658.804504,187.540680 
	C620.896973,185.461319 583.003296,183.130966 545.097046,181.027924 
	C514.664917,179.339539 484.222443,177.838409 453.785675,176.233475 
	C422.859497,174.602722 391.934631,172.946579 360.402100,171.010635 
	C359.961029,171.047684 359.519989,171.084717 358.414734,171.358856 
	C358.404419,172.257690 358.394104,173.156509 358.312897,174.673828 
	C358.331390,175.087936 358.349915,175.502045 358.167328,176.494949 
	C358.225067,176.690857 358.282806,176.886780 358.265167,178.005646 
	C358.261414,330.489685 358.256775,482.973724 358.264343,635.457764 
	C358.264435,637.281860 358.421417,639.106018 358.267334,641.846985 
	C358.283478,698.899658 358.299622,755.952332 358.079468,813.733337 
	C358.132599,814.493286 358.185699,815.253296 358.151367,816.944519 
z"/>
<path fill="#EAEAEA" opacity="1.000000" stroke="none" 
	d="
M2445.962891,145.039520 
	C2441.671387,144.693604 2437.379639,144.044907 2433.088135,144.044601 
	C1805.700806,143.998779 1178.313477,143.999939 550.926086,143.999039 
	C549.176147,143.999039 547.426208,143.999039 545.676270,143.999039 
	C545.636475,144.490936 545.596680,144.982834 545.556885,145.474747 
	C550.449524,145.979324 555.331116,146.703308 560.236694,146.950790 
	C582.284424,148.063141 604.342651,148.966705 626.389771,150.089600 
	C643.456116,150.958817 660.508911,152.089569 677.572510,153.016373 
	C697.121033,154.078140 716.675110,155.036072 736.226074,156.052002 
	C755.282043,157.042236 774.339966,157.999191 793.391968,159.060822 
	C816.408813,160.343399 839.419250,161.739746 862.434631,163.049362 
	C874.690125,163.746719 886.949402,164.379089 899.208252,165.015732 
	C918.922668,166.039597 938.642578,166.963852 958.351685,168.080200 
	C973.413330,168.933334 988.455200,170.136658 1003.517883,170.967133 
	C1018.597168,171.798508 1033.695435,172.282120 1048.777954,173.060913 
	C1066.498535,173.975952 1084.210693,175.054382 1101.927368,176.044144 
	C1119.983887,177.052917 1138.042236,178.027908 1156.098389,179.040131 
	C1173.652344,180.024170 1191.202026,181.084915 1208.758423,182.021362 
	C1222.676880,182.763779 1236.604614,183.331528 1250.524780,184.044724 
	C1269.411621,185.012375 1288.297607,186.001221 1307.179321,187.062531 
	C1323.737061,187.993195 1340.285156,189.092728 1356.843506,190.012268 
	C1370.429688,190.766739 1384.032715,191.235580 1397.610107,192.113052 
	C1401.744263,192.380249 1405.817993,193.584061 1409.979004,194.766785 
	C1392.239136,194.283310 1374.437134,193.432465 1356.640015,192.492706 
	C1310.889771,190.076935 1265.140015,187.651947 1219.393066,185.172897 
	C1181.468506,183.117752 1143.551025,180.932709 1105.625732,178.890411 
	C1047.400879,175.754974 989.169617,172.735611 930.945557,169.583954 
	C893.184814,167.539993 855.435547,165.286209 817.675049,163.238724 
	C772.760132,160.803284 727.837036,158.521194 682.920776,156.110367 
	C647.488586,154.208572 612.063721,152.170349 576.631470,150.269318 
	C536.206482,148.100418 495.777222,146.012131 455.349304,143.899033 
	C446.698853,143.446869 438.046173,143.038391 429.315399,141.843307 
	C432.431915,141.665619 435.548706,141.329102 438.664917,141.334412 
	C476.994812,141.399826 515.324646,141.603729 553.654480,141.604492 
	C1182.797729,141.617065 1811.941040,141.605652 2441.084229,141.600952 
	C2442.417480,141.600952 2443.750488,141.620544 2445.530762,142.156998 
	C2445.972900,143.468506 2445.967773,144.254028 2445.962891,145.039520 
M520.661499,144.971848 
	C525.882141,144.971848 531.102783,144.971848 536.323486,144.971848 
	C536.319458,144.761993 536.315491,144.552124 536.311523,144.342270 
	C528.978760,144.342270 521.645996,144.342270 514.313171,144.342270 
	C514.312012,144.550827 514.310852,144.759384 514.309692,144.967941 
	C516.116516,144.967941 517.923401,144.967941 520.661499,144.971848 
z"/>
<path fill="#F3F3F3" opacity="1.000000" stroke="none" 
	d="
M2131.069824,234.885895 
	C2131.384277,236.442261 2131.974365,237.998566 2131.974365,239.554932 
	C2132.008789,563.066956 2132.001465,886.578918 2131.639648,1210.551025 
	C2130.603760,1211.011719 2129.923828,1211.012451 2129.243896,1211.013184 
	C2129.141357,1209.026978 2128.949219,1207.040771 2128.948975,1205.054565 
	C2128.934082,883.328918 2128.933105,561.603271 2128.937256,239.877609 
	C2128.937256,238.546997 2129.025391,237.216400 2129.446533,235.454651 
	C2130.237061,234.977661 2130.653564,234.931778 2131.069824,234.885895 
z"/>
<path fill="#FFFFFF" opacity="1.000000" stroke="none" 
	d="
M2129.076904,1211.420410 
	C2129.923828,1211.012451 2130.603760,1211.011719 2131.623047,1211.013184 
	C2134.705566,1211.333984 2137.448486,1211.930054 2140.191895,1211.931396 
	C2240.151367,1211.980469 2340.110840,1211.974121 2440.627930,1212.145752 
	C2441.451660,1212.201782 2441.717529,1212.087646 2441.983398,1211.973511 
	C2442.321533,1211.827637 2442.659424,1211.681763 2443.261719,1211.346436 
	C2443.525635,1211.157104 2443.636230,1211.139282 2443.636230,1211.139282 
	C2444.401611,1210.262939 2445.593506,1209.489136 2445.833984,1208.486694 
	C2446.212891,1206.909668 2445.959717,1205.178833 2445.959717,1203.513062 
	C2445.960938,850.998169 2445.960693,498.483246 2445.961914,145.503937 
	C2445.967773,144.254028 2445.972900,143.468506 2445.981934,142.290680 
	C2446.797119,142.540085 2448.139648,143.067413 2448.307617,143.847534 
	C2448.648193,145.430420 2448.324463,147.150024 2448.324463,148.813278 
	C2448.320068,501.643219 2448.319824,854.473145 2448.319336,1207.303101 
	C2448.319336,1209.284302 2448.319336,1211.265625 2448.319336,1213.850464 
	C2446.447998,1213.850464 2444.684814,1213.850464 2442.921387,1213.850464 
	C2339.755859,1213.849121 2236.590088,1213.856201 2133.424561,1213.762329 
	C2131.919189,1213.760864 2130.414795,1212.500610 2129.076904,1211.420410 
z"/>
<path fill="#DEDEDE" opacity="1.000000" stroke="none" 
	d="
M1420.995117,194.005798 
	C1428.620117,194.333252 1436.242188,194.804733 1443.870728,194.950714 
	C1452.839478,195.122345 1461.820557,194.801514 1470.783203,195.094696 
	C1477.076050,195.300537 1483.337158,196.360886 1489.630737,196.700287 
	C1495.882812,197.037491 1502.163086,196.828156 1508.420044,197.106064 
	C1511.133423,197.226593 1513.817139,197.979584 1516.518188,198.421158 
	C1517.811401,198.632553 1519.236816,199.224487 1520.392212,198.898773 
	C1529.070312,196.452576 1537.269897,199.698166 1545.696289,200.568924 
	C1553.870972,201.413681 1562.175781,201.003662 1570.423828,201.126602 
	C1571.754028,201.146423 1573.088379,201.000412 1574.416016,201.052887 
	C1582.128052,201.357742 1589.853149,201.504135 1597.546021,202.077759 
	C1606.976440,202.780945 1616.368164,204.011215 1625.800171,204.682419 
	C1629.386719,204.937653 1633.043701,204.015930 1636.659668,204.086807 
	C1642.508179,204.201416 1648.356812,205.043747 1654.191284,204.918915 
	C1659.230103,204.811081 1663.848022,204.938660 1668.945557,206.429657 
	C1676.273315,208.572937 1684.735352,210.047195 1691.957397,208.430527 
	C1699.021606,206.849228 1704.750366,209.764511 1711.093994,209.757278 
	C1716.221313,209.751419 1721.367310,208.882889 1726.470703,209.124252 
	C1734.396729,209.499115 1742.284668,210.626694 1750.207031,211.165359 
	C1754.109741,211.430725 1758.084717,210.743454 1761.972412,211.093491 
	C1772.159302,212.010605 1782.316162,213.261017 1792.748291,214.932007 
	C1793.007324,215.676376 1793.003174,215.867355 1792.998901,216.058319 
	C1773.208984,215.055664 1753.416870,214.095230 1733.629639,213.042038 
	C1684.562256,210.430374 1635.496094,207.791321 1586.431152,205.135391 
	C1531.547852,202.164536 1476.666260,199.162949 1421.382446,195.716492 
	C1420.985596,194.840759 1420.990356,194.423279 1420.995117,194.005798 
z"/>
<path fill="#E1E1E1" opacity="1.000000" stroke="none" 
	d="
M1793.395996,216.197205 
	C1793.003174,215.867355 1793.007324,215.676376 1793.029053,215.198303 
	C1800.721069,214.941742 1808.395752,214.972275 1816.824707,215.289520 
	C1820.081665,215.687317 1822.584106,215.798401 1825.086548,215.909500 
	C1828.424194,215.939133 1831.761963,215.968781 1835.966309,216.057068 
	C1840.912109,216.388519 1844.991089,216.661316 1849.070190,216.934113 
	C1850.433472,216.949173 1851.796875,216.964233 1854.011475,216.988342 
	C1858.600952,217.306198 1862.339233,217.615005 1866.077393,217.923798 
	C1869.417847,217.953522 1872.758301,217.983231 1876.845459,218.299347 
	C1880.408203,218.713989 1883.224365,218.842255 1886.040405,218.970505 
	C1888.405273,218.980927 1890.770142,218.991348 1893.970459,219.012451 
	C1898.218872,219.337616 1901.631836,219.652115 1905.044678,219.966614 
	C1909.396118,220.304413 1913.747437,220.642212 1918.797241,220.987701 
	C1919.667114,220.994949 1919.838501,220.994492 1920.010010,220.994019 
	C1921.075317,220.994629 1922.140747,220.995239 1924.019165,220.999527 
	C1926.208740,221.005203 1927.585327,221.007187 1928.961792,221.009186 
	C1932.335938,221.329407 1935.710205,221.649643 1939.985229,221.981171 
	C1945.283325,222.302765 1949.680420,222.613083 1954.077637,222.923386 
	C1956.096313,222.945007 1958.115112,222.966644 1961.010376,222.995346 
	C1964.249268,223.004288 1966.611694,223.006165 1968.973999,223.008041 
	C1969.735474,223.015320 1970.496948,223.022598 1971.899536,223.302948 
	C1974.045288,223.702545 1975.549927,223.829086 1977.054565,223.955612 
	C1978.423096,223.964859 1979.791626,223.974091 1982.017822,223.990646 
	C1986.280396,224.299759 1989.685547,224.601547 1993.090576,224.903351 
	C2002.755127,225.275818 2012.419556,225.648270 2022.812866,226.297333 
	C2025.057495,226.684769 2026.573364,226.795578 2028.089233,226.906387 
	C2038.254517,226.997620 2048.433594,226.796219 2058.580811,227.271378 
	C2066.907227,227.661285 2075.181152,229.116028 2083.507324,229.597610 
	C2088.641602,229.894592 2093.860840,228.790741 2098.988037,229.130936 
	C2108.244629,229.745148 2117.470215,230.892212 2126.684082,232.020248 
	C2128.151123,232.199860 2129.488525,233.440002 2130.977783,234.537872 
	C2130.653564,234.931778 2130.237061,234.977661 2129.508301,234.993713 
	C2115.604004,234.052719 2102.020020,232.981491 2088.417725,232.266312 
	C2065.645020,231.069016 2042.851929,230.250946 2020.082275,228.999344 
	C1980.549194,226.826279 1941.029541,224.405533 1901.500122,222.162079 
	C1869.424927,220.341675 1837.343872,218.625717 1805.264893,216.872772 
	C1801.442505,216.663879 1797.617065,216.513550 1793.395996,216.197205 
z"/>
<path fill="#DADADA" opacity="1.000000" stroke="none" 
	d="
M1360.481689,1278.570435 
	C1363.817871,1278.774292 1366.699585,1278.933594 1369.581421,1279.092773 
	C1369.563965,1279.259033 1369.546387,1279.425293 1369.528931,1279.591553 
	C1363.139282,1279.591553 1356.749634,1279.591553 1350.359985,1279.591553 
	C1350.370850,1279.007080 1350.381714,1278.422485 1350.392578,1277.838013 
	C1353.604126,1278.067261 1356.815796,1278.296509 1360.481689,1278.570435 
z"/>
<path fill="#EAEAEA" opacity="1.000000" stroke="none" 
	d="
M1420.583374,193.998871 
	C1420.990356,194.423279 1420.985596,194.840759 1420.986328,195.571396 
	C1418.211914,195.762070 1415.432373,195.639603 1412.275879,195.381592 
	C1413.977295,190.347504 1417.481567,194.855377 1420.583374,193.998871 
z"/>
<path fill="#DEDEDE" opacity="1.000000" stroke="none" 
	d="
M1848.937866,216.559906 
	C1844.991089,216.661316 1840.912109,216.388519 1836.423584,216.060944 
	C1840.277832,216.066010 1844.541748,216.125854 1848.937866,216.559906 
z"/>
<path fill="#DEDEDE" opacity="1.000000" stroke="none" 
	d="
M1865.947021,217.556198 
	C1862.339233,217.615005 1858.600952,217.306198 1854.420532,216.992081 
	C1854.302612,216.441345 1854.696777,215.392319 1854.940918,215.426117 
	C1858.577759,215.929428 1862.194946,216.575912 1865.947021,217.556198 
z"/>
<path fill="#DEDEDE" opacity="1.000000" stroke="none" 
	d="
M1953.945557,222.547974 
	C1949.680420,222.613083 1945.283325,222.302765 1940.428223,221.983276 
	C1944.584717,222.040253 1949.198975,222.106400 1953.945557,222.547974 
z"/>
<path fill="#DEDEDE" opacity="1.000000" stroke="none" 
	d="
M1885.928711,218.599640 
	C1883.224365,218.842255 1880.408203,218.713989 1877.302734,218.309570 
	C1879.947754,218.098511 1882.882324,218.163635 1885.928711,218.599640 
z"/>
<path fill="#DEDEDE" opacity="1.000000" stroke="none" 
	d="
M1904.924805,219.590607 
	C1901.631836,219.652115 1898.218872,219.337616 1894.414307,219.015381 
	C1897.616577,219.076614 1901.210815,219.145599 1904.924805,219.590607 
z"/>
<path fill="#DEDEDE" opacity="1.000000" stroke="none" 
	d="
M1992.959351,224.542511 
	C1989.685547,224.601547 1986.280396,224.299759 1982.428345,223.993439 
	C1983.786621,222.286957 1988.696167,222.374222 1992.959351,224.542511 
z"/>
<path fill="#DEDEDE" opacity="1.000000" stroke="none" 
	d="
M1824.959961,215.552673 
	C1822.584106,215.798401 1820.081665,215.687317 1817.293945,215.298462 
	C1819.616943,215.079086 1822.225220,215.137466 1824.959961,215.552673 
z"/>
<path fill="#DEDEDE" opacity="1.000000" stroke="none" 
	d="
M2027.980957,226.571808 
	C2026.573364,226.795578 2025.057495,226.684769 2023.279541,226.309235 
	C2024.635864,226.108749 2026.254395,226.172989 2027.980957,226.571808 
z"/>
<path fill="#DEDEDE" opacity="1.000000" stroke="none" 
	d="
M1976.958496,223.614685 
	C1975.549927,223.829086 1974.045288,223.702545 1972.280029,223.312958 
	C1973.633789,223.124512 1975.248047,223.199127 1976.958496,223.614685 
z"/>
<path fill="#DEDEDE" opacity="1.000000" stroke="none" 
	d="
M1968.702271,222.735199 
	C1966.611694,223.006165 1964.249268,223.004288 1961.443481,223.000916 
	C1963.476807,222.820389 1965.953735,222.641373 1968.702271,222.735199 
z"/>
<path fill="#DEDEDE" opacity="1.000000" stroke="none" 
	d="
M1928.731445,220.748596 
	C1927.585327,221.007187 1926.208740,221.005203 1924.418579,221.002686 
	C1925.503662,220.830765 1927.002319,220.659393 1928.731445,220.748596 
z"/>
<path fill="#EAEAEA" opacity="1.000000" stroke="none" 
	d="
M2443.654541,1211.001221 
	C2443.636230,1211.139282 2443.525635,1211.157104 2443.476074,1211.171631 
	C2443.426514,1211.186157 2443.402344,1210.806519 2443.402344,1210.806519 
	C2443.402344,1210.806519 2443.672852,1210.863281 2443.654541,1211.001221 
z"/>
<path fill="#EAEAEA" opacity="1.000000" stroke="none" 
	d="
M2441.739746,1211.969727 
	C2441.717529,1212.087646 2441.451660,1212.201782 2441.097168,1212.151123 
	C2441.008789,1211.986450 2441.495850,1211.966064 2441.739746,1211.969727 
z"/>
<path fill="#DEDEDE" opacity="1.000000" stroke="none" 
	d="
M1919.912109,220.841080 
	C1919.838501,220.994492 1919.667114,220.994949 1919.238281,220.991287 
	C1919.258667,220.887482 1919.536377,220.787796 1919.912109,220.841080 
z"/>
<path fill="#01BFD5" opacity="1.000000" stroke="none" 
	d="
M368.938354,1192.270020 
	C367.879089,1192.241455 366.819855,1192.212769 365.298828,1191.730469 
	C361.320496,1189.796631 359.862000,1187.448120 359.872650,1183.347168 
	C360.190552,1061.060913 360.373932,938.774353 360.508820,816.487732 
	C360.509338,815.998901 359.504730,815.508972 358.983490,814.761597 
	C359.019348,814.332947 359.041321,814.162170 359.431580,813.821655 
	C365.693512,812.871033 371.606049,812.210266 377.476837,811.284363 
	C390.230835,809.272949 402.946014,807.011658 415.709442,805.064392 
	C430.759521,802.768311 445.858795,800.794617 460.909058,798.499634 
	C476.447754,796.130188 491.941284,793.465637 507.476135,791.069946 
	C526.777344,788.093445 546.108582,785.311279 565.412109,782.349243 
	C580.788574,779.989807 596.127563,777.383484 611.511597,775.076660 
	C626.405823,772.843323 641.354553,770.972595 656.246033,768.722168 
	C672.281677,766.298889 688.270264,763.565979 704.294556,761.065613 
	C723.423523,758.080933 742.569702,755.207092 761.706299,752.270935 
	C772.992432,750.539307 784.264954,748.716736 795.560425,747.049011 
	C810.624207,744.824829 825.720398,742.817017 840.772949,740.521179 
	C856.310425,738.151367 871.802063,735.482971 887.332397,733.064514 
	C902.537659,730.696716 917.772949,728.523010 932.982544,726.182678 
	C945.904846,724.194336 958.791016,721.965454 971.726135,720.067749 
	C989.241333,717.497986 1006.815552,715.323730 1024.313721,712.647766 
	C1043.945068,709.645569 1063.494873,706.110229 1083.125488,703.102722 
	C1108.640015,699.193848 1134.207397,695.631653 1159.736694,691.817810 
	C1183.633545,688.247864 1207.510742,684.547424 1231.395752,680.898621 
	C1255.441650,677.225159 1279.485962,673.542053 1303.531738,669.867310 
	C1327.585205,666.191345 1351.639404,662.520752 1375.693359,658.847534 
	C1399.579224,655.200012 1423.465210,651.554077 1447.350708,647.904236 
	C1471.397949,644.229675 1495.440308,640.523987 1519.492432,636.881409 
	C1546.168213,632.841492 1572.859253,628.901245 1599.531006,624.835449 
	C1620.799927,621.593201 1642.046387,618.202942 1663.309692,614.923157 
	C1687.349487,611.215210 1711.396484,607.553528 1735.441162,603.878296 
	C1759.492676,600.202026 1783.546997,596.545288 1807.596924,592.859131 
	C1833.608032,588.872498 1859.612671,584.843262 1885.625366,580.866943 
	C1907.545288,577.516357 1929.483765,574.286377 1951.393677,570.872192 
	C1974.118164,567.331116 1996.820923,563.649658 2019.527954,559.997131 
	C2033.732300,557.712280 2047.927124,555.367432 2062.126221,553.049500 
	C2062.219238,556.207520 2062.393311,559.365479 2062.393555,562.523499 
	C2062.411377,800.347107 2062.416260,1038.170654 2062.421875,1275.994263 
	C2062.421875,1278.471680 2062.421875,1280.949097 2062.421875,1283.503052 
	C2061.472656,1283.812866 2060.858643,1284.209961 2060.268799,1284.177124 
	C2038.155396,1282.941528 2016.046509,1281.625610 1993.932251,1280.406616 
	C1968.488525,1279.004028 1943.038818,1277.709229 1917.594360,1276.320312 
	C1865.041626,1273.452026 1812.492432,1270.518555 1759.938232,1267.678833 
	C1729.666504,1266.043213 1699.383911,1264.608276 1669.113037,1262.957275 
	C1630.707642,1260.862671 1592.312622,1258.578369 1553.906860,1256.491089 
	C1517.319824,1254.502686 1480.721191,1252.725952 1444.134033,1250.738892 
	C1407.042480,1248.724365 1369.961914,1246.508301 1332.870239,1244.495239 
	C1314.246948,1243.484497 1295.604858,1242.822632 1276.980347,1241.833008 
	C1254.697021,1240.648926 1232.424683,1239.261963 1210.145264,1238.001831 
	C1186.700317,1236.675659 1163.252930,1235.392090 1139.806274,1234.096680 
	C1106.044434,1232.231323 1072.285522,1230.312500 1038.519653,1228.524170 
	C994.941711,1226.216431 951.354431,1224.086060 907.778259,1221.746460 
	C869.860168,1219.710571 831.955261,1217.431519 794.038696,1215.366211 
	C748.632751,1212.893066 703.217651,1210.586426 657.811951,1208.107788 
	C612.075745,1205.611206 566.349915,1202.925537 520.612732,1200.447998 
	C484.691742,1198.502197 448.759033,1196.773438 412.834534,1194.890747 
	C403.189728,1194.385376 393.555939,1193.669556 383.647797,1192.731201 
	C383.580994,1192.152588 383.804565,1191.905762 383.972229,1191.625366 
	C384.017731,1191.549316 383.886719,1191.255493 383.849579,1191.258057 
	C378.878387,1191.583496 373.908386,1191.927246 368.938354,1192.270020 
z"/>
<path fill="#01BFD5" opacity="1.000000" stroke="none" 
	d="
M361.009186,171.301544 
	C391.934631,172.946579 422.859497,174.602722 453.785675,176.233475 
	C484.222443,177.838409 514.664917,179.339539 545.097046,181.027924 
	C583.003296,183.130966 620.896973,185.461319 658.804504,187.540680 
	C693.888977,189.465210 728.987488,191.133347 764.074402,193.015976 
	C797.000732,194.782715 829.916992,196.736694 862.843140,198.507660 
	C892.940002,200.126404 923.047729,201.541397 953.143738,203.175461 
	C977.750732,204.511520 1002.343506,206.108276 1026.949707,207.460190 
	C1050.562256,208.757492 1074.187988,209.816711 1097.800903,211.107941 
	C1143.365723,213.599655 1188.922852,216.229889 1234.488281,218.710693 
	C1274.558960,220.892365 1314.636719,222.948303 1354.711304,225.060059 
	C1393.296143,227.093277 1431.882446,229.096664 1470.465210,231.168457 
	C1512.705566,233.436661 1554.942627,235.763046 1597.180664,238.073532 
	C1639.583374,240.393036 1681.984497,242.740875 1724.387939,245.046143 
	C1778.598877,247.993332 1832.811768,250.903168 1887.023193,253.842224 
	C1943.562988,256.907532 2000.099121,260.040253 2056.646240,262.962860 
	C2061.107422,263.193481 2062.557373,264.346741 2062.527588,269.001160 
	C2062.290283,305.990601 2062.332031,342.981812 2061.709473,380.455444 
	C2055.870361,381.535065 2050.585449,381.968384 2045.354614,382.760559 
	C2032.267578,384.742462 2019.217041,386.965668 2006.129761,388.945953 
	C1991.079590,391.223236 1975.992676,393.258636 1960.945435,395.555054 
	C1945.404175,397.926880 1929.902710,400.559387 1914.362915,402.942108 
	C1899.641724,405.199310 1884.880005,407.192719 1870.161255,409.465210 
	C1856.908325,411.511353 1843.713867,413.942627 1830.449707,415.908112 
	C1812.932983,418.503723 1795.352295,420.669983 1777.838257,423.282837 
	C1761.801880,425.675232 1745.822876,428.450165 1729.808594,430.993744 
	C1713.306152,433.614868 1696.792847,436.168060 1680.282104,438.735779 
	C1668.994385,440.491180 1657.707886,442.255096 1646.411743,443.953979 
	C1627.270020,446.832764 1608.116455,449.632050 1588.976929,452.524200 
	C1575.064819,454.626495 1561.178345,456.900879 1547.260376,458.961792 
	C1528.109009,461.797577 1508.921265,464.390106 1489.781738,467.301941 
	C1474.078857,469.690948 1458.443481,472.524323 1442.742065,474.924408 
	C1423.921265,477.801270 1405.043823,480.307556 1386.225342,483.198730 
	C1370.525146,485.610809 1354.897827,488.497681 1339.196289,490.900330 
	C1320.222046,493.803680 1301.187622,496.313080 1282.209106,499.190155 
	C1266.173950,501.620941 1250.197754,504.441345 1234.165771,506.894745 
	C1211.097290,510.424927 1187.991455,513.709167 1164.921387,517.228210 
	C1144.307495,520.372620 1123.733032,523.774536 1103.118408,526.913940 
	C1080.048828,530.427124 1056.950684,533.751709 1033.870972,537.198669 
	C1016.523254,539.789490 999.176331,542.387451 981.844727,545.083252 
	C954.536011,549.330933 927.253662,553.749756 899.934814,557.930359 
	C880.957764,560.834412 861.917053,563.324097 842.943237,566.248108 
	C822.986511,569.323486 803.101196,572.864197 783.137634,575.891907 
	C761.543396,579.166992 739.883728,582.008179 718.273560,585.181580 
	C701.080627,587.706238 683.920898,590.456055 666.743652,593.087891 
	C642.695862,596.772461 618.640259,600.405701 594.597778,604.124512 
	C569.243835,608.046143 543.901428,612.042358 518.554016,616.006287 
	C501.540009,618.666992 484.523346,621.310913 467.512970,623.994629 
	C455.087952,625.954956 442.684570,628.056030 430.247375,629.934326 
	C415.191956,632.208008 400.111206,634.314087 385.041138,636.490601 
	C377.019745,637.649170 368.997772,638.803345 360.978699,639.596863 
	C360.657501,635.302979 360.051666,631.371826 360.050415,627.440491 
	C360.002411,477.675629 360.005524,327.910736 360.051605,178.145889 
	C360.052307,175.864334 360.676147,173.582993 361.009186,171.301544 
z"/>
<path fill="#00E4FD" opacity="1.000000" stroke="none" 
	d="
M360.976013,639.959473 
	C368.997772,638.803345 377.019745,637.649170 385.041138,636.490601 
	C400.111206,634.314087 415.191956,632.208008 430.247375,629.934326 
	C442.684570,628.056030 455.087952,625.954956 467.512970,623.994629 
	C484.523346,621.310913 501.540009,618.666992 518.554016,616.006287 
	C543.901428,612.042358 569.243835,608.046143 594.597778,604.124512 
	C618.640259,600.405701 642.695862,596.772461 666.743652,593.087891 
	C683.920898,590.456055 701.080627,587.706238 718.273560,585.181580 
	C739.883728,582.008179 761.543396,579.166992 783.137634,575.891907 
	C803.101196,572.864197 822.986511,569.323486 842.943237,566.248108 
	C861.917053,563.324097 880.957764,560.834412 899.934814,557.930359 
	C927.253662,553.749756 954.536011,549.330933 981.844727,545.083252 
	C999.176331,542.387451 1016.523254,539.789490 1033.870972,537.198669 
	C1056.950684,533.751709 1080.048828,530.427124 1103.118408,526.913940 
	C1123.733032,523.774536 1144.307495,520.372620 1164.921387,517.228210 
	C1187.991455,513.709167 1211.097290,510.424927 1234.165771,506.894745 
	C1250.197754,504.441345 1266.173950,501.620941 1282.209106,499.190155 
	C1301.187622,496.313080 1320.222046,493.803680 1339.196289,490.900330 
	C1354.897827,488.497681 1370.525146,485.610809 1386.225342,483.198730 
	C1405.043823,480.307556 1423.921265,477.801270 1442.742065,474.924408 
	C1458.443481,472.524323 1474.078857,469.690948 1489.781738,467.301941 
	C1508.921265,464.390106 1528.109009,461.797577 1547.260376,458.961792 
	C1561.178345,456.900879 1575.064819,454.626495 1588.976929,452.524200 
	C1608.116455,449.632050 1627.270020,446.832764 1646.411743,443.953979 
	C1657.707886,442.255096 1668.994385,440.491180 1680.282104,438.735779 
	C1696.792847,436.168060 1713.306152,433.614868 1729.808594,430.993744 
	C1745.822876,428.450165 1761.801880,425.675232 1777.838257,423.282837 
	C1795.352295,420.669983 1812.932983,418.503723 1830.449707,415.908112 
	C1843.713867,413.942627 1856.908325,411.511353 1870.161255,409.465210 
	C1884.880005,407.192719 1899.641724,405.199310 1914.362915,402.942108 
	C1929.902710,400.559387 1945.404175,397.926880 1960.945435,395.555054 
	C1975.992676,393.258636 1991.079590,391.223236 2006.129761,388.945953 
	C2019.217041,386.965668 2032.267578,384.742462 2045.354614,382.760559 
	C2050.585449,381.968384 2055.870361,381.535065 2061.585938,380.902466 
	C2062.176758,381.680817 2062.431152,382.495178 2062.431152,383.309448 
	C2062.422852,439.581390 2062.394043,495.853363 2062.246582,552.587402 
	C2047.927124,555.367432 2033.732300,557.712280 2019.527954,559.997131 
	C1996.820923,563.649658 1974.118164,567.331116 1951.393677,570.872192 
	C1929.483765,574.286377 1907.545288,577.516357 1885.625366,580.866943 
	C1859.612671,584.843262 1833.608032,588.872498 1807.596924,592.859131 
	C1783.546997,596.545288 1759.492676,600.202026 1735.441162,603.878296 
	C1711.396484,607.553528 1687.349487,611.215210 1663.309692,614.923157 
	C1642.046387,618.202942 1620.799927,621.593201 1599.531006,624.835449 
	C1572.859253,628.901245 1546.168213,632.841492 1519.492432,636.881409 
	C1495.440308,640.523987 1471.397949,644.229675 1447.350708,647.904236 
	C1423.465210,651.554077 1399.579224,655.200012 1375.693359,658.847534 
	C1351.639404,662.520752 1327.585205,666.191345 1303.531738,669.867310 
	C1279.485962,673.542053 1255.441650,677.225159 1231.395752,680.898621 
	C1207.510742,684.547424 1183.633545,688.247864 1159.736694,691.817810 
	C1134.207397,695.631653 1108.640015,699.193848 1083.125488,703.102722 
	C1063.494873,706.110229 1043.945068,709.645569 1024.313721,712.647766 
	C1006.815552,715.323730 989.241333,717.497986 971.726135,720.067749 
	C958.791016,721.965454 945.904846,724.194336 932.982544,726.182678 
	C917.772949,728.523010 902.537659,730.696716 887.332397,733.064514 
	C871.802063,735.482971 856.310425,738.151367 840.772949,740.521179 
	C825.720398,742.817017 810.624207,744.824829 795.560425,747.049011 
	C784.264954,748.716736 772.992432,750.539307 761.706299,752.270935 
	C742.569702,755.207092 723.423523,758.080933 704.294556,761.065613 
	C688.270264,763.565979 672.281677,766.298889 656.246033,768.722168 
	C641.354553,770.972595 626.405823,772.843323 611.511597,775.076660 
	C596.127563,777.383484 580.788574,779.989807 565.412109,782.349243 
	C546.108582,785.311279 526.777344,788.093445 507.476135,791.069946 
	C491.941284,793.465637 476.447754,796.130188 460.909058,798.499634 
	C445.858795,800.794617 430.759521,802.768311 415.709442,805.064392 
	C402.946014,807.011658 390.230835,809.272949 377.476837,811.284363 
	C371.606049,812.210266 365.693512,812.871033 359.345093,813.627930 
	C358.776703,813.329407 358.585205,813.129822 358.315765,813.005005 
	C358.299622,755.952332 358.283478,698.899658 358.671875,641.382935 
	C359.709625,640.599121 360.342834,640.279297 360.976013,639.959473 
z"/>
<path fill="#00A6C4" opacity="1.000000" stroke="none" 
	d="
M360.978699,639.596802 
	C360.342834,640.279297 359.709625,640.599121 358.790802,640.924561 
	C358.421417,639.106018 358.264435,637.281860 358.264343,635.457764 
	C358.256775,482.973724 358.261414,330.489685 358.453491,177.433594 
	C358.681824,176.743698 358.786072,176.597885 358.749268,176.513504 
	C358.656067,176.299683 358.499573,176.113434 358.368408,175.916138 
	C358.349915,175.502045 358.331390,175.087936 358.540588,174.122818 
	C358.871857,172.755127 358.975372,171.938446 359.078918,171.121765 
	C359.519989,171.084717 359.961029,171.047684 360.705627,171.156097 
	C360.676147,173.582993 360.052307,175.864334 360.051605,178.145889 
	C360.005524,327.910736 360.002411,477.675629 360.050415,627.440491 
	C360.051666,631.371826 360.657501,635.302979 360.978699,639.596802 
z"/>
<path fill="#28B8CF" opacity="1.000000" stroke="none" 
	d="
M358.969574,815.019531 
	C359.504730,815.508972 360.509338,815.998901 360.508820,816.487732 
	C360.373932,938.774353 360.190552,1061.060913 359.872650,1183.347168 
	C359.862000,1187.448120 361.320496,1189.796631 364.912842,1191.631470 
	C361.219849,1192.258057 357.007416,1193.120117 358.378296,1186.257568 
	C358.484802,1185.108643 358.370331,1184.552002 358.255859,1183.995361 
	C358.212097,1182.998535 358.129974,1182.001709 358.130005,1181.004883 
	C358.133209,1059.651489 358.142456,938.297974 358.361664,816.350342 
	C358.754486,815.537598 358.887024,815.292053 358.969574,815.019531 
z"/>
<path fill="#28B8CF" opacity="1.000000" stroke="none" 
	d="
M369.293945,1192.473145 
	C373.908386,1191.927246 378.878387,1191.583496 383.849579,1191.258057 
	C383.886719,1191.255493 384.017731,1191.549316 383.972229,1191.625366 
	C383.804565,1191.905762 383.580994,1192.152588 383.209839,1192.652100 
	C378.577301,1192.820312 374.113403,1192.748291 369.293945,1192.473145 
z"/>
<path fill="#50CBDB" opacity="1.000000" stroke="none" 
	d="
M358.983490,814.761597 
	C358.887024,815.292053 358.754486,815.537598 358.405396,815.884705 
	C358.185699,815.253296 358.132599,814.493286 358.197632,813.369141 
	C358.585205,813.129822 358.776703,813.329407 358.976807,813.797546 
	C359.041321,814.162170 359.019348,814.332947 358.983490,814.761597 
z"/>
<path fill="#50CBDB" opacity="1.000000" stroke="none" 
	d="
M358.746826,171.240311 
	C358.975372,171.938446 358.871857,172.755127 358.576050,173.813568 
	C358.394104,173.156509 358.404419,172.257690 358.746826,171.240311 
z"/>
<path fill="#50CBDB" opacity="1.000000" stroke="none" 
	d="
M358.169769,1184.325195 
	C358.370331,1184.552002 358.484802,1185.108643 358.428833,1185.830444 
	C358.200165,1185.548706 358.141907,1185.101807 358.169769,1184.325195 
z"/>
<path fill="#50CBDB" opacity="1.000000" stroke="none" 
	d="
M358.267883,176.205536 
	C358.499573,176.113434 358.656067,176.299683 358.749268,176.513504 
	C358.786072,176.597885 358.681824,176.743698 358.491150,176.972107 
	C358.282806,176.886780 358.225067,176.690857 358.267883,176.205536 
z"/>
<path fill="#D0D0D0" opacity="1.000000" stroke="none" 
	d="
M520.195862,144.969894 
	C517.923401,144.967941 516.116516,144.967941 514.309692,144.967941 
	C514.310852,144.759384 514.312012,144.550827 514.313171,144.342270 
	C521.645996,144.342270 528.978760,144.342270 536.311523,144.342270 
	C536.315491,144.552124 536.319458,144.761993 536.323486,144.971848 
	C531.102783,144.971848 525.882141,144.971848 520.195862,144.969894 
z"/>
</svg>