<svg version="1.1" id="Layer_1" xmlns="http://www.w3.org/2000/svg" xmlns:xlink="http://www.w3.org/1999/xlink" x="0px" y="0px"
	 width="100%" viewBox="0 0 1804 1264" enable-background="new 0 0 1804 1264" xml:space="preserve">
<path fill="#C5C5C5" opacity="1.000000" stroke="none" 
	d="
M1702.000000,1.000000 
	C1736.333374,1.000000 1770.666626,1.000000 1805.000000,1.000000 
	C1805.000000,420.833344 1805.001099,840.666687 1804.958740,1260.500000 
	C1804.958618,1262.000000 1804.333374,1263.500000 1803.499512,1264.680176 
	C1802.972656,1264.148682 1802.946289,1263.937012 1803.021240,1263.282959 
	C1803.175659,1262.013184 1803.275269,1261.185791 1803.275269,1260.358276 
	C1803.288330,842.723206 1803.294678,425.088165 1803.289551,7.453104 
	C1803.289551,5.709048 1803.117920,3.964994 1803.014893,1.999898 
	C1800.762207,1.999898 1799.116333,2.002134 1797.470459,1.999568 
	C1765.643555,1.949957 1733.816528,1.899784 1701.995239,1.637331 
	C1702.000854,1.424936 1702.000000,1.000000 1702.000000,1.000000 
z"/>
<path fill="#C8C8C8" opacity="1.000000" stroke="none" 
	d="
M2.999988,1265.000000 
	C2.333309,1264.833618 1.149137,1264.770874 1.091438,1264.482544 
	C0.866973,1263.361084 1.000000,1262.168091 1.000000,1261.001831 
	C1.000000,842.131714 1.000000,423.261597 1.000000,4.391459 
	C1.000000,3.260795 1.000000,2.130130 1.000000,1.000000 
	C29.765167,1.000000 58.422878,1.000000 87.540405,1.211095 
	C88.000214,1.422189 88.008324,1.844301 87.544479,1.919809 
	C59.018692,1.995317 30.956745,1.995317 2.723752,1.995317 
	C2.723752,5.298709 2.723754,7.777718 2.723755,10.256725 
	C2.723786,424.942871 2.723096,839.629028 2.738353,1254.315186 
	C2.738468,1257.456909 2.956922,1260.598755 3.037573,1264.054321 
	C3.001145,1264.578735 3.000572,1264.789429 2.999988,1265.000000 
z"/>
<path fill="#EBEBEB" opacity="1.000000" stroke="none" 
	d="
M3.443604,1265.000000 
	C3.000572,1264.789429 3.001145,1264.578735 3.498514,1264.112305 
	C5.327477,1263.890015 6.659646,1263.953003 7.991814,1263.953003 
	C601.806335,1263.956665 1195.620850,1263.956421 1789.435425,1263.945801 
	C1793.930176,1263.945679 1798.425049,1263.802002 1802.919800,1263.725342 
	C1802.946289,1263.937012 1802.972656,1264.148682 1802.999512,1264.680176 
	C1203.295776,1265.000000 603.591492,1265.000000 3.443604,1265.000000 
z"/>
<path fill="#D0D0D0" opacity="1.000000" stroke="none" 
	d="
M88.008324,1.844301 
	C88.008324,1.844301 88.000214,1.422189 88.000107,1.211095 
	C625.701599,1.000000 1163.403198,1.000000 1701.552368,1.000000 
	C1702.000000,1.000000 1702.000854,1.424936 1701.531250,1.702747 
	C1700.562012,1.986489 1700.062134,1.997620 1699.562378,1.997620 
	C1163.874023,1.997607 628.185730,1.996976 92.497398,1.989851 
	C91.001038,1.989831 89.504684,1.894901 88.008324,1.844301 
z"/>
<path fill="#181818" opacity="1.000000" stroke="none" 
	d="
M87.544479,1.919809 
	C89.504684,1.894901 91.001038,1.989831 92.497398,1.989851 
	C628.185730,1.996976 1163.874023,1.997607 1699.562378,1.997620 
	C1700.062134,1.997620 1700.562012,1.986489 1701.525635,1.915142 
	C1733.816528,1.899784 1765.643555,1.949957 1797.470459,1.999568 
	C1799.116333,2.002134 1800.762207,1.999898 1803.014893,1.999898 
	C1803.117920,3.964994 1803.289551,5.709048 1803.289551,7.453104 
	C1803.294678,425.088165 1803.288330,842.723206 1803.275269,1260.358276 
	C1803.275269,1261.185791 1803.175659,1262.013184 1803.021240,1263.282959 
	C1798.425049,1263.802002 1793.930176,1263.945679 1789.435425,1263.945801 
	C1195.620850,1263.956421 601.806335,1263.956665 7.991814,1263.953003 
	C6.659646,1263.953003 5.327477,1263.890015 3.534369,1263.798462 
	C2.956922,1260.598755 2.738468,1257.456909 2.738353,1254.315186 
	C2.723096,839.629028 2.723786,424.942871 2.723755,10.256725 
	C2.723754,7.777718 2.723752,5.298709 2.723752,1.995317 
	C30.956745,1.995317 59.018692,1.995317 87.544479,1.919809 
M1800.131958,5.884933 
	C1799.409180,5.364096 1798.686279,4.843260 1797.184692,4.242763 
	C1796.415161,4.326839 1795.645508,4.410916 1794.253662,4.317775 
	C1763.446411,4.381019 1732.639160,4.444262 1701.045654,4.285198 
	C1697.546753,4.261232 1694.047974,4.216294 1690.549072,4.216267 
	C1157.018799,4.212183 623.488403,4.211174 89.958076,4.217943 
	C88.296074,4.217965 86.634079,4.333053 84.309631,4.214135 
	C83.188232,4.304252 82.066826,4.394368 80.117226,4.369096 
	C58.763618,4.398325 37.410015,4.427553 15.283525,4.220388 
	C12.179074,4.220388 9.074622,4.220388 5.879808,4.220388 
	C5.879808,7.836571 5.879789,10.984744 5.879808,14.132917 
	C5.882287,424.760681 5.884251,835.388489 5.894855,1246.016235 
	C5.894950,1249.677124 6.010656,1253.338135 5.871193,1257.730835 
	C5.894902,1258.486938 5.918610,1259.242920 5.888999,1260.858398 
	C11.080800,1261.179443 16.272581,1261.781250 21.464407,1261.781494 
	C612.628113,1261.820068 1203.791748,1261.813721 1794.955444,1261.809937 
	C1796.578979,1261.809937 1798.202637,1261.809937 1800.322388,1261.809937 
	C1800.322388,1259.553833 1800.322510,1257.767090 1800.322510,1255.980347 
	C1800.323242,842.315796 1800.324463,428.651276 1800.313721,14.986736 
	C1800.313721,12.996433 1800.144165,11.006135 1800.158691,8.500831 
	C1800.105957,8.333737 1800.053345,8.166644 1800.177368,7.506745 
	C1800.040894,7.207273 1799.904419,6.907802 1799.712402,6.563716 
	C1799.712402,6.563716 1799.746704,6.506467 1800.131958,5.884933 
z"/>
<path fill="#D8D8D8" opacity="1.000000" stroke="none" 
	d="
M16.056408,4.456782 
	C37.410015,4.427553 58.763618,4.398325 80.627075,4.786259 
	C82.388268,5.757518 83.639595,6.311614 85.364929,6.905033 
	C87.171600,6.963207 88.504280,6.998576 89.836960,6.998581 
	C624.568542,7.000785 1159.300171,7.001112 1694.031738,6.981669 
	C1696.181885,6.981591 1698.354736,6.826527 1700.466797,6.457679 
	C1701.018555,6.361305 1701.381958,5.186815 1701.831787,4.507483 
	C1732.639160,4.444262 1763.446411,4.381019 1794.572021,4.735134 
	C1795.278198,6.104384 1795.666016,7.056276 1796.047363,8.476284 
	C1796.030518,87.441399 1796.010864,165.938400 1796.011597,244.435394 
	C1796.014526,580.254028 1796.014282,916.072632 1796.119629,1251.891235 
	C1796.121216,1256.707520 1794.715698,1258.509766 1789.874390,1258.138916 
	C1785.401367,1257.796143 1780.880493,1258.078369 1776.380737,1258.078369 
	C1215.738647,1258.079102 655.096436,1258.078247 94.454330,1258.081299 
	C65.955948,1258.081421 37.457561,1258.114014 8.938060,1257.846313 
	C8.866734,1257.378296 8.816523,1257.195435 8.806373,1256.556641 
	C8.582299,1251.131592 8.087327,1246.162354 8.086889,1241.192993 
	C8.051186,835.707092 8.051242,430.221252 8.090039,24.735371 
	C8.090467,20.265490 8.535696,15.785980 8.976693,11.331101 
	C9.129384,9.788640 9.900434,8.307390 10.420941,6.699644 
	C12.012366,6.066272 14.034388,5.261528 16.056408,4.456782 
M1396.951904,1234.722656 
	C1397.299072,1234.042603 1397.943115,1233.364990 1397.948853,1232.682129 
	C1398.023560,1223.777954 1398.066284,1214.871948 1397.940796,1205.969116 
	C1397.925171,1204.861450 1396.897705,1203.768188 1396.244263,1201.875977 
	C1397.460083,1201.630127 1398.675659,1201.170044 1399.891724,1201.168823 
	C1504.539551,1201.059937 1609.187256,1200.986450 1714.619629,1200.893677 
	C1715.390015,1197.865967 1716.834229,1194.838501 1716.835083,1191.810547 
	C1716.936401,819.652466 1716.932739,447.494446 1716.909546,75.336388 
	C1716.909302,72.364250 1715.905029,69.239609 1716.541382,66.453873 
	C1717.639038,61.648640 1715.471436,60.908031 1711.591064,61.039795 
	C1700.296265,61.423321 1688.998291,62.006516 1677.701660,62.007683 
	C1149.713989,62.062340 621.726379,62.063450 93.738777,62.069824 
	C87.046021,62.069904 87.056313,62.064625 87.056335,68.660637 
	C87.057785,441.485260 87.057533,814.309875 87.052528,1187.134521 
	C87.052505,1188.632690 86.956070,1190.130737 86.949608,1191.629028 
	C86.933838,1195.289185 86.944466,1198.949341 86.944466,1202.999756 
	C91.105873,1202.999756 94.248856,1202.999878 97.391838,1202.999878 
	C380.885284,1202.995117 664.378723,1202.992432 947.872131,1202.941284 
	C949.920654,1202.940918 951.969116,1202.274780 954.935852,1201.783691 
	C978.822937,1203.516479 1002.714417,1205.190430 1026.595947,1206.995728 
	C1062.099243,1209.679688 1097.597534,1212.431885 1133.094238,1215.201050 
	C1165.437744,1217.724243 1197.772095,1220.368286 1230.118774,1222.848022 
	C1258.970459,1225.059937 1287.839233,1227.050659 1316.690430,1229.267944 
	C1341.741699,1231.193115 1366.778320,1233.310791 1391.825317,1235.294800 
	C1393.266113,1235.408936 1394.741699,1235.085938 1396.951904,1234.722656 
z"/>
<path fill="#B2B2B2" opacity="1.000000" stroke="none" 
	d="
M8.959169,1258.131470 
	C37.457561,1258.114014 65.955948,1258.081421 94.454330,1258.081299 
	C655.096436,1258.078247 1215.738647,1258.079102 1776.380737,1258.078369 
	C1780.880493,1258.078369 1785.401367,1257.796143 1789.874390,1258.138916 
	C1794.715698,1258.509766 1796.121216,1256.707520 1796.119629,1251.891235 
	C1796.014282,916.072632 1796.014526,580.254028 1796.011597,244.435394 
	C1796.010864,165.938400 1796.030518,87.441399 1796.289185,8.480924 
	C1796.537598,8.017448 1797.022705,8.003732 1797.353027,8.002822 
	C1798.123779,8.001984 1798.564331,8.002055 1799.119141,8.226880 
	C1799.506836,8.639703 1799.780273,8.827772 1800.053833,9.015838 
	C1800.144165,11.006135 1800.313721,12.996433 1800.313721,14.986736 
	C1800.324463,428.651276 1800.323242,842.315796 1800.322510,1255.980347 
	C1800.322510,1257.767090 1800.322388,1259.553833 1800.322388,1261.809937 
	C1798.202637,1261.809937 1796.578979,1261.809937 1794.955444,1261.809937 
	C1203.791748,1261.813721 612.628113,1261.820068 21.464407,1261.781494 
	C16.272581,1261.781250 11.080800,1261.179443 6.264693,1260.422729 
	C7.413312,1259.368530 8.186236,1258.750000 8.959169,1258.131470 
z"/>
<path fill="#C1C1C1" opacity="1.000000" stroke="none" 
	d="
M1701.438721,4.396330 
	C1701.381958,5.186815 1701.018555,6.361305 1700.466797,6.457679 
	C1698.354736,6.826527 1696.181885,6.981591 1694.031738,6.981669 
	C1159.300171,7.001112 624.568542,7.000785 89.836960,6.998581 
	C88.504280,6.998576 87.171600,6.963207 85.291527,6.696823 
	C84.820114,5.764327 84.896095,5.079363 84.972076,4.394399 
	C86.634079,4.333053 88.296074,4.217965 89.958076,4.217943 
	C623.488403,4.211174 1157.018799,4.212183 1690.549072,4.216267 
	C1694.047974,4.216294 1697.546753,4.261232 1701.438721,4.396330 
z"/>
<path fill="#B2B2B2" opacity="1.000000" stroke="none" 
	d="
M15.669967,4.338585 
	C14.034388,5.261528 12.012366,6.066272 10.420941,6.699644 
	C9.900434,8.307390 9.129384,9.788640 8.976693,11.331101 
	C8.535696,15.785980 8.090467,20.265490 8.090039,24.735371 
	C8.051242,430.221252 8.051186,835.707092 8.086889,1241.192993 
	C8.087327,1246.162354 8.582299,1251.131592 8.474189,1256.552979 
	C7.425425,1257.002930 6.748905,1257.000977 6.072386,1256.999023 
	C6.010656,1253.338135 5.894950,1249.677124 5.894855,1246.016235 
	C5.884251,835.388489 5.882287,424.760681 5.879808,14.132917 
	C5.879789,10.984744 5.879808,7.836571 5.879808,4.220388 
	C9.074622,4.220388 12.179074,4.220388 15.669967,4.338585 
z"/>
<path fill="#C1C1C1" opacity="1.000000" stroke="none" 
	d="
M1797.022705,8.003732 
	C1797.022705,8.003732 1796.537598,8.017448 1796.295654,8.012808 
	C1795.666016,7.056276 1795.278198,6.104384 1794.883179,4.823743 
	C1795.645508,4.410916 1796.415161,4.326839 1797.571045,4.562089 
	C1797.976562,5.253562 1797.995605,5.625708 1798.012207,6.248622 
	C1798.008179,6.666570 1798.006470,6.833748 1797.786377,7.108089 
	C1797.294800,7.414890 1797.113159,7.677716 1797.022705,8.003732 
z"/>
<path fill="#B2B2B2" opacity="1.000000" stroke="none" 
	d="
M84.640854,4.304267 
	C84.896095,5.079363 84.820114,5.764327 84.817535,6.657500 
	C83.639595,6.311614 82.388268,5.757518 81.041183,4.843953 
	C82.066826,4.394368 83.188232,4.304252 84.640854,4.304267 
z"/>
<path fill="#B0B0B0" opacity="1.000000" stroke="none" 
	d="
M5.971789,1257.364990 
	C6.748905,1257.000977 7.425425,1257.002930 8.434128,1257.008667 
	C8.816523,1257.195435 8.866734,1257.378296 8.938053,1257.846313 
	C8.186236,1258.750000 7.413312,1259.368530 6.291352,1259.993042 
	C5.918610,1259.242920 5.894902,1258.486938 5.971789,1257.364990 
z"/>
<path fill="#B0B0B0" opacity="1.000000" stroke="none" 
	d="
M1797.353027,8.002822 
	C1797.113159,7.677716 1797.294800,7.414890 1798.233154,7.036997 
	C1799.188354,6.775276 1799.478149,6.691811 1799.767944,6.608338 
	C1799.904419,6.907802 1800.040894,7.207273 1799.840088,7.753341 
	C1799.502930,7.999936 1799.004883,8.002127 1799.004883,8.002127 
	C1798.564331,8.002055 1798.123779,8.001984 1797.353027,8.002822 
z"/>
<path fill="#B0B0B0" opacity="1.000000" stroke="none" 
	d="
M1798.014648,5.997854 
	C1797.995605,5.625708 1797.976562,5.253562 1797.960449,4.601920 
	C1798.686279,4.843260 1799.409180,5.364096 1799.520996,6.010355 
	C1798.611450,6.089803 1798.312988,6.043829 1798.014648,5.997854 
z"/>
<path fill="#B2B2B2" opacity="1.000000" stroke="none" 
	d="
M1798.012207,6.248623 
	C1798.312988,6.043829 1798.611450,6.089803 1799.328369,6.321123 
	C1799.746704,6.506467 1799.712402,6.563716 1799.740234,6.586031 
	C1799.478149,6.691811 1799.188354,6.775276 1798.451660,6.929834 
	C1798.006470,6.833748 1798.008179,6.666570 1798.012207,6.248623 
z"/>
<path fill="#C5C5C5" opacity="1.000000" stroke="none" 
	d="
M1799.119141,8.226880 
	C1799.004883,8.002127 1799.502930,7.999936 1799.751953,7.999743 
	C1800.053345,8.166644 1800.105957,8.333737 1800.106201,8.758335 
	C1799.780273,8.827772 1799.506836,8.639703 1799.119141,8.226880 
z"/>
<path fill="#070707" opacity="1.000000" stroke="none" 
	d="
M1713.835083,1200.910522 
	C1609.187256,1200.986450 1504.539551,1201.059937 1399.891724,1201.168823 
	C1398.675659,1201.170044 1397.460083,1201.630127 1396.145752,1202.677002 
	C1396.098511,1213.974243 1396.149780,1224.470215 1396.201050,1234.966309 
	C1394.741699,1235.085938 1393.266113,1235.408936 1391.825317,1235.294800 
	C1366.778320,1233.310791 1341.741699,1231.193115 1316.690430,1229.267944 
	C1287.839233,1227.050659 1258.970459,1225.059937 1230.118774,1222.848022 
	C1197.772095,1220.368286 1165.437744,1217.724243 1133.094238,1215.201050 
	C1097.597534,1212.431885 1062.099243,1209.679688 1026.595947,1206.995728 
	C1002.714417,1205.190430 978.822937,1203.516479 954.133789,1201.617554 
	C950.511963,1201.295776 947.692078,1201.004150 944.872253,1201.003906 
	C714.883240,1200.983521 484.894165,1200.986206 254.905121,1200.985840 
	C203.907516,1200.985840 152.909912,1200.980469 101.912315,1200.977539 
	C98.830551,1200.977417 95.748787,1200.977539 92.770523,1200.977539 
	C92.770523,822.055908 92.770523,443.656952 92.770523,65.161697 
	C633.094727,65.161697 1173.426025,65.161697 1713.758423,65.161697 
	C1713.758423,71.035202 1713.758545,76.513557 1713.758545,81.991913 
	C1713.757935,447.808197 1713.756958,813.624512 1713.760132,1179.440796 
	C1713.760132,1186.597412 1713.808960,1193.753906 1713.835083,1200.910522 
M1602.649414,1135.748169 
	C1603.534668,1135.112427 1604.419800,1134.476685 1605.595215,1133.300659 
	C1605.486450,1132.921875 1605.377563,1132.543213 1605.469604,1131.393799 
	C1605.470459,1129.062378 1605.472168,1126.731079 1605.472168,1124.399658 
	C1605.472412,796.722778 1605.472900,469.045898 1605.472778,141.369034 
	C1605.472778,138.537567 1605.665405,135.684692 1605.358521,132.886688 
	C1605.256836,131.959091 1603.866821,131.172791 1602.144775,130.094940 
	C1601.811768,130.087494 1601.478638,130.073547 1601.145630,130.073532 
	C1163.557129,130.049255 725.968628,130.025879 288.380127,130.002518 
	C285.760559,130.002380 283.141022,130.002502 280.521454,130.002502 
	C292.459503,131.750641 304.418976,132.443375 316.358917,133.384369 
	C368.654510,137.505768 420.939514,141.762238 473.238098,145.845154 
	C511.086212,148.799927 548.955627,151.480850 586.804688,154.424179 
	C639.108093,158.491516 691.397278,162.741989 743.700134,166.816452 
	C781.882324,169.790894 820.081543,172.547089 858.264832,175.508667 
	C923.849609,180.595581 989.425964,185.791885 1055.009644,190.894012 
	C1098.846558,194.304367 1142.691895,197.609695 1186.530151,201.003555 
	C1211.270874,202.918915 1236.002441,204.951035 1260.742798,206.871552 
	C1290.124512,209.152374 1319.510254,211.381485 1348.895874,213.610016 
	C1364.499146,214.793335 1380.106323,215.928040 1395.922607,217.990372 
	C1395.945801,218.488831 1395.989258,218.987289 1395.989258,219.485748 
	C1395.983032,523.277832 1395.973877,827.069885 1395.964722,1130.861938 
	C1395.964722,1132.435425 1395.964722,1134.008911 1395.964722,1135.859863 
	C1397.639893,1135.859863 1398.618042,1135.859863 1399.596191,1135.859741 
	C1465.587158,1135.853882 1531.578003,1135.849976 1597.568970,1135.831543 
	C1599.059082,1135.831177 1600.549072,1135.667603 1602.649414,1135.748169 
M873.053589,1194.969116 
	C837.516541,1192.262207 801.977722,1189.578003 766.442993,1186.841309 
	C736.729126,1184.552979 707.020508,1182.196899 677.308594,1179.882568 
	C653.236572,1178.007568 629.161194,1176.175415 605.090881,1174.278809 
	C571.046448,1171.596191 537.009888,1168.812744 502.961456,1166.182495 
	C474.077576,1163.951294 445.177429,1161.930786 416.292297,1159.715576 
	C391.549622,1157.817993 366.819672,1155.754761 342.081085,1153.803467 
	C297.577362,1150.292847 253.071823,1146.805908 208.565796,1143.325073 
	C202.845428,1142.877563 197.117737,1142.523682 191.534058,1142.136230 
	C191.534058,802.296204 191.534058,463.203979 191.534058,124.023605 
	C665.957458,124.023605 1140.071777,124.023605 1614.379150,124.023605 
	C1614.379150,463.444794 1614.379150,802.664490 1614.379150,1142.276855 
	C1541.463135,1142.276855 1468.868774,1142.276855 1396.228271,1142.276855 
	C1396.228271,1160.901611 1396.228271,1179.131836 1396.228271,1197.354492 
	C1500.490356,1197.354492 1604.427124,1197.354492 1708.590576,1197.354492 
	C1708.590576,820.957642 1708.590576,444.876984 1708.590576,68.664116 
	C1171.663208,68.664116 635.029297,68.664116 98.328033,68.664116 
	C98.328033,445.013000 98.328033,821.096741 98.328033,1197.668701 
	C101.768524,1197.668701 104.907616,1197.668579 108.046700,1197.668579 
	C339.546539,1197.669189 571.046387,1197.697754 802.546204,1197.628418 
	C826.333008,1197.621216 850.119690,1197.027832 874.717773,1196.985718 
	C883.600830,1197.432373 892.483948,1197.878906 901.367065,1198.325562 
	C901.391479,1197.906616 901.415955,1197.487671 901.440430,1197.068726 
	C892.278198,1196.419800 883.116028,1195.770874 873.053589,1194.969116 
M215.256424,1064.499878 
	C215.256424,1085.296997 215.256424,1106.093994 215.256424,1127.176025 
	C600.971436,1157.096069 986.234131,1186.981079 1371.550537,1216.870239 
	C1371.550537,888.298279 1371.550537,560.285217 1371.550537,232.198288 
	C986.003601,202.298492 600.847961,172.429047 215.256439,142.525803 
	C215.256439,449.965973 215.256439,756.732849 215.256424,1064.499878 
z"/>
<path fill="#B4B4B4" opacity="1.000000" stroke="none" 
	d="
M1714.227295,1200.902100 
	C1713.808960,1193.753906 1713.760132,1186.597412 1713.760132,1179.440796 
	C1713.756958,813.624512 1713.757935,447.808197 1713.758545,81.991913 
	C1713.758545,76.513557 1713.758423,71.035202 1713.758423,65.161697 
	C1173.426025,65.161697 633.094727,65.161697 92.770523,65.161697 
	C92.770523,443.656952 92.770523,822.055908 92.770523,1200.977539 
	C95.748787,1200.977539 98.830551,1200.977417 101.912315,1200.977539 
	C152.909912,1200.980469 203.907516,1200.985840 254.905121,1200.985840 
	C484.894165,1200.986206 714.883240,1200.983521 944.872253,1201.003906 
	C947.692078,1201.004150 950.511963,1201.295776 953.674683,1201.685547 
	C951.969116,1202.274780 949.920654,1202.940918 947.872131,1202.941284 
	C664.378723,1202.992432 380.885284,1202.995117 97.391838,1202.999878 
	C94.248856,1202.999878 91.105873,1202.999756 86.944466,1202.999756 
	C86.944466,1198.949341 86.933838,1195.289185 86.949608,1191.629028 
	C86.956070,1190.130737 87.052505,1188.632690 87.052528,1187.134521 
	C87.057533,814.309875 87.057785,441.485260 87.056335,68.660637 
	C87.056313,62.064625 87.046021,62.069904 93.738777,62.069824 
	C621.726379,62.063450 1149.713989,62.062340 1677.701660,62.007683 
	C1688.998291,62.006516 1700.296265,61.423321 1711.591064,61.039795 
	C1715.471436,60.908031 1717.639038,61.648640 1716.541382,66.453873 
	C1715.905029,69.239609 1716.909302,72.364250 1716.909546,75.336388 
	C1716.932739,447.494446 1716.936401,819.652466 1716.835083,1191.810547 
	C1716.834229,1194.838501 1715.390015,1197.865967 1714.227295,1200.902100 
z"/>
<path fill="#F6F6F6" opacity="1.000000" stroke="none" 
	d="
M1396.576416,1234.844482 
	C1396.149780,1224.470215 1396.098511,1213.974243 1396.193115,1203.073242 
	C1396.897705,1203.768188 1397.925171,1204.861450 1397.940796,1205.969116 
	C1398.066284,1214.871948 1398.023560,1223.777954 1397.948853,1232.682129 
	C1397.943115,1233.364990 1397.299072,1234.042603 1396.576416,1234.844482 
z"/>
<path fill="#FDFDFD" opacity="1.000000" stroke="none" 
	d="
M873.906372,1196.706299 
	C850.119690,1197.027832 826.333008,1197.621216 802.546204,1197.628418 
	C571.046387,1197.697754 339.546539,1197.669189 108.046700,1197.668579 
	C104.907616,1197.668579 101.768524,1197.668701 98.328033,1197.668701 
	C98.328033,821.096741 98.328033,445.013000 98.328033,68.664116 
	C635.029297,68.664116 1171.663208,68.664116 1708.590576,68.664116 
	C1708.590576,444.876984 1708.590576,820.957642 1708.590576,1197.354492 
	C1604.427124,1197.354492 1500.490356,1197.354492 1396.228271,1197.354492 
	C1396.228271,1179.131836 1396.228271,1160.901611 1396.228271,1142.276855 
	C1468.868774,1142.276855 1541.463135,1142.276855 1614.379150,1142.276855 
	C1614.379150,802.664490 1614.379150,463.444794 1614.379150,124.023605 
	C1140.071777,124.023605 665.957458,124.023605 191.534058,124.023605 
	C191.534058,463.203979 191.534058,802.296204 191.534058,1142.136230 
	C197.117737,1142.523682 202.845428,1142.877563 208.565796,1143.325073 
	C253.071823,1146.805908 297.577362,1150.292847 342.081085,1153.803467 
	C366.819672,1155.754761 391.549622,1157.817993 416.292297,1159.715576 
	C445.177429,1161.930786 474.077576,1163.951294 502.961456,1166.182495 
	C537.009888,1168.812744 571.046448,1171.596191 605.090881,1174.278809 
	C629.161194,1176.175415 653.236572,1178.007568 677.308594,1179.882568 
	C707.020508,1182.196899 736.729126,1184.552979 766.442993,1186.841309 
	C801.977722,1189.578003 837.516541,1192.262207 873.489929,1195.310913 
	C873.919678,1196.003906 873.913025,1196.355103 873.906372,1196.706299 
z"/>
<path fill="#F8FAFB" opacity="1.000000" stroke="none" 
	d="
M215.256439,1063.999756 
	C215.256439,756.732849 215.256439,449.965973 215.256439,142.525803 
	C600.847961,172.429047 986.003601,202.298492 1371.550537,232.198288 
	C1371.550537,560.285217 1371.550537,888.298279 1371.550537,1216.870239 
	C986.234131,1186.981079 600.971436,1157.096069 215.256424,1127.176025 
	C215.256424,1106.093994 215.256424,1085.296997 215.256439,1063.999756 
M234.987457,598.966370 
	C234.972290,637.460449 234.938171,675.954590 234.951263,714.448669 
	C234.956543,729.942261 235.065292,745.435913 234.982880,761.865967 
	C234.982880,879.476074 234.982880,997.086243 234.982880,1115.017090 
	C607.612000,1143.921631 979.682678,1172.782715 1352.364624,1201.691284 
	C1352.364624,1197.762817 1352.364624,1194.632202 1352.364624,1191.501465 
	C1352.364746,968.837463 1352.365723,746.173523 1352.355225,523.509521 
	C1352.355103,521.014526 1352.205688,518.519592 1352.347534,515.100647 
	C1352.360474,463.557831 1352.377075,412.014984 1352.372559,360.472168 
	C1352.372437,358.322266 1352.174316,356.172394 1352.286499,353.102722 
	C1352.314453,318.442047 1352.276001,283.780975 1352.459839,249.121140 
	C1352.481323,245.069839 1351.010620,244.200043 1347.314209,243.924683 
	C1309.447876,241.103821 1271.594727,238.105331 1233.738647,235.146530 
	C1198.556152,232.396698 1163.377686,229.593430 1128.191650,226.890030 
	C1094.321777,224.287735 1060.439453,221.847580 1026.571655,219.220306 
	C978.765442,215.511749 930.971008,211.651627 883.164856,207.942368 
	C850.132385,205.379425 817.082703,203.036026 784.051025,200.462982 
	C727.447449,196.053757 670.854736,191.504364 614.251953,187.084763 
	C571.255432,183.727509 528.249329,180.493973 485.249359,177.180542 
	C436.279602,173.407104 387.310669,169.622681 338.343933,165.810089 
	C313.613708,163.884583 288.890961,161.863632 264.161163,159.932755 
	C254.587402,159.185242 245.003494,158.567429 234.954910,157.857391 
	C234.954910,159.703568 234.954910,161.167099 234.954910,162.630646 
	C234.954971,304.776123 234.953918,446.921600 234.962799,589.067078 
	C234.962982,592.061646 235.077927,595.056152 234.987457,598.966370 
z"/>
<path fill="#D1D1D1" opacity="1.000000" stroke="none" 
	d="
M1605.268677,1132.164429 
	C1605.377563,1132.543213 1605.486450,1132.921875 1605.045654,1133.564209 
	C1603.694214,1133.915771 1602.892456,1134.003662 1601.617310,1134.059082 
	C1535.812256,1134.014160 1470.480591,1134.001831 1405.148926,1133.988403 
	C1398.015869,1133.986938 1398.014526,1133.984375 1398.014526,1126.637085 
	C1398.014404,826.477539 1398.014526,526.317932 1398.014771,226.158386 
	C1398.014771,224.158432 1398.282959,222.108215 1397.917480,220.177673 
	C1397.703613,219.047989 1396.480713,218.109283 1395.711670,217.084686 
	C1380.106323,215.928040 1364.499146,214.793335 1348.895874,213.610016 
	C1319.510254,211.381485 1290.124512,209.152374 1260.742798,206.871552 
	C1236.002441,204.951035 1211.270874,202.918915 1186.530151,201.003555 
	C1142.691895,197.609695 1098.846558,194.304367 1055.009644,190.894012 
	C989.425964,185.791885 923.849609,180.595581 858.264832,175.508667 
	C820.081543,172.547089 781.882324,169.790894 743.700134,166.816452 
	C691.397278,162.741989 639.108093,158.491516 586.804688,154.424179 
	C548.955627,151.480850 511.086212,148.799927 473.238098,145.845154 
	C420.939514,141.762238 368.654510,137.505768 316.358917,133.384369 
	C304.418976,132.443375 292.459503,131.750641 280.521454,130.002502 
	C283.141022,130.002502 285.760559,130.002380 288.380127,130.002518 
	C725.968628,130.025879 1163.557129,130.049255 1601.145630,130.073532 
	C1601.478638,130.073547 1601.811768,130.087494 1602.669922,130.600433 
	C1603.459961,133.731689 1603.956055,136.357422 1603.956543,138.983246 
	C1603.992920,305.423096 1603.988770,471.862946 1603.988525,638.302795 
	C1603.988281,800.744080 1603.983276,963.185303 1604.041260,1125.626587 
	C1604.041992,1127.806030 1604.841919,1129.985107 1605.268677,1132.164429 
M476.006104,138.157379 
	C475.954407,133.475510 479.542450,135.059540 481.792389,135.058136 
	C588.272705,134.991455 694.752991,135.000000 801.233337,135.000000 
	C1065.517822,135.000000 1329.802246,135.000000 1594.086792,135.000000 
	C1596.085571,135.000000 1598.084351,135.000000 1600.083130,135.000000 
	C1600.060669,134.364029 1600.038086,133.728073 1600.015625,133.092102 
	C1193.548706,133.092102 787.081848,133.092102 380.614960,133.092102 
	C380.599365,133.558960 380.583740,134.025803 380.568115,134.492661 
	C385.050507,134.661774 389.555054,134.613388 394.008362,135.067596 
	C397.686798,135.442764 401.575470,133.526749 405.017426,137.417740 
	C407.498199,140.222107 416.102753,138.786133 419.197144,136.229462 
	C419.894806,135.653030 420.864655,135.080139 421.716980,135.068359 
	C428.514679,134.974350 435.314270,135.015900 442.113281,135.015900 
	C441.790680,135.502014 441.468048,135.988129 441.145447,136.474243 
	C442.586060,137.949020 444.026703,139.423813 445.467346,140.898575 
	C446.518738,139.202515 447.570160,137.506454 448.809265,135.507584 
	C451.783295,135.507584 455.597900,135.507584 459.412476,135.507584 
	C459.450958,136.001297 459.489441,136.494995 459.527924,136.988708 
	C457.078644,137.335815 454.629364,137.682922 452.115265,138.039215 
	C455.176239,141.962784 460.672424,141.670380 462.849792,137.249176 
	C464.565155,133.766006 466.406982,134.901306 468.760498,136.015137 
	C471.116760,137.130280 473.582336,138.014526 475.719238,139.644440 
	C475.504120,140.842392 475.289001,142.040344 475.288788,142.041473 
	C478.622192,142.041473 482.670105,140.847107 484.210419,142.304001 
	C486.947021,144.892334 489.625031,145.322662 492.729309,144.946381 
	C498.684509,144.224533 505.012665,147.696655 510.649933,143.375351 
	C510.847595,143.223846 511.401031,143.257996 511.599976,143.427322 
	C517.253540,148.239365 525.476318,140.719589 530.782715,147.377472 
	C530.869080,147.485840 531.841187,146.702881 532.439819,146.618332 
	C536.399841,146.058960 540.077881,142.201218 544.511292,146.655090 
	C545.979126,148.129745 550.646545,149.348953 551.572998,144.717819 
	C556.984070,146.875778 561.955994,149.798294 567.277100,150.732880 
	C573.355347,151.800430 579.745972,151.222183 585.997620,151.131622 
	C592.384216,151.039124 598.769836,152.110672 605.163818,151.102188 
	C605.859131,150.992523 606.817932,151.486649 607.412415,151.987869 
	C610.179932,154.321274 614.651794,150.960312 616.948059,154.864868 
	C617.019714,154.986755 617.997864,154.818710 618.299988,154.525040 
	C621.959961,150.967728 625.687927,149.691223 629.792236,153.882019 
	C630.049683,154.144897 630.770935,153.901535 631.251953,154.006149 
	C633.890076,154.579910 636.520630,155.188766 639.082886,155.769485 
	C644.473022,154.580185 650.040894,153.333908 655.623718,152.157974 
	C656.014465,152.075638 656.559326,152.448761 656.957764,152.719955 
	C663.715149,157.319992 663.859985,157.320709 668.839294,153.122192 
	C672.713379,153.821793 675.915710,154.400101 679.118042,154.978394 
	C681.652466,156.817245 684.477295,158.653702 687.543213,159.249130 
	C693.991150,160.501389 700.551147,161.253006 707.096802,161.879623 
	C709.083923,162.069855 711.170410,161.151581 713.219910,160.789551 
	C714.301453,160.598480 715.399109,160.426453 716.493652,160.396103 
	C718.683838,160.335388 720.876831,160.378098 724.128967,160.378098 
	C726.127319,163.505371 729.131836,162.507828 731.836426,159.175186 
	C741.125122,166.087753 744.701904,164.817291 754.394104,159.249908 
	C757.242615,162.333359 759.986389,164.299759 764.900391,161.777527 
	C767.662964,160.359543 771.973389,161.751572 775.549194,162.184830 
	C778.726135,162.569748 781.851746,163.378387 785.010010,164.714371 
	C785.543518,165.755768 786.077026,166.797165 786.610474,167.838562 
	C787.067444,167.493271 787.524353,167.147995 787.981262,166.802704 
	C786.987488,165.868469 785.993774,164.934235 784.850586,163.275040 
	C782.978210,162.300919 781.105835,161.326782 779.233398,160.352661 
	C779.479675,159.788971 779.725891,159.225266 779.972168,158.661560 
	C782.345032,159.463516 785.129578,159.732391 787.003906,161.179871 
	C790.750244,164.072952 796.678711,163.300034 799.085876,168.568268 
	C799.335449,169.114395 802.403015,168.333725 804.166809,168.237976 
	C805.978760,168.139618 807.795715,168.070511 809.609619,168.087006 
	C813.763672,168.124802 817.916931,168.244705 822.070923,168.283264 
	C823.424316,168.295822 824.960815,167.707794 826.102844,168.167068 
	C832.089844,170.574860 838.076294,171.339020 844.558105,170.328781 
	C847.059021,169.938995 849.110229,170.241302 850.396179,167.601212 
	C850.507812,167.371994 852.737854,168.228760 854.001831,168.496231 
	C857.410034,169.217422 860.876038,170.609970 864.228638,170.385422 
	C867.612061,170.158829 870.840698,168.121521 874.238342,167.291245 
	C875.208435,167.054184 876.743958,168.023499 877.645081,168.849106 
	C879.372559,170.431717 880.831421,172.307587 882.563721,174.242752 
	C884.038208,173.022018 885.251160,172.017792 886.570984,170.925140 
	C889.446960,175.320572 893.079346,176.476318 898.039062,175.306519 
	C901.005432,174.606888 904.309448,175.173904 907.444336,175.405945 
	C909.937439,175.590454 912.404297,176.130280 914.882812,176.512360 
	C919.223206,178.562805 923.414856,179.114182 928.058350,176.328674 
	C931.441101,174.299484 938.229858,176.216187 940.112122,179.408157 
	C944.512878,175.014938 947.633972,173.797302 949.692627,176.125031 
	C950.370422,176.891403 949.494690,179.031799 949.190735,181.810837 
	C954.480774,180.262482 960.237427,179.439270 965.064758,176.870010 
	C968.439087,175.074097 969.136780,175.251831 970.069092,178.536118 
	C970.382874,179.641479 971.300659,181.082718 972.232483,181.346909 
	C972.996582,181.563568 974.488037,180.480713 975.140686,179.593887 
	C977.323975,176.627151 979.087585,176.449692 981.246704,179.673935 
	C981.656616,180.285995 984.291931,180.410019 984.663025,179.884827 
	C987.292542,176.163376 990.091980,178.336288 992.435608,179.724472 
	C996.990967,182.422745 1001.478943,185.562119 1006.967041,184.895004 
	C1013.656860,184.081802 1020.140381,183.917526 1026.572510,186.252365 
	C1027.463135,186.575668 1028.681396,185.885834 1029.755249,185.841568 
	C1031.289673,185.778320 1032.837402,185.800049 1034.366455,185.934540 
	C1035.444458,186.029388 1036.512207,186.605881 1037.564209,186.554199 
	C1039.651001,186.451675 1041.723877,186.063644 1044.777832,185.666901 
	C1047.646240,180.311798 1051.579346,186.411530 1054.577393,187.244690 
	C1059.012817,188.477264 1062.431274,188.972702 1066.387817,186.532944 
	C1067.499268,185.847488 1069.911621,185.810928 1070.864136,186.565872 
	C1076.945190,191.385361 1081.336914,191.487106 1087.508667,186.507172 
	C1087.665771,186.380371 1088.106934,186.605484 1088.722168,186.727005 
	C1088.722168,188.032471 1088.722168,189.383316 1088.722168,191.754303 
	C1091.331299,190.589996 1093.288330,189.716660 1095.376709,188.784714 
	C1096.092407,189.288086 1097.086182,189.987076 1098.079956,190.686050 
	C1097.998657,190.169678 1097.917358,189.653305 1097.836060,189.136932 
	C1099.921875,188.310791 1102.007812,187.484650 1102.958618,187.108032 
	C1104.711060,189.884430 1105.461792,192.476410 1106.667969,192.709183 
	C1109.702026,193.294754 1113.522217,193.871964 1115.969482,192.527359 
	C1120.154297,190.227997 1123.108765,191.272095 1126.184326,193.968246 
	C1129.792236,190.556839 1132.802979,189.827560 1136.472534,193.915466 
	C1137.606323,195.178604 1142.565674,195.256531 1143.462891,194.093933 
	C1147.336670,189.074203 1150.808838,192.441010 1154.455566,193.752594 
	C1157.623657,194.892105 1160.767090,196.099976 1164.454956,197.476791 
	C1164.454956,195.211853 1164.454956,193.854462 1164.454956,192.244385 
	C1166.526367,192.710114 1168.270020,193.102142 1169.412842,193.359085 
	C1169.970947,195.119156 1170.370850,196.380402 1170.770752,197.641647 
	C1171.737549,196.220490 1172.704468,194.799347 1173.923340,193.007706 
	C1177.648682,194.884781 1181.440674,196.795410 1185.821411,199.002716 
	C1185.190918,196.536606 1184.806641,195.033722 1184.306519,193.077408 
	C1185.635010,193.243622 1187.022949,193.184464 1187.093506,193.460907 
	C1188.180786,197.729599 1191.623047,196.845490 1194.607788,197.119659 
	C1197.842163,197.416763 1201.880127,196.817520 1204.116577,198.517822 
	C1209.036377,202.258041 1213.501953,201.344849 1218.291626,200.126984 
	C1224.063965,201.503113 1229.920044,202.189026 1235.788086,202.750320 
	C1236.215454,202.791214 1236.891846,202.014099 1237.177246,201.472275 
	C1239.551025,196.966782 1242.811157,199.358582 1245.088501,200.995544 
	C1250.092407,204.592255 1254.401001,204.944565 1259.514160,201.226639 
	C1263.796631,198.112747 1272.459106,199.962845 1275.157104,204.458511 
	C1275.529297,205.078796 1276.613037,205.272171 1277.367310,205.663223 
	C1277.548950,204.757217 1277.866455,203.851929 1277.871338,202.944977 
	C1277.875610,202.145370 1277.530640,201.343887 1277.339844,200.543228 
	C1277.674683,200.349854 1278.009521,200.156494 1278.344360,199.963120 
	C1280.058594,201.964264 1281.772949,203.965393 1283.192993,205.623154 
	C1288.930786,203.422195 1294.333862,201.190765 1299.870483,199.364304 
	C1300.935425,199.013031 1302.524414,200.250793 1303.871704,200.755463 
	C1302.840942,201.501984 1301.838867,202.292770 1300.771729,202.983246 
	C1299.568726,203.761673 1298.200317,204.331100 1297.156738,205.271942 
	C1296.934326,205.472519 1297.755493,207.586975 1298.173462,207.613861 
	C1300.264648,207.748428 1303.637451,208.257889 1304.276245,207.224274 
	C1307.360107,202.234192 1311.514526,206.328339 1312.953613,207.231934 
	C1316.657349,209.557739 1319.500854,209.399323 1323.031128,207.716415 
	C1324.069580,207.221359 1325.577881,207.345673 1326.772583,207.617767 
	C1329.664551,208.276352 1332.462158,209.660660 1335.364868,209.885635 
	C1339.423462,210.200211 1343.543091,209.726517 1347.636597,209.590057 
	C1353.534668,209.393478 1359.436523,208.999329 1365.328613,209.112061 
	C1367.277832,209.149338 1369.201782,210.492859 1370.490356,210.989700 
	C1374.802612,211.588989 1378.604004,212.117294 1382.716431,212.688812 
	C1382.814941,212.480255 1383.279419,211.496628 1383.744019,210.513016 
	C1383.985718,210.950180 1384.227417,211.387329 1384.469238,211.824493 
	C1387.700928,210.594803 1390.932617,209.365112 1394.547363,207.989685 
	C1394.547363,209.933670 1394.547363,211.295944 1394.547363,212.899170 
	C1396.807373,212.686859 1398.671143,212.511765 1401.026001,212.290558 
	C1400.636353,214.476807 1399.882690,216.200653 1400.135498,217.761566 
	C1400.875366,222.330505 1402.875366,226.834122 1402.877441,231.364029 
	C1403.013184,527.361694 1402.998169,823.359375 1403.009644,1119.357056 
	C1403.010010,1127.993652 1402.116943,1126.981445 1410.852905,1126.988281 
	C1446.852661,1127.016479 1482.852295,1127.000000 1518.852051,1127.000000 
	C1541.518555,1127.000000 1564.185059,1126.981812 1586.851440,1127.037476 
	C1588.521973,1127.041504 1590.191162,1127.578613 1591.860962,1127.867920 
	C1591.784058,1128.566772 1591.707153,1129.265503 1591.630249,1129.964355 
	C1528.999512,1129.964355 1466.368774,1129.964355 1403.738037,1129.964355 
	C1403.725708,1130.642944 1403.713379,1131.321411 1403.701050,1132.000000 
	C1405.561768,1132.000000 1407.422607,1132.000000 1409.283325,1132.000000 
	C1470.116211,1132.000000 1530.948975,1132.000122 1591.781860,1131.999878 
	C1600.999146,1131.999878 1601.000000,1131.999268 1601.000000,1122.849243 
	C1601.000122,797.185120 1601.001953,471.521027 1600.989014,145.856918 
	C1600.988647,137.116653 1601.996094,138.009857 1593.361572,138.009583 
	C1231.531006,137.998398 869.700562,137.991486 507.870026,138.041946 
	C497.246643,138.043427 486.623352,138.666656 476.006104,138.157379 
M375.391724,133.559021 
	C373.619446,133.358231 371.847198,133.157455 370.074921,132.956680 
	C371.799744,134.505295 373.228607,138.051682 375.391724,133.559021 
M1268.646118,203.618225 
	C1268.013672,203.253586 1267.381348,202.888947 1266.748901,202.524292 
	C1266.633301,202.813309 1266.517700,203.102341 1266.402100,203.391373 
	C1267.138672,203.666138 1267.875244,203.940918 1268.646118,203.618225 
M435.282654,140.082794 
	C435.772430,140.029160 436.262207,139.975525 436.751953,139.921890 
	C436.639008,139.485535 436.526062,139.049179 436.413116,138.612793 
	C435.994415,138.907913 435.575714,139.203033 435.282654,140.082794 
M431.509247,137.155334 
	C431.213226,137.574936 430.917206,137.994537 430.621185,138.414124 
	C431.059418,138.526154 431.497650,138.638184 431.935852,138.750214 
	C431.988342,138.259659 432.040802,137.769104 431.509247,137.155334 
M1100.410767,191.194290 
	C1100.792236,191.198700 1101.173706,191.203094 1101.555176,191.207504 
	C1101.556885,191.049240 1101.569336,190.753464 1101.558594,190.752625 
	C1101.179077,190.722992 1100.797363,190.720993 1100.410767,191.194290 
M792.712280,166.548813 
	C792.988708,166.285355 793.265137,166.021896 793.541565,165.758453 
	C793.432434,165.643982 793.323242,165.529510 793.214111,165.415009 
	C792.937622,165.678802 792.661133,165.942581 792.712280,166.548813 
M732.588928,162.804993 
	C732.207581,162.800644 731.826294,162.796295 731.444946,162.791962 
	C731.443237,162.950134 731.430847,163.245804 731.441345,163.246628 
	C731.820923,163.276154 732.202576,163.278183 732.588928,162.804993 
M367.589111,132.806122 
	C367.207642,132.801727 366.826172,132.797348 366.444702,132.792969 
	C366.443054,132.951187 366.430695,133.246933 366.441315,133.247772 
	C366.820831,133.277359 367.202484,133.279373 367.589111,132.806122 
M1602.478760,134.491913 
	C1602.478760,134.491913 1602.522949,134.486038 1602.478760,134.491913 
z"/>
<path fill="#E3E3E3" opacity="1.000000" stroke="none" 
	d="
M1395.817139,217.537521 
	C1396.480713,218.109283 1397.703613,219.047989 1397.917480,220.177673 
	C1398.282959,222.108215 1398.014771,224.158432 1398.014771,226.158386 
	C1398.014526,526.317932 1398.014404,826.477539 1398.014526,1126.637085 
	C1398.014526,1133.984375 1398.015869,1133.986938 1405.148926,1133.988403 
	C1470.480591,1134.001831 1535.812256,1134.014160 1601.609375,1134.307007 
	C1602.136230,1134.920776 1602.124268,1135.251709 1602.039185,1135.580078 
	C1600.549072,1135.667603 1599.059082,1135.831177 1597.568970,1135.831543 
	C1531.578003,1135.849976 1465.587158,1135.853882 1399.596191,1135.859741 
	C1398.618042,1135.859863 1397.639893,1135.859863 1395.964722,1135.859863 
	C1395.964722,1134.008911 1395.964722,1132.435425 1395.964722,1130.861938 
	C1395.973877,827.069885 1395.983032,523.277832 1395.989258,219.485748 
	C1395.989258,218.987289 1395.945801,218.488831 1395.817139,217.537521 
z"/>
<path fill="#FEFEFE" opacity="1.000000" stroke="none" 
	d="
M1605.369141,1131.779053 
	C1604.841919,1129.985107 1604.041992,1127.806030 1604.041260,1125.626587 
	C1603.983276,963.185303 1603.988281,800.744080 1603.988525,638.302795 
	C1603.988770,471.862946 1603.992920,305.423096 1603.956543,138.983246 
	C1603.956055,136.357422 1603.459961,133.731689 1603.130493,130.713898 
	C1603.866821,131.172791 1605.256836,131.959091 1605.358521,132.886688 
	C1605.665405,135.684692 1605.472778,138.537567 1605.472778,141.369034 
	C1605.472900,469.045898 1605.472412,796.722778 1605.472168,1124.399658 
	C1605.472168,1126.731079 1605.470459,1129.062378 1605.369141,1131.779053 
z"/>
<path fill="#BCBCBC" opacity="1.000000" stroke="none" 
	d="
M874.312073,1196.845947 
	C873.913025,1196.355103 873.919678,1196.003906 873.940063,1195.387329 
	C883.116028,1195.770874 892.278198,1196.419800 901.440430,1197.068726 
	C901.415955,1197.487671 901.391479,1197.906616 901.367065,1198.325562 
	C892.483948,1197.878906 883.600830,1197.432373 874.312073,1196.845947 
z"/>
<path fill="#FEFEFE" opacity="1.000000" stroke="none" 
	d="
M1602.344238,1135.664062 
	C1602.124268,1135.251709 1602.136230,1134.920776 1602.082764,1134.339355 
	C1602.892456,1134.003662 1603.694214,1133.915771 1604.900513,1133.834473 
	C1604.419800,1134.476685 1603.534668,1135.112427 1602.344238,1135.664062 
z"/>
<path fill="#01BFD5" opacity="1.000000" stroke="none" 
	d="
M1352.125977,516.024658 
	C1352.205688,518.519592 1352.355103,521.014526 1352.355225,523.509521 
	C1352.365723,746.173523 1352.364746,968.837463 1352.364624,1191.501465 
	C1352.364624,1194.632202 1352.364624,1197.762817 1352.364624,1201.691284 
	C979.682678,1172.782715 607.612000,1143.921631 234.982880,1115.017090 
	C234.982880,997.086243 234.982880,879.476074 235.432526,761.360901 
	C247.171463,758.255554 258.438171,755.551941 269.755005,753.077759 
	C289.791443,748.697266 309.864960,744.486694 329.910675,740.148315 
	C349.958893,735.809387 369.991974,731.400513 390.031830,727.023132 
	C412.522705,722.110413 435.022003,717.235779 457.502563,712.276306 
	C480.311890,707.244324 503.085419,702.049133 525.907104,697.074463 
	C545.412231,692.822693 564.981018,688.862915 584.489441,684.625793 
	C604.872803,680.198486 625.209412,675.556458 645.581482,671.076233 
	C674.373962,664.744263 703.181824,658.482544 731.979858,652.175659 
	C748.950073,648.459167 765.904907,644.672302 782.882996,640.991943 
	C802.118713,636.822205 821.395020,632.837524 840.611755,628.583130 
	C857.268005,624.895691 873.827820,620.769226 890.497986,617.148621 
	C916.530029,611.494873 942.627625,606.144104 968.681702,600.591370 
	C993.122681,595.382568 1017.563843,590.172058 1041.966675,584.788513 
	C1063.935547,579.941956 1085.829102,574.753906 1107.800537,569.919067 
	C1122.345825,566.718323 1136.994751,563.989319 1151.550171,560.831848 
	C1161.264160,558.724609 1170.870361,556.123779 1180.569702,553.943604 
	C1193.949707,550.936157 1207.369507,548.105652 1220.776978,545.221069 
	C1230.655762,543.095642 1240.547607,541.031128 1250.423340,538.891724 
	C1261.580444,536.474609 1272.725830,534.002869 1283.876831,531.556946 
	C1293.908203,529.356506 1303.955811,527.228149 1313.967896,524.942810 
	C1326.702271,522.036072 1339.407959,519.003174 1352.125977,516.024658 
z"/>
<path fill="#01BFD5" opacity="1.000000" stroke="none" 
	d="
M235.139343,598.050720 
	C235.077927,595.056152 234.962982,592.061646 234.962799,589.067078 
	C234.953918,446.921600 234.954971,304.776123 234.954910,162.630646 
	C234.954910,161.167099 234.954910,159.703568 234.954910,157.857391 
	C245.003494,158.567429 254.587402,159.185242 264.161163,159.932755 
	C288.890961,161.863632 313.613708,163.884583 338.343933,165.810089 
	C387.310669,169.622681 436.279602,173.407104 485.249359,177.180542 
	C528.249329,180.493973 571.255432,183.727509 614.251953,187.084763 
	C670.854736,191.504364 727.447449,196.053757 784.051025,200.462982 
	C817.082703,203.036026 850.132385,205.379425 883.164856,207.942368 
	C930.971008,211.651627 978.765442,215.511749 1026.571655,219.220306 
	C1060.439453,221.847580 1094.321777,224.287735 1128.191650,226.890030 
	C1163.377686,229.593430 1198.556152,232.396698 1233.738647,235.146530 
	C1271.594727,238.105331 1309.447876,241.103821 1347.314209,243.924683 
	C1351.010620,244.200043 1352.481323,245.069839 1352.459839,249.121140 
	C1352.276001,283.780975 1352.314453,318.442047 1351.773071,353.572266 
	C1347.065918,355.039276 1342.893921,356.142517 1338.674316,357.014771 
	C1324.900513,359.862030 1311.083374,362.504456 1297.333740,365.462494 
	C1288.111084,367.446655 1279.010132,369.994080 1269.791138,371.997223 
	C1258.153076,374.526001 1246.417236,376.605743 1234.785400,379.161072 
	C1223.869995,381.559021 1213.072632,384.495911 1202.154297,386.879395 
	C1191.329590,389.242523 1180.371094,390.996613 1169.555298,393.396851 
	C1146.947144,398.414062 1124.430054,403.845001 1101.807739,408.795715 
	C1081.923950,413.147186 1061.920044,416.947418 1042.020020,421.227814 
	C1022.908997,425.338470 1003.866089,429.764832 984.788269,434.030304 
	C969.941223,437.349884 955.096436,440.680511 940.233032,443.925537 
	C918.898254,448.583435 897.544983,453.156647 876.204529,457.788300 
	C865.226929,460.170898 854.266235,462.631378 843.286621,465.004242 
	C823.872192,469.200043 804.426270,473.252777 785.035706,477.555298 
	C762.408936,482.575867 739.858276,487.941498 717.216858,492.893372 
	C697.334412,497.241821 677.340393,501.079254 657.453674,505.408905 
	C634.366272,510.435364 611.360046,515.833374 588.285278,520.918823 
	C568.243347,525.335815 548.139709,529.472473 528.091187,533.860046 
	C505.439301,538.817261 482.834869,543.991577 460.180023,548.934998 
	C429.622925,555.602783 399.029999,562.106384 368.467682,568.750427 
	C356.336792,571.387512 344.263885,574.291138 332.134033,576.933289 
	C312.260254,581.262268 292.353973,585.441956 272.476105,589.752441 
	C260.016571,592.454224 247.584000,595.280334 235.139343,598.050720 
z"/>
<path fill="#00E4FD" opacity="1.000000" stroke="none" 
	d="
M235.063400,598.508545 
	C247.584000,595.280334 260.016571,592.454224 272.476105,589.752441 
	C292.353973,585.441956 312.260254,581.262268 332.134033,576.933289 
	C344.263885,574.291138 356.336792,571.387512 368.467682,568.750427 
	C399.029999,562.106384 429.622925,555.602783 460.180023,548.934998 
	C482.834869,543.991577 505.439301,538.817261 528.091187,533.860046 
	C548.139709,529.472473 568.243347,525.335815 588.285278,520.918823 
	C611.360046,515.833374 634.366272,510.435364 657.453674,505.408905 
	C677.340393,501.079254 697.334412,497.241821 717.216858,492.893372 
	C739.858276,487.941498 762.408936,482.575867 785.035706,477.555298 
	C804.426270,473.252777 823.872192,469.200043 843.286621,465.004242 
	C854.266235,462.631378 865.226929,460.170898 876.204529,457.788300 
	C897.544983,453.156647 918.898254,448.583435 940.233032,443.925537 
	C955.096436,440.680511 969.941223,437.349884 984.788269,434.030304 
	C1003.866089,429.764832 1022.908997,425.338470 1042.020020,421.227814 
	C1061.920044,416.947418 1081.923950,413.147186 1101.807739,408.795715 
	C1124.430054,403.845001 1146.947144,398.414062 1169.555298,393.396851 
	C1180.371094,390.996613 1191.329590,389.242523 1202.154297,386.879395 
	C1213.072632,384.495911 1223.869995,381.559021 1234.785400,379.161072 
	C1246.417236,376.605743 1258.153076,374.526001 1269.791138,371.997223 
	C1279.010132,369.994080 1288.111084,367.446655 1297.333740,365.462494 
	C1311.083374,362.504456 1324.900513,359.862030 1338.674316,357.014771 
	C1342.893921,356.142517 1347.065918,355.039276 1351.664062,354.032166 
	C1352.174316,356.172394 1352.372437,358.322266 1352.372559,360.472168 
	C1352.377075,412.014984 1352.360474,463.557831 1352.236816,515.562622 
	C1339.407959,519.003174 1326.702271,522.036072 1313.967896,524.942810 
	C1303.955811,527.228149 1293.908203,529.356506 1283.876831,531.556946 
	C1272.725830,534.002869 1261.580444,536.474609 1250.423340,538.891724 
	C1240.547607,541.031128 1230.655762,543.095642 1220.776978,545.221069 
	C1207.369507,548.105652 1193.949707,550.936157 1180.569702,553.943604 
	C1170.870361,556.123779 1161.264160,558.724609 1151.550171,560.831848 
	C1136.994751,563.989319 1122.345825,566.718323 1107.800537,569.919067 
	C1085.829102,574.753906 1063.935547,579.941956 1041.966675,584.788513 
	C1017.563843,590.172058 993.122681,595.382568 968.681702,600.591370 
	C942.627625,606.144104 916.530029,611.494873 890.497986,617.148621 
	C873.827820,620.769226 857.268005,624.895691 840.611755,628.583130 
	C821.395020,632.837524 802.118713,636.822205 782.882996,640.991943 
	C765.904907,644.672302 748.950073,648.459167 731.979858,652.175659 
	C703.181824,658.482544 674.373962,664.744263 645.581482,671.076233 
	C625.209412,675.556458 604.872803,680.198486 584.489441,684.625793 
	C564.981018,688.862915 545.412231,692.822693 525.907104,697.074463 
	C503.085419,702.049133 480.311890,707.244324 457.502563,712.276306 
	C435.022003,717.235779 412.522705,722.110413 390.031830,727.023132 
	C369.991974,731.400513 349.958893,735.809387 329.910675,740.148315 
	C309.864960,744.486694 289.791443,748.697266 269.755005,753.077759 
	C258.438171,755.551941 247.171463,758.255554 235.504562,760.892700 
	C235.065292,745.435913 234.956543,729.942261 234.951263,714.448669 
	C234.938171,675.954590 234.972290,637.460449 235.063400,598.508545 
z"/>
<path fill="#D0D0D0" opacity="1.000000" stroke="none" 
	d="
M784.925293,163.637512 
	C781.851746,163.378387 778.726135,162.569748 775.549194,162.184830 
	C771.973389,161.751572 767.662964,160.359543 764.900391,161.777527 
	C759.986389,164.299759 757.242615,162.333359 754.394104,159.249908 
	C744.701904,164.817291 741.125122,166.087753 731.836426,159.175186 
	C729.131836,162.507828 726.127319,163.505371 724.128967,160.378098 
	C720.876831,160.378098 718.683838,160.335388 716.493652,160.396103 
	C715.399109,160.426453 714.301453,160.598480 713.219910,160.789551 
	C711.170410,161.151581 709.083923,162.069855 707.096802,161.879623 
	C700.551147,161.253006 693.991150,160.501389 687.543213,159.249130 
	C684.477295,158.653702 681.652466,156.817245 679.118042,154.978394 
	C675.915710,154.400101 672.713379,153.821793 668.839294,153.122192 
	C663.859985,157.320709 663.715149,157.319992 656.957764,152.719955 
	C656.559326,152.448761 656.014465,152.075638 655.623718,152.157974 
	C650.040894,153.333908 644.473022,154.580185 639.082886,155.769485 
	C636.520630,155.188766 633.890076,154.579910 631.251953,154.006149 
	C630.770935,153.901535 630.049683,154.144897 629.792236,153.882019 
	C625.687927,149.691223 621.959961,150.967728 618.299988,154.525040 
	C617.997864,154.818710 617.019714,154.986755 616.948059,154.864868 
	C614.651794,150.960312 610.179932,154.321274 607.412415,151.987869 
	C606.817932,151.486649 605.859131,150.992523 605.163818,151.102188 
	C598.769836,152.110672 592.384216,151.039124 585.997620,151.131622 
	C579.745972,151.222183 573.355347,151.800430 567.277100,150.732880 
	C561.955994,149.798294 556.984070,146.875778 551.572998,144.717819 
	C550.646545,149.348953 545.979126,148.129745 544.511292,146.655090 
	C540.077881,142.201218 536.399841,146.058960 532.439819,146.618332 
	C531.841187,146.702881 530.869080,147.485840 530.782715,147.377472 
	C525.476318,140.719589 517.253540,148.239365 511.599976,143.427322 
	C511.401031,143.257996 510.847595,143.223846 510.649933,143.375351 
	C505.012665,147.696655 498.684509,144.224533 492.729309,144.946381 
	C489.625031,145.322662 486.947021,144.892334 484.210419,142.304001 
	C482.670105,140.847107 478.622192,142.041473 475.288788,142.041473 
	C475.289001,142.040344 475.504120,140.842392 475.859619,139.322205 
	C486.623352,138.666656 497.246643,138.043427 507.870026,138.041946 
	C869.700562,137.991486 1231.531006,137.998398 1593.361572,138.009583 
	C1601.996094,138.009857 1600.988647,137.116653 1600.989014,145.856918 
	C1601.001953,471.521027 1601.000122,797.185120 1601.000000,1122.849243 
	C1601.000000,1131.999268 1600.999146,1131.999878 1591.781860,1131.999878 
	C1530.948975,1132.000122 1470.116211,1132.000000 1409.283325,1132.000000 
	C1407.422607,1132.000000 1405.561768,1132.000000 1403.701050,1132.000000 
	C1403.713379,1131.321411 1403.725708,1130.642944 1403.738037,1129.964355 
	C1466.368774,1129.964355 1528.999512,1129.964355 1591.630249,1129.964355 
	C1591.707153,1129.265503 1591.784058,1128.566772 1591.860962,1127.867920 
	C1590.191162,1127.578613 1588.521973,1127.041504 1586.851440,1127.037476 
	C1564.185059,1126.981812 1541.518555,1127.000000 1518.852051,1127.000000 
	C1482.852295,1127.000000 1446.852661,1127.016479 1410.852905,1126.988281 
	C1402.116943,1126.981445 1403.010010,1127.993652 1403.009644,1119.357056 
	C1402.998169,823.359375 1403.013184,527.361694 1402.877441,231.364029 
	C1402.875366,226.834122 1400.875366,222.330505 1400.135498,217.761566 
	C1399.882690,216.200653 1400.636353,214.476807 1401.026001,212.290558 
	C1398.671143,212.511765 1396.807373,212.686859 1394.547363,212.899170 
	C1394.547363,211.295944 1394.547363,209.933670 1394.547363,207.989685 
	C1390.932617,209.365112 1387.700928,210.594803 1384.469238,211.824493 
	C1384.227417,211.387329 1383.985718,210.950180 1383.744019,210.513016 
	C1383.279419,211.496628 1382.814941,212.480255 1382.716431,212.688812 
	C1378.604004,212.117294 1374.802612,211.588989 1370.490356,210.989700 
	C1369.201782,210.492859 1367.277832,209.149338 1365.328613,209.112061 
	C1359.436523,208.999329 1353.534668,209.393478 1347.636597,209.590057 
	C1343.543091,209.726517 1339.423462,210.200211 1335.364868,209.885635 
	C1332.462158,209.660660 1329.664551,208.276352 1326.772583,207.617767 
	C1325.577881,207.345673 1324.069580,207.221359 1323.031128,207.716415 
	C1319.500854,209.399323 1316.657349,209.557739 1312.953613,207.231934 
	C1311.514526,206.328339 1307.360107,202.234192 1304.276245,207.224274 
	C1303.637451,208.257889 1300.264648,207.748428 1298.173462,207.613861 
	C1297.755493,207.586975 1296.934326,205.472519 1297.156738,205.271942 
	C1298.200317,204.331100 1299.568726,203.761673 1300.771729,202.983246 
	C1301.838867,202.292770 1302.840942,201.501984 1303.871704,200.755463 
	C1302.524414,200.250793 1300.935425,199.013031 1299.870483,199.364304 
	C1294.333862,201.190765 1288.930786,203.422195 1283.192993,205.623154 
	C1281.772949,203.965393 1280.058594,201.964264 1278.344360,199.963120 
	C1278.009521,200.156494 1277.674683,200.349854 1277.339844,200.543228 
	C1277.530640,201.343887 1277.875610,202.145370 1277.871338,202.944977 
	C1277.866455,203.851929 1277.548950,204.757217 1277.367310,205.663208 
	C1276.613037,205.272171 1275.529297,205.078796 1275.157104,204.458511 
	C1272.459106,199.962845 1263.796631,198.112747 1259.514160,201.226639 
	C1254.401001,204.944565 1250.092407,204.592255 1245.088501,200.995544 
	C1242.811157,199.358582 1239.551025,196.966782 1237.177246,201.472275 
	C1236.891846,202.014099 1236.215454,202.791214 1235.788086,202.750320 
	C1229.920044,202.189026 1224.063965,201.503113 1218.291626,200.126984 
	C1213.501953,201.344849 1209.036377,202.258041 1204.116577,198.517822 
	C1201.880127,196.817520 1197.842163,197.416763 1194.607788,197.119659 
	C1191.623047,196.845490 1188.180786,197.729599 1187.093506,193.460907 
	C1187.022949,193.184464 1185.635010,193.243622 1184.306519,193.077408 
	C1184.806641,195.033722 1185.190918,196.536606 1185.821411,199.002716 
	C1181.440674,196.795410 1177.648682,194.884781 1173.923340,193.007706 
	C1172.704468,194.799347 1171.737549,196.220490 1170.770752,197.641663 
	C1170.370850,196.380402 1169.970947,195.119156 1169.412842,193.359085 
	C1168.270020,193.102142 1166.526367,192.710114 1164.454956,192.244385 
	C1164.454956,193.854462 1164.454956,195.211853 1164.454956,197.476791 
	C1160.767090,196.099976 1157.623657,194.892105 1154.455566,193.752594 
	C1150.808838,192.441010 1147.336670,189.074203 1143.462891,194.093933 
	C1142.565674,195.256531 1137.606323,195.178604 1136.472534,193.915466 
	C1132.802979,189.827560 1129.792236,190.556839 1126.184326,193.968246 
	C1123.108765,191.272095 1120.154297,190.227997 1115.969482,192.527359 
	C1113.522217,193.871964 1109.702026,193.294754 1106.667969,192.709183 
	C1105.461792,192.476410 1104.711060,189.884430 1102.958618,187.108032 
	C1102.007812,187.484650 1099.921875,188.310791 1097.836060,189.136932 
	C1097.917358,189.653305 1097.998657,190.169678 1098.079956,190.686050 
	C1097.086182,189.987076 1096.092407,189.288086 1095.376709,188.784714 
	C1093.288330,189.716660 1091.331299,190.589996 1088.722168,191.754303 
	C1088.722168,189.383316 1088.722168,188.032471 1088.722168,186.727005 
	C1088.106934,186.605484 1087.665771,186.380371 1087.508667,186.507172 
	C1081.336914,191.487106 1076.945190,191.385361 1070.864136,186.565872 
	C1069.911621,185.810928 1067.499268,185.847488 1066.387817,186.532944 
	C1062.431274,188.972702 1059.012817,188.477264 1054.577393,187.244690 
	C1051.579346,186.411530 1047.646240,180.311798 1044.777832,185.666901 
	C1041.723877,186.063644 1039.651001,186.451675 1037.564209,186.554199 
	C1036.512207,186.605881 1035.444458,186.029388 1034.366455,185.934540 
	C1032.837402,185.800049 1031.289673,185.778320 1029.755249,185.841568 
	C1028.681396,185.885834 1027.463135,186.575668 1026.572510,186.252365 
	C1020.140381,183.917526 1013.656860,184.081802 1006.967041,184.895004 
	C1001.478943,185.562119 996.990967,182.422745 992.435608,179.724472 
	C990.091980,178.336288 987.292542,176.163376 984.663025,179.884827 
	C984.291931,180.410019 981.656616,180.285995 981.246704,179.673935 
	C979.087585,176.449692 977.323975,176.627151 975.140686,179.593887 
	C974.488037,180.480713 972.996582,181.563568 972.232483,181.346909 
	C971.300659,181.082718 970.382874,179.641479 970.069092,178.536118 
	C969.136780,175.251831 968.439087,175.074097 965.064758,176.870010 
	C960.237427,179.439270 954.480774,180.262482 949.190735,181.810837 
	C949.494690,179.031799 950.370422,176.891403 949.692627,176.125031 
	C947.633972,173.797302 944.512878,175.014938 940.112122,179.408157 
	C938.229858,176.216187 931.441101,174.299484 928.058350,176.328674 
	C923.414856,179.114182 919.223206,178.562805 914.882812,176.512360 
	C912.404297,176.130280 909.937439,175.590454 907.444336,175.405945 
	C904.309448,175.173904 901.005432,174.606888 898.039062,175.306519 
	C893.079346,176.476318 889.446960,175.320572 886.570984,170.925140 
	C885.251160,172.017792 884.038208,173.022018 882.563721,174.242752 
	C880.831421,172.307587 879.372559,170.431717 877.645081,168.849106 
	C876.743958,168.023499 875.208435,167.054184 874.238342,167.291245 
	C870.840698,168.121521 867.612061,170.158829 864.228638,170.385422 
	C860.876038,170.609970 857.410034,169.217422 854.001831,168.496231 
	C852.737854,168.228760 850.507812,167.371994 850.396179,167.601212 
	C849.110229,170.241302 847.059021,169.938995 844.558105,170.328781 
	C838.076294,171.339020 832.089844,170.574860 826.102844,168.167068 
	C824.960815,167.707794 823.424316,168.295822 822.070923,168.283264 
	C817.916931,168.244705 813.763672,168.124802 809.609619,168.087006 
	C807.795715,168.070511 805.978760,168.139618 804.166809,168.237976 
	C802.403015,168.333725 799.335449,169.114395 799.085876,168.568268 
	C796.678711,163.300034 790.750244,164.072952 787.003906,161.179871 
	C785.129578,159.732391 782.345032,159.463516 779.972168,158.661560 
	C779.725891,159.225266 779.479675,159.788971 779.233398,160.352661 
	C781.105835,161.326782 782.978210,162.300919 784.925293,163.637512 
z"/>
<path fill="#D0D0D0" opacity="1.000000" stroke="none" 
	d="
M476.003052,138.578690 
	C473.582336,138.014526 471.116760,137.130280 468.760498,136.015137 
	C466.406982,134.901306 464.565155,133.766006 462.849792,137.249176 
	C460.672424,141.670380 455.176239,141.962784 452.115265,138.039215 
	C454.629364,137.682922 457.078644,137.335815 459.527924,136.988708 
	C459.489441,136.494995 459.450958,136.001297 459.412476,135.507584 
	C455.597900,135.507584 451.783295,135.507584 448.809265,135.507584 
	C447.570160,137.506454 446.518738,139.202515 445.467346,140.898590 
	C444.026703,139.423813 442.586060,137.949020 441.145447,136.474243 
	C441.468048,135.988129 441.790680,135.502014 442.113281,135.015900 
	C435.314270,135.015900 428.514679,134.974350 421.716980,135.068359 
	C420.864655,135.080139 419.894806,135.653030 419.197144,136.229462 
	C416.102753,138.786133 407.498199,140.222107 405.017426,137.417740 
	C401.575470,133.526749 397.686798,135.442764 394.008362,135.067596 
	C389.555054,134.613388 385.050507,134.661774 380.568115,134.492661 
	C380.583740,134.025803 380.599365,133.558960 380.614960,133.092102 
	C787.081848,133.092102 1193.548706,133.092102 1600.015625,133.092102 
	C1600.038086,133.728073 1600.060669,134.364029 1600.083130,135.000000 
	C1598.084351,135.000000 1596.085571,135.000000 1594.086792,135.000000 
	C1329.802246,135.000000 1065.517822,135.000000 801.233337,135.000000 
	C694.752991,135.000000 588.272705,134.991455 481.792389,135.058136 
	C479.542450,135.059540 475.954407,133.475510 476.003052,138.578690 
z"/>
<path fill="#D0D0D0" opacity="1.000000" stroke="none" 
	d="
M375.494263,133.894867 
	C373.228607,138.051682 371.799744,134.505295 370.074921,132.956680 
	C371.847198,133.157455 373.619446,133.358231 375.494263,133.894867 
z"/>
<path fill="#D0D0D0" opacity="1.000000" stroke="none" 
	d="
M785.005005,164.357178 
	C785.993774,164.934235 786.987488,165.868469 787.981262,166.802704 
	C787.524353,167.147995 787.067444,167.493271 786.610474,167.838562 
	C786.077026,166.797165 785.543518,165.755768 785.005005,164.357178 
z"/>
<path fill="#D0D0D0" opacity="1.000000" stroke="none" 
	d="
M1268.628906,203.916962 
	C1267.875244,203.940918 1267.138672,203.666138 1266.402100,203.391357 
	C1266.517700,203.102341 1266.633301,202.813309 1266.748901,202.524292 
	C1267.381348,202.888947 1268.013672,203.253586 1268.628906,203.916962 
z"/>
<path fill="#D0D0D0" opacity="1.000000" stroke="none" 
	d="
M435.219849,139.790466 
	C435.575714,139.203033 435.994415,138.907913 436.413086,138.612793 
	C436.526062,139.049179 436.639008,139.485535 436.751953,139.921890 
	C436.262207,139.975525 435.772430,140.029160 435.219849,139.790466 
z"/>
<path fill="#D0D0D0" opacity="1.000000" stroke="none" 
	d="
M431.801270,137.216949 
	C432.040802,137.769104 431.988342,138.259659 431.935852,138.750214 
	C431.497650,138.638184 431.059418,138.526154 430.621185,138.414124 
	C430.917206,137.994537 431.213226,137.574936 431.801270,137.216949 
z"/>
<path fill="#D0D0D0" opacity="1.000000" stroke="none" 
	d="
M1100.413330,190.954712 
	C1100.797363,190.720993 1101.179077,190.722992 1101.558594,190.752625 
	C1101.569336,190.753464 1101.556885,191.049240 1101.555176,191.207504 
	C1101.173706,191.203094 1100.792236,191.198700 1100.413330,190.954712 
z"/>
<path fill="#D0D0D0" opacity="1.000000" stroke="none" 
	d="
M792.548462,166.377594 
	C792.661133,165.942581 792.937622,165.678802 793.214111,165.415039 
	C793.323242,165.529510 793.432434,165.643982 793.541565,165.758453 
	C793.265137,166.021896 792.988708,166.285355 792.548462,166.377594 
z"/>
<path fill="#D0D0D0" opacity="1.000000" stroke="none" 
	d="
M732.586426,163.044510 
	C732.202576,163.278183 731.820923,163.276154 731.441345,163.246628 
	C731.430847,163.245804 731.443237,162.950134 731.444946,162.791962 
	C731.826294,162.796295 732.207581,162.800644 732.586426,163.044510 
z"/>
<path fill="#D0D0D0" opacity="1.000000" stroke="none" 
	d="
M367.586487,133.045685 
	C367.202484,133.279373 366.820831,133.277359 366.441315,133.247772 
	C366.430695,133.246933 366.443054,132.951187 366.444702,132.792969 
	C366.826172,132.797348 367.207642,132.801727 367.586487,133.045685 
z"/>
<path fill="#FEFEFE" opacity="1.000000" stroke="none" 
	d="
M1602.500854,134.488983 
	C1602.522949,134.486038 1602.478760,134.491913 1602.500854,134.488983 
z"/>
</svg>