<svg version="1.1" id="Layer_1" xmlns="http://www.w3.org/2000/svg" xmlns:xlink="http://www.w3.org/1999/xlink" x="0px" y="0px"
	 width="100%" viewBox="0 0 1204 751" enable-background="new 0 0 1204 751" xml:space="preserve">
<path fill="#A1A1A1" opacity="1.000000" stroke="none" 
	d="
M1204.000000,752.000000 
	C803.633911,752.000000 403.267883,752.000000 2.481021,751.705261 
	C2.092583,751.215698 2.124934,751.020813 2.602190,750.864136 
	C4.879279,750.928040 6.711462,750.976074 8.543646,750.976135 
	C403.150604,750.983826 797.757568,750.988647 1192.364502,750.986450 
	C1196.195068,750.986389 1200.025757,750.891968 1203.888916,751.131592 
	C1203.947632,751.614441 1203.973755,751.807190 1204.000000,752.000000 
z"/>
<path fill="#7C7C7C" opacity="1.000000" stroke="none" 
	d="
M2.000000,1.000000 
	C402.366058,1.000000 802.732117,1.000000 1203.496826,1.279564 
	C1203.874878,1.747596 1203.854126,1.936062 1203.533203,2.105993 
	C1202.834473,2.105287 1202.435913,2.123118 1201.583984,2.081040 
	C1199.797485,2.012685 1198.464478,1.996846 1197.131592,1.996833 
	C801.403625,1.993116 405.675629,1.990231 9.947637,1.995148 
	C7.951836,1.995172 5.956036,2.105888 3.660483,2.123065 
	C2.957343,2.092105 2.553955,2.102991 2.100863,1.837039 
	C2.034105,1.373466 2.017052,1.186733 2.000000,1.000000 
z"/>
<path fill="#FFFFFF" opacity="1.000000" stroke="none" 
	d="
M1.500000,1.000000 
	C2.017052,1.186733 2.034105,1.373466 2.028553,2.282069 
	C2.002774,249.115524 1.999003,495.227112 2.003100,741.338684 
	C2.003153,744.501099 2.103664,747.663452 2.157285,750.825867 
	C2.124934,751.020813 2.092583,751.215698 2.030114,751.705261 
	C1.666662,751.833679 1.056173,751.684692 1.044448,751.498169 
	C0.961049,750.170959 1.000000,748.836121 1.000000,747.503662 
	C1.000000,498.669098 1.000000,249.834549 1.500000,1.000000 
z"/>
<path fill="#FDFDFD" opacity="1.000000" stroke="none" 
	d="
M1203.833496,2.124529 
	C1203.854126,1.936062 1203.874878,1.747596 1203.947754,1.279544 
	C1204.333374,1.166626 1204.943726,1.315892 1204.955566,1.502750 
	C1205.038940,2.830884 1205.000000,4.166667 1205.000000,5.500000 
	C1205.000000,254.333328 1205.000000,503.166656 1204.500000,752.000000 
	C1203.973755,751.807190 1203.947632,751.614441 1203.951538,750.689148 
	C1203.987549,502.674347 1203.994019,255.391998 1203.992676,8.109669 
	C1203.992676,6.114622 1203.888794,4.119576 1203.833496,2.124529 
z"/>
<path fill="#020202" opacity="1.000000" stroke="none" 
	d="
M1203.533203,2.105994 
	C1203.888794,4.119576 1203.992676,6.114622 1203.992676,8.109669 
	C1203.994019,255.391998 1203.987549,502.674347 1203.918945,750.399109 
	C1200.025757,750.891968 1196.195068,750.986389 1192.364502,750.986450 
	C797.757568,750.988647 403.150604,750.983826 8.543646,750.976135 
	C6.711462,750.976074 4.879279,750.928040 2.602190,750.864136 
	C2.103664,747.663452 2.003153,744.501099 2.003100,741.338684 
	C1.999003,495.227112 2.002774,249.115524 2.078258,2.558908 
	C2.553955,2.102991 2.957343,2.092105 3.697515,2.405562 
	C4.078224,2.916010 4.122149,3.102114 4.218423,3.735686 
	C4.270773,252.609680 4.270773,501.036194 4.270773,749.527405 
	C403.711060,749.527405 802.701416,749.527405 1201.823975,749.527405 
	C1201.823975,747.311462 1201.823975,745.484680 1201.823975,743.657898 
	C1201.824341,517.347290 1201.823364,291.036743 1201.826782,64.726151 
	C1201.827148,44.228928 1201.856445,23.731705 1201.925903,2.962970 
	C1201.998901,2.507955 1202.018188,2.324453 1202.037476,2.140949 
	C1202.435913,2.123118 1202.834473,2.105287 1203.533203,2.105994 
z"/>
<path fill="#1D1D1D" opacity="1.000000" stroke="none" 
	d="
M4.166073,3.288218 
	C4.122149,3.102114 4.078224,2.916010 3.997268,2.447409 
	C5.956036,2.105888 7.951836,1.995172 9.947637,1.995148 
	C405.675629,1.990231 801.403625,1.993116 1197.131592,1.996833 
	C1198.464478,1.996846 1199.797485,2.012685 1201.583984,2.081041 
	C1202.018188,2.324453 1201.998901,2.507955 1201.466553,2.933144 
	C1199.453857,3.162163 1197.954102,3.138397 1196.454468,3.138393 
	C817.020020,3.137257 437.585571,3.135727 58.151127,3.144614 
	C40.156109,3.145035 22.161091,3.238229 4.166073,3.288218 
z"/>
<path fill="#D4D4D4" opacity="1.000000" stroke="none" 
	d="
M4.218423,3.735686 
	C22.161091,3.238229 40.156109,3.145035 58.151127,3.144614 
	C437.585571,3.135727 817.020020,3.137257 1196.454468,3.138393 
	C1197.954102,3.138397 1199.453857,3.162163 1201.412842,3.204656 
	C1201.856445,23.731705 1201.827148,44.228928 1201.826782,64.726151 
	C1201.823364,291.036743 1201.824341,517.347290 1201.823975,743.657898 
	C1201.823975,745.484680 1201.823975,747.311462 1201.823975,749.527405 
	C802.701416,749.527405 403.711060,749.527405 4.270773,749.527405 
	C4.270773,501.036194 4.270773,252.609680 4.218423,3.735686 
M72.683487,713.397156 
	C74.598488,713.655090 76.513451,714.138428 78.428505,714.138855 
	C243.652649,714.173645 408.876801,714.173523 574.100952,714.161377 
	C580.087830,714.160950 586.074707,714.015442 592.886780,714.109741 
	C595.923584,714.050110 598.960388,713.990417 602.654785,714.139893 
	C603.104065,714.070496 603.553406,714.001160 604.922424,714.124451 
	C621.718994,714.536743 638.547913,714.426514 655.305725,715.464905 
	C696.317932,718.006042 737.296875,721.083923 778.289978,723.933960 
	C815.467957,726.518677 852.646484,729.096863 889.825989,731.658997 
	C903.724243,732.616821 917.626282,733.521118 931.990662,734.480835 
	C931.990662,728.618103 931.867554,723.153687 932.081909,717.702515 
	C932.132080,716.426636 933.324951,715.195679 934.912964,714.137817 
	C999.794006,714.148743 1064.675049,714.166260 1129.556152,714.154053 
	C1133.374878,714.153320 1137.193604,713.913452 1141.891846,713.938171 
	C1145.912354,713.936035 1144.110107,710.816956 1144.110718,709.193848 
	C1144.195801,488.458282 1144.187988,267.722626 1144.176636,46.986992 
	C1144.176514,44.658108 1144.071167,42.329235 1144.145630,39.346802 
	C1143.764038,39.237797 1143.382446,39.128792 1142.338623,38.863808 
	C1141.893799,38.928108 1141.449097,38.992413 1140.091309,38.823212 
	C1139.591553,38.812950 1139.091919,38.793690 1138.592163,38.793690 
	C800.858093,38.795322 463.124054,38.797970 125.389992,38.809109 
	C123.728653,38.809162 122.067322,38.929688 120.134979,39.592129 
	C119.621452,39.392651 119.107918,39.193169 117.594711,38.819801 
	C100.395729,38.894024 83.196754,38.968250 65.182632,38.854225 
	C61.519661,38.085941 62.202278,40.551853 62.202499,42.711826 
	C62.225262,264.057404 62.226627,485.403015 62.229286,706.748596 
	C62.229313,709.167725 62.229294,711.586792 62.229294,714.005920 
	C62.733395,714.215637 63.237499,714.425293 63.741600,714.635010 
	C64.517746,713.417908 65.293892,712.200867 66.712357,710.979919 
	C67.139160,711.013733 67.565964,711.047546 68.134644,711.763062 
	C69.388123,712.185425 70.641602,712.607727 72.683487,713.397156 
z"/>
<path fill="#FEFEFE" opacity="1.000000" stroke="none" 
	d="
M118.594391,38.993687 
	C119.107918,39.193169 119.621452,39.392651 119.999542,39.782322 
	C121.842934,40.344166 123.821671,41.040585 125.800621,41.041206 
	C280.547546,41.089729 435.294464,41.081963 590.041382,41.082249 
	C771.317932,41.082584 952.594543,41.085529 1133.871094,41.097206 
	C1136.199829,41.097355 1138.528564,41.227562 1140.840088,41.746529 
	C1140.835205,265.349396 1140.847534,488.502777 1140.405029,711.730347 
	C1138.452393,711.843201 1136.954590,711.915710 1135.456665,711.915833 
	C1069.633789,711.920166 1003.811035,711.916565 937.988220,711.925415 
	C936.328857,711.925659 934.669495,712.053894 932.640991,711.880615 
	C932.271912,700.874023 932.271912,690.109192 932.271912,678.941101 
	C980.886414,678.941101 1029.289185,678.941101 1077.772583,678.941101 
	C1077.772583,477.130249 1077.772583,275.726166 1077.772583,74.206177 
	C761.132141,74.206177 444.737732,74.206177 128.193649,74.206177 
	C128.193649,275.879883 128.193649,477.303131 128.193649,678.919861 
	C129.168793,679.010681 129.963898,679.101013 130.761429,679.156616 
	C166.159851,681.627625 201.557312,684.112976 236.957443,686.559448 
	C282.831024,689.729675 328.706879,692.866638 374.581512,696.021667 
	C405.331329,698.136414 436.080872,700.255005 466.830170,702.376892 
	C502.895966,704.865662 538.961426,707.359924 574.779663,710.487793 
	C572.095886,711.388367 569.659546,711.883789 567.223022,711.884338 
	C404.315460,711.920044 241.407898,711.915588 78.500336,711.920349 
	C76.336967,711.920410 74.173599,711.994690 71.796829,711.741089 
	C70.386536,711.325623 69.189659,711.203491 67.992775,711.081299 
	C67.565964,711.047546 67.139160,711.013733 66.292427,710.523315 
	C65.864548,490.240326 65.855804,270.413879 65.856606,50.587418 
	C65.856613,47.425701 65.975838,44.263981 66.505676,41.094933 
	C69.789383,41.049397 72.606819,40.980431 75.424301,40.978230 
	C88.686638,40.967880 101.949486,41.024063 115.210495,40.891220 
	C116.344681,40.879860 117.466713,39.654884 118.594391,38.993687 
z"/>
<path fill="#030303" opacity="1.000000" stroke="none" 
	d="
M575.026978,709.851807 
	C538.961426,707.359924 502.895966,704.865662 466.830170,702.376892 
	C436.080872,700.255005 405.331329,698.136414 374.581512,696.021667 
	C328.706879,692.866638 282.831024,689.729675 236.957443,686.559448 
	C201.557312,684.112976 166.159851,681.627625 130.761429,679.156616 
	C129.963898,679.101013 129.168793,679.010681 128.193649,678.919861 
	C128.193649,477.303131 128.193649,275.879883 128.193649,74.206177 
	C444.737732,74.206177 761.132141,74.206177 1077.772583,74.206177 
	C1077.772583,275.726166 1077.772583,477.130249 1077.772583,678.941101 
	C1029.289185,678.941101 980.886414,678.941101 932.271912,678.941101 
	C932.271912,690.109192 932.271912,700.874023 932.751221,712.115479 
	C933.484314,713.042725 933.738159,713.493347 933.992065,713.944031 
	C933.324951,715.195679 932.132080,716.426636 932.081909,717.702515 
	C931.867554,723.153687 931.990662,728.618103 931.990662,734.480835 
	C917.626282,733.521118 903.724243,732.616821 889.825989,731.658997 
	C852.646484,729.096863 815.467957,726.518677 778.289978,723.933960 
	C737.296875,721.083923 696.317932,718.006042 655.305725,715.464905 
	C638.547913,714.426514 621.718994,714.536743 604.421387,713.736267 
	C603.598022,713.037292 603.275696,712.726501 602.953369,712.415710 
	C602.634644,712.920776 602.315918,713.425781 601.997192,713.930786 
	C598.960388,713.990417 595.923584,714.050110 592.467041,713.574341 
	C592.033752,712.739868 592.020203,712.440674 592.204346,712.047852 
	C592.402100,711.954224 592.839294,711.936829 593.137939,711.927979 
	C593.769287,711.503967 594.101990,711.088745 594.434692,710.673584 
	C593.932922,710.834961 593.431213,710.996399 592.490845,711.096802 
	C586.525574,710.668518 580.998962,710.301208 575.404175,709.907043 
	C575.335999,709.880188 575.026978,709.851807 575.026978,709.851807 
M1070.501099,77.876823 
	C1070.335938,77.927071 1070.170654,77.977318 1069.083374,77.841179 
	C1067.917358,77.830200 1066.751343,77.809624 1065.585327,77.809608 
	C790.880432,77.805664 516.175537,77.802452 241.470657,77.810265 
	C238.646240,77.810349 235.821823,77.956184 232.074722,77.858246 
	C220.638809,77.858246 209.202896,77.858246 197.766983,77.858246 
	C197.763565,78.201012 197.760147,78.543777 197.756729,78.886543 
	C209.502762,79.567909 221.248795,80.249275 233.838211,81.205811 
	C270.566406,83.777916 307.292725,86.377518 344.023346,88.914780 
	C384.743530,91.727638 425.469238,94.460106 466.189636,97.270187 
	C517.045959,100.779747 567.898193,104.348419 618.754272,107.861748 
	C654.985779,110.364746 691.221924,112.800804 727.453796,115.298370 
	C784.125793,119.204933 840.796204,123.134117 897.466553,127.063721 
	C908.889893,127.855820 920.310120,128.692459 932.054443,129.531616 
	C932.054443,311.555725 932.054443,493.138763 932.054443,674.964233 
	C978.805908,674.964233 1025.196045,674.964233 1071.994995,674.964233 
	C1071.994995,673.295288 1071.994995,671.833679 1071.994995,670.372070 
	C1071.994995,474.394379 1071.997070,278.416718 1071.953491,82.439026 
	C1071.953125,80.971710 1071.327393,79.504539 1070.501099,77.876823 
M904.811890,722.772522 
	C908.416809,722.772522 912.021729,722.772522 915.757996,722.772522 
	C915.757996,528.096313 915.757996,333.371307 915.757996,138.354675 
	C658.525269,120.593636 401.508881,102.847534 144.286774,85.087227 
	C144.286774,280.297729 144.286774,475.172089 144.286774,670.177673 
	C155.192932,670.903809 165.832458,671.586060 176.468048,672.324951 
	C217.681671,675.188049 258.892822,678.086731 300.107208,680.938782 
	C340.825836,683.756531 381.547974,686.522766 422.267181,689.331970 
	C468.800842,692.542297 515.332153,695.786194 561.865967,698.994751 
	C602.252075,701.779480 642.641235,704.518799 683.026978,707.308411 
	C724.406311,710.166626 765.783508,713.055115 807.160889,715.942261 
	C839.399841,718.191711 871.637573,720.459351 904.811890,722.772522 
M189.955200,78.996407 
	C191.851288,78.830040 193.747360,78.663673 195.643448,78.497307 
	C195.599335,78.051933 195.555222,77.606552 195.511108,77.161171 
	C193.429092,77.161171 191.346497,77.146790 189.268051,77.232910 
	C189.207748,77.235413 189.191498,78.301201 189.955200,78.996407 
z"/>
<path fill="#0D0D0D" opacity="1.000000" stroke="none" 
	d="
M1140.857300,41.297062 
	C1138.528564,41.227562 1136.199829,41.097355 1133.871094,41.097206 
	C952.594543,41.085529 771.317932,41.082584 590.041382,41.082249 
	C435.294464,41.081963 280.547546,41.089729 125.800621,41.041206 
	C123.821671,41.040585 121.842934,40.344166 120.135040,39.483234 
	C122.067322,38.929688 123.728653,38.809162 125.389992,38.809109 
	C463.124054,38.797970 800.858093,38.795322 1138.592163,38.793690 
	C1139.091919,38.793690 1139.591553,38.812950 1140.538696,39.314293 
	C1140.943237,40.302605 1140.900269,40.799835 1140.857300,41.297062 
z"/>
<path fill="#040404" opacity="1.000000" stroke="none" 
	d="
M66.039421,41.102264 
	C65.975838,44.263981 65.856613,47.425701 65.856606,50.587418 
	C65.855804,270.413879 65.864548,490.240326 65.971268,710.525269 
	C65.293892,712.200867 64.517746,713.417908 63.741600,714.635010 
	C63.237499,714.425293 62.733395,714.215637 62.229294,714.005920 
	C62.229294,711.586792 62.229313,709.167725 62.229286,706.748596 
	C62.226627,485.403015 62.225262,264.057404 62.202499,42.711826 
	C62.202278,40.551853 61.519661,38.085941 65.593567,39.291718 
	C66.016136,40.186893 66.027779,40.644581 66.039421,41.102264 
z"/>
<path fill="#010101" opacity="1.000000" stroke="none" 
	d="
M1140.840088,41.746529 
	C1140.900269,40.799835 1140.943237,40.302605 1140.995117,39.431046 
	C1141.449097,38.992413 1141.893799,38.928108 1142.779541,39.159950 
	C1143.424438,39.726173 1143.689209,39.907597 1144.014893,40.000355 
	C1144.071167,42.329235 1144.176514,44.658108 1144.176636,46.986992 
	C1144.187988,267.722626 1144.195801,488.458282 1144.110718,709.193848 
	C1144.110107,710.816956 1145.912354,713.936035 1141.442139,713.505676 
	C1140.948120,712.600830 1140.903931,712.128540 1140.859741,711.656189 
	C1140.847534,488.502777 1140.835205,265.349396 1140.840088,41.746529 
z"/>
<path fill="#0B0B0B" opacity="1.000000" stroke="none" 
	d="
M574.779663,710.487793 
	C575.026978,709.851807 575.335999,709.880188 575.114136,710.382935 
	C575.855652,711.260864 576.809387,711.929688 577.783813,711.961243 
	C582.521729,712.114929 587.265137,712.097961 592.006592,712.141479 
	C592.020203,712.440674 592.033752,712.739868 592.054443,713.488281 
	C586.074707,714.015442 580.087830,714.160950 574.100952,714.161377 
	C408.876801,714.173523 243.652649,714.173645 78.428505,714.138855 
	C76.513451,714.138428 74.598488,713.655090 72.338333,712.967041 
	C71.998856,712.369385 72.004539,712.201904 72.010231,712.034363 
	C74.173599,711.994690 76.336967,711.920410 78.500336,711.920349 
	C241.407898,711.915588 404.315460,711.920044 567.223022,711.884338 
	C569.659546,711.883789 572.095886,711.388367 574.779663,710.487793 
z"/>
<path fill="#0B0B0B" opacity="1.000000" stroke="none" 
	d="
M1140.405029,711.730347 
	C1140.903931,712.128540 1140.948120,712.600830 1141.002319,713.429016 
	C1137.193604,713.913452 1133.374878,714.153320 1129.556152,714.154053 
	C1064.675049,714.166260 999.794006,714.148743 934.452515,714.040894 
	C933.738159,713.493347 933.484314,713.042725 933.120300,712.357300 
	C934.669495,712.053894 936.328857,711.925659 937.988220,711.925415 
	C1003.811035,711.916565 1069.633789,711.920166 1135.456665,711.915833 
	C1136.954590,711.915710 1138.452393,711.843201 1140.405029,711.730347 
z"/>
<path fill="#0D0D0D" opacity="1.000000" stroke="none" 
	d="
M66.505676,41.094933 
	C66.027779,40.644581 66.016136,40.186893 66.001129,39.385841 
	C83.196754,38.968250 100.395729,38.894024 118.094551,38.906746 
	C117.466713,39.654884 116.344681,40.879860 115.210495,40.891220 
	C101.949486,41.024063 88.686638,40.967880 75.424301,40.978230 
	C72.606819,40.980431 69.789383,41.049397 66.505676,41.094933 
z"/>
<path fill="#D9D9D9" opacity="1.000000" stroke="none" 
	d="
M71.796829,711.741089 
	C72.004539,712.201904 71.998856,712.369385 71.944130,712.783447 
	C70.641602,712.607727 69.388123,712.185425 68.063705,711.422180 
	C69.189659,711.203491 70.386536,711.325623 71.796829,711.741089 
z"/>
<path fill="#0B0B0B" opacity="1.000000" stroke="none" 
	d="
M602.325989,714.035339 
	C602.315918,713.425781 602.634644,712.920776 602.953369,712.415710 
	C603.275696,712.726501 603.598022,713.037292 603.961548,713.639893 
	C603.553406,714.001160 603.104065,714.070496 602.325989,714.035339 
z"/>
<path fill="#0D0D0D" opacity="1.000000" stroke="none" 
	d="
M1144.080322,39.673576 
	C1143.689209,39.907597 1143.424438,39.726173 1143.110596,39.237938 
	C1143.382446,39.128792 1143.764038,39.237797 1144.080322,39.673576 
z"/>
<path fill="#D0D0D0" opacity="1.000000" stroke="none" 
	d="
M232.997406,78.033981 
	C235.821823,77.956184 238.646240,77.810349 241.470657,77.810265 
	C516.175537,77.802452 790.880432,77.805664 1065.585327,77.809608 
	C1066.751343,77.809624 1067.917358,77.830200 1069.632812,78.097305 
	C1070.452637,78.248055 1070.723145,78.142677 1070.993652,78.037300 
	C1071.327393,79.504539 1071.953125,80.971710 1071.953491,82.439026 
	C1071.997070,278.416718 1071.994995,474.394379 1071.994995,670.372070 
	C1071.994995,671.833679 1071.994995,673.295288 1071.994995,674.964233 
	C1025.196045,674.964233 978.805908,674.964233 932.054443,674.964233 
	C932.054443,493.138763 932.054443,311.555725 932.054443,129.531616 
	C920.310120,128.692459 908.889893,127.855820 897.466553,127.063721 
	C840.796204,123.134117 784.125793,119.204933 727.453796,115.298370 
	C691.221924,112.800804 654.985779,110.364746 618.754272,107.861748 
	C567.898193,104.348419 517.045959,100.779747 466.189636,97.270187 
	C425.469238,94.460106 384.743530,91.727638 344.023346,88.914780 
	C307.292725,86.377518 270.566406,83.777916 233.415436,80.706146 
	C232.994247,79.482315 232.995834,78.758148 232.997406,78.033981 
z"/>
<path fill="#FAFCFC" opacity="1.000000" stroke="none" 
	d="
M904.343872,722.745728 
	C871.637573,720.459351 839.399841,718.191711 807.160889,715.942261 
	C765.783508,713.055115 724.406311,710.166626 683.026978,707.308411 
	C642.641235,704.518799 602.252075,701.779480 561.865967,698.994751 
	C515.332153,695.786194 468.800842,692.542297 422.267181,689.331970 
	C381.547974,686.522766 340.825836,683.756531 300.107208,680.938782 
	C258.892822,678.086731 217.681671,675.188049 176.468048,672.324951 
	C165.832458,671.586060 155.192932,670.903809 144.286774,670.177673 
	C144.286774,475.172089 144.286774,280.297729 144.286774,85.087227 
	C401.508881,102.847534 658.525269,120.593636 915.757996,138.354675 
	C915.757996,333.371307 915.757996,528.096313 915.757996,722.772522 
	C912.021729,722.772522 908.416809,722.772522 904.343872,722.745728 
M902.953613,210.038925 
	C902.953613,188.727036 902.953613,167.415131 902.953613,145.611984 
	C654.279968,128.443771 405.885681,111.294830 157.012695,94.112846 
	C157.012695,96.485657 157.012695,98.286537 157.012695,100.087410 
	C157.012680,183.400131 157.011749,266.712860 157.019226,350.025574 
	C157.019379,351.688660 157.117630,353.351776 157.035461,355.940002 
	C157.086807,387.969208 157.138153,419.998413 157.046890,452.951599 
	C157.046890,522.855042 157.046890,592.758545 157.046890,662.899048 
	C405.963867,680.085999 654.197510,697.225708 902.979980,714.403320 
	C902.979980,711.739502 902.979919,709.781738 902.979919,707.823914 
	C902.980286,576.365906 902.981384,444.907959 902.974426,313.449982 
	C902.974365,311.620605 902.874512,309.791229 902.958557,307.042877 
	C902.910583,275.015961 902.862671,242.989029 902.953613,210.038925 
z"/>
<path fill="#DBDBDB" opacity="1.000000" stroke="none" 
	d="
M232.536072,77.946114 
	C232.995834,78.758148 232.994247,79.482315 232.993744,80.568565 
	C221.248795,80.249275 209.502762,79.567909 197.756729,78.886543 
	C197.760147,78.543777 197.763565,78.201012 197.766983,77.858246 
	C209.202896,77.858246 220.638809,77.858246 232.536072,77.946114 
z"/>
<path fill="#D9D9D9" opacity="1.000000" stroke="none" 
	d="
M592.204346,712.047852 
	C587.265137,712.097961 582.521729,712.114929 577.783813,711.961243 
	C576.809387,711.929688 575.855652,711.260864 575.182373,710.409790 
	C580.998962,710.301208 586.525574,710.668518 592.458130,711.290405 
	C592.864075,711.544983 592.839294,711.936829 592.839294,711.936829 
	C592.839294,711.936829 592.402100,711.954224 592.204346,712.047852 
z"/>
<path fill="#373737" opacity="1.000000" stroke="none" 
	d="
M189.554962,78.933807 
	C189.191498,78.301201 189.207748,77.235413 189.268051,77.232910 
	C191.346497,77.146790 193.429092,77.161171 195.511108,77.161171 
	C195.555222,77.606552 195.599335,78.051933 195.643448,78.497307 
	C193.747360,78.663673 191.851288,78.830040 189.554962,78.933807 
z"/>
<path fill="#0B0B0B" opacity="1.000000" stroke="none" 
	d="
M593.137939,711.927979 
	C592.839294,711.936829 592.864075,711.544983 592.896790,711.351440 
	C593.431213,710.996399 593.932922,710.834961 594.434692,710.673584 
	C594.101990,711.088745 593.769287,711.503967 593.137939,711.927979 
z"/>
<path fill="#DBDBDB" opacity="1.000000" stroke="none" 
	d="
M1070.747314,77.957062 
	C1070.723145,78.142677 1070.452637,78.248055 1070.093750,78.190506 
	C1070.170654,77.977318 1070.335938,77.927071 1070.747314,77.957062 
z"/>
<path fill="#01BFD5" opacity="1.000000" stroke="none" 
	d="
M902.821228,307.961853 
	C902.874512,309.791229 902.974365,311.620605 902.974426,313.449982 
	C902.981384,444.907959 902.980286,576.365906 902.979919,707.823914 
	C902.979919,709.781738 902.979980,711.739502 902.979980,714.403320 
	C654.197510,697.225708 405.963867,680.085999 157.046890,662.899048 
	C157.046890,592.758545 157.046890,522.855042 157.529663,452.482056 
	C161.298615,451.619568 164.623322,451.425964 167.864227,450.799011 
	C181.187439,448.221588 194.477783,445.474731 207.793869,442.859802 
	C232.001434,438.106110 256.222839,433.423065 280.430634,428.670563 
	C300.076233,424.813721 319.698822,420.838715 339.352356,417.023132 
	C367.776733,411.504822 396.226074,406.115204 424.652130,400.605621 
	C437.314728,398.151337 449.938324,395.496399 462.594299,393.007202 
	C484.197510,388.758270 505.817688,384.595490 527.420532,380.344727 
	C544.642517,376.956024 561.834045,373.410950 579.066833,370.078888 
	C600.182922,365.995911 621.334839,362.098267 642.457031,358.046509 
	C650.587830,356.486847 658.663208,354.638794 666.792297,353.069458 
	C689.705139,348.646118 712.645752,344.366272 735.549683,339.897980 
	C750.009155,337.077087 764.397095,333.887970 778.863708,331.106049 
	C792.836304,328.419159 806.901306,326.210480 820.867249,323.491486 
	C843.132019,319.156860 865.337708,314.519745 887.593079,310.136047 
	C892.617004,309.146515 897.742493,308.672913 902.821228,307.961853 
z"/>
<path fill="#01BFD5" opacity="1.000000" stroke="none" 
	d="
M157.170105,355.014862 
	C157.117630,353.351776 157.019379,351.688660 157.019226,350.025574 
	C157.011749,266.712860 157.012680,183.400131 157.012695,100.087410 
	C157.012695,98.286537 157.012695,96.485657 157.012695,94.112846 
	C405.885681,111.294830 654.279968,128.443771 902.953613,145.611984 
	C902.953613,167.415131 902.953613,188.727036 902.480469,210.514572 
	C900.218140,211.323044 898.426941,211.645477 896.640137,211.990280 
	C870.657471,217.004272 844.675415,222.021469 818.693115,227.037430 
	C790.925476,232.398071 763.159790,237.768616 735.389465,243.115417 
	C710.854492,247.839264 686.302246,252.474167 661.780151,257.263641 
	C639.381653,261.638306 617.019165,266.197327 594.630005,270.620209 
	C573.543457,274.785767 552.457031,278.954712 531.344238,282.984131 
	C509.570404,287.139709 487.732880,290.965851 465.982056,295.236084 
	C443.739441,299.602905 421.607178,304.534424 399.355591,308.852692 
	C373.534973,313.863525 347.613983,318.355835 321.781189,323.306030 
	C306.183533,326.294983 290.701019,329.882294 275.112305,332.921234 
	C253.364700,337.160797 231.556122,341.086487 209.793228,345.248901 
	C196.644730,347.763733 183.544220,350.529022 170.399063,353.061920 
	C166.026337,353.904510 161.581802,354.374512 157.170105,355.014862 
z"/>
<path fill="#00E4FD" opacity="1.000000" stroke="none" 
	d="
M157.102783,355.477417 
	C161.581802,354.374512 166.026337,353.904510 170.399063,353.061920 
	C183.544220,350.529022 196.644730,347.763733 209.793228,345.248901 
	C231.556122,341.086487 253.364700,337.160797 275.112305,332.921234 
	C290.701019,329.882294 306.183533,326.294983 321.781189,323.306030 
	C347.613983,318.355835 373.534973,313.863525 399.355591,308.852692 
	C421.607178,304.534424 443.739441,299.602905 465.982056,295.236084 
	C487.732880,290.965851 509.570404,287.139709 531.344238,282.984131 
	C552.457031,278.954712 573.543457,274.785767 594.630005,270.620209 
	C617.019165,266.197327 639.381653,261.638306 661.780151,257.263641 
	C686.302246,252.474167 710.854492,247.839264 735.389465,243.115417 
	C763.159790,237.768616 790.925476,232.398071 818.693115,227.037430 
	C844.675415,222.021469 870.657471,217.004272 896.640137,211.990280 
	C898.426941,211.645477 900.218140,211.323044 902.411011,210.976166 
	C902.862671,242.989029 902.910583,275.015961 902.889893,307.502350 
	C897.742493,308.672913 892.617004,309.146515 887.593079,310.136047 
	C865.337708,314.519745 843.132019,319.156860 820.867249,323.491486 
	C806.901306,326.210480 792.836304,328.419159 778.863708,331.106049 
	C764.397095,333.887970 750.009155,337.077087 735.549683,339.897980 
	C712.645752,344.366272 689.705139,348.646118 666.792297,353.069458 
	C658.663208,354.638794 650.587830,356.486847 642.457031,358.046509 
	C621.334839,362.098267 600.182922,365.995911 579.066833,370.078888 
	C561.834045,373.410950 544.642517,376.956024 527.420532,380.344727 
	C505.817688,384.595490 484.197510,388.758270 462.594299,393.007202 
	C449.938324,395.496399 437.314728,398.151337 424.652130,400.605621 
	C396.226074,406.115204 367.776733,411.504822 339.352356,417.023132 
	C319.698822,420.838715 300.076233,424.813721 280.430634,428.670563 
	C256.222839,433.423065 232.001434,438.106110 207.793869,442.859802 
	C194.477783,445.474731 181.187439,448.221588 167.864227,450.799011 
	C164.623322,451.425964 161.298615,451.619568 157.600967,452.020050 
	C157.138153,419.998413 157.086807,387.969208 157.102783,355.477417 
z"/>
</svg>