<svg xmlns="http://www.w3.org/2000/svg" width="28" height="28" fill="none" preserveAspectRatio="none"><path fill="#000" d="M20.417 4.083a.875.875 0 0 0-.816.558l-6.125 15.75a.875.875 0 1 0 1.631.634l1.371-3.525h7.877l1.37 3.525a.875.875 0 1 0 1.632-.634l-6.125-15.75a.875.875 0 0 0-.815-.558Zm0 3.29 3.257 8.377h-6.515l3.258-8.378Zm-14.013.21a.875.875 0 0 0-.799.547L.647 20.38a.875.875 0 1 0 1.622.656l.96-2.37h6.375l.96 2.37a.874.874 0 1 0 1.622-.656L7.228 8.13a.875.875 0 0 0-.824-.547Zm.013 3.207 2.479 6.126H3.937l2.48-6.126Z"/></svg>