<svg version="1.1" id="Layer_1" xmlns="http://www.w3.org/2000/svg" xmlns:xlink="http://www.w3.org/1999/xlink" x="0px" y="0px"
	 width="100%" viewBox="0 0 983 786" enable-background="new 0 0 983 786" xml:space="preserve">
<path fill="#040404" opacity="1.000000" stroke="none" 
	d="
M984.000000,749.000000 
	C984.000000,755.021179 984.000000,761.042297 983.571777,767.588257 
	C980.976196,767.905762 979.848145,768.464111 979.950806,771.068237 
	C980.159912,776.371216 980.004944,781.688599 980.000000,787.000000 
	C958.979126,787.000000 937.958191,787.000000 916.413513,786.583435 
	C914.052307,785.853149 912.214966,785.264832 910.377502,785.264587 
	C629.821045,785.223083 349.264587,785.224060 68.708115,785.224792 
	C67.209152,785.224792 65.688057,785.106873 64.223785,785.338318 
	C63.740383,785.414612 63.403736,786.419617 63.000000,787.000000 
	C42.343273,787.000000 21.686543,787.000000 1.045982,787.000000 
	C1.045982,525.000000 1.045982,263.000000 1.045982,1.000000 
	C21.415537,1.000000 41.739109,1.000000 62.546791,1.419248 
	C65.227310,2.157215 67.423676,2.754796 69.620140,2.755130 
	C348.466553,2.797572 627.312927,2.796171 906.159363,2.795657 
	C908.657898,2.795652 911.170105,2.922255 913.647400,2.687935 
	C914.477417,2.609417 915.218323,1.589565 916.000000,0.999994 
	C937.020874,1.000000 958.041809,1.000000 979.529175,1.468354 
	C979.995728,7.847246 979.995728,13.757784 979.995728,19.600916 
	C981.702454,19.771015 982.851257,19.885508 984.000000,20.000000 
	C984.000000,26.021152 984.000000,32.042305 983.574951,38.492035 
	C979.241943,38.781052 979.186157,40.846687 980.296082,43.743252 
	C981.664734,47.314857 984.180786,50.767330 980.340088,54.627201 
	C979.451233,55.520554 979.531006,58.722290 980.432922,59.821777 
	C984.484131,64.760696 980.896790,66.266045 977.194580,67.714706 
	C977.194580,71.951126 977.157227,75.947952 977.204590,79.943771 
	C977.255493,84.233711 976.585815,88.737350 981.330505,91.490540 
	C981.963562,91.857895 981.904724,93.912689 981.708496,95.111084 
	C981.299011,97.612457 980.075073,100.062523 980.069214,102.535767 
	C979.964966,146.355591 979.952271,190.175827 980.077271,233.995529 
	C980.086609,237.282974 981.449341,240.547211 981.847778,243.862488 
	C982.004883,245.169739 981.664551,246.972290 980.827454,247.888031 
	C977.222168,251.831909 977.247742,253.959427 980.799927,257.904816 
	C981.663025,258.863464 981.741638,260.873901 981.577637,262.332886 
	C981.312927,264.687836 980.065552,266.986145 980.063477,269.309082 
	C979.990967,350.617554 980.001831,431.926117 980.096558,513.234558 
	C980.099243,515.539246 981.422729,517.821472 981.598816,520.154297 
	C981.717285,521.724121 981.406921,523.869751 980.404114,524.879883 
	C977.278381,528.028320 977.318359,531.126648 980.599548,534.179932 
	C981.512878,535.029846 981.789062,537.044067 981.643188,538.450012 
	C981.364441,541.136414 980.073975,543.768372 980.067932,546.424988 
	C979.964600,591.910950 979.952332,637.397400 980.075928,682.883240 
	C980.085388,686.359009 981.379761,689.816406 981.830078,693.314148 
	C981.979187,694.472412 981.705750,696.502930 981.022156,696.815735 
	C977.054443,698.631104 977.476257,702.290955 977.273743,705.445984 
	C976.954712,710.417603 977.188904,715.424622 977.188904,720.452393 
	C981.482300,721.710876 984.143433,723.370178 980.457458,728.077026 
	C979.560120,729.222778 979.435303,732.363831 980.313721,733.268433 
	C984.040894,737.106812 981.828064,740.563354 980.336182,744.156616 
	C978.776794,747.912659 980.049438,749.450134 984.000000,749.000000 
M878.314575,747.153137 
	C879.210327,746.394775 880.774109,745.716492 880.876404,744.863037 
	C881.182190,742.310913 880.915771,739.690186 880.972107,736.287659 
	C881.087036,735.644653 881.021362,734.556458 881.344055,734.425659 
	C885.915955,732.571106 885.070007,728.702454 885.069641,725.041321 
	C885.050110,504.080383 885.052063,283.119476 885.051941,62.158543 
	C885.051941,60.825447 885.097107,59.490181 885.034058,58.160065 
	C884.995789,57.353191 884.988464,55.963036 884.628662,55.842094 
	C880.460144,54.440704 882.319885,51.000141 882.033203,48.362614 
	C881.823303,46.431515 881.992065,44.459270 881.992065,42.265572 
	C608.478088,42.265572 335.454254,42.265572 62.833183,42.265572 
	C62.833183,48.274094 62.834343,54.017448 62.833019,59.760807 
	C62.793697,229.897156 62.717865,400.033508 62.735279,570.169861 
	C62.740974,625.811646 62.989120,681.453430 63.006271,737.985535 
	C63.056438,741.268188 63.106606,744.550842 62.952244,748.553589 
	C62.986919,749.043152 63.021595,749.532776 62.996040,750.955139 
	C62.996040,759.873474 62.996040,768.791748 62.996040,777.577393 
	C347.789337,777.577393 631.763489,777.577393 915.697388,777.577393 
	C915.697388,767.913940 915.697388,758.655029 915.697388,748.913513 
	C902.948730,748.913513 890.488892,748.913513 878.023743,748.350769 
	C877.959290,748.174561 877.894897,747.998291 878.314575,747.153137 
M919.140381,55.114136 
	C913.866760,55.114136 908.593079,55.114136 903.200439,55.114136 
	C903.200439,281.294006 903.200439,506.848053 903.200439,733.601807 
	C910.581360,733.601807 917.700134,733.601807 925.194092,733.601807 
	C925.194092,738.731995 925.194092,742.665894 925.194092,746.648743 
	C940.662903,746.648743 955.722473,746.648743 971.056580,746.648743 
	C971.056580,740.997986 971.093567,735.684204 971.021423,730.371948 
	C971.008911,729.446533 970.732483,727.853333 970.244934,727.711304 
	C966.079407,726.497375 967.065796,723.157104 967.022095,720.306641 
	C966.942932,715.141602 966.870483,709.970459 967.040955,704.809998 
	C967.142212,701.744263 965.626953,697.843994 970.517334,696.594238 
	C970.946411,696.484558 971.039856,694.481506 971.040344,693.357849 
	C971.066650,635.363647 971.069092,577.369385 971.044678,519.375183 
	C971.044250,518.275146 970.971008,516.378479 970.460083,516.199402 
	C965.716003,514.537048 967.101562,510.608490 967.027344,507.325836 
	C966.899292,501.662598 966.931152,495.993317 967.032288,490.329010 
	C967.057800,488.900848 967.238586,486.485657 967.963745,486.222839 
	C972.182617,484.693848 971.015442,481.338226 971.045654,478.406342 
	C971.105774,472.574188 971.063232,466.740997 971.063232,460.908234 
	C971.063232,409.913177 971.069763,358.918152 971.032593,307.923126 
	C971.031433,306.350647 970.924194,303.587463 970.277527,303.398895 
	C965.989258,302.148529 967.080994,298.812592 967.027588,296.004089 
	C966.919861,290.340057 966.923340,284.670776 967.052185,279.007599 
	C967.083923,277.614624 967.455505,275.266815 968.216003,275.016876 
	C971.837341,273.826752 971.026672,271.068390 971.055786,268.552460 
	C971.088562,265.719757 971.064331,262.886444 971.064636,260.053375 
	C971.070068,205.392075 971.085022,150.730774 971.035156,96.069527 
	C971.033630,94.410866 970.792175,91.637703 969.914368,91.293884 
	C966.676331,90.025459 967.013306,87.599556 967.000366,85.125809 
	C966.982056,81.626236 966.602478,78.071983 967.082397,74.639679 
	C967.796021,69.535606 964.079224,63.207977 970.876709,59.615536 
	C971.052612,59.522579 971.040283,58.989475 971.040771,58.661514 
	C971.049927,52.897102 971.047424,47.132671 971.047424,41.369400 
	C954.666992,41.369400 938.939270,41.369400 922.935181,41.369400 
	C922.935181,44.710064 923.253479,47.742348 922.807617,50.657749 
	C922.566284,52.236000 921.021301,53.614872 919.140381,55.114136 
M7.941356,409.500000 
	C7.941356,521.901550 7.941356,634.303040 7.941356,746.591309 
	C24.411484,746.591309 40.138275,746.591309 55.785774,746.591309 
	C55.785774,511.284088 55.785774,276.377777 55.785774,41.325317 
	C39.777237,41.325317 24.052294,41.325317 7.941315,41.325317 
	C7.941315,163.927170 7.941315,286.213593 7.941356,409.500000 
M563.500000,10.037075 
	C396.778564,10.037075 230.057114,10.037075 63.417084,10.037075 
	C63.417084,17.741005 63.417084,24.788967 63.417084,31.743694 
	C347.720428,31.743694 631.600708,31.743694 915.673096,31.743694 
	C915.673096,24.452690 915.673096,17.411770 915.673096,10.037097 
	C798.389526,10.037097 681.444763,10.037097 563.500000,10.037075 
M891.936768,152.500000 
	C891.936768,345.880707 891.936768,539.261414 891.936768,732.466492 
	C898.263916,734.038330 896.964905,729.856628 896.965210,726.972107 
	C896.991760,505.042938 896.989502,283.113770 896.989502,61.184624 
	C896.989502,60.518169 896.928162,59.845116 896.999329,59.186356 
	C897.403931,55.439137 895.738037,54.440815 891.936707,55.642319 
	C891.936707,87.598221 891.936707,119.549110 891.936768,152.500000 
M944.500122,7.661603 
	C937.894775,7.661603 931.289429,7.661603 924.497314,7.661603 
	C924.497314,16.835043 924.497314,25.380709 924.497314,33.927399 
	C940.721924,33.927399 956.586304,33.927399 972.575012,33.927399 
	C972.575012,25.100647 972.575012,16.690485 972.575012,7.661151 
	C963.368835,7.661151 954.434448,7.661151 944.500122,7.661603 
M969.319580,780.338623 
	C970.491943,779.561523 972.656555,778.816406 972.682800,778.002441 
	C972.938477,770.070129 972.836670,762.126221 972.836670,754.023376 
	C956.365784,754.023376 940.502808,754.023376 924.553894,754.023376 
	C924.553894,762.920532 924.553894,771.448486 924.553894,780.339905 
	C939.430054,780.339905 953.892944,780.339905 969.319580,780.338623 
M42.490685,7.663076 
	C31.109772,7.663076 19.728859,7.663076 8.418130,7.663076 
	C8.418130,17.003216 8.418130,25.535164 8.418130,34.036823 
	C24.047405,34.036823 39.269363,34.036823 54.674026,34.036823 
	C54.674026,25.187721 54.674026,16.640823 54.674026,7.662632 
	C50.738392,7.662632 47.111835,7.662632 42.490685,7.663076 
M20.509312,780.336914 
	C31.890364,780.336914 43.271416,780.336914 54.580971,780.336914 
	C54.580971,770.998108 54.580971,762.467041 54.580971,753.965210 
	C38.949692,753.965210 23.728127,753.965210 8.325184,753.965210 
	C8.325184,762.815857 8.325184,771.362244 8.325184,780.337402 
	C12.258751,780.337402 15.886730,780.337402 20.509312,780.336914 
z"/>
<path fill="#F9F9F9" opacity="1.000000" stroke="none" 
	d="
M984.000000,748.531372 
	C980.049438,749.450134 978.776794,747.912659 980.336182,744.156616 
	C981.828064,740.563354 984.040894,737.106812 980.313721,733.268433 
	C979.435303,732.363831 979.560120,729.222778 980.457458,728.077026 
	C984.143433,723.370178 981.482300,721.710876 977.188904,720.452393 
	C977.188904,715.424622 976.954712,710.417603 977.273743,705.445984 
	C977.476257,702.290955 977.054443,698.631104 981.022156,696.815735 
	C981.705750,696.502930 981.979187,694.472412 981.830078,693.314148 
	C981.379761,689.816406 980.085388,686.359009 980.075928,682.883240 
	C979.952332,637.397400 979.964600,591.910950 980.067932,546.424988 
	C980.073975,543.768372 981.364441,541.136414 981.643188,538.450012 
	C981.789062,537.044067 981.512878,535.029846 980.599548,534.179932 
	C977.318359,531.126648 977.278381,528.028320 980.404114,524.879883 
	C981.406921,523.869751 981.717285,521.724121 981.598816,520.154297 
	C981.422729,517.821472 980.099243,515.539246 980.096558,513.234558 
	C980.001831,431.926117 979.990967,350.617554 980.063477,269.309082 
	C980.065552,266.986145 981.312927,264.687836 981.577637,262.332886 
	C981.741638,260.873901 981.663025,258.863464 980.799927,257.904816 
	C977.247742,253.959427 977.222168,251.831909 980.827454,247.888031 
	C981.664551,246.972290 982.004883,245.169739 981.847778,243.862488 
	C981.449341,240.547211 980.086609,237.282974 980.077271,233.995529 
	C979.952271,190.175827 979.964966,146.355591 980.069214,102.535767 
	C980.075073,100.062523 981.299011,97.612457 981.708496,95.111084 
	C981.904724,93.912689 981.963562,91.857895 981.330505,91.490540 
	C976.585815,88.737350 977.255493,84.233711 977.204590,79.943771 
	C977.157227,75.947952 977.194580,71.951126 977.194580,67.714706 
	C980.896790,66.266045 984.484131,64.760696 980.432922,59.821777 
	C979.531006,58.722290 979.451233,55.520554 980.340088,54.627201 
	C984.180786,50.767330 981.664734,47.314857 980.296082,43.743252 
	C979.186157,40.846687 979.241943,38.781052 983.574951,38.960308 
	C984.000000,275.354218 984.000000,511.708466 984.000000,748.531372 
z"/>
<path fill="#C4C4C4" opacity="1.000000" stroke="none" 
	d="
M63.468658,787.000000 
	C63.403736,786.419617 63.740383,785.414612 64.223785,785.338318 
	C65.688057,785.106873 67.209152,785.224792 68.708115,785.224792 
	C349.264587,785.224060 629.821045,785.223083 910.377502,785.264587 
	C912.214966,785.264832 914.052307,785.853149 915.944824,786.583435 
	C631.979126,787.000000 347.958221,787.000000 63.468658,787.000000 
z"/>
<path fill="#BFBFBF" opacity="1.000000" stroke="none" 
	d="
M915.531372,0.999994 
	C915.218323,1.589565 914.477417,2.609417 913.647400,2.687935 
	C911.170105,2.922255 908.657898,2.795652 906.159363,2.795657 
	C627.312927,2.796171 348.466553,2.797572 69.620140,2.755130 
	C67.423676,2.754796 65.227310,2.157215 63.015450,1.419248 
	C347.020905,1.000000 631.041809,1.000000 915.531372,0.999994 
z"/>
<path fill="#F9F9F9" opacity="1.000000" stroke="none" 
	d="
M984.000000,19.530624 
	C982.851257,19.885508 981.702454,19.771015 979.995728,19.600916 
	C979.995728,13.757784 979.995728,7.847246 979.997864,1.468354 
	C981.307312,1.000000 982.614685,1.000000 984.000000,1.000000 
	C984.000000,7.020264 984.000000,13.040756 984.000000,19.530624 
z"/>
<path fill="#F9F9F9" opacity="1.000000" stroke="none" 
	d="
M980.500000,787.000000 
	C980.004944,781.688599 980.159912,776.371216 979.950806,771.068237 
	C979.848145,768.464111 980.976196,767.905762 983.571777,768.056519 
	C984.000000,773.500000 983.690796,779.024170 984.118591,784.490723 
	C984.366272,787.655518 982.654358,786.951904 980.500000,787.000000 
z"/>
<path fill="#868686" opacity="1.000000" stroke="none" 
	d="
M63.126389,737.095215 
	C62.989120,681.453430 62.740974,625.811646 62.735279,570.169861 
	C62.717865,400.033508 62.793697,229.897156 62.833019,59.760807 
	C62.834343,54.017448 62.833183,48.274094 62.833183,42.265572 
	C335.454254,42.265572 608.478088,42.265572 881.992065,42.265572 
	C881.992065,44.459270 881.823303,46.431515 882.033203,48.362614 
	C882.319885,51.000141 880.460144,54.440704 884.628662,55.842094 
	C884.988464,55.963036 884.995789,57.353191 885.034058,58.160065 
	C885.097107,59.490181 885.051941,60.825447 885.051941,62.158543 
	C885.052063,283.119476 885.050110,504.080383 885.069641,725.041321 
	C885.070007,728.702454 885.915955,732.571106 881.344055,734.425659 
	C881.021362,734.556458 881.087036,735.644653 880.469666,736.648682 
	C874.360718,737.334473 868.754272,737.942444 863.147705,737.943481 
	C606.658508,737.990051 350.169373,737.993713 93.680199,737.924927 
	C87.273476,737.923218 80.866982,737.052979 75.886070,736.691345 
	C73.795616,734.938232 72.443520,733.025146 71.526039,733.214783 
	C70.095886,733.510315 68.960686,735.232971 67.057716,736.921021 
	C66.450310,736.947937 64.788345,737.021606 63.126389,737.095215 
z"/>
<path fill="#838383" opacity="1.000000" stroke="none" 
	d="
M919.602417,55.098907 
	C921.021301,53.614872 922.566284,52.236000 922.807617,50.657749 
	C923.253479,47.742348 922.935181,44.710064 922.935181,41.369400 
	C938.939270,41.369400 954.666992,41.369400 971.047424,41.369400 
	C971.047424,47.132671 971.049927,52.897102 971.040771,58.661514 
	C971.040283,58.989475 971.052612,59.522579 970.876709,59.615536 
	C964.079224,63.207977 967.796021,69.535606 967.082397,74.639679 
	C966.602478,78.071983 966.982056,81.626236 967.000366,85.125809 
	C967.013306,87.599556 966.676331,90.025459 969.914368,91.293884 
	C970.792175,91.637703 971.033630,94.410866 971.035156,96.069527 
	C971.085022,150.730774 971.070068,205.392075 971.064636,260.053375 
	C971.064331,262.886444 971.088562,265.719757 971.055786,268.552460 
	C971.026672,271.068390 971.837341,273.826752 968.216003,275.016876 
	C967.455505,275.266815 967.083923,277.614624 967.052185,279.007599 
	C966.923340,284.670776 966.919861,290.340057 967.027588,296.004089 
	C967.080994,298.812592 965.989258,302.148529 970.277527,303.398895 
	C970.924194,303.587463 971.031433,306.350647 971.032593,307.923126 
	C971.069763,358.918152 971.063232,409.913177 971.063232,460.908234 
	C971.063232,466.740997 971.105774,472.574188 971.045654,478.406342 
	C971.015442,481.338226 972.182617,484.693848 967.963745,486.222839 
	C967.238586,486.485657 967.057800,488.900848 967.032288,490.329010 
	C966.931152,495.993317 966.899292,501.662598 967.027344,507.325836 
	C967.101562,510.608490 965.716003,514.537048 970.460083,516.199402 
	C970.971008,516.378479 971.044250,518.275146 971.044678,519.375183 
	C971.069092,577.369385 971.066650,635.363647 971.040344,693.357849 
	C971.039856,694.481506 970.946411,696.484558 970.517334,696.594238 
	C965.626953,697.843994 967.142212,701.744263 967.040955,704.809998 
	C966.870483,709.970459 966.942932,715.141602 967.022095,720.306641 
	C967.065796,723.157104 966.079407,726.497375 970.244934,727.711304 
	C970.732483,727.853333 971.008911,729.446533 971.021423,730.371948 
	C971.093567,735.684204 971.056580,740.997986 971.056580,746.648743 
	C955.722473,746.648743 940.662903,746.648743 925.194092,746.648743 
	C925.194092,742.665894 925.194092,738.731995 925.194092,733.601807 
	C917.700134,733.601807 910.581360,733.601807 903.200439,733.601807 
	C903.200439,506.848053 903.200439,281.294006 903.200439,55.114136 
	C908.593079,55.114136 913.866760,55.114136 919.602417,55.098907 
z"/>
<path fill="#838383" opacity="1.000000" stroke="none" 
	d="
M7.941336,409.000000 
	C7.941315,286.213593 7.941315,163.927170 7.941315,41.325317 
	C24.052294,41.325317 39.777237,41.325317 55.785774,41.325317 
	C55.785774,276.377777 55.785774,511.284088 55.785774,746.591309 
	C40.138275,746.591309 24.411484,746.591309 7.941356,746.591309 
	C7.941356,634.303040 7.941356,521.901550 7.941336,409.000000 
z"/>
<path fill="#838383" opacity="1.000000" stroke="none" 
	d="
M878.029053,748.913513 
	C890.488892,748.913513 902.948730,748.913513 915.697388,748.913513 
	C915.697388,758.655029 915.697388,767.913940 915.697388,777.577393 
	C631.763489,777.577393 347.789337,777.577393 62.996040,777.577393 
	C62.996040,768.791748 62.996040,759.873474 63.489769,750.505249 
	C67.316628,750.047974 70.649765,750.034180 73.982895,750.034180 
	C339.795715,750.032349 605.608582,750.034424 871.421387,749.984680 
	C873.624023,749.984253 875.826477,749.285950 878.029053,748.913513 
z"/>
<path fill="#838383" opacity="1.000000" stroke="none" 
	d="
M564.000000,10.037086 
	C681.444763,10.037097 798.389526,10.037097 915.673096,10.037097 
	C915.673096,17.411770 915.673096,24.452690 915.673096,31.743694 
	C631.600708,31.743694 347.720428,31.743694 63.417084,31.743694 
	C63.417084,24.788967 63.417084,17.741005 63.417084,10.037075 
	C230.057114,10.037075 396.778564,10.037075 564.000000,10.037086 
z"/>
<path fill="#FBFBFB" opacity="1.000000" stroke="none" 
	d="
M63.066330,737.540405 
	C64.788345,737.021606 66.450310,736.947937 67.057716,736.921021 
	C68.960686,735.232971 70.095886,733.510315 71.526039,733.214783 
	C72.443520,733.025146 73.795616,734.938232 75.886070,736.691345 
	C80.866982,737.052979 87.273476,737.923218 93.680199,737.924927 
	C350.169373,737.993713 606.658508,737.990051 863.147705,737.943481 
	C868.754272,737.942444 874.360718,737.334473 880.420044,737.052979 
	C880.915771,739.690186 881.182190,742.310913 880.876404,744.863037 
	C880.774109,745.716492 879.210327,746.394775 877.614990,747.498047 
	C853.584167,747.545898 830.252319,746.964294 806.921570,747.004700 
	C733.609192,747.131775 660.297485,747.573120 586.985107,747.738892 
	C521.672913,747.886597 456.360229,747.848572 391.047760,747.858093 
	C310.067261,747.869873 229.086731,747.846008 148.106216,747.838318 
	C119.789734,747.835571 91.473251,747.835022 63.156773,747.833496 
	C63.106606,744.550842 63.056438,741.268188 63.066330,737.540405 
z"/>
<path fill="#838383" opacity="1.000000" stroke="none" 
	d="
M891.936768,152.000000 
	C891.936707,119.549110 891.936707,87.598221 891.936707,55.642319 
	C895.738037,54.440815 897.403931,55.439137 896.999329,59.186356 
	C896.928162,59.845116 896.989502,60.518169 896.989502,61.184624 
	C896.989502,283.113770 896.991760,505.042938 896.965210,726.972107 
	C896.964905,729.856628 898.263916,734.038330 891.936768,732.466492 
	C891.936768,539.261414 891.936768,345.880707 891.936768,152.000000 
z"/>
<path fill="#636362" opacity="1.000000" stroke="none" 
	d="
M63.054508,748.193542 
	C91.473251,747.835022 119.789734,747.835571 148.106216,747.838318 
	C229.086731,747.846008 310.067261,747.869873 391.047760,747.858093 
	C456.360229,747.848572 521.672913,747.886597 586.985107,747.738892 
	C660.297485,747.573120 733.609192,747.131775 806.921570,747.004700 
	C830.252319,746.964294 853.584167,747.545898 877.373047,747.832520 
	C877.894897,747.998291 877.959290,748.174561 878.026367,748.632141 
	C875.826477,749.285950 873.624023,749.984253 871.421387,749.984680 
	C605.608582,750.034424 339.795715,750.032349 73.982895,750.034180 
	C70.649765,750.034180 67.316628,750.047974 63.519882,750.038818 
	C63.021595,749.532776 62.986919,749.043152 63.054508,748.193542 
z"/>
<path fill="#838383" opacity="1.000000" stroke="none" 
	d="
M945.000122,7.661377 
	C954.434448,7.661151 963.368835,7.661151 972.575012,7.661151 
	C972.575012,16.690485 972.575012,25.100647 972.575012,33.927399 
	C956.586304,33.927399 940.721924,33.927399 924.497314,33.927399 
	C924.497314,25.380709 924.497314,16.835043 924.497314,7.661603 
	C931.289429,7.661603 937.894775,7.661603 945.000122,7.661377 
z"/>
<path fill="#838383" opacity="1.000000" stroke="none" 
	d="
M968.837708,780.339233 
	C953.892944,780.339905 939.430054,780.339905 924.553894,780.339905 
	C924.553894,771.448486 924.553894,762.920532 924.553894,754.023376 
	C940.502808,754.023376 956.365784,754.023376 972.836670,754.023376 
	C972.836670,762.126221 972.938477,770.070129 972.682800,778.002441 
	C972.656555,778.816406 970.491943,779.561523 968.837708,780.339233 
z"/>
<path fill="#838383" opacity="1.000000" stroke="none" 
	d="
M42.987984,7.662854 
	C47.111835,7.662632 50.738392,7.662632 54.674026,7.662632 
	C54.674026,16.640823 54.674026,25.187721 54.674026,34.036823 
	C39.269363,34.036823 24.047405,34.036823 8.418130,34.036823 
	C8.418130,25.535164 8.418130,17.003216 8.418130,7.663076 
	C19.728859,7.663076 31.109772,7.663076 42.987984,7.662854 
z"/>
<path fill="#838383" opacity="1.000000" stroke="none" 
	d="
M20.012011,780.337158 
	C15.886730,780.337402 12.258751,780.337402 8.325184,780.337402 
	C8.325184,771.362244 8.325184,762.815857 8.325184,753.965210 
	C23.728127,753.965210 38.949692,753.965210 54.580971,753.965210 
	C54.580971,762.467041 54.580971,770.998108 54.580971,780.336914 
	C43.271416,780.336914 31.890364,780.336914 20.012011,780.337158 
z"/>
</svg>