<svg version="1.1" id="Layer_1" xmlns="http://www.w3.org/2000/svg" xmlns:xlink="http://www.w3.org/1999/xlink" x="0px" y="0px"
	 width="100%" viewBox="0 0 983 786" enable-background="new 0 0 983 786" xml:space="preserve">
<path fill="#020202" opacity="1.000000" stroke="none" 
	d="
M983.673157,748.674438 
	C984.000000,755.021179 984.000000,761.042297 984.000000,767.531738 
	C981.505188,769.812622 981.731934,772.535400 981.545898,775.156006 
	C981.281128,778.888245 982.331604,782.746094 980.256775,786.667053 
	C958.979126,787.000000 937.958191,787.000000 916.468628,787.000000 
	C913.412292,785.252014 910.487305,786.035278 907.723450,786.034851 
	C673.070312,785.995239 438.417236,785.998352 203.764114,785.998291 
	C159.266678,785.998291 114.769249,785.993164 70.271828,786.013306 
	C68.120804,786.014282 65.933121,785.701538 63.412880,786.723022 
	C43.509377,787.000000 24.018183,786.926819 4.528754,787.079468 
	C1.627784,787.102173 0.896590,786.597900 0.908916,783.531128 
	C1.051528,748.048767 1.000000,712.565613 1.000000,677.082703 
	C1.000000,453.190430 1.013201,229.298141 0.893052,5.405929 
	C0.890929,1.450903 2.008280,0.873653 5.590716,0.910185 
	C24.413054,1.102123 43.238388,1.000000 62.531342,1.000000 
	C65.587738,2.747906 68.512703,1.964736 71.276581,1.965200 
	C306.763214,2.004735 542.249878,2.001649 777.736511,2.001647 
	C821.400696,2.001646 865.064941,2.006852 908.729126,1.986662 
	C910.879883,1.985667 913.067322,2.298551 915.587158,1.276968 
	C937.020874,1.000000 958.041809,1.000000 979.531372,1.000000 
	C982.417603,4.043990 981.260132,7.643427 981.548767,11.016247 
	C981.795715,13.901577 980.968323,17.016911 983.696777,19.711235 
	C984.000000,26.021152 984.000000,32.042305 984.000000,38.531731 
	C983.048706,39.933784 981.646423,40.960022 982.120911,42.309441 
	C984.357666,48.670883 980.841125,55.161919 982.737366,61.512142 
	C983.286194,63.349964 982.684937,65.072395 981.549194,66.675255 
	C976.560791,73.715744 977.829285,81.270981 980.717529,88.430061 
	C982.027710,91.677673 983.129517,94.377075 982.076660,97.850754 
	C981.408325,100.055504 981.648132,102.476105 981.648254,104.810318 
	C981.650085,147.782104 981.646423,190.753876 981.658630,233.725662 
	C981.659485,236.716309 981.591248,239.710663 982.565186,242.624817 
	C983.294128,244.805801 982.966064,246.931076 981.546326,248.778824 
	C979.568481,251.352890 979.477173,253.956131 981.306030,256.608551 
	C982.836487,258.828308 983.068909,261.117432 982.290955,263.720886 
	C981.476135,266.447540 981.652710,269.329071 981.652588,272.159576 
	C981.649170,351.440857 981.647644,430.722107 981.657288,510.003387 
	C981.657654,513.163940 981.618713,516.329956 982.569153,519.410828 
	C983.245544,521.603333 983.016235,523.709595 981.554260,525.559082 
	C979.523071,528.128845 979.406616,530.686279 981.487732,533.280579 
	C982.830505,534.954529 983.335449,536.910095 982.718994,538.918213 
	C981.417908,543.156189 981.660950,547.488770 981.659424,551.807007 
	C981.644226,594.945312 981.646545,638.083679 981.656555,681.221985 
	C981.657410,685.045349 981.468689,688.887390 982.596558,692.626831 
	C983.168152,694.521973 982.428345,696.140198 981.592651,697.846252 
	C977.680054,705.833069 976.470520,713.852905 981.804199,721.784180 
	C982.370178,722.625916 983.075012,723.639648 982.746277,724.546387 
	C980.438538,730.911804 984.462952,737.408752 982.246155,743.772461 
	C981.678711,745.401611 981.906555,747.081848 983.673157,748.674438 
z"/>
<path fill="#F9F9F9" opacity="1.000000" stroke="none" 
	d="
M984.000000,748.531372 
	C980.041870,749.464355 978.778503,747.920532 980.329163,744.164856 
	C981.812561,740.571960 983.936523,737.202637 980.348816,733.251160 
	C979.222290,732.010498 979.382812,728.920166 981.260071,726.809937 
	C983.064087,724.781921 982.405334,722.216003 980.009827,721.565369 
	C977.110657,720.778259 977.036865,719.207764 977.188660,716.939514 
	C977.562622,711.347778 976.301270,705.658569 978.197388,700.154785 
	C978.248962,700.005188 978.143250,699.719666 978.219727,699.672119 
	C983.672607,696.271362 980.083130,691.652100 980.071899,687.383972 
	C979.946228,639.730103 979.991943,592.075867 980.007019,544.421692 
	C980.007629,542.467651 979.824463,540.570557 981.395203,538.819763 
	C982.741882,537.318665 982.514465,535.494019 980.685669,534.074463 
	C977.155945,531.334595 977.085876,527.810974 980.507446,524.989563 
	C982.172363,523.616760 982.961548,521.709229 981.599060,520.233521 
	C979.573425,518.039551 980.035706,515.656250 980.035034,513.235229 
	C980.012695,431.923431 979.998657,350.611603 980.010925,269.299805 
	C980.011292,266.882782 979.488770,264.416382 981.582031,262.261749 
	C982.853516,260.953094 982.240662,259.151611 980.883362,257.813568 
	C977.107300,254.091019 977.116882,251.736649 980.901733,247.952011 
	C982.071228,246.782608 982.871826,245.020630 981.841797,243.926331 
	C978.987976,240.894775 980.043213,237.331604 980.037903,233.989243 
	C979.967651,189.834259 979.986694,145.679138 980.004517,101.524063 
	C980.005371,99.423424 979.538757,97.260574 981.424255,95.460060 
	C982.625000,94.313446 982.685791,92.222404 981.338318,91.451103 
	C976.543518,88.706566 977.272095,84.216957 977.200439,79.932610 
	C977.153076,77.100891 977.238892,74.266891 977.188721,71.435272 
	C977.148071,69.139595 976.864929,67.194023 980.119446,66.356750 
	C982.476135,65.750443 982.856995,63.261848 981.289124,61.030697 
	C979.377441,58.310364 979.202515,55.668243 981.448364,52.982983 
	C984.133850,49.772240 981.370483,47.022354 980.442993,44.207386 
	C979.494629,41.328838 978.664673,38.863209 983.574524,38.958427 
	C984.000000,275.354218 984.000000,511.708466 984.000000,748.531372 
z"/>
<path fill="#C4C4C4" opacity="1.000000" stroke="none" 
	d="
M63.468658,787.000000 
	C62.962360,786.114868 63.090912,785.304321 64.205460,785.264954 
	C65.702972,785.211975 67.203018,785.219788 68.701973,785.219788 
	C349.262268,785.218994 629.822571,785.217529 910.382874,785.273315 
	C912.200989,785.273621 914.327820,784.268677 915.946716,786.582764 
	C631.979126,787.000000 347.958221,787.000000 63.468658,787.000000 
z"/>
<path fill="#BFBFBF" opacity="1.000000" stroke="none" 
	d="
M915.531372,1.000000 
	C916.012085,2.632684 914.945557,2.798496 913.663330,2.785347 
	C911.165100,2.759727 908.666199,2.799341 906.167603,2.799349 
	C627.316284,2.800215 348.464996,2.802936 69.613686,2.744915 
	C67.435699,2.744462 64.990730,3.749175 63.013405,1.419779 
	C347.020905,1.000000 631.041809,1.000000 915.531372,1.000000 
z"/>
<path fill="#F9F9F9" opacity="1.000000" stroke="none" 
	d="
M980.500000,787.000000 
	C980.004028,781.686035 980.158325,776.366150 979.947815,771.060730 
	C979.844299,768.452271 980.975647,767.900696 983.571106,768.055908 
	C984.000000,773.500000 983.690796,779.024170 984.118591,784.490723 
	C984.366272,787.655518 982.654358,786.951904 980.500000,787.000000 
z"/>
<path fill="#F9F9F9" opacity="1.000000" stroke="none" 
	d="
M984.000000,19.530624 
	C980.892822,20.300739 979.729919,19.066881 979.935791,15.812225 
	C980.227234,11.204263 979.999512,6.563463 979.996826,1.468350 
	C983.188171,0.351220 984.408203,1.293316 984.100220,4.852674 
	C983.693176,9.556528 984.000000,14.322165 984.000000,19.530624 
z"/>
<path fill="#838383" opacity="1.000000" stroke="none" 
	d="
M902.935547,402.000000 
	C902.935547,288.000519 902.968201,174.501022 902.821960,61.001747 
	C902.815857,56.219975 903.871704,54.381340 908.785889,55.032681 
	C911.898132,55.445179 915.116699,54.976707 918.273621,55.152454 
	C921.742493,55.345573 922.928955,53.879028 922.992920,50.459129 
	C923.169678,41.003464 923.287476,41.005474 932.699036,41.005466 
	C944.198975,41.005459 955.700439,41.108948 967.197815,40.937263 
	C970.271729,40.891369 971.326111,41.764980 971.141357,44.864841 
	C970.893921,49.016941 971.092285,53.194595 971.057068,57.360924 
	C971.045044,58.784885 971.518311,60.463825 969.326538,60.903824 
	C967.176758,61.335392 967.050964,63.100494 967.043091,64.800079 
	C967.009094,72.133087 967.008057,79.466324 967.025208,86.799408 
	C967.027893,87.946671 966.807922,89.565346 967.987061,89.966446 
	C972.213318,91.404076 971.048218,94.814430 971.049561,97.737564 
	C971.075623,154.737289 971.072876,211.737030 971.054199,268.736755 
	C971.053467,271.054504 971.913574,273.644226 968.445862,274.752808 
	C966.627258,275.334198 967.004883,277.531219 967.004089,279.188019 
	C967.001709,284.521332 966.862610,289.859619 967.053589,295.186035 
	C967.162476,298.221130 965.554443,302.101624 970.487976,303.367676 
	C971.525513,303.633942 971.060059,305.473450 971.060303,306.607147 
	C971.071045,364.940216 971.068848,423.273254 971.073547,481.606323 
	C971.073730,483.259857 971.312195,484.745758 968.966675,485.371765 
	C966.819092,485.944977 966.991577,488.171021 966.993530,490.026978 
	C966.999939,496.193604 966.982239,502.360291 967.002380,508.526855 
	C967.012024,511.462067 966.403381,514.502502 970.236877,516.043152 
	C972.034668,516.765564 971.030518,519.064026 971.032166,520.611206 
	C971.081726,567.110901 971.070679,613.610718 971.068604,660.110474 
	C971.068115,671.110291 971.072449,682.110046 971.057373,693.109863 
	C971.055054,694.841064 971.618591,696.664185 968.908264,697.333679 
	C967.104980,697.779053 966.994812,699.830322 966.997681,701.561523 
	C967.009277,708.561462 966.992798,715.561462 967.008545,722.561401 
	C967.013123,724.595886 966.986084,726.668640 969.670227,727.226440 
	C970.092468,727.314148 970.774292,727.738098 970.778931,728.015930 
	C970.879211,734.000244 970.983398,739.987488 970.865784,745.969788 
	C970.842407,747.155334 969.343994,746.977905 968.391113,746.978943 
	C954.891174,746.994446 941.390808,746.932068 927.891785,747.040710 
	C925.235535,747.062073 925.049194,745.794434 924.962830,743.677124 
	C924.523254,732.899597 924.472473,732.901672 913.752136,732.892151 
	C902.935547,732.882446 902.935608,732.882446 902.935608,721.997314 
	C902.935608,615.498230 902.935608,508.999115 902.935547,402.000000 
z"/>
<path fill="#868686" opacity="1.000000" stroke="none" 
	d="
M727.243591,737.246216 
	C726.934082,735.049500 727.002930,733.218140 727.002930,731.386719 
	C727.007324,503.772247 727.006714,276.157745 727.006104,48.543270 
	C727.006104,42.008663 727.005188,42.005718 733.666016,42.008183 
	C749.828857,42.014160 765.991760,42.023148 782.627197,42.080574 
	C784.507629,43.562809 784.600525,45.408600 784.689575,47.247288 
	C784.778259,49.078381 784.745544,50.911934 784.745544,52.744495 
	C784.746521,277.164856 784.747009,501.585205 784.745178,726.005554 
	C784.745178,728.004639 784.807495,730.007141 784.658386,732.001587 
	C784.277100,737.101624 783.025818,738.322571 777.888489,738.679688 
	C776.891052,738.748962 775.890320,738.741272 774.890686,738.741821 
	C761.562073,738.749329 748.233459,738.763794 734.904968,738.729614 
	C732.422546,738.723206 729.880493,738.944092 727.243591,737.246216 
z"/>
<path fill="#FEFEFE" opacity="1.000000" stroke="none" 
	d="
M726.486572,736.937256 
	C744.391663,736.919067 761.886475,736.902100 779.379761,737.051270 
	C782.212585,737.075378 783.345642,736.222778 783.025085,733.379089 
	C782.858215,731.898315 782.996765,730.383118 782.996826,728.883484 
	C783.004333,500.271576 783.011658,271.659637 783.059448,42.588982 
	C784.758606,42.090912 786.417542,42.051598 788.487549,42.071060 
	C790.508545,43.649189 790.618347,45.663212 790.692566,47.672112 
	C790.784790,50.169292 790.739075,52.668777 790.739075,55.167271 
	C790.740356,276.875214 790.722839,498.583191 790.773682,720.291138 
	C790.777649,737.611389 788.549133,735.004944 805.464844,735.246643 
	C811.626831,735.334656 817.791138,735.231140 823.954102,735.278809 
	C826.109253,735.295471 828.306824,735.164490 830.693726,736.601257 
	C832.761047,736.919128 834.417053,736.956421 836.483765,736.937744 
	C838.539246,735.525818 840.515808,735.325806 842.525696,735.314880 
	C853.467468,735.255676 864.409424,735.239624 875.351135,735.325989 
	C877.012451,735.339111 878.673706,735.473450 880.499695,736.767822 
	C880.913574,739.755676 880.897827,742.414246 881.019714,745.066467 
	C881.090332,746.603821 880.442688,747.163940 878.575867,747.094238 
	C875.841919,749.051025 872.827637,747.911926 869.882812,749.108765 
	C857.556824,749.697815 845.675903,749.320679 833.334595,749.413574 
	C832.259644,749.388000 831.648804,749.352295 830.591675,749.230347 
	C827.869507,748.243896 825.471741,748.540588 822.656799,748.459473 
	C809.662598,748.530640 797.124512,748.485107 784.120117,748.485596 
	C782.727173,748.459900 781.800598,748.442688 780.414978,748.456421 
	C777.218140,748.511841 774.480042,748.495056 771.283936,748.468750 
	C765.915222,748.408264 761.004395,748.420776 755.628906,748.454163 
	C753.290100,748.506348 751.415894,748.501648 749.066528,748.469788 
	C733.194519,748.409607 717.797607,748.470764 701.918274,748.446777 
	C700.146973,748.451233 698.858093,748.438049 697.083618,748.453125 
	C678.391541,748.433594 660.185059,748.422852 641.489746,748.468140 
	C605.915527,748.096863 570.854065,750.046631 535.763306,749.484253 
	C517.630066,749.193604 499.489441,749.533020 480.881287,749.340820 
	C478.916565,749.187378 477.448212,748.534424 475.468903,749.176819 
	C466.610870,749.544617 458.205566,749.527832 449.330566,749.189087 
	C447.268860,748.532227 445.614014,748.445007 443.940002,748.444214 
	C420.628387,748.433289 397.316803,748.431519 374.005188,748.450439 
	C372.674408,748.451477 371.337372,748.427979 369.582520,748.972656 
	C362.718475,749.701355 356.307892,749.438599 349.420898,749.205505 
	C347.349060,748.568054 345.698608,748.443726 344.020264,748.443298 
	C320.520416,748.437134 297.020599,748.424988 273.520752,748.454895 
	C272.353394,748.456360 271.185730,748.477844 269.599670,748.969849 
	C259.462189,749.770569 249.771042,749.351929 239.640747,749.314758 
	C237.032852,748.880066 234.905853,747.899780 232.254761,748.955322 
	C229.445724,749.510742 227.012131,749.373901 224.186890,749.302673 
	C222.519348,749.142090 221.266220,748.710083 219.573898,749.094971 
	C217.286774,749.404175 215.390320,749.392761 213.082489,749.071533 
	C207.603317,748.081421 202.534866,748.081726 197.033325,749.082642 
	C192.322906,749.564697 188.042328,749.485718 183.300629,749.174805 
	C179.287262,747.950073 175.620392,748.418457 172.012375,748.471680 
	C160.299301,748.644409 148.574417,747.875671 136.417725,749.018799 
	C126.825508,749.710144 117.682396,749.404236 108.079941,749.276855 
	C103.189056,748.095764 98.742188,748.030029 93.824615,749.125671 
	C84.793022,749.658020 76.210655,749.367249 67.630554,749.397461 
	C66.309509,749.402161 64.979553,749.327515 63.497051,748.161499 
	C63.101715,744.550720 63.055756,741.270203 63.068825,737.544800 
	C64.591843,735.463623 66.726707,734.758301 68.331535,733.266541 
	C70.303177,731.433960 72.712509,731.368530 74.635658,733.225769 
	C76.820389,735.335571 79.389702,735.358887 82.054947,735.364990 
	C90.879021,735.385254 99.703224,735.347046 108.527168,735.388428 
	C110.838470,735.399292 113.212723,735.136841 115.730667,736.629272 
	C117.761131,736.919128 119.417114,736.956421 121.483795,736.937866 
	C124.171143,735.042542 126.901947,735.286194 129.548767,735.276489 
	C141.208847,735.233826 152.869324,735.306885 164.529205,735.238892 
	C170.714478,735.202820 171.096222,734.777527 171.241867,728.790283 
	C171.294510,726.625671 171.259262,724.459534 171.259277,722.294067 
	C171.259827,499.251099 171.256485,276.208160 171.288071,53.165192 
	C171.288559,49.715473 170.632034,46.142254 172.768402,42.501427 
	C174.759399,42.090729 176.418076,42.051434 178.487793,42.070919 
	C180.508423,43.649120 180.618423,45.663048 180.692657,47.671989 
	C180.784943,50.169174 180.739044,52.668655 180.739059,55.167149 
	C180.740295,276.875061 180.722916,498.582977 180.773834,720.290894 
	C180.777802,737.611938 178.549088,735.004944 195.464569,735.246521 
	C201.626572,735.334534 207.790878,735.230896 213.953827,735.278809 
	C216.109222,735.295532 218.306900,735.164490 220.693817,736.601318 
	C222.761078,736.919128 224.417068,736.956421 226.483765,736.937866 
	C229.171097,735.042603 231.901825,735.288635 234.548691,735.276367 
	C244.709457,735.229187 254.870926,735.325623 265.031189,735.229431 
	C270.603119,735.176697 271.042969,734.677856 271.230530,729.285950 
	C271.305817,727.121887 271.259003,724.955383 271.259003,722.789978 
	C271.259949,499.582550 271.256683,276.375092 271.288147,53.167675 
	C271.288635,49.717297 270.632263,46.143547 272.768127,42.501770 
	C274.759521,42.090961 276.418182,42.051582 278.487854,42.070946 
	C280.508453,43.649124 280.618469,45.663036 280.692688,47.671989 
	C280.784973,50.169174 280.739044,52.668655 280.739075,55.167145 
	C280.740265,276.875000 280.722839,498.582855 280.773804,720.290710 
	C280.777771,737.611755 278.548950,735.004944 295.464447,735.246521 
	C301.626434,735.334534 307.790771,735.230896 313.953705,735.278748 
	C316.109131,735.295471 318.306824,735.164551 320.693787,736.601318 
	C322.761047,736.919128 324.417084,736.956421 326.483826,736.937866 
	C329.171173,735.042664 331.901917,735.288635 334.548767,735.276367 
	C344.709534,735.229187 354.871002,735.325562 365.031281,735.229431 
	C370.602966,735.176697 371.042938,734.677734 371.230499,729.285828 
	C371.305786,727.121765 371.259033,724.955261 371.259033,722.789856 
	C371.259979,499.582367 371.256683,276.374878 371.288147,53.167393 
	C371.288635,49.717045 370.632294,46.143337 372.768005,42.501511 
	C374.759430,42.090733 376.418091,42.051441 378.487854,42.070938 
	C380.508484,43.649151 380.618439,45.663082 380.692688,47.672024 
	C380.784973,50.169209 380.739044,52.668690 380.739075,55.167179 
	C380.740265,276.875031 380.722839,498.582916 380.773773,720.290771 
	C380.777740,737.612427 378.549408,735.004761 395.464447,735.246460 
	C401.626434,735.334534 407.790771,735.230896 413.953705,735.278870 
	C416.109100,735.295715 418.306824,735.164307 420.693756,736.601318 
	C422.761047,736.919128 424.417084,736.956421 426.483826,736.937866 
	C429.171173,735.042664 431.901917,735.288635 434.548767,735.276367 
	C444.709503,735.229126 454.871002,735.325623 465.031250,735.229431 
	C470.603088,735.176697 471.043091,734.677795 471.230591,729.285889 
	C471.305847,727.121826 471.259033,724.955322 471.259033,722.789917 
	C471.259979,499.582550 471.256653,276.375214 471.288116,53.167854 
	C471.288605,49.717415 470.632202,46.143616 472.768097,42.501770 
	C474.759521,42.090958 476.418182,42.051579 478.487854,42.070946 
	C480.508423,43.649143 480.618500,45.663044 480.692749,47.671997 
	C480.785034,50.169182 480.739044,52.668667 480.739075,55.167156 
	C480.740265,276.875000 480.722809,498.582825 480.773773,720.290649 
	C480.777740,737.611816 478.548981,735.004944 495.464355,735.246521 
	C501.626343,735.334534 507.790680,735.230957 513.953613,735.278870 
	C516.109070,735.295654 518.306763,735.164490 520.693604,736.601624 
	C522.760925,736.919556 524.417053,736.956848 526.484009,736.938354 
	C529.171143,735.042542 531.901917,735.288635 534.548767,735.276367 
	C544.709534,735.229126 554.870972,735.325623 565.031250,735.229431 
	C570.603333,735.176697 571.043091,734.677979 571.230591,729.286011 
	C571.305908,727.121948 571.259033,724.955383 571.259033,722.789978 
	C571.259949,499.582642 571.256470,276.375275 571.288269,53.167946 
	C571.288757,49.717472 570.632385,46.143612 572.767883,42.501556 
	C574.759338,42.090755 576.417969,42.051449 578.487732,42.070915 
	C580.508484,43.649113 580.618347,45.663109 580.692566,47.672016 
	C580.784851,50.169193 580.739075,52.668686 580.739075,55.167179 
	C580.740356,276.875183 580.722839,498.583191 580.773743,720.291199 
	C580.777710,737.611084 578.548584,735.005005 595.464905,735.246582 
	C601.626892,735.334656 607.791199,735.231140 613.954163,735.278809 
	C616.109314,735.295410 618.306885,735.164429 620.693726,736.601257 
	C622.761047,736.919189 624.417114,736.956421 626.483887,736.937866 
	C629.171204,735.042542 631.901917,735.288635 634.548767,735.276367 
	C644.709534,735.229187 654.870972,735.325562 665.031250,735.229431 
	C670.603271,735.176697 671.043152,734.677856 671.230591,729.286011 
	C671.305908,727.121948 671.259033,724.955444 671.259033,722.790039 
	C671.259949,499.582672 671.256470,276.375336 671.288269,53.167969 
	C671.288757,49.717541 670.632324,46.143688 672.768066,42.501778 
	C674.759521,42.090958 676.418091,42.051579 678.487793,42.070927 
	C680.508484,43.649078 680.618347,45.663074 680.692566,47.671982 
	C680.784851,50.169159 680.739075,52.668652 680.739075,55.167145 
	C680.740356,276.875153 680.722839,498.583130 680.773682,720.291138 
	C680.777649,737.612366 678.549927,735.004761 695.464844,735.246582 
	C701.626831,735.334656 707.791138,735.231201 713.954102,735.278870 
	C716.109314,735.295532 718.306824,735.164368 720.693726,736.601257 
	C722.761963,736.919128 724.418823,736.956360 726.486572,736.937256 
z"/>
<path fill="#868686" opacity="1.000000" stroke="none" 
	d="
M116.059204,736.422729 
	C103.290962,736.919922 90.476776,736.961121 77.662567,736.992432 
	C75.872528,736.996765 74.345764,737.296448 73.786514,734.515015 
	C73.248436,731.838928 69.555519,732.647583 69.411858,733.898438 
	C68.937149,738.031616 66.209221,736.803162 63.550713,737.059326 
	C62.204029,684.299988 62.774380,631.495605 62.757061,578.694031 
	C62.699566,403.413788 62.824745,228.133484 62.880569,52.853222 
	C62.880783,52.186790 62.941006,51.516457 62.889187,50.854523 
	C62.196270,42.003235 62.192539,42.003872 70.975479,42.004665 
	C84.471420,42.005882 97.970360,42.164143 111.461426,41.908031 
	C115.328224,41.834621 116.284470,43.025837 116.073174,46.676094 
	C115.765579,51.990055 115.992378,57.334991 115.992538,62.666721 
	C115.999352,287.099030 116.006325,511.531311 116.059204,736.422729 
z"/>
<path fill="#868686" opacity="1.000000" stroke="none" 
	d="
M172.627991,42.080582 
	C173.066071,45.461178 173.001114,48.792328 173.001053,52.123478 
	C172.996262,278.227448 173.000671,504.331451 172.979614,730.435425 
	C172.978897,738.013428 174.018021,736.949524 166.329132,736.978577 
	C151.833481,737.033386 137.337418,736.980469 122.368011,736.927185 
	C121.932205,734.717468 122.002861,732.552917 122.002907,730.388306 
	C122.007751,503.106171 122.007294,275.824005 122.007111,48.541866 
	C122.007103,42.008488 122.007011,42.005444 128.665451,42.008133 
	C143.162048,42.013985 157.658661,42.023258 172.627991,42.080582 
z"/>
<path fill="#838383" opacity="1.000000" stroke="none" 
	d="
M7.935791,264.000000 
	C7.935791,191.339874 8.003267,119.179573 7.796261,47.020042 
	C7.781167,41.758488 9.306026,40.758865 14.150640,40.890099 
	C26.806870,41.232937 39.479462,41.087128 52.143383,40.945034 
	C55.103168,40.911819 56.398891,41.575558 56.136494,44.800579 
	C55.853600,48.277485 56.064556,51.794788 56.064552,55.294468 
	C56.064152,283.773743 56.042431,512.253052 56.196854,740.732239 
	C56.200504,746.131287 54.626732,747.260864 49.602283,747.112305 
	C37.447342,746.752808 25.270634,746.818726 13.111271,747.093079 
	C9.039770,747.184937 7.798987,746.224792 7.829841,741.955811 
	C8.034591,713.626587 7.935833,685.295044 7.935830,656.964294 
	C7.935820,526.142883 7.935817,395.321442 7.935791,264.000000 
z"/>
<path fill="#868686" opacity="1.000000" stroke="none" 
	d="
M880.923950,736.695618 
	C866.528198,737.057068 852.184875,737.014343 837.367981,736.926758 
	C836.931946,734.883789 837.002136,732.885742 837.002197,730.887695 
	C837.006897,503.430939 837.006409,275.974152 837.006042,48.517399 
	C837.006042,42.007809 837.005493,42.007240 843.690552,42.007042 
	C855.188354,42.006695 866.688049,42.120735 878.182800,41.932926 
	C881.329773,41.881504 882.011963,42.890026 882.117920,45.885052 
	C882.243286,49.429714 880.122253,53.693863 884.815369,56.360443 
	C885.565857,56.786842 885.052246,59.512032 885.052307,61.174503 
	C885.058594,272.634308 885.058289,484.094147 885.058289,695.553955 
	C885.058289,705.718689 885.073181,715.883484 885.049988,726.048157 
	C885.042908,729.157959 885.973022,732.676025 881.633850,734.039673 
	C881.219666,734.169800 881.186401,735.511963 880.923950,736.695618 
z"/>
<path fill="#868686" opacity="1.000000" stroke="none" 
	d="
M272.628113,42.080639 
	C273.066132,45.628109 273.001068,49.125877 273.000977,52.623650 
	C272.996216,278.560455 273.000641,504.497284 272.979645,730.434082 
	C272.978912,738.013672 274.017273,736.944580 266.330475,736.978943 
	C253.501099,737.036255 240.671188,736.980408 227.367981,736.927124 
	C226.932175,734.884155 227.002869,732.886169 227.002914,730.888245 
	C227.007462,503.440247 227.006775,275.992218 227.006180,48.544209 
	C227.006165,42.007294 227.005310,42.004612 233.664505,42.007710 
	C246.494797,42.013676 259.325104,42.023006 272.628113,42.080639 
z"/>
<path fill="#868686" opacity="1.000000" stroke="none" 
	d="
M672.628174,42.080643 
	C673.066223,45.628109 673.001343,49.125877 673.001282,52.623650 
	C672.996460,278.560394 673.000793,504.497162 672.979614,730.433899 
	C672.978943,738.012756 674.018982,736.944580 666.330688,736.978943 
	C653.501221,737.036316 640.671326,736.980408 627.368103,736.927124 
	C626.932251,735.050781 627.002930,733.219421 627.002930,731.388123 
	C627.007507,503.773499 627.006836,276.158905 627.006226,48.544285 
	C627.006226,42.007294 627.005188,42.004608 633.664429,42.007706 
	C646.494751,42.013676 659.325134,42.023010 672.628174,42.080643 
z"/>
<path fill="#868686" opacity="1.000000" stroke="none" 
	d="
M572.627930,42.080605 
	C573.065979,45.461208 573.001160,48.792351 573.001099,52.123497 
	C572.996399,278.226929 573.000793,504.330383 572.979614,730.433838 
	C572.978943,738.012756 574.019043,736.944397 566.330688,736.978882 
	C553.501221,737.036438 540.671326,736.980835 527.368164,736.927673 
	C526.932373,735.051208 527.002869,733.219849 527.002869,731.388550 
	C527.007324,503.774048 527.006714,276.159546 527.006104,48.545029 
	C527.006104,42.008667 527.005188,42.005444 533.664246,42.008289 
	C546.494568,42.013775 559.324890,42.023296 572.627930,42.080605 
z"/>
<path fill="#868686" opacity="1.000000" stroke="none" 
	d="
M472.628143,42.080639 
	C473.066132,45.628109 473.001099,49.125877 473.001007,52.623650 
	C472.996216,278.560425 473.000641,504.497223 472.979645,730.434021 
	C472.978912,738.013855 474.017059,736.944519 466.330566,736.978882 
	C453.501160,737.036255 440.671234,736.980408 427.368042,736.927124 
	C426.932220,734.884155 427.002838,732.886169 427.002899,730.888245 
	C427.007446,503.440216 427.006805,275.992157 427.006287,48.544121 
	C427.006256,42.007294 427.005493,42.004608 433.664520,42.007706 
	C446.494812,42.013676 459.325104,42.023006 472.628143,42.080639 
z"/>
<path fill="#868686" opacity="1.000000" stroke="none" 
	d="
M372.627991,42.080582 
	C373.066071,45.461170 373.001129,48.792313 373.001068,52.123455 
	C372.996277,278.226990 373.000610,504.330536 372.979614,730.434082 
	C372.978882,738.013733 374.017212,736.944580 366.330475,736.978943 
	C353.501099,737.036255 340.671204,736.980408 327.368042,736.927124 
	C326.932190,734.884155 327.002869,732.886169 327.002899,730.888245 
	C327.007416,503.440491 327.006683,275.992767 327.006073,48.545025 
	C327.006073,42.008667 327.005188,42.005444 333.664246,42.008289 
	C346.494568,42.013775 359.324921,42.023293 372.627991,42.080582 
z"/>
<path fill="#868686" opacity="1.000000" stroke="none" 
	d="
M321.059113,736.422729 
	C308.276306,736.919800 295.446594,736.885132 282.619537,737.051941 
	C279.783905,737.088745 278.642639,736.219604 278.977814,733.378418 
	C279.132935,732.063721 279.003448,730.715454 279.003387,729.382446 
	C278.995850,500.604004 278.988312,271.825592 278.939850,42.588425 
	C291.727966,42.089260 304.558014,42.122768 317.385345,41.950825 
	C320.211884,41.912937 321.383148,42.744152 321.016846,45.600109 
	C320.869659,46.747673 320.992584,47.929882 320.992615,49.096325 
	C320.999481,278.052094 321.006348,507.007843 321.059113,736.422729 
z"/>
<path fill="#868686" opacity="1.000000" stroke="none" 
	d="
M421.059113,736.422729 
	C408.276306,736.919739 395.446594,736.885132 382.619537,737.051941 
	C379.783905,737.088745 378.642609,736.219604 378.977814,733.378418 
	C379.132935,732.063721 379.003418,730.715515 379.003387,729.382507 
	C378.995758,500.604065 378.988159,271.825653 378.939758,42.588467 
	C391.727936,42.089401 404.557983,42.123104 417.385254,41.951122 
	C420.213104,41.913212 421.369324,42.746891 421.020599,45.601990 
	C420.860168,46.915466 420.993286,48.264801 420.993317,49.597874 
	C420.999939,278.386444 421.006561,507.175049 421.059113,736.422729 
z"/>
<path fill="#868686" opacity="1.000000" stroke="none" 
	d="
M221.059158,736.422729 
	C208.276337,736.919800 195.446640,736.885132 182.619568,737.051880 
	C179.784027,737.088684 178.642578,736.219788 178.977844,733.378479 
	C179.132965,732.063782 179.003403,730.715515 179.003357,729.382507 
	C178.995758,500.604065 178.988159,271.825623 178.939697,42.588440 
	C191.727921,42.089207 204.558014,42.122726 217.385330,41.950588 
	C220.211731,41.912663 221.383377,42.743225 221.017471,45.599247 
	C220.870438,46.746861 220.993027,47.929028 220.993057,49.095470 
	C220.999771,278.051514 221.006485,507.007568 221.059158,736.422729 
z"/>
<path fill="#868686" opacity="1.000000" stroke="none" 
	d="
M521.058960,736.423096 
	C508.276001,736.920044 495.446289,736.885254 482.619232,737.052002 
	C479.783173,737.088745 478.642731,736.218872 478.977814,733.378113 
	C479.132904,732.063416 479.003418,730.715210 479.003357,729.382202 
	C478.995819,500.603851 478.988312,271.825500 478.939850,42.588425 
	C491.727966,42.089260 504.558014,42.122784 517.385315,41.950809 
	C520.212036,41.912918 521.383057,42.744385 521.016907,45.600178 
	C520.869751,46.747761 520.992554,47.929955 520.992554,49.096397 
	C520.999451,278.052216 521.006287,507.008057 521.058960,736.423096 
z"/>
<path fill="#868686" opacity="1.000000" stroke="none" 
	d="
M621.059082,736.422729 
	C608.276306,736.919739 595.446594,736.885010 582.619507,737.051819 
	C579.783752,737.088745 578.654724,736.220520 578.974915,733.378113 
	C579.141724,731.897339 579.003235,730.382141 579.003174,728.882507 
	C578.995605,500.270721 578.988159,271.658936 578.939697,42.588425 
	C591.727905,42.089199 604.557983,42.122730 617.385315,41.950581 
	C620.211731,41.912651 621.383362,42.743202 621.017517,45.599163 
	C620.870544,46.746792 620.992920,47.928951 620.992981,49.095394 
	C620.999634,278.051483 621.006409,507.007538 621.059082,736.422729 
z"/>
<path fill="#868686" opacity="1.000000" stroke="none" 
	d="
M721.059082,736.422729 
	C708.276306,736.919800 695.446594,736.885132 682.619507,737.051941 
	C679.783752,737.088745 678.654724,736.220520 678.974976,733.378174 
	C679.141724,731.897339 679.003235,730.382141 679.003174,728.882507 
	C678.995667,500.270721 678.988281,271.658905 678.939819,42.588387 
	C691.727905,42.089237 704.557922,42.122765 717.385254,41.950821 
	C720.211853,41.912933 721.382996,42.744209 721.016846,45.600067 
	C720.869690,46.747650 720.992554,47.929852 720.992554,49.096294 
	C720.999451,278.052063 721.006287,507.007843 721.059082,736.422729 
z"/>
<path fill="#868686" opacity="1.000000" stroke="none" 
	d="
M831.059082,736.422729 
	C818.276306,736.919739 805.446594,736.885010 792.619507,737.051880 
	C789.783752,737.088745 788.654724,736.220520 788.974976,733.378174 
	C789.141785,731.897339 789.003235,730.382202 789.003174,728.882568 
	C788.995605,500.270813 788.988098,271.659058 788.939636,42.588570 
	C801.727844,42.089108 814.557861,42.122231 827.385193,41.950111 
	C830.211365,41.912193 831.371338,42.742485 831.021240,45.599678 
	C830.860291,46.913071 830.993164,48.262482 830.993225,49.595558 
	C830.999817,278.384918 831.006470,507.174255 831.059082,736.422729 
z"/>
<path fill="#838383" opacity="1.000000" stroke="none" 
	d="
M829.903503,747.747131 
	C830.634094,747.524353 830.977661,747.470825 831.554443,747.547974 
	C833.269836,749.642944 835.429810,748.967834 837.325500,748.968750 
	C850.272400,748.974670 863.222229,749.214233 877.060242,748.851196 
	C889.286987,749.032837 900.620544,749.142212 911.947754,748.923462 
	C915.296875,748.858826 916.168518,749.920105 916.065247,753.142273 
	C915.835754,760.300415 915.893921,767.472900 916.041260,774.635254 
	C916.095703,777.283875 915.193542,778.153137 912.589172,778.022095 
	C908.932495,777.838135 905.259583,777.979431 901.593567,777.979431 
	C624.141602,777.979675 346.689606,777.966309 69.237686,778.089294 
	C64.357323,778.091492 62.482666,777.213257 62.876667,771.928650 
	C63.395531,764.969177 62.990273,757.940796 62.997070,750.473999 
	C64.750519,748.607483 66.826714,748.982727 68.782333,749.026428 
	C83.583588,749.357361 98.375282,748.602783 113.185646,748.906799 
	C134.148438,749.337158 155.127533,747.958374 176.087769,748.649231 
	C191.385574,749.153442 206.673553,748.126648 222.453781,748.939941 
	C255.082291,749.198181 287.209351,748.352417 319.341827,748.547485 
	C360.643524,748.798218 401.949158,748.166077 443.246704,748.638428 
	C489.550568,749.168091 535.855652,749.234863 582.153137,748.863708 
	C618.964050,748.568665 655.772095,748.764282 692.580688,748.558716 
	C694.751038,748.546570 696.908081,748.456177 699.524902,748.069946 
	C703.943787,748.784546 707.926147,748.548401 712.351440,748.567017 
	C714.917175,748.568298 717.028870,748.601501 719.598633,748.552612 
	C721.604614,748.489624 723.152466,748.510376 725.176392,748.545044 
	C757.431580,748.585205 789.210693,748.469666 821.444580,748.513672 
	C824.440125,748.341797 827.046082,748.984436 829.903503,747.747131 
z"/>
<path fill="#838383" opacity="1.000000" stroke="none" 
	d="
M814.000000,10.031927 
	C846.659729,10.025876 878.819946,10.109550 910.978455,9.906708 
	C915.275757,9.879602 916.395264,11.154696 916.076172,15.206537 
	C915.724060,19.677908 915.851379,24.204502 916.046814,28.694983 
	C916.164673,31.403097 915.126221,32.304871 912.583435,32.010525 
	C911.596924,31.896320 910.586060,31.993332 909.586243,31.993334 
	C629.313416,31.994097 349.040558,31.979437 68.767776,32.119053 
	C63.783909,32.121536 62.447899,30.744987 62.918716,26.044895 
	C63.331852,21.920658 63.181484,17.711903 62.942528,13.559903 
	C62.772343,10.602819 63.912395,9.649887 66.663643,10.014438 
	C67.482452,10.122933 68.327736,10.031822 69.160889,10.031822 
	C317.273926,10.031874 565.386963,10.031896 814.000000,10.031927 
z"/>
<path fill="#838383" opacity="1.000000" stroke="none" 
	d="
M891.931152,425.000000 
	C891.931091,303.023102 891.931091,181.546234 891.929688,60.069347 
	C891.929688,59.069675 891.901428,58.070004 891.901306,57.070332 
	C891.901123,55.555191 892.768982,55.097099 894.158447,55.117382 
	C895.572021,55.138016 896.921448,55.156921 896.981750,57.055004 
	C897.024048,58.386784 896.994446,59.720901 896.994446,61.053974 
	C896.994568,283.011719 896.994446,504.969482 896.994202,726.927246 
	C896.994202,728.093689 896.943909,729.262329 896.998901,730.426086 
	C897.096313,732.486023 895.947876,732.888916 894.166138,732.897339 
	C892.354065,732.905823 891.844421,732.046204 891.918823,730.441406 
	C891.972778,729.277466 891.931091,728.109009 891.931091,726.942566 
	C891.931213,626.461731 891.931213,525.980835 891.931152,425.000000 
z"/>
<path fill="#828282" opacity="1.000000" stroke="none" 
	d="
M938.006470,7.649835 
	C948.494568,7.649445 958.487244,7.787480 968.472473,7.575005 
	C972.020630,7.499503 973.068787,8.694345 972.935608,12.134303 
	C972.697571,18.285456 972.761475,24.455069 972.915588,30.611544 
	C972.984985,33.386147 972.113525,34.426041 969.232849,34.402332 
	C955.414612,34.288589 941.594482,34.289261 927.776245,34.399685 
	C924.908203,34.422596 924.018188,33.401398 924.084106,30.615963 
	C924.237549,24.126251 924.215149,17.628916 924.093018,11.137885 
	C924.045105,8.587858 924.892395,7.502512 927.519958,7.616000 
	C930.843628,7.759558 934.178284,7.650288 938.006470,7.649835 
z"/>
<path fill="#828282" opacity="1.000000" stroke="none" 
	d="
M972.421387,779.567749 
	C957.008484,780.866455 941.864441,780.096619 926.729309,780.346436 
	C924.343689,780.385742 924.112610,778.920349 924.121582,777.069214 
	C924.153870,770.407715 924.214111,763.744446 924.091492,757.084961 
	C924.043518,754.481689 925.016052,753.598389 927.583801,753.613159 
	C941.572876,753.693726 955.562927,753.701050 969.551941,753.613647 
	C972.256653,753.596802 972.954590,754.737488 972.903076,757.212402 
	C972.750610,764.534912 972.759094,771.860718 972.421387,779.567749 
z"/>
<path fill="#838383" opacity="1.000000" stroke="none" 
	d="
M28.000343,7.655195 
	C35.816196,7.656237 43.142254,7.887195 50.444019,7.566010 
	C54.344578,7.394435 55.233372,8.790177 55.067528,12.391129 
	C54.792431,18.364254 54.864254,24.363146 55.046665,30.343351 
	C55.135593,33.258717 54.410427,34.452442 51.213734,34.413082 
	C38.080254,34.251366 24.942591,34.253860 11.808943,34.407627 
	C8.649825,34.444614 7.860892,33.309589 7.951330,30.360937 
	C8.139841,24.214668 8.222975,18.048260 7.927880,11.910393 
	C7.749990,8.210341 9.239024,7.441109 12.538831,7.595344 
	C17.516098,7.827985 22.512293,7.655636 28.000343,7.655195 
z"/>
<path fill="#838383" opacity="1.000000" stroke="none" 
	d="
M37.998703,780.344910 
	C29.185757,780.344788 20.864971,780.133606 12.562999,780.437134 
	C8.679961,780.579102 7.763145,779.231567 7.931841,775.616516 
	C8.210544,769.644104 8.137078,763.645142 7.950984,757.665466 
	C7.860161,754.747131 8.567068,753.548340 11.779897,753.588684 
	C24.912502,753.753662 38.049397,753.747375 51.182289,753.595215 
	C54.327122,753.558777 55.142239,754.671021 55.050194,757.632141 
	C54.859161,763.777893 54.778149,769.943970 55.072174,776.081543 
	C55.249065,779.774048 53.772980,780.597717 50.466007,780.399170 
	C46.490105,780.160461 42.488850,780.343933 37.998703,780.344910 
z"/>
<path fill="#5C5C5C" opacity="1.000000" stroke="none" 
	d="
M223.183640,749.677368 
	C169.973297,749.975647 116.959877,750.010010 63.479126,750.025146 
	C62.984627,749.518555 62.957458,749.031189 63.038982,748.187500 
	C73.117188,747.818542 83.086693,747.805847 93.519318,747.864624 
	C98.051743,748.069092 102.122063,747.982300 106.598907,747.984375 
	C116.370888,747.961853 125.735909,747.946960 135.564987,748.016113 
	C151.359375,747.911499 166.689957,747.988708 182.486588,748.116089 
	C187.334534,748.085266 191.716431,747.999023 196.559174,747.991333 
	C202.065002,747.925110 207.111115,748.037598 212.577087,748.006470 
	C215.042084,747.955444 217.086594,747.902039 219.564362,747.919922 
	C220.886337,747.972595 221.708969,748.264832 222.836823,748.666443 
	C223.217896,749.005615 223.299225,749.209473 223.183640,749.677368 
z"/>
<path fill="#868686" opacity="1.000000" stroke="none" 
	d="
M870.014038,748.457764 
	C872.357666,746.874023 874.883667,747.740417 877.729980,747.280518 
	C878.097839,747.592041 878.041687,748.006165 877.970703,748.734619 
	C877.955872,749.048950 877.987976,749.033875 877.982178,749.019531 
	C875.317932,749.745605 872.666321,749.883850 870.014038,748.457764 
z"/>
<path fill="#626262" opacity="1.000000" stroke="none" 
	d="
M223.456223,749.964966 
	C222.986725,749.941284 222.995911,749.468506 222.997467,749.232056 
	C222.825394,748.825928 222.651764,748.656250 222.736328,748.229736 
	C225.698318,747.925964 228.402115,747.878906 231.550659,747.908691 
	C233.775604,748.013916 235.555847,748.007019 237.669876,747.992310 
	C248.029800,747.943604 258.055969,747.899658 268.544922,747.940308 
	C295.343872,747.986877 321.680084,747.985535 348.497437,748.049561 
	C355.351959,748.015076 361.725281,747.956787 368.561462,747.987183 
	C395.360718,747.904785 421.697388,748.048401 448.515625,748.006287 
	C457.686646,747.947144 466.375916,747.885254 475.528473,747.897827 
	C476.797363,748.001282 477.603027,748.006104 478.710632,747.968140 
	C504.614136,747.912170 530.216370,747.967041 555.817261,747.803345 
	C583.914185,747.623840 612.009827,747.242981 640.571960,747.023621 
	C647.781738,748.011597 654.558228,747.422668 661.317261,747.477112 
	C672.898010,747.570496 684.480713,747.574219 696.508057,747.300537 
	C698.042542,747.085327 699.131470,747.033569 700.622070,747.065430 
	C701.160950,747.282593 701.298157,747.416016 701.496216,747.830444 
	C701.514404,748.298279 701.471680,748.485168 701.236572,748.885742 
	C695.464417,750.268616 689.807922,749.980164 684.167786,749.980286 
	C530.753784,749.984619 377.339752,749.986450 223.456223,749.964966 
z"/>
<path fill="#626262" opacity="1.000000" stroke="none" 
	d="
M823.253662,749.542542 
	C790.625000,749.848022 758.219788,749.857483 725.344482,749.786621 
	C724.422302,746.703186 726.722656,747.571167 728.122803,747.547485 
	C734.780396,747.434692 741.440369,747.577271 748.528931,747.291565 
	C750.701721,747.069946 752.444519,747.017578 754.617310,747.043091 
	C760.077148,747.942566 765.138855,747.348755 770.571655,747.291565 
	C773.689270,747.070435 776.419983,747.018311 779.599487,747.047241 
	C780.783997,747.668762 781.616272,747.489258 782.694458,747.286743 
	C796.000610,747.097717 809.042236,747.069641 822.546021,747.127808 
	C823.593567,747.792480 823.702515,748.480896 823.253662,749.542542 
z"/>
<path fill="#797979" opacity="1.000000" stroke="none" 
	d="
M348.634583,747.862549 
	C347.964264,749.270386 346.566223,748.992249 345.269287,748.992981 
	C320.855835,749.007812 296.442352,749.011597 272.028900,748.994019 
	C271.219238,748.993469 270.409790,748.744812 269.303955,748.318481 
	C269.802246,747.838501 270.597015,747.488159 271.391296,747.489136 
	C297.024414,747.522400 322.657471,747.589539 348.634583,747.862549 
z"/>
<path fill="#797979" opacity="1.000000" stroke="none" 
	d="
M448.640717,747.819214 
	C447.998749,749.220886 446.601685,748.967834 445.302612,748.968506 
	C420.726685,748.981018 396.150726,748.982056 371.574799,748.966309 
	C370.926819,748.965881 370.278931,748.751770 369.327698,748.356689 
	C369.811584,747.876038 370.598969,747.501038 371.386047,747.501648 
	C397.018738,747.521973 422.651367,747.578430 448.640717,747.819214 
z"/>
<path fill="#797979" opacity="1.000000" stroke="none" 
	d="
M182.631531,747.926758 
	C182.374130,748.444153 181.794586,748.956787 181.217224,748.954346 
	C166.355042,748.891357 151.493103,748.774597 136.330078,748.383728 
	C140.587860,746.710083 145.259415,747.568665 149.867599,747.524414 
	C160.680374,747.420654 171.495972,747.610840 182.631531,747.926758 
z"/>
<path fill="#5C5C5C" opacity="1.000000" stroke="none" 
	d="
M869.535034,747.941345 
	C872.175720,749.819031 874.759460,748.556885 877.550171,748.976135 
	C877.190979,750.171936 875.969055,750.012390 874.821594,750.012451 
	C861.831787,750.012878 848.841858,750.013916 835.852173,749.977966 
	C834.422607,749.973999 832.759399,750.370361 831.875244,748.112183 
	C844.215027,747.746033 856.642273,747.813416 869.535034,747.941345 
z"/>
<path fill="#4A4B49" opacity="1.000000" stroke="none" 
	d="
M748.495728,747.068237 
	C742.978210,749.093140 736.825256,747.406067 730.782898,747.991455 
	C728.893066,748.174622 726.765930,747.160706 725.017822,749.345703 
	C723.535950,749.736694 722.197388,749.767151 720.455811,749.771484 
	C719.279846,749.465454 718.442871,749.493225 717.256470,749.164307 
	C711.806946,748.660522 706.714966,749.561646 701.347290,748.277954 
	C701.000000,748.034363 701.004944,747.591553 701.014404,747.370361 
	C716.693359,747.104126 732.362976,747.059082 748.495728,747.068237 
z"/>
<path fill="#4A4B49" opacity="1.000000" stroke="none" 
	d="
M696.491089,747.080200 
	C696.368774,747.404053 695.783203,747.905396 695.198914,747.903870 
	C677.344604,747.856140 659.490295,747.759155 641.336975,747.383606 
	C659.368103,747.072754 677.698364,747.048035 696.491089,747.080200 
z"/>
<path fill="#797979" opacity="1.000000" stroke="none" 
	d="
M212.642975,747.817566 
	C207.941040,749.908020 202.765457,748.883789 197.320740,748.352417 
	C202.077194,746.811035 207.195160,747.644531 212.642975,747.817566 
z"/>
<path fill="#797979" opacity="1.000000" stroke="none" 
	d="
M106.648766,747.800232 
	C102.931107,749.799377 98.740059,748.975037 94.273895,748.229736 
	C98.063805,746.976868 102.184792,747.578308 106.648766,747.800232 
z"/>
<path fill="#5C5C5C" opacity="1.000000" stroke="none" 
	d="
M823.462952,749.879150 
	C823.022644,749.183594 823.015076,748.528687 823.007812,747.543823 
	C825.179199,747.258179 827.350281,747.302368 829.905945,747.462219 
	C829.322571,751.536194 826.128113,749.414490 823.462952,749.879150 
z"/>
<path fill="#4A4B49" opacity="1.000000" stroke="none" 
	d="
M770.497192,747.069336 
	C765.911926,748.781921 760.776245,747.919006 755.354614,747.391846 
	C760.043457,747.085999 765.039612,747.051086 770.497192,747.069336 
z"/>
<path fill="#797979" opacity="1.000000" stroke="none" 
	d="
M237.705750,747.815430 
	C236.306915,749.597534 234.402145,749.105225 232.242462,748.259399 
	C233.751648,747.113586 235.588989,747.524536 237.705750,747.815430 
z"/>
<path fill="#797979" opacity="1.000000" stroke="none" 
	d="
M478.791016,747.797791 
	C478.301514,749.007263 477.411072,749.138367 476.178345,748.220459 
	C476.784027,747.339294 477.676392,747.487610 478.791016,747.797791 
z"/>
<path fill="#797979" opacity="1.000000" stroke="none" 
	d="
M222.756256,747.843384 
	C222.998001,748.143372 223.001480,748.313782 223.001984,748.739929 
	C222.136475,748.834412 221.273956,748.673218 220.204529,748.251587 
	C220.770737,747.289917 221.656052,747.608032 222.756256,747.843384 
z"/>
<path fill="#4A4B49" opacity="1.000000" stroke="none" 
	d="
M782.596924,747.073120 
	C782.249268,748.053040 781.383240,748.099792 780.232178,747.352905 
	C780.777161,747.092407 781.506042,747.056458 782.596924,747.073120 
z"/>
<path fill="#797979" opacity="1.000000" stroke="none" 
	d="
M701.005005,748.300903 
	C706.534729,748.211853 712.088074,747.559082 717.945557,748.683228 
	C716.858826,749.982117 715.210327,749.242310 713.367126,749.760681 
	C709.240417,749.867554 705.440125,749.753845 701.341919,749.369751 
	C701.032776,748.922058 701.021423,748.744690 701.005005,748.300903 
z"/>
<path fill="#626262" opacity="1.000000" stroke="none" 
	d="
M713.477112,749.980347 
	C714.245789,748.478210 715.948303,749.181946 717.865906,748.972778 
	C718.759583,749.094727 719.235657,749.231567 719.882324,749.556885 
	C718.006409,749.823364 715.959900,749.901428 713.477112,749.980347 
z"/>
</svg>