<svg version="1.1" id="Layer_1" xmlns="http://www.w3.org/2000/svg" xmlns:xlink="http://www.w3.org/1999/xlink" x="0px" y="0px"
	 width="100%" viewBox="0 0 1965 786" enable-background="new 0 0 1965 786" xml:space="preserve">
<path fill="#010101" opacity="1.000000" stroke="none" 
	d="
M1897.586182,1.277893 
	C1919.020874,1.000000 1940.041870,1.000000 1961.531372,1.000000 
	C1964.351807,4.073413 1963.195801,7.665579 1963.468506,11.042280 
	C1963.702271,13.936563 1962.919922,17.049326 1965.693970,19.713890 
	C1966.000000,26.021152 1966.000000,32.042305 1966.000000,38.531731 
	C1964.053467,40.471107 1963.397583,42.318611 1964.165405,44.702011 
	C1965.269531,48.129192 1965.266357,51.555344 1964.080933,54.999546 
	C1963.647583,56.258533 1963.548340,57.714622 1963.984741,58.953556 
	C1965.284058,62.641884 1963.383911,65.235817 1962.052734,68.541512 
	C1959.313232,75.344696 1959.126343,82.858612 1962.937622,89.645325 
	C1964.247925,91.978676 1965.138672,93.957367 1964.279785,96.618286 
	C1963.401489,99.339211 1963.565918,102.217201 1963.565796,105.049423 
	C1963.563843,147.865784 1963.564575,190.682159 1963.563965,233.498520 
	C1963.563843,236.165451 1963.323975,238.908142 1964.191162,241.437103 
	C1965.204956,244.393372 1964.933472,246.917786 1963.060791,249.417450 
	C1961.372070,251.671631 1961.532104,254.073502 1963.035767,256.402496 
	C1964.134277,258.104034 1965.271240,259.855499 1964.639893,261.974884 
	C1963.033447,267.369293 1963.588989,272.891754 1963.586670,278.366455 
	C1963.553955,355.002747 1963.563354,431.639069 1963.568359,508.275360 
	C1963.568604,512.101013 1963.405396,515.935181 1964.603882,519.668335 
	C1965.313965,521.880798 1964.823975,523.935364 1963.354126,525.760925 
	C1961.430420,528.150452 1961.319336,530.624268 1963.239624,533.050171 
	C1964.842163,535.074707 1965.027832,537.194946 1964.272827,539.618713 
	C1963.421753,542.350525 1963.565796,545.219849 1963.565674,548.051880 
	C1963.563965,593.034058 1963.563599,638.016235 1963.566284,682.998413 
	C1963.566284,684.664185 1963.320312,686.390320 1963.735474,687.981812 
	C1964.918579,692.517700 1963.622681,696.259583 1962.021606,700.672729 
	C1959.612549,707.313477 1958.369019,714.926514 1963.417725,721.550842 
	C1964.141113,722.499878 1965.086670,723.622131 1964.688110,724.684387 
	C1962.249268,731.185913 1966.745605,737.889160 1963.985962,744.374390 
	C1963.347656,745.874451 1964.080078,747.303528 1965.668823,748.681641 
	C1966.000000,755.021179 1966.000000,761.042297 1966.000000,767.531738 
	C1963.525757,769.799866 1963.623169,772.479919 1963.462524,775.129272 
	C1963.235718,778.868408 1964.231567,782.718262 1962.254150,786.664612 
	C1940.979126,787.000000 1919.958130,787.000000 1898.468628,787.000000 
	C1896.903442,786.050964 1895.565308,786.021973 1894.223389,786.009094 
	C1892.223511,785.989807 1890.223511,785.997559 1888.223511,785.997559 
	C1283.066650,785.997253 677.909790,785.996582 72.752930,786.018799 
	C69.777534,786.018921 66.764236,785.591370 63.411587,786.723389 
	C43.509377,787.000000 24.018183,786.926819 4.528754,787.079468 
	C1.627784,787.102173 0.896590,786.597900 0.908916,783.531128 
	C1.051528,748.048767 1.000000,712.565613 1.000000,677.082703 
	C1.000000,453.190430 1.013201,229.298141 0.893052,5.405929 
	C0.890929,1.450903 2.008280,0.873653 5.590716,0.910185 
	C24.413054,1.102123 43.238388,1.000000 62.531342,1.000000 
	C64.096504,1.949028 65.434601,1.977771 66.776581,1.991018 
	C68.609825,2.009113 70.443123,2.002417 72.276398,2.002418 
	C677.759766,2.002738 1283.243164,2.003397 1888.726562,1.982502 
	C1891.541016,1.982404 1894.393311,2.389999 1897.586182,1.277893 
z"/>
<path fill="#C4C4C4" opacity="1.000000" stroke="none" 
	d="
M63.467854,787.000000 
	C62.952732,786.111633 63.083851,785.296875 64.196259,785.259521 
	C65.860664,785.203613 67.527672,785.215210 69.193573,785.215210 
	C676.925598,785.214050 1284.657593,785.213318 1892.389648,785.267212 
	C1894.207275,785.267395 1896.336792,784.260681 1897.948853,786.583984 
	C1286.645264,787.000000 675.290466,787.000000 63.467854,787.000000 
z"/>
<path fill="#BFBFBF" opacity="1.000000" stroke="none" 
	d="
M1897.532227,1.000000 
	C1898.029419,2.638581 1896.968506,2.800408 1895.681519,2.789311 
	C1892.682617,2.763453 1889.683105,2.802989 1886.683838,2.802995 
	C1280.990967,2.804168 675.298157,2.805645 69.605370,2.747661 
	C67.430687,2.747453 64.977570,3.784481 63.010841,1.418625 
	C674.354797,1.000000 1285.709595,1.000000 1897.532227,1.000000 
z"/>
<path fill="#F9F9F9" opacity="1.000000" stroke="none" 
	d="
M1966.000000,748.531372 
	C1962.009033,749.501404 1960.792847,747.921143 1962.316162,744.175354 
	C1963.776123,740.585266 1965.970581,737.220520 1962.350952,733.263550 
	C1961.221680,732.029114 1961.379395,728.929932 1963.248535,726.818604 
	C1965.041504,724.793457 1964.422607,722.229431 1962.017456,721.569946 
	C1959.131836,720.778687 1959.024902,719.225525 1959.183350,716.944885 
	C1959.571533,711.352417 1958.285889,705.658691 1960.205688,700.155640 
	C1960.257446,700.007141 1960.146240,699.719910 1960.221069,699.672913 
	C1965.647827,696.270813 1962.085449,691.662537 1962.073730,687.393616 
	C1961.942261,639.728821 1961.989624,592.063477 1962.003906,544.398315 
	C1962.004395,542.442505 1961.827881,540.546692 1963.401367,538.797974 
	C1964.762329,537.285461 1964.488770,535.472656 1962.659790,534.063538 
	C1959.159912,531.367310 1959.106812,527.807007 1962.517578,524.976013 
	C1964.174561,523.600708 1964.966797,521.690063 1963.592163,520.214722 
	C1961.549438,518.022217 1962.033813,515.630920 1962.033081,513.213074 
	C1962.009155,431.715790 1961.997070,350.218506 1962.012451,268.721222 
	C1962.012817,266.936646 1961.409790,264.961273 1962.731934,263.408112 
	C1965.029419,260.709351 1964.576050,258.849060 1961.525391,257.030945 
	C1959.387695,255.756943 1959.545288,250.041214 1961.701538,248.663071 
	C1964.362427,246.962555 1965.140991,245.121857 1962.918579,242.648041 
	C1961.611450,241.193008 1962.009155,239.510757 1962.008423,237.900757 
	C1961.984985,192.235519 1961.875854,146.569565 1962.161987,100.906113 
	C1962.191406,96.214569 1963.502075,92.280106 1960.476440,87.451775 
	C1957.150757,82.144447 1959.574097,75.097916 1959.212402,68.823151 
	C1959.164185,67.985733 1959.202881,67.298599 1960.338623,67.010712 
	C1964.573853,65.937057 1965.302734,63.774979 1962.577637,60.193043 
	C1961.330200,58.553402 1961.225098,55.646732 1962.368164,54.513653 
	C1966.097412,50.816692 1963.787964,47.533592 1962.437744,44.093296 
	C1961.303833,41.203896 1960.875610,38.787914 1965.618286,38.952892 
	C1966.000000,275.354218 1966.000000,511.708466 1966.000000,748.531372 
z"/>
<path fill="#F9F9F9" opacity="1.000000" stroke="none" 
	d="
M1962.500000,787.000000 
	C1962.003540,781.683899 1962.158325,776.361694 1961.945923,771.054199 
	C1961.841309,768.441467 1962.976562,767.897400 1965.570435,768.054199 
	C1966.000000,773.500000 1965.690796,779.024170 1966.118530,784.490723 
	C1966.366211,787.655518 1964.654419,786.951904 1962.500000,787.000000 
z"/>
<path fill="#F9F9F9" opacity="1.000000" stroke="none" 
	d="
M1966.000000,19.530624 
	C1962.878418,20.315548 1961.730713,19.064707 1961.934570,15.813467 
	C1962.223633,11.204805 1961.997681,6.563851 1961.995850,1.468349 
	C1965.188232,0.351205 1966.408203,1.293333 1966.100220,4.852671 
	C1965.693115,9.556530 1966.000000,14.322165 1966.000000,19.530624 
z"/>
<path fill="#FEFEFE" opacity="1.000000" stroke="none" 
	d="
M287.691956,736.604370 
	C289.761688,736.917786 291.416992,736.954956 293.482880,736.936646 
	C296.034943,735.187439 298.587921,735.372925 301.074066,735.362915 
	C311.236511,735.321838 321.399323,735.391663 331.561554,735.329102 
	C337.859650,735.290344 338.228729,734.863037 338.336487,728.418701 
	C338.369904,726.419922 338.346497,724.420410 338.346497,722.421204 
	C338.346802,499.345123 338.343628,276.269043 338.375183,53.192986 
	C338.375671,49.740868 337.722809,46.173874 339.772156,42.505234 
	C341.759125,42.090122 343.418335,42.050526 345.488647,42.070000 
	C347.491791,43.671322 347.546661,45.695412 347.614319,47.699905 
	C347.693054,50.031067 347.652405,52.364258 347.652405,54.696571 
	C347.653290,277.771545 347.650482,500.846497 347.660645,723.921448 
	C347.661224,736.457886 346.896912,735.267700 358.938202,735.339417 
	C366.268311,735.383057 373.598907,735.322876 380.929077,735.362976 
	C383.083923,735.374817 385.280823,735.225281 387.691772,736.604614 
	C389.761444,736.918030 391.416748,736.955078 393.482635,736.936523 
	C396.034882,735.187622 398.587830,735.372925 401.074005,735.362915 
	C411.236450,735.321838 421.399261,735.391663 431.561493,735.329102 
	C437.859619,735.290344 438.228668,734.863037 438.336487,728.418762 
	C438.369934,726.419983 438.346497,724.420471 438.346497,722.421326 
	C438.346802,499.345184 438.343628,276.269043 438.375214,53.192898 
	C438.375702,49.740646 437.722626,46.173466 439.772095,42.504791 
	C441.758850,42.089996 443.418060,42.050667 445.488403,42.070450 
	C447.491913,43.671597 447.546631,45.695732 447.614349,47.700211 
	C447.693115,50.031368 447.652435,52.364563 447.652435,54.696877 
	C447.653320,277.771729 447.650452,500.846588 447.660645,723.921448 
	C447.661224,736.457336 446.896393,735.267700 458.938232,735.339355 
	C466.268341,735.382996 473.598907,735.322754 480.929077,735.362976 
	C483.083893,735.374817 485.280853,735.225220 487.691956,736.604370 
	C489.761658,736.917847 491.416931,736.954956 493.482788,736.936646 
	C496.196198,735.080322 498.931122,735.370667 501.573792,735.362854 
	C514.901672,735.323181 528.229858,735.385376 541.557617,735.328125 
	C547.870300,735.301025 548.228271,734.876282 548.336182,728.425720 
	C548.369629,726.426941 548.345947,724.427429 548.345947,722.428223 
	C548.346252,499.351227 548.342834,276.274231 548.374695,53.197250 
	C548.375183,49.743954 547.723206,46.176041 549.771240,42.505409 
	C551.758972,42.090172 553.418152,42.050827 555.488403,42.070396 
	C557.491943,43.671360 557.546692,45.695522 557.614563,47.699982 
	C557.693542,50.031139 557.652466,52.364330 557.652466,54.696644 
	C557.653381,277.771515 557.650330,500.846405 557.660706,723.921265 
	C557.661316,736.456909 556.895447,735.267639 568.938110,735.339355 
	C576.268188,735.382996 583.598694,735.322815 590.928894,735.362976 
	C593.083740,735.374817 595.280701,735.225220 597.691528,736.604858 
	C599.761353,736.918274 601.416809,736.955261 603.482910,736.936646 
	C606.034973,735.187134 608.588013,735.372986 611.074158,735.362915 
	C621.236572,735.321655 631.399353,735.391663 641.561646,735.329102 
	C647.859619,735.290344 648.228394,734.863281 648.336243,728.418518 
	C648.369690,726.419739 648.346375,724.420227 648.346375,722.421021 
	C648.346680,499.344879 648.343750,276.268768 648.375000,53.192638 
	C648.375488,49.740383 647.722839,46.173378 649.771729,42.504505 
	C651.758850,42.089512 653.418274,42.050125 655.488953,42.069733 
	C657.492004,43.671097 657.546570,45.695278 657.614502,47.699707 
	C657.693542,50.030861 657.652466,52.364056 657.652466,54.696369 
	C657.653381,277.771271 657.650330,500.846191 657.660706,723.921082 
	C657.661316,736.456604 656.895142,735.267822 668.937927,735.339417 
	C676.268005,735.382935 683.598572,735.322815 690.928772,735.362976 
	C693.083618,735.374756 695.280579,735.225281 697.691650,736.604492 
	C699.761475,736.918030 701.416870,736.955078 703.482910,736.936646 
	C706.034973,735.187195 708.588013,735.372925 711.074158,735.362854 
	C721.236572,735.321716 731.399353,735.391602 741.561646,735.329102 
	C747.859558,735.290405 748.228333,734.863220 748.336182,728.418579 
	C748.369690,726.419800 748.346375,724.420288 748.346375,722.421082 
	C748.346680,499.345001 748.343750,276.268921 748.375000,53.192841 
	C748.375488,49.740646 747.722717,46.173634 749.772156,42.505024 
	C751.758972,42.090172 753.418152,42.050827 755.488403,42.070396 
	C757.491882,43.671391 757.546692,45.695545 757.614563,47.700001 
	C757.693542,50.031158 757.652466,52.364349 757.652466,54.696663 
	C757.653381,277.771484 757.650330,500.846313 757.660767,723.921143 
	C757.661316,736.456360 756.895020,735.267761 768.937988,735.339355 
	C776.268066,735.382996 783.598572,735.322815 790.928772,735.362976 
	C793.083679,735.374756 795.280579,735.225220 797.691650,736.604492 
	C799.761475,736.918030 801.416870,736.955078 803.482910,736.936646 
	C806.034973,735.187195 808.588013,735.372864 811.074158,735.362854 
	C821.236572,735.321716 831.399353,735.391602 841.561646,735.329102 
	C847.859680,735.290344 848.228333,734.863342 848.336304,728.418518 
	C848.369751,726.419739 848.346375,724.420227 848.346375,722.421082 
	C848.346680,499.344940 848.343750,276.268768 848.375000,53.192619 
	C848.375488,49.740398 847.722900,46.173435 849.771729,42.504547 
	C851.758850,42.089508 853.418274,42.050121 855.488953,42.069725 
	C857.492004,43.671097 857.546509,45.695278 857.614441,47.699707 
	C857.693481,50.030861 857.652466,52.364056 857.652466,54.696369 
	C857.653381,277.771271 857.650330,500.846191 857.660706,723.921082 
	C857.661316,736.456604 856.895142,735.267761 868.937927,735.339355 
	C876.268005,735.382935 883.598572,735.322754 890.928772,735.362976 
	C893.083618,735.374756 895.280579,735.225281 897.691650,736.604492 
	C899.761536,736.918152 901.417053,736.955322 903.483215,736.937012 
	C906.035156,735.187195 908.588257,735.373047 911.074402,735.362915 
	C921.236816,735.321594 931.399597,735.391724 941.561890,735.329102 
	C947.859619,735.290344 948.228394,734.863220 948.336304,728.418335 
	C948.369751,726.419556 948.346375,724.420044 948.346375,722.420837 
	C948.346680,499.344849 948.343872,276.268860 948.375122,53.192867 
	C948.375610,49.740677 947.722839,46.173672 949.772156,42.505035 
	C951.758972,42.090172 953.418152,42.050827 955.488403,42.070396 
	C957.491882,43.671391 957.546692,45.695545 957.614563,47.700001 
	C957.693542,50.031158 957.652466,52.364349 957.652466,54.696663 
	C957.653381,277.771484 957.650330,500.846313 957.660706,723.921143 
	C957.661316,736.456970 956.895447,735.267578 968.937988,735.339355 
	C976.268066,735.382996 983.598633,735.322754 990.928833,735.362976 
	C993.083679,735.374817 995.280701,735.225159 997.691772,736.604614 
	C999.761597,736.918274 1001.417114,736.955505 1003.483276,736.937134 
	C1006.035156,735.187195 1008.588257,735.373108 1011.074402,735.362976 
	C1021.236816,735.321716 1031.399658,735.391541 1041.561768,735.329163 
	C1047.859863,735.290466 1048.229492,734.863464 1048.335938,728.418518 
	C1048.371704,726.253113 1048.346558,724.086975 1048.346680,721.921204 
	C1048.346924,499.011719 1048.343872,276.102203 1048.375366,53.192722 
	C1048.375854,49.740444 1047.723267,46.173531 1049.771606,42.504547 
	C1051.758667,42.089542 1053.418091,42.050140 1055.488770,42.069710 
	C1057.491821,43.671082 1057.546631,45.695175 1057.614502,47.699661 
	C1057.693359,50.030819 1057.652100,52.364014 1057.652100,54.696327 
	C1057.653076,277.771240 1057.650024,500.846161 1057.660645,723.921082 
	C1057.661255,736.454346 1056.892822,735.268127 1068.937988,735.339417 
	C1076.268066,735.382812 1083.598633,735.322693 1090.928833,735.362976 
	C1093.083618,735.374756 1095.280762,735.225220 1097.691772,736.604492 
	C1099.761475,736.918030 1101.416748,736.955078 1103.482788,736.936646 
	C1106.034912,735.187378 1108.588013,735.371216 1111.074097,735.362793 
	C1122.902710,735.322693 1134.731323,735.389404 1146.559692,735.328674 
	C1152.869019,735.296326 1153.228149,734.873962 1153.336304,728.422485 
	C1153.369751,726.423706 1153.346436,724.424194 1153.346436,722.424988 
	C1153.346802,499.347839 1153.344116,276.270691 1153.375366,53.193565 
	C1153.375854,49.740891 1152.723267,46.173618 1154.771729,42.504513 
	C1156.758911,42.089935 1158.418091,42.050602 1160.488647,42.070114 
	C1162.491821,43.671276 1162.546631,45.695442 1162.614502,47.699879 
	C1162.693481,50.031036 1162.652100,52.364231 1162.652100,54.696545 
	C1162.653076,277.771423 1162.650024,500.846283 1162.660645,723.921143 
	C1162.661255,736.454834 1161.893066,735.268066 1173.937866,735.339417 
	C1181.267944,735.382812 1188.598633,735.322815 1195.928833,735.362976 
	C1198.083618,735.374756 1200.280640,735.225220 1202.691650,736.604553 
	C1204.761353,736.917969 1206.416748,736.955078 1208.482666,736.936646 
	C1211.034912,735.187622 1213.587769,735.372986 1216.073975,735.362854 
	C1226.236450,735.321472 1236.399292,735.391724 1246.561401,735.329102 
	C1252.859741,735.290344 1253.229614,734.863159 1253.336182,728.418762 
	C1253.371948,726.253357 1253.346558,724.087280 1253.346680,721.921509 
	C1253.346924,499.011963 1253.343872,276.102417 1253.375366,53.192860 
	C1253.375854,49.740494 1252.723145,46.173439 1254.771729,42.504391 
	C1256.758667,42.089386 1258.418213,42.049999 1260.488770,42.069786 
	C1262.491821,43.671284 1262.546509,45.695454 1262.614502,47.699886 
	C1262.693481,50.031044 1262.652100,52.364243 1262.652100,54.696556 
	C1262.653076,277.771454 1262.650024,500.846375 1262.660767,723.921265 
	C1262.661377,736.454529 1261.892578,735.268066 1273.937988,735.339417 
	C1281.268066,735.382812 1288.598755,735.322815 1295.928955,735.362976 
	C1298.083740,735.374756 1300.280762,735.225342 1302.691772,736.604614 
	C1304.761353,736.918091 1306.416748,736.955139 1308.482666,736.936707 
	C1311.034912,735.187622 1313.587769,735.372986 1316.073975,735.362915 
	C1326.236450,735.321594 1336.399292,735.391541 1346.561401,735.329102 
	C1352.859741,735.290344 1353.229736,734.863281 1353.336060,728.419006 
	C1353.371826,726.253601 1353.346558,724.087463 1353.346680,721.921692 
	C1353.346924,499.012115 1353.343872,276.102539 1353.375366,53.192970 
	C1353.375854,49.740700 1352.723145,46.173733 1354.771973,42.504852 
	C1356.758911,42.089935 1358.418091,42.050606 1360.488647,42.070114 
	C1362.491821,43.671276 1362.546631,45.695442 1362.614502,47.699879 
	C1362.693604,50.031033 1362.652100,52.364231 1362.652100,54.696545 
	C1362.653076,277.771423 1362.650024,500.846283 1362.660645,723.921143 
	C1362.661255,736.454834 1361.893066,735.268066 1373.937866,735.339417 
	C1381.267944,735.382812 1388.598633,735.322815 1395.928833,735.362976 
	C1398.083618,735.374756 1400.280640,735.225220 1402.691650,736.604553 
	C1404.761353,736.918030 1406.416748,736.955078 1408.482666,736.936646 
	C1411.034912,735.187622 1413.587769,735.372986 1416.073975,735.362854 
	C1426.236450,735.321472 1436.399292,735.391663 1446.561401,735.329102 
	C1452.859741,735.290283 1453.229614,734.863159 1453.336182,728.418762 
	C1453.371948,726.253357 1453.346558,724.087280 1453.346680,721.921509 
	C1453.346924,499.011963 1453.343872,276.102417 1453.375366,53.192860 
	C1453.375854,49.740494 1452.723145,46.173439 1454.771729,42.504387 
	C1456.758667,42.089382 1458.418213,42.049995 1460.488770,42.069786 
	C1462.491821,43.671280 1462.546509,45.695450 1462.614502,47.699883 
	C1462.693481,50.031040 1462.652100,52.364235 1462.652100,54.696548 
	C1462.653076,277.771301 1462.650024,500.846069 1462.660645,723.920837 
	C1462.661255,736.454285 1461.893066,735.268127 1473.937744,735.339417 
	C1481.267822,735.382812 1488.598511,735.322754 1495.928711,735.362976 
	C1498.083496,735.374817 1500.280518,735.225281 1502.691406,736.604980 
	C1504.761108,736.918396 1506.416626,736.955261 1508.482666,736.936646 
	C1511.034912,735.187622 1513.587769,735.372986 1516.073975,735.362854 
	C1526.236450,735.321594 1536.399292,735.391602 1546.561401,735.329102 
	C1552.859741,735.290405 1553.229614,734.863281 1553.336060,728.419006 
	C1553.371826,726.253601 1553.346558,724.087463 1553.346680,721.921692 
	C1553.346924,499.012115 1553.343872,276.102539 1553.375366,53.192970 
	C1553.375854,49.740700 1552.723145,46.173733 1554.771973,42.504848 
	C1556.758911,42.089931 1558.418091,42.050602 1560.488647,42.070114 
	C1562.491821,43.671276 1562.546631,45.695442 1562.614624,47.699875 
	C1562.693604,50.031033 1562.652100,52.364231 1562.652100,54.696545 
	C1562.653076,277.771423 1562.650024,500.846283 1562.660645,723.921143 
	C1562.661255,736.454834 1561.893066,735.268066 1573.937866,735.339417 
	C1581.267944,735.382812 1588.598633,735.322815 1595.928833,735.362976 
	C1598.083618,735.374756 1600.280640,735.225220 1602.691650,736.604553 
	C1604.761353,736.917969 1606.416748,736.955017 1608.482666,736.936646 
	C1611.034912,735.187622 1613.587769,735.372986 1616.073975,735.362915 
	C1626.236450,735.321533 1636.399292,735.391724 1646.561401,735.329102 
	C1652.859741,735.290344 1653.229614,734.863159 1653.336182,728.418762 
	C1653.371948,726.253357 1653.346436,724.087280 1653.346558,721.921509 
	C1653.346802,499.011963 1653.343872,276.102417 1653.375366,53.192860 
	C1653.375854,49.740494 1652.723145,46.173439 1654.771729,42.504391 
	C1656.758667,42.089386 1658.418213,42.049995 1660.488770,42.069786 
	C1662.491821,43.671284 1662.546631,45.695450 1662.614502,47.699886 
	C1662.693481,50.031044 1662.652100,52.364243 1662.652100,54.696556 
	C1662.653076,277.771454 1662.650024,500.846375 1662.660767,723.921265 
	C1662.661377,736.454529 1661.892578,735.268066 1673.937988,735.339478 
	C1681.268066,735.382874 1688.598755,735.322876 1695.928955,735.362976 
	C1698.083740,735.374756 1700.280762,735.225342 1702.691772,736.604614 
	C1704.761475,736.917969 1706.416748,736.955017 1708.482788,736.936646 
	C1711.196289,735.080261 1713.931152,735.370544 1716.573853,735.362732 
	C1729.901855,735.323364 1743.229858,735.385559 1756.557739,735.328186 
	C1762.870361,735.300964 1763.228149,734.876282 1763.336060,728.425781 
	C1763.369507,726.427002 1763.346191,724.427490 1763.346191,722.428284 
	C1763.346436,499.351288 1763.343262,276.274292 1763.374756,53.197281 
	C1763.375244,49.743896 1762.723267,46.175941 1764.770996,42.505119 
	C1766.758911,42.089737 1768.418213,42.050285 1770.488770,42.069817 
	C1772.491943,43.671139 1772.546509,45.695309 1772.614502,47.699745 
	C1772.693481,50.030903 1772.652100,52.364101 1772.652100,54.696415 
	C1772.653076,277.771332 1772.650024,500.846283 1772.660767,723.921204 
	C1772.661377,736.454712 1771.892700,735.268066 1783.937866,735.339417 
	C1791.267944,735.382812 1798.598633,735.322754 1805.928833,735.362976 
	C1808.083618,735.374817 1810.280762,735.225159 1812.691772,736.604553 
	C1814.761475,736.918030 1816.416748,736.955078 1818.482666,736.936523 
	C1820.256958,735.793152 1821.865723,735.446655 1823.549683,735.431335 
	C1835.141113,735.326172 1846.732788,735.301147 1858.323975,735.447327 
	C1859.655273,735.464050 1860.963867,735.701172 1862.497070,736.771729 
	C1862.914795,739.755127 1862.899414,742.414246 1863.021606,745.067017 
	C1863.092407,746.604431 1862.445679,747.165771 1860.577759,747.096008 
	C1857.823120,749.009216 1854.824707,747.894897 1851.866943,749.059814 
	C1839.826538,749.709473 1828.229980,749.269897 1816.171387,749.404602 
	C1814.780396,749.378723 1813.853027,749.398132 1812.486328,749.170898 
	C1808.539307,747.959473 1804.925171,748.694336 1800.915283,748.439453 
	C1788.888184,748.542358 1777.318481,748.470154 1765.290039,748.476990 
	C1763.929077,748.438477 1763.026855,748.408752 1761.683838,748.412964 
	C1758.931641,748.488647 1756.619141,748.381714 1753.869141,748.433167 
	C1753.136475,748.426636 1752.842041,748.423950 1752.102783,748.430542 
	C1750.751709,748.481384 1749.845825,748.453308 1748.472168,748.424561 
	C1726.154175,748.412537 1704.303955,748.413574 1681.969604,748.429443 
	C1680.838623,748.438477 1680.191772,748.440613 1679.058228,748.440491 
	C1660.355591,748.402161 1642.139771,748.399353 1623.432739,748.452332 
	C1591.179199,748.297852 1559.439209,749.816345 1527.668091,749.492615 
	C1489.561279,749.104248 1451.448486,749.584412 1412.854370,749.241943 
	C1411.389282,749.014832 1410.472168,748.513489 1409.466797,748.512634 
	C1392.699585,748.498535 1375.930298,748.050293 1358.724609,748.881836 
	C1351.395020,749.777832 1344.489136,749.292480 1337.174438,749.298950 
	C1335.721436,749.154724 1334.710205,748.839661 1333.287598,748.911133 
	C1331.950439,749.059082 1330.978394,749.079102 1329.644287,748.958252 
	C1328.316040,748.779480 1327.352051,748.767334 1326.015625,749.094604 
	C1321.817749,749.485901 1318.000610,749.455627 1313.771729,749.127502 
	C1310.922729,748.258850 1308.476929,748.114075 1305.591431,749.071533 
	C1298.792603,749.574036 1292.418823,749.458374 1285.589600,749.178894 
	C1277.249878,747.910950 1269.356201,748.106689 1260.997803,749.070679 
	C1244.711060,749.722534 1228.879517,749.253845 1212.566650,749.431580 
	C1199.173950,749.313049 1186.264404,749.586121 1172.882446,749.232910 
	C1163.436768,747.853333 1154.452881,748.127991 1144.997192,749.076416 
	C1143.044312,749.409790 1141.546631,749.408569 1140.051270,749.407715 
	C1093.175781,749.380676 1046.300049,749.516174 998.963196,749.309082 
	C996.233948,748.893616 994.011780,747.878296 991.218933,748.876587 
	C989.890869,749.115723 988.993225,749.104065 987.642700,748.917053 
	C970.651428,748.214478 954.112732,747.978760 937.108398,749.064087 
	C925.506775,749.713135 914.367126,749.373779 903.231018,749.400879 
	C876.296570,749.466370 849.361877,749.405273 821.944214,749.438599 
	C817.665466,749.707764 813.864258,749.506775 809.599365,749.563477 
	C796.470886,748.010132 783.753662,748.468384 771.049500,748.497681 
	C767.249634,748.506470 763.525696,749.074585 759.513916,750.542480 
	C756.539734,751.673096 753.744263,752.059875 751.298523,751.168152 
	C745.834656,749.175964 740.201233,749.745605 734.163269,749.280029 
	C729.173462,747.788513 724.524902,748.615723 719.936523,748.526794 
	C712.189209,748.376587 704.437256,748.525085 696.201050,748.464844 
	C543.782715,748.532349 391.850647,748.475037 239.918610,748.503479 
	C237.423492,748.503967 234.920715,748.332275 231.967682,748.843445 
	C228.960510,749.655396 226.360672,749.521301 223.294434,749.534241 
	C213.909271,749.323303 205.003143,749.419495 195.620575,749.479980 
	C189.727402,749.600037 184.309875,749.759033 178.427673,749.205383 
	C176.371719,748.495056 174.714813,748.489990 173.048828,748.490234 
	C153.454391,748.492981 133.859909,748.463013 114.265533,748.504211 
	C99.563522,748.535156 84.878807,749.485352 70.174309,749.395874 
	C68.044365,749.382935 65.831062,749.740051 63.514030,748.160889 
	C63.111073,744.549744 63.059601,741.269287 63.067505,737.543823 
	C65.463699,734.887695 68.416794,735.379517 71.196152,735.372192 
	C90.352615,735.321716 109.509239,735.349792 128.665817,735.345642 
	C138.333389,735.343567 138.344330,735.340454 138.344666,725.842896 
	C138.347946,632.725281 138.346481,539.607605 138.346558,446.489990 
	C138.346664,315.225800 138.341980,183.961594 138.372559,52.697399 
	C138.373337,49.407051 137.773804,46.006664 139.772202,42.504913 
	C141.759140,42.090107 143.418320,42.050522 145.488663,42.070015 
	C147.491821,43.671326 147.546661,45.695415 147.614471,47.699905 
	C147.693314,50.031067 147.652557,52.364258 147.652557,54.696571 
	C147.653503,277.771484 147.650574,500.846375 147.660751,723.921265 
	C147.661331,736.457703 146.896790,735.267639 158.938065,735.339355 
	C166.268127,735.382996 173.598740,735.322815 180.928894,735.362976 
	C183.083771,735.374817 185.280746,735.225220 187.691803,736.604614 
	C189.761459,736.918030 191.416733,736.955078 193.482574,736.936523 
	C196.034790,735.187500 198.587753,735.372925 201.073929,735.362854 
	C211.236359,735.321838 221.399170,735.391663 231.561417,735.329163 
	C237.859711,735.290405 238.228638,734.863220 238.336365,728.418884 
	C238.369781,726.420105 238.346298,724.420593 238.346298,722.421387 
	C238.346619,499.345215 238.343430,276.269043 238.375031,53.192879 
	C238.375519,49.740665 237.722809,46.173599 239.771988,42.504852 
	C241.758881,42.089985 243.418060,42.050659 245.488388,42.070450 
	C247.491959,43.671581 247.546555,45.695755 247.614410,47.700207 
	C247.693329,50.031368 247.652542,52.364559 247.652542,54.696873 
	C247.653488,277.771759 247.650574,500.846619 247.660751,723.921509 
	C247.661331,736.457581 246.896744,735.267700 258.938293,735.339355 
	C266.268402,735.382996 273.598969,735.322815 280.929138,735.362976 
	C283.083954,735.374756 285.280884,735.225159 287.691956,736.604370 
z"/>
<path fill="#868686" opacity="1.000000" stroke="none" 
	d="
M139.627350,42.079010 
	C140.065109,46.292927 139.999893,50.456161 139.999802,54.619400 
	C139.994873,279.667114 139.995468,504.714844 139.995392,729.762573 
	C139.995392,736.995544 139.994995,736.994812 133.008194,736.996826 
	C110.020370,737.003357 87.032555,737.010498 63.585808,737.058105 
	C62.209743,682.784790 62.776604,628.466492 62.757420,574.150879 
	C62.696030,400.323730 62.818394,226.496536 62.918846,52.669392 
	C62.920033,50.618568 62.299290,48.774342 61.968880,46.831402 
	C61.426365,43.641239 61.885170,41.837132 66.159576,41.881851 
	C90.489159,42.136406 114.822624,42.019161 139.627350,42.079010 
z"/>
<path fill="#838383" opacity="1.000000" stroke="none" 
	d="
M1811.884033,747.747559 
	C1812.927490,747.531189 1813.574585,747.492859 1814.524658,747.580322 
	C1816.333740,749.615784 1818.479248,748.970764 1820.380249,748.972229 
	C1832.976440,748.982117 1845.575073,749.198792 1859.062012,748.857178 
	C1871.289185,749.029358 1882.623779,749.137573 1893.952271,748.921265 
	C1897.280029,748.857849 1898.178711,749.877563 1898.071045,753.118835 
	C1897.833618,760.277161 1897.900513,767.450623 1898.043335,774.613892 
	C1898.095581,777.235840 1897.237305,778.258789 1894.609497,778.013733 
	C1892.792358,777.844299 1890.946411,777.985962 1889.113281,777.985962 
	C1282.489258,777.985107 675.865356,777.977905 69.241371,778.090698 
	C64.374802,778.091614 62.474037,777.236877 62.873249,771.937561 
	C63.397507,764.978088 62.992992,757.948608 63.014320,750.482300 
	C63.977539,749.194824 65.115860,748.978882 66.297386,749.037048 
	C79.391869,749.682007 92.489975,748.815369 105.575073,748.726379 
	C128.972992,748.567200 152.375809,748.848511 175.772659,748.437073 
	C176.284485,748.428101 176.740677,748.224609 177.675751,747.914795 
	C183.391373,747.693787 188.646103,747.637451 194.343246,747.694458 
	C199.842865,749.665955 205.123062,749.108643 210.289246,748.894714 
	C214.378098,748.725525 218.479736,748.651978 222.897064,748.090759 
	C225.498230,747.730835 227.770264,747.661194 230.460968,747.682922 
	C233.426590,748.925720 236.131790,748.487061 238.772598,748.487549 
	C390.722229,748.517212 542.671814,748.486389 695.107483,748.526428 
	C708.278992,748.450378 720.966064,748.627869 734.028931,748.025269 
	C742.359314,746.715515 750.175781,748.073181 758.202087,749.519287 
	C762.527527,748.421448 766.880066,748.759583 771.158508,748.527527 
	C783.594788,747.852966 796.038208,748.831848 808.833191,748.128174 
	C812.806335,747.766479 816.423401,747.705688 820.484619,747.746643 
	C822.585510,749.444824 824.683105,748.981995 826.634094,748.983459 
	C862.297302,749.010376 897.964905,749.338013 933.622009,748.871582 
	C953.767273,748.608032 973.912537,748.459106 994.046204,748.709656 
	C1041.702026,749.302673 1089.359131,749.163513 1137.009399,748.838257 
	C1161.663940,748.669983 1186.306885,749.499512 1211.451904,749.002075 
	C1230.259155,748.815369 1248.570923,748.877625 1266.882202,748.719543 
	C1289.830566,748.521423 1312.790405,748.903564 1335.745483,749.005188 
	C1346.233521,749.051636 1356.717651,748.561890 1367.196045,748.633850 
	C1437.464966,749.116394 1507.737183,749.349487 1578.002441,748.837891 
	C1611.629883,748.593079 1645.259155,749.108093 1679.350830,748.326050 
	C1680.427734,748.122009 1681.041504,748.062561 1682.102539,748.075562 
	C1686.135254,748.924988 1689.787109,748.556091 1693.824219,748.636475 
	C1694.769409,748.634216 1695.306274,748.640930 1696.237793,748.654419 
	C1697.153809,748.661133 1697.675049,748.669617 1698.582031,748.679077 
	C1699.480225,748.676880 1699.992310,748.680237 1700.886475,748.682861 
	C1702.538940,748.683899 1703.809326,748.722778 1705.463257,748.679993 
	C1706.361328,748.663879 1706.876099,748.663513 1707.780762,748.664673 
	C1709.222412,748.661194 1710.273926,748.692932 1711.730835,748.655090 
	C1712.963745,748.609863 1713.791626,748.602905 1715.049927,748.622864 
	C1716.660767,748.606201 1717.841431,748.617004 1719.487061,748.587952 
	C1746.395508,748.610046 1772.838379,748.447876 1799.740845,748.528931 
	C1803.958252,748.253174 1807.779785,749.134949 1811.884033,747.747559 
z"/>
<path fill="#838383" opacity="1.000000" stroke="none" 
	d="
M1884.937500,544.000000 
	C1884.937500,382.710968 1884.968628,221.921875 1884.799561,61.133011 
	C1884.794067,55.865234 1886.285645,54.258160 1891.147095,55.097260 
	C1891.794312,55.208988 1892.477295,55.112812 1893.143799,55.112900 
	C1904.146362,55.114311 1904.226807,55.118916 1904.858276,44.084660 
	C1904.994141,41.709427 1905.707642,40.950298 1908.061157,40.964146 
	C1922.056763,41.046490 1936.053467,41.052422 1950.049072,40.961731 
	C1952.523071,40.945702 1953.179565,41.892857 1953.111084,44.194607 
	C1952.977295,48.689346 1953.076660,53.190891 1953.066895,57.689590 
	C1953.065552,58.352524 1953.242432,59.423340 1952.920776,59.618225 
	C1945.750610,63.960388 1950.119141,70.928917 1949.083618,76.623924 
	C1948.585205,79.365433 1948.986938,82.273422 1949.008667,85.105820 
	C1949.027710,87.573616 1948.643799,90.027176 1951.949951,91.183022 
	C1954.133423,91.946373 1953.035400,94.394089 1953.037109,96.046196 
	C1953.090576,149.864609 1953.075684,203.683090 1953.071411,257.501556 
	C1953.071045,261.167206 1953.094360,264.833069 1953.063477,268.498474 
	C1953.042358,271.004303 1953.866211,273.741028 1950.240723,274.902039 
	C1948.711426,275.391693 1949.006104,277.435760 1949.007935,278.939392 
	C1949.015137,284.771088 1948.961670,290.603271 1949.023804,296.434265 
	C1949.052612,299.142517 1948.278809,302.090607 1952.226440,303.322296 
	C1953.989990,303.872559 1953.032227,306.302948 1953.034058,307.853485 
	C1953.081421,347.675812 1953.071289,387.498199 1953.071289,427.320557 
	C1953.071289,445.148987 1953.081543,462.977386 1953.057739,480.805786 
	C1953.055176,482.660126 1953.721436,484.733398 1950.801025,485.473389 
	C1948.886597,485.958466 1948.996948,488.028351 1948.998047,489.720398 
	C1949.003052,496.718445 1948.977661,503.716736 1949.032471,510.714355 
	C1949.041260,511.841187 1949.047119,513.676453 1949.654541,513.978943 
	C1954.924561,516.603394 1953.001709,521.352417 1953.008789,525.296204 
	C1953.108154,580.447449 1953.087646,635.598938 1953.084106,690.750366 
	C1953.083984,693.558594 1953.968872,696.612305 1950.053101,698.045105 
	C1948.663330,698.553528 1949.005127,700.688904 1949.005249,702.186218 
	C1949.006226,708.351196 1948.939941,714.517273 1949.044312,720.680542 
	C1949.088867,723.319946 1948.006104,726.580811 1952.241699,727.434509 
	C1953.303467,727.648560 1953.058960,729.107117 1953.062134,730.078308 
	C1953.077515,734.743713 1952.941162,739.413879 1953.118042,744.072571 
	C1953.217407,746.688843 1951.974243,747.036682 1949.808105,747.026550 
	C1936.645386,746.964905 1923.481567,746.930603 1910.319702,747.051453 
	C1907.652832,747.075989 1907.016479,746.178040 1906.936035,743.620605 
	C1906.599487,732.901245 1906.508789,732.904114 1895.692993,732.893188 
	C1884.937378,732.882324 1884.937500,732.882324 1884.937500,721.948486 
	C1884.937500,662.799011 1884.937500,603.649475 1884.937500,544.000000 
z"/>
<path fill="#838383" opacity="1.000000" stroke="none" 
	d="
M992.000000,10.033300 
	C1292.475586,10.026745 1592.451050,10.030951 1892.426636,9.912300 
	C1896.981079,9.910499 1898.547119,10.998878 1898.093018,15.627794 
	C1897.655762,20.084614 1897.919312,24.619680 1898.029175,29.116608 
	C1898.081177,31.246214 1897.378540,32.221806 1895.172607,32.012222 
	C1894.016479,31.902391 1892.841309,31.996218 1891.674683,31.996220 
	C1284.224121,31.997566 676.773621,31.991268 69.323151,32.122787 
	C64.069107,32.123924 62.284042,30.777935 62.942917,25.611071 
	C63.587135,20.559088 60.781334,13.724449 64.090363,10.839240 
	C66.966316,8.331637 73.601105,10.046208 78.574791,10.045978 
	C382.883179,10.031834 687.191589,10.033287 992.000000,10.033300 
z"/>
<path fill="#868686" opacity="1.000000" stroke="none" 
	d="
M1764.626953,42.078743 
	C1765.065430,45.627029 1765.001587,49.124866 1765.001465,52.622704 
	C1764.996704,278.562012 1765.001343,504.501312 1764.979736,730.440613 
	C1764.979004,738.017212 1766.027710,736.952942 1758.327148,736.978210 
	C1742.165039,737.031189 1726.002686,736.980408 1709.366943,736.926697 
	C1708.930420,734.716553 1708.999634,732.551880 1708.999756,730.387268 
	C1709.004395,503.103546 1709.003662,275.819824 1709.003418,48.536110 
	C1709.003418,42.004948 1709.003540,42.001587 1715.665161,42.004147 
	C1731.828247,42.010365 1747.991211,42.020020 1764.626953,42.078743 
z"/>
<path fill="#868686" opacity="1.000000" stroke="none" 
	d="
M549.627319,42.078510 
	C550.065918,45.294128 550.002258,48.458744 550.002197,51.623356 
	C549.997559,277.896454 550.001831,504.169586 549.980530,730.442688 
	C549.979797,738.023132 551.024902,736.952942 543.327148,736.978149 
	C527.165100,737.031067 511.002716,736.980286 494.366882,736.926636 
	C493.930450,735.049805 494.000061,733.218384 494.000092,731.387024 
	C494.004059,503.769043 494.003021,276.151093 494.001953,48.533112 
	C494.001923,42.004646 494.000702,42.001488 500.665588,42.004009 
	C516.828674,42.010120 532.991699,42.019463 549.627319,42.078510 
z"/>
<path fill="#868686" opacity="1.000000" stroke="none" 
	d="
M1154.627075,42.078381 
	C1155.065430,45.960354 1155.001465,49.791435 1155.001465,53.622520 
	C1154.996704,279.228516 1155.001221,504.834534 1154.979614,730.440552 
	C1154.978882,738.022217 1156.026489,736.948792 1148.328491,736.978271 
	C1133.832642,737.033875 1119.336548,736.980347 1104.366943,736.926697 
	C1103.930298,734.716492 1103.999512,732.551880 1103.999634,730.387207 
	C1104.004395,503.102448 1104.003906,275.817657 1104.003662,48.532906 
	C1104.003662,42.004425 1104.004028,42.001293 1110.664062,42.004032 
	C1125.160889,42.009987 1139.657715,42.019459 1154.627075,42.078381 
z"/>
<path fill="#838383" opacity="1.000000" stroke="none" 
	d="
M7.933052,357.000000 
	C7.933051,253.339752 7.980344,150.179428 7.795822,47.019524 
	C7.786433,41.770344 9.285177,40.753124 14.140634,40.885902 
	C26.797039,41.232018 39.470085,41.081917 52.134418,40.941948 
	C55.076954,40.909424 56.403900,41.539688 56.136997,44.782776 
	C55.850891,48.259193 56.066433,51.777065 56.066429,55.276844 
	C56.066139,283.762604 56.044464,512.248352 56.198593,740.734070 
	C56.202229,746.125977 54.640877,747.268250 49.610058,747.115723 
	C37.621822,746.752258 25.610401,746.805786 13.618312,747.098816 
	C9.208751,747.206604 7.800913,746.203857 7.815143,741.475342 
	C7.994691,681.812927 7.933095,622.149841 7.933091,562.486877 
	C7.933085,494.157928 7.933081,425.828949 7.933052,357.000000 
z"/>
<path fill="#868686" opacity="1.000000" stroke="none" 
	d="
M1862.925293,736.694214 
	C1848.528564,737.056213 1834.184448,737.013855 1819.366943,736.926147 
	C1818.930054,734.716064 1818.998901,732.551270 1818.998901,730.386475 
	C1819.003052,502.920654 1819.024414,275.454803 1818.862671,47.989105 
	C1818.858887,42.700420 1820.404907,41.744236 1825.212646,41.890354 
	C1836.700317,42.239506 1848.208740,42.150661 1859.702271,41.916962 
	C1863.291382,41.843979 1864.131714,42.973480 1864.125610,46.401047 
	C1864.119507,49.779240 1862.200806,53.968689 1866.869507,56.294838 
	C1867.368530,56.543488 1867.055908,58.497501 1867.055908,59.660423 
	C1867.062500,282.626923 1867.063477,505.593384 1867.060059,728.559875 
	C1867.060059,730.639709 1867.651611,732.943115 1864.340576,733.362610 
	C1863.188599,733.508484 1862.905396,735.049377 1862.925293,736.694214 
z"/>
<path fill="#868686" opacity="1.000000" stroke="none" 
	d="
M239.627106,42.078739 
	C240.065384,45.960384 240.001114,49.791466 240.001038,53.622543 
	C239.996246,279.228333 240.000702,504.834106 239.979584,730.439880 
	C239.978867,738.031677 241.017349,736.943054 233.329575,736.978027 
	C220.500092,737.036255 207.670105,736.979431 194.366730,736.925964 
	C193.929932,734.716187 193.998901,732.551575 193.998947,730.386902 
	C194.003540,503.103546 194.002960,275.820190 194.002808,48.536835 
	C194.002808,42.005394 194.003433,42.001453 200.663208,42.004242 
	C213.493637,42.009617 226.324081,42.019917 239.627106,42.078739 
z"/>
<path fill="#868686" opacity="1.000000" stroke="none" 
	d="
M1254.626709,42.077805 
	C1255.065552,44.126980 1255.002563,46.125179 1255.002563,48.123383 
	C1254.997681,275.562042 1255.001465,503.000671 1254.979614,730.439331 
	C1254.978882,738.023560 1256.024902,736.943604 1248.329712,736.978577 
	C1235.500244,737.036804 1222.670288,736.980347 1209.366821,736.926697 
	C1208.930176,734.716553 1208.999390,732.551941 1208.999390,730.387268 
	C1209.004028,502.936188 1209.024414,275.485107 1208.870972,48.034107 
	C1208.867554,42.848873 1210.257446,41.744041 1215.166138,41.882175 
	C1228.153198,42.247631 1241.157104,42.019020 1254.626709,42.077805 
z"/>
<path fill="#868686" opacity="1.000000" stroke="none" 
	d="
M1049.626709,42.078133 
	C1050.065308,46.126614 1050.001709,50.124283 1050.001587,54.121952 
	C1049.996704,279.560944 1050.001099,504.999908 1049.979614,730.438904 
	C1049.978882,738.023438 1051.024780,736.943665 1043.330200,736.978699 
	C1030.500732,737.036926 1017.670715,736.980591 1004.367432,736.927002 
	C1003.930786,734.883423 1003.999939,732.885437 1004.000000,730.887390 
	C1004.004333,503.437561 1004.003601,275.987732 1004.002991,48.537888 
	C1004.002991,42.005360 1004.002319,42.001652 1010.662842,42.004353 
	C1023.493286,42.009552 1036.323730,42.019398 1049.626709,42.078133 
z"/>
<path fill="#868686" opacity="1.000000" stroke="none" 
	d="
M949.627319,42.078510 
	C950.065918,45.294117 950.002319,48.458714 950.002258,51.623314 
	C949.997559,277.895416 950.001892,504.167542 949.980591,730.439636 
	C949.979858,738.023682 951.023987,736.943604 943.330200,736.978638 
	C930.500732,737.036926 917.670715,736.980774 904.367432,736.927124 
	C903.930786,734.716797 903.999939,732.552124 903.999939,730.387451 
	C904.004700,503.102814 904.004333,275.818176 904.004211,48.533535 
	C904.004150,42.004429 904.004272,42.001156 910.663330,42.004086 
	C923.493835,42.009727 936.324280,42.019466 949.627319,42.078510 
z"/>
<path fill="#868686" opacity="1.000000" stroke="none" 
	d="
M1354.627075,42.078381 
	C1355.065430,45.960346 1355.001465,49.791420 1355.001465,53.622498 
	C1354.996704,279.228119 1355.001221,504.833710 1354.979736,730.439331 
	C1354.979004,738.023560 1356.024902,736.943604 1348.329712,736.978577 
	C1335.500244,737.036804 1322.670288,736.980347 1309.366943,736.926697 
	C1308.930176,734.716614 1308.999390,732.551941 1308.999512,730.387329 
	C1309.004150,503.104218 1309.003540,275.821106 1309.003296,48.538017 
	C1309.003296,42.004898 1309.003418,42.001354 1315.663086,42.004173 
	C1328.493530,42.009602 1341.324097,42.019466 1354.627075,42.078381 
z"/>
<path fill="#868686" opacity="1.000000" stroke="none" 
	d="
M849.626831,42.078110 
	C850.065125,46.126568 850.000977,50.124233 850.000854,54.121902 
	C849.996155,279.561035 850.000732,505.000153 849.979370,730.439270 
	C849.978638,738.020569 851.027344,736.943909 843.329895,736.978699 
	C830.500427,737.036621 817.670349,736.980347 804.367065,736.926636 
	C803.930481,734.883118 803.999939,732.885071 804.000000,730.887085 
	C804.004333,503.437317 804.003601,275.987549 804.002991,48.537762 
	C804.002991,42.005356 804.002319,42.001648 810.662964,42.004349 
	C823.493408,42.009556 836.323853,42.019402 849.626831,42.078110 
z"/>
<path fill="#868686" opacity="1.000000" stroke="none" 
	d="
M749.627319,42.078510 
	C750.065857,45.294117 750.002258,48.458717 750.002197,51.623318 
	C749.997559,277.895538 750.001892,504.167786 749.980591,730.440002 
	C749.979858,738.023499 751.024231,736.943726 743.329834,736.978577 
	C730.500366,737.036621 717.670349,736.980286 704.367004,736.926636 
	C703.930481,734.716431 703.999817,732.551819 703.999878,730.387146 
	C704.004700,503.102631 704.004333,275.818085 704.004211,48.533577 
	C704.004150,42.004429 704.004272,42.001156 710.663269,42.004086 
	C723.493774,42.009727 736.324280,42.019466 749.627319,42.078510 
z"/>
<path fill="#868686" opacity="1.000000" stroke="none" 
	d="
M1454.626709,42.077805 
	C1455.065552,44.126980 1455.002563,46.125179 1455.002563,48.123383 
	C1454.997681,275.562042 1455.001465,503.000671 1454.979614,730.439331 
	C1454.978882,738.023560 1456.024902,736.943604 1448.329712,736.978577 
	C1435.500244,737.036804 1422.670288,736.980347 1409.366943,736.926697 
	C1408.930298,734.716553 1408.999512,732.551941 1408.999512,730.387268 
	C1409.003906,502.936157 1409.024170,275.485077 1408.870728,48.034065 
	C1408.867188,42.848278 1410.257935,41.744133 1415.166260,41.882210 
	C1428.153442,42.247551 1441.157104,42.019016 1454.626709,42.077805 
z"/>
<path fill="#868686" opacity="1.000000" stroke="none" 
	d="
M649.626831,42.078110 
	C650.065125,46.126568 650.001038,50.124233 650.000916,54.121902 
	C649.996094,279.561035 650.000732,505.000153 649.979370,730.439270 
	C649.978638,738.020569 651.027344,736.943909 643.329895,736.978638 
	C630.500427,737.036621 617.670349,736.980286 604.367065,736.926636 
	C603.930542,734.883179 603.999878,732.885132 603.999878,730.887146 
	C604.004272,503.437378 604.003540,275.987579 604.002930,48.537815 
	C604.002930,42.005363 604.002319,42.001656 610.662903,42.004353 
	C623.493347,42.009556 636.323853,42.019398 649.626831,42.078110 
z"/>
<path fill="#868686" opacity="1.000000" stroke="none" 
	d="
M1554.627075,42.078381 
	C1555.065430,45.960346 1555.001465,49.791420 1555.001465,53.622498 
	C1554.996704,279.228119 1555.001221,504.833710 1554.979736,730.439331 
	C1554.979004,738.023560 1556.024902,736.943604 1548.329712,736.978638 
	C1535.500244,737.036865 1522.670288,736.980408 1509.366821,736.926758 
	C1508.930176,734.716614 1508.999390,732.551941 1508.999512,730.387329 
	C1509.004272,503.104218 1509.003540,275.821106 1509.003296,48.538017 
	C1509.003296,42.004906 1509.003418,42.001362 1515.663086,42.004177 
	C1528.493530,42.009602 1541.324097,42.019466 1554.627075,42.078381 
z"/>
<path fill="#868686" opacity="1.000000" stroke="none" 
	d="
M439.627045,42.078743 
	C440.065338,45.960400 440.001129,49.791477 440.001038,53.622555 
	C439.996277,279.228271 440.000702,504.833984 439.979584,730.439697 
	C439.978882,738.031494 441.017059,736.943115 433.329651,736.978027 
	C420.500153,737.036255 407.670166,736.979431 394.366791,736.925964 
	C393.929993,734.716187 393.998962,732.551575 393.999023,730.386902 
	C394.003601,503.103546 394.002960,275.820221 394.002777,48.536873 
	C394.002777,42.005394 394.003357,42.001457 400.663177,42.004246 
	C413.493622,42.009613 426.324036,42.019913 439.627045,42.078743 
z"/>
<path fill="#868686" opacity="1.000000" stroke="none" 
	d="
M339.627350,42.079056 
	C340.065155,46.294018 339.999939,50.458317 339.999847,54.622616 
	C339.994934,279.894257 339.999512,505.165863 339.978149,730.437500 
	C339.977417,738.014954 341.028931,736.943909 333.329620,736.978638 
	C320.500214,737.036560 307.670258,736.980347 294.367004,736.926636 
	C293.930542,735.049805 294.000153,733.218384 294.000183,731.387024 
	C294.004150,503.769745 294.003052,276.152435 294.001953,48.535164 
	C294.001923,42.004711 294.000732,42.001213 300.663574,42.004196 
	C313.493958,42.009945 326.324371,42.020073 339.627350,42.079056 
z"/>
<path fill="#868686" opacity="1.000000" stroke="none" 
	d="
M1654.626709,42.077805 
	C1655.065552,44.126976 1655.002441,46.125179 1655.002441,48.123383 
	C1654.997803,275.562042 1655.001587,503.000671 1654.979736,730.439331 
	C1654.979004,738.023560 1656.024902,736.943604 1648.329712,736.978577 
	C1635.500244,737.036804 1622.670288,736.980347 1609.366943,736.926697 
	C1608.930176,734.716553 1608.999512,732.551941 1608.999512,730.387268 
	C1609.004150,502.936188 1609.024292,275.485107 1608.870850,48.034107 
	C1608.867432,42.848873 1610.257446,41.744045 1615.166138,41.882179 
	C1628.153198,42.247631 1641.157104,42.019016 1654.626709,42.077805 
z"/>
<path fill="#868686" opacity="1.000000" stroke="none" 
	d="
M1503.060547,736.422241 
	C1490.276978,736.919373 1477.447144,736.884888 1464.620117,737.051758 
	C1461.787354,737.088623 1460.652222,736.228333 1460.974731,733.381897 
	C1461.142578,731.901306 1461.003052,730.385986 1461.002930,728.886353 
	C1460.995483,500.273102 1460.988037,271.659851 1460.940308,42.587776 
	C1473.729126,42.087479 1486.559204,42.119759 1499.386719,41.946960 
	C1502.208374,41.908955 1503.377686,42.728062 1503.024902,45.590832 
	C1502.863037,46.903992 1502.996704,48.253609 1502.996826,49.586700 
	C1503.002930,278.378845 1503.009155,507.170990 1503.060547,736.422241 
z"/>
<path fill="#868686" opacity="1.000000" stroke="none" 
	d="
M1403.060791,736.421753 
	C1390.277222,736.919189 1377.447510,736.884827 1364.620361,737.052063 
	C1361.788086,737.088989 1360.651611,736.230774 1360.974609,733.383545 
	C1361.142578,731.903015 1361.002930,730.387573 1361.002930,728.887939 
	C1360.995605,500.274139 1360.988525,271.660339 1360.940674,42.587746 
	C1373.729004,42.087330 1386.559204,42.119263 1399.386597,41.946690 
	C1402.207397,41.908737 1403.390503,42.727978 1403.021118,45.590294 
	C1402.873047,46.737663 1402.996338,47.920055 1402.996338,49.086514 
	C1403.002808,278.045227 1403.009155,507.003937 1403.060791,736.421753 
z"/>
<path fill="#868686" opacity="1.000000" stroke="none" 
	d="
M1603.060791,736.421753 
	C1590.277222,736.919128 1577.447510,736.884827 1564.620361,737.052124 
	C1561.788086,737.089050 1560.651611,736.230774 1560.974609,733.383545 
	C1561.142578,731.903015 1561.002930,730.387573 1561.002930,728.887939 
	C1560.995605,500.274139 1560.988525,271.660339 1560.940674,42.587746 
	C1573.729004,42.087410 1586.559082,42.119480 1599.386475,41.946888 
	C1602.207520,41.908936 1603.377686,42.727657 1603.024414,45.590919 
	C1602.862305,46.904030 1602.996460,48.253704 1602.996460,49.586796 
	C1603.002808,278.378754 1603.009155,507.170685 1603.060791,736.421753 
z"/>
<path fill="#868686" opacity="1.000000" stroke="none" 
	d="
M1303.060791,736.421875 
	C1290.277222,736.919128 1277.447510,736.884766 1264.620361,737.051697 
	C1261.788086,737.088501 1260.651978,736.229065 1260.974609,733.382263 
	C1261.142456,731.901672 1261.002808,730.386292 1261.002686,728.886658 
	C1260.995361,500.273315 1260.988037,271.659943 1260.940308,42.587776 
	C1273.729126,42.087479 1286.559204,42.119759 1299.386719,41.946964 
	C1302.208374,41.908955 1303.377808,42.728058 1303.025024,45.590828 
	C1302.863037,46.903973 1302.996826,48.253586 1302.996826,49.586678 
	C1303.003052,278.378693 1303.009155,507.170685 1303.060791,736.421875 
z"/>
<path fill="#868686" opacity="1.000000" stroke="none" 
	d="
M1703.060791,736.421875 
	C1690.277222,736.919128 1677.447510,736.884766 1664.620361,737.051697 
	C1661.788086,737.088501 1660.651978,736.229065 1660.974731,733.382263 
	C1661.142578,731.901733 1661.002808,730.386292 1661.002808,728.886658 
	C1660.995361,500.273315 1660.988037,271.659943 1660.940308,42.587776 
	C1673.729126,42.087479 1686.559204,42.119762 1699.386719,41.946968 
	C1702.208374,41.908962 1703.377686,42.728043 1703.024902,45.590813 
	C1702.863037,46.903973 1702.996826,48.253586 1702.996826,49.586678 
	C1703.003052,278.378693 1703.009155,507.170685 1703.060791,736.421875 
z"/>
<path fill="#868686" opacity="1.000000" stroke="none" 
	d="
M1813.060791,736.421753 
	C1800.277222,736.919189 1787.447510,736.884827 1774.620361,737.052124 
	C1771.788086,737.088989 1770.651733,736.230774 1770.974731,733.383545 
	C1771.142700,731.903015 1771.002930,730.387573 1771.002930,728.887939 
	C1770.995605,500.274109 1770.988403,271.660248 1770.940674,42.587608 
	C1783.729126,42.087395 1796.559204,42.119576 1809.386597,41.947186 
	C1812.209229,41.909252 1813.376099,42.732128 1813.023560,45.593418 
	C1812.861694,46.906555 1812.996216,48.256180 1812.996338,49.589268 
	C1813.002808,278.380402 1813.009155,507.171509 1813.060791,736.421753 
z"/>
<path fill="#868686" opacity="1.000000" stroke="none" 
	d="
M1203.060791,736.421753 
	C1190.277222,736.919128 1177.447510,736.884766 1164.620361,737.052124 
	C1161.788086,737.089050 1160.651611,736.230774 1160.974731,733.383545 
	C1161.142700,731.903015 1161.002930,730.387573 1161.002930,728.887939 
	C1160.995605,500.274139 1160.988525,271.660339 1160.940674,42.587746 
	C1173.729004,42.087410 1186.559082,42.119484 1199.386475,41.946896 
	C1202.207520,41.908936 1203.377686,42.727657 1203.024414,45.590919 
	C1202.862305,46.904030 1202.996460,48.253704 1202.996460,49.586796 
	C1203.002808,278.378754 1203.009155,507.170685 1203.060791,736.421753 
z"/>
<path fill="#868686" opacity="1.000000" stroke="none" 
	d="
M1098.060791,736.421753 
	C1085.277222,736.919189 1072.447388,736.884827 1059.620239,737.052063 
	C1056.787964,737.088989 1055.651611,736.230591 1055.974609,733.383484 
	C1056.142578,731.902954 1056.002808,730.387512 1056.002808,728.887878 
	C1055.995605,500.274017 1055.988770,271.660156 1055.940918,42.587479 
	C1068.729248,42.087143 1081.559326,42.119305 1094.386841,41.946590 
	C1097.207520,41.908611 1098.378662,42.724781 1098.023560,45.589443 
	C1097.860718,46.902363 1097.995972,48.252205 1097.996094,49.585300 
	C1098.002563,278.377747 1098.009033,507.170197 1098.060791,736.421753 
z"/>
<path fill="#868686" opacity="1.000000" stroke="none" 
	d="
M998.060791,736.421875 
	C985.277222,736.919250 972.447510,736.884949 959.620300,737.052063 
	C956.789001,737.088928 955.650696,736.232361 955.973755,733.384216 
	C956.141663,731.903687 956.002197,730.388245 956.002136,728.888611 
	C955.994629,500.274719 955.987183,271.660828 955.939697,42.588123 
	C968.728699,42.087814 981.558777,42.119934 994.386108,41.947392 
	C997.208069,41.909439 998.376221,42.730743 998.024048,45.592548 
	C997.862427,46.905750 997.996338,48.255348 997.996399,49.588436 
	C998.002686,278.379883 998.009094,507.171326 998.060791,736.421875 
z"/>
<path fill="#868686" opacity="1.000000" stroke="none" 
	d="
M898.060791,736.421753 
	C885.277161,736.919128 872.447388,736.884705 859.620239,737.052002 
	C856.788025,737.088928 855.651672,736.230713 855.974731,733.383484 
	C856.142761,731.902954 856.003357,730.387512 856.003296,728.887878 
	C855.996094,500.274017 855.988892,271.660156 855.940918,42.587521 
	C868.729309,42.087177 881.559448,42.119343 894.386841,41.946587 
	C897.207703,41.908600 898.378601,42.724861 898.023560,45.589455 
	C897.860840,46.902390 897.995728,48.252220 897.995728,49.585316 
	C898.002319,278.377747 898.008911,507.170197 898.060791,736.421753 
z"/>
<path fill="#868686" opacity="1.000000" stroke="none" 
	d="
M798.060791,736.421753 
	C785.277161,736.919128 772.447449,736.884827 759.620239,737.052063 
	C756.788879,737.088867 755.650635,736.232178 755.973694,733.384155 
	C756.141602,731.903625 756.002197,730.388184 756.002136,728.888550 
	C755.994629,500.274689 755.987183,271.660797 755.939697,42.588123 
	C768.728699,42.087814 781.558777,42.119938 794.386108,41.947395 
	C797.208069,41.909439 798.376282,42.730736 798.024109,45.592548 
	C797.862488,46.905754 797.996338,48.255341 797.996399,49.588428 
	C798.002686,278.379822 798.009094,507.171234 798.060791,736.421753 
z"/>
<path fill="#868686" opacity="1.000000" stroke="none" 
	d="
M698.060791,736.421753 
	C685.277161,736.919128 672.447388,736.884827 659.620239,737.052063 
	C656.788025,737.088989 655.651672,736.230713 655.974731,733.383484 
	C656.142761,731.902954 656.003357,730.387512 656.003296,728.887878 
	C655.996094,500.274017 655.988892,271.660156 655.940918,42.587521 
	C668.729309,42.087177 681.559448,42.119343 694.386841,41.946590 
	C697.207703,41.908600 698.378723,42.724876 698.023682,45.589466 
	C697.860962,46.902405 697.995667,48.252220 697.995667,49.585316 
	C698.002258,278.377747 698.008911,507.170197 698.060791,736.421753 
z"/>
<path fill="#868686" opacity="1.000000" stroke="none" 
	d="
M598.060669,736.422180 
	C585.276978,736.919434 572.447266,736.884949 559.620056,737.052002 
	C556.788452,737.088867 555.650757,736.231750 555.973572,733.384033 
	C556.141418,731.903442 556.002197,730.388062 556.002136,728.888428 
	C555.994629,500.274597 555.987183,271.660767 555.939697,42.588120 
	C568.728699,42.087811 581.558777,42.119930 594.386108,41.947388 
	C597.208069,41.909431 598.376343,42.730778 598.024170,45.592575 
	C597.862549,46.905781 597.996338,48.255363 597.996399,49.588451 
	C598.002686,278.379974 598.009094,507.171478 598.060669,736.422180 
z"/>
<path fill="#868686" opacity="1.000000" stroke="none" 
	d="
M488.061401,736.421509 
	C475.277527,736.918945 462.447784,736.884705 449.620636,737.051819 
	C446.787781,737.088684 445.640747,736.227234 445.978699,733.382080 
	C446.134857,732.067688 446.004486,730.719177 446.004425,729.386169 
	C445.996307,500.606476 445.988190,271.826813 445.939819,42.588341 
	C458.728638,42.088047 471.558716,42.120178 484.386108,41.947594 
	C487.207520,41.909634 488.364380,42.727943 488.027100,45.592113 
	C487.852936,47.071312 487.996857,48.587959 487.996918,50.087685 
	C488.003418,278.712585 488.009949,507.337494 488.061401,736.421509 
z"/>
<path fill="#868686" opacity="1.000000" stroke="none" 
	d="
M388.060791,736.421814 
	C375.277283,736.919006 362.447479,736.884338 349.620331,737.051697 
	C346.788025,737.088623 345.639343,736.230225 345.977631,733.383911 
	C346.133881,732.069519 346.003418,730.721008 346.003387,729.388000 
	C345.995728,500.607574 345.988068,271.827118 345.940125,42.587883 
	C358.728943,42.087532 371.559052,42.119576 384.386475,41.947052 
	C387.207336,41.909111 388.377838,42.727261 388.024078,45.590942 
	C387.861847,46.903980 387.996643,48.253716 387.996674,49.586807 
	C388.002960,278.378784 388.009216,507.170746 388.060791,736.421814 
z"/>
<path fill="#868686" opacity="1.000000" stroke="none" 
	d="
M288.061401,736.421509 
	C275.277527,736.918945 262.447784,736.884766 249.620636,737.051819 
	C246.787888,737.088745 245.640625,736.227295 245.978699,733.382080 
	C246.134888,732.067688 246.004501,730.719238 246.004456,729.386230 
	C245.996307,500.606537 245.988205,271.826843 245.939819,42.588348 
	C258.728638,42.088055 271.558746,42.120182 284.386139,41.947594 
	C287.207550,41.909634 288.364410,42.728001 288.027161,45.592133 
	C287.852966,47.071327 287.996857,48.587971 287.996918,50.087696 
	C288.003418,278.712585 288.009949,507.337494 288.061401,736.421509 
z"/>
<path fill="#868686" opacity="1.000000" stroke="none" 
	d="
M188.060822,736.421875 
	C175.277328,736.919067 162.447556,736.884460 149.620392,737.051758 
	C146.788177,737.088684 145.639374,736.230408 145.977631,733.384033 
	C146.133850,732.069641 146.003403,730.721130 146.003357,729.388123 
	C145.995712,500.607635 145.988068,271.827179 145.940125,42.587898 
	C158.728958,42.087543 171.559113,42.119583 184.386490,41.947048 
	C187.207458,41.909100 188.377838,42.727413 188.024017,45.591011 
	C187.861786,46.904049 187.996613,48.253784 187.996643,49.586876 
	C188.002945,278.378815 188.009201,507.170776 188.060822,736.421875 
z"/>
<path fill="#838383" opacity="1.000000" stroke="none" 
	d="
M1878.997314,341.000000 
	C1878.997437,469.979645 1878.997681,598.459290 1878.997559,726.938904 
	C1878.997559,728.272034 1879.024292,729.606079 1878.982910,730.937988 
	C1878.924194,732.829895 1877.579590,732.858765 1876.165039,732.893005 
	C1874.771729,732.926697 1873.909790,732.491211 1873.919434,730.960571 
	C1873.926880,729.794128 1873.929077,728.627625 1873.929077,727.461182 
	C1873.929443,504.996460 1873.929565,282.531738 1873.927979,60.067009 
	C1873.927979,59.067329 1873.900391,58.067669 1873.896973,57.067963 
	C1873.891724,55.557381 1874.738403,55.069107 1876.139282,55.110432 
	C1877.533081,55.151535 1878.913452,55.139435 1878.977661,57.045803 
	C1879.022461,58.377525 1878.996826,59.711742 1878.996948,61.044842 
	C1878.997559,154.196564 1878.997314,247.348282 1878.997314,341.000000 
z"/>
<path fill="#828282" opacity="1.000000" stroke="none" 
	d="
M1906.124512,12.172316 
	C1905.735474,8.760922 1906.795654,7.564880 1909.961426,7.597519 
	C1923.619141,7.738321 1937.279785,7.727581 1950.937744,7.596149 
	C1953.977295,7.566900 1955.025513,8.522919 1954.931519,11.587774 
	C1954.737793,17.911695 1954.773560,24.247959 1954.918701,30.574463 
	C1954.981323,33.302238 1954.205566,34.425541 1951.278442,34.399883 
	C1937.453857,34.278721 1923.626953,34.281693 1909.802124,34.387074 
	C1906.973511,34.408634 1905.997070,33.473251 1906.075684,30.641489 
	C1906.242065,24.649439 1906.125122,18.649523 1906.124512,12.172316 
z"/>
<path fill="#828282" opacity="1.000000" stroke="none" 
	d="
M1933.000000,780.348633 
	C1925.005493,780.348083 1917.508179,780.226929 1910.017822,780.404358 
	C1906.924194,780.477661 1905.979370,779.378174 1906.067993,776.365845 
	C1906.254150,770.042542 1906.232422,763.707458 1906.077148,757.382568 
	C1906.008667,754.593872 1906.900269,753.581177 1909.769897,753.604492 
	C1923.592285,753.716980 1937.416382,753.716125 1951.238770,753.603271 
	C1954.109741,753.579834 1954.995239,754.595032 1954.925171,757.384399 
	C1954.766235,763.709167 1954.744263,770.044434 1954.931274,776.367615 
	C1955.020508,779.380066 1954.083740,780.508850 1950.985229,780.404236 
	C1945.162842,780.207581 1939.329102,780.348083 1933.000000,780.348633 
z"/>
<path fill="#838383" opacity="1.000000" stroke="none" 
	d="
M53.794098,7.830400 
	C55.878040,15.986075 54.601795,24.112249 54.962536,32.191383 
	C55.063808,34.459469 53.367939,34.328423 51.860134,34.329357 
	C38.387707,34.337719 24.914480,34.258633 11.443445,34.396496 
	C8.381543,34.427834 7.911725,33.079659 7.963884,30.496752 
	C8.091466,24.178919 8.154004,17.851780 7.941806,11.538502 
	C7.838005,8.450237 8.892878,7.568666 11.908504,7.601676 
	C25.711731,7.752771 39.517212,7.697901 53.794098,7.830400 
z"/>
<path fill="#838383" opacity="1.000000" stroke="none" 
	d="
M54.995544,762.047363 
	C54.995312,767.196594 54.816692,771.863098 55.057251,776.507935 
	C55.220482,779.659607 54.006161,780.425232 51.049103,780.396179 
	C37.910175,780.266968 24.768639,780.274170 11.629532,780.394409 
	C8.800974,780.420227 7.876521,779.503113 7.952024,776.690063 
	C8.121549,770.373962 8.180663,764.043274 7.931400,757.732483 
	C7.798224,754.360840 9.020002,753.546936 12.205785,753.592407 
	C23.846630,753.758423 35.491283,753.658142 47.134502,753.656677 
	C54.998646,753.655640 54.998646,753.654541 54.995544,762.047363 
z"/>
<path fill="#646464" opacity="1.000000" stroke="none" 
	d="
M177.729721,747.682129 
	C177.658417,751.231628 174.896057,749.974487 173.043900,749.978882 
	C141.500671,750.054138 109.957222,750.032715 78.413826,750.034851 
	C73.599335,750.035156 68.784836,750.045715 63.505547,750.033386 
	C63.010372,749.526489 62.980003,749.037781 63.056087,748.189575 
	C94.565788,747.775757 125.969040,747.722290 157.372284,747.666016 
	C164.022461,747.654114 170.672623,747.631714 177.729721,747.682129 
z"/>
<path fill="#868686" opacity="1.000000" stroke="none" 
	d="
M1852.009521,748.449341 
	C1854.356201,746.859497 1856.880859,747.711426 1859.730957,747.280151 
	C1860.099731,747.592529 1860.043701,748.005432 1859.972290,748.731689 
	C1859.956909,749.044983 1859.988647,749.030029 1859.981079,749.018555 
	C1857.312866,749.735413 1854.659668,749.888489 1852.009521,748.449341 
z"/>
<path fill="#646464" opacity="1.000000" stroke="none" 
	d="
M696.341675,749.468140 
	C690.317932,749.823303 684.492004,749.964417 678.666077,749.965637 
	C531.571045,749.996155 384.475983,750.018005 237.380936,749.971924 
	C235.246140,749.971252 232.660355,751.167908 230.926529,748.206116 
	C261.194275,747.726196 291.508942,747.680908 321.823578,747.629517 
	C444.425751,747.421814 567.027954,747.211731 689.630127,747.008057 
	C691.461975,747.005005 693.294006,747.073730 695.586548,747.215576 
	C696.604309,747.840881 696.700439,748.481018 696.341675,749.468140 
z"/>
<path fill="#626262" opacity="1.000000" stroke="none" 
	d="
M1681.280518,748.578857 
	C1679.188599,750.242737 1676.982300,749.975342 1674.828369,749.975403 
	C1520.862183,749.978821 1366.895996,749.980225 1212.461060,749.962402 
	C1211.649292,749.580994 1211.505859,749.152161 1211.779419,748.372864 
	C1228.021606,748.007996 1244.045898,747.926819 1260.534180,747.918213 
	C1268.704102,748.012146 1276.410156,748.010742 1284.560547,747.983398 
	C1291.693481,747.932251 1298.381958,747.889771 1305.534424,747.919800 
	C1308.096802,748.020325 1310.195435,747.995789 1312.643433,748.024292 
	C1317.355591,747.977905 1321.718140,747.924011 1326.541260,747.939819 
	C1327.445557,748.009888 1327.889282,748.009827 1328.665771,748.008911 
	C1330.070557,747.972046 1331.142334,747.935791 1332.611572,747.970032 
	C1333.449219,748.028687 1333.889648,748.023804 1334.660400,748.036621 
	C1342.349854,747.982117 1349.708984,747.918335 1357.532715,747.921265 
	C1375.681519,748.025085 1393.365479,747.989136 1411.523193,748.010864 
	C1435.951172,747.929565 1459.906128,747.700684 1483.859863,747.788513 
	C1529.945801,747.957520 1576.027588,747.723755 1622.572510,747.021362 
	C1629.449219,748.042969 1635.896362,747.427124 1642.324097,747.478394 
	C1654.236328,747.573303 1666.150513,747.577454 1678.508545,747.301636 
	C1679.415771,747.084717 1679.878174,747.032898 1680.682373,747.062378 
	C1681.358398,747.460693 1681.497437,747.851929 1681.280518,748.578857 
z"/>
<path fill="#5F5F5E" opacity="1.000000" stroke="none" 
	d="
M1211.539673,747.979309 
	C1211.996704,748.501526 1211.996094,748.913879 1211.993896,749.634644 
	C1096.464355,749.965210 980.936462,749.987427 865.408508,750.009644 
	C852.257568,750.012146 839.106506,750.047180 825.955994,749.974915 
	C824.277161,749.965698 822.210754,750.856506 820.978149,748.273376 
	C859.307739,747.857605 897.686890,747.866821 936.531738,747.932007 
	C953.685913,748.013000 970.374390,748.013367 987.535034,747.975281 
	C988.755188,747.927429 989.503174,747.892212 990.622314,747.913208 
	C992.773499,748.028381 994.553955,748.007263 996.668213,747.993774 
	C1046.026367,747.955139 1095.050659,747.921509 1144.539917,747.954956 
	C1153.700317,747.989075 1162.395874,747.996887 1171.540771,748.032227 
	C1185.020874,747.987488 1198.051392,747.928467 1211.539673,747.979309 
z"/>
<path fill="#626262" opacity="1.000000" stroke="none" 
	d="
M1801.244019,749.562988 
	C1774.000488,749.905212 1746.985962,749.939331 1719.505249,749.973938 
	C1718.729980,748.932007 1719.216309,748.246521 1720.494873,747.625366 
	C1729.998169,747.457764 1739.059082,747.592651 1748.538574,747.293640 
	C1749.729614,747.070801 1750.501221,747.018311 1751.653809,747.041199 
	C1752.190430,747.219604 1752.345947,747.322571 1752.734619,747.271118 
	C1755.366089,747.066345 1757.764160,747.015869 1760.605225,747.046387 
	C1761.782227,747.672791 1762.614502,747.493164 1763.692871,747.289368 
	C1775.997070,747.080566 1788.036743,747.032837 1800.539917,747.061890 
	C1801.585693,747.749451 1801.708130,748.462463 1801.244019,749.562988 
z"/>
<path fill="#4A4B49" opacity="1.000000" stroke="none" 
	d="
M808.731201,747.769592 
	C804.848816,750.205566 800.062988,749.795959 795.408813,749.847473 
	C783.412231,749.980469 771.413391,749.912842 758.903687,749.942688 
	C757.860046,746.293091 760.818481,747.778137 762.163879,747.710632 
	C777.529785,746.939758 792.903137,747.071838 808.731201,747.769592 
z"/>
<path fill="#868686" opacity="1.000000" stroke="none" 
	d="
M1411.661621,747.785706 
	C1411.429077,748.310181 1410.860107,748.864868 1410.293701,748.862122 
	C1393.054688,748.779236 1375.810913,749.435974 1358.286865,748.289062 
	C1358.968262,747.113159 1360.168701,747.337219 1361.300659,747.341431 
	C1377.975952,747.403381 1394.651123,747.481689 1411.661621,747.785706 
z"/>
<path fill="#4A4B49" opacity="1.000000" stroke="none" 
	d="
M696.596802,749.797607 
	C696.114990,749.143311 696.086182,748.539246 696.052246,747.628784 
	C708.541565,747.405029 721.035950,747.487793 733.968994,747.653870 
	C731.636169,750.030457 728.221680,749.810181 725.004578,749.855835 
	C715.688232,749.988220 706.368286,749.868591 696.596802,749.797607 
z"/>
<path fill="#868686" opacity="1.000000" stroke="none" 
	d="
M987.654419,747.763184 
	C987.440979,748.264160 986.873901,748.830139 986.308655,748.828369 
	C970.071472,748.777405 953.829834,749.417053 937.297485,748.275940 
	C942.918457,746.764954 948.908325,747.503113 954.861877,747.447449 
	C965.673828,747.346436 976.488220,747.510315 987.654419,747.763184 
z"/>
<path fill="#4A4B49" opacity="1.000000" stroke="none" 
	d="
M1748.494995,747.067627 
	C1744.162842,748.954163 1739.183960,747.688965 1734.297241,747.940186 
	C1729.836548,748.169556 1725.355225,748.001953 1720.411133,748.033813 
	C1718.628296,749.186951 1716.801514,748.696411 1715.095947,749.689819 
	C1714.152344,749.864136 1713.502075,749.856323 1712.526978,749.858521 
	C1710.998047,749.015015 1709.741577,748.727783 1708.094971,749.694336 
	C1707.446411,749.863037 1707.088379,749.852417 1706.461914,749.858154 
	C1704.647461,748.796631 1703.032471,748.692566 1701.078003,749.703613 
	C1700.447144,749.863464 1700.089233,749.852600 1699.462891,749.857910 
	C1698.636108,749.484741 1698.047729,749.252625 1697.083252,749.699341 
	C1696.445435,749.862549 1696.087524,749.852173 1695.461182,749.858521 
	C1691.494873,748.129822 1687.561768,749.381165 1683.370850,748.964783 
	C1682.562378,748.937927 1682.141113,748.924561 1681.407104,748.880615 
	C1681.072021,748.471802 1681.049683,748.093506 1681.025757,747.429565 
	C1703.359985,747.099854 1725.696045,747.055908 1748.494995,747.067627 
z"/>
<path fill="#5F5F5E" opacity="1.000000" stroke="none" 
	d="
M1851.532715,747.933472 
	C1854.168945,749.830872 1856.756958,748.549927 1859.547119,748.976562 
	C1859.199463,750.195984 1857.972412,750.015747 1856.828247,750.016052 
	C1844.173584,750.019409 1831.519043,750.024292 1818.864380,749.986877 
	C1817.445435,749.982666 1815.768555,750.422729 1814.903687,748.139648 
	C1826.907715,747.762024 1838.987427,747.817871 1851.532715,747.933472 
z"/>
<path fill="#4A4B49" opacity="1.000000" stroke="none" 
	d="
M1678.490723,747.080933 
	C1678.370483,747.405273 1677.786987,747.909973 1677.204834,747.908447 
	C1659.346802,747.861145 1641.489014,747.764221 1623.334595,747.386047 
	C1641.368042,747.073242 1659.697998,747.049316 1678.490723,747.080933 
z"/>
<path fill="#868686" opacity="1.000000" stroke="none" 
	d="
M1171.659180,747.811279 
	C1167.406738,749.978516 1162.602417,748.750305 1157.907593,748.943359 
	C1153.809692,749.111877 1149.690063,748.753357 1145.292480,748.324829 
	C1153.757324,746.578979 1162.550781,747.553284 1171.659180,747.811279 
z"/>
<path fill="#868686" opacity="1.000000" stroke="none" 
	d="
M1284.671875,747.739746 
	C1277.241333,750.010376 1269.392456,748.896118 1261.282104,748.299561 
	C1268.753906,746.656494 1276.554810,747.490173 1284.671875,747.739746 
z"/>
<path fill="#4A4B49" opacity="1.000000" stroke="none" 
	d="
M222.741638,747.757568 
	C220.217911,750.908203 216.291489,748.894775 212.843048,749.471802 
	C206.998856,750.449524 200.956360,750.703796 194.973358,748.186401 
	C203.942810,747.776733 213.099960,747.745728 222.741638,747.757568 
z"/>
<path fill="#5F5F5E" opacity="1.000000" stroke="none" 
	d="
M1801.471436,749.905762 
	C1801.009888,749.188904 1801.004883,748.506714 1801.001465,747.481567 
	C1804.495361,747.201538 1807.987305,747.264526 1811.879883,747.448608 
	C1811.919434,750.491150 1809.668213,749.918701 1807.792847,749.958313 
	C1805.838867,749.999573 1803.883057,749.950134 1801.471436,749.905762 
z"/>
<path fill="#868686" opacity="1.000000" stroke="none" 
	d="
M1312.709961,747.803101 
	C1310.951782,749.719788 1308.712036,748.991760 1306.247803,748.278931 
	C1308.075195,746.838196 1310.267090,747.453796 1312.709961,747.803101 
z"/>
<path fill="#868686" opacity="1.000000" stroke="none" 
	d="
M996.708984,747.804810 
	C995.291748,749.512085 993.390320,748.998108 991.242188,748.237610 
	C992.746704,747.009277 994.590942,747.465515 996.708984,747.804810 
z"/>
<path fill="#868686" opacity="1.000000" stroke="none" 
	d="
M1334.842285,747.856812 
	C1334.578979,748.798279 1334.016602,748.977722 1333.144531,748.268066 
	C1333.445679,747.351990 1334.051392,747.426758 1334.842285,747.856812 
z"/>
<path fill="#868686" opacity="1.000000" stroke="none" 
	d="
M1328.849243,747.815796 
	C1328.590820,748.783447 1328.025513,748.979187 1327.136230,748.243774 
	C1327.433472,747.290100 1328.049683,747.382019 1328.849243,747.815796 
z"/>
<path fill="#4A4B49" opacity="1.000000" stroke="none" 
	d="
M1763.595581,747.074951 
	C1763.249512,748.069702 1762.380493,748.110474 1761.229004,747.356018 
	C1761.776733,747.092163 1762.505371,747.056946 1763.595581,747.074951 
z"/>
<path fill="#4A4B49" opacity="1.000000" stroke="none" 
	d="
M1752.734741,747.068115 
	C1752.709229,747.223145 1752.450562,747.329529 1752.113281,747.276245 
	C1752.034912,747.116577 1752.501465,747.019470 1752.734741,747.068115 
z"/>
<path fill="#787877" opacity="1.000000" stroke="none" 
	d="
M1683.264893,749.260498 
	C1686.981689,747.517517 1690.963135,747.269104 1695.053955,749.497437 
	C1691.307251,749.908325 1687.408081,750.451660 1683.264893,749.260498 
z"/>
<path fill="#787877" opacity="1.000000" stroke="none" 
	d="
M1701.253662,749.920776 
	C1702.177490,747.066956 1703.987427,747.507324 1706.078369,749.526978 
	C1704.696533,749.905457 1703.199341,749.936340 1701.253662,749.920776 
z"/>
<path fill="#787877" opacity="1.000000" stroke="none" 
	d="
M1715.226807,749.918762 
	C1715.428711,747.295715 1717.527954,748.218201 1719.550781,748.047363 
	C1719.700684,748.530884 1719.462158,749.003540 1719.131348,749.725281 
	C1717.909790,749.971497 1716.780518,749.968506 1715.226807,749.918762 
z"/>
<path fill="#787877" opacity="1.000000" stroke="none" 
	d="
M1708.243164,749.920166 
	C1708.819458,747.304260 1710.272827,747.462097 1712.091309,749.535400 
	C1711.028687,749.901245 1709.855225,749.933899 1708.243164,749.920166 
z"/>
<path fill="#787877" opacity="1.000000" stroke="none" 
	d="
M1697.200928,749.916382 
	C1697.241333,748.522461 1697.745117,747.422913 1699.110962,749.581726 
	C1698.662598,749.902710 1698.130615,749.931274 1697.200928,749.916382 
z"/>
</svg>