<svg version="1.1" id="Layer_1" xmlns="http://www.w3.org/2000/svg" xmlns:xlink="http://www.w3.org/1999/xlink" x="0px" y="0px"
	 width="100%" viewBox="0 0 1965 786" enable-background="new 0 0 1965 786" xml:space="preserve">
<path fill="#030303" opacity="1.000000" stroke="none" 
	d="
M1898.000000,0.999969 
	C1919.020874,1.000000 1940.041870,1.000000 1961.528076,1.468350 
	C1961.993530,7.846401 1961.993530,13.756101 1961.993530,19.607430 
	C1963.702393,19.774870 1964.851196,19.887440 1966.000000,20.000004 
	C1966.000000,26.021152 1966.000000,32.042305 1965.574707,38.490166 
	C1961.248657,38.773170 1961.163574,40.851303 1962.280762,43.737465 
	C1963.666138,47.316734 1966.138550,50.757084 1962.341187,54.624569 
	C1961.450195,55.532070 1961.521851,58.725647 1962.422729,59.821106 
	C1966.481812,64.756767 1962.890625,66.257477 1959.192871,67.702545 
	C1959.192871,71.941658 1959.150513,75.939148 1959.204346,79.935341 
	C1959.262085,84.215134 1958.516968,88.730972 1963.304077,91.493790 
	C1963.927368,91.853546 1963.646973,94.152725 1963.435425,95.498604 
	C1963.115845,97.530876 1962.058716,99.513962 1962.054932,101.519302 
	C1961.972290,145.676849 1961.950806,189.834686 1962.075073,233.992035 
	C1962.084351,237.279785 1963.444092,240.544464 1963.842285,243.860001 
	C1963.999512,245.168518 1963.665771,246.974030 1962.828857,247.888168 
	C1959.219604,251.830719 1959.242188,253.979950 1962.789917,257.901917 
	C1963.655884,258.859253 1963.744263,260.870361 1963.580811,262.328735 
	C1963.316895,264.683685 1962.063965,266.981567 1962.061890,269.304321 
	C1961.989258,350.620880 1962.000488,431.937500 1962.095825,513.254028 
	C1962.098511,515.558655 1963.428955,517.840759 1963.602905,520.173462 
	C1963.719727,521.740845 1963.392090,523.882324 1962.385620,524.891907 
	C1959.272583,528.015076 1959.319336,531.131714 1962.596924,534.184753 
	C1963.510254,535.035400 1963.785767,537.049561 1963.640015,538.455994 
	C1963.361694,541.141541 1962.072021,543.772766 1962.065918,546.428528 
	C1961.962524,591.752380 1961.948242,637.076721 1962.074219,682.400452 
	C1962.084351,686.042542 1963.374023,689.667297 1963.832031,693.329773 
	C1963.976685,694.485962 1963.701538,696.503601 1963.014648,696.821167 
	C1959.067993,698.645935 1959.472168,702.296509 1959.270020,705.451355 
	C1958.951416,710.423828 1959.185303,715.431824 1959.185303,720.573364 
	C1963.705078,721.631348 1966.051025,723.412598 1962.447754,728.081543 
	C1961.554932,729.238464 1961.432983,732.370667 1962.313232,733.276184 
	C1966.046753,737.116455 1963.832520,740.567932 1962.332275,744.164795 
	C1960.765991,747.920166 1962.052856,749.455017 1966.000000,749.000000 
	C1966.000000,755.021179 1966.000000,761.042297 1965.570312,767.585266 
	C1962.979126,767.900146 1961.842896,768.441772 1961.947754,771.054443 
	C1962.160522,776.361755 1962.004150,781.683960 1962.000000,787.000000 
	C1940.979126,787.000000 1919.958130,787.000000 1898.415649,786.584351 
	C1896.057373,785.852478 1894.220703,785.259094 1892.384033,785.258972 
	C1284.655884,785.218689 676.927795,785.219177 69.199707,785.220276 
	C67.533791,785.220276 65.851135,785.115173 64.212509,785.332336 
	C63.742908,785.394531 63.400646,786.417542 63.000000,787.000000 
	C42.343273,787.000000 21.686543,787.000000 1.045982,787.000000 
	C1.045982,525.000000 1.045982,263.000000 1.045982,1.000000 
	C21.415537,1.000000 41.739109,1.000000 62.544209,1.418208 
	C65.221130,2.157354 67.416504,2.759409 69.611916,2.759557 
	C675.300232,2.800176 1280.988525,2.799118 1886.676880,2.797975 
	C1889.676147,2.797969 1892.684082,2.905586 1895.668823,2.692962 
	C1896.481934,2.635031 1897.224854,1.591266 1898.000000,0.999969 
M1860.317505,747.154236 
	C1861.212769,746.384949 1862.761108,745.704346 1862.880005,744.829590 
	C1863.229004,742.261169 1863.009888,739.615601 1863.915894,736.995544 
	C1866.172852,736.995544 1868.429932,736.995544 1870.607910,736.995544 
	C1870.607910,504.621338 1870.607910,272.923676 1870.607910,41.744419 
	C1267.564575,41.744419 664.912048,41.744419 61.688793,41.744419 
	C62.142509,45.928677 62.832264,49.321453 62.832146,52.714207 
	C62.826134,223.862793 62.721928,395.011383 62.724758,566.159973 
	C62.725700,623.138123 62.984615,680.116333 63.004940,737.984863 
	C63.055595,741.267761 63.106251,744.550598 62.946796,748.551941 
	C62.977768,749.039917 63.008739,749.527893 62.990917,750.950073 
	C62.990917,759.870605 62.990917,768.791077 62.990917,777.572510 
	C675.122314,777.572510 1286.435791,777.572510 1897.705200,777.572510 
	C1897.705200,767.899048 1897.705200,758.637390 1897.705200,748.909607 
	C1884.957031,748.909607 1872.493774,748.909607 1860.027954,748.351074 
	C1859.963867,748.176270 1859.899902,748.001404 1860.317505,747.154236 
M1897.368408,55.117699 
	C1893.291138,55.117699 1889.213867,55.117699 1885.292969,55.117699 
	C1885.292969,281.487396 1885.292969,507.025909 1885.292969,732.546021 
	C1892.681152,732.893005 1899.698242,733.222534 1907.215820,733.575623 
	C1907.215820,738.647217 1907.215820,742.714783 1907.215820,746.740967 
	C1922.713745,746.740967 1937.652466,746.740967 1953.059448,746.740967 
	C1953.059448,741.046265 1953.156006,735.589661 1952.972656,730.142456 
	C1952.938599,729.130066 1951.759644,728.166870 1951.142212,727.160706 
	C1950.417480,725.979675 1949.150757,724.791504 1949.119263,723.580383 
	C1948.924683,716.086487 1948.968628,708.584778 1949.052490,701.087036 
	C1949.064697,700.003967 1949.466919,698.187256 1950.112793,697.969788 
	C1954.125122,696.619019 1953.036743,693.396240 1953.064209,690.640930 
	C1953.129028,684.142578 1953.068237,677.643066 1953.068237,671.143982 
	C1953.067993,620.984192 1953.076782,570.824463 1953.039917,520.664673 
	C1953.038818,519.098389 1953.000366,516.441406 1952.251343,516.147278 
	C1948.083496,514.511169 1949.054199,511.134155 1949.017212,508.113129 
	C1948.943848,502.114868 1948.928955,496.113831 1949.042480,490.116821 
	C1949.069092,488.707550 1949.368530,486.324951 1950.113037,486.072449 
	C1953.913086,484.783722 1953.053345,481.833435 1953.054199,479.191650 
	C1953.071533,422.699402 1953.073853,366.207184 1953.049072,309.714935 
	C1953.047852,306.784607 1954.218384,303.385895 1949.988892,301.880341 
	C1949.326416,301.644440 1949.087158,299.536346 1949.068848,298.287903 
	C1948.974487,291.790192 1948.911987,285.287750 1949.087402,278.793732 
	C1949.127075,277.320312 1950.074951,275.834930 1950.751587,274.425537 
	C1951.427490,273.017578 1952.966553,271.699493 1952.969360,270.339630 
	C1953.091064,211.847977 1953.088379,153.356033 1953.057739,94.864143 
	C1953.057129,93.635727 1952.812866,91.489571 1952.238770,91.325775 
	C1947.964478,90.106117 1949.079102,86.728989 1949.031250,83.915260 
	C1948.929443,77.917839 1948.803833,71.906815 1949.124878,65.924828 
	C1949.219971,64.153458 1950.743042,62.442802 1951.677734,60.740479 
	C1952.041382,60.078201 1952.978760,59.522583 1952.989258,58.906975 
	C1953.090820,52.998589 1953.050049,47.087753 1953.050049,41.274666 
	C1936.621094,41.274666 1921.015503,41.274666 1904.927734,41.274666 
	C1904.927734,43.818546 1904.927124,46.111851 1904.927856,48.405151 
	C1904.929932,55.050789 1904.930176,55.050789 1897.368408,55.117699 
M982.500000,31.992029 
	C1287.562134,31.992029 1592.624390,31.992029 1897.765015,31.992029 
	C1897.765015,24.368401 1897.765015,17.441196 1897.765015,10.267779 
	C1286.170410,10.267779 674.828308,10.267779 63.333694,10.267779 
	C63.333694,17.568020 63.333694,24.614538 63.333694,31.992025 
	C369.612396,31.992025 675.556213,31.992025 982.500000,31.992029 
M56.062031,305.500000 
	C56.062031,217.427704 56.062031,129.355408 56.062031,41.408890 
	C39.583744,41.408890 23.856297,41.408890 8.219071,41.408890 
	C8.219071,276.725006 8.219071,511.637329 8.219071,746.679565 
	C24.230261,746.679565 39.957886,746.679565 56.062073,746.679565 
	C56.062073,599.742310 56.062073,453.121155 56.062031,305.500000 
M1873.932617,564.500000 
	C1873.932617,620.450439 1873.932617,676.400879 1873.932617,732.415894 
	C1880.122314,734.106445 1878.977051,729.893494 1878.977295,726.865479 
	C1878.995483,505.095886 1878.993774,283.326294 1878.993530,61.556717 
	C1878.993530,60.723621 1878.922729,59.883537 1879.004639,59.058613 
	C1879.394409,55.133564 1877.480835,54.537384 1873.932617,55.659641 
	C1873.932617,224.990967 1873.932617,394.245483 1873.932617,564.500000 
M1934.499878,7.652226 
	C1925.229370,7.652226 1915.958984,7.652226 1906.488770,7.652226 
	C1906.488770,16.827465 1906.488770,25.374327 1906.488770,33.934494 
	C1922.719971,33.934494 1938.589233,33.934494 1954.586914,33.934494 
	C1954.586914,25.105078 1954.586914,16.691015 1954.586914,7.651762 
	C1948.046509,7.651762 1941.773071,7.651762 1934.499878,7.652226 
M1954.868896,762.548523 
	C1954.868896,759.766907 1954.868896,756.985291 1954.868896,753.996643 
	C1938.386475,753.996643 1922.514526,753.996643 1906.524902,753.996643 
	C1906.524902,762.885254 1906.524902,771.424316 1906.524902,779.898071 
	C1922.787354,779.898071 1938.651367,779.898071 1954.868042,779.898071 
	C1954.868042,774.147278 1954.868042,768.842224 1954.868896,762.548523 
M8.008576,775.388306 
	C8.087365,776.961975 8.166154,778.535706 8.240376,780.018188 
	C24.089729,780.018188 39.312149,780.018188 54.662716,780.018188 
	C54.662716,771.138428 54.662716,762.587280 54.662716,754.084229 
	C38.988064,754.084229 23.648718,754.084229 8.008875,754.084229 
	C8.008875,761.141479 8.008875,767.773987 8.008576,775.388306 
M54.991386,25.459625 
	C54.991386,19.686123 54.991386,13.912620 54.991386,8.030212 
	C39.074249,8.030212 23.738100,8.030212 8.379776,8.030212 
	C8.379776,16.953922 8.379776,25.499937 8.379776,34.065289 
	C23.985973,34.065289 39.219891,34.065289 54.991554,34.065289 
	C54.991554,31.351635 54.991554,28.897467 54.991386,25.459625 
z"/>
<path fill="#BFBFBF" opacity="1.000000" stroke="none" 
	d="
M1897.532227,0.999969 
	C1897.224854,1.591266 1896.481934,2.635031 1895.668823,2.692962 
	C1892.684082,2.905586 1889.676147,2.797969 1886.676880,2.797975 
	C1280.988525,2.799118 675.300232,2.800176 69.611916,2.759557 
	C67.416504,2.759409 65.221130,2.157354 63.012867,1.418208 
	C674.354797,1.000000 1285.709595,1.000000 1897.532227,0.999969 
z"/>
<path fill="#C4C4C4" opacity="1.000000" stroke="none" 
	d="
M63.467850,787.000000 
	C63.400646,786.417542 63.742908,785.394531 64.212509,785.332336 
	C65.851135,785.115173 67.533791,785.220276 69.199707,785.220276 
	C676.927795,785.219177 1284.655884,785.218689 1892.384033,785.258972 
	C1894.220703,785.259094 1896.057373,785.852478 1897.947021,786.584351 
	C1286.645264,787.000000 675.290466,787.000000 63.467850,787.000000 
z"/>
<path fill="#F9F9F9" opacity="1.000000" stroke="none" 
	d="
M1966.000000,748.531372 
	C1962.052856,749.455017 1960.765991,747.920166 1962.332275,744.164795 
	C1963.832520,740.567932 1966.046753,737.116455 1962.313232,733.276184 
	C1961.432983,732.370667 1961.554932,729.238464 1962.447754,728.081543 
	C1966.051025,723.412598 1963.705078,721.631348 1959.185303,720.573364 
	C1959.185303,715.431824 1958.951416,710.423828 1959.270020,705.451355 
	C1959.472168,702.296509 1959.067993,698.645935 1963.014648,696.821167 
	C1963.701538,696.503601 1963.976685,694.485962 1963.832031,693.329773 
	C1963.374023,689.667297 1962.084351,686.042542 1962.074219,682.400452 
	C1961.948242,637.076721 1961.962524,591.752380 1962.065918,546.428528 
	C1962.072021,543.772766 1963.361694,541.141541 1963.640015,538.455994 
	C1963.785767,537.049561 1963.510254,535.035400 1962.596924,534.184753 
	C1959.319336,531.131714 1959.272583,528.015076 1962.385620,524.891907 
	C1963.392090,523.882324 1963.719727,521.740845 1963.602905,520.173462 
	C1963.428955,517.840759 1962.098511,515.558655 1962.095825,513.254028 
	C1962.000488,431.937500 1961.989258,350.620880 1962.061890,269.304321 
	C1962.063965,266.981567 1963.316895,264.683685 1963.580811,262.328735 
	C1963.744263,260.870361 1963.655884,258.859253 1962.789917,257.901917 
	C1959.242188,253.979950 1959.219604,251.830719 1962.828857,247.888168 
	C1963.665771,246.974030 1963.999512,245.168518 1963.842285,243.860001 
	C1963.444092,240.544464 1962.084351,237.279785 1962.075073,233.992035 
	C1961.950806,189.834686 1961.972290,145.676849 1962.054932,101.519302 
	C1962.058716,99.513962 1963.115845,97.530876 1963.435425,95.498604 
	C1963.646973,94.152725 1963.927368,91.853546 1963.304077,91.493790 
	C1958.516968,88.730972 1959.262085,84.215134 1959.204346,79.935341 
	C1959.150513,75.939148 1959.192871,71.941658 1959.192871,67.702545 
	C1962.890625,66.257477 1966.481812,64.756767 1962.422729,59.821106 
	C1961.521851,58.725647 1961.450195,55.532070 1962.341187,54.624569 
	C1966.138550,50.757084 1963.666138,47.316734 1962.280762,43.737465 
	C1961.163574,40.851303 1961.248657,38.773170 1965.574707,38.958435 
	C1966.000000,275.354218 1966.000000,511.708466 1966.000000,748.531372 
z"/>
<path fill="#F9F9F9" opacity="1.000000" stroke="none" 
	d="
M1966.000000,19.530628 
	C1964.851196,19.887440 1963.702393,19.774870 1961.993530,19.607430 
	C1961.993530,13.756101 1961.993530,7.846401 1961.996826,1.468350 
	C1963.307373,1.000000 1964.614624,1.000000 1966.000000,1.000000 
	C1966.000000,7.020264 1966.000000,13.040756 1966.000000,19.530628 
z"/>
<path fill="#F9F9F9" opacity="1.000000" stroke="none" 
	d="
M1962.500000,787.000000 
	C1962.004150,781.683960 1962.160522,776.361755 1961.947754,771.054443 
	C1961.842896,768.441772 1962.979126,767.900146 1965.570312,768.053528 
	C1966.000000,773.500000 1965.690796,779.024170 1966.118530,784.490723 
	C1966.366211,787.655518 1964.654419,786.951904 1962.500000,787.000000 
z"/>
<path fill="#868686" opacity="1.000000" stroke="none" 
	d="
M63.125595,737.094482 
	C62.984615,680.116333 62.725700,623.138123 62.724758,566.159973 
	C62.721928,395.011383 62.826134,223.862793 62.832146,52.714207 
	C62.832264,49.321453 62.142509,45.928677 61.688793,41.744419 
	C664.912048,41.744419 1267.564575,41.744419 1870.607910,41.744419 
	C1870.607910,272.923676 1870.607910,504.621338 1870.607910,736.995544 
	C1868.429932,736.995544 1866.172852,736.995544 1862.994995,736.992432 
	C1264.089844,736.988098 666.105469,736.986633 68.121201,736.989868 
	C66.456001,736.989868 64.790794,737.058167 63.125595,737.094482 
z"/>
<path fill="#838383" opacity="1.000000" stroke="none" 
	d="
M1860.030518,748.909607 
	C1872.493774,748.909607 1884.957031,748.909607 1897.705200,748.909607 
	C1897.705200,758.637390 1897.705200,767.899048 1897.705200,777.572510 
	C1286.435791,777.572510 675.122314,777.572510 62.990917,777.572510 
	C62.990917,768.791077 62.990917,759.870605 63.480228,750.501465 
	C70.111778,750.047363 76.254013,750.037659 82.396248,750.037048 
	C112.941551,750.033997 143.487030,750.069946 174.031754,749.934753 
	C175.735931,749.927246 177.433884,748.513550 179.585052,747.662354 
	C184.956467,747.651733 189.877548,747.733093 194.992508,748.193359 
	C199.762970,749.021790 204.353119,749.929932 208.912415,749.794983 
	C213.696198,749.653442 218.450378,748.511780 223.609711,747.696533 
	C225.624573,747.646973 227.247223,747.708069 228.916077,748.200806 
	C231.268478,749.098572 233.574509,749.971802 235.880905,749.972717 
	C371.315491,750.026123 506.750122,750.017395 642.184753,749.984131 
	C660.170959,749.979675 678.157104,749.814819 696.595581,749.780151 
	C703.329285,749.831299 709.610596,749.826660 716.334595,749.885925 
	C718.554993,749.905579 720.332642,749.861328 722.562805,749.840942 
	C725.179688,749.878784 727.393066,750.177612 729.492920,749.816345 
	C731.158691,749.529785 732.685303,748.434509 734.710815,747.569092 
	C742.042908,747.544189 748.937927,747.648499 755.947388,747.995911 
	C756.431396,748.074585 756.801025,747.910034 757.445984,747.651855 
	C758.100708,747.612854 758.480103,747.667542 758.906067,748.145508 
	C761.670471,748.987610 764.388306,749.406616 767.550964,749.847534 
	C770.951111,749.825500 773.906494,749.781616 777.310730,749.809448 
	C780.832520,749.627197 783.905334,749.373169 787.391296,749.151917 
	C794.286011,748.722351 800.767700,748.260010 807.623779,747.674744 
	C809.300720,747.634521 810.603271,747.717224 811.962524,748.225342 
	C814.162048,749.106750 816.304810,749.961670 818.447693,749.961975 
	C1109.567749,750.005310 1400.687744,749.988098 1691.807739,749.929016 
	C1693.535400,749.928650 1695.263184,749.302795 1697.324951,749.002319 
	C1698.106079,749.020874 1698.553101,749.006165 1699.297241,749.283691 
	C1700.406738,749.707397 1701.218872,749.953491 1702.031250,749.954102 
	C1753.330566,749.991760 1804.630005,750.018005 1855.929321,749.981812 
	C1857.296631,749.980896 1858.663452,749.282654 1860.030518,748.909607 
z"/>
<path fill="#838383" opacity="1.000000" stroke="none" 
	d="
M1897.844604,55.119461 
	C1904.930176,55.050789 1904.929932,55.050789 1904.927856,48.405151 
	C1904.927124,46.111851 1904.927734,43.818546 1904.927734,41.274666 
	C1921.015503,41.274666 1936.621094,41.274666 1953.050049,41.274666 
	C1953.050049,47.087753 1953.090820,52.998589 1952.989258,58.906975 
	C1952.978760,59.522583 1952.041382,60.078201 1951.677734,60.740479 
	C1950.743042,62.442802 1949.219971,64.153458 1949.124878,65.924828 
	C1948.803833,71.906815 1948.929443,77.917839 1949.031250,83.915260 
	C1949.079102,86.728989 1947.964478,90.106117 1952.238770,91.325775 
	C1952.812866,91.489571 1953.057129,93.635727 1953.057739,94.864143 
	C1953.088379,153.356033 1953.091064,211.847977 1952.969360,270.339630 
	C1952.966553,271.699493 1951.427490,273.017578 1950.751587,274.425537 
	C1950.074951,275.834930 1949.127075,277.320312 1949.087402,278.793732 
	C1948.911987,285.287750 1948.974487,291.790192 1949.068848,298.287903 
	C1949.087158,299.536346 1949.326416,301.644440 1949.988892,301.880341 
	C1954.218384,303.385895 1953.047852,306.784607 1953.049072,309.714935 
	C1953.073853,366.207184 1953.071533,422.699402 1953.054199,479.191650 
	C1953.053345,481.833435 1953.913086,484.783722 1950.113037,486.072449 
	C1949.368530,486.324951 1949.069092,488.707550 1949.042480,490.116821 
	C1948.928955,496.113831 1948.943848,502.114868 1949.017212,508.113129 
	C1949.054199,511.134155 1948.083496,514.511169 1952.251343,516.147278 
	C1953.000366,516.441406 1953.038818,519.098389 1953.039917,520.664673 
	C1953.076782,570.824463 1953.067993,620.984192 1953.068237,671.143982 
	C1953.068237,677.643066 1953.129028,684.142578 1953.064209,690.640930 
	C1953.036743,693.396240 1954.125122,696.619019 1950.112793,697.969788 
	C1949.466919,698.187256 1949.064697,700.003967 1949.052490,701.087036 
	C1948.968628,708.584778 1948.924683,716.086487 1949.119263,723.580383 
	C1949.150757,724.791504 1950.417480,725.979675 1951.142212,727.160706 
	C1951.759644,728.166870 1952.938599,729.130066 1952.972656,730.142456 
	C1953.156006,735.589661 1953.059448,741.046265 1953.059448,746.740967 
	C1937.652466,746.740967 1922.713745,746.740967 1907.215820,746.740967 
	C1907.215820,742.714783 1907.215820,738.647217 1907.215820,733.575623 
	C1899.698242,733.222534 1892.681152,732.893005 1885.292969,732.546021 
	C1885.292969,507.025909 1885.292969,281.487396 1885.292969,55.117699 
	C1889.213867,55.117699 1893.291138,55.117699 1897.844604,55.119461 
z"/>
<path fill="#838383" opacity="1.000000" stroke="none" 
	d="
M982.000000,31.992027 
	C675.556213,31.992025 369.612396,31.992025 63.333694,31.992025 
	C63.333694,24.614538 63.333694,17.568020 63.333694,10.267779 
	C674.828308,10.267779 1286.170410,10.267779 1897.765015,10.267779 
	C1897.765015,17.441196 1897.765015,24.368401 1897.765015,31.992029 
	C1592.624390,31.992029 1287.562134,31.992029 982.000000,31.992027 
z"/>
<path fill="#838383" opacity="1.000000" stroke="none" 
	d="
M56.062050,306.000000 
	C56.062073,453.121155 56.062073,599.742310 56.062073,746.679565 
	C39.957886,746.679565 24.230261,746.679565 8.219071,746.679565 
	C8.219071,511.637329 8.219071,276.725006 8.219071,41.408890 
	C23.856297,41.408890 39.583744,41.408890 56.062031,41.408890 
	C56.062031,129.355408 56.062031,217.427704 56.062050,306.000000 
z"/>
<path fill="#FBFBFB" opacity="1.000000" stroke="none" 
	d="
M228.869888,747.769165 
	C227.247223,747.708069 225.624573,747.646973 223.125275,747.655579 
	C213.098648,747.755005 203.948639,747.784729 194.798630,747.814453 
	C189.877548,747.733093 184.956467,747.651733 179.195007,747.601196 
	C171.204605,747.676086 164.054596,747.750732 156.904526,747.758850 
	C125.655327,747.794250 94.406113,747.810364 63.156910,747.833496 
	C63.106251,744.550598 63.055595,741.267761 63.065269,737.539673 
	C64.790794,737.058167 66.456001,736.989868 68.121201,736.989868 
	C666.105469,736.986633 1264.089844,736.988098 1862.543701,736.994812 
	C1863.009888,739.615601 1863.229004,742.261169 1862.880005,744.829590 
	C1862.761108,745.704346 1861.212769,746.384949 1859.618652,747.499756 
	C1840.217163,747.566223 1821.515015,747.203552 1802.811279,747.037476 
	C1790.193970,746.925476 1777.574219,747.090759 1764.567261,747.080200 
	C1763.136475,747.062927 1762.094116,747.097534 1760.607910,747.052612 
	C1757.763306,747.023010 1755.362305,747.072937 1752.643799,747.070068 
	C1751.899658,747.055115 1751.473267,747.092896 1750.701172,747.055298 
	C1749.889160,747.029236 1749.422729,747.078674 1748.493286,747.073486 
	C1732.373291,747.062500 1716.716187,747.106140 1700.714844,747.070312 
	C1699.905151,747.044067 1699.440063,747.097412 1698.510498,747.097168 
	C1673.044189,747.063171 1648.042358,747.082703 1622.574463,747.027710 
	C1576.354858,747.225403 1530.601562,747.516541 1484.847900,747.762268 
	C1459.227661,747.899902 1433.607056,747.962219 1407.654785,747.824158 
	C1396.947876,747.512451 1386.572632,747.365601 1376.197876,747.392273 
	C1372.133301,747.402710 1368.069702,747.802429 1363.541504,747.950745 
	C1346.381592,747.933105 1329.685913,747.989624 1312.798950,747.837646 
	C1311.742798,747.772156 1310.878052,747.915161 1309.548584,747.985657 
	C1298.721558,747.947571 1288.359131,747.981995 1277.772095,747.797363 
	C1276.366943,747.728088 1275.186646,747.877991 1273.565186,747.959229 
	C1270.746704,747.940918 1268.369141,747.991272 1265.799805,747.831482 
	C1264.741821,747.760803 1263.875488,747.900269 1262.544800,747.964966 
	C1230.715332,747.949341 1199.350098,748.008545 1167.651123,747.837769 
	C1160.547241,747.748413 1153.777100,747.888977 1146.542480,747.957092 
	C1094.294922,747.866089 1042.511841,747.843018 990.728821,747.830139 
	C931.121155,747.815369 871.513428,747.809631 811.905762,747.799927 
	C810.603271,747.717224 809.300720,747.634521 807.169800,747.627075 
	C799.913391,747.592468 793.485474,747.482666 786.607605,747.266846 
	C783.088379,747.249756 780.019165,747.338684 776.503174,747.363586 
	C773.068481,747.432861 770.080505,747.566223 766.713989,747.557922 
	C763.843445,747.518311 761.351440,747.620239 758.859497,747.722229 
	C758.480103,747.667542 758.100708,747.612854 757.111206,747.614258 
	C756.278381,747.697815 756.055725,747.725281 755.833008,747.752808 
	C748.937927,747.648499 742.042908,747.544189 734.297913,747.489319 
	C729.659668,747.550232 725.871277,747.561707 721.659363,747.432617 
	C719.463806,747.370117 717.691895,747.448120 715.465027,747.439697 
	C708.688721,747.346741 702.367371,747.340210 695.585205,747.228149 
	C693.458618,747.088257 691.792847,747.020447 690.127136,747.024353 
	C608.319824,747.216858 526.512634,747.430908 444.705261,747.606995 
	C405.415558,747.691589 366.125732,747.718262 326.835968,747.747986 
	C294.180603,747.772644 261.525238,747.763367 228.869888,747.769165 
z"/>
<path fill="#838383" opacity="1.000000" stroke="none" 
	d="
M1873.932617,564.000000 
	C1873.932617,394.245483 1873.932617,224.990967 1873.932617,55.659641 
	C1877.480835,54.537384 1879.394409,55.133564 1879.004639,59.058613 
	C1878.922729,59.883537 1878.993530,60.723621 1878.993530,61.556717 
	C1878.993774,283.326294 1878.995483,505.095886 1878.977295,726.865479 
	C1878.977051,729.893494 1880.122314,734.106445 1873.932617,732.415894 
	C1873.932617,676.400879 1873.932617,620.450439 1873.932617,564.000000 
z"/>
<path fill="#828282" opacity="1.000000" stroke="none" 
	d="
M1934.999756,7.651995 
	C1941.773071,7.651762 1948.046509,7.651762 1954.586914,7.651762 
	C1954.586914,16.691015 1954.586914,25.105078 1954.586914,33.934494 
	C1938.589233,33.934494 1922.719971,33.934494 1906.488770,33.934494 
	C1906.488770,25.374327 1906.488770,16.827465 1906.488770,7.652226 
	C1915.958984,7.652226 1925.229370,7.652226 1934.999756,7.651995 
z"/>
<path fill="#828282" opacity="1.000000" stroke="none" 
	d="
M1954.868408,763.042847 
	C1954.868042,768.842224 1954.868042,774.147278 1954.868042,779.898071 
	C1938.651367,779.898071 1922.787354,779.898071 1906.524902,779.898071 
	C1906.524902,771.424316 1906.524902,762.885254 1906.524902,753.996643 
	C1922.514526,753.996643 1938.386475,753.996643 1954.868896,753.996643 
	C1954.868896,756.985291 1954.868896,759.766907 1954.868408,763.042847 
z"/>
<path fill="#838383" opacity="1.000000" stroke="none" 
	d="
M8.008726,774.897400 
	C8.008875,767.773987 8.008875,761.141479 8.008875,754.084229 
	C23.648718,754.084229 38.988064,754.084229 54.662716,754.084229 
	C54.662716,762.587280 54.662716,771.138428 54.662716,780.018188 
	C39.312149,780.018188 24.089729,780.018188 8.240376,780.018188 
	C8.166154,778.535706 8.087365,776.961975 8.008726,774.897400 
z"/>
<path fill="#838383" opacity="1.000000" stroke="none" 
	d="
M54.991470,25.951462 
	C54.991554,28.897467 54.991554,31.351635 54.991554,34.065289 
	C39.219891,34.065289 23.985973,34.065289 8.379776,34.065289 
	C8.379776,25.499937 8.379776,16.953922 8.379776,8.030212 
	C23.738100,8.030212 39.074249,8.030212 54.991386,8.030212 
	C54.991386,13.912620 54.991386,19.686123 54.991470,25.951462 
z"/>
<path fill="#626362" opacity="1.000000" stroke="none" 
	d="
M1698.974854,747.150696 
	C1699.440063,747.097412 1699.905151,747.044067 1701.033203,747.325928 
	C1716.868774,747.753967 1732.041504,747.856018 1747.214478,747.905090 
	C1747.794189,747.906982 1748.375610,747.398621 1748.956299,747.128052 
	C1749.422729,747.078674 1749.889160,747.029236 1750.842529,747.260986 
	C1751.873413,747.402344 1752.417480,747.262573 1752.961426,747.122803 
	C1755.362305,747.072937 1757.763306,747.023010 1760.822266,747.286743 
	C1762.638794,747.444214 1763.797119,747.288147 1764.955566,747.132080 
	C1777.574219,747.090759 1790.193970,746.925476 1802.811279,747.037476 
	C1821.515015,747.203552 1840.217163,747.566223 1859.377930,747.835876 
	C1859.899902,748.001404 1859.963867,748.176270 1860.029297,748.630371 
	C1858.663452,749.282654 1857.296631,749.980896 1855.929321,749.981812 
	C1804.630005,750.018005 1753.330566,749.991760 1702.031250,749.954102 
	C1701.218872,749.953491 1700.406738,749.707397 1699.290283,748.977051 
	C1698.982178,747.968994 1698.978516,747.559814 1698.974854,747.150696 
z"/>
<path fill="#626362" opacity="1.000000" stroke="none" 
	d="
M63.051853,748.192749 
	C94.406113,747.810364 125.655327,747.794250 156.904526,747.758850 
	C164.054596,747.750732 171.204605,747.676086 178.744690,747.693176 
	C177.433884,748.513550 175.735931,749.927246 174.031754,749.934753 
	C143.487030,750.069946 112.941551,750.033997 82.396248,750.037048 
	C76.254013,750.037659 70.111778,750.047363 63.504623,750.034363 
	C63.008739,749.527893 62.977768,749.039917 63.051853,748.192749 
z"/>
<path fill="#626362" opacity="1.000000" stroke="none" 
	d="
M811.962524,748.225403 
	C871.513428,747.809631 931.121155,747.815369 990.728821,747.830139 
	C1042.511841,747.843018 1094.294922,747.866089 1146.837280,748.250854 
	C1154.392700,748.434021 1161.188843,748.250916 1167.984985,748.067749 
	C1199.350098,748.008545 1230.715332,747.949341 1262.719238,748.218018 
	C1264.235840,748.377869 1265.113647,748.209717 1265.991577,748.041626 
	C1268.369141,747.991272 1270.746704,747.940918 1273.768799,748.224854 
	C1275.607788,748.378235 1276.802246,748.197327 1277.996826,748.016479 
	C1288.359131,747.981995 1298.721558,747.947571 1309.727295,748.232300 
	C1311.243896,748.382996 1312.117188,748.214539 1312.990356,748.046143 
	C1329.685913,747.989624 1346.381592,747.933105 1363.837402,748.243042 
	C1378.485596,748.706848 1392.373291,748.814514 1406.261230,748.865601 
	C1406.835449,748.867737 1407.411499,748.339539 1407.986694,748.058472 
	C1433.607056,747.962219 1459.227661,747.899902 1484.847900,747.762268 
	C1530.601562,747.516541 1576.354858,747.225403 1622.875366,747.311035 
	C1625.452271,747.784790 1627.262085,748.000854 1629.072021,748.001526 
	C1649.992065,748.008789 1670.912109,747.960022 1691.832031,748.010559 
	C1693.552490,748.014709 1695.271240,748.635010 1696.990845,748.969055 
	C1695.263184,749.302795 1693.535400,749.928650 1691.807739,749.929016 
	C1400.687744,749.988098 1109.567749,750.005310 818.447693,749.961975 
	C816.304810,749.961670 814.162048,749.106750 811.962524,748.225403 
z"/>
<path fill="#626362" opacity="1.000000" stroke="none" 
	d="
M228.916077,748.200806 
	C261.525238,747.763367 294.180603,747.772644 326.835968,747.747986 
	C366.125732,747.718262 405.415558,747.691589 444.705261,747.606995 
	C526.512634,747.430908 608.319824,747.216858 690.127136,747.024353 
	C691.792847,747.020447 693.458618,747.088257 695.591431,747.530396 
	C696.086731,748.533630 696.115051,749.128906 696.143311,749.724243 
	C678.157104,749.814819 660.170959,749.979675 642.184753,749.984131 
	C506.750122,750.017395 371.315491,750.026123 235.880905,749.972717 
	C233.574509,749.971802 231.268478,749.098572 228.916077,748.200806 
z"/>
<path fill="#4A4B49" opacity="1.000000" stroke="none" 
	d="
M1697.324951,749.002319 
	C1695.271240,748.635010 1693.552490,748.014709 1691.832031,748.010559 
	C1670.912109,747.960022 1649.992065,748.008789 1629.072021,748.001526 
	C1627.262085,748.000854 1625.452271,747.784790 1623.341309,747.385559 
	C1648.042358,747.082703 1673.044189,747.063171 1698.510498,747.097168 
	C1698.978516,747.559814 1698.982178,747.968994 1698.992920,748.684814 
	C1698.553101,749.006165 1698.106079,749.020874 1697.324951,749.002319 
z"/>
<path fill="#4A4B49" opacity="1.000000" stroke="none" 
	d="
M696.595581,749.780090 
	C696.115051,749.128906 696.086731,748.533630 696.052246,747.635986 
	C702.367371,747.340210 708.688721,747.346741 715.475830,747.728882 
	C715.925049,748.677063 715.908508,749.249512 715.891968,749.822021 
	C709.610596,749.826660 703.329285,749.831299 696.595581,749.780090 
z"/>
<path fill="#4A4B49" opacity="1.000000" stroke="none" 
	d="
M787.057556,747.372803 
	C793.485474,747.482666 799.913391,747.592468 806.795288,747.750000 
	C800.767700,748.260010 794.286011,748.722351 787.405884,748.859619 
	C787.024048,748.147278 787.040771,747.760010 787.057556,747.372803 
z"/>
<path fill="#4A4B49" opacity="1.000000" stroke="none" 
	d="
M194.992508,748.193359 
	C203.948639,747.784729 213.098648,747.755005 222.733078,747.766235 
	C218.450378,748.511780 213.696198,749.653442 208.912415,749.794983 
	C204.353119,749.929932 199.762970,749.021790 194.992508,748.193359 
z"/>
<path fill="#4A4B49" opacity="1.000000" stroke="none" 
	d="
M722.083008,747.573120 
	C725.871277,747.561707 729.659668,747.550232 733.860840,747.618530 
	C732.685303,748.434509 731.158691,749.529785 729.492920,749.816345 
	C727.393066,750.177612 725.179688,749.878784 722.529419,749.564270 
	C722.056641,748.700256 722.069824,748.136719 722.083008,747.573120 
z"/>
<path fill="#626362" opacity="1.000000" stroke="none" 
	d="
M786.607605,747.266846 
	C787.040771,747.760010 787.024048,748.147278 786.992798,748.826782 
	C783.905334,749.373169 780.832520,749.627197 777.346313,749.526611 
	C776.938599,748.590576 776.944214,748.009094 776.949890,747.427612 
	C780.019165,747.338684 783.088379,747.249756 786.607605,747.266846 
z"/>
<path fill="#4A4B49" opacity="1.000000" stroke="none" 
	d="
M776.503174,747.363586 
	C776.944214,748.009094 776.938599,748.590576 776.897400,749.454834 
	C773.906494,749.781616 770.951111,749.825500 767.519165,749.585327 
	C767.059265,748.767334 767.075989,748.233459 767.092651,747.699524 
	C770.080505,747.566223 773.068481,747.432861 776.503174,747.363586 
z"/>
<path fill="#626362" opacity="1.000000" stroke="none" 
	d="
M766.713989,747.557922 
	C767.075989,748.233459 767.059265,748.767334 767.074341,749.563477 
	C764.388306,749.406616 761.670471,748.987610 758.906067,748.145386 
	C761.351440,747.620239 763.843445,747.518311 766.713989,747.557922 
z"/>
<path fill="#626362" opacity="1.000000" stroke="none" 
	d="
M721.659424,747.432617 
	C722.069824,748.136719 722.056641,748.700256 722.076904,749.540527 
	C720.332642,749.861328 718.554993,749.905579 716.334595,749.885925 
	C715.908508,749.249512 715.925049,748.677063 715.930786,747.815308 
	C717.691895,747.448120 719.463806,747.370117 721.659424,747.432617 
z"/>
<path fill="#626362" opacity="1.000000" stroke="none" 
	d="
M755.947388,747.995972 
	C756.055725,747.725281 756.278381,747.697815 756.835815,747.707886 
	C756.801025,747.910034 756.431396,748.074585 755.947388,747.995972 
z"/>
<path fill="#868686" opacity="1.000000" stroke="none" 
	d="
M1407.654785,747.824158 
	C1407.411499,748.339539 1406.835449,748.867737 1406.261230,748.865601 
	C1392.373291,748.814514 1378.485596,748.706848 1364.301758,748.317139 
	C1368.069702,747.802429 1372.133301,747.402710 1376.197876,747.392273 
	C1386.572632,747.365601 1396.947876,747.512451 1407.654785,747.824158 
z"/>
<path fill="#4A4B49" opacity="1.000000" stroke="none" 
	d="
M1748.493286,747.073425 
	C1748.375610,747.398621 1747.794189,747.906982 1747.214478,747.905090 
	C1732.041504,747.856018 1716.868774,747.753967 1701.377563,747.405396 
	C1716.716187,747.106140 1732.373291,747.062500 1748.493286,747.073425 
z"/>
<path fill="#868686" opacity="1.000000" stroke="none" 
	d="
M1167.651123,747.837769 
	C1161.188843,748.250916 1154.392700,748.434021 1147.301758,748.323364 
	C1153.777100,747.888977 1160.547241,747.748413 1167.651123,747.837769 
z"/>
<path fill="#868686" opacity="1.000000" stroke="none" 
	d="
M1277.772095,747.797302 
	C1276.802246,748.197327 1275.607788,748.378235 1274.209717,748.293457 
	C1275.186646,747.877991 1276.366943,747.728088 1277.772095,747.797302 
z"/>
<path fill="#868686" opacity="1.000000" stroke="none" 
	d="
M1312.798950,747.837646 
	C1312.117188,748.214539 1311.243896,748.382996 1310.192017,748.304810 
	C1310.878052,747.915161 1311.742798,747.772156 1312.798950,747.837646 
z"/>
<path fill="#868686" opacity="1.000000" stroke="none" 
	d="
M1265.799805,747.831482 
	C1265.113647,748.209717 1264.235840,748.377869 1263.183594,748.292847 
	C1263.875488,747.900269 1264.741821,747.760803 1265.799805,747.831482 
z"/>
<path fill="#4A4B49" opacity="1.000000" stroke="none" 
	d="
M1764.567261,747.080200 
	C1763.797119,747.288147 1762.638794,747.444214 1761.265991,747.366211 
	C1762.094116,747.097534 1763.136475,747.062927 1764.567261,747.080200 
z"/>
<path fill="#4A4B49" opacity="1.000000" stroke="none" 
	d="
M1752.643799,747.070068 
	C1752.417480,747.262573 1751.873413,747.402344 1751.188232,747.336426 
	C1751.473267,747.092896 1751.899658,747.055115 1752.643799,747.070068 
z"/>
</svg>