<svg version="1.1" id="Layer_1" xmlns="http://www.w3.org/2000/svg" xmlns:xlink="http://www.w3.org/1999/xlink" x="0px" y="0px"
	 width="100%" viewBox="0 0 3930 786" enable-background="new 0 0 3930 786" xml:space="preserve">
<path fill="none" opacity="1.000000" stroke="#000000" stroke-linecap="round" stroke-linejoin="round" stroke-width="7.000000"
	d="
M61.000000,746.000000 
	C1329.000000,746.000000 2597.000000,746.000000 3865.000000,746.000000 
"/>
<path fill="none" opacity="1.000000" stroke="#000000" stroke-linecap="round" stroke-linejoin="round" stroke-width="7.000000"
	d="
M61.000000,42.000000 
	C1329.000000,42.000000 2597.000000,42.000000 3865.000000,42.000000 
"/>
<path fill="none" opacity="1.000000" stroke="#000000" stroke-linecap="round" stroke-linejoin="round" stroke-width="8.000000"
	d="
M3865.000000,6.500000 
	C2597.000000,6.500000 1329.000000,6.500000 61.000000,6.500000 
"/>
<path fill="none" opacity="1.000000" stroke="#000000" stroke-linecap="round" stroke-linejoin="round" stroke-width="8.000000"
	d="
M61.500000,781.000000 
	C63.271816,781.843384 65.161362,781.486572 67.000000,781.486572 
	C1269.666626,781.500122 2472.333252,781.500000 3675.000000,781.500000 
	C3736.333252,781.500000 3797.666748,781.502808 3859.000000,781.486328 
	C3860.838623,781.485840 3862.728271,781.843384 3864.500000,781.000000 
"/>
<path fill="none" opacity="1.000000" stroke="#000000" stroke-linecap="round" stroke-linejoin="round" stroke-width="8.000000"
	d="
M58.000000,38.000000 
	C45.861767,39.371189 33.673630,39.025391 21.500296,38.951351 
	C17.498417,38.927010 13.499525,38.338913 9.500140,37.998363 
	C5.847365,37.687325 4.393428,39.101662 4.423965,43.000595 
	C4.585820,63.665997 4.500000,84.333336 4.500000,105.000000 
	C4.500000,317.333344 4.500009,529.666687 4.500000,742.000000 
	C4.499999,749.934326 6.043594,751.123352 14.003949,750.028748 
	C26.655823,748.288940 39.328667,748.405762 52.004547,749.963013 
	C54.138996,750.225220 56.333332,750.000000 58.500000,750.000000 
"/>
<path fill="none" opacity="1.000000" stroke="#000000" stroke-linecap="round" stroke-linejoin="round" stroke-width="8.000000"
	d="
M4.000001,37.500000 
	C3.500001,36.833332 2.569936,36.170307 2.564252,35.499454 
	C2.473166,24.747644 2.500000,13.994834 2.500000,3.000000 
	C20.165857,3.000000 37.333168,2.950106 54.499840,3.032850 
	C59.162121,3.055323 59.854343,4.614996 59.592037,9.504937 
	C59.226540,16.318665 59.474819,23.166784 59.506908,29.999968 
	C59.540623,37.179279 59.057854,44.355591 60.379250,51.522263 
	C60.814167,53.881069 59.449577,56.402077 59.450203,59.000011 
	C59.504078,282.333344 59.461319,505.666687 59.663914,728.999878 
	C59.670868,736.667725 59.331299,744.331421 59.470406,752.000549 
	C59.606400,759.498047 59.533585,767.000183 59.486469,774.499939 
	C59.461212,778.519714 61.892212,782.754883 58.014484,786.500000 
	C41.500000,786.500000 24.499310,786.419922 7.500574,786.566528 
	C4.039454,786.596375 2.537585,785.196106 2.519386,781.999878 
	C2.465295,772.500183 2.505756,763.000000 2.493163,753.500000 
	C2.491472,752.224243 3.122398,751.311218 4.000000,750.500000 
"/>
<path fill="none" opacity="1.000000" stroke="#000000" stroke-linecap="round" stroke-linejoin="round" stroke-width="7.000000"
	d="
M1478.000000,53.500000 
	C1478.000000,280.666656 1478.000000,507.833344 1478.000000,735.000000 
"/>
<path fill="none" opacity="1.000000" stroke="#000000" stroke-linecap="round" stroke-linejoin="round" stroke-width="7.000000"
	d="
M1075.000000,53.500000 
	C1075.000000,280.666656 1075.000000,507.833344 1075.000000,735.000000 
"/>
<path fill="none" opacity="1.000000" stroke="#000000" stroke-linecap="round" stroke-linejoin="round" stroke-width="7.000000"
	d="
M1097.000000,53.500000 
	C1097.000000,280.666656 1097.000000,507.833344 1097.000000,735.000000 
"/>
<path fill="none" opacity="1.000000" stroke="#000000" stroke-linecap="round" stroke-linejoin="round" stroke-width="7.000000"
	d="
M1120.000000,53.500000 
	C1120.000000,280.666656 1120.000000,507.833344 1120.000000,735.000000 
"/>
<path fill="none" opacity="1.000000" stroke="#000000" stroke-linecap="round" stroke-linejoin="round" stroke-width="7.000000"
	d="
M1142.000000,53.500000 
	C1142.000000,280.666656 1142.000000,507.833344 1142.000000,735.000000 
"/>
<path fill="none" opacity="1.000000" stroke="#000000" stroke-linecap="round" stroke-linejoin="round" stroke-width="7.000000"
	d="
M1186.000000,53.500000 
	C1186.000000,280.666656 1186.000000,507.833344 1186.000000,735.000000 
"/>
<path fill="none" opacity="1.000000" stroke="#000000" stroke-linecap="round" stroke-linejoin="round" stroke-width="7.000000"
	d="
M1231.000000,53.500000 
	C1231.000000,280.666656 1231.000000,507.833344 1231.000000,735.000000 
"/>
<path fill="none" opacity="1.000000" stroke="#000000" stroke-linecap="round" stroke-linejoin="round" stroke-width="7.000000"
	d="
M1343.000000,53.500000 
	C1343.000000,280.666656 1343.000000,507.833344 1343.000000,735.000000 
"/>
<path fill="none" opacity="1.000000" stroke="#000000" stroke-linecap="round" stroke-linejoin="round" stroke-width="7.000000"
	d="
M1365.000000,53.500000 
	C1365.000000,280.666656 1365.000000,507.833344 1365.000000,735.000000 
"/>
<path fill="none" opacity="1.000000" stroke="#000000" stroke-linecap="round" stroke-linejoin="round" stroke-width="7.000000"
	d="
M1388.000000,53.500000 
	C1388.000000,280.666656 1388.000000,507.833344 1388.000000,735.000000 
"/>
<path fill="none" opacity="1.000000" stroke="#000000" stroke-linecap="round" stroke-linejoin="round" stroke-width="7.000000"
	d="
M1410.000000,53.500000 
	C1410.000000,280.666656 1410.000000,507.833344 1410.000000,735.000000 
"/>
<path fill="none" opacity="1.000000" stroke="#000000" stroke-linecap="round" stroke-linejoin="round" stroke-width="7.000000"
	d="
M1433.000000,53.500000 
	C1433.000000,280.666656 1433.000000,507.833344 1433.000000,735.000000 
"/>
<path fill="none" opacity="1.000000" stroke="#000000" stroke-linecap="round" stroke-linejoin="round" stroke-width="7.000000"
	d="
M963.000000,53.500000 
	C963.000000,280.666656 963.000000,507.833344 963.000000,735.000000 
"/>
<path fill="none" opacity="1.000000" stroke="#000000" stroke-linecap="round" stroke-linejoin="round" stroke-width="7.000000"
	d="
M1522.000000,53.500000 
	C1522.000000,280.666656 1522.000000,507.833344 1522.000000,735.000000 
"/>
<path fill="none" opacity="1.000000" stroke="#000000" stroke-linecap="round" stroke-linejoin="round" stroke-width="7.000000"
	d="
M1544.000000,53.500000 
	C1544.000000,280.666656 1544.000000,507.833344 1544.000000,735.000000 
"/>
<path fill="none" opacity="1.000000" stroke="#000000" stroke-linecap="round" stroke-linejoin="round" stroke-width="7.000000"
	d="
M1567.000000,53.500000 
	C1567.000000,280.666656 1567.000000,507.833344 1567.000000,735.000000 
"/>
<path fill="none" opacity="1.000000" stroke="#000000" stroke-linecap="round" stroke-linejoin="round" stroke-width="7.000000"
	d="
M1589.000000,53.500000 
	C1589.000000,280.666656 1589.000000,507.833344 1589.000000,735.000000 
"/>
<path fill="none" opacity="1.000000" stroke="#000000" stroke-linecap="round" stroke-linejoin="round" stroke-width="7.000000"
	d="
M1701.000000,53.500000 
	C1701.000000,280.666656 1701.000000,507.833344 1701.000000,735.000000 
"/>
<path fill="none" opacity="1.000000" stroke="#000000" stroke-linecap="round" stroke-linejoin="round" stroke-width="7.000000"
	d="
M1723.000000,53.500000 
	C1723.000000,280.666656 1723.000000,507.833344 1723.000000,735.000000 
"/>
<path fill="none" opacity="1.000000" stroke="#000000" stroke-linecap="round" stroke-linejoin="round" stroke-width="7.000000"
	d="
M1746.000000,53.500000 
	C1746.000000,280.666656 1746.000000,507.833344 1746.000000,735.000000 
"/>
<path fill="none" opacity="1.000000" stroke="#000000" stroke-linecap="round" stroke-linejoin="round" stroke-width="7.000000"
	d="
M1768.000000,53.500000 
	C1768.000000,280.666656 1768.000000,507.833344 1768.000000,735.000000 
"/>
<path fill="none" opacity="1.000000" stroke="#000000" stroke-linecap="round" stroke-linejoin="round" stroke-width="7.000000"
	d="
M1812.000000,53.500000 
	C1812.000000,280.666656 1812.000000,507.833344 1812.000000,735.000000 
"/>
<path fill="none" opacity="1.000000" stroke="#000000" stroke-linecap="round" stroke-linejoin="round" stroke-width="7.000000"
	d="
M1857.000000,53.500000 
	C1857.000000,280.666656 1857.000000,507.833344 1857.000000,735.000000 
"/>
<path fill="none" opacity="1.000000" stroke="#000000" stroke-linecap="round" stroke-linejoin="round" stroke-width="7.000000"
	d="
M494.000000,53.500000 
	C494.000000,280.666656 494.000000,507.833344 494.000000,735.000000 
"/>
<path fill="none" opacity="1.000000" stroke="#000000" stroke-linecap="round" stroke-linejoin="round" stroke-width="7.000000"
	d="
M3735.000000,53.500000 
	C3735.000000,280.666656 3735.000000,507.833344 3735.000000,735.000000 
"/>
<path fill="none" opacity="1.000000" stroke="#000000" stroke-linecap="round" stroke-linejoin="round" stroke-width="7.000000"
	d="
M80.000000,53.500000 
	C80.000000,280.666656 80.000000,507.833344 80.000000,735.000000 
"/>
<path fill="none" opacity="1.000000" stroke="#000000" stroke-linecap="round" stroke-linejoin="round" stroke-width="7.000000"
	d="
M113.000000,53.500000 
	C113.000000,280.666656 113.000000,507.833344 113.000000,735.000000 
"/>
<path fill="none" opacity="1.000000" stroke="#000000" stroke-linecap="round" stroke-linejoin="round" stroke-width="7.000000"
	d="
M158.000000,53.500000 
	C158.000000,280.666656 158.000000,507.833344 158.000000,735.000000 
"/>
<path fill="none" opacity="1.000000" stroke="#000000" stroke-linecap="round" stroke-linejoin="round" stroke-width="7.000000"
	d="
M270.000000,53.500000 
	C270.000000,280.666656 270.000000,507.833344 270.000000,735.000000 
"/>
<path fill="none" opacity="1.000000" stroke="#000000" stroke-linecap="round" stroke-linejoin="round" stroke-width="7.000000"
	d="
M292.000000,53.500000 
	C292.000000,280.666656 292.000000,507.833344 292.000000,735.000000 
"/>
<path fill="none" opacity="1.000000" stroke="#000000" stroke-linecap="round" stroke-linejoin="round" stroke-width="7.000000"
	d="
M315.000000,53.500000 
	C315.000000,280.666656 315.000000,507.833344 315.000000,735.000000 
"/>
<path fill="none" opacity="1.000000" stroke="#000000" stroke-linecap="round" stroke-linejoin="round" stroke-width="7.000000"
	d="
M337.000000,53.500000 
	C337.000000,280.666656 337.000000,507.833344 337.000000,735.000000 
"/>
<path fill="none" opacity="1.000000" stroke="#000000" stroke-linecap="round" stroke-linejoin="round" stroke-width="7.000000"
	d="
M405.000000,53.500000 
	C405.000000,280.666656 405.000000,507.833344 405.000000,735.000000 
"/>
<path fill="none" opacity="1.000000" stroke="#000000" stroke-linecap="round" stroke-linejoin="round" stroke-width="7.000000"
	d="
M449.000000,53.500000 
	C449.000000,280.666656 449.000000,507.833344 449.000000,735.000000 
"/>
<path fill="none" opacity="1.000000" stroke="#000000" stroke-linecap="round" stroke-linejoin="round" stroke-width="7.000000"
	d="
M471.000000,53.500000 
	C471.000000,280.666656 471.000000,507.833344 471.000000,735.000000 
"/>
<path fill="none" opacity="1.000000" stroke="#000000" stroke-linecap="round" stroke-linejoin="round" stroke-width="7.000000"
	d="
M1925.000000,53.500000 
	C1925.000000,280.666656 1925.000000,507.833344 1925.000000,735.000000 
"/>
<path fill="none" opacity="1.000000" stroke="#000000" stroke-linecap="round" stroke-linejoin="round" stroke-width="7.000000"
	d="
M516.000000,53.500000 
	C516.000000,280.666656 516.000000,507.833344 516.000000,735.000000 
"/>
<path fill="none" opacity="1.000000" stroke="#000000" stroke-linecap="round" stroke-linejoin="round" stroke-width="7.000000"
	d="
M560.000000,53.500000 
	C560.000000,280.666656 560.000000,507.833344 560.000000,735.000000 
"/>
<path fill="none" opacity="1.000000" stroke="#000000" stroke-linecap="round" stroke-linejoin="round" stroke-width="7.000000"
	d="
M605.000000,53.500000 
	C605.000000,280.666656 605.000000,507.833344 605.000000,735.000000 
"/>
<path fill="none" opacity="1.000000" stroke="#000000" stroke-linecap="round" stroke-linejoin="round" stroke-width="7.000000"
	d="
M650.000000,53.500000 
	C650.000000,280.666656 650.000000,507.833344 650.000000,735.000000 
"/>
<path fill="none" opacity="1.000000" stroke="#000000" stroke-linecap="round" stroke-linejoin="round" stroke-width="7.000000"
	d="
M695.000000,53.500000 
	C695.000000,280.666656 695.000000,507.833344 695.000000,735.000000 
"/>
<path fill="none" opacity="1.000000" stroke="#000000" stroke-linecap="round" stroke-linejoin="round" stroke-width="7.000000"
	d="
M739.000000,53.500000 
	C739.000000,280.666656 739.000000,507.833344 739.000000,735.000000 
"/>
<path fill="none" opacity="1.000000" stroke="#000000" stroke-linecap="round" stroke-linejoin="round" stroke-width="7.000000"
	d="
M784.000000,53.500000 
	C784.000000,280.666656 784.000000,507.833344 784.000000,735.000000 
"/>
<path fill="none" opacity="1.000000" stroke="#000000" stroke-linecap="round" stroke-linejoin="round" stroke-width="7.000000"
	d="
M896.000000,53.500000 
	C896.000000,280.666656 896.000000,507.833344 896.000000,735.000000 
"/>
<path fill="none" opacity="1.000000" stroke="#000000" stroke-linecap="round" stroke-linejoin="round" stroke-width="7.000000"
	d="
M918.000000,53.500000 
	C918.000000,280.666656 918.000000,507.833344 918.000000,735.000000 
"/>
<path fill="none" opacity="1.000000" stroke="#000000" stroke-linecap="round" stroke-linejoin="round" stroke-width="7.000000"
	d="
M941.000000,53.500000 
	C941.000000,280.666656 941.000000,507.833344 941.000000,735.000000 
"/>
<path fill="none" opacity="1.000000" stroke="#000000" stroke-linecap="round" stroke-linejoin="round" stroke-width="7.000000"
	d="
M3847.000000,53.500000 
	C3847.000000,280.666656 3847.000000,507.833344 3847.000000,735.000000 
"/>
<path fill="none" opacity="1.000000" stroke="#000000" stroke-linecap="round" stroke-linejoin="round" stroke-width="7.000000"
	d="
M2930.000000,53.500000 
	C2930.000000,280.666656 2930.000000,507.833344 2930.000000,735.000000 
"/>
<path fill="none" opacity="1.000000" stroke="#000000" stroke-linecap="round" stroke-linejoin="round" stroke-width="7.000000"
	d="
M2953.000000,53.500000 
	C2953.000000,280.666656 2953.000000,507.833344 2953.000000,735.000000 
"/>
<path fill="none" opacity="1.000000" stroke="#000000" stroke-linecap="round" stroke-linejoin="round" stroke-width="7.000000"
	d="
M2998.000000,53.500000 
	C2998.000000,280.666656 2998.000000,507.833344 2998.000000,735.000000 
"/>
<path fill="none" opacity="1.000000" stroke="#000000" stroke-linecap="round" stroke-linejoin="round" stroke-width="7.000000"
	d="
M3042.000000,53.500000 
	C3042.000000,280.666656 3042.000000,507.833344 3042.000000,735.000000 
"/>
<path fill="none" opacity="1.000000" stroke="#000000" stroke-linecap="round" stroke-linejoin="round" stroke-width="7.000000"
	d="
M3064.000000,53.500000 
	C3064.000000,280.666656 3064.000000,507.833344 3064.000000,735.000000 
"/>
<path fill="none" opacity="1.000000" stroke="#000000" stroke-linecap="round" stroke-linejoin="round" stroke-width="7.000000"
	d="
M3087.000000,53.500000 
	C3087.000000,280.666656 3087.000000,507.833344 3087.000000,735.000000 
"/>
<path fill="none" opacity="1.000000" stroke="#000000" stroke-linecap="round" stroke-linejoin="round" stroke-width="7.000000"
	d="
M3109.000000,53.500000 
	C3109.000000,280.666656 3109.000000,507.833344 3109.000000,735.000000 
"/>
<path fill="none" opacity="1.000000" stroke="#000000" stroke-linecap="round" stroke-linejoin="round" stroke-width="7.000000"
	d="
M3177.000000,53.500000 
	C3177.000000,280.666656 3177.000000,507.833344 3177.000000,735.000000 
"/>
<path fill="none" opacity="1.000000" stroke="#000000" stroke-linecap="round" stroke-linejoin="round" stroke-width="7.000000"
	d="
M3221.000000,53.500000 
	C3221.000000,280.666656 3221.000000,507.833344 3221.000000,735.000000 
"/>
<path fill="none" opacity="1.000000" stroke="#000000" stroke-linecap="round" stroke-linejoin="round" stroke-width="7.000000"
	d="
M3243.000000,53.500000 
	C3243.000000,280.666656 3243.000000,507.833344 3243.000000,735.000000 
"/>
<path fill="none" opacity="1.000000" stroke="#000000" stroke-linecap="round" stroke-linejoin="round" stroke-width="7.000000"
	d="
M3266.000000,53.500000 
	C3266.000000,280.666656 3266.000000,507.833344 3266.000000,735.000000 
"/>
<path fill="none" opacity="1.000000" stroke="#000000" stroke-linecap="round" stroke-linejoin="round" stroke-width="7.000000"
	d="
M2885.000000,53.500000 
	C2885.000000,280.666656 2885.000000,507.833344 2885.000000,735.000000 
"/>
<path fill="none" opacity="1.000000" stroke="#000000" stroke-linecap="round" stroke-linejoin="round" stroke-width="7.000000"
	d="
M3288.000000,53.500000 
	C3288.000000,280.666656 3288.000000,507.833344 3288.000000,735.000000 
"/>
<path fill="none" opacity="1.000000" stroke="#000000" stroke-linecap="round" stroke-linejoin="round" stroke-width="7.000000"
	d="
M3332.000000,53.500000 
	C3332.000000,280.666656 3332.000000,507.833344 3332.000000,735.000000 
"/>
<path fill="none" opacity="1.000000" stroke="#000000" stroke-linecap="round" stroke-linejoin="round" stroke-width="7.000000"
	d="
M3377.000000,53.500000 
	C3377.000000,280.666656 3377.000000,507.833344 3377.000000,735.000000 
"/>
<path fill="none" opacity="1.000000" stroke="#000000" stroke-linecap="round" stroke-linejoin="round" stroke-width="7.000000"
	d="
M3422.000000,53.500000 
	C3422.000000,280.666656 3422.000000,507.833344 3422.000000,735.000000 
"/>
<path fill="none" opacity="1.000000" stroke="#000000" stroke-linecap="round" stroke-linejoin="round" stroke-width="7.000000"
	d="
M3713.000000,53.500000 
	C3713.000000,280.666656 3713.000000,507.833344 3713.000000,735.000000 
"/>
<path fill="none" opacity="1.000000" stroke="#000000" stroke-linecap="round" stroke-linejoin="round" stroke-width="7.000000"
	d="
M3445.000000,53.500000 
	C3445.000000,280.666656 3445.000000,507.833344 3445.000000,735.000000 
"/>
<path fill="none" opacity="1.000000" stroke="#000000" stroke-linecap="round" stroke-linejoin="round" stroke-width="7.000000"
	d="
M3467.000000,53.500000 
	C3467.000000,280.666656 3467.000000,507.833344 3467.000000,735.000000 
"/>
<path fill="none" opacity="1.000000" stroke="#000000" stroke-linecap="round" stroke-linejoin="round" stroke-width="7.000000"
	d="
M3579.000000,53.500000 
	C3579.000000,280.666656 3579.000000,507.833344 3579.000000,735.000000 
"/>
<path fill="none" opacity="1.000000" stroke="#000000" stroke-linecap="round" stroke-linejoin="round" stroke-width="7.000000"
	d="
M3624.000000,53.500000 
	C3624.000000,280.666656 3624.000000,507.833344 3624.000000,735.000000 
"/>
<path fill="none" opacity="1.000000" stroke="#000000" stroke-linecap="round" stroke-linejoin="round" stroke-width="7.000000"
	d="
M3668.000000,53.500000 
	C3668.000000,280.666656 3668.000000,507.833344 3668.000000,735.000000 
"/>
<path fill="none" opacity="1.000000" stroke="#000000" stroke-linecap="round" stroke-linejoin="round" stroke-width="7.000000"
	d="
M2438.000000,53.500000 
	C2438.000000,280.666656 2438.000000,507.833344 2438.000000,735.000000 
"/>
<path fill="none" opacity="1.000000" stroke="#000000" stroke-linecap="round" stroke-linejoin="round" stroke-width="7.000000"
	d="
M1969.000000,53.500000 
	C1969.000000,280.666656 1969.000000,507.833344 1969.000000,735.000000 
"/>
<path fill="none" opacity="1.000000" stroke="#000000" stroke-linecap="round" stroke-linejoin="round" stroke-width="7.000000"
	d="
M1991.000000,53.500000 
	C1991.000000,280.666656 1991.000000,507.833344 1991.000000,735.000000 
"/>
<path fill="none" opacity="1.000000" stroke="#000000" stroke-linecap="round" stroke-linejoin="round" stroke-width="7.000000"
	d="
M2014.000000,53.500000 
	C2014.000000,280.666656 2014.000000,507.833344 2014.000000,735.000000 
"/>
<path fill="none" opacity="1.000000" stroke="#000000" stroke-linecap="round" stroke-linejoin="round" stroke-width="7.000000"
	d="
M2036.000000,53.500000 
	C2036.000000,280.666656 2036.000000,507.833344 2036.000000,735.000000 
"/>
<path fill="none" opacity="1.000000" stroke="#000000" stroke-linecap="round" stroke-linejoin="round" stroke-width="7.000000"
	d="
M2148.000000,53.500000 
	C2148.000000,280.666656 2148.000000,507.833344 2148.000000,735.000000 
"/>
<path fill="none" opacity="1.000000" stroke="#000000" stroke-linecap="round" stroke-linejoin="round" stroke-width="7.000000"
	d="
M2170.000000,53.500000 
	C2170.000000,280.666656 2170.000000,507.833344 2170.000000,735.000000 
"/>
<path fill="none" opacity="1.000000" stroke="#000000" stroke-linecap="round" stroke-linejoin="round" stroke-width="7.000000"
	d="
M2193.000000,53.500000 
	C2193.000000,280.666656 2193.000000,507.833344 2193.000000,735.000000 
"/>
<path fill="none" opacity="1.000000" stroke="#000000" stroke-linecap="round" stroke-linejoin="round" stroke-width="7.000000"
	d="
M2215.000000,53.500000 
	C2215.000000,280.666656 2215.000000,507.833344 2215.000000,735.000000 
"/>
<path fill="none" opacity="1.000000" stroke="#000000" stroke-linecap="round" stroke-linejoin="round" stroke-width="7.000000"
	d="
M2259.000000,53.500000 
	C2259.000000,280.666656 2259.000000,507.833344 2259.000000,735.000000 
"/>
<path fill="none" opacity="1.000000" stroke="#000000" stroke-linecap="round" stroke-linejoin="round" stroke-width="7.000000"
	d="
M2304.000000,53.500000 
	C2304.000000,280.666656 2304.000000,507.833344 2304.000000,735.000000 
"/>
<path fill="none" opacity="1.000000" stroke="#000000" stroke-linecap="round" stroke-linejoin="round" stroke-width="7.000000"
	d="
M2394.000000,53.500000 
	C2394.000000,280.666656 2394.000000,507.833344 2394.000000,735.000000 
"/>
<path fill="none" opacity="1.000000" stroke="#000000" stroke-linecap="round" stroke-linejoin="round" stroke-width="7.000000"
	d="
M3690.000000,53.500000 
	C3690.000000,280.666656 3690.000000,507.833344 3690.000000,735.000000 
"/>
<path fill="none" opacity="1.000000" stroke="#000000" stroke-linecap="round" stroke-linejoin="round" stroke-width="7.000000"
	d="
M2506.000000,53.500000 
	C2506.000000,280.666656 2506.000000,507.833344 2506.000000,735.000000 
"/>
<path fill="none" opacity="1.000000" stroke="#000000" stroke-linecap="round" stroke-linejoin="round" stroke-width="7.000000"
	d="
M2551.000000,53.500000 
	C2551.000000,280.666656 2551.000000,507.833344 2551.000000,735.000000 
"/>
<path fill="none" opacity="1.000000" stroke="#000000" stroke-linecap="round" stroke-linejoin="round" stroke-width="7.000000"
	d="
M2595.000000,53.500000 
	C2595.000000,280.666656 2595.000000,507.833344 2595.000000,735.000000 
"/>
<path fill="none" opacity="1.000000" stroke="#000000" stroke-linecap="round" stroke-linejoin="round" stroke-width="7.000000"
	d="
M2617.000000,53.500000 
	C2617.000000,280.666656 2617.000000,507.833344 2617.000000,735.000000 
"/>
<path fill="none" opacity="1.000000" stroke="#000000" stroke-linecap="round" stroke-linejoin="round" stroke-width="7.000000"
	d="
M2640.000000,53.500000 
	C2640.000000,280.666656 2640.000000,507.833344 2640.000000,735.000000 
"/>
<path fill="none" opacity="1.000000" stroke="#000000" stroke-linecap="round" stroke-linejoin="round" stroke-width="7.000000"
	d="
M2662.000000,53.500000 
	C2662.000000,280.666656 2662.000000,507.833344 2662.000000,735.000000 
"/>
<path fill="none" opacity="1.000000" stroke="#000000" stroke-linecap="round" stroke-linejoin="round" stroke-width="7.000000"
	d="
M2774.000000,53.500000 
	C2774.000000,280.666656 2774.000000,507.833344 2774.000000,735.000000 
"/>
<path fill="none" opacity="1.000000" stroke="#000000" stroke-linecap="round" stroke-linejoin="round" stroke-width="7.000000"
	d="
M2796.000000,53.500000 
	C2796.000000,280.666656 2796.000000,507.833344 2796.000000,735.000000 
"/>
<path fill="none" opacity="1.000000" stroke="#000000" stroke-linecap="round" stroke-linejoin="round" stroke-width="7.000000"
	d="
M2819.000000,53.500000 
	C2819.000000,280.666656 2819.000000,507.833344 2819.000000,735.000000 
"/>
<path fill="none" opacity="1.000000" stroke="#000000" stroke-linecap="round" stroke-linejoin="round" stroke-width="7.000000"
	d="
M2841.000000,53.500000 
	C2841.000000,280.666656 2841.000000,507.833344 2841.000000,735.000000 
"/>
<path fill="none" opacity="1.000000" stroke="#000000" stroke-linecap="round" stroke-linejoin="round" stroke-width="8.000000"
	d="
M1633.500000,53.500000 
	C1633.500000,280.500000 1633.500000,507.500000 1633.500000,734.500000 
"/>
<path fill="none" opacity="1.000000" stroke="#000000" stroke-linecap="round" stroke-linejoin="round" stroke-width="8.000000"
	d="
M1052.500000,53.500000 
	C1052.500000,280.500000 1052.500000,507.500000 1052.500000,734.500000 
"/>
<path fill="none" opacity="1.000000" stroke="#000000" stroke-linecap="round" stroke-linejoin="round" stroke-width="8.000000"
	d="
M1164.500000,53.500000 
	C1164.500000,280.500000 1164.500000,507.500000 1164.500000,734.500000 
"/>
<path fill="none" opacity="1.000000" stroke="#000000" stroke-linecap="round" stroke-linejoin="round" stroke-width="8.000000"
	d="
M1209.500000,53.500000 
	C1209.500000,280.500000 1209.500000,507.500000 1209.500000,734.500000 
"/>
<path fill="none" opacity="1.000000" stroke="#000000" stroke-linecap="round" stroke-linejoin="round" stroke-width="8.000000"
	d="
M1253.500000,53.500000 
	C1253.500000,280.500000 1253.500000,507.500000 1253.500000,734.500000 
"/>
<path fill="none" opacity="1.000000" stroke="#000000" stroke-linecap="round" stroke-linejoin="round" stroke-width="8.000000"
	d="
M1275.500000,53.500000 
	C1275.500000,280.500000 1275.500000,507.500000 1275.500000,734.500000 
"/>
<path fill="none" opacity="1.000000" stroke="#000000" stroke-linecap="round" stroke-linejoin="round" stroke-width="8.000000"
	d="
M1298.500000,53.500000 
	C1298.500000,280.500000 1298.500000,507.500000 1298.500000,734.500000 
"/>
<path fill="none" opacity="1.000000" stroke="#000000" stroke-linecap="round" stroke-linejoin="round" stroke-width="8.000000"
	d="
M1320.500000,53.500000 
	C1320.500000,280.500000 1320.500000,507.500000 1320.500000,734.500000 
"/>
<path fill="none" opacity="1.000000" stroke="#000000" stroke-linecap="round" stroke-linejoin="round" stroke-width="8.000000"
	d="
M1454.500000,53.500000 
	C1454.500000,280.500000 1454.500000,507.500000 1454.500000,734.500000 
"/>
<path fill="none" opacity="1.000000" stroke="#000000" stroke-linecap="round" stroke-linejoin="round" stroke-width="8.000000"
	d="
M1499.500000,53.500000 
	C1499.500000,280.500000 1499.500000,507.500000 1499.500000,734.500000 
"/>
<path fill="none" opacity="1.000000" stroke="#000000" stroke-linecap="round" stroke-linejoin="round" stroke-width="8.000000"
	d="
M1611.500000,53.500000 
	C1611.500000,280.500000 1611.500000,507.500000 1611.500000,734.500000 
"/>
<path fill="none" opacity="1.000000" stroke="#000000" stroke-linecap="round" stroke-linejoin="round" stroke-width="8.000000"
	d="
M1030.500000,53.500000 
	C1030.500000,280.500000 1030.500000,507.500000 1030.500000,734.500000 
"/>
<path fill="none" opacity="1.000000" stroke="#000000" stroke-linecap="round" stroke-linejoin="round" stroke-width="8.000000"
	d="
M1656.500000,53.500000 
	C1656.500000,280.500000 1656.500000,507.500000 1656.500000,734.500000 
"/>
<path fill="none" opacity="1.000000" stroke="#000000" stroke-linecap="round" stroke-linejoin="round" stroke-width="8.000000"
	d="
M1678.500000,53.500000 
	C1678.500000,280.500000 1678.500000,507.500000 1678.500000,734.500000 
"/>
<path fill="none" opacity="1.000000" stroke="#000000" stroke-linecap="round" stroke-linejoin="round" stroke-width="8.000000"
	d="
M1790.500000,53.500000 
	C1790.500000,280.500000 1790.500000,507.500000 1790.500000,734.500000 
"/>
<path fill="none" opacity="1.000000" stroke="#000000" stroke-linecap="round" stroke-linejoin="round" stroke-width="8.000000"
	d="
M1835.500000,53.500000 
	C1835.500000,280.500000 1835.500000,507.500000 1835.500000,734.500000 
"/>
<path fill="none" opacity="1.000000" stroke="#000000" stroke-linecap="round" stroke-linejoin="round" stroke-width="8.000000"
	d="
M1879.500000,53.500000 
	C1879.500000,280.500000 1879.500000,507.500000 1879.500000,734.500000 
"/>
<path fill="none" opacity="1.000000" stroke="#000000" stroke-linecap="round" stroke-linejoin="round" stroke-width="8.000000"
	d="
M1901.500000,53.500000 
	C1901.500000,280.500000 1901.500000,507.500000 1901.500000,734.500000 
"/>
<path fill="none" opacity="1.000000" stroke="#000000" stroke-linecap="round" stroke-linejoin="round" stroke-width="8.000000"
	d="
M1946.500000,53.500000 
	C1946.500000,280.500000 1946.500000,507.500000 1946.500000,734.500000 
"/>
<path fill="none" opacity="1.000000" stroke="#000000" stroke-linecap="round" stroke-linejoin="round" stroke-width="8.000000"
	d="
M2058.500000,53.500000 
	C2058.500000,280.500000 2058.500000,507.500000 2058.500000,734.500000 
"/>
<path fill="none" opacity="1.000000" stroke="#000000" stroke-linecap="round" stroke-linejoin="round" stroke-width="8.000000"
	d="
M2080.500000,53.500000 
	C2080.500000,280.500000 2080.500000,507.500000 2080.500000,734.500000 
"/>
<path fill="none" opacity="1.000000" stroke="#000000" stroke-linecap="round" stroke-linejoin="round" stroke-width="8.000000"
	d="
M627.500000,53.500000 
	C627.500000,280.500000 627.500000,507.500000 627.500000,734.500000 
"/>
<path fill="none" opacity="1.000000" stroke="#000000" stroke-linecap="round" stroke-linejoin="round" stroke-width="8.000000"
	d="
M136.500000,53.500000 
	C136.500000,280.500000 136.500000,507.500000 136.500000,734.500000 
"/>
<path fill="none" opacity="1.000000" stroke="#000000" stroke-linecap="round" stroke-linejoin="round" stroke-width="8.000000"
	d="
M180.500000,53.500000 
	C180.500000,280.500000 180.500000,507.500000 180.500000,734.500000 
"/>
<path fill="none" opacity="1.000000" stroke="#000000" stroke-linecap="round" stroke-linejoin="round" stroke-width="8.000000"
	d="
M202.500000,53.500000 
	C202.500000,280.500000 202.500000,507.500000 202.500000,734.500000 
"/>
<path fill="none" opacity="1.000000" stroke="#000000" stroke-linecap="round" stroke-linejoin="round" stroke-width="8.000000"
	d="
M225.500000,53.500000 
	C225.500000,280.500000 225.500000,507.500000 225.500000,734.500000 
"/>
<path fill="none" opacity="1.000000" stroke="#000000" stroke-linecap="round" stroke-linejoin="round" stroke-width="8.000000"
	d="
M247.500000,53.500000 
	C247.500000,280.500000 247.500000,507.500000 247.500000,734.500000 
"/>
<path fill="none" opacity="1.000000" stroke="#000000" stroke-linecap="round" stroke-linejoin="round" stroke-width="8.000000"
	d="
M359.500000,53.500000 
	C359.500000,280.500000 359.500000,507.500000 359.500000,734.500000 
"/>
<path fill="none" opacity="1.000000" stroke="#000000" stroke-linecap="round" stroke-linejoin="round" stroke-width="8.000000"
	d="
M381.500000,53.500000 
	C381.500000,280.500000 381.500000,507.500000 381.500000,734.500000 
"/>
<path fill="none" opacity="1.000000" stroke="#000000" stroke-linecap="round" stroke-linejoin="round" stroke-width="8.000000"
	d="
M426.500000,53.500000 
	C426.500000,280.500000 426.500000,507.500000 426.500000,734.500000 
"/>
<path fill="none" opacity="1.000000" stroke="#000000" stroke-linecap="round" stroke-linejoin="round" stroke-width="8.000000"
	d="
M538.500000,53.500000 
	C538.500000,280.500000 538.500000,507.500000 538.500000,734.500000 
"/>
<path fill="none" opacity="1.000000" stroke="#000000" stroke-linecap="round" stroke-linejoin="round" stroke-width="8.000000"
	d="
M583.500000,53.500000 
	C583.500000,280.500000 583.500000,507.500000 583.500000,734.500000 
"/>
<path fill="none" opacity="1.000000" stroke="#000000" stroke-linecap="round" stroke-linejoin="round" stroke-width="8.000000"
	d="
M2103.500000,53.500000 
	C2103.500000,280.500000 2103.500000,507.500000 2103.500000,734.500000 
"/>
<path fill="none" opacity="1.000000" stroke="#000000" stroke-linecap="round" stroke-linejoin="round" stroke-width="8.000000"
	d="
M672.500000,53.500000 
	C672.500000,280.500000 672.500000,507.500000 672.500000,734.500000 
"/>
<path fill="none" opacity="1.000000" stroke="#000000" stroke-linecap="round" stroke-linejoin="round" stroke-width="8.000000"
	d="
M717.500000,53.500000 
	C717.500000,280.500000 717.500000,507.500000 717.500000,734.500000 
"/>
<path fill="none" opacity="1.000000" stroke="#000000" stroke-linecap="round" stroke-linejoin="round" stroke-width="8.000000"
	d="
M762.500000,53.500000 
	C762.500000,280.500000 762.500000,507.500000 762.500000,734.500000 
"/>
<path fill="none" opacity="1.000000" stroke="#000000" stroke-linecap="round" stroke-linejoin="round" stroke-width="8.000000"
	d="
M806.500000,53.500000 
	C806.500000,280.500000 806.500000,507.500000 806.500000,734.500000 
"/>
<path fill="none" opacity="1.000000" stroke="#000000" stroke-linecap="round" stroke-linejoin="round" stroke-width="8.000000"
	d="
M828.500000,53.500000 
	C828.500000,280.500000 828.500000,507.500000 828.500000,734.500000 
"/>
<path fill="none" opacity="1.000000" stroke="#000000" stroke-linecap="round" stroke-linejoin="round" stroke-width="8.000000"
	d="
M851.500000,53.500000 
	C851.500000,280.500000 851.500000,507.500000 851.500000,734.500000 
"/>
<path fill="none" opacity="1.000000" stroke="#000000" stroke-linecap="round" stroke-linejoin="round" stroke-width="8.000000"
	d="
M873.500000,53.500000 
	C873.500000,280.500000 873.500000,507.500000 873.500000,734.500000 
"/>
<path fill="none" opacity="1.000000" stroke="#000000" stroke-linecap="round" stroke-linejoin="round" stroke-width="8.000000"
	d="
M985.500000,53.500000 
	C985.500000,280.500000 985.500000,507.500000 985.500000,734.500000 
"/>
<path fill="none" opacity="1.000000" stroke="#000000" stroke-linecap="round" stroke-linejoin="round" stroke-width="8.000000"
	d="
M1007.500000,53.500000 
	C1007.500000,280.500000 1007.500000,507.500000 1007.500000,734.500000 
"/>
<path fill="none" opacity="1.000000" stroke="#000000" stroke-linecap="round" stroke-linejoin="round" stroke-width="8.000000"
	d="
M3556.500000,53.500000 
	C3556.500000,280.500000 3556.500000,507.500000 3556.500000,734.500000 
"/>
<path fill="none" opacity="1.000000" stroke="#000000" stroke-linecap="round" stroke-linejoin="round" stroke-width="8.000000"
	d="
M3019.500000,53.500000 
	C3019.500000,280.500000 3019.500000,507.500000 3019.500000,734.500000 
"/>
<path fill="none" opacity="1.000000" stroke="#000000" stroke-linecap="round" stroke-linejoin="round" stroke-width="8.000000"
	d="
M3131.500000,53.500000 
	C3131.500000,280.500000 3131.500000,507.500000 3131.500000,734.500000 
"/>
<path fill="none" opacity="1.000000" stroke="#000000" stroke-linecap="round" stroke-linejoin="round" stroke-width="8.000000"
	d="
M3198.500000,53.500000 
	C3198.500000,280.500000 3198.500000,507.500000 3198.500000,734.500000 
"/>
<path fill="none" opacity="1.000000" stroke="#000000" stroke-linecap="round" stroke-linejoin="round" stroke-width="8.000000"
	d="
M3310.500000,53.500000 
	C3310.500000,280.500000 3310.500000,507.500000 3310.500000,734.500000 
"/>
<path fill="none" opacity="1.000000" stroke="#000000" stroke-linecap="round" stroke-linejoin="round" stroke-width="8.000000"
	d="
M3355.500000,53.500000 
	C3355.500000,280.500000 3355.500000,507.500000 3355.500000,734.500000 
"/>
<path fill="none" opacity="1.000000" stroke="#000000" stroke-linecap="round" stroke-linejoin="round" stroke-width="8.000000"
	d="
M3399.500000,53.500000 
	C3399.500000,280.500000 3399.500000,507.500000 3399.500000,734.500000 
"/>
<path fill="none" opacity="1.000000" stroke="#000000" stroke-linecap="round" stroke-linejoin="round" stroke-width="8.000000"
	d="
M3489.500000,53.500000 
	C3489.500000,280.500000 3489.500000,507.500000 3489.500000,734.500000 
"/>
<path fill="none" opacity="1.000000" stroke="#000000" stroke-linecap="round" stroke-linejoin="round" stroke-width="8.000000"
	d="
M3511.500000,53.500000 
	C3511.500000,280.500000 3511.500000,507.500000 3511.500000,734.500000 
"/>
<path fill="none" opacity="1.000000" stroke="#000000" stroke-linecap="round" stroke-linejoin="round" stroke-width="8.000000"
	d="
M3534.500000,53.500000 
	C3534.500000,280.500000 3534.500000,507.500000 3534.500000,734.500000 
"/>
<path fill="none" opacity="1.000000" stroke="#000000" stroke-linecap="round" stroke-linejoin="round" stroke-width="8.000000"
	d="
M3153.500000,53.500000 
	C3153.500000,280.500000 3153.500000,507.500000 3153.500000,734.500000 
"/>
<path fill="none" opacity="1.000000" stroke="#000000" stroke-linecap="round" stroke-linejoin="round" stroke-width="8.000000"
	d="
M3600.500000,53.500000 
	C3600.500000,280.500000 3600.500000,507.500000 3600.500000,734.500000 
"/>
<path fill="none" opacity="1.000000" stroke="#000000" stroke-linecap="round" stroke-linejoin="round" stroke-width="8.000000"
	d="
M3645.500000,53.500000 
	C3645.500000,280.500000 3645.500000,507.500000 3645.500000,734.500000 
"/>
<path fill="none" opacity="1.000000" stroke="#000000" stroke-linecap="round" stroke-linejoin="round" stroke-width="8.000000"
	d="
M3757.500000,53.500000 
	C3757.500000,280.500000 3757.500000,507.500000 3757.500000,734.500000 
"/>
<path fill="none" opacity="1.000000" stroke="#000000" stroke-linecap="round" stroke-linejoin="round" stroke-width="8.000000"
	d="
M3779.500000,53.500000 
	C3779.500000,280.500000 3779.500000,507.500000 3779.500000,734.500000 
"/>
<path fill="none" opacity="1.000000" stroke="#000000" stroke-linecap="round" stroke-linejoin="round" stroke-width="8.000000"
	d="
M3802.500000,53.500000 
	C3802.500000,280.500000 3802.500000,507.500000 3802.500000,734.500000 
"/>
<path fill="none" opacity="1.000000" stroke="#000000" stroke-linecap="round" stroke-linejoin="round" stroke-width="8.000000"
	d="
M3824.500000,53.500000 
	C3824.500000,280.500000 3824.500000,507.500000 3824.500000,734.500000 
"/>
<path fill="none" opacity="1.000000" stroke="#000000" stroke-linecap="round" stroke-linejoin="round" stroke-width="8.000000"
	d="
M3835.500000,53.500000 
	C3835.500000,280.500000 3835.500000,507.500000 3835.500000,734.500000 
"/>
<path fill="none" opacity="1.000000" stroke="#000000" stroke-linecap="round" stroke-linejoin="round" stroke-width="8.000000"
	d="
M91.500000,53.500000 
	C91.500000,280.500000 91.500000,507.500000 91.500000,734.500000 
"/>
<path fill="none" opacity="1.000000" stroke="#000000" stroke-linecap="round" stroke-linejoin="round" stroke-width="8.000000"
	d="
M2461.500000,53.500000 
	C2461.500000,280.500000 2461.500000,507.500000 2461.500000,734.500000 
"/>
<path fill="none" opacity="1.000000" stroke="#000000" stroke-linecap="round" stroke-linejoin="round" stroke-width="8.000000"
	d="
M2125.500000,53.500000 
	C2125.500000,280.500000 2125.500000,507.500000 2125.500000,734.500000 
"/>
<path fill="none" opacity="1.000000" stroke="#000000" stroke-linecap="round" stroke-linejoin="round" stroke-width="8.000000"
	d="
M2237.500000,53.500000 
	C2237.500000,280.500000 2237.500000,507.500000 2237.500000,734.500000 
"/>
<path fill="none" opacity="1.000000" stroke="#000000" stroke-linecap="round" stroke-linejoin="round" stroke-width="8.000000"
	d="
M2282.500000,53.500000 
	C2282.500000,280.500000 2282.500000,507.500000 2282.500000,734.500000 
"/>
<path fill="none" opacity="1.000000" stroke="#000000" stroke-linecap="round" stroke-linejoin="round" stroke-width="8.000000"
	d="
M2326.500000,53.500000 
	C2326.500000,280.500000 2326.500000,507.500000 2326.500000,734.500000 
"/>
<path fill="none" opacity="1.000000" stroke="#000000" stroke-linecap="round" stroke-linejoin="round" stroke-width="8.000000"
	d="
M2348.500000,53.500000 
	C2348.500000,280.500000 2348.500000,507.500000 2348.500000,734.500000 
"/>
<path fill="none" opacity="1.000000" stroke="#000000" stroke-linecap="round" stroke-linejoin="round" stroke-width="8.000000"
	d="
M2371.500000,53.500000 
	C2371.500000,280.500000 2371.500000,507.500000 2371.500000,734.500000 
"/>
<path fill="none" opacity="1.000000" stroke="#000000" stroke-linecap="round" stroke-linejoin="round" stroke-width="8.000000"
	d="
M2416.500000,53.500000 
	C2416.500000,280.500000 2416.500000,507.500000 2416.500000,734.500000 
"/>
<path fill="none" opacity="1.000000" stroke="#000000" stroke-linecap="round" stroke-linejoin="round" stroke-width="8.000000"
	d="
M2974.500000,53.500000 
	C2974.500000,280.500000 2974.500000,507.500000 2974.500000,734.500000 
"/>
<path fill="none" opacity="1.000000" stroke="#000000" stroke-linecap="round" stroke-linejoin="round" stroke-width="8.000000"
	d="
M2483.500000,53.500000 
	C2483.500000,280.500000 2483.500000,507.500000 2483.500000,734.500000 
"/>
<path fill="none" opacity="1.000000" stroke="#000000" stroke-linecap="round" stroke-linejoin="round" stroke-width="8.000000"
	d="
M2527.500000,53.500000 
	C2527.500000,280.500000 2527.500000,507.500000 2527.500000,734.500000 
"/>
<path fill="none" opacity="1.000000" stroke="#000000" stroke-linecap="round" stroke-linejoin="round" stroke-width="8.000000"
	d="
M2572.500000,53.500000 
	C2572.500000,280.500000 2572.500000,507.500000 2572.500000,734.500000 
"/>
<path fill="none" opacity="1.000000" stroke="#000000" stroke-linecap="round" stroke-linejoin="round" stroke-width="8.000000"
	d="
M2684.500000,53.500000 
	C2684.500000,280.500000 2684.500000,507.500000 2684.500000,734.500000 
"/>
<path fill="none" opacity="1.000000" stroke="#000000" stroke-linecap="round" stroke-linejoin="round" stroke-width="8.000000"
	d="
M2706.500000,53.500000 
	C2706.500000,280.500000 2706.500000,507.500000 2706.500000,734.500000 
"/>
<path fill="none" opacity="1.000000" stroke="#000000" stroke-linecap="round" stroke-linejoin="round" stroke-width="8.000000"
	d="
M2729.500000,53.500000 
	C2729.500000,280.500000 2729.500000,507.500000 2729.500000,734.500000 
"/>
<path fill="none" opacity="1.000000" stroke="#000000" stroke-linecap="round" stroke-linejoin="round" stroke-width="8.000000"
	d="
M2751.500000,53.500000 
	C2751.500000,280.500000 2751.500000,507.500000 2751.500000,734.500000 
"/>
<path fill="none" opacity="1.000000" stroke="#000000" stroke-linecap="round" stroke-linejoin="round" stroke-width="8.000000"
	d="
M2863.500000,53.500000 
	C2863.500000,280.500000 2863.500000,507.500000 2863.500000,734.500000 
"/>
<path fill="none" opacity="1.000000" stroke="#000000" stroke-linecap="round" stroke-linejoin="round" stroke-width="8.000000"
	d="
M2908.500000,53.500000 
	C2908.500000,280.500000 2908.500000,507.500000 2908.500000,734.500000 
"/>
<path fill="none" opacity="1.000000" stroke="#000000" stroke-linecap="round" stroke-linejoin="round" stroke-width="10.000000"
	d="
M3926.500000,33.000000 
	C3921.693604,36.470947 3921.213379,41.267494 3922.523193,46.494202 
	C3923.782959,51.520882 3921.714355,56.499535 3922.493652,61.500992 
	C3922.544434,61.826427 3922.645752,62.317684 3922.479248,62.478371 
	C3915.270020,69.433357 3920.694580,78.245285 3919.000000,86.000000 
	C3925.102051,93.822594 3922.316895,102.963486 3922.372803,111.500832 
	C3922.651611,153.999008 3922.413330,196.500397 3922.604492,238.999527 
	C3922.629639,244.570984 3920.544189,249.988586 3921.577393,255.485443 
	C3922.549316,260.655701 3922.908936,265.856415 3922.399658,270.990051 
	C3921.623291,278.819427 3919.443604,286.568207 3920.538086,294.494720 
	C3924.854492,325.761261 3921.795898,357.168732 3922.374268,388.502319 
	C3922.948975,419.658386 3922.686035,450.835266 3922.364502,481.998596 
	C3922.287354,489.479401 3919.706787,496.854065 3920.458008,504.504120 
	C3920.757568,507.555145 3920.526123,510.530212 3921.893799,513.548096 
	C3924.031494,518.265198 3921.132324,523.180054 3921.546143,527.996033 
	C3923.191406,547.147644 3922.398193,566.331604 3922.464600,585.500122 
	C3922.587891,621.166382 3922.471436,656.833435 3922.601807,692.499634 
	C3922.607178,693.957153 3922.486328,695.585876 3921.894043,696.425232 
	C3918.044434,701.880493 3919.062500,708.006592 3919.002441,714.000000 
	C3918.985840,715.666565 3918.992432,717.333374 3919.001465,719.000000 
	C3919.032715,724.791992 3920.661865,726.039185 3926.500000,724.750000 
"/>
<path fill="none" opacity="1.000000" stroke="#000000" stroke-linecap="round" stroke-linejoin="round" stroke-width="9.000000"
	d="
M3927.000000,762.500000 
	C3924.508789,764.194214 3923.975342,766.716125 3923.993652,769.500061 
	C3924.019043,773.333191 3923.973633,777.166931 3924.007324,780.999939 
	C3924.040039,784.734131 3922.851562,786.651367 3918.498779,786.592957 
	C3901.501709,786.365112 3884.500000,786.500000 3867.861084,786.500000 
	C3864.727051,783.055115 3866.218262,779.266846 3866.439941,775.496460 
	C3866.929199,767.177124 3866.773193,758.800476 3866.645020,750.505493 
	C3866.575195,745.975098 3867.919434,740.960999 3865.235840,736.000000 
	C2597.500000,736.000000 1329.500000,736.000000 61.500000,736.000000 
"/>
<path fill="none" opacity="1.000000" stroke="#000000" stroke-linecap="round" stroke-linejoin="round" stroke-width="9.000000"
	d="
M3927.000000,25.500000 
	C3925.061279,23.969362 3923.970703,22.041561 3923.989014,19.499920 
	C3924.026123,14.334717 3924.000000,9.169058 3924.000000,4.364463 
	C3921.826172,2.789233 3919.895508,2.998632 3918.000000,2.998885 
	C3903.000000,3.000889 3888.000000,3.008678 3873.000000,2.990239 
	C3870.856689,2.987604 3868.742188,2.878569 3866.985840,4.484384 
	C3866.209717,5.193925 3865.210938,5.766059 3865.513428,6.996671 
	C3867.710938,15.932945 3866.056885,25.003130 3866.446777,34.002308 
	C3866.699219,39.840618 3866.827148,45.723450 3865.660156,52.000000 
	C2597.500000,52.000000 1329.500000,52.000000 61.500000,52.000000 
"/>
<path fill="none" opacity="1.000000" stroke="#000000" stroke-linecap="round" stroke-linejoin="round" stroke-width="7.000000"
	d="
M3921.000000,749.000000 
	C3919.167480,750.338928 3917.047852,749.992432 3915.000000,749.993896 
	C3899.333252,750.005066 3883.666748,750.000000 3868.000000,750.000000 
"/>
<path fill="none" opacity="1.000000" stroke="#000000" stroke-linecap="round" stroke-linejoin="round" stroke-width="7.000000"
	d="
M3868.000000,38.000000 
	C3883.666748,38.000000 3899.333252,37.994953 3915.000000,38.006138 
	C3917.047852,38.007599 3919.167480,37.661091 3921.000000,39.000000 
"/>
<path fill="none" opacity="1.000000" stroke="#000000" stroke-linecap="round" stroke-linejoin="round" stroke-width="10.000000"
	d="
M3922.500000,726.500000 
	C3922.233398,733.497620 3923.536621,740.530701 3922.003662,747.500793 
	C3921.146484,751.398010 3925.063965,752.461609 3926.500000,755.000000 
"/>
</svg>