<svg version="1.1" id="Layer_1" xmlns="http://www.w3.org/2000/svg" xmlns:xlink="http://www.w3.org/1999/xlink" x="0px" y="0px"
	 width="100%" viewBox="0 0 1965 786" enable-background="new 0 0 1965 786" xml:space="preserve">
<path fill="none" opacity="1.000000" stroke="#000000" stroke-linecap="round" stroke-linejoin="round" stroke-width="7.000000"
	d="
M69.000000,746.000000 
	C680.666687,746.000000 1292.333374,746.000000 1904.000000,746.000000 
"/>
<path fill="none" opacity="1.000000" stroke="#000000" stroke-linecap="round" stroke-linejoin="round" stroke-width="8.000000"
	d="
M1904.000000,6.500000 
	C1292.333374,6.500000 680.666687,6.500000 69.000000,6.500000 
"/>
<path fill="none" opacity="1.000000" stroke="#000000" stroke-linecap="round" stroke-linejoin="round" stroke-width="7.000000"
	d="
M69.000000,42.000000 
	C680.666687,42.000000 1292.333374,42.000000 1904.000000,42.000000 
"/>
<path fill="none" opacity="1.000000" stroke="#000000" stroke-linecap="round" stroke-linejoin="round" stroke-width="8.000000"
	d="
M69.500000,781.000000 
	C71.103203,781.801270 72.825630,781.488892 74.500000,781.488953 
	C682.500000,781.500244 1290.500000,781.500244 1898.500000,781.488953 
	C1900.174316,781.488892 1901.896851,781.801270 1903.500000,781.000000 
"/>
<path fill="none" opacity="1.000000" stroke="#000000" stroke-linecap="round" stroke-linejoin="round" stroke-width="8.000000"
	d="
M66.000000,38.000000 
	C54.028564,39.361637 42.003757,38.786350 30.002151,39.086151 
	C25.907042,39.188446 22.074339,37.751335 17.997641,37.952099 
	C12.543536,38.220707 12.314760,38.942188 12.347090,44.500889 
	C12.376146,49.496670 12.410456,54.499725 12.412724,59.500038 
	C12.513638,282.000000 12.522459,504.500000 12.382475,726.999939 
	C12.378609,733.146423 12.545583,739.339294 12.032545,745.502686 
	C11.778579,748.553772 13.560040,749.726929 16.493343,750.058838 
	C20.441994,750.505554 24.122540,748.945801 28.000183,748.977722 
	C36.666264,749.049072 45.333336,749.004333 54.000000,748.998108 
	C58.194447,748.995117 62.253246,750.667786 66.500000,750.000000 
"/>
<path fill="none" opacity="1.000000" stroke="#000000" stroke-linecap="round" stroke-linejoin="round" stroke-width="8.000000"
	d="
M8.500000,5.000000 
	C10.099939,3.133150 12.217612,2.969414 14.500070,2.976057 
	C30.166603,3.021651 45.833374,2.979332 61.499977,3.010733 
	C67.317947,3.022394 67.851280,4.050706 67.579681,10.003635 
	C67.245811,17.321737 67.472435,24.666801 67.508232,31.999960 
	C67.540039,38.513603 67.146431,45.019859 68.375191,51.523582 
	C68.819832,53.877060 67.449570,56.402077 67.450203,59.000011 
	C67.504074,282.333344 67.461319,505.666687 67.663910,728.999878 
	C67.670868,736.667725 67.331299,744.331421 67.470406,752.000549 
	C67.606400,759.498047 67.533577,767.000183 67.486458,774.499939 
	C67.461205,778.519714 69.892212,782.754883 66.143913,786.375000 
	C46.666317,786.375000 26.832634,786.375000 7.081967,786.375000 
	C6.869522,785.325500 6.684760,784.412720 6.499997,783.500000 
"/>
<path fill="none" opacity="1.000000" stroke="#000000" stroke-linecap="round" stroke-linejoin="round" stroke-width="4.000000"
	d="
M10.500000,52.000000 
	C9.000000,52.000000 7.500000,52.000000 5.750000,52.000000 
	C5.750000,279.833099 5.750000,507.666534 5.750000,736.000000 
	C7.155940,736.000000 8.827970,736.000000 10.500000,736.000000 
"/>
<path fill="none" opacity="1.000000" stroke="#000000" stroke-linecap="round" stroke-linejoin="round" stroke-width="5.000000"
	d="
M322.000000,53.000000 
	C322.000000,280.333344 322.000000,507.666656 322.000000,735.000000 
"/>
<path fill="none" opacity="1.000000" stroke="#000000" stroke-linecap="round" stroke-linejoin="round" stroke-width="7.000000"
	d="
M1103.000000,53.500000 
	C1103.000000,280.666656 1103.000000,507.833344 1103.000000,735.000000 
"/>
<path fill="none" opacity="1.000000" stroke="#000000" stroke-linecap="round" stroke-linejoin="round" stroke-width="7.000000"
	d="
M1148.000000,53.500000 
	C1148.000000,280.666656 1148.000000,507.833344 1148.000000,735.000000 
"/>
<path fill="none" opacity="1.000000" stroke="#000000" stroke-linecap="round" stroke-linejoin="round" stroke-width="7.000000"
	d="
M1126.000000,53.500000 
	C1126.000000,280.666656 1126.000000,507.833344 1126.000000,735.000000 
"/>
<path fill="none" opacity="1.000000" stroke="#000000" stroke-linecap="round" stroke-linejoin="round" stroke-width="7.000000"
	d="
M1282.000000,53.500000 
	C1282.000000,280.666656 1282.000000,507.833344 1282.000000,735.000000 
"/>
<path fill="none" opacity="1.000000" stroke="#000000" stroke-linecap="round" stroke-linejoin="round" stroke-width="7.000000"
	d="
M1327.000000,53.500000 
	C1327.000000,280.666656 1327.000000,507.833344 1327.000000,735.000000 
"/>
<path fill="none" opacity="1.000000" stroke="#000000" stroke-linecap="round" stroke-linejoin="round" stroke-width="7.000000"
	d="
M1371.000000,53.500000 
	C1371.000000,280.666656 1371.000000,507.833344 1371.000000,735.000000 
"/>
<path fill="none" opacity="1.000000" stroke="#000000" stroke-linecap="round" stroke-linejoin="round" stroke-width="7.000000"
	d="
M1416.000000,53.500000 
	C1416.000000,280.666656 1416.000000,507.833344 1416.000000,735.000000 
"/>
<path fill="none" opacity="1.000000" stroke="#000000" stroke-linecap="round" stroke-linejoin="round" stroke-width="8.000000"
	d="
M968.500000,53.500000 
	C968.820740,280.666565 967.850891,507.834045 969.000000,735.000000 
"/>
<path fill="none" opacity="1.000000" stroke="#000000" stroke-linecap="round" stroke-linejoin="round" stroke-width="7.000000"
	d="
M1484.000000,53.500000 
	C1484.000000,280.666656 1484.000000,507.833344 1484.000000,735.000000 
"/>
<path fill="none" opacity="1.000000" stroke="#000000" stroke-linecap="round" stroke-linejoin="round" stroke-width="7.000000"
	d="
M1618.000000,53.500000 
	C1618.000000,280.666656 1618.000000,507.833344 1618.000000,735.000000 
"/>
<path fill="none" opacity="1.000000" stroke="#000000" stroke-linecap="round" stroke-linejoin="round" stroke-width="7.000000"
	d="
M1663.000000,53.500000 
	C1663.000000,280.666656 1663.000000,507.833344 1663.000000,735.000000 
"/>
<path fill="none" opacity="1.000000" stroke="#000000" stroke-linecap="round" stroke-linejoin="round" stroke-width="7.000000"
	d="
M1707.000000,53.500000 
	C1707.000000,280.666656 1707.000000,507.833344 1707.000000,735.000000 
"/>
<path fill="none" opacity="1.000000" stroke="#000000" stroke-linecap="round" stroke-linejoin="round" stroke-width="7.000000"
	d="
M1729.000000,53.500000 
	C1729.000000,280.666656 1729.000000,507.833344 1729.000000,735.000000 
"/>
<path fill="none" opacity="1.000000" stroke="#000000" stroke-linecap="round" stroke-linejoin="round" stroke-width="7.000000"
	d="
M1752.000000,53.500000 
	C1752.000000,280.666656 1752.000000,507.833344 1752.000000,735.000000 
"/>
<path fill="none" opacity="1.000000" stroke="#000000" stroke-linecap="round" stroke-linejoin="round" stroke-width="7.000000"
	d="
M1774.000000,53.500000 
	C1774.000000,280.666656 1774.000000,507.833344 1774.000000,735.000000 
"/>
<path fill="none" opacity="1.000000" stroke="#000000" stroke-linecap="round" stroke-linejoin="round" stroke-width="7.000000"
	d="
M1886.000000,53.500000 
	C1886.000000,280.666656 1886.000000,507.833344 1886.000000,735.000000 
"/>
<path fill="none" opacity="1.000000" stroke="#000000" stroke-linecap="round" stroke-linejoin="round" stroke-width="7.000000"
	d="
M1081.000000,53.500000 
	C1081.000000,280.666656 1081.000000,507.833344 1081.000000,735.000000 
"/>
<path fill="none" opacity="1.000000" stroke="#000000" stroke-linecap="round" stroke-linejoin="round" stroke-width="7.000000"
	d="
M88.000000,53.500000 
	C88.000000,280.666656 88.000000,507.833344 88.000000,735.000000 
"/>
<path fill="none" opacity="1.000000" stroke="#000000" stroke-linecap="round" stroke-linejoin="round" stroke-width="7.000000"
	d="
M121.000000,53.500000 
	C121.000000,280.666656 121.000000,507.833344 121.000000,735.000000 
"/>
<path fill="none" opacity="1.000000" stroke="#000000" stroke-linecap="round" stroke-linejoin="round" stroke-width="7.000000"
	d="
M166.000000,53.500000 
	C166.000000,280.666656 166.000000,507.833344 166.000000,735.000000 
"/>
<path fill="none" opacity="1.000000" stroke="#000000" stroke-linecap="round" stroke-linejoin="round" stroke-width="7.000000"
	d="
M278.000000,53.500000 
	C278.000000,280.666656 278.000000,507.833344 278.000000,735.000000 
"/>
<path fill="none" opacity="1.000000" stroke="#000000" stroke-linecap="round" stroke-linejoin="round" stroke-width="7.000000"
	d="
M300.000000,53.500000 
	C300.000000,280.666656 300.000000,507.833344 300.000000,735.000000 
"/>
<path fill="none" opacity="1.000000" stroke="#000000" stroke-linecap="round" stroke-linejoin="round" stroke-width="7.000000"
	d="
M342.000000,53.500000 
	C342.000000,280.666656 342.000000,507.833344 342.000000,735.000000 
"/>
<path fill="none" opacity="1.000000" stroke="#000000" stroke-linecap="round" stroke-linejoin="round" stroke-width="7.000000"
	d="
M432.000000,53.500000 
	C432.000000,280.666656 432.000000,507.833344 432.000000,735.000000 
"/>
<path fill="none" opacity="1.000000" stroke="#000000" stroke-linecap="round" stroke-linejoin="round" stroke-width="7.000000"
	d="
M476.000000,53.500000 
	C476.000000,280.666656 476.000000,507.833344 476.000000,735.000000 
"/>
<path fill="none" opacity="1.000000" stroke="#000000" stroke-linecap="round" stroke-linejoin="round" stroke-width="7.000000"
	d="
M544.000000,53.500000 
	C544.000000,280.666656 544.000000,507.833344 544.000000,735.000000 
"/>
<path fill="none" opacity="1.000000" stroke="#000000" stroke-linecap="round" stroke-linejoin="round" stroke-width="7.000000"
	d="
M589.000000,53.500000 
	C589.000000,280.666656 589.000000,507.833344 589.000000,735.000000 
"/>
<path fill="none" opacity="1.000000" stroke="#000000" stroke-linecap="round" stroke-linejoin="round" stroke-width="7.000000"
	d="
M812.000000,53.500000 
	C812.000000,280.666656 812.000000,507.833344 812.000000,735.000000 
"/>
<path fill="none" opacity="1.000000" stroke="#000000" stroke-linecap="round" stroke-linejoin="round" stroke-width="7.000000"
	d="
M834.000000,53.500000 
	C834.000000,280.666656 834.000000,507.833344 834.000000,735.000000 
"/>
<path fill="none" opacity="1.000000" stroke="#000000" stroke-linecap="round" stroke-linejoin="round" stroke-width="7.000000"
	d="
M857.000000,53.500000 
	C857.000000,280.666656 857.000000,507.833344 857.000000,735.000000 
"/>
<path fill="none" opacity="1.000000" stroke="#000000" stroke-linecap="round" stroke-linejoin="round" stroke-width="7.000000"
	d="
M879.000000,53.500000 
	C879.000000,280.666656 879.000000,507.833344 879.000000,735.000000 
"/>
<path fill="none" opacity="1.000000" stroke="#000000" stroke-linecap="round" stroke-linejoin="round" stroke-width="8.000000"
	d="
M364.500000,53.500000 
	C364.500000,280.500000 364.500000,507.500000 364.500000,734.500000 
"/>
<path fill="none" opacity="1.000000" stroke="#000000" stroke-linecap="round" stroke-linejoin="round" stroke-width="8.000000"
	d="
M386.500000,53.500000 
	C386.500000,280.500000 386.500000,507.500000 386.500000,734.500000 
"/>
<path fill="none" opacity="1.000000" stroke="#000000" stroke-linecap="round" stroke-linejoin="round" stroke-width="8.000000"
	d="
M255.500000,53.500000 
	C255.500000,280.500000 255.500000,507.500000 255.500000,734.500000 
"/>
<path fill="none" opacity="1.000000" stroke="#000000" stroke-linecap="round" stroke-linejoin="round" stroke-width="8.000000"
	d="
M233.500000,53.500000 
	C233.500000,280.500000 233.500000,507.500000 233.500000,734.500000 
"/>
<path fill="none" opacity="1.000000" stroke="#000000" stroke-linecap="round" stroke-linejoin="round" stroke-width="8.000000"
	d="
M210.500000,53.500000 
	C210.500000,280.500000 210.500000,507.500000 210.500000,734.500000 
"/>
<path fill="none" opacity="1.000000" stroke="#000000" stroke-linecap="round" stroke-linejoin="round" stroke-width="8.000000"
	d="
M188.500000,53.500000 
	C188.500000,280.500000 188.500000,507.500000 188.500000,734.500000 
"/>
<path fill="none" opacity="1.000000" stroke="#000000" stroke-linecap="round" stroke-linejoin="round" stroke-width="8.000000"
	d="
M144.500000,53.500000 
	C144.500000,280.500000 144.500000,507.500000 144.500000,734.500000 
"/>
<path fill="none" opacity="1.000000" stroke="#000000" stroke-linecap="round" stroke-linejoin="round" stroke-width="8.000000"
	d="
M99.500000,53.500000 
	C99.500000,280.500000 99.500000,507.500000 99.500000,734.500000 
"/>
<path fill="none" opacity="1.000000" stroke="#000000" stroke-linecap="round" stroke-linejoin="round" stroke-width="8.000000"
	d="
M1863.500000,53.500000 
	C1863.500000,280.500000 1863.500000,507.500000 1863.500000,734.500000 
"/>
<path fill="none" opacity="1.000000" stroke="#000000" stroke-linecap="round" stroke-linejoin="round" stroke-width="8.000000"
	d="
M991.000000,53.500000 
	C992.150635,280.499268 991.178345,507.500122 991.500000,734.500000 
"/>
<path fill="none" opacity="1.000000" stroke="#000000" stroke-linecap="round" stroke-linejoin="round" stroke-width="8.000000"
	d="
M1528.500000,53.500000 
	C1528.500000,280.500000 1528.500000,507.500000 1528.500000,734.500000 
"/>
<path fill="none" opacity="1.000000" stroke="#000000" stroke-linecap="round" stroke-linejoin="round" stroke-width="8.000000"
	d="
M1192.500000,53.500000 
	C1192.500000,280.500000 1192.500000,507.500000 1192.500000,734.500000 
"/>
<path fill="none" opacity="1.000000" stroke="#000000" stroke-linecap="round" stroke-linejoin="round" stroke-width="8.000000"
	d="
M1215.500000,53.500000 
	C1215.500000,280.500000 1215.500000,507.500000 1215.500000,734.500000 
"/>
<path fill="none" opacity="1.000000" stroke="#000000" stroke-linecap="round" stroke-linejoin="round" stroke-width="8.000000"
	d="
M1237.500000,53.500000 
	C1237.500000,280.500000 1237.500000,507.500000 1237.500000,734.500000 
"/>
<path fill="none" opacity="1.000000" stroke="#000000" stroke-linecap="round" stroke-linejoin="round" stroke-width="8.000000"
	d="
M1259.500000,53.500000 
	C1259.500000,280.500000 1259.500000,507.500000 1259.500000,734.500000 
"/>
<path fill="none" opacity="1.000000" stroke="#000000" stroke-linecap="round" stroke-linejoin="round" stroke-width="8.000000"
	d="
M1304.500000,53.500000 
	C1304.500000,280.500000 1304.500000,507.500000 1304.500000,734.500000 
"/>
<path fill="none" opacity="1.000000" stroke="#000000" stroke-linecap="round" stroke-linejoin="round" stroke-width="8.000000"
	d="
M1349.500000,53.500000 
	C1349.500000,280.500000 1349.500000,507.500000 1349.500000,734.500000 
"/>
<path fill="none" opacity="1.000000" stroke="#000000" stroke-linecap="round" stroke-linejoin="round" stroke-width="8.000000"
	d="
M1394.500000,53.500000 
	C1394.500000,280.500000 1394.500000,507.500000 1394.500000,734.500000 
"/>
<path fill="none" opacity="1.000000" stroke="#000000" stroke-linecap="round" stroke-linejoin="round" stroke-width="8.000000"
	d="
M1438.500000,53.500000 
	C1438.500000,280.500000 1438.500000,507.500000 1438.500000,734.500000 
"/>
<path fill="none" opacity="1.000000" stroke="#000000" stroke-linecap="round" stroke-linejoin="round" stroke-width="8.000000"
	d="
M1460.500000,53.500000 
	C1460.500000,280.500000 1460.500000,507.500000 1460.500000,734.500000 
"/>
<path fill="none" opacity="1.000000" stroke="#000000" stroke-linecap="round" stroke-linejoin="round" stroke-width="8.000000"
	d="
M1505.500000,53.500000 
	C1505.500000,280.500000 1505.500000,507.500000 1505.500000,734.500000 
"/>
<path fill="none" opacity="1.000000" stroke="#000000" stroke-linecap="round" stroke-linejoin="round" stroke-width="8.000000"
	d="
M454.500000,53.500000 
	C454.500000,280.500000 454.500000,507.500000 454.500000,734.500000 
"/>
<path fill="none" opacity="1.000000" stroke="#000000" stroke-linecap="round" stroke-linejoin="round" stroke-width="8.000000"
	d="
M1550.500000,53.500000 
	C1550.500000,280.500000 1550.500000,507.500000 1550.500000,734.500000 
"/>
<path fill="none" opacity="1.000000" stroke="#000000" stroke-linecap="round" stroke-linejoin="round" stroke-width="8.000000"
	d="
M1573.500000,53.500000 
	C1573.500000,280.500000 1573.500000,507.500000 1573.500000,734.500000 
"/>
<path fill="none" opacity="1.000000" stroke="#000000" stroke-linecap="round" stroke-linejoin="round" stroke-width="8.000000"
	d="
M1595.500000,53.500000 
	C1595.500000,280.500000 1595.500000,507.500000 1595.500000,734.500000 
"/>
<path fill="none" opacity="1.000000" stroke="#000000" stroke-linecap="round" stroke-linejoin="round" stroke-width="8.000000"
	d="
M1639.500000,53.500000 
	C1639.500000,280.500000 1639.500000,507.500000 1639.500000,734.500000 
"/>
<path fill="none" opacity="1.000000" stroke="#000000" stroke-linecap="round" stroke-linejoin="round" stroke-width="8.000000"
	d="
M1684.500000,53.500000 
	C1684.500000,280.500000 1684.500000,507.500000 1684.500000,734.500000 
"/>
<path fill="none" opacity="1.000000" stroke="#000000" stroke-linecap="round" stroke-linejoin="round" stroke-width="8.000000"
	d="
M1796.500000,53.500000 
	C1796.500000,280.500000 1796.500000,507.500000 1796.500000,734.500000 
"/>
<path fill="none" opacity="1.000000" stroke="#000000" stroke-linecap="round" stroke-linejoin="round" stroke-width="8.000000"
	d="
M1818.500000,53.500000 
	C1818.500000,280.500000 1818.500000,507.500000 1818.500000,734.500000 
"/>
<path fill="none" opacity="1.000000" stroke="#000000" stroke-linecap="round" stroke-linejoin="round" stroke-width="8.000000"
	d="
M1841.500000,53.500000 
	C1841.500000,280.500000 1841.500000,507.500000 1841.500000,734.500000 
"/>
<path fill="none" opacity="1.000000" stroke="#000000" stroke-linecap="round" stroke-linejoin="round" stroke-width="8.000000"
	d="
M1874.500000,53.500000 
	C1874.500000,280.500000 1874.500000,507.500000 1874.500000,734.500000 
"/>
<path fill="none" opacity="1.000000" stroke="#000000" stroke-linecap="round" stroke-linejoin="round" stroke-width="8.000000"
	d="
M1058.500000,53.500000 
	C1058.500000,280.500000 1058.500000,507.500000 1058.500000,734.500000 
"/>
<path fill="none" opacity="1.000000" stroke="#000000" stroke-linecap="round" stroke-linejoin="round" stroke-width="8.000000"
	d="
M409.500000,53.500000 
	C409.500000,280.500000 409.500000,507.500000 409.500000,734.500000 
"/>
<path fill="none" opacity="1.000000" stroke="#000000" stroke-linecap="round" stroke-linejoin="round" stroke-width="8.000000"
	d="
M499.500000,53.500000 
	C499.500000,280.500000 499.500000,507.500000 499.500000,734.500000 
"/>
<path fill="none" opacity="1.000000" stroke="#000000" stroke-linecap="round" stroke-linejoin="round" stroke-width="8.000000"
	d="
M521.500000,53.500000 
	C521.500000,280.500000 521.500000,507.500000 521.500000,734.500000 
"/>
<path fill="none" opacity="1.000000" stroke="#000000" stroke-linecap="round" stroke-linejoin="round" stroke-width="8.000000"
	d="
M565.500000,53.500000 
	C565.500000,280.500000 565.500000,507.500000 565.500000,734.500000 
"/>
<path fill="none" opacity="1.000000" stroke="#000000" stroke-linecap="round" stroke-linejoin="round" stroke-width="8.000000"
	d="
M610.500000,53.500000 
	C610.500000,280.500000 610.500000,507.500000 610.500000,734.500000 
"/>
<path fill="none" opacity="1.000000" stroke="#000000" stroke-linecap="round" stroke-linejoin="round" stroke-width="8.000000"
	d="
M633.500000,53.500000 
	C633.500000,280.500000 633.500000,507.500000 633.500000,734.500000 
"/>
<path fill="none" opacity="1.000000" stroke="#000000" stroke-linecap="round" stroke-linejoin="round" stroke-width="8.000000"
	d="
M655.500000,53.500000 
	C655.500000,280.500000 655.500000,507.500000 655.500000,734.500000 
"/>
<path fill="none" opacity="1.000000" stroke="#000000" stroke-linecap="round" stroke-linejoin="round" stroke-width="8.000000"
	d="
M678.500000,53.500000 
	C678.500000,280.500000 678.500000,507.500000 678.500000,734.500000 
"/>
<path fill="none" opacity="1.000000" stroke="#000000" stroke-linecap="round" stroke-linejoin="round" stroke-width="8.000000"
	d="
M700.500000,53.500000 
	C700.500000,280.500000 700.500000,507.500000 700.500000,734.500000 
"/>
<path fill="none" opacity="1.000000" stroke="#000000" stroke-linecap="round" stroke-linejoin="round" stroke-width="8.000000"
	d="
M722.500000,53.500000 
	C722.500000,280.500000 722.500000,507.500000 722.500000,734.500000 
"/>
<path fill="none" opacity="1.000000" stroke="#000000" stroke-linecap="round" stroke-linejoin="round" stroke-width="8.000000"
	d="
M744.500000,53.500000 
	C744.500000,280.500000 744.500000,507.500000 744.500000,734.500000 
"/>
<path fill="none" opacity="1.000000" stroke="#000000" stroke-linecap="round" stroke-linejoin="round" stroke-width="8.000000"
	d="
M767.500000,53.500000 
	C767.500000,280.500000 767.500000,507.500000 767.500000,734.500000 
"/>
<path fill="none" opacity="1.000000" stroke="#000000" stroke-linecap="round" stroke-linejoin="round" stroke-width="8.000000"
	d="
M789.500000,53.500000 
	C789.500000,280.500000 789.500000,507.500000 789.500000,734.500000 
"/>
<path fill="none" opacity="1.000000" stroke="#000000" stroke-linecap="round" stroke-linejoin="round" stroke-width="8.000000"
	d="
M901.500000,53.500000 
	C901.500000,280.500000 901.500000,507.500000 901.500000,734.500000 
"/>
<path fill="none" opacity="1.000000" stroke="#000000" stroke-linecap="round" stroke-linejoin="round" stroke-width="8.000000"
	d="
M923.500000,53.500000 
	C923.500000,280.500000 923.500000,507.500000 923.500000,734.500000 
"/>
<path fill="none" opacity="1.000000" stroke="#000000" stroke-linecap="round" stroke-linejoin="round" stroke-width="9.000000"
	d="
M946.500000,53.500000 
	C947.329956,280.500000 947.329651,507.500000 946.500000,734.500000 
"/>
<path fill="none" opacity="1.000000" stroke="#000000" stroke-linecap="round" stroke-linejoin="round" stroke-width="9.000000"
	d="
M1013.000000,53.500000 
	C1013.000000,280.583344 1013.000000,507.666656 1013.000000,734.750000 
"/>
<path fill="none" opacity="1.000000" stroke="#000000" stroke-linecap="round" stroke-linejoin="round" stroke-width="8.000000"
	d="
M1036.500000,53.500000 
	C1036.500000,280.500000 1036.500000,507.500000 1036.500000,734.500000 
"/>
<path fill="none" opacity="1.000000" stroke="#000000" stroke-linecap="round" stroke-linejoin="round" stroke-width="8.000000"
	d="
M1170.500000,53.500000 
	C1170.500000,280.500000 1170.500000,507.500000 1170.500000,734.500000 
"/>
<path fill="none" opacity="1.000000" stroke="#000000" stroke-linecap="round" stroke-linejoin="round" stroke-width="18.000000"
	d="
M1965.250122,97.999992 
	C1965.333374,99.166664 1965.489624,100.333321 1965.489624,101.499992 
	C1965.500366,296.500000 1965.500488,491.500000 1965.489746,686.500000 
	C1965.489624,687.666687 1965.333252,688.833313 1965.250000,690.000000 
"/>
<path fill="none" opacity="1.000000" stroke="#000000" stroke-linecap="round" stroke-linejoin="round" stroke-width="9.000000"
	d="
M1965.250000,729.000000 
	C1965.250000,748.166565 1965.250000,767.333191 1965.250000,786.500000 
	C1945.833374,786.500000 1926.166626,786.500000 1906.861084,786.500000 
	C1903.727051,783.055115 1905.218018,779.266785 1905.439697,775.496460 
	C1905.929077,767.177124 1905.772705,758.800476 1905.644653,750.505493 
	C1905.574707,745.975098 1906.919434,740.960999 1904.235840,736.000000 
	C1292.833374,736.000000 681.166687,736.000000 69.500000,736.000000 
"/>
<path fill="none" opacity="1.000000" stroke="#000000" stroke-linecap="round" stroke-linejoin="round" stroke-width="7.000000"
	d="
M1907.000000,38.000000 
	C1920.666626,38.000000 1934.334229,38.088047 1947.999634,37.958359 
	C1953.782837,37.903481 1959.477905,38.103966 1965.000000,40.000000 
"/>
<path fill="none" opacity="1.000000" stroke="#000000" stroke-linecap="round" stroke-linejoin="round" stroke-width="7.000000"
	d="
M1965.000000,748.000000 
	C1959.477905,749.896057 1953.782837,750.096497 1947.999634,750.041687 
	C1934.334229,749.911987 1920.666626,750.000000 1907.000000,750.000000 
"/>
<path fill="none" opacity="1.000000" stroke="#000000" stroke-linecap="round" stroke-linejoin="round" stroke-width="9.000000"
	d="
M1963.500000,5.000000 
	C1961.900024,3.133150 1959.782471,2.969173 1957.499878,2.976029 
	C1942.166748,3.022086 1926.833374,2.979770 1911.500000,3.010505 
	C1905.805786,3.021919 1905.183105,4.177677 1905.419067,10.003280 
	C1905.742676,17.990170 1905.511597,26.000023 1905.496094,33.999992 
	C1905.484741,39.850624 1905.827026,45.723450 1904.660278,52.000046 
	C1292.833374,52.000031 681.166687,52.000015 69.500000,52.000000 
"/>
<path fill="none" opacity="1.000000" stroke="#000000" stroke-linecap="round" stroke-linejoin="round" stroke-width="11.000000"
	d="
M1963.500000,60.000000 
	C1957.868164,63.607227 1957.971313,69.112785 1957.855591,74.997162 
	C1957.699341,82.939117 1958.584351,90.286545 1964.000000,96.500000 
"/>
<path fill="none" opacity="1.000000" stroke="#000000" stroke-linecap="round" stroke-linejoin="round" stroke-width="11.000000"
	d="
M1964.000000,691.500000 
	C1960.543335,696.287048 1957.470703,701.201904 1957.977417,707.501831 
	C1958.123901,709.323364 1958.142334,711.179871 1957.973633,712.997559 
	C1957.425903,718.902893 1957.868164,724.392761 1963.500000,728.000000 
"/>
<path fill="none" opacity="1.000000" stroke="#000000" stroke-linecap="round" stroke-linejoin="round" stroke-width="4.000000"
	d="
M9.000000,7.500000 
	C10.810747,8.773442 10.496890,10.687355 10.498155,12.500001 
	C10.502807,19.166664 10.497192,25.833336 10.501844,32.500000 
	C10.503110,34.312645 10.189253,36.226559 12.000000,37.500000 
"/>
<path fill="none" opacity="1.000000" stroke="#000000" stroke-linecap="round" stroke-linejoin="round" stroke-width="4.000000"
	d="
M12.000000,750.500000 
	C10.189253,751.773438 10.503110,753.687378 10.501845,755.500000 
	C10.497193,762.166687 10.502807,768.833313 10.498156,775.500000 
	C10.496890,777.312622 10.810747,779.226562 9.000000,780.500000 
"/>
<path fill="none" opacity="1.000000" stroke="#000000" stroke-linecap="round" stroke-linejoin="round" stroke-width="12.000000"
	d="
M1965.250000,6.000000 
	C1965.665039,23.666666 1965.665039,41.333332 1965.250000,59.000000 
"/>
</svg>