<svg version="1.1" id="Layer_1" xmlns="http://www.w3.org/2000/svg" xmlns:xlink="http://www.w3.org/1999/xlink" x="0px" y="0px"
	 width="100%" viewBox="0 0 983 786" enable-background="new 0 0 983 786" xml:space="preserve">
<path fill="none" opacity="1.000000" stroke="#000000" stroke-linecap="round" stroke-linejoin="round" stroke-width="7.000000"
	d="
M61.000000,746.000000 
	C347.666656,746.000000 634.333313,746.000000 921.000000,746.000000 
"/>
<path fill="none" opacity="1.000000" stroke="#000000" stroke-linecap="round" stroke-linejoin="round" stroke-width="7.000000"
	d="
M61.000000,42.000000 
	C347.666656,42.000000 634.333313,42.000000 921.000000,42.000000 
"/>
<path fill="none" opacity="1.000000" stroke="#000000" stroke-linecap="round" stroke-linejoin="round" stroke-width="8.000000"
	d="
M921.000000,6.500000 
	C634.333313,6.500000 347.666656,6.500000 61.000000,6.500000 
"/>
<path fill="none" opacity="1.000000" stroke="#000000" stroke-linecap="round" stroke-linejoin="round" stroke-width="8.000000"
	d="
M61.500000,781.000000 
	C63.103207,781.801270 64.825630,781.488831 66.500000,781.488953 
	C349.500000,781.500488 632.500000,781.500488 915.500000,781.488892 
	C917.174377,781.488831 918.896790,781.801270 920.500000,781.000000 
"/>
<path fill="none" opacity="1.000000" stroke="#000000" stroke-linecap="round" stroke-linejoin="round" stroke-width="5.000000"
	d="
M58.000000,38.000000 
	C46.195309,39.350090 34.336967,38.783455 22.502392,39.091778 
	C18.565441,39.194344 14.877857,37.915516 10.999657,37.979027 
	C6.596519,38.051144 4.474220,39.917671 4.559345,44.498898 
	C4.627928,48.189877 3.598584,52.021923 5.907876,55.560127 
	C6.518143,56.495155 6.000000,58.166668 6.000000,59.500000 
	C6.000000,282.500000 5.994061,505.500000 6.042805,728.500000 
	C6.043774,732.930603 4.071098,736.954407 4.368284,741.508606 
	C4.855071,748.968262 7.322444,751.149963 14.509321,750.061584 
	C26.808897,748.198914 39.160881,748.406311 51.505203,749.958618 
	C53.802208,750.247498 56.166668,750.000000 58.500000,750.000000 
"/>
<path fill="none" opacity="1.000000" stroke="#000000" stroke-linecap="round" stroke-linejoin="round" stroke-width="8.000000"
	d="
M2.500000,8.500000 
	C2.558667,6.739714 2.201159,4.939793 3.234501,3.000000 
	C20.165857,3.000000 37.333168,2.950106 54.499840,3.032850 
	C59.162121,3.055323 59.854343,4.614996 59.592037,9.504937 
	C59.226540,16.318665 59.474819,23.166784 59.506908,29.999968 
	C59.540623,37.179279 59.057854,44.355591 60.379250,51.522263 
	C60.814167,53.881069 59.449577,56.402077 59.450203,59.000011 
	C59.504078,282.333344 59.461319,505.666687 59.663914,728.999878 
	C59.670868,736.667725 59.331299,744.331421 59.470406,752.000549 
	C59.606400,759.498047 59.533585,767.000183 59.486469,774.499939 
	C59.461212,778.519714 61.892212,782.754883 58.014484,786.500000 
	C42.166668,786.500000 25.833334,786.500000 9.500000,786.500000 
	C2.572564,786.500000 2.572564,786.500000 2.500000,779.500000 
"/>
<path fill="none" opacity="1.000000" stroke="#000000" stroke-linecap="round" stroke-linejoin="round" stroke-width="5.000000"
	d="
M278.000000,53.000000 
	C278.000000,280.333344 278.000000,507.666656 278.000000,735.000000 
"/>
<path fill="none" opacity="1.000000" stroke="#000000" stroke-linecap="round" stroke-linejoin="round" stroke-width="7.000000"
	d="
M433.000000,53.500000 
	C433.000000,280.666656 433.000000,507.833344 433.000000,735.000000 
"/>
<path fill="none" opacity="1.000000" stroke="#000000" stroke-linecap="round" stroke-linejoin="round" stroke-width="7.000000"
	d="
M769.000000,53.500000 
	C769.000000,280.666656 769.000000,507.833344 769.000000,735.000000 
"/>
<path fill="none" opacity="1.000000" stroke="#000000" stroke-linecap="round" stroke-linejoin="round" stroke-width="7.000000"
	d="
M791.000000,53.500000 
	C791.000000,280.666656 791.000000,507.833344 791.000000,735.000000 
"/>
<path fill="none" opacity="1.000000" stroke="#000000" stroke-linecap="round" stroke-linejoin="round" stroke-width="7.000000"
	d="
M903.000000,53.500000 
	C903.000000,280.666656 903.000000,507.833344 903.000000,735.000000 
"/>
<path fill="none" opacity="1.000000" stroke="#000000" stroke-linecap="round" stroke-linejoin="round" stroke-width="7.000000"
	d="
M746.000000,53.500000 
	C746.000000,280.666656 746.000000,507.833344 746.000000,735.000000 
"/>
<path fill="none" opacity="1.000000" stroke="#000000" stroke-linecap="round" stroke-linejoin="round" stroke-width="7.000000"
	d="
M724.000000,53.500000 
	C724.000000,280.666656 724.000000,507.833344 724.000000,735.000000 
"/>
<path fill="none" opacity="1.000000" stroke="#000000" stroke-linecap="round" stroke-linejoin="round" stroke-width="7.000000"
	d="
M680.000000,53.500000 
	C680.000000,280.666656 680.000000,507.833344 680.000000,735.000000 
"/>
<path fill="none" opacity="1.000000" stroke="#000000" stroke-linecap="round" stroke-linejoin="round" stroke-width="7.000000"
	d="
M635.000000,53.500000 
	C635.000000,280.666656 635.000000,507.833344 635.000000,735.000000 
"/>
<path fill="none" opacity="1.000000" stroke="#000000" stroke-linecap="round" stroke-linejoin="round" stroke-width="7.000000"
	d="
M523.000000,53.500000 
	C523.000000,280.666656 523.000000,507.833344 523.000000,735.000000 
"/>
<path fill="none" opacity="1.000000" stroke="#000000" stroke-linecap="round" stroke-linejoin="round" stroke-width="7.000000"
	d="
M501.000000,53.500000 
	C501.000000,280.666656 501.000000,507.833344 501.000000,735.000000 
"/>
<path fill="none" opacity="1.000000" stroke="#000000" stroke-linecap="round" stroke-linejoin="round" stroke-width="7.000000"
	d="
M478.000000,53.500000 
	C478.000000,280.666656 478.000000,507.833344 478.000000,735.000000 
"/>
<path fill="none" opacity="1.000000" stroke="#000000" stroke-linecap="round" stroke-linejoin="round" stroke-width="7.000000"
	d="
M388.000000,53.500000 
	C388.000000,280.666656 388.000000,507.833344 388.000000,735.000000 
"/>
<path fill="none" opacity="1.000000" stroke="#000000" stroke-linecap="round" stroke-linejoin="round" stroke-width="7.000000"
	d="
M344.000000,53.500000 
	C344.000000,280.666656 344.000000,507.833344 344.000000,735.000000 
"/>
<path fill="none" opacity="1.000000" stroke="#000000" stroke-linecap="round" stroke-linejoin="round" stroke-width="7.000000"
	d="
M322.000000,53.500000 
	C322.000000,280.666656 322.000000,507.833344 322.000000,735.000000 
"/>
<path fill="none" opacity="1.000000" stroke="#000000" stroke-linecap="round" stroke-linejoin="round" stroke-width="7.000000"
	d="
M299.000000,53.500000 
	C299.000000,280.666656 299.000000,507.833344 299.000000,735.000000 
"/>
<path fill="none" opacity="1.000000" stroke="#000000" stroke-linecap="round" stroke-linejoin="round" stroke-width="7.000000"
	d="
M270.000000,53.500000 
	C270.000000,280.666656 270.000000,507.833344 270.000000,735.000000 
"/>
<path fill="none" opacity="1.000000" stroke="#000000" stroke-linecap="round" stroke-linejoin="round" stroke-width="7.000000"
	d="
M158.000000,53.500000 
	C158.000000,280.666656 158.000000,507.833344 158.000000,735.000000 
"/>
<path fill="none" opacity="1.000000" stroke="#000000" stroke-linecap="round" stroke-linejoin="round" stroke-width="7.000000"
	d="
M113.000000,53.500000 
	C113.000000,280.666656 113.000000,507.833344 113.000000,735.000000 
"/>
<path fill="none" opacity="1.000000" stroke="#000000" stroke-linecap="round" stroke-linejoin="round" stroke-width="7.000000"
	d="
M80.000000,53.500000 
	C80.000000,280.666656 80.000000,507.833344 80.000000,735.000000 
"/>
<path fill="none" opacity="1.000000" stroke="#000000" stroke-linecap="round" stroke-linejoin="round" stroke-width="8.000000"
	d="
M202.500000,53.500000 
	C202.500000,280.500000 202.500000,507.500000 202.500000,734.500000 
"/>
<path fill="none" opacity="1.000000" stroke="#000000" stroke-linecap="round" stroke-linejoin="round" stroke-width="8.000000"
	d="
M858.500000,53.500000 
	C858.500000,280.500000 858.500000,507.500000 858.500000,734.500000 
"/>
<path fill="none" opacity="1.000000" stroke="#000000" stroke-linecap="round" stroke-linejoin="round" stroke-width="8.000000"
	d="
M891.500000,53.500000 
	C891.500000,280.500000 891.500000,507.500000 891.500000,734.500000 
"/>
<path fill="none" opacity="1.000000" stroke="#000000" stroke-linecap="round" stroke-linejoin="round" stroke-width="8.000000"
	d="
M835.500000,53.500000 
	C835.500000,280.500000 835.500000,507.500000 835.500000,734.500000 
"/>
<path fill="none" opacity="1.000000" stroke="#000000" stroke-linecap="round" stroke-linejoin="round" stroke-width="8.000000"
	d="
M813.500000,53.500000 
	C813.500000,280.500000 813.500000,507.500000 813.500000,734.500000 
"/>
<path fill="none" opacity="1.000000" stroke="#000000" stroke-linecap="round" stroke-linejoin="round" stroke-width="8.000000"
	d="
M701.500000,53.500000 
	C701.500000,280.500000 701.500000,507.500000 701.500000,734.500000 
"/>
<path fill="none" opacity="1.000000" stroke="#000000" stroke-linecap="round" stroke-linejoin="round" stroke-width="8.000000"
	d="
M880.500000,53.500000 
	C880.500000,280.500000 880.500000,507.500000 880.500000,734.500000 
"/>
<path fill="none" opacity="1.000000" stroke="#000000" stroke-linecap="round" stroke-linejoin="round" stroke-width="8.000000"
	d="
M656.500000,53.500000 
	C656.500000,280.500000 656.500000,507.500000 656.500000,734.500000 
"/>
<path fill="none" opacity="1.000000" stroke="#000000" stroke-linecap="round" stroke-linejoin="round" stroke-width="8.000000"
	d="
M612.500000,53.500000 
	C612.500000,280.500000 612.500000,507.500000 612.500000,734.500000 
"/>
<path fill="none" opacity="1.000000" stroke="#000000" stroke-linecap="round" stroke-linejoin="round" stroke-width="8.000000"
	d="
M590.500000,53.500000 
	C590.500000,280.500000 590.500000,507.500000 590.500000,734.500000 
"/>
<path fill="none" opacity="1.000000" stroke="#000000" stroke-linecap="round" stroke-linejoin="round" stroke-width="8.000000"
	d="
M567.500000,53.500000 
	C567.500000,280.500000 567.500000,507.500000 567.500000,734.500000 
"/>
<path fill="none" opacity="1.000000" stroke="#000000" stroke-linecap="round" stroke-linejoin="round" stroke-width="8.000000"
	d="
M91.500000,53.500000 
	C91.500000,280.500000 91.500000,507.500000 91.500000,734.500000 
"/>
<path fill="none" opacity="1.000000" stroke="#000000" stroke-linecap="round" stroke-linejoin="round" stroke-width="8.000000"
	d="
M545.500000,53.500000 
	C545.500000,280.500000 545.500000,507.500000 545.500000,734.500000 
"/>
<path fill="none" opacity="1.000000" stroke="#000000" stroke-linecap="round" stroke-linejoin="round" stroke-width="8.000000"
	d="
M455.500000,53.500000 
	C455.500000,280.500000 455.500000,507.500000 455.500000,734.500000 
"/>
<path fill="none" opacity="1.000000" stroke="#000000" stroke-linecap="round" stroke-linejoin="round" stroke-width="8.000000"
	d="
M411.500000,53.500000 
	C411.500000,280.500000 411.500000,507.500000 411.500000,734.500000 
"/>
<path fill="none" opacity="1.000000" stroke="#000000" stroke-linecap="round" stroke-linejoin="round" stroke-width="8.000000"
	d="
M366.500000,53.500000 
	C366.500000,280.500000 366.500000,507.500000 366.500000,734.500000 
"/>
<path fill="none" opacity="1.000000" stroke="#000000" stroke-linecap="round" stroke-linejoin="round" stroke-width="8.000000"
	d="
M247.500000,53.500000 
	C247.500000,280.500000 247.500000,507.500000 247.500000,734.500000 
"/>
<path fill="none" opacity="1.000000" stroke="#000000" stroke-linecap="round" stroke-linejoin="round" stroke-width="8.000000"
	d="
M225.500000,53.500000 
	C225.500000,280.500000 225.500000,507.500000 225.500000,734.500000 
"/>
<path fill="none" opacity="1.000000" stroke="#000000" stroke-linecap="round" stroke-linejoin="round" stroke-width="8.000000"
	d="
M180.500000,53.500000 
	C180.500000,280.500000 180.500000,507.500000 180.500000,734.500000 
"/>
<path fill="none" opacity="1.000000" stroke="#000000" stroke-linecap="round" stroke-linejoin="round" stroke-width="8.000000"
	d="
M136.500000,53.500000 
	C136.500000,280.500000 136.500000,507.500000 136.500000,734.500000 
"/>
<path fill="none" opacity="1.000000" stroke="#000000" stroke-linecap="round" stroke-linejoin="round" stroke-width="9.000000"
	d="
M61.500000,52.000000 
	C348.166779,52.000000 634.833557,52.000000 921.585449,52.000000 
	C921.947510,50.020653 922.454895,48.511623 922.463379,46.999798 
	C922.529541,35.166832 922.581909,23.332577 922.472412,11.500256 
	C922.393799,2.998945 922.279785,3.000000 931.000000,3.000000 
	C945.166687,3.000000 959.333313,2.986773 973.499939,3.015482 
	C975.434265,3.019402 977.456726,2.553958 980.000000,4.541568 
	C980.000000,8.830337 979.969788,13.915484 980.022766,18.999762 
	C980.034973,20.168045 979.903076,21.766216 980.570251,22.429350 
	C984.701477,26.535658 983.365845,31.664202 983.475891,36.500549 
	C983.585754,41.331383 983.104553,46.208614 983.611572,50.988167 
	C984.115356,55.737049 982.438171,59.521122 978.901855,61.851006 
	C975.217407,64.278404 974.761658,67.239662 974.962769,71.001991 
	C975.140503,74.325821 974.973755,77.666931 975.008057,80.999916 
	C975.037048,83.816643 974.833557,86.485130 976.855652,89.111153 
	C978.308472,90.997841 978.587891,93.771507 978.581482,96.500191 
	C978.468872,144.499924 978.440735,192.500214 978.614136,240.499588 
	C978.627747,244.279709 977.619873,247.802139 977.387329,251.492905 
	C977.127625,255.614197 978.293640,259.484985 978.588501,263.493500 
	C979.358215,273.955780 975.027771,284.031342 976.502441,294.499664 
	C980.905151,325.754303 977.796082,357.168732 978.374084,388.502319 
	C978.948914,419.658386 978.686340,450.835266 978.364807,481.998596 
	C978.287598,489.479401 975.706238,496.854095 976.457642,504.504150 
	C976.757263,507.555206 976.515320,510.533112 977.894714,513.548157 
	C979.975403,518.095825 977.184998,522.859436 977.565063,527.494690 
	C979.040344,545.483643 978.435852,563.496948 978.475464,581.500061 
	C978.556946,618.499878 978.498962,655.500000 978.504700,692.500000 
	C978.504883,693.695801 978.731567,694.904480 978.003052,696.002014 
	C973.997620,702.036438 975.329956,708.873108 974.911316,715.494385 
	C974.611389,720.239258 975.322693,724.253479 979.510559,726.983765 
	C983.038330,729.283630 983.726074,732.554565 983.562317,736.502563 
	C983.320862,742.325867 983.520325,748.166809 983.492798,753.999939 
	C983.474731,757.843445 984.264343,761.850769 981.020752,765.021240 
	C979.635498,766.375427 980.011414,768.273254 980.004456,770.000000 
	C979.989685,773.666626 979.973755,777.333557 980.007263,780.999939 
	C980.041382,784.734131 978.851624,786.651306 974.498779,786.592957 
	C957.501831,786.365051 940.500000,786.500000 923.861084,786.500000 
	C920.727112,783.055115 922.217896,779.266785 922.439636,775.496460 
	C922.928955,767.177124 922.773010,758.800476 922.644958,750.505493 
	C922.575073,745.975098 923.919434,740.960999 921.235779,736.000000 
	C634.833557,736.000000 348.166779,736.000000 61.500000,736.000000 
"/>
<path fill="none" opacity="1.000000" stroke="#000000" stroke-linecap="round" stroke-linejoin="round" stroke-width="7.000000"
	d="
M983.000000,747.500000 
	C977.977905,749.229553 972.891846,750.151794 967.498962,750.072632 
	C953.002075,749.859863 938.500000,750.000000 924.000000,750.000000 
"/>
<path fill="none" opacity="1.000000" stroke="#000000" stroke-linecap="round" stroke-linejoin="round" stroke-width="7.000000"
	d="
M924.000000,38.000000 
	C938.500000,38.000000 953.002075,38.140087 967.498962,37.927341 
	C972.891846,37.848194 977.977905,38.770470 983.000000,40.500000 
"/>
</svg>