<svg version="1.1" id="Layer_1" xmlns="http://www.w3.org/2000/svg" xmlns:xlink="http://www.w3.org/1999/xlink" x="0px" y="0px"
	 width="100%" viewBox="0 0 510 827" enable-background="new 0 0 510 827" xml:space="preserve">
<path fill="#000000" opacity="1.000000" stroke="none" 
	d="
M1.000000,275.000000 
	C1.000000,183.333328 1.000000,92.166664 1.000000,1.000000 
	C171.000000,1.000000 341.000000,1.000000 511.000000,1.000000 
	C511.000000,276.666656 511.000000,552.333313 511.000000,828.000000 
	C341.000000,828.000000 171.000000,828.000000 1.000000,828.000000 
	C1.000000,643.833313 1.000000,459.666656 1.000000,275.000000 
M503.000000,63.500000 
	C503.000000,45.403763 503.000000,27.307526 503.000000,9.289242 
	C338.020691,9.289242 173.617645,9.289242 9.288358,9.289242 
	C9.288358,279.646881 9.288358,549.715149 9.288358,819.710571 
	C173.979904,819.710571 338.382935,819.710571 503.000000,819.710571 
	C503.000000,567.780762 503.000000,316.140381 503.000000,63.500000 
z"/>
<path fill="#FFFFFF" opacity="1.000000" stroke="none" 
	d="
M503.000000,64.000000 
	C503.000000,316.140381 503.000000,567.780762 503.000000,819.710571 
	C338.382935,819.710571 173.979904,819.710571 9.288358,819.710571 
	C9.288358,549.715149 9.288358,279.646881 9.288358,9.289242 
	C173.617645,9.289242 338.020691,9.289242 503.000000,9.289242 
	C503.000000,27.307526 503.000000,45.403763 503.000000,64.000000 
M26.455984,33.065990 
	C26.361731,33.374660 26.267477,33.683334 26.025898,34.920033 
	C26.022606,286.618622 26.019068,538.317200 26.022568,790.015808 
	C26.022587,791.344482 26.121815,792.673096 26.065317,794.538696 
	C26.373461,794.637268 26.681604,794.735840 27.917143,794.988342 
	C180.826157,794.988342 333.735199,794.988342 486.668335,794.988342 
	C486.668335,540.751831 486.668335,286.940887 486.668335,33.000046 
	C485.347107,33.000046 484.357330,33.000046 483.367584,33.000046 
	C332.405731,33.000088 181.443909,32.999763 30.482071,33.006966 
	C29.319878,33.007019 28.157690,33.109631 26.455984,33.065990 
z"/>
<path fill="#000000" opacity="1.000000" stroke="none" 
	d="
M26.174709,794.001770 
	C26.121815,792.673096 26.022587,791.344482 26.022568,790.015808 
	C26.019068,538.317200 26.022606,286.618622 26.276131,34.361519 
	C26.744635,33.635593 26.901012,33.422710 26.995499,33.164356 
	C28.157690,33.109631 29.319878,33.007019 30.482071,33.006966 
	C181.443909,32.999763 332.405731,33.000088 483.367584,33.000046 
	C484.357330,33.000046 485.347107,33.000046 486.668335,33.000046 
	C486.668335,286.940887 486.668335,540.751831 486.668335,794.988342 
	C333.735199,794.988342 180.826157,794.988342 27.361187,794.733948 
	C26.642546,794.257629 26.432373,794.098389 26.174709,794.001770 
M33.078274,577.552246 
	C33.169769,577.713074 33.261261,577.873840 33.347870,578.966553 
	C33.347870,648.402771 33.347870,717.839050 33.347870,787.553955 
	C182.398575,787.553955 330.917297,787.553955 479.931122,787.553955 
	C479.931122,785.514648 479.931091,783.722168 479.931091,781.929749 
	C479.931274,670.293579 479.932159,558.657349 479.925659,447.021179 
	C479.925568,445.357727 479.834351,443.694305 479.963623,441.104218 
	C479.904236,409.725769 479.844818,378.347351 479.907684,346.042938 
	C479.907684,244.141663 479.907684,142.240387 479.907684,40.458893 
	C330.656738,40.458893 182.233459,40.458893 33.339111,40.458893 
	C33.339111,42.569519 33.339092,44.367844 33.339115,46.166168 
	C33.341030,189.998642 33.342266,333.831116 33.352547,477.663574 
	C33.352676,479.492859 33.468334,481.322174 33.180012,483.998840 
	C33.180893,515.001587 33.181774,546.004333 33.078274,577.552246 
z"/>
<path fill="#010B0C" opacity="1.000000" stroke="none" 
	d="
M26.725742,33.115173 
	C26.901012,33.422710 26.744635,33.635593 26.349792,33.897507 
	C26.267477,33.683334 26.361731,33.374660 26.725742,33.115173 
z"/>
<path fill="#010B0C" opacity="1.000000" stroke="none" 
	d="
M26.120014,794.270264 
	C26.432373,794.098389 26.642546,794.257629 26.897490,794.656982 
	C26.681604,794.735840 26.373461,794.637268 26.120014,794.270264 
z"/>
<path fill="#00C0D5" opacity="1.000000" stroke="none" 
	d="
M33.530071,483.151459 
	C33.468334,481.322174 33.352676,479.492859 33.352547,477.663574 
	C33.342266,333.831116 33.341030,189.998642 33.339115,46.166168 
	C33.339092,44.367844 33.339111,42.569519 33.339111,40.458893 
	C182.233459,40.458893 330.656738,40.458893 479.907684,40.458893 
	C479.907684,142.240387 479.907684,244.141663 479.624329,346.514252 
	C479.341003,346.985565 478.897644,347.020325 478.529236,347.064087 
	C446.648895,356.821259 415.133392,366.523102 383.626007,376.251343 
	C351.976562,386.023438 320.357513,395.894379 288.682007,405.581085 
	C270.015656,411.289429 251.233978,416.620392 232.562439,422.312134 
	C215.770950,427.430756 199.061722,432.818817 182.311234,438.072205 
	C161.273865,444.670044 140.252441,451.319763 119.185158,457.820831 
	C99.101089,464.018494 78.985168,470.114868 58.846054,476.131256 
	C50.457012,478.637390 41.971642,480.821136 33.530071,483.151459 
M59.000347,422.354553 
	C59.000347,391.988342 59.000347,361.622162 59.000347,331.355957 
	C54.963863,331.355957 51.577229,331.355957 48.324181,331.355957 
	C48.324181,363.393982 48.324181,395.074799 48.324181,426.999664 
	C50.956890,426.999664 53.286495,426.809052 55.571552,427.046722 
	C58.596470,427.361328 59.375725,425.955322 59.000347,422.354553 
z"/>
<path fill="#00C0D5" opacity="1.000000" stroke="none" 
	d="
M479.785645,442.030853 
	C479.834351,443.694305 479.925568,445.357727 479.925659,447.021179 
	C479.932159,558.657349 479.931274,670.293579 479.931091,781.929749 
	C479.931091,783.722168 479.931122,785.514648 479.931122,787.553955 
	C330.917297,787.553955 182.398575,787.553955 33.347870,787.553955 
	C33.347870,717.839050 33.347870,648.402771 33.518967,578.460205 
	C33.690060,577.953796 34.022942,577.855103 34.403946,577.885498 
	C53.473576,572.137207 72.164894,566.367126 90.850182,560.577637 
	C115.064781,553.074768 139.254745,545.491638 163.492554,538.064514 
	C183.806412,531.839844 204.200073,525.875427 224.510681,519.640259 
	C249.862061,511.857635 275.150391,503.869873 300.492279,496.056091 
	C323.277924,489.030548 346.097595,482.115356 368.905151,475.160950 
	C384.598114,470.375885 400.314026,465.665344 415.986084,460.812958 
	C429.122070,456.745728 442.176758,452.414185 455.330597,448.407135 
	C463.092590,446.042572 470.977539,444.081665 479.051086,441.969788 
	C479.294983,442.000366 479.785645,442.030853 479.785645,442.030853 
z"/>
<path fill="#55D4E5" opacity="1.000000" stroke="none" 
	d="
M478.807190,441.939240 
	C470.977539,444.081665 463.092590,446.042572 455.330597,448.407135 
	C442.176758,452.414185 429.122070,456.745728 415.986084,460.812958 
	C400.314026,465.665344 384.598114,470.375885 368.905151,475.160950 
	C346.097595,482.115356 323.277924,489.030548 300.492279,496.056091 
	C275.150391,503.869873 249.862061,511.857635 224.510681,519.640259 
	C204.200073,525.875427 183.806412,531.839844 163.492554,538.064514 
	C139.254745,545.491638 115.064781,553.074768 90.850182,560.577637 
	C72.164894,566.367126 53.473576,572.137207 34.301388,577.710693 
	C33.653149,577.279480 33.441425,577.113342 33.182655,577.007080 
	C33.181774,546.004333 33.180893,515.001587 33.355042,483.575134 
	C41.971642,480.821136 50.457012,478.637390 58.846054,476.131256 
	C78.985168,470.114868 99.101089,464.018494 119.185158,457.820831 
	C140.252441,451.319763 161.273865,444.670044 182.311234,438.072205 
	C199.061722,432.818817 215.770950,427.430756 232.562439,422.312134 
	C251.233978,416.620392 270.015656,411.289429 288.682007,405.581085 
	C320.357513,395.894379 351.976562,386.023438 383.626007,376.251343 
	C415.133392,366.523102 446.648895,356.821259 478.566772,347.529663 
	C478.917511,379.280731 478.862366,410.609985 478.807190,441.939240 
z"/>
<path fill="#00A9BA" opacity="1.000000" stroke="none" 
	d="
M479.051086,441.969788 
	C478.862366,410.609985 478.917511,379.280731 478.935181,347.485901 
	C478.897644,347.020325 479.341003,346.985565 479.563202,346.977234 
	C479.844818,378.347351 479.904236,409.725769 479.874634,441.567535 
	C479.785645,442.030853 479.294983,442.000366 479.051086,441.969788 
z"/>
<path fill="#4CC9DB" opacity="1.000000" stroke="none" 
	d="
M33.130463,577.279663 
	C33.441425,577.113342 33.653149,577.279480 33.920387,577.680298 
	C34.022942,577.855103 33.690060,577.953796 33.521408,577.994263 
	C33.261261,577.873840 33.169769,577.713074 33.130463,577.279663 
z"/>
<path fill="#000000" opacity="1.000000" stroke="none" 
	d="
M59.000237,422.836060 
	C59.375725,425.955322 58.596470,427.361328 55.571552,427.046722 
	C53.286495,426.809052 50.956890,426.999664 48.324181,426.999664 
	C48.324181,395.074799 48.324181,363.393982 48.324181,331.355957 
	C51.577229,331.355957 54.963863,331.355957 59.000347,331.355957 
	C59.000347,361.622162 59.000347,391.988342 59.000237,422.836060 
z"/>
</svg>