<svg version="1.1" id="Layer_1" xmlns="http://www.w3.org/2000/svg" xmlns:xlink="http://www.w3.org/1999/xlink" x="0px" y="0px"
	 width="100%" viewBox="0 0 393 827" enable-background="new 0 0 393 827" xml:space="preserve">
<path fill="#000000" opacity="1.000000" stroke="none" 
	d="
M394.000000,284.000000 
	C394.000000,465.666656 394.000000,646.833313 394.000000,828.000000 
	C263.000000,828.000000 132.000000,828.000000 1.000000,828.000000 
	C1.000000,552.333313 1.000000,276.666656 1.000000,1.000000 
	C132.000000,1.000000 263.000000,1.000000 394.000000,1.000000 
	C394.000000,95.166664 394.000000,189.333328 394.000000,284.000000 
M386.000000,483.500000 
	C386.000000,325.407471 386.000000,167.314911 386.000000,9.286922 
	C260.025940,9.286922 134.622528,9.286922 9.285492,9.286922 
	C9.285492,279.641876 9.285492,549.709778 9.285492,819.713013 
	C134.974640,819.713013 260.378082,819.713013 386.000000,819.713013 
	C386.000000,707.784180 386.000000,596.142090 386.000000,483.500000 
z"/>
<path fill="#FFFFFF" opacity="1.000000" stroke="none" 
	d="
M386.000000,484.000000 
	C386.000000,596.142090 386.000000,707.784180 386.000000,819.713013 
	C260.378082,819.713013 134.974640,819.713013 9.285492,819.713013 
	C9.285492,549.709778 9.285492,279.641876 9.285492,9.286922 
	C134.622528,9.286922 260.025940,9.286922 386.000000,9.286922 
	C386.000000,167.314911 386.000000,325.407471 386.000000,484.000000 
M374.011017,370.132050 
	C374.011017,254.540405 374.011017,138.948761 374.011017,23.197515 
	C257.175751,23.197515 140.786804,23.197515 24.324360,23.197515 
	C24.324360,283.548950 24.324360,543.702454 24.324360,803.695374 
	C141.038071,803.695374 257.427216,803.695374 374.000000,803.695374 
	C374.000000,801.576050 374.000000,799.760193 374.000000,797.944336 
	C374.000000,681.800537 373.999237,565.656677 374.006836,449.512848 
	C374.006958,447.684113 374.109802,445.855347 374.792023,443.459320 
	C374.861664,420.068268 374.939026,396.677246 374.965179,373.286163 
	C374.966003,372.546997 374.438934,371.807251 374.011017,370.132050 
z"/>
<path fill="#000000" opacity="1.000000" stroke="none" 
	d="
M374.164734,444.026611 
	C374.109802,445.855347 374.006958,447.684113 374.006836,449.512848 
	C373.999237,565.656677 374.000000,681.800537 374.000000,797.944336 
	C374.000000,799.760193 374.000000,801.576050 374.000000,803.695374 
	C257.427216,803.695374 141.038071,803.695374 24.324360,803.695374 
	C24.324360,543.702454 24.324360,283.548950 24.324360,23.197515 
	C140.786804,23.197515 257.175751,23.197515 374.011017,23.197515 
	C374.011017,138.948761 374.011017,254.540405 374.009155,371.055115 
	C374.059784,395.994354 374.112274,420.010468 374.164734,444.026611 
M365.961060,446.902740 
	C365.920715,422.595520 365.880402,398.288330 365.981506,373.055756 
	C365.981506,259.134827 365.981506,145.213882 365.981506,31.341141 
	C254.331924,31.341141 143.279175,31.341141 32.000011,31.341141 
	C32.000011,33.165821 32.000011,34.649616 32.000011,36.133415 
	C31.999966,181.288269 31.999393,326.443115 32.007191,471.597961 
	C32.007271,473.093628 32.117691,474.589325 32.029530,476.995697 
	C32.074329,501.321503 32.119129,525.647339 32.022884,550.904358 
	C32.022884,632.476074 32.022884,714.047729 32.022884,795.745850 
	C143.551773,795.745850 254.574951,795.745850 365.999603,795.745850 
	C365.999603,793.879089 365.999603,792.247253 365.999603,790.615417 
	C365.999603,678.000061 366.000427,565.384705 365.991486,452.769379 
	C365.991364,451.108459 365.869812,449.447510 365.961060,446.902740 
z"/>
<path fill="#5ED6E6" opacity="1.000000" stroke="none" 
	d="
M374.478394,443.742981 
	C374.112274,420.010468 374.059784,395.994354 374.082642,371.522980 
	C374.438934,371.807251 374.966003,372.546997 374.965179,373.286163 
	C374.939026,396.677246 374.861664,420.068268 374.478394,443.742981 
z"/>
<path fill="#00C0D5" opacity="1.000000" stroke="none" 
	d="
M32.176598,476.084991 
	C32.117691,474.589325 32.007271,473.093628 32.007191,471.597961 
	C31.999393,326.443115 31.999966,181.288269 32.000011,36.133415 
	C32.000011,34.649616 32.000011,33.165821 32.000011,31.341141 
	C143.279175,31.341141 254.331924,31.341141 365.981506,31.341141 
	C365.981506,145.213882 365.981506,259.134827 365.539032,373.575348 
	C363.496887,374.535217 361.884491,374.934082 360.299408,375.421783 
	C307.603027,391.635345 254.908585,407.855255 202.215286,424.078857 
	C158.417053,437.563782 114.628098,451.078888 70.818771,464.527710 
	C57.966599,468.473145 45.058868,472.237610 32.176598,476.084991 
M63.000500,378.500000 
	C63.000500,370.749939 63.000500,362.999878 63.000500,355.353943 
	C58.972065,355.353943 55.585045,355.353943 52.316109,355.353943 
	C52.316109,387.384338 52.316109,419.060303 52.316109,450.646912 
	C56.027397,450.646912 59.414505,450.646912 63.000500,450.646912 
	C63.000500,426.696381 63.000500,403.098175 63.000500,378.500000 
z"/>
<path fill="#00C0D5" opacity="1.000000" stroke="none" 
	d="
M365.804932,447.786621 
	C365.869812,449.447510 365.991364,451.108459 365.991486,452.769379 
	C366.000427,565.384705 365.999603,678.000061 365.999603,790.615417 
	C365.999603,792.247253 365.999603,793.879089 365.999603,795.745850 
	C254.574951,795.745850 143.551773,795.745850 32.022884,795.745850 
	C32.022884,714.047729 32.022884,632.476074 32.415985,550.280396 
	C37.703655,548.104797 42.586521,546.515076 47.494583,545.007385 
	C98.704094,529.276428 149.919220,513.563782 201.129562,497.835541 
	C243.299149,484.884064 285.452667,471.880035 327.638794,458.982788 
	C340.316864,455.106812 353.080505,451.510864 365.804932,447.786621 
z"/>
<path fill="#55D4E5" opacity="1.000000" stroke="none" 
	d="
M365.882996,447.344666 
	C353.080505,451.510864 340.316864,455.106812 327.638794,458.982788 
	C285.452667,471.880035 243.299149,484.884064 201.129562,497.835541 
	C149.919220,513.563782 98.704094,529.276428 47.494583,545.007385 
	C42.586521,546.515076 37.703655,548.104797 32.486511,549.814819 
	C32.119129,525.647339 32.074329,501.321503 32.103065,476.540344 
	C45.058868,472.237610 57.966599,468.473145 70.818771,464.527710 
	C114.628098,451.078888 158.417053,437.563782 202.215286,424.078857 
	C254.908585,407.855255 307.603027,391.635345 360.299408,375.421783 
	C361.884491,374.934082 363.496887,374.535217 365.468323,374.038025 
	C365.880402,398.288330 365.920715,422.595520 365.882996,447.344666 
z"/>
<path fill="#000000" opacity="1.000000" stroke="none" 
	d="
M63.000500,379.000000 
	C63.000500,403.098175 63.000500,426.696381 63.000500,450.646912 
	C59.414505,450.646912 56.027397,450.646912 52.316109,450.646912 
	C52.316109,419.060303 52.316109,387.384338 52.316109,355.353943 
	C55.585045,355.353943 58.972065,355.353943 63.000500,355.353943 
	C63.000500,362.999878 63.000500,370.749939 63.000500,379.000000 
z"/>
</svg>