<svg version="1.1" id="Layer_1" xmlns="http://www.w3.org/2000/svg" xmlns:xlink="http://www.w3.org/1999/xlink" x="0px" y="0px"
	 width="100%" viewBox="0 0 1204 1204" enable-background="new 0 0 1204 1204" xml:space="preserve">
<path fill="#FFFFFF" opacity="1.000000" stroke="none" 
	d="
M1204.000000,0.999979 
	C1204.333374,1.166626 1204.943726,1.315892 1204.955566,1.502750 
	C1205.038940,2.830884 1205.000000,4.166667 1205.000000,5.500000 
	C1205.000000,405.333344 1205.000000,805.166687 1205.000000,1205.000000 
	C803.666687,1205.000000 402.333344,1205.000000 1.000000,1205.000000 
	C1.000000,803.666687 1.000000,402.333344 1.511485,1.303701 
	C2.062123,1.806196 2.101276,2.004989 2.087790,2.656893 
	C2.019820,3.776179 1.991056,4.442353 1.991055,5.108528 
	C1.990123,403.074982 1.991173,801.041443 1.992152,1199.007935 
	C1.992156,1200.587280 1.992154,1202.166626 1.992154,1203.732178 
	C403.044373,1203.732178 803.275940,1203.732178 1204.009155,1203.732178 
	C1204.009155,1201.508423 1204.009155,1199.554321 1204.009155,1197.600098 
	C1204.009155,802.799805 1204.009521,407.999542 1204.002930,13.199280 
	C1204.002808,9.535700 1203.909180,5.872120 1203.906982,1.907856 
	C1203.969727,1.404781 1203.984863,1.202391 1204.000000,0.999979 
z"/>
<path fill="#C2C2C2" opacity="1.000000" stroke="none" 
	d="
M2.140429,2.203782 
	C2.101276,2.004989 2.062123,1.806196 2.011485,1.303701 
	C402.366058,1.000000 802.732117,1.000000 1203.549072,1.000000 
	C1203.984863,1.202391 1203.969727,1.404781 1203.449951,1.851919 
	C1200.780518,2.055681 1198.615601,1.978803 1196.450806,1.978783 
	C801.509827,1.975072 406.568878,1.976303 11.627896,1.987706 
	C8.465405,1.987797 5.302918,2.128651 2.140429,2.203782 
z"/>
<path fill="#050505" opacity="1.000000" stroke="none" 
	d="
M2.087790,2.656893 
	C5.302918,2.128651 8.465405,1.987797 11.627896,1.987706 
	C406.568878,1.976303 801.509827,1.975072 1196.450806,1.978783 
	C1198.615601,1.978803 1200.780518,2.055681 1203.402344,2.152604 
	C1203.909180,5.872120 1204.002808,9.535700 1204.002930,13.199280 
	C1204.009521,407.999542 1204.009155,802.799805 1204.009155,1197.600098 
	C1204.009155,1199.554321 1204.009155,1201.508423 1204.009155,1203.732178 
	C803.275940,1203.732178 403.044373,1203.732178 1.992154,1203.732178 
	C1.992154,1202.166626 1.992156,1200.587280 1.992152,1199.007935 
	C1.991173,801.041443 1.990123,403.074982 1.991055,5.108528 
	C1.991056,4.442353 2.019820,3.776179 2.087790,2.656893 
M1201.938965,13.538225 
	C1201.938965,10.434129 1201.938965,7.330033 1201.938965,4.142571 
	C802.400696,4.142571 403.493927,4.142571 4.352725,4.142571 
	C4.352725,403.390442 4.352725,802.431458 4.352725,1201.664307 
	C403.609314,1201.664307 802.627258,1201.664307 1201.938965,1201.664307 
	C1201.938965,805.746216 1201.938965,410.136230 1201.938965,13.538225 
z"/>
<path fill="#ADADAD" opacity="1.000000" stroke="none" 
	d="
M1201.938965,14.032206 
	C1201.938965,410.136230 1201.938965,805.746216 1201.938965,1201.664307 
	C802.627258,1201.664307 403.609314,1201.664307 4.352725,1201.664307 
	C4.352725,802.431458 4.352725,403.390442 4.352725,4.142571 
	C403.493927,4.142571 802.400696,4.142571 1201.938965,4.142571 
	C1201.938965,7.330033 1201.938965,10.434129 1201.938965,14.032206 
M11.638482,5.957132 
	C9.882652,6.062424 8.126822,6.167716 6.010357,6.294633 
	C6.010357,8.495698 6.010359,10.139742 6.010358,11.783787 
	C6.009999,405.431702 6.018971,799.079651 5.908148,1192.727539 
	C5.906693,1197.895020 7.564986,1199.140869 12.504888,1199.139526 
	C405.986115,1199.035522 799.467346,1199.032959 1192.948608,1199.132080 
	C1197.596924,1199.133301 1199.148560,1198.137085 1199.145874,1193.167358 
	C1199.016602,953.845459 1199.027710,714.523499 1199.025269,475.201569 
	C1199.023682,320.875580 1198.999878,166.549591 1199.138428,12.223718 
	C1199.142944,7.182607 1197.934326,5.701586 1192.796875,5.844077 
	C1171.180176,6.443626 1149.551270,6.897988 1127.927124,6.882585 
	C759.985962,6.620498 392.044830,6.280240 24.103687,5.957687 
	C20.270538,5.954327 16.437386,5.957136 11.638482,5.957132 
z"/>
<path fill="#D6D6D6" opacity="1.000000" stroke="none" 
	d="
M12.121359,5.957098 
	C16.437386,5.957136 20.270538,5.954327 24.103687,5.957687 
	C392.044830,6.280240 759.985962,6.620498 1127.927124,6.882585 
	C1149.551270,6.897988 1171.180176,6.443626 1192.796875,5.844077 
	C1197.934326,5.701586 1199.142944,7.182607 1199.138428,12.223718 
	C1198.999878,166.549591 1199.023682,320.875580 1199.025269,475.201569 
	C1199.027710,714.523499 1199.016602,953.845459 1199.145874,1193.167358 
	C1199.148560,1198.137085 1197.596924,1199.133301 1192.948608,1199.132080 
	C799.467346,1199.032959 405.986115,1199.035522 12.504888,1199.139526 
	C7.564986,1199.140869 5.906693,1197.895020 5.908148,1192.727539 
	C6.018971,799.079651 6.009999,405.431702 6.010358,11.783787 
	C6.010359,10.139742 6.010357,8.495698 6.010357,6.294633 
	C8.126822,6.167716 9.882652,6.062424 12.121359,5.957098 
M195.500061,61.783997 
	C151.063751,61.783997 106.627449,61.783997 62.176888,61.783997 
	C62.176888,422.793945 62.176888,783.377075 62.176888,1143.935425 
	C422.963928,1143.935425 783.530457,1143.935425 1144.159912,1143.935425 
	C1144.159912,783.008423 1144.159912,422.456116 1144.159912,61.783974 
	C828.100708,61.783974 512.300415,61.783974 195.500061,61.783997 
z"/>
<path fill="#0C0C0C" opacity="1.000000" stroke="none" 
	d="
M196.000076,61.783985 
	C512.300415,61.783974 828.100708,61.783974 1144.159912,61.783974 
	C1144.159912,422.456116 1144.159912,783.008423 1144.159912,1143.935425 
	C783.530457,1143.935425 422.963928,1143.935425 62.176888,1143.935425 
	C62.176888,783.377075 62.176888,422.793945 62.176888,61.783997 
	C106.627449,61.783997 151.063751,61.783997 196.000076,61.783985 
M65.869690,1105.500000 
	C65.869690,1117.117920 65.869690,1128.735840 65.869690,1140.397949 
	C424.426025,1140.397949 782.500000,1140.397949 1140.635742,1140.397949 
	C1140.635742,781.903320 1140.635742,423.823303 1140.635742,65.515533 
	C782.377686,65.515533 424.304901,65.515533 65.869690,65.515533 
	C65.869690,411.968109 65.869690,758.234070 65.869690,1105.500000 
z"/>
<path fill="#FEFEFE" opacity="1.000000" stroke="none" 
	d="
M65.869690,1105.000000 
	C65.869690,758.234070 65.869690,411.968109 65.869690,65.515533 
	C424.304901,65.515533 782.377686,65.515533 1140.635742,65.515533 
	C1140.635742,423.823303 1140.635742,781.903320 1140.635742,1140.397949 
	C782.500000,1140.397949 424.426025,1140.397949 65.869690,1140.397949 
	C65.869690,1128.735840 65.869690,1117.117920 65.869690,1105.000000 
M128.007736,125.924156 
	C128.003479,273.122284 127.998840,420.320374 128.001984,567.518494 
	C128.001999,568.679688 128.107971,569.840881 128.014923,571.661682 
	C128.064758,572.107056 128.114594,572.552368 128.008148,573.789429 
	C128.059967,574.860291 128.111771,575.931213 128.013016,577.928406 
	C128.009155,609.342224 127.984299,640.756042 128.008530,672.169861 
	C128.025696,694.438049 128.109177,716.706238 128.006989,739.903442 
	C128.002930,851.446106 127.998390,962.988831 128.001801,1074.531494 
	C128.001846,1075.692505 128.106735,1076.853516 128.012451,1078.746826 
	C128.067963,1079.488037 128.123474,1080.229370 128.015945,1081.869019 
	C128.015945,1083.808472 128.015945,1085.747925 128.015945,1088.012695 
	C129.917816,1088.012695 131.392059,1088.012817 132.866302,1088.012695 
	C442.606873,1088.008545 752.347412,1088.004395 1062.088013,1088.001221 
	C1066.419922,1088.001221 1070.755981,1087.902710 1075.082275,1088.062744 
	C1077.478882,1088.151367 1078.556396,1087.497314 1077.988159,1084.072510 
	C1077.988159,762.186829 1077.988159,440.301117 1077.988159,118.266632 
	C761.121948,118.266632 444.623840,118.266632 128.164536,118.266632 
	C128.164536,120.693634 128.164536,122.845947 128.007736,125.924156 
z"/>
<path fill="#030205" opacity="1.000000" stroke="none" 
	d="
M128.163589,577.002075 
	C128.111771,575.931213 128.059967,574.860291 128.367401,573.350952 
	C129.021103,572.594238 129.315552,572.276123 129.609985,571.957947 
	C129.128159,571.639343 128.646317,571.320740 128.164474,571.002075 
	C128.107971,569.840881 128.001999,568.679688 128.001984,567.518494 
	C127.998840,420.320374 128.003479,273.122284 128.453033,125.449371 
	C130.159683,123.788399 131.247482,121.957329 132.721329,121.560654 
	C135.199402,120.893700 137.922836,121.017075 140.543060,121.016914 
	C448.762024,120.998390 756.980957,120.998779 1065.199951,121.008331 
	C1066.858154,121.008377 1068.588135,120.878410 1070.157837,121.291435 
	C1072.592407,121.932106 1074.053345,123.349586 1072.069824,125.586823 
	C1070.332153,124.782959 1068.695312,124.063194 1067.058594,124.062943 
	C757.427368,124.015640 447.796204,124.019043 138.164993,124.033562 
	C136.898590,124.033623 135.632172,124.218529 133.981598,124.347015 
	C133.981598,127.479362 133.981583,130.286636 133.981598,133.093903 
	C133.982376,278.910553 133.982407,424.727234 133.991119,570.543884 
	C133.991241,572.706238 134.099136,574.868652 134.085266,577.492798 
	C134.007889,612.846436 133.983261,647.738281 134.004257,682.630066 
	C134.014145,699.075317 134.111618,715.520508 134.087158,732.430176 
	C134.004929,849.141785 134.004929,965.389099 134.004929,1082.000000 
	C141.178482,1082.000000 147.652802,1082.000000 154.127136,1082.000000 
	C457.949982,1081.999512 761.772827,1082.001221 1065.595703,1081.957153 
	C1067.823364,1081.956909 1070.050903,1081.333130 1072.483154,1081.248169 
	C1072.687622,1082.829224 1072.687622,1084.162598 1072.687622,1084.997925 
	C1074.592896,1084.997925 1076.212158,1084.997925 1077.831543,1084.997925 
	C1078.556396,1087.497314 1077.478882,1088.151367 1075.082275,1088.062744 
	C1070.755981,1087.902710 1066.419922,1088.001221 1062.088013,1088.001221 
	C752.347412,1088.004395 442.606873,1088.008545 132.866302,1088.012695 
	C131.392059,1088.012817 129.917816,1088.012695 128.015945,1088.012695 
	C128.015945,1085.747925 128.015945,1083.808472 128.313446,1081.224731 
	C128.461548,1079.725098 128.312119,1078.869873 128.162689,1078.014526 
	C128.106735,1076.853516 128.001846,1075.692505 128.001801,1074.531494 
	C127.998390,962.988831 128.002930,851.446106 128.350464,739.186829 
	C131.224655,731.910461 133.244141,725.491760 133.183777,718.094788 
	C132.813232,672.692688 132.998169,627.285950 132.998169,581.880798 
	C132.998169,580.119873 132.998169,578.358948 132.998169,577.002075 
	C130.902359,577.002075 129.532974,577.002075 128.163589,577.002075 
z"/>
<path fill="#000001" opacity="1.000000" stroke="none" 
	d="
M1077.909912,1084.535156 
	C1076.212158,1084.997925 1074.592896,1084.997925 1072.687622,1084.997925 
	C1072.687622,1084.162598 1072.687622,1082.829224 1072.359619,1080.793823 
	C1072.019653,1079.758667 1071.996948,1079.425659 1071.996948,1079.092529 
	C1071.993042,867.263184 1071.989990,655.433838 1072.000366,443.604462 
	C1072.000488,442.112610 1072.187378,440.620758 1072.562988,438.804199 
	C1072.893433,437.817352 1072.995728,437.155273 1072.995850,436.493195 
	C1073.003662,387.042297 1073.010742,337.591400 1072.965332,288.140533 
	C1072.964111,286.741882 1072.397217,285.343750 1072.078613,283.480286 
	C1072.039062,246.124451 1071.995117,209.233719 1072.000000,172.342972 
	C1072.001953,157.890106 1072.112793,143.437241 1072.316650,128.892181 
	C1072.364258,128.538528 1072.269409,128.277084 1072.085938,127.684204 
	C1072.055176,126.904175 1072.113037,126.455559 1072.170898,126.006943 
	C1074.053345,123.349586 1072.592407,121.932106 1070.157837,121.291435 
	C1068.588135,120.878410 1066.858154,121.008377 1065.199951,121.008331 
	C756.980957,120.998779 448.762024,120.998390 140.543060,121.016914 
	C137.922836,121.017075 135.199402,120.893700 132.721329,121.560654 
	C131.247482,121.957329 130.159683,123.788399 128.531433,124.986427 
	C128.164536,122.845947 128.164536,120.693634 128.164536,118.266632 
	C444.623840,118.266632 761.121948,118.266632 1077.988159,118.266632 
	C1077.988159,440.301117 1077.988159,762.186829 1077.909912,1084.535156 
z"/>
<path fill="#000001" opacity="1.000000" stroke="none" 
	d="
M128.088303,577.465210 
	C129.532974,577.002075 130.902359,577.002075 132.998169,577.002075 
	C132.998169,578.358948 132.998169,580.119873 132.998169,581.880798 
	C132.998169,627.285950 132.813232,672.692688 133.183777,718.094788 
	C133.244141,725.491760 131.224655,731.910461 128.428497,738.722290 
	C128.109177,716.706238 128.025696,694.438049 128.008530,672.169861 
	C127.984299,640.756042 128.009155,609.342224 128.088303,577.465210 
M130.411621,728.482544 
	C130.411621,728.482544 130.523193,728.415710 130.411621,728.482544 
z"/>
<path fill="#000001" opacity="1.000000" stroke="none" 
	d="
M128.089691,571.331909 
	C128.646317,571.320740 129.128159,571.639343 129.609985,571.957947 
	C129.315552,572.276123 129.021103,572.594238 128.445541,572.955078 
	C128.114594,572.552368 128.064758,572.107056 128.089691,571.331909 
z"/>
<path fill="#000001" opacity="1.000000" stroke="none" 
	d="
M128.087570,1078.380615 
	C128.312119,1078.869873 128.461548,1079.725098 128.394974,1080.775513 
	C128.123474,1080.229370 128.067963,1079.488037 128.087570,1078.380615 
z"/>
<path fill="#00C0D5" opacity="1.000000" stroke="none" 
	d="
M1072.287109,439.128906 
	C1072.187378,440.620758 1072.000488,442.112610 1072.000366,443.604462 
	C1071.989990,655.433838 1071.993042,867.263184 1071.996948,1079.092529 
	C1071.996948,1079.425659 1072.019653,1079.758667 1072.155151,1080.546143 
	C1070.050903,1081.333130 1067.823364,1081.956909 1065.595703,1081.957153 
	C761.772827,1082.001221 457.949982,1081.999512 154.127136,1082.000000 
	C147.652802,1082.000000 141.178482,1082.000000 134.004929,1082.000000 
	C134.004929,965.389099 134.004929,849.141785 134.449646,732.390503 
	C146.101730,728.352478 157.315063,724.837280 168.515045,721.280029 
	C185.390823,715.919983 202.231247,710.447021 219.137604,705.185608 
	C229.068558,702.094971 239.143982,699.468079 249.072159,696.369019 
	C262.750610,692.099304 276.336670,687.534424 289.989014,683.179871 
	C307.178192,677.697083 324.394348,672.298767 341.870422,667.016235 
	C349.160034,676.000366 358.204834,682.063171 369.356995,683.122375 
	C381.003387,684.228577 392.981476,685.013306 404.506287,683.535156 
	C425.327484,680.864624 436.825897,669.128052 440.596222,649.306763 
	C441.491547,644.599854 441.657684,639.754272 442.555786,634.982483 
	C453.226898,632.019348 463.510101,629.075684 473.772766,626.061951 
	C479.773132,624.299744 485.766418,622.502930 491.696960,620.524048 
	C492.648407,620.206543 493.253265,618.850342 494.398132,617.968140 
	C501.482635,619.895752 508.189758,621.821167 514.891357,623.765442 
	C521.912415,625.802429 529.149475,627.309326 535.894470,630.032776 
	C546.093140,634.150818 548.037109,644.545166 540.806335,652.865845 
	C536.612122,657.692322 531.066528,659.750305 525.020996,660.517578 
	C506.893677,662.818176 492.950195,657.400024 488.453827,637.682739 
	C488.276062,636.903320 487.930908,636.162109 487.548492,635.075623 
	C478.729126,636.077454 470.041260,637.064331 461.404419,638.045410 
	C461.622711,654.098694 470.832520,670.853943 484.429016,677.492310 
	C506.883484,688.455566 530.158081,688.340027 552.349365,677.436584 
	C573.659241,666.966248 579.265076,636.608276 564.741882,617.812256 
	C559.563599,611.110474 552.228821,607.625366 545.289001,603.963196 
	C549.705261,602.552917 553.735596,601.182251 557.799561,599.919861 
	C576.349243,594.158081 594.866028,588.284424 613.481567,582.743042 
	C623.020386,579.903687 623.103333,580.181030 623.013184,570.235718 
	C623.007202,569.572388 622.988953,568.909241 623.386841,568.363892 
	C623.875244,570.636780 624.021729,572.791809 624.020691,574.946777 
	C624.003784,609.068848 623.967896,643.190918 623.936646,677.312988 
	C623.934998,679.080627 623.936401,680.848328 623.936401,682.686890 
	C633.455627,682.686890 642.332825,682.686890 651.706116,682.686890 
	C651.706116,644.341980 651.706116,606.338623 651.706116,567.839966 
	C665.424561,567.839966 678.649048,567.839966 692.358704,567.839966 
	C692.358704,562.882141 692.358704,558.421265 692.564209,554.218506 
	C693.000244,555.408936 693.230774,556.341248 693.517029,557.498962 
	C699.979675,555.519287 706.291870,553.667053 712.551392,551.651489 
	C726.363220,547.203796 740.102051,542.524658 753.956604,538.215942 
	C770.736145,532.997559 787.648132,528.204712 804.423035,522.971863 
	C825.204102,516.489319 845.880310,509.670990 866.646484,503.139740 
	C879.280273,499.166199 892.027039,495.553101 904.672607,491.615875 
	C932.453979,482.966064 960.201782,474.208862 987.966187,465.504639 
	C997.075073,462.648987 1006.195679,459.830658 1015.305969,456.979553 
	C1034.301392,451.034882 1053.293579,445.079773 1072.287109,439.128906 
M849.495300,601.499878 
	C849.495300,628.573975 849.495300,655.648010 849.495300,682.687439 
	C858.393372,682.687439 866.645142,682.687439 875.671265,682.687439 
	C875.671265,647.555786 875.671265,612.775208 875.671265,577.994629 
	C877.039978,579.350159 877.475769,580.743408 877.822815,582.158447 
	C885.621338,613.954468 893.495178,645.732605 901.102234,677.574463 
	C902.153198,681.973633 903.912720,683.538696 908.447388,683.126404 
	C913.570007,682.660583 918.800476,682.660034 923.922363,683.129761 
	C928.209412,683.522949 929.612732,681.789062 930.540039,677.930237 
	C936.246155,654.185242 942.172424,630.493042 948.036499,606.786072 
	C950.429504,597.111755 952.850525,587.444519 955.258850,577.774048 
	C955.737793,577.828308 956.216736,577.882507 956.695679,577.936768 
	C956.695679,612.835022 956.695679,647.733337 956.695679,682.667969 
	C965.743347,682.667969 973.971436,682.667969 982.129211,682.667969 
	C982.129211,636.711060 982.129211,591.117615 982.129211,545.260376 
	C968.263489,545.260376 954.683044,545.260376 940.766113,545.260376 
	C932.715515,575.867371 924.677551,606.426453 916.639587,636.985535 
	C916.246033,636.971436 915.852539,636.957275 915.459045,636.943115 
	C907.319763,606.350403 899.180420,575.757629 891.076965,545.299561 
	C877.072998,545.299561 863.489746,545.299561 849.495789,545.299561 
	C849.495789,563.900452 849.495789,582.200134 849.495300,601.499878 
M822.143188,654.610107 
	C831.829590,637.226440 832.870239,618.477539 830.541809,599.315857 
	C829.009460,586.705872 824.753052,575.004150 816.375061,565.236877 
	C799.996521,546.142456 778.558960,541.178345 754.589905,543.688477 
	C728.317200,546.439819 711.227356,560.932190 702.536499,585.393982 
	C698.251953,597.453308 697.973877,610.153931 698.750977,622.894470 
	C700.901733,658.154053 722.474792,681.359863 757.454895,684.529175 
	C784.146729,686.947632 806.847412,679.291016 822.143188,654.610107 
z"/>
<path fill="#00C0D5" opacity="1.000000" stroke="none" 
	d="
M1072.069824,125.586830 
	C1072.113037,126.455559 1072.055176,126.904175 1072.027832,127.926376 
	C1072.058350,128.499954 1072.174072,128.984375 1072.174072,128.984375 
	C1072.112793,143.437241 1072.001953,157.890106 1072.000000,172.342972 
	C1071.995117,209.233719 1072.039062,246.124451 1071.706787,283.548798 
	C1064.919922,286.214935 1058.519043,288.441650 1052.053955,290.462402 
	C1032.943481,296.435577 1013.810547,302.337463 994.680481,308.247864 
	C977.277893,313.624451 959.849365,318.917480 942.465576,324.353912 
	C923.784119,330.196198 905.152344,336.197052 886.478271,342.062988 
	C873.854187,346.028503 861.184021,349.846924 848.553467,353.792114 
	C834.474854,358.189667 820.433228,362.705902 806.346680,367.077698 
	C794.179199,370.853943 781.957825,374.456329 769.785461,378.217072 
	C759.350342,381.441101 748.955383,384.795166 738.534302,388.065063 
	C726.522766,391.834076 714.494873,395.551117 702.486938,399.331604 
	C683.693726,405.248413 664.921570,411.232330 646.120972,417.125580 
	C631.909607,421.580261 617.655762,425.899323 603.442566,430.348206 
	C585.737915,435.889954 568.077698,441.574188 550.357849,447.066467 
	C530.454102,453.235687 510.466339,459.135712 490.587830,465.384216 
	C473.726288,470.684357 457.038574,476.542053 440.148193,481.744934 
	C413.922760,489.823395 387.542633,497.399963 361.318909,505.483856 
	C340.872894,511.786652 320.588745,518.612488 300.188904,525.067627 
	C281.484009,530.986389 262.720551,536.720093 243.621552,542.647522 
	C245.471054,542.895874 246.930679,543.091919 248.028336,543.485596 
	C240.116501,545.789856 232.566635,547.896545 224.779449,549.721863 
	C223.742447,549.336426 222.861511,548.959595 222.155441,549.169861 
	C214.115036,551.565002 206.077866,553.976196 198.085022,556.524719 
	C176.763779,563.323059 155.464645,570.190796 134.156754,577.031006 
	C134.099136,574.868652 133.991241,572.706238 133.991119,570.543884 
	C133.982407,424.727234 133.982376,278.910553 133.981598,133.093903 
	C133.981583,130.286636 133.981598,127.479362 133.981598,124.347015 
	C135.632172,124.218529 136.898590,124.033623 138.164993,124.033562 
	C447.796204,124.019043 757.427368,124.015640 1067.058594,124.062943 
	C1068.695312,124.063194 1070.332153,124.782959 1072.069824,125.586830 
z"/>
<path fill="#02E3FC" opacity="1.000000" stroke="none" 
	d="
M248.390305,543.287964 
	C246.930679,543.091919 245.471054,542.895874 243.621552,542.647522 
	C262.720551,536.720093 281.484009,530.986389 300.188904,525.067627 
	C320.588745,518.612488 340.872894,511.786652 361.318909,505.483856 
	C387.542633,497.399963 413.922760,489.823395 440.148193,481.744934 
	C457.038574,476.542053 473.726288,470.684357 490.587830,465.384216 
	C510.466339,459.135712 530.454102,453.235687 550.357849,447.066467 
	C568.077698,441.574188 585.737915,435.889954 603.442566,430.348206 
	C617.655762,425.899323 631.909607,421.580261 646.120972,417.125580 
	C664.921570,411.232330 683.693726,405.248413 702.486938,399.331604 
	C714.494873,395.551117 726.522766,391.834076 738.534302,388.065063 
	C748.955383,384.795166 759.350342,381.441101 769.785461,378.217072 
	C781.957825,374.456329 794.179199,370.853943 806.346680,367.077698 
	C820.433228,362.705902 834.474854,358.189667 848.553467,353.792114 
	C861.184021,349.846924 873.854187,346.028503 886.478271,342.062988 
	C905.152344,336.197052 923.784119,330.196198 942.465576,324.353912 
	C959.849365,318.917480 977.277893,313.624451 994.680481,308.247864 
	C1013.810547,302.337463 1032.943481,296.435577 1052.053955,290.462402 
	C1058.519043,288.441650 1064.919922,286.214935 1071.722046,284.013916 
	C1072.397217,285.343750 1072.964111,286.741882 1072.965332,288.140533 
	C1073.010742,337.591400 1073.003662,387.042297 1072.995850,436.493195 
	C1072.995728,437.155273 1072.893433,437.817352 1072.562988,438.804199 
	C1053.293579,445.079773 1034.301392,451.034882 1015.305969,456.979553 
	C1006.195679,459.830658 997.075073,462.648987 987.966187,465.504639 
	C960.201782,474.208862 932.453979,482.966064 904.672607,491.615875 
	C892.027039,495.553101 879.280273,499.166199 866.646484,503.139740 
	C845.880310,509.670990 825.204102,516.489319 804.423035,522.971863 
	C787.648132,528.204712 770.736145,532.997559 753.956604,538.215942 
	C740.102051,542.524658 726.363220,547.203796 712.551392,551.651489 
	C706.291870,553.667053 699.979675,555.519287 693.517029,557.498962 
	C693.230774,556.341248 693.000244,555.408936 692.493958,553.764404 
	C692.218140,550.459473 692.218140,547.866760 692.218140,545.238831 
	C655.554871,545.238831 619.523865,545.238831 583.351807,545.238831 
	C583.351807,552.865295 583.351807,560.245972 583.351807,568.245972 
	C596.770874,568.245972 609.873657,568.245972 622.976440,568.245972 
	C622.988953,568.909241 623.007202,569.572388 623.013184,570.235718 
	C623.103333,580.181030 623.020386,579.903687 613.481567,582.743042 
	C594.866028,588.284424 576.349243,594.158081 557.799561,599.919861 
	C553.735596,601.182251 549.705261,602.552917 544.913269,603.942017 
	C536.645325,601.948669 529.087280,600.009094 521.612122,597.790588 
	C514.301208,595.620789 506.974762,593.431152 499.847717,590.740112 
	C495.411255,589.065063 492.418640,585.549438 492.420044,580.460449 
	C492.421539,575.119263 495.714264,571.955872 500.286987,569.932129 
	C507.687927,566.656738 515.438416,566.414185 523.292664,567.547852 
	C532.393005,568.861328 537.822510,574.260010 540.159241,583.003540 
	C540.496155,584.264160 540.912415,585.503540 541.096130,586.108276 
	C550.547302,586.108276 559.596313,586.108276 568.689819,586.108276 
	C566.535095,563.505371 557.159180,551.226807 537.343811,545.734985 
	C521.763306,541.416870 506.004669,541.684265 490.692993,547.205139 
	C468.534515,555.194824 459.446991,579.764221 470.916382,599.881836 
	C476.152618,609.066406 484.674866,614.041260 494.018311,617.974304 
	C493.253265,618.850342 492.648407,620.206543 491.696960,620.524048 
	C485.766418,622.502930 479.773132,624.299744 473.772766,626.061951 
	C463.510101,629.075684 453.226898,632.019348 442.488098,634.663086 
	C442.054779,633.900574 442.085693,633.467468 442.322021,632.791077 
	C442.416565,631.348572 442.305725,630.149353 442.170563,628.485352 
	C442.146240,600.456604 442.146240,572.892639 442.146240,545.329651 
	C432.756622,545.329651 423.860352,545.329651 414.778137,545.329651 
	C414.778137,567.129883 414.864655,588.599365 414.738831,610.067627 
	C414.682343,619.710693 414.201233,629.351379 413.684204,639.211792 
	C413.516510,640.617249 413.577393,641.804077 413.670868,643.265137 
	C413.502930,644.040955 413.302399,644.542603 412.731995,645.169434 
	C406.843506,646.931641 401.340942,648.625305 395.802551,650.192383 
	C387.488464,652.544800 379.149261,654.808350 370.489868,657.040710 
	C363.868134,651.977295 361.017517,645.393555 360.968750,637.434204 
	C360.791351,608.483337 360.570587,579.532715 360.368805,550.582031 
	C360.356567,548.828125 360.367218,547.074097 360.367218,545.337158 
	C350.845856,545.337158 341.959351,545.337158 333.117920,545.337158 
	C333.117920,574.952393 332.904907,604.230530 333.223114,633.502930 
	C333.349762,645.153564 334.693298,656.780945 341.598877,666.864075 
	C324.394348,672.298767 307.178192,677.697083 289.989014,683.179871 
	C276.336670,687.534424 262.750610,692.099304 249.072159,696.369019 
	C239.143982,699.468079 229.068558,702.094971 219.137604,705.185608 
	C202.231247,710.447021 185.390823,715.919983 168.515045,721.280029 
	C157.315063,724.837280 146.101730,728.352478 134.531891,731.926147 
	C134.111618,715.520508 134.014145,699.075317 134.004257,682.630066 
	C133.983261,647.738281 134.007889,612.846436 134.085266,577.492798 
	C155.464645,570.190796 176.763779,563.323059 198.085022,556.524719 
	C206.077866,553.976196 214.115036,551.565002 222.155441,549.169861 
	C222.861511,548.959595 223.742447,549.336426 224.572723,549.994507 
	C211.472168,557.739624 202.438202,568.510620 197.397858,582.499878 
	C192.232285,596.836731 191.390839,611.639160 192.785583,626.780884 
	C195.757492,659.044739 216.990601,681.844482 249.067978,684.612854 
	C278.445526,687.148315 299.880554,675.029419 309.827484,646.207703 
	C310.501556,644.254578 310.878174,642.198853 311.443115,639.995850 
	C306.540863,638.533875 302.254181,637.237976 297.956726,635.978760 
	C293.716522,634.736267 289.465393,633.531067 285.038635,632.257568 
	C284.147278,635.078003 283.513306,637.305786 282.742920,639.485474 
	C277.963348,653.009216 267.853149,660.870239 255.159439,660.975708 
	C240.627380,661.096436 229.149460,653.808105 224.732651,640.477722 
	C219.151398,623.633057 218.931900,606.375061 224.035812,589.386902 
	C228.298859,575.197449 239.698563,567.387939 254.189484,566.982239 
	C266.701202,566.632080 279.458893,573.477051 283.615356,588.383301 
	C283.734161,588.809326 284.187042,589.142090 284.647339,589.724976 
	C292.667786,587.703674 300.700623,585.687073 308.726746,583.644043 
	C309.497742,583.447754 310.226959,583.087402 310.931366,582.819946 
	C308.785156,572.424255 302.840973,562.370972 295.282227,556.038452 
	C281.604889,544.579956 265.498627,542.103027 248.390305,543.287964 
z"/>
<path fill="#030205" opacity="1.000000" stroke="none" 
	d="
M1072.316650,128.892181 
	C1072.174072,128.984375 1072.058350,128.499954 1072.116455,128.257782 
	C1072.269409,128.277084 1072.364258,128.538528 1072.316650,128.892181 
z"/>
<path fill="#030205" opacity="1.000000" stroke="none" 
	d="
M130.467407,728.449097 
	C130.523193,728.415710 130.411621,728.482544 130.467407,728.449097 
z"/>
<path fill="#020304" opacity="1.000000" stroke="none" 
	d="
M849.495544,600.999878 
	C849.495789,582.200134 849.495789,563.900452 849.495789,545.299561 
	C863.489746,545.299561 877.072998,545.299561 891.076965,545.299561 
	C899.180420,575.757629 907.319763,606.350403 915.459045,636.943115 
	C915.852539,636.957275 916.246033,636.971436 916.639587,636.985535 
	C924.677551,606.426453 932.715515,575.867371 940.766113,545.260376 
	C954.683044,545.260376 968.263489,545.260376 982.129211,545.260376 
	C982.129211,591.117615 982.129211,636.711060 982.129211,682.667969 
	C973.971436,682.667969 965.743347,682.667969 956.695679,682.667969 
	C956.695679,647.733337 956.695679,612.835022 956.695679,577.936768 
	C956.216736,577.882507 955.737793,577.828308 955.258850,577.774048 
	C952.850525,587.444519 950.429504,597.111755 948.036499,606.786072 
	C942.172424,630.493042 936.246155,654.185242 930.540039,677.930237 
	C929.612732,681.789062 928.209412,683.522949 923.922363,683.129761 
	C918.800476,682.660034 913.570007,682.660583 908.447388,683.126404 
	C903.912720,683.538696 902.153198,681.973633 901.102234,677.574463 
	C893.495178,645.732605 885.621338,613.954468 877.822815,582.158447 
	C877.475769,580.743408 877.039978,579.350159 875.671265,577.994629 
	C875.671265,612.775208 875.671265,647.555786 875.671265,682.687439 
	C866.645142,682.687439 858.393372,682.687439 849.495300,682.687439 
	C849.495300,655.648010 849.495300,628.573975 849.495544,600.999878 
z"/>
<path fill="#020304" opacity="1.000000" stroke="none" 
	d="
M821.966431,654.930664 
	C806.847412,679.291016 784.146729,686.947632 757.454895,684.529175 
	C722.474792,681.359863 700.901733,658.154053 698.750977,622.894470 
	C697.973877,610.153931 698.251953,597.453308 702.536499,585.393982 
	C711.227356,560.932190 728.317200,546.439819 754.589905,543.688477 
	C778.558960,541.178345 799.996521,546.142456 816.375061,565.236877 
	C824.753052,575.004150 829.009460,586.705872 830.541809,599.315857 
	C832.870239,618.477539 831.829590,637.226440 821.966431,654.930664 
M802.377808,603.216431 
	C801.903442,600.430725 801.579773,597.609314 800.929871,594.865234 
	C797.201721,579.124573 784.840210,568.242432 769.518738,567.110535 
	C750.701355,565.720398 736.728394,573.891418 730.697693,590.272827 
	C725.533813,604.299744 725.588379,618.767090 729.260437,633.026428 
	C733.658508,650.104614 747.463623,660.842468 763.854065,660.970459 
	C782.241333,661.114136 795.767090,651.815613 800.216980,633.763489 
	C802.558350,624.265137 801.856323,614.016663 802.377808,603.216431 
z"/>
<path fill="#020405" opacity="1.000000" stroke="none" 
	d="
M494.398132,617.968140 
	C484.674866,614.041260 476.152618,609.066406 470.916382,599.881836 
	C459.446991,579.764221 468.534515,555.194824 490.692993,547.205139 
	C506.004669,541.684265 521.763306,541.416870 537.343811,545.734985 
	C557.159180,551.226807 566.535095,563.505371 568.689819,586.108276 
	C559.596313,586.108276 550.547302,586.108276 541.096130,586.108276 
	C540.912415,585.503540 540.496155,584.264160 540.159241,583.003540 
	C537.822510,574.260010 532.393005,568.861328 523.292664,567.547852 
	C515.438416,566.414185 507.687927,566.656738 500.286987,569.932129 
	C495.714264,571.955872 492.421539,575.119263 492.420044,580.460449 
	C492.418640,585.549438 495.411255,589.065063 499.847717,590.740112 
	C506.974762,593.431152 514.301208,595.620789 521.612122,597.790588 
	C529.087280,600.009094 536.645325,601.948669 544.542786,604.031494 
	C552.228821,607.625366 559.563599,611.110474 564.741882,617.812256 
	C579.265076,636.608276 573.659241,666.966248 552.349365,677.436584 
	C530.158081,688.340027 506.883484,688.455566 484.429016,677.492310 
	C470.832520,670.853943 461.622711,654.098694 461.404419,638.045410 
	C470.041260,637.064331 478.729126,636.077454 487.548492,635.075623 
	C487.930908,636.162109 488.276062,636.903320 488.453827,637.682739 
	C492.950195,657.400024 506.893677,662.818176 525.020996,660.517578 
	C531.066528,659.750305 536.612122,657.692322 540.806335,652.865845 
	C548.037109,644.545166 546.093140,634.150818 535.894470,630.032776 
	C529.149475,627.309326 521.912415,625.802429 514.891357,623.765442 
	C508.189758,621.821167 501.482635,619.895752 494.398132,617.968140 
z"/>
<path fill="#010203" opacity="1.000000" stroke="none" 
	d="
M413.101868,645.044189 
	C413.302399,644.542603 413.502930,644.040955 413.817749,642.885010 
	C413.925659,641.151428 413.919220,640.072266 413.912811,638.993103 
	C414.201233,629.351379 414.682343,619.710693 414.738831,610.067627 
	C414.864655,588.599365 414.778137,567.129883 414.778137,545.329651 
	C423.860352,545.329651 432.756622,545.329651 442.146240,545.329651 
	C442.146240,572.892639 442.146240,600.456604 442.055176,628.882812 
	C442.014954,630.841492 442.065796,631.937988 442.116638,633.034424 
	C442.085693,633.467468 442.054779,633.900574 442.091522,634.653076 
	C441.657684,639.754272 441.491547,644.599854 440.596222,649.306763 
	C436.825897,669.128052 425.327484,680.864624 404.506287,683.535156 
	C392.981476,685.013306 381.003387,684.228577 369.356995,683.122375 
	C358.204834,682.063171 349.160034,676.000366 341.870422,667.016235 
	C334.693298,656.780945 333.349762,645.153564 333.223114,633.502930 
	C332.904907,604.230530 333.117920,574.952393 333.117920,545.337158 
	C341.959351,545.337158 350.845856,545.337158 360.367218,545.337158 
	C360.367218,547.074097 360.356567,548.828125 360.368805,550.582031 
	C360.570587,579.532715 360.791351,608.483337 360.968750,637.434204 
	C361.017517,645.393555 363.868134,651.977295 370.685364,657.334717 
	C379.526062,662.838501 388.543579,662.915649 397.665405,660.975037 
	C406.618530,659.070251 412.052094,653.198364 413.101868,645.044189 
z"/>
<path fill="#010304" opacity="1.000000" stroke="none" 
	d="
M623.386902,568.363892 
	C609.873657,568.245972 596.770874,568.245972 583.351807,568.245972 
	C583.351807,560.245972 583.351807,552.865295 583.351807,545.238831 
	C619.523865,545.238831 655.554871,545.238831 692.218140,545.238831 
	C692.218140,547.866760 692.218140,550.459473 692.288452,553.506348 
	C692.358704,558.421265 692.358704,562.882141 692.358704,567.839966 
	C678.649048,567.839966 665.424561,567.839966 651.706116,567.839966 
	C651.706116,606.338623 651.706116,644.341980 651.706116,682.686890 
	C642.332825,682.686890 633.455627,682.686890 623.936401,682.686890 
	C623.936401,680.848328 623.934998,679.080627 623.936646,677.312988 
	C623.967896,643.190918 624.003784,609.068848 624.020691,574.946777 
	C624.021729,572.791809 623.875244,570.636780 623.386902,568.363892 
z"/>
<path fill="#020405" opacity="1.000000" stroke="none" 
	d="
M248.028336,543.485596 
	C265.498627,542.103027 281.604889,544.579956 295.282227,556.038452 
	C302.840973,562.370972 308.785156,572.424255 310.931366,582.819946 
	C310.226959,583.087402 309.497742,583.447754 308.726746,583.644043 
	C300.700623,585.687073 292.667786,587.703674 284.647339,589.724976 
	C284.187042,589.142090 283.734161,588.809326 283.615356,588.383301 
	C279.458893,573.477051 266.701202,566.632080 254.189484,566.982239 
	C239.698563,567.387939 228.298859,575.197449 224.035812,589.386902 
	C218.931900,606.375061 219.151398,623.633057 224.732651,640.477722 
	C229.149460,653.808105 240.627380,661.096436 255.159439,660.975708 
	C267.853149,660.870239 277.963348,653.009216 282.742920,639.485474 
	C283.513306,637.305786 284.147278,635.078003 285.038635,632.257568 
	C289.465393,633.531067 293.716522,634.736267 297.956726,635.978760 
	C302.254181,637.237976 306.540863,638.533875 311.443115,639.995850 
	C310.878174,642.198853 310.501556,644.254578 309.827484,646.207703 
	C299.880554,675.029419 278.445526,687.148315 249.067978,684.612854 
	C216.990601,681.844482 195.757492,659.044739 192.785583,626.780884 
	C191.390839,611.639160 192.232285,596.836731 197.397858,582.499878 
	C202.438202,568.510620 211.472168,557.739624 224.810043,550.275757 
	C232.566635,547.896545 240.116501,545.789856 248.028336,543.485596 
z"/>
<path fill="#04BCD1" opacity="1.000000" stroke="none" 
	d="
M412.731995,645.169434 
	C412.052094,653.198364 406.618530,659.070251 397.665405,660.975037 
	C388.543579,662.915649 379.526062,662.838501 371.016174,657.403687 
	C379.149261,654.808350 387.488464,652.544800 395.802551,650.192383 
	C401.340942,648.625305 406.843506,646.931641 412.731995,645.169434 
z"/>
<path fill="#039FAB" opacity="1.000000" stroke="none" 
	d="
M442.322021,632.791077 
	C442.065796,631.937988 442.014954,630.841492 442.079498,629.347656 
	C442.305725,630.149353 442.416565,631.348572 442.322021,632.791077 
z"/>
<path fill="#04BCD1" opacity="1.000000" stroke="none" 
	d="
M413.684204,639.211792 
	C413.919220,640.072266 413.925659,641.151428 413.785217,642.610718 
	C413.577393,641.804077 413.516510,640.617249 413.684204,639.211792 
z"/>
<path fill="#01BFD3" opacity="1.000000" stroke="none" 
	d="
M802.453186,603.661621 
	C801.856323,614.016663 802.558350,624.265137 800.216980,633.763489 
	C795.767090,651.815613 782.241333,661.114136 763.854065,660.970459 
	C747.463623,660.842468 733.658508,650.104614 729.260437,633.026428 
	C725.588379,618.767090 725.533813,604.299744 730.697693,590.272827 
	C736.728394,573.891418 750.701355,565.720398 769.518738,567.110535 
	C784.840210,568.242432 797.201721,579.124573 800.929871,594.865234 
	C801.579773,597.609314 801.903442,600.430725 802.453186,603.661621 
z"/>
</svg>