<svg version="1.1" id="Layer_1" xmlns="http://www.w3.org/2000/svg" xmlns:xlink="http://www.w3.org/1999/xlink" x="0px" y="0px"
	 width="100%" viewBox="0 0 1204 1204" enable-background="new 0 0 1204 1204" xml:space="preserve">
<path fill="#FFFFFF" opacity="1.000000" stroke="none" 
	d="
M1204.000000,0.999979 
	C1204.333374,1.166626 1204.943726,1.315892 1204.955566,1.502750 
	C1205.038940,2.830884 1205.000000,4.166667 1205.000000,5.500000 
	C1205.000000,405.333344 1205.000000,805.166687 1205.000000,1205.000000 
	C803.666687,1205.000000 402.333344,1205.000000 1.000000,1205.000000 
	C1.000000,803.666687 1.000000,402.333344 1.502094,1.293771 
	C2.039484,1.780188 2.074780,1.972833 2.067470,2.621791 
	C2.016093,401.862579 2.007043,800.647034 2.009878,1199.431519 
	C2.009888,1200.871460 2.181643,1202.311401 2.289019,1204.000366 
	C5.414401,1204.000366 8.223235,1204.000244 11.032070,1204.000244 
	C406.317200,1204.000122 801.602295,1204.000122 1196.887451,1204.000000 
	C1204.000977,1204.000000 1204.001831,1203.999756 1204.001831,1197.062866 
	C1204.001953,802.444275 1204.002319,407.825745 1203.995728,13.207173 
	C1203.995605,9.543651 1203.902710,5.880131 1203.902832,1.914033 
	C1203.968384,1.407638 1203.984253,1.203819 1204.000000,0.999979 
z"/>
<path fill="#C1C1C1" opacity="1.000000" stroke="none" 
	d="
M2.110077,2.165479 
	C2.074780,1.972833 2.039484,1.780188 2.002094,1.293771 
	C402.366058,1.000000 802.732117,1.000000 1203.549072,1.000000 
	C1203.984253,1.203819 1203.968384,1.407638 1203.446289,1.859049 
	C1180.922363,2.072224 1158.905029,2.021527 1136.887573,2.047739 
	C1135.689453,2.049166 1134.492065,2.693269 1133.270264,3.033229 
	C1131.418579,2.946254 1129.591064,2.796055 1127.763184,2.791973 
	C964.164185,2.426586 800.565308,1.912212 636.966125,1.759295 
	C445.666595,1.580485 254.366791,1.716808 63.067085,1.726882 
	C61.073914,1.726987 59.080753,1.868603 56.613876,1.965745 
	C38.130138,2.046716 20.120108,2.106097 2.110077,2.165479 
z"/>
<path fill="#010101" opacity="1.000000" stroke="none" 
	d="
M1133.294312,3.038218 
	C1134.492065,2.693269 1135.689453,2.049166 1136.887573,2.047739 
	C1158.905029,2.021527 1180.922363,2.072224 1203.396484,2.161626 
	C1203.902710,5.880131 1203.995605,9.543651 1203.995728,13.207173 
	C1204.002319,407.825745 1204.001953,802.444275 1204.001831,1197.062866 
	C1204.001831,1203.999756 1204.000977,1204.000000 1196.887451,1204.000000 
	C801.602295,1204.000122 406.317200,1204.000122 11.032070,1204.000244 
	C8.223235,1204.000244 5.414401,1204.000366 2.289019,1204.000366 
	C2.181643,1202.311401 2.009888,1200.871460 2.009878,1199.431519 
	C2.007043,800.647034 2.016093,401.862579 2.067470,2.621791 
	C20.120108,2.106097 38.130138,2.046716 56.625824,2.445472 
	C55.504848,3.149181 53.899887,3.595470 52.291325,3.608817 
	C38.460529,3.723581 24.629087,3.761459 10.797822,3.818747 
	C8.541334,3.828093 6.284774,3.820060 4.440112,3.820060 
	C4.440112,403.479950 4.440112,802.545471 4.440112,1201.610962 
	C4.744184,1201.610718 5.048255,1201.610596 5.352326,1201.610352 
	C5.352326,803.282654 5.352326,404.954956 5.352326,6.634738 
	C10.251447,4.848417 1191.353882,3.884936 1200.385376,5.690776 
	C1200.385376,404.023346 1200.385376,802.394043 1200.385376,1201.142822 
	C1197.887207,1201.142822 1195.739258,1201.142700 1193.591431,1201.142700 
	C800.443909,1201.142212 407.296417,1201.141602 14.148910,1201.148071 
	C12.152182,1201.148071 10.155456,1201.249146 7.954693,1201.280762 
	C7.886963,1201.407959 8.023268,1201.557617 8.613560,1201.770264 
	C9.567434,1201.840698 10.067321,1201.854980 10.567206,1201.854980 
	C406.553131,1201.856323 802.539062,1201.856689 1198.525024,1201.848145 
	C1199.631104,1201.848145 1200.737305,1201.713135 1201.844360,1201.640991 
	C1201.844360,802.246094 1201.844360,403.163116 1201.844360,3.822013 
	C1181.630249,3.822013 1161.668091,3.852536 1141.706177,3.787171 
	C1138.901367,3.777987 1136.098267,3.299485 1133.294312,3.038218 
M1143.930298,60.644024 
	C1143.823486,60.340565 1143.716675,60.037106 1143.609863,59.733624 
	C1143.403687,60.141350 1143.197632,60.549076 1142.134888,61.049187 
	C1131.181030,60.839626 1120.227173,60.447956 1109.273315,60.446938 
	C763.251831,60.414749 417.230377,60.420639 71.208916,60.418076 
	C68.548180,60.418056 65.887444,60.381310 62.377163,60.120930 
	C61.909218,61.666534 61.031525,63.212048 61.031193,64.757751 
	C60.954330,420.847809 60.939190,776.937866 60.917896,1133.027954 
	C60.917675,1136.685669 60.770565,1140.347290 60.927189,1143.996948 
	C60.950413,1144.538086 62.280876,1145.023071 63.944447,1145.504272 
	C65.942894,1145.461060 67.941345,1145.380127 69.939796,1145.380005 
	C421.587830,1145.373535 773.235901,1145.373413 1124.883911,1145.363525 
	C1128.035156,1145.363403 1131.186401,1145.234375 1134.761475,1144.887573 
	C1134.484131,1144.619019 1134.206909,1144.350464 1133.005371,1143.984863 
	C952.831543,1143.984863 772.657715,1143.985474 592.483887,1143.978149 
	C590.322632,1143.978027 588.161377,1143.875854 586.000000,1143.124512 
	C585.999329,1142.427734 585.998596,1141.730957 586.935547,1141.008789 
	C767.465515,1141.007202 947.995422,1141.005127 1128.525391,1141.007446 
	C1132.688354,1141.007568 1136.851440,1141.059204 1141.089722,1141.801392 
	C1141.700806,1143.107178 1142.157471,1144.525024 1142.988770,1145.670898 
	C1143.398560,1146.235596 1144.501099,1146.297729 1145.290161,1146.587402 
	C1145.104492,1145.672485 1144.918701,1144.757568 1144.949829,1142.952881 
	C1144.995972,1139.128174 1145.082397,1135.303467 1145.082520,1131.478760 
	C1145.088745,780.151184 1145.088501,428.823639 1145.084473,77.496078 
	C1145.084473,72.664085 1145.029419,67.832092 1145.498657,62.664333 
	C1144.944214,62.151447 1144.389893,61.638561 1143.960449,61.032631 
	C1143.960449,61.032631 1143.870483,61.159817 1143.930298,60.644024 
z"/>
<path fill="#7F7F7F" opacity="1.000000" stroke="none" 
	d="
M8.158728,1201.302979 
	C10.155456,1201.249146 12.152182,1201.148071 14.148910,1201.148071 
	C407.296417,1201.141602 800.443909,1201.142212 1193.591431,1201.142700 
	C1195.739258,1201.142700 1197.887207,1201.142822 1200.385376,1201.142822 
	C1200.385376,802.394043 1200.385376,404.023346 1200.385376,5.690776 
	C1191.353882,3.884936 10.251447,4.848417 5.352326,6.634738 
	C5.352326,404.954956 5.352326,803.282654 5.352326,1201.610352 
	C5.048255,1201.610596 4.744184,1201.610718 4.440112,1201.610962 
	C4.440112,802.545471 4.440112,403.479950 4.440112,3.820060 
	C6.284774,3.820060 8.541334,3.828093 10.797822,3.818747 
	C24.629087,3.761459 38.460529,3.723581 52.291325,3.608817 
	C53.899887,3.595470 55.504848,3.149181 57.099533,2.423883 
	C59.080753,1.868603 61.073914,1.726987 63.067085,1.726882 
	C254.366791,1.716808 445.666595,1.580485 636.966125,1.759295 
	C800.565308,1.912212 964.164185,2.426586 1127.763184,2.791973 
	C1129.591064,2.796055 1131.418579,2.946254 1133.270264,3.033233 
	C1136.098267,3.299485 1138.901367,3.777987 1141.706177,3.787171 
	C1161.668091,3.852536 1181.630249,3.822013 1201.844360,3.822013 
	C1201.844360,403.163116 1201.844360,802.246094 1201.844360,1201.640991 
	C1200.737305,1201.713135 1199.631104,1201.848145 1198.525024,1201.848145 
	C802.539062,1201.856689 406.553131,1201.856323 10.567206,1201.854980 
	C10.067321,1201.854980 9.567434,1201.840698 8.625010,1201.669189 
	C8.182470,1201.505371 8.158726,1201.302979 8.158728,1201.302979 
z"/>
<path fill="#010101" opacity="1.000000" stroke="none" 
	d="
M1144.733032,1143.842651 
	C1144.918701,1144.757568 1145.104492,1145.672485 1145.290161,1146.587402 
	C1144.501099,1146.297729 1143.398560,1146.235596 1142.988770,1145.670898 
	C1142.157471,1144.525024 1141.700806,1143.107178 1141.055908,1140.965820 
	C1141.014771,1138.130371 1141.000977,1136.130493 1141.000977,1134.130737 
	C1141.000000,780.668335 1141.000000,427.205994 1141.000000,73.743599 
	C1141.000000,70.981628 1141.000000,68.219658 1141.000000,65.237152 
	C955.490295,65.237152 770.757507,65.237152 586.024780,65.237152 
	C586.022217,65.491028 586.019653,65.744904 586.017090,65.998779 
	C587.951965,65.998779 589.886841,65.998779 591.821716,65.998779 
	C772.469177,65.998810 953.116577,66.020584 1133.763916,65.886238 
	C1138.805542,65.882492 1140.119507,67.117348 1140.117676,72.220070 
	C1139.988159,426.015686 1140.000244,779.811401 1139.999390,1133.607056 
	C1139.999390,1139.991943 1139.995483,1139.991577 1133.430786,1139.991821 
	C1037.940918,1139.994507 942.451172,1139.998169 846.961365,1139.999756 
	C761.470459,1140.001099 675.979553,1139.994629 590.488647,1140.042969 
	C588.991577,1140.043823 587.494812,1140.689453 585.997925,1141.034180 
	C585.998596,1141.730957 585.999329,1142.427734 585.535522,1143.539551 
	C411.047394,1143.969238 237.023697,1143.983887 62.990440,1143.530029 
	C62.992920,1140.895996 63.015526,1138.730347 63.015499,1136.564819 
	C63.011375,778.372192 63.005638,420.179626 63.468632,61.981964 
	C64.437141,61.986683 64.936989,62.005020 65.436829,62.005016 
	C418.103180,62.001755 770.769531,61.998528 1123.435913,61.983391 
	C1130.265503,61.983097 1137.095093,61.842422 1143.953125,62.102798 
	C1144.006104,62.661488 1144.030640,62.884624 1144.025879,63.565655 
	C1143.998169,70.020859 1144.001587,76.018173 1144.001465,82.015480 
	C1143.995605,433.695374 1143.988159,785.375305 1144.014404,1137.055176 
	C1144.014526,1139.317627 1144.483154,1141.580200 1144.733032,1143.842651 
M66.383629,1139.438477 
	C66.255310,1136.958374 66.014694,1134.478394 66.014572,1131.998291 
	C65.997986,778.501160 65.998840,425.004089 65.998947,71.506989 
	C65.998947,69.732681 65.998940,67.958382 65.998940,66.184074 
	C65.665901,66.194717 65.332855,66.205360 64.999817,66.216003 
	C64.999817,68.856392 64.999817,71.496788 64.999817,74.137184 
	C64.999886,426.634308 64.999939,779.131409 64.999870,1131.628540 
	C64.999870,1133.795166 64.792603,1135.990112 65.086182,1138.116089 
	C65.226440,1139.131592 66.315506,1140.016235 67.916733,1140.991699 
	C238.881058,1140.991699 409.845398,1140.991699 580.809692,1140.991699 
	C580.819580,1140.659302 580.829468,1140.326782 580.839294,1139.994385 
	C579.863159,1139.994385 578.886963,1139.994385 577.910828,1139.994507 
	C407.600067,1140.007446 237.289291,1140.020264 66.383629,1139.438477 
M1072.072510,283.205841 
	C1071.983521,282.471222 1071.894531,281.736633 1071.963013,280.076385 
	C1071.972046,249.321396 1072.003906,218.566406 1071.981934,187.811432 
	C1071.967896,168.198654 1071.874023,148.585953 1071.955933,128.104736 
	C1071.896729,126.841339 1071.837402,125.577950 1071.779175,124.335388 
	C759.049561,124.335388 446.726471,124.335388 133.987762,124.335388 
	C133.987762,127.142082 133.987762,129.613876 133.987762,132.085663 
	C133.987762,278.381989 133.987213,424.678345 133.994949,570.974670 
	C133.995041,572.636963 134.102875,574.299316 134.032669,576.495483 
	C134.073471,576.673889 134.114273,576.852234 134.009628,577.954102 
	C134.003632,596.397034 133.977493,614.839905 133.996078,633.282837 
	C134.028885,665.845825 134.088928,698.408813 133.975815,731.900330 
	C133.975815,848.497681 133.975815,965.094971 133.975815,1081.678345 
	C446.896210,1081.678345 759.277039,1081.678345 1071.990234,1081.678345 
	C1071.990234,1079.509033 1071.990234,1077.702881 1071.990234,1075.896606 
	C1071.989014,866.074524 1071.988647,656.252441 1071.974731,446.430389 
	C1071.974609,444.273254 1071.795776,442.116089 1072.167480,439.233246 
	C1072.444458,437.489227 1072.961548,435.745422 1072.963135,434.001129 
	C1073.007812,385.709717 1073.009521,337.418243 1072.962769,289.126831 
	C1072.961060,287.400146 1072.393921,285.673981 1072.072510,283.205841 
M217.500000,65.000916 
	C185.417725,65.000916 153.335449,65.000916 121.253174,65.000916 
	C121.254890,65.219429 121.256607,65.437935 121.258316,65.656448 
	C273.083466,65.656448 424.908569,65.656448 576.733704,65.656448 
	C576.733643,65.437935 576.733521,65.219429 576.733398,65.000916 
	C457.322296,65.000916 337.911133,65.000916 217.500000,65.000916 
z"/>
<path fill="#191919" opacity="1.000000" stroke="none" 
	d="
M586.466736,1141.021484 
	C587.494812,1140.689453 588.991577,1140.043823 590.488647,1140.042969 
	C675.979553,1139.994629 761.470459,1140.001099 846.961365,1139.999756 
	C942.451172,1139.998169 1037.940918,1139.994507 1133.430786,1139.991821 
	C1139.995483,1139.991577 1139.999390,1139.991943 1139.999390,1133.607056 
	C1140.000244,779.811401 1139.988159,426.015686 1140.117676,72.220070 
	C1140.119507,67.117348 1138.805542,65.882492 1133.763916,65.886238 
	C953.116577,66.020584 772.469177,65.998810 591.821716,65.998779 
	C589.886841,65.998779 587.951965,65.998779 586.017090,65.998779 
	C586.019653,65.744904 586.022217,65.491028 586.024780,65.237152 
	C770.757507,65.237152 955.490295,65.237152 1141.000000,65.237152 
	C1141.000000,68.219658 1141.000000,70.981628 1141.000000,73.743599 
	C1141.000000,427.205994 1141.000000,780.668335 1141.000977,1134.130737 
	C1141.000977,1136.130493 1141.014771,1138.130371 1141.018311,1140.608398 
	C1136.851440,1141.059204 1132.688354,1141.007568 1128.525391,1141.007446 
	C947.995422,1141.005127 767.465515,1141.007202 586.466736,1141.021484 
z"/>
<path fill="#4F4F4F" opacity="1.000000" stroke="none" 
	d="
M62.999962,61.987015 
	C63.005638,420.179626 63.011375,778.372192 63.015499,1136.564819 
	C63.015526,1138.730347 62.992920,1140.895996 63.003941,1143.913818 
	C63.020176,1145.022217 63.013355,1145.278076 63.006542,1145.534058 
	C62.280876,1145.023071 60.950413,1144.538086 60.927189,1143.996948 
	C60.770565,1140.347290 60.917675,1136.685669 60.917896,1133.027954 
	C60.939190,776.937866 60.954330,420.847809 61.031193,64.757751 
	C61.031525,63.212048 61.909218,61.666534 62.759293,60.512760 
	C63.094265,61.265400 63.047112,61.626205 62.999962,61.987015 
z"/>
<path fill="#9C9C9C" opacity="1.000000" stroke="none" 
	d="
M63.468628,61.981964 
	C63.047112,61.626205 63.094265,61.265400 63.184063,60.633148 
	C65.887444,60.381310 68.548180,60.418056 71.208916,60.418076 
	C417.230377,60.420639 763.251831,60.414749 1109.273315,60.446938 
	C1120.227173,60.447956 1131.181030,60.839626 1142.773926,61.092323 
	C1143.413086,61.135464 1143.870483,61.159817 1143.870483,61.159817 
	C1143.870483,61.159817 1143.960449,61.032631 1143.891113,61.243515 
	C1143.821899,61.454395 1143.924683,61.767242 1143.924683,61.767242 
	C1137.095093,61.842422 1130.265503,61.983097 1123.435913,61.983391 
	C770.769531,61.998528 418.103180,62.001755 65.436829,62.005016 
	C64.936989,62.005020 64.437141,61.986683 63.468628,61.981964 
z"/>
<path fill="#9C9C9C" opacity="1.000000" stroke="none" 
	d="
M1144.841431,1143.397705 
	C1144.483154,1141.580200 1144.014526,1139.317627 1144.014404,1137.055176 
	C1143.988159,785.375305 1143.995605,433.695374 1144.001465,82.015480 
	C1144.001587,76.018173 1143.998169,70.020859 1144.260986,63.529411 
	C1144.525513,63.035267 1145.000000,63.000095 1145.000000,63.000095 
	C1145.029419,67.832092 1145.084473,72.664085 1145.084473,77.496078 
	C1145.088501,428.823639 1145.088745,780.151184 1145.082520,1131.478760 
	C1145.082397,1135.303467 1144.995972,1139.128174 1144.841431,1143.397705 
z"/>
<path fill="#9C9C9C" opacity="1.000000" stroke="none" 
	d="
M63.475491,1145.519165 
	C63.013355,1145.278076 63.020176,1145.022217 63.013496,1144.382324 
	C237.023697,1143.983887 411.047394,1143.969238 585.535645,1143.887939 
	C588.161377,1143.875854 590.322632,1143.978027 592.483887,1143.978149 
	C772.657715,1143.985474 952.831543,1143.984863 1133.550537,1144.311523 
	C1134.176392,1144.813965 1134.256958,1144.989746 1134.337646,1145.165649 
	C1131.186401,1145.234375 1128.035156,1145.363403 1124.883911,1145.363525 
	C773.235901,1145.373413 421.587830,1145.373535 69.939796,1145.380005 
	C67.941345,1145.380127 65.942894,1145.461060 63.475491,1145.519165 
z"/>
<path fill="#191919" opacity="1.000000" stroke="none" 
	d="
M1145.249268,62.832214 
	C1145.000000,63.000095 1144.525513,63.035267 1144.290405,63.071510 
	C1144.030640,62.884624 1144.006104,62.661488 1143.953125,62.102798 
	C1143.924683,61.767242 1143.821899,61.454395 1143.828613,61.290035 
	C1144.389893,61.638561 1144.944214,62.151447 1145.249268,62.832214 
z"/>
<path fill="#191919" opacity="1.000000" stroke="none" 
	d="
M1143.900391,60.901920 
	C1143.870483,61.159817 1143.413086,61.135464 1143.202271,61.046135 
	C1143.197632,60.549076 1143.403687,60.141350 1143.609863,59.733635 
	C1143.716675,60.037106 1143.823486,60.340565 1143.900391,60.901920 
z"/>
<path fill="#4F4F4F" opacity="1.000000" stroke="none" 
	d="
M1134.549561,1145.026611 
	C1134.256958,1144.989746 1134.176392,1144.813965 1134.012695,1144.359985 
	C1134.206909,1144.350464 1134.484131,1144.619019 1134.549561,1145.026611 
z"/>
<path fill="#4F4F4F" opacity="1.000000" stroke="none" 
	d="
M7.954692,1201.280640 
	C8.158726,1201.302979 8.182470,1201.505371 8.171021,1201.606323 
	C8.023268,1201.557617 7.886963,1201.407959 7.954692,1201.280640 
z"/>
<path fill="#00C0D5" opacity="1.000000" stroke="none" 
	d="
M1071.700439,439.958923 
	C1071.795776,442.116089 1071.974609,444.273254 1071.974731,446.430389 
	C1071.988647,656.252441 1071.989014,866.074524 1071.990234,1075.896606 
	C1071.990234,1077.702881 1071.990234,1079.509033 1071.990234,1081.678345 
	C759.277039,1081.678345 446.896210,1081.678345 133.975815,1081.678345 
	C133.975815,965.094971 133.975815,848.497681 134.448547,731.446411 
	C145.868164,727.738770 156.829971,724.534180 167.759033,721.221497 
	C194.673157,713.063721 221.607162,704.968872 248.465683,696.631348 
	C267.944427,690.584717 287.287018,684.100891 306.743286,677.980408 
	C321.238556,673.420532 335.827667,669.159851 350.358276,664.711304 
	C364.274536,660.450928 378.180481,656.155884 392.070221,651.809753 
	C405.043121,647.750549 417.999298,643.637024 430.943481,639.487061 
	C443.553406,635.444214 456.097504,631.191650 468.745026,627.271667 
	C486.115387,621.887939 503.588470,616.835510 520.958374,611.450439 
	C543.740234,604.387451 566.454834,597.107849 589.216736,589.980042 
	C605.486389,584.885254 621.805481,579.947998 638.067444,574.829041 
	C655.607605,569.307739 673.078186,563.564453 690.632019,558.087769 
	C708.752136,552.434509 726.964966,547.078552 745.082336,541.416687 
	C758.695251,537.162415 772.179932,532.497375 785.796021,528.253723 
	C804.284241,522.491638 822.857544,517.003113 841.367798,511.310791 
	C856.681213,506.601532 871.940063,501.715210 887.251953,497.000977 
	C906.573059,491.052399 925.962646,485.323700 945.249268,479.266541 
	C961.910950,474.033691 978.441528,468.384277 995.084290,463.089600 
	C1006.771240,459.371552 1018.544556,455.923798 1030.288086,452.384735 
	C1044.087280,448.226196 1057.895874,444.099457 1071.700439,439.958923 
z"/>
<path fill="#00C0D5" opacity="1.000000" stroke="none" 
	d="
M134.155075,577.030640 
	C134.114273,576.852234 134.073471,576.673889 134.359283,575.912598 
	C134.790619,573.344116 134.986771,571.358643 134.986969,569.373108 
	C135.001251,424.874817 135.000000,280.376526 135.000000,135.878220 
	C135.000000,132.430450 135.000000,128.982681 135.000000,125.000000 
	C137.373947,125.000000 139.169601,125.000000 140.965256,125.000000 
	C447.461670,125.000000 753.958069,124.996361 1060.454468,125.075684 
	C1062.543335,125.076225 1064.631836,126.221703 1067.488892,127.057274 
	C1067.666748,126.888832 1068.714722,125.895958 1069.823364,124.845703 
	C1070.647949,126.553764 1071.231934,127.763481 1071.816040,128.973206 
	C1071.874023,148.585953 1071.967896,168.198654 1071.981934,187.811432 
	C1072.003906,218.566406 1071.972046,249.321396 1071.614746,280.579041 
	C1071.177612,282.066406 1071.088745,283.051147 1070.675049,284.191589 
	C1069.659302,284.806000 1069.028809,285.462830 1068.268677,285.693970 
	C1055.092896,289.700317 1041.856689,293.513336 1028.723755,297.654236 
	C1010.953613,303.257294 993.288513,309.193329 975.523682,314.813660 
	C963.369629,318.658905 951.110229,322.169830 938.919067,325.899445 
	C909.177551,334.998199 879.425842,344.064758 849.722534,353.287079 
	C832.013733,358.785309 814.411011,364.624115 796.719727,370.179840 
	C780.309448,375.333282 763.831482,380.270721 747.408630,385.384430 
	C734.301208,389.465790 721.247131,393.718414 708.141174,397.804657 
	C694.693909,401.997345 681.181763,405.983398 667.753967,410.236847 
	C652.637817,415.025055 637.626160,420.145142 622.491638,424.873108 
	C607.341919,429.605804 592.053101,433.893311 576.904297,438.628754 
	C557.924866,444.561646 539.061890,450.867188 520.082397,456.799774 
	C500.184570,463.019440 480.178986,468.894043 460.275024,475.094513 
	C442.718689,480.563629 425.268494,486.373199 407.714752,491.850708 
	C389.091949,497.661804 370.375854,503.173828 351.750977,508.978302 
	C338.611084,513.073364 325.594177,517.562866 312.452972,521.653381 
	C293.006958,527.706482 273.481110,533.502686 254.024200,539.521240 
	C240.143753,543.814819 226.324799,548.306946 212.470963,552.686951 
	C199.034073,556.935059 185.599136,561.190063 172.142090,565.373718 
	C159.494171,569.305847 146.818527,573.148560 134.155075,577.030640 
z"/>
<path fill="#02E4FD" opacity="1.000000" stroke="none" 
	d="
M134.082352,577.492371 
	C146.818527,573.148560 159.494171,569.305847 172.142090,565.373718 
	C185.599136,561.190063 199.034073,556.935059 212.470963,552.686951 
	C226.324799,548.306946 240.143753,543.814819 254.024200,539.521240 
	C273.481110,533.502686 293.006958,527.706482 312.452972,521.653381 
	C325.594177,517.562866 338.611084,513.073364 351.750977,508.978302 
	C370.375854,503.173828 389.091949,497.661804 407.714752,491.850708 
	C425.268494,486.373199 442.718689,480.563629 460.275024,475.094513 
	C480.178986,468.894043 500.184570,463.019440 520.082397,456.799774 
	C539.061890,450.867188 557.924866,444.561646 576.904297,438.628754 
	C592.053101,433.893311 607.341919,429.605804 622.491638,424.873108 
	C637.626160,420.145142 652.637817,415.025055 667.753967,410.236847 
	C681.181763,405.983398 694.693909,401.997345 708.141174,397.804657 
	C721.247131,393.718414 734.301208,389.465790 747.408630,385.384430 
	C763.831482,380.270721 780.309448,375.333282 796.719727,370.179840 
	C814.411011,364.624115 832.013733,358.785309 849.722534,353.287079 
	C879.425842,344.064758 909.177551,334.998199 938.919067,325.899445 
	C951.110229,322.169830 963.369629,318.658905 975.523682,314.813660 
	C993.288513,309.193329 1010.953613,303.257294 1028.723755,297.654236 
	C1041.856689,293.513336 1055.092896,289.700317 1068.268677,285.693970 
	C1069.028809,285.462830 1069.659302,284.806000 1070.949219,284.188080 
	C1071.729004,284.001740 1071.909668,283.974640 1072.090454,283.947540 
	C1072.393921,285.673981 1072.961060,287.400146 1072.962769,289.126831 
	C1073.009521,337.418243 1073.007812,385.709717 1072.963135,434.001129 
	C1072.961548,435.745422 1072.444458,437.489227 1071.933960,439.596069 
	C1057.895874,444.099457 1044.087280,448.226196 1030.288086,452.384735 
	C1018.544556,455.923798 1006.771240,459.371552 995.084290,463.089600 
	C978.441528,468.384277 961.910950,474.033691 945.249268,479.266541 
	C925.962646,485.323700 906.573059,491.052399 887.251953,497.000977 
	C871.940063,501.715210 856.681213,506.601532 841.367798,511.310791 
	C822.857544,517.003113 804.284241,522.491638 785.796021,528.253723 
	C772.179932,532.497375 758.695251,537.162415 745.082336,541.416687 
	C726.964966,547.078552 708.752136,552.434509 690.632019,558.087769 
	C673.078186,563.564453 655.607605,569.307739 638.067444,574.829041 
	C621.805481,579.947998 605.486389,584.885254 589.216736,589.980042 
	C566.454834,597.107849 543.740234,604.387451 520.958374,611.450439 
	C503.588470,616.835510 486.115387,621.887939 468.745026,627.271667 
	C456.097504,631.191650 443.553406,635.444214 430.943481,639.487061 
	C417.999298,643.637024 405.043121,647.750549 392.070221,651.809753 
	C378.180481,656.155884 364.274536,660.450928 350.358276,664.711304 
	C335.827667,669.159851 321.238556,673.420532 306.743286,677.980408 
	C287.287018,684.100891 267.944427,690.584717 248.465683,696.631348 
	C221.607162,704.968872 194.673157,713.063721 167.759033,721.221497 
	C156.829971,724.534180 145.868164,727.738770 134.529419,730.982178 
	C134.088928,698.408813 134.028885,665.845825 133.996078,633.282837 
	C133.977493,614.839905 134.003632,596.397034 134.082352,577.492371 
z"/>
<path fill="#00C0D5" opacity="1.000000" stroke="none" 
	d="
M1071.885986,128.538971 
	C1071.231934,127.763481 1070.647949,126.553764 1069.823364,124.845703 
	C1068.714722,125.895958 1067.666748,126.888832 1067.488892,127.057274 
	C1064.631836,126.221703 1062.543335,125.076225 1060.454468,125.075684 
	C753.958069,124.996361 447.461670,125.000000 140.965256,125.000000 
	C139.169601,125.000000 137.373947,125.000000 135.000000,125.000000 
	C135.000000,128.982681 135.000000,132.430450 135.000000,135.878220 
	C135.000000,280.376526 135.001251,424.874817 134.986969,569.373108 
	C134.986771,571.358643 134.790619,573.344116 134.423157,575.645630 
	C134.102875,574.299316 133.995041,572.636963 133.994949,570.974670 
	C133.987213,424.678345 133.987762,278.381989 133.987762,132.085663 
	C133.987762,129.613876 133.987762,127.142082 133.987762,124.335388 
	C446.726471,124.335388 759.049561,124.335388 1071.779175,124.335388 
	C1071.837402,125.577950 1071.896729,126.841339 1071.885986,128.538971 
z"/>
<path fill="#282828" opacity="1.000000" stroke="none" 
	d="
M66.974808,1140.960205 
	C66.315506,1140.016235 65.226440,1139.131592 65.086182,1138.116089 
	C64.792603,1135.990112 64.999870,1133.795166 64.999870,1131.628540 
	C64.999939,779.131409 64.999886,426.634308 64.999817,74.137184 
	C64.999817,71.496788 64.999817,68.856392 64.999817,66.216003 
	C65.332855,66.205360 65.665901,66.194717 65.998940,66.184074 
	C65.998940,67.958382 65.998947,69.732681 65.998947,71.506989 
	C65.998840,425.004089 65.997986,778.501160 66.014572,1131.998291 
	C66.014694,1134.478394 66.255310,1136.958374 66.684372,1139.967407 
	C66.985107,1140.496338 66.974792,1140.960205 66.974808,1140.960205 
z"/>
<path fill="#191919" opacity="1.000000" stroke="none" 
	d="
M67.445763,1140.975952 
	C66.974792,1140.960205 66.985107,1140.496338 66.981819,1140.264771 
	C237.289291,1140.020264 407.600067,1140.007446 577.910828,1139.994507 
	C578.886963,1139.994385 579.863159,1139.994385 580.839294,1139.994385 
	C580.829468,1140.326782 580.819580,1140.659302 580.809692,1140.991699 
	C409.845398,1140.991699 238.881058,1140.991699 67.445763,1140.975952 
z"/>
<path fill="#191919" opacity="1.000000" stroke="none" 
	d="
M218.000000,65.000916 
	C337.911133,65.000916 457.322296,65.000916 576.733398,65.000916 
	C576.733521,65.219429 576.733643,65.437935 576.733704,65.656448 
	C424.908569,65.656448 273.083466,65.656448 121.258316,65.656448 
	C121.256607,65.437935 121.254890,65.219429 121.253174,65.000916 
	C153.335449,65.000916 185.417725,65.000916 218.000000,65.000916 
z"/>
<path fill="#00C0D5" opacity="1.000000" stroke="none" 
	d="
M1072.081543,283.576691 
	C1071.909668,283.974640 1071.729004,284.001740 1071.274170,284.032349 
	C1071.088745,283.051147 1071.177612,282.066406 1071.535889,281.041870 
	C1071.894531,281.736633 1071.983521,282.471222 1072.081543,283.576691 
z"/>
</svg>