<svg version="1.1" id="Layer_1" xmlns="http://www.w3.org/2000/svg" xmlns:xlink="http://www.w3.org/1999/xlink" x="0px" y="0px"
	 width="100%" viewBox="0 0 1204 1204" enable-background="new 0 0 1204 1204" xml:space="preserve">
<path fill="#FEFEFE" opacity="1.000000" stroke="none" 
	d="
M1204.000000,0.999979 
	C1204.333374,1.166626 1204.943726,1.315892 1204.955566,1.502750 
	C1205.038940,2.830884 1205.000000,4.166667 1205.000000,5.500000 
	C1205.000000,405.333344 1205.000000,805.166687 1205.000000,1205.000000 
	C803.666687,1205.000000 402.333344,1205.000000 1.000000,1205.000000 
	C1.000000,803.666687 1.000000,402.333344 1.511852,1.303917 
	C2.062742,1.806806 2.101780,2.005777 2.088432,2.657825 
	C2.020720,3.776939 1.991961,4.442977 1.991959,5.109016 
	C1.991028,403.074921 1.992061,801.040833 1.993040,1199.006714 
	C1.993044,1200.586182 1.993042,1202.165527 1.993042,1203.731201 
	C403.044678,1203.731201 803.275635,1203.731201 1204.008301,1203.731201 
	C1204.008301,1201.507568 1204.008423,1199.553345 1204.008423,1197.599121 
	C1204.008423,802.799438 1204.008667,407.999725 1204.002075,13.200038 
	C1204.001953,9.536447 1203.908569,5.872858 1203.906494,1.908390 
	C1203.969360,1.405008 1203.984741,1.202504 1204.000000,0.999979 
z"/>
<path fill="#C2C2C2" opacity="1.000000" stroke="none" 
	d="
M2.140818,2.204749 
	C2.101780,2.005777 2.062742,1.806806 2.011852,1.303917 
	C402.366058,1.000000 802.732117,1.000000 1203.549072,1.000000 
	C1203.984741,1.202504 1203.969360,1.405008 1203.449463,1.852104 
	C1200.780029,2.055699 1198.615234,1.978802 1196.450317,1.978782 
	C801.509583,1.975070 406.568878,1.976299 11.628175,1.987744 
	C8.465720,1.987836 5.303270,2.129295 2.140818,2.204749 
z"/>
<path fill="#050505" opacity="1.000000" stroke="none" 
	d="
M2.088432,2.657825 
	C5.303270,2.129295 8.465720,1.987836 11.628175,1.987744 
	C406.568878,1.976299 801.509583,1.975070 1196.450317,1.978782 
	C1198.615234,1.978802 1200.780029,2.055699 1203.401855,2.152982 
	C1203.908569,5.872858 1204.001953,9.536447 1204.002075,13.200038 
	C1204.008667,407.999725 1204.008423,802.799438 1204.008423,1197.599121 
	C1204.008423,1199.553345 1204.008301,1201.507568 1204.008301,1203.731201 
	C803.275635,1203.731201 403.044678,1203.731201 1.993042,1203.731201 
	C1.993042,1202.165527 1.993044,1200.586182 1.993040,1199.006714 
	C1.992061,801.040833 1.991028,403.074921 1.991959,5.109016 
	C1.991961,4.442977 2.020720,3.776939 2.088432,2.657825 
M561.500000,1201.957886 
	C774.904846,1201.957886 988.309692,1201.957886 1201.591553,1201.957886 
	C1201.591553,802.246094 1201.591553,403.205658 1201.591553,4.181685 
	C802.329102,4.181685 403.423462,4.181685 4.388525,4.181685 
	C4.388525,403.468597 4.388525,802.508057 4.388525,1201.957886 
	C189.940918,1201.957886 375.220459,1201.957886 561.500000,1201.957886 
z"/>
<path fill="#ADADAD" opacity="1.000000" stroke="none" 
	d="
M561.000000,1201.957886 
	C375.220459,1201.957886 189.940918,1201.957886 4.388525,1201.957886 
	C4.388525,802.508057 4.388525,403.468597 4.388525,4.181685 
	C403.423462,4.181685 802.329102,4.181685 1201.591553,4.181685 
	C1201.591553,403.205658 1201.591553,802.246094 1201.591553,1201.957886 
	C988.309692,1201.957886 774.904846,1201.957886 561.000000,1201.957886 
M1199.025024,784.500000 
	C1199.025146,527.181946 1199.025146,269.863922 1199.025024,12.545882 
	C1199.025024,5.977069 1199.022705,5.893070 1192.621338,5.976390 
	C1170.996460,6.257856 1149.372437,6.897963 1127.748413,6.882236 
	C768.143005,6.620706 408.537659,6.279905 48.932266,5.958191 
	C39.599461,5.949842 30.266642,5.957139 20.933828,5.957139 
	C16.155058,5.957139 11.376288,5.957139 6.010085,5.957139 
	C6.010085,9.086898 6.010086,11.539008 6.010086,13.991118 
	C6.010009,406.469269 6.009932,798.947388 6.010008,1191.425537 
	C6.010010,1199.044434 6.010850,1199.046875 13.703360,1199.046753 
	C177.194244,1199.045410 340.685150,1199.042969 504.176025,1199.041870 
	C733.663269,1199.040283 963.150452,1199.026489 1192.637695,1199.129761 
	C1197.376099,1199.131958 1199.181030,1198.403320 1199.173828,1192.977051 
	C1198.994019,1057.151489 1199.028564,921.325745 1199.025024,784.500000 
z"/>
<path fill="#D6D6D6" opacity="1.000000" stroke="none" 
	d="
M1199.025146,785.000000 
	C1199.028564,921.325745 1198.994019,1057.151489 1199.173828,1192.977051 
	C1199.181030,1198.403320 1197.376099,1199.131958 1192.637695,1199.129761 
	C963.150452,1199.026489 733.663269,1199.040283 504.176025,1199.041870 
	C340.685150,1199.042969 177.194244,1199.045410 13.703360,1199.046753 
	C6.010850,1199.046875 6.010010,1199.044434 6.010008,1191.425537 
	C6.009932,798.947388 6.010009,406.469269 6.010086,13.991118 
	C6.010086,11.539008 6.010085,9.086898 6.010085,5.957139 
	C11.376288,5.957139 16.155058,5.957139 20.933828,5.957139 
	C30.266642,5.957139 39.599461,5.949842 48.932266,5.958191 
	C408.537659,6.279905 768.143005,6.620706 1127.748413,6.882236 
	C1149.372437,6.897963 1170.996460,6.257856 1192.621338,5.976390 
	C1199.022705,5.893070 1199.025024,5.977069 1199.025024,12.545882 
	C1199.025146,269.863922 1199.025146,527.181946 1199.025146,785.000000 
M272.500061,61.784023 
	C202.397812,61.784023 132.295563,61.784023 62.176819,61.784023 
	C62.176819,422.792877 62.176819,783.376038 62.176819,1143.936279 
	C422.962646,1143.936279 783.528503,1143.936279 1144.160400,1143.936279 
	C1144.160400,783.010376 1144.160400,422.457764 1144.160400,61.784008 
	C853.768616,61.784008 563.634338,61.784008 272.500061,61.784023 
z"/>
<path fill="#0C0C0C" opacity="1.000000" stroke="none" 
	d="
M273.000092,61.784016 
	C563.634338,61.784008 853.768616,61.784008 1144.160400,61.784008 
	C1144.160400,422.457764 1144.160400,783.010376 1144.160400,1143.936279 
	C783.528503,1143.936279 422.962646,1143.936279 62.176819,1143.936279 
	C62.176819,783.376038 62.176819,422.792877 62.176819,61.784023 
	C132.295563,61.784023 202.397812,61.784023 273.000092,61.784016 
M580.771729,128.979248 
	C581.463013,127.993851 582.941956,126.464943 582.704224,126.120461 
	C581.838623,124.865814 580.399109,124.007057 578.865845,122.498383 
	C578.580078,122.232895 578.294250,121.967407 578.012817,121.349144 
	C578.012817,121.349144 578.033875,120.996941 578.667175,120.427345 
	C578.667175,102.042770 578.667175,83.658195 578.667175,65.029709 
	C407.931580,65.029709 237.492477,65.029709 66.541412,64.910172 
	C66.324570,65.154778 66.107735,65.399391 65.876083,66.625931 
	C65.874138,70.958488 65.870483,75.291054 65.870483,79.623611 
	C65.870201,430.425995 65.870239,781.228394 65.870239,1132.030762 
	C65.870239,1134.812866 65.870239,1137.595093 65.870239,1140.574707 
	C237.123291,1140.574707 407.852692,1140.574707 579.237061,1140.574707 
	C579.237061,1132.893799 579.237061,1125.443359 579.940125,1117.977783 
	C581.556946,1117.316406 583.173828,1116.655151 584.960632,1116.918091 
	C584.960632,1124.830444 584.960632,1132.742676 584.960632,1140.466309 
	C770.651672,1140.466309 955.554260,1140.466309 1140.483398,1140.466309 
	C1140.483398,781.910095 1140.483398,423.700928 1140.483398,65.423889 
	C955.231079,65.423889 770.316162,65.423889 584.855103,65.423889 
	C584.855103,86.774956 584.855103,107.894791 584.326721,129.650192 
	C584.501953,137.429245 584.677185,145.208313 585.004211,153.915405 
	C584.955200,166.948822 584.906189,179.982224 584.327576,193.650055 
	C584.218384,200.386505 583.993164,207.123886 584.046021,213.859055 
	C584.075073,217.569382 584.571472,221.276047 585.013062,225.912186 
	C584.957764,246.609940 584.902405,267.307709 584.280334,288.048279 
	C583.843811,288.368378 583.407288,288.688477 582.229858,289.007477 
	C581.489014,289.004150 580.748169,289.000824 580.003784,288.060730 
	C580.007690,235.043808 580.011658,182.026871 580.771729,128.979248 
z"/>
<path fill="#FDFDFD" opacity="1.000000" stroke="none" 
	d="
M584.847107,288.005463 
	C584.902405,267.307709 584.957764,246.609940 585.007690,224.985809 
	C584.953979,213.711502 584.905579,203.363571 584.857178,193.015640 
	C584.906189,179.982224 584.955200,166.948822 585.003052,152.988876 
	C584.953003,144.379776 584.904053,136.697189 584.855103,129.014618 
	C584.855103,107.894791 584.855103,86.774956 584.855103,65.423889 
	C770.316162,65.423889 955.231079,65.423889 1140.483398,65.423889 
	C1140.483398,423.700928 1140.483398,781.910095 1140.483398,1140.466309 
	C955.554260,1140.466309 770.651672,1140.466309 584.960632,1140.466309 
	C584.960632,1132.742676 584.960632,1124.830444 584.952698,1115.993164 
	C584.887878,1106.381836 584.831055,1097.695190 584.863037,1088.618652 
	C584.922424,1087.164062 584.893066,1086.099487 584.955261,1084.579468 
	C584.983582,1080.409790 584.920410,1076.695679 584.903320,1072.515991 
	C584.906067,1040.044189 584.862793,1008.037842 584.923828,975.573486 
	C584.958069,970.403137 584.887939,965.690918 584.866821,960.513611 
	C584.914062,923.959778 584.923767,887.870972 584.907593,851.782166 
	C584.890381,813.533081 584.848511,775.283997 584.910461,736.769043 
	C584.941895,736.325745 584.880249,736.148376 584.868164,735.506531 
	C584.937561,670.849915 584.960754,606.657715 584.970215,542.465576 
	C584.970886,537.979431 584.869629,533.493347 584.898376,528.544556 
	C584.932007,517.719604 584.883057,507.357269 584.910400,496.532043 
	C584.938110,473.714905 584.889587,451.360657 584.919800,428.618103 
	C584.614380,426.484161 584.230164,424.738495 583.918335,422.532532 
	C584.328247,416.827271 584.953003,411.582581 584.957275,406.337341 
	C584.989258,366.893433 584.899048,327.449432 584.847107,288.005463 
M631.318665,1087.282104 
	C631.881653,1087.201660 632.444641,1087.121094 633.937683,1087.158081 
	C775.629517,1087.161621 917.321350,1087.166016 1059.013184,1087.162842 
	C1062.340210,1087.162720 1065.667358,1087.077515 1069.456055,1087.276733 
	C1070.307251,1087.197266 1071.158325,1087.117920 1072.853027,1087.157104 
	C1077.682861,1085.579468 1075.411499,1081.526001 1075.412598,1078.697388 
	C1075.526611,760.729004 1075.520630,442.760620 1075.511719,124.792221 
	C1075.511719,123.132141 1075.377319,121.472069 1075.228638,119.150208 
	C1074.823364,119.085251 1074.418213,119.020294 1073.079102,118.850647 
	C924.786438,118.844513 776.493713,118.857224 628.201111,118.745697 
	C623.516357,118.742172 622.392883,120.306801 622.394165,124.782906 
	C622.488892,443.028992 622.481445,761.275146 622.482422,1079.521240 
	C622.482422,1081.962891 622.482422,1084.404541 622.482422,1087.041260 
	C625.689697,1087.041260 628.319702,1087.041260 631.318665,1087.282104 
z"/>
<path fill="#FEFEFE" opacity="1.000000" stroke="none" 
	d="
M67.053360,65.029709 
	C237.492477,65.029709 407.931580,65.029709 578.667175,65.029709 
	C578.667175,83.658195 578.667175,102.042770 578.192078,120.520340 
	C577.716980,120.613342 577.230530,120.512161 577.021545,120.330658 
	C576.487244,120.265846 576.161865,120.382553 575.379395,120.485474 
	C431.666840,120.480865 288.411499,120.490036 144.726776,120.306717 
	C141.812286,120.242447 139.327179,120.370667 136.514343,120.477448 
	C135.131088,120.649155 134.075562,120.842300 132.786987,121.051071 
	C132.452774,121.185074 132.250580,121.323776 132.269547,121.417976 
	C132.324448,121.690788 132.468246,121.945702 132.544327,122.526268 
	C132.509872,123.485229 132.508255,124.125557 132.310425,125.091690 
	C132.230972,126.664078 132.347702,127.910652 132.433853,129.614258 
	C132.422974,259.327942 132.442673,388.584595 132.278168,518.249878 
	C132.225876,519.821960 132.357758,520.985352 132.475189,522.606934 
	C132.470474,564.659180 132.480240,606.253235 132.292511,648.259705 
	C132.223419,650.165466 132.351807,651.658875 132.469910,653.610474 
	C132.448471,793.325378 132.437317,932.582092 132.252655,1072.256592 
	C132.242676,1075.523438 132.406204,1078.372437 132.549042,1081.565552 
	C132.586853,1082.588623 132.645355,1083.267822 132.570572,1084.165771 
	C133.904602,1084.681763 135.371887,1084.978882 137.140915,1085.404297 
	C138.307632,1085.472778 139.172607,1085.413086 140.422653,1085.526123 
	C142.189484,1085.585205 143.571228,1085.471680 145.411713,1085.455566 
	C288.260162,1085.562500 430.649872,1085.572388 573.039612,1085.572876 
	C574.032776,1085.572876 575.025940,1085.442871 576.365234,1085.539673 
	C577.470764,1085.805298 578.230164,1085.904663 579.015015,1086.471680 
	C579.102356,1095.629150 579.164307,1104.318848 579.148071,1113.419067 
	C579.125549,1115.217407 579.181274,1116.605103 579.237061,1117.992920 
	C579.237061,1125.443359 579.237061,1132.893799 579.237061,1140.574707 
	C407.852692,1140.574707 237.123291,1140.574707 65.870239,1140.574707 
	C65.870239,1137.595093 65.870239,1134.812866 65.870239,1132.030762 
	C65.870239,781.228394 65.870201,430.425995 65.870483,79.623611 
	C65.870483,75.291054 65.874138,70.958488 66.078400,66.034050 
	C66.557114,65.339989 66.814659,65.202507 67.053360,65.029709 
z"/>
<path fill="#020914" opacity="1.000000" stroke="none" 
	d="
M132.426163,1071.838745 
	C132.437317,932.582092 132.448471,793.325378 132.683624,653.334351 
	C132.768417,651.015747 132.629196,649.431580 132.489990,647.847351 
	C132.480240,606.253235 132.470474,564.659180 132.678802,522.348938 
	C132.752045,520.368958 132.607208,519.105103 132.462372,517.841248 
	C132.442673,388.584595 132.422974,259.327942 132.660461,129.300980 
	C132.780640,127.275742 132.643631,126.020813 132.506622,124.765884 
	C132.508255,124.125557 132.509872,123.485229 132.736847,122.264206 
	C132.981491,121.467484 133.000778,121.251457 133.020050,121.035446 
	C134.075562,120.842300 135.131088,120.649155 136.834137,120.701431 
	C140.039841,120.797638 142.597992,120.648415 145.156143,120.499191 
	C288.411499,120.490036 431.666840,120.480865 575.586304,120.676437 
	C576.577148,120.758171 576.903809,120.635162 577.230530,120.512161 
	C577.230530,120.512161 577.716980,120.613342 577.875427,120.805145 
	C578.033875,120.996941 578.012817,121.349144 577.557373,121.660706 
	C576.103210,122.002998 575.104370,122.060654 574.105591,122.060631 
	C429.452057,122.057373 284.798492,122.073555 140.145096,121.938065 
	C135.402649,121.933624 133.919327,123.010185 133.925140,127.949944 
	C134.068985,250.272018 134.047363,372.594269 134.064087,494.916504 
	C134.065094,502.243561 134.140732,509.570648 134.131989,517.377625 
	C134.101990,562.545776 134.121674,607.233948 134.059692,652.387207 
	C133.985291,794.561340 133.990738,936.270447 134.018417,1077.979492 
	C134.018799,1079.957886 134.298721,1081.936279 134.013092,1083.976685 
	C133.286606,1084.008057 132.995224,1083.977539 132.703842,1083.946899 
	C132.645355,1083.267822 132.586853,1082.588623 132.726013,1081.146484 
	C132.757828,1077.535278 132.591995,1074.687012 132.426163,1071.838745 
z"/>
<path fill="#2FA6B2" opacity="1.000000" stroke="none" 
	d="
M134.181656,516.897705 
	C134.140732,509.570648 134.065094,502.243561 134.064087,494.916504 
	C134.047363,372.594269 134.068985,250.272018 133.925140,127.949944 
	C133.919327,123.010185 135.402649,121.933624 140.145096,121.938065 
	C284.798492,122.073555 429.452057,122.057373 574.105591,122.060631 
	C575.104370,122.060654 576.103210,122.002998 577.555176,121.837097 
	C578.294250,121.967407 578.580078,122.232895 578.949585,123.172394 
	C579.109192,125.560860 579.185059,127.275314 579.171753,129.451263 
	C579.069641,161.343689 579.073364,192.774643 579.038269,224.205551 
	C579.014099,245.820694 578.935913,267.435791 578.685791,288.998901 
	C578.489746,288.946899 578.091614,288.869019 578.089355,288.414032 
	C578.087524,235.639740 578.092896,183.320419 578.081970,131.001114 
	C578.080627,124.385719 577.654846,123.951073 571.514526,123.951286 
	C428.219482,123.956253 284.924377,123.990005 141.629440,123.868416 
	C136.925964,123.864426 135.822510,125.243835 135.826660,129.750671 
	C135.942825,255.883545 135.921463,382.016541 135.982208,508.149475 
	C135.983032,509.849396 136.745468,511.548889 137.073486,513.544189 
	C136.056931,514.859131 135.119293,515.878418 134.181656,516.897705 
z"/>
<path fill="#070C14" opacity="1.000000" stroke="none" 
	d="
M584.834167,496.994934 
	C584.883057,507.357269 584.932007,517.719604 584.486572,528.544067 
	C580.473022,528.757751 581.007935,531.292786 581.006409,533.405823 
	C580.994995,549.401428 580.999878,565.396973 581.000061,581.392578 
	C581.001648,745.680603 580.997620,909.968689 581.061584,1074.256714 
	C581.062500,1076.600220 581.914551,1078.943604 582.310791,1081.540894 
	C582.294128,1082.142944 582.335999,1082.491089 582.000854,1082.881592 
	C580.865662,1082.954346 580.107483,1082.984863 579.255005,1082.726562 
	C579.080933,1082.042236 579.001160,1081.646484 578.986877,1080.760742 
	C579.053589,1076.106323 579.056091,1071.941772 579.055847,1067.777344 
	C579.045715,889.526794 579.046143,711.276306 579.016174,533.025757 
	C579.010132,497.046326 578.889648,461.066864 578.895996,424.642151 
	C579.032837,421.796021 579.095642,419.395172 579.419373,416.673035 
	C579.787292,414.534546 579.986877,412.717407 579.987793,410.900208 
	C580.007446,370.265961 580.005310,329.631744 580.007324,288.997498 
	C580.748169,289.000824 581.489014,289.004150 582.607544,289.475647 
	C582.987671,330.363617 583.014771,370.783478 582.924438,411.203033 
	C582.919617,413.365265 581.937744,415.528229 581.389587,417.685486 
	C580.768616,420.129150 580.464783,422.409027 583.845886,422.992859 
	C584.230164,424.738495 584.614380,426.484161 584.581665,428.682434 
	C580.827881,431.174774 579.896484,434.171051 579.934021,438.001373 
	C580.087219,453.645721 579.999207,469.292358 579.999939,484.938171 
	C580.000122,488.730835 580.000000,492.523499 580.000000,496.668152 
	C581.950134,496.799988 583.392151,496.897461 584.834167,496.994934 
M581.409607,424.482697 
	C581.409607,424.482697 581.524841,424.412933 581.409607,424.482697 
z"/>
<path fill="#020914" opacity="1.000000" stroke="none" 
	d="
M580.005554,288.529114 
	C580.005310,329.631744 580.007446,370.265961 579.987793,410.900208 
	C579.986877,412.717407 579.787292,414.534546 579.354492,416.208862 
	C578.979858,373.727631 578.930908,331.389252 578.881958,289.050903 
	C578.935913,267.435791 579.014099,245.820694 579.038269,224.205551 
	C579.073364,192.774643 579.069641,161.343689 579.360352,129.456741 
	C579.638184,129.000717 580.015625,129.009949 580.015625,129.009949 
	C580.011658,182.026871 580.007690,235.043808 580.005554,288.529114 
z"/>
<path fill="#050505" opacity="1.000000" stroke="none" 
	d="
M583.918335,422.532532 
	C580.464783,422.409027 580.768616,420.129150 581.389587,417.685486 
	C581.937744,415.528229 582.919617,413.365265 582.924438,411.203033 
	C583.014771,370.783478 582.987671,330.363617 582.977966,289.476196 
	C583.407288,288.688477 583.843811,288.368378 584.563721,288.026855 
	C584.899048,327.449432 584.989258,366.893433 584.957275,406.337341 
	C584.953003,411.582581 584.328247,416.827271 583.918335,422.532532 
z"/>
<path fill="#050505" opacity="1.000000" stroke="none" 
	d="
M579.588562,1117.985352 
	C579.181274,1116.605103 579.125549,1115.217407 579.528076,1113.308105 
	C580.325806,1106.436401 580.651306,1100.085571 581.013062,1093.736816 
	C581.128113,1091.717773 581.339600,1089.704346 581.528015,1087.435425 
	C583.050659,1088.173340 583.912476,1088.591064 584.774231,1089.008667 
	C584.831055,1097.695190 584.887878,1106.381836 584.867676,1115.531006 
	C583.173828,1116.655151 581.556946,1117.316406 579.588562,1117.985352 
z"/>
<path fill="#070C14" opacity="1.000000" stroke="none" 
	d="
M584.592407,193.332855 
	C584.905579,203.363571 584.953979,213.711502 584.929810,224.521896 
	C584.571472,221.276047 584.075073,217.569382 584.046021,213.859055 
	C583.993164,207.123886 584.218384,200.386505 584.592407,193.332855 
z"/>
<path fill="#070C14" opacity="1.000000" stroke="none" 
	d="
M584.590942,129.332397 
	C584.904053,136.697189 584.953003,144.379776 584.927185,152.524857 
	C584.677185,145.208313 584.501953,137.429245 584.590942,129.332397 
z"/>
<path fill="#070C14" opacity="1.000000" stroke="none" 
	d="
M580.393677,128.994598 
	C580.015625,129.009949 579.638184,129.000717 579.449585,128.995239 
	C579.185059,127.275314 579.109192,125.560860 579.104614,123.422745 
	C580.399109,124.007057 581.838623,124.865814 582.704224,126.120461 
	C582.941956,126.464943 581.463013,127.993851 580.393677,128.994598 
z"/>
<path fill="#393B3C" opacity="1.000000" stroke="none" 
	d="
M66.797386,64.969940 
	C66.814659,65.202507 66.557114,65.339989 66.085808,65.543083 
	C66.107735,65.399391 66.324570,65.154778 66.797386,64.969940 
z"/>
<path fill="#040407" opacity="1.000000" stroke="none" 
	d="
M1068.994385,1087.032104 
	C1065.667358,1087.077515 1062.340210,1087.162720 1059.013184,1087.162842 
	C917.321350,1087.166016 775.629517,1087.161621 633.401001,1086.884766 
	C632.226074,1086.754761 631.587891,1086.897949 630.949646,1087.041260 
	C628.319702,1087.041260 625.689697,1087.041260 622.482422,1087.041260 
	C622.482422,1084.404541 622.482422,1081.962891 622.482422,1079.521240 
	C622.481445,761.275146 622.488892,443.028992 622.394165,124.782906 
	C622.392883,120.306801 623.516357,118.742172 628.201111,118.745697 
	C776.493713,118.857224 924.786438,118.844513 1073.711182,119.119278 
	C1074.664185,119.529266 1074.984863,119.670639 1075.305664,119.811996 
	C1075.377319,121.472069 1075.511719,123.132141 1075.511719,124.792221 
	C1075.520630,442.760620 1075.526611,760.729004 1075.412598,1078.697388 
	C1075.411499,1081.526001 1077.682861,1085.579468 1072.225586,1086.893311 
	C1070.730103,1086.763672 1069.862305,1086.897827 1068.994385,1087.032104 
M1070.999512,122.058151 
	C1067.169678,122.034889 1063.339722,121.991425 1059.509888,121.991264 
	C916.425049,121.985207 773.340271,121.979553 630.255432,122.025146 
	C628.614014,122.025665 626.972900,122.697525 625.119263,123.959793 
	C625.110229,126.958900 625.093323,129.958008 625.093262,132.957108 
	C625.085999,447.956024 625.079590,762.954956 625.086548,1077.953857 
	C625.086548,1079.608887 625.276489,1081.263916 625.456482,1083.659180 
	C626.973022,1084.063477 628.497253,1084.831787 630.004639,1084.800171 
	C633.776855,1084.721436 637.541321,1084.022217 641.309021,1084.021240 
	C783.417480,1083.983276 925.525940,1083.999634 1067.634399,1083.958862 
	C1069.188965,1083.958374 1070.743408,1083.302124 1072.789795,1082.305664 
	C1072.864746,1081.149170 1073.005371,1079.992554 1073.005371,1078.836060 
	C1073.005737,929.494385 1072.998169,780.152649 1072.955688,630.810974 
	C1072.955200,629.209778 1072.491089,627.608704 1072.083862,625.513550 
	C1072.000610,625.361938 1071.917358,625.210266 1072.012939,624.517456 
	C1072.064697,624.334656 1072.116455,624.151917 1072.686279,623.333923 
	C1072.784912,622.014038 1072.969482,620.694153 1072.969727,619.374268 
	C1072.990723,455.169800 1073.001343,290.965302 1072.961426,126.760826 
	C1072.961060,125.240448 1072.280151,123.720230 1070.999512,122.058151 
z"/>
<path fill="#050505" opacity="1.000000" stroke="none" 
	d="
M582.369385,1081.286987 
	C581.914551,1078.943604 581.062500,1076.600220 581.061584,1074.256714 
	C580.997620,909.968689 581.001648,745.680603 581.000061,581.392578 
	C580.999878,565.396973 580.994995,549.401428 581.006409,533.405823 
	C581.007935,531.292786 580.473022,528.757751 584.403992,529.006714 
	C584.869629,533.493347 584.970886,537.979431 584.970215,542.465576 
	C584.960754,606.657715 584.937561,670.849915 584.721497,735.607178 
	C584.622681,736.459900 584.720032,736.747375 584.817444,737.034912 
	C584.848511,775.283997 584.890381,813.533081 584.907593,851.782166 
	C584.923767,887.870972 584.914062,923.959778 584.632080,960.849365 
	C584.505371,966.443909 584.662415,971.237732 584.819458,976.031494 
	C584.862793,1008.037842 584.906067,1040.044189 584.689087,1072.836914 
	C583.742432,1076.177734 583.055908,1078.732422 582.369385,1081.286987 
M582.448486,983.984009 
	C582.641907,982.035522 582.835266,980.087036 583.028687,978.138550 
	C582.710754,978.121887 582.392883,978.105164 582.074951,978.088501 
	C582.074951,979.870850 582.074951,981.653198 582.448486,983.984009 
z"/>
<path fill="#050505" opacity="1.000000" stroke="none" 
	d="
M584.910400,496.532043 
	C583.392151,496.897461 581.950134,496.799988 580.000000,496.668152 
	C580.000000,492.523499 580.000122,488.730835 579.999939,484.938171 
	C579.999207,469.292358 580.087219,453.645721 579.934021,438.001373 
	C579.896484,434.171051 580.827881,431.174774 584.502808,429.070740 
	C584.889587,451.360657 584.938110,473.714905 584.910400,496.532043 
z"/>
<path fill="#0C0C0C" opacity="1.000000" stroke="none" 
	d="
M584.863037,1088.618652 
	C583.912476,1088.591064 583.050659,1088.173340 581.528015,1087.435425 
	C581.339600,1089.704346 581.128113,1091.717773 581.013062,1093.736816 
	C580.651306,1100.085571 580.325806,1106.436401 579.606323,1112.897461 
	C579.164307,1104.318848 579.102356,1095.629150 578.978577,1086.160400 
	C578.614075,1085.100586 578.311340,1084.819824 578.010620,1084.480225 
	C578.012634,1084.421143 578.015930,1084.303101 578.286499,1084.143066 
	C578.821167,1083.660400 579.085266,1083.337769 579.349365,1083.015259 
	C580.107483,1082.984863 580.865662,1082.954346 582.192627,1083.096191 
	C583.462158,1083.857300 584.162903,1084.446167 584.863770,1085.034912 
	C584.893066,1086.099487 584.922424,1087.164062 584.863037,1088.618652 
z"/>
<path fill="#393B3C" opacity="1.000000" stroke="none" 
	d="
M584.955200,1084.579468 
	C584.162903,1084.446167 583.462158,1083.857300 582.569641,1083.053955 
	C582.335999,1082.491089 582.294128,1082.142944 582.310791,1081.540894 
	C583.055908,1078.732422 583.742432,1076.177734 584.643066,1073.302246 
	C584.920410,1076.695679 584.983582,1080.409790 584.955200,1084.579468 
z"/>
<path fill="#393B3C" opacity="1.000000" stroke="none" 
	d="
M584.923828,975.573486 
	C584.662415,971.237732 584.505371,966.443909 584.583069,961.314392 
	C584.887939,965.690918 584.958069,970.403137 584.923828,975.573486 
z"/>
<path fill="#424242" opacity="1.000000" stroke="none" 
	d="
M1069.225220,1087.154419 
	C1069.862305,1086.897827 1070.730103,1086.763672 1071.803711,1086.833984 
	C1071.158325,1087.117920 1070.307251,1087.197266 1069.225220,1087.154419 
z"/>
<path fill="#424242" opacity="1.000000" stroke="none" 
	d="
M631.134155,1087.161621 
	C631.587891,1086.897949 632.226074,1086.754761 632.936035,1086.825928 
	C632.444641,1087.121094 631.881653,1087.201660 631.134155,1087.161621 
z"/>
<path fill="#393B3C" opacity="1.000000" stroke="none" 
	d="
M584.910461,736.769043 
	C584.720032,736.747375 584.622681,736.459900 584.671997,736.071655 
	C584.880249,736.148376 584.941895,736.325745 584.910461,736.769043 
z"/>
<path fill="#424242" opacity="1.000000" stroke="none" 
	d="
M1075.267090,119.481110 
	C1074.984863,119.670639 1074.664185,119.529266 1074.178223,119.171616 
	C1074.418213,119.020294 1074.823364,119.085251 1075.267090,119.481110 
z"/>
<path fill="#020914" opacity="1.000000" stroke="none" 
	d="
M578.015930,1084.303101 
	C578.015930,1084.303101 578.012634,1084.421143 577.749878,1084.570312 
	C576.997864,1084.937622 576.508484,1085.155518 576.019104,1085.373413 
	C575.025940,1085.442871 574.032776,1085.572876 573.039612,1085.572876 
	C430.649872,1085.572388 288.260162,1085.562500 145.151688,1085.261963 
	C142.967819,1085.098511 141.502701,1085.225952 140.037582,1085.353394 
	C139.172607,1085.413086 138.307632,1085.472778 137.187927,1085.104492 
	C136.944000,1084.474487 136.954803,1084.272583 137.435181,1084.052856 
	C283.120178,1084.023193 428.335602,1084.010498 573.551025,1084.012207 
	C575.039307,1084.012329 576.527649,1084.202026 578.015930,1084.303101 
z"/>
<path fill="#757D76" opacity="1.000000" stroke="none" 
	d="
M132.252655,1072.256592 
	C132.591995,1074.687012 132.757828,1077.535278 132.746689,1080.802490 
	C132.406204,1078.372437 132.242676,1075.523438 132.252655,1072.256592 
z"/>
<path fill="#757D76" opacity="1.000000" stroke="none" 
	d="
M144.726776,120.306717 
	C142.597992,120.648415 140.039841,120.797638 137.161880,120.722870 
	C139.327179,120.370667 141.812286,120.242447 144.726776,120.306717 
z"/>
<path fill="#393B3C" opacity="1.000000" stroke="none" 
	d="
M136.965607,1084.070679 
	C136.954803,1084.272583 136.944000,1084.474487 136.886169,1084.976318 
	C135.371887,1084.978882 133.904602,1084.681763 132.570572,1084.165771 
	C132.995224,1083.977539 133.286606,1084.008057 134.327576,1083.937256 
	C135.706635,1083.914062 136.336121,1083.992310 136.965607,1084.070679 
z"/>
<path fill="#757D76" opacity="1.000000" stroke="none" 
	d="
M132.292511,648.259705 
	C132.629196,649.431580 132.768417,651.015747 132.693909,652.876099 
	C132.351807,651.658875 132.223419,650.165466 132.292511,648.259705 
z"/>
<path fill="#393B3C" opacity="1.000000" stroke="none" 
	d="
M140.422653,1085.526123 
	C141.502701,1085.225952 142.967819,1085.098511 144.692963,1085.164551 
	C143.571228,1085.471680 142.189484,1085.585205 140.422653,1085.526123 
z"/>
<path fill="#757D76" opacity="1.000000" stroke="none" 
	d="
M132.278168,518.249878 
	C132.607208,519.105103 132.752045,520.368958 132.693268,521.890747 
	C132.357758,520.985352 132.225876,519.821960 132.278168,518.249878 
z"/>
<path fill="#757D76" opacity="1.000000" stroke="none" 
	d="
M132.310425,125.091690 
	C132.643631,126.020813 132.780640,127.275742 132.691040,128.843948 
	C132.347702,127.910652 132.230972,126.664078 132.310425,125.091690 
z"/>
<path fill="#393B3C" opacity="1.000000" stroke="none" 
	d="
M576.365234,1085.539673 
	C576.508484,1085.155518 576.997864,1084.937622 577.747925,1084.629395 
	C578.311340,1084.819824 578.614075,1085.100586 578.953186,1085.692627 
	C578.230164,1085.904663 577.470764,1085.805298 576.365234,1085.539673 
z"/>
<path fill="#757D76" opacity="1.000000" stroke="none" 
	d="
M577.021545,120.330650 
	C576.903809,120.635162 576.577148,120.758171 576.043457,120.690216 
	C576.161865,120.382553 576.487244,120.265846 577.021545,120.330650 
z"/>
<path fill="#757D76" opacity="1.000000" stroke="none" 
	d="
M132.786987,121.051071 
	C133.000778,121.251457 132.981491,121.467484 132.769684,121.945572 
	C132.468246,121.945702 132.324448,121.690788 132.269547,121.417976 
	C132.250580,121.323776 132.452774,121.185074 132.786987,121.051071 
z"/>
<path fill="#55D4E5" opacity="1.000000" stroke="none" 
	d="
M578.685852,288.998901 
	C578.930908,331.389252 578.979858,373.727631 579.093628,416.530151 
	C579.095642,419.395172 579.032837,421.796021 578.554443,424.667236 
	C572.192566,428.297241 566.261963,431.486633 560.296448,434.609467 
	C551.183228,439.380096 542.110596,444.234741 532.902405,448.815979 
	C521.253174,454.611664 509.362091,459.929657 497.798798,465.887360 
	C482.047852,474.002625 466.594940,482.695679 450.855896,490.834747 
	C430.558746,501.330963 410.062927,511.442413 389.729675,521.869690 
	C366.397797,533.834900 343.204468,546.070801 319.849976,557.991272 
	C298.574738,568.850464 277.122650,579.362854 255.827896,590.184326 
	C241.057602,597.690125 226.452103,605.519531 211.716599,613.094666 
	C200.233246,618.998047 188.636780,624.681030 177.138107,630.555054 
	C163.134323,637.708679 149.180267,644.959656 134.938171,652.109924 
	C134.494858,652.008301 134.318100,651.965210 134.141342,651.922180 
	C134.121674,607.233948 134.101990,562.545776 134.131989,517.377625 
	C135.119293,515.878418 136.056931,514.859131 137.450500,513.486206 
	C139.655609,512.378113 141.404785,511.623596 143.437668,510.851501 
	C144.193909,510.304718 144.666443,509.775543 145.486908,509.179260 
	C146.944107,508.742523 148.053391,508.372925 149.482971,507.954163 
	C150.904297,507.007202 152.005325,506.109436 153.364655,505.176453 
	C153.793915,505.109863 153.964874,505.078491 154.445557,505.030548 
	C155.469757,504.703827 156.184219,504.393646 157.240204,504.017517 
	C158.761871,503.279999 159.942001,502.608459 161.411331,501.905579 
	C162.166718,501.329590 162.632904,500.784943 163.423584,500.169922 
	C164.549652,499.731476 165.351257,499.363373 166.478302,498.977112 
	C167.563782,498.355621 168.323807,497.752350 169.451523,497.108978 
	C177.266830,493.475861 184.803802,490.055237 192.142502,486.252014 
	C205.253326,479.457520 218.154770,472.256134 231.309174,465.549316 
	C246.635406,457.735229 262.203430,450.396118 277.548279,442.617645 
	C293.824310,434.367188 309.924164,425.769714 326.171051,417.460907 
	C339.869568,410.455414 353.718964,403.744781 367.410583,396.726105 
	C385.635681,387.383453 403.746277,377.817688 421.954132,368.441132 
	C443.241547,357.478668 464.581116,346.617554 485.897278,335.710938 
	C504.922119,325.976715 523.929932,316.209015 542.975952,306.516632 
	C554.651184,300.575195 566.384399,294.747681 578.091614,288.869019 
	C578.091614,288.869019 578.489746,288.946899 578.685852,288.998901 
z"/>
<path fill="#6086A2" opacity="1.000000" stroke="none" 
	d="
M134.059692,652.387207 
	C134.318100,651.965210 134.494858,652.008301 134.881653,652.557617 
	C135.061310,656.229065 135.004456,659.394348 135.004349,662.559570 
	C134.999924,797.514099 135.000885,932.468567 134.998520,1067.423096 
	C134.998459,1070.755127 135.069839,1074.091553 134.926575,1077.418091 
	C134.750000,1081.517822 136.677811,1083.175415 140.657700,1083.019653 
	C144.151672,1082.882812 147.654007,1082.944336 151.152649,1082.944214 
	C291.438690,1082.941650 431.724701,1082.950073 572.010681,1082.871704 
	C574.314575,1082.870361 576.617859,1081.814575 578.921387,1081.250854 
	C579.001160,1081.646484 579.080933,1082.042236 579.255005,1082.726562 
	C579.085266,1083.337769 578.821167,1083.660400 578.286499,1084.143066 
	C576.527649,1084.202026 575.039307,1084.012329 573.551025,1084.012207 
	C428.335602,1084.010498 283.120178,1084.023193 137.435181,1084.052856 
	C136.336121,1083.992310 135.706635,1083.914062 134.762665,1083.875244 
	C134.298721,1081.936279 134.018799,1079.957886 134.018417,1077.979492 
	C133.990738,936.270447 133.985291,794.561340 134.059692,652.387207 
z"/>
<path fill="#00C0D5" opacity="1.000000" stroke="none" 
	d="
M161.122116,501.936890 
	C159.942001,502.608459 158.761871,503.279999 157.072769,503.752747 
	C155.754471,504.051636 154.945145,504.549377 154.135834,505.047119 
	C153.964874,505.078491 153.793915,505.109863 152.997131,505.133575 
	C151.301773,506.085052 150.232239,507.044220 149.162689,508.003357 
	C148.053391,508.372925 146.944107,508.742523 145.170624,509.144684 
	C144.055588,509.741180 143.604767,510.305115 143.153961,510.869080 
	C141.404785,511.623596 139.655609,512.378113 137.529419,513.190613 
	C136.745468,511.548889 135.983032,509.849396 135.982208,508.149475 
	C135.921463,382.016541 135.942825,255.883545 135.826660,129.750671 
	C135.822510,125.243835 136.925964,123.864426 141.629440,123.868416 
	C284.924377,123.990005 428.219482,123.956253 571.514526,123.951286 
	C577.654846,123.951073 578.080627,124.385719 578.081970,131.001114 
	C578.092896,183.320419 578.087524,235.639740 578.089355,288.414062 
	C566.384399,294.747681 554.651184,300.575195 542.975952,306.516632 
	C523.929932,316.209015 504.922119,325.976715 485.897278,335.710938 
	C464.581116,346.617554 443.241547,357.478668 421.954132,368.441132 
	C403.746277,377.817688 385.635681,387.383453 367.410583,396.726105 
	C353.718964,403.744781 339.869568,410.455414 326.171051,417.460907 
	C309.924164,425.769714 293.824310,434.367188 277.548279,442.617645 
	C262.203430,450.396118 246.635406,457.735229 231.309174,465.549316 
	C218.154770,472.256134 205.253326,479.457520 192.142502,486.252014 
	C184.803802,490.055237 177.266830,493.475861 169.096710,497.082520 
	C167.633774,497.729156 166.893311,498.362213 166.152863,498.995300 
	C165.351257,499.363373 164.549652,499.731476 163.107239,500.142883 
	C162.018311,500.769745 161.570206,501.353302 161.122116,501.936890 
M247.500000,127.992180 
	C356.890778,127.992180 466.281586,127.992180 575.672363,127.992180 
	C575.671814,127.758995 575.671204,127.525818 575.670654,127.292633 
	C432.489075,127.292633 289.307465,127.292633 146.125870,127.292633 
	C146.125412,127.525810 146.124954,127.758987 146.124496,127.992165 
	C179.582993,127.992165 213.041504,127.992165 247.500000,127.992180 
z"/>
<path fill="#00C0D5" opacity="1.000000" stroke="none" 
	d="
M578.986877,1080.760742 
	C576.617859,1081.814575 574.314575,1082.870361 572.010681,1082.871704 
	C431.724701,1082.950073 291.438690,1082.941650 151.152649,1082.944214 
	C147.654007,1082.944336 144.151672,1082.882812 140.657700,1083.019653 
	C136.677811,1083.175415 134.750000,1081.517822 134.926575,1077.418091 
	C135.069839,1074.091553 134.998459,1070.755127 134.998520,1067.423096 
	C135.000885,932.468567 134.999924,797.514099 135.004349,662.559570 
	C135.004456,659.394348 135.061310,656.229065 135.148193,652.616211 
	C149.180267,644.959656 163.134323,637.708679 177.138107,630.555054 
	C188.636780,624.681030 200.233246,618.998047 211.716599,613.094666 
	C226.452103,605.519531 241.057602,597.690125 255.827896,590.184326 
	C277.122650,579.362854 298.574738,568.850464 319.849976,557.991272 
	C343.204468,546.070801 366.397797,533.834900 389.729675,521.869690 
	C410.062927,511.442413 430.558746,501.330963 450.855896,490.834747 
	C466.594940,482.695679 482.047852,474.002625 497.798798,465.887360 
	C509.362091,459.929657 521.253174,454.611664 532.902405,448.815979 
	C542.110596,444.234741 551.183228,439.380096 560.296448,434.609467 
	C566.261963,431.486633 572.192566,428.297241 578.480408,425.112549 
	C578.889648,461.066864 579.010132,497.046326 579.016174,533.025757 
	C579.046143,711.276306 579.045715,889.526794 579.055847,1067.777344 
	C579.056091,1071.941772 579.053589,1076.106323 578.986877,1080.760742 
z"/>
<path fill="#050505" opacity="1.000000" stroke="none" 
	d="
M581.467224,424.447815 
	C581.524841,424.412933 581.409607,424.482697 581.467224,424.447815 
z"/>
<path fill="#55D4E5" opacity="1.000000" stroke="none" 
	d="
M1072.168213,623.969177 
	C1072.116455,624.151917 1072.064697,624.334656 1071.690186,624.792603 
	C1071.367310,625.067688 1070.905884,625.140137 1070.613770,625.110107 
	C1069.840698,625.361694 1069.359863,625.643372 1068.548828,625.983154 
	C1067.119507,626.996826 1066.020264,627.952515 1064.939941,628.912720 
	C1064.958740,628.917236 1064.929688,628.930054 1064.698486,628.905273 
	C1064.467163,628.880432 1064.002319,628.902222 1063.629883,628.917969 
	C1060.797729,630.259827 1058.337891,631.585999 1055.507812,632.928650 
	C1054.648804,633.043335 1054.105347,633.035400 1053.679077,633.255005 
	C1035.314331,642.717163 1016.963013,652.205444 998.603638,661.678040 
	C979.297852,671.638855 959.988403,681.592529 940.675110,691.538818 
	C927.086670,698.536743 913.512756,705.563416 899.889893,712.493713 
	C882.544800,721.317444 865.130127,730.004517 847.796570,738.850525 
	C835.710083,745.018677 823.759033,751.452942 811.656006,757.587891 
	C799.400513,763.800232 786.963379,769.655701 774.730774,775.911926 
	C758.657471,784.132568 742.730713,792.638977 726.696167,800.935913 
	C709.802063,809.677429 692.855042,818.316345 675.931885,827.001526 
	C661.616760,834.348267 647.302673,841.696960 632.633179,849.076416 
	C630.279114,849.698120 628.279968,850.288208 626.255859,850.420044 
	C626.270691,805.055786 626.310608,760.149841 626.657104,715.166138 
	C627.700378,714.448608 628.437134,713.808899 629.540039,713.131653 
	C638.369507,709.003418 646.921509,705.085266 655.277893,700.786804 
	C673.770691,691.274231 692.120056,681.482666 710.611816,671.968140 
	C731.601929,661.167908 752.698547,650.574768 773.720581,639.836182 
	C787.843933,632.621643 801.894897,625.265320 816.019653,618.053467 
	C839.040833,606.299438 862.114929,594.649109 885.130127,582.883545 
	C901.823242,574.349915 918.426147,565.639954 935.125916,557.119507 
	C954.090454,547.443665 973.149231,537.952393 992.107361,528.264282 
	C1004.748596,521.804260 1017.267944,515.106323 1029.873901,508.576660 
	C1043.262207,501.641846 1056.688110,494.780151 1070.384277,487.916748 
	C1071.053955,487.974518 1071.437134,488.002014 1071.872314,488.494720 
	C1071.936646,521.845398 1071.931763,554.730896 1071.969971,587.616333 
	C1071.984009,599.734009 1072.099121,611.851562 1072.168213,623.969177 
z"/>
<path fill="#19B3C9" opacity="1.000000" stroke="none" 
	d="
M1070.905884,625.140137 
	C1070.905884,625.140137 1071.367310,625.067688 1071.600586,625.063110 
	C1071.917358,625.210266 1072.000610,625.361938 1072.053223,626.216553 
	C1071.998535,628.084595 1071.953735,629.249695 1071.953613,630.414795 
	C1071.949463,777.273621 1071.945557,924.132385 1071.962036,1070.991211 
	C1071.962402,1074.978149 1072.181030,1078.965210 1072.297852,1082.952148 
	C1070.743408,1083.302124 1069.188965,1083.958374 1067.634399,1083.958862 
	C925.525940,1083.999634 783.417480,1083.983276 641.309021,1084.021240 
	C637.541321,1084.022217 633.776855,1084.721436 630.004639,1084.800171 
	C628.497253,1084.831787 626.973022,1084.063477 625.651855,1082.962646 
	C625.907776,1080.772095 626.021057,1079.278076 626.021301,1077.783936 
	C626.033325,1006.475098 626.031433,935.166321 626.049316,863.857483 
	C626.050354,859.531067 626.200256,855.204712 626.280884,850.878296 
	C628.279968,850.288208 630.279114,849.698120 632.627930,849.441650 
	C632.203491,851.066650 631.205017,853.555054 630.690918,853.458618 
	C626.824158,852.734131 628.386719,855.632507 627.674194,857.420532 
	C627.293640,860.079529 627.177979,862.473816 627.047424,865.344849 
	C627.032532,933.650757 627.032532,1001.479858 627.032532,1069.308960 
	C627.697449,1069.306396 628.362427,1069.303833 629.027344,1069.301270 
	C629.027344,1001.209717 629.027344,933.118103 629.351624,865.026978 
	C630.108337,865.022278 630.540710,865.017212 630.975952,865.479614 
	C630.971924,934.958130 630.965210,1003.969299 630.593384,1073.023438 
	C627.202576,1075.087646 626.309692,1077.840698 627.933350,1081.067383 
	C628.267151,1081.730835 629.884705,1081.748413 631.157043,1082.139526 
	C630.328613,1080.815674 629.711304,1079.829346 629.094055,1078.842896 
	C629.382874,1078.491455 629.671753,1078.140137 629.960571,1077.788696 
	C635.038513,1084.386963 642.001709,1081.914062 648.237671,1081.919189 
	C784.190308,1082.031616 920.143005,1082.005249 1056.095703,1082.003174 
	C1060.397095,1082.003052 1064.698608,1081.976929 1069.346191,1081.774292 
	C1070.121704,1079.722534 1070.926270,1077.859619 1070.927002,1075.996338 
	C1070.979980,932.728455 1070.973022,789.460510 1070.924683,646.192627 
	C1070.924072,644.455688 1070.328003,642.718933 1070.013672,640.521729 
	C1070.313721,635.087646 1070.609863,630.113892 1070.905884,625.140137 
z"/>
<path fill="#2AACBB" opacity="1.000000" stroke="none" 
	d="
M1071.820312,488.029510 
	C1071.437134,488.002014 1071.053955,487.974518 1070.386475,487.607086 
	C1070.074219,486.169159 1070.046387,485.071136 1070.021729,483.507263 
	C1070.032959,453.746765 1070.051514,424.452148 1070.046875,395.157501 
	C1070.032837,306.441650 1070.009766,217.725784 1069.858765,128.679138 
	C1069.321899,127.126335 1068.916626,125.904335 1068.283447,123.995514 
	C921.573059,123.995514 774.776367,123.995514 627.665955,123.993256 
	C626.934692,123.998184 626.517151,124.005363 626.023315,123.814064 
	C625.816650,123.346786 625.611511,123.160255 625.331604,123.056000 
	C626.972900,122.697525 628.614014,122.025665 630.255432,122.025146 
	C773.340271,121.979553 916.425049,121.985207 1059.509888,121.991264 
	C1063.339722,121.991425 1067.169678,122.034889 1071.463135,122.541069 
	C1071.883545,124.699425 1071.840088,126.374870 1071.545776,128.370697 
	C1071.199829,130.010544 1071.021606,131.329971 1071.021484,132.649445 
	C1071.008667,247.163803 1071.006348,361.678162 1071.044067,476.192535 
	C1071.044556,477.781616 1071.561768,479.370514 1071.900879,481.398865 
	C1071.916138,483.902008 1071.868286,485.965759 1071.820312,488.029510 
z"/>
<path fill="#0392A1" opacity="1.000000" stroke="none" 
	d="
M625.225464,123.507889 
	C625.611511,123.160255 625.816650,123.346786 625.988281,124.280495 
	C626.028503,320.054352 626.026611,515.163330 626.039734,710.272278 
	C626.039856,711.929504 626.242493,713.586670 626.350464,715.243896 
	C626.310608,760.149841 626.270691,805.055786 626.255859,850.420044 
	C626.200256,855.204712 626.050354,859.531067 626.049316,863.857483 
	C626.031433,935.166321 626.033325,1006.475098 626.021301,1077.783936 
	C626.021057,1079.278076 625.907776,1080.772095 625.612549,1082.592529 
	C625.276489,1081.263916 625.086548,1079.608887 625.086548,1077.953857 
	C625.079590,762.954956 625.085999,447.956024 625.093262,132.957108 
	C625.093323,129.958008 625.110229,126.958900 625.225464,123.507889 
z"/>
<path fill="#012739" opacity="1.000000" stroke="none" 
	d="
M1071.872314,488.494720 
	C1071.868286,485.965759 1071.916138,483.902008 1071.965088,480.937561 
	C1071.978027,363.702118 1071.990234,247.367401 1071.993042,131.032684 
	C1071.993042,130.038559 1071.864990,129.044434 1071.796631,128.050308 
	C1071.840088,126.374870 1071.883545,124.699425 1071.921875,122.611954 
	C1072.280151,123.720230 1072.961060,125.240448 1072.961426,126.760826 
	C1073.001343,290.965302 1072.990723,455.169800 1072.969727,619.374268 
	C1072.969482,620.694153 1072.784912,622.014038 1072.427246,623.651550 
	C1072.099121,611.851562 1071.984009,599.734009 1071.969971,587.616333 
	C1071.931763,554.730896 1071.936646,521.845398 1071.872314,488.494720 
z"/>
<path fill="#012739" opacity="1.000000" stroke="none" 
	d="
M1072.543823,1082.628906 
	C1072.181030,1078.965210 1071.962402,1074.978149 1071.962036,1070.991211 
	C1071.945557,924.132385 1071.949463,777.273621 1071.953613,630.414795 
	C1071.953735,629.249695 1071.998535,628.084595 1072.132812,626.463501 
	C1072.491089,627.608704 1072.955200,629.209778 1072.955688,630.810974 
	C1072.998169,780.152649 1073.005737,929.494385 1073.005371,1078.836060 
	C1073.005371,1079.992554 1072.864746,1081.149170 1072.543823,1082.628906 
z"/>
<path fill="#070C14" opacity="1.000000" stroke="none" 
	d="
M582.261719,983.709778 
	C582.074951,981.653198 582.074951,979.870850 582.074951,978.088501 
	C582.392883,978.105164 582.710754,978.121887 583.028687,978.138550 
	C582.835266,980.087036 582.641907,982.035522 582.261719,983.709778 
z"/>
<path fill="#2FA6B2" opacity="1.000000" stroke="none" 
	d="
M149.482986,507.954163 
	C150.232239,507.044220 151.301773,506.085052 152.738831,505.168793 
	C152.005325,506.109436 150.904297,507.007202 149.482986,507.954163 
z"/>
<path fill="#2FA6B2" opacity="1.000000" stroke="none" 
	d="
M166.478302,498.977081 
	C166.893311,498.362213 167.633774,497.729156 168.729034,497.122559 
	C168.323807,497.752350 167.563782,498.355621 166.478302,498.977081 
z"/>
<path fill="#2FA6B2" opacity="1.000000" stroke="none" 
	d="
M154.445557,505.030579 
	C154.945145,504.549377 155.754471,504.051636 156.731232,503.818695 
	C156.184219,504.393646 155.469757,504.703827 154.445557,505.030579 
z"/>
<path fill="#2FA6B2" opacity="1.000000" stroke="none" 
	d="
M143.437668,510.851501 
	C143.604767,510.305115 144.055588,509.741180 144.822693,509.211792 
	C144.666443,509.775543 144.193909,510.304718 143.437668,510.851501 
z"/>
<path fill="#2FA6B2" opacity="1.000000" stroke="none" 
	d="
M161.411331,501.905548 
	C161.570206,501.353302 162.018311,500.769745 162.782745,500.213257 
	C162.632904,500.784943 162.166718,501.329590 161.411331,501.905548 
z"/>
<path fill="#19B3C9" opacity="1.000000" stroke="none" 
	d="
M247.000000,127.992172 
	C213.041504,127.992165 179.582993,127.992165 146.124496,127.992165 
	C146.124954,127.758987 146.125412,127.525810 146.125870,127.292633 
	C289.307465,127.292633 432.489075,127.292633 575.670654,127.292633 
	C575.671204,127.525818 575.671814,127.758995 575.672363,127.992180 
	C466.281586,127.992180 356.890778,127.992180 247.000000,127.992172 
z"/>
<path fill="#00C0D5" opacity="1.000000" stroke="none" 
	d="
M1070.018433,483.973145 
	C1070.046387,485.071136 1070.074219,486.169159 1070.099854,487.576843 
	C1056.688110,494.780151 1043.262207,501.641846 1029.873901,508.576660 
	C1017.267944,515.106323 1004.748596,521.804260 992.107361,528.264282 
	C973.149231,537.952393 954.090454,547.443665 935.125916,557.119507 
	C918.426147,565.639954 901.823242,574.349915 885.130127,582.883545 
	C862.114929,594.649109 839.040833,606.299438 816.019653,618.053467 
	C801.894897,625.265320 787.843933,632.621643 773.720581,639.836182 
	C752.698547,650.574768 731.601929,661.167908 710.611816,671.968140 
	C692.120056,681.482666 673.770691,691.274231 655.277893,700.786804 
	C646.921509,705.085266 638.369507,709.003418 629.222900,712.842163 
	C628.030457,707.834900 627.084595,703.080261 627.077881,698.324219 
	C626.981628,630.329285 626.903992,562.333984 627.035767,494.339111 
	C627.275085,370.891113 627.657227,247.443375 627.979736,123.995514 
	C774.776367,123.995514 921.573059,123.995514 1068.283447,123.995514 
	C1068.916626,125.904335 1069.321899,127.126335 1069.444336,128.692902 
	C1068.440918,130.936752 1067.091553,132.835495 1067.089966,134.735428 
	C1066.989502,248.384933 1066.993042,362.034546 1067.043091,475.684113 
	C1067.044189,478.302460 1067.636719,480.930328 1068.116699,483.523529 
	C1068.164673,483.781891 1069.357178,483.828339 1070.018433,483.973145 
M1057.654907,127.602318 
	C1059.699585,127.711487 1061.744141,127.820663 1064.795166,127.983566 
	C1063.644165,127.274902 1063.512817,127.124969 1063.377808,127.121529 
	C1061.923706,127.084450 1060.469116,127.070465 1058.836426,126.248695 
	C1057.177734,125.831863 1055.521240,125.063507 1053.859985,125.053108 
	C1038.866211,124.959236 1023.871521,124.998123 1008.877075,124.998169 
	C885.756226,124.998497 762.635437,124.997253 639.514587,125.013573 
	C637.541870,125.013840 635.569153,125.229622 633.596436,125.344833 
	C633.621582,125.897125 633.646729,126.449417 633.671875,127.001709 
	C635.715271,127.001709 637.758606,127.001701 639.802002,127.001717 
	C731.434570,127.002266 823.067078,126.995956 914.699646,127.006172 
	C962.181641,127.011459 1009.663635,127.045990 1057.654907,127.602318 
z"/>
<path fill="#00C0D5" opacity="1.000000" stroke="none" 
	d="
M1070.613770,625.110107 
	C1070.609863,630.113892 1070.313721,635.087646 1070.010376,640.992371 
	C1069.668823,788.603210 1069.334473,935.283020 1069.000000,1081.962891 
	C1064.698608,1081.976929 1060.397095,1082.003052 1056.095703,1082.003174 
	C920.143005,1082.005249 784.190308,1082.031616 648.237671,1081.919189 
	C642.001709,1081.914062 635.038513,1084.386963 629.960571,1077.788696 
	C629.671753,1078.140137 629.382874,1078.491455 629.094055,1078.842896 
	C629.711304,1079.829346 630.328613,1080.815674 631.157043,1082.139526 
	C629.884705,1081.748413 628.267151,1081.730835 627.933350,1081.067383 
	C626.309692,1077.840698 627.202576,1075.087646 631.004272,1073.022461 
	C636.347778,1072.522339 634.948242,1068.959961 634.950684,1066.444580 
	C635.013062,1001.545105 635.000000,936.645569 634.999695,871.746094 
	C634.999695,870.747681 634.963379,869.748047 634.998901,868.751038 
	C635.099121,865.937195 633.632507,864.839783 630.973145,865.012207 
	C630.540710,865.017212 630.108337,865.022278 629.306458,864.982300 
	C628.937012,864.937256 628.846741,864.847961 628.869629,864.436523 
	C628.574646,861.735352 628.256836,859.445557 627.939026,857.155823 
	C628.386719,855.632507 626.824158,852.734131 630.690918,853.458618 
	C631.205017,853.555054 632.203491,851.066650 632.982910,849.410034 
	C647.302673,841.696960 661.616760,834.348267 675.931885,827.001526 
	C692.855042,818.316345 709.802063,809.677429 726.696167,800.935913 
	C742.730713,792.638977 758.657471,784.132568 774.730774,775.911926 
	C786.963379,769.655701 799.400513,763.800232 811.656006,757.587891 
	C823.759033,751.452942 835.710083,745.018677 847.796570,738.850525 
	C865.130127,730.004517 882.544800,721.317444 899.889893,712.493713 
	C913.512756,705.563416 927.086670,698.536743 940.675110,691.538818 
	C959.988403,681.592529 979.297852,671.638855 998.603638,661.678040 
	C1016.963013,652.205444 1035.314331,642.717163 1053.679077,633.255005 
	C1054.105347,633.035400 1054.648804,633.043335 1055.788086,632.962769 
	C1056.625854,632.991028 1056.812988,633.001648 1057.008057,633.385376 
	C1064.485107,639.450439 1061.928467,647.607300 1061.933472,654.934753 
	C1062.024658,788.566711 1062.000122,922.198669 1062.000000,1055.830688 
	C1062.000000,1060.162964 1062.094727,1064.498413 1061.943481,1068.825439 
	C1061.896240,1070.177002 1061.601318,1072.004150 1060.702515,1072.754517 
	C1057.495239,1075.432007 1059.087891,1077.390259 1061.929565,1080.945435 
	C1063.135986,1075.484985 1064.878296,1071.267822 1064.882568,1067.048828 
	C1065.024414,927.418518 1065.000977,787.788025 1064.997070,648.157593 
	C1064.996826,641.748413 1064.953125,635.339233 1064.929688,628.930054 
	C1064.929688,628.930054 1064.958740,628.917236 1065.312622,628.941162 
	C1066.737305,627.951782 1067.808105,626.938477 1068.879028,625.925171 
	C1069.359863,625.643372 1069.840698,625.361694 1070.613770,625.110107 
z"/>
<path fill="#03C1DD" opacity="1.000000" stroke="none" 
	d="
M1064.698486,628.905273 
	C1064.953125,635.339233 1064.996826,641.748413 1064.997070,648.157593 
	C1065.000977,787.788025 1065.024414,927.418518 1064.882568,1067.048828 
	C1064.878296,1071.267822 1063.135986,1075.484985 1061.929565,1080.945435 
	C1059.087891,1077.390259 1057.495239,1075.432007 1060.702515,1072.754517 
	C1061.601318,1072.004150 1061.896240,1070.177002 1061.943481,1068.825439 
	C1062.094727,1064.498413 1062.000000,1060.162964 1062.000000,1055.830688 
	C1062.000122,922.198669 1062.024658,788.566711 1061.933472,654.934753 
	C1061.928467,647.607300 1064.485107,639.450439 1057.393066,633.375977 
	C1059.847534,631.629639 1061.924927,630.265930 1064.002319,628.902222 
	C1064.002319,628.902222 1064.467163,628.880432 1064.698486,628.905273 
z"/>
<path fill="#19B3C9" opacity="1.000000" stroke="none" 
	d="
M627.665955,123.993256 
	C627.657227,247.443375 627.275085,370.891113 627.035767,494.339111 
	C626.903992,562.333984 626.981628,630.329285 627.077881,698.324219 
	C627.084595,703.080261 628.030457,707.834900 628.856689,712.879761 
	C628.437134,713.808899 627.700378,714.448608 626.657104,715.166138 
	C626.242493,713.586670 626.039856,711.929504 626.039734,710.272278 
	C626.026611,515.163330 626.028503,320.054352 626.064636,124.478973 
	C626.517151,124.005363 626.934692,123.998184 627.665955,123.993256 
z"/>
<path fill="#19B3C9" opacity="1.000000" stroke="none" 
	d="
M1063.629883,628.917969 
	C1061.924927,630.265930 1059.847534,631.629639 1057.385010,633.002808 
	C1056.812988,633.001648 1056.625854,632.991028 1056.158325,632.946289 
	C1058.337891,631.585999 1060.797729,630.259827 1063.629883,628.917969 
z"/>
<path fill="#19B3C9" opacity="1.000000" stroke="none" 
	d="
M1068.548828,625.983154 
	C1067.808105,626.938477 1066.737305,627.951782 1065.293701,628.936646 
	C1066.020264,627.952515 1067.119507,626.996826 1068.548828,625.983154 
z"/>
<path fill="#00C0D5" opacity="1.000000" stroke="none" 
	d="
M630.975952,865.479614 
	C633.632507,864.839783 635.099121,865.937195 634.998901,868.751038 
	C634.963379,869.748047 634.999695,870.747681 634.999695,871.746094 
	C635.000000,936.645569 635.013062,1001.545105 634.950684,1066.444580 
	C634.948242,1068.959961 636.347778,1072.522339 631.369385,1072.979492 
	C630.965210,1003.969299 630.971924,934.958130 630.975952,865.479614 
z"/>
<path fill="#00C0D5" opacity="1.000000" stroke="none" 
	d="
M1069.346191,1081.774292 
	C1069.334473,935.283020 1069.668823,788.603210 1070.006470,641.452759 
	C1070.328003,642.718933 1070.924072,644.455688 1070.924683,646.192627 
	C1070.973022,789.460510 1070.979980,932.728455 1070.927002,1075.996338 
	C1070.926270,1077.859619 1070.121704,1079.722534 1069.346191,1081.774292 
z"/>
<path fill="#00C0D5" opacity="1.000000" stroke="none" 
	d="
M628.982178,864.981934 
	C629.027344,933.118103 629.027344,1001.209717 629.027344,1069.301270 
	C628.362427,1069.303833 627.697449,1069.306396 627.032532,1069.308960 
	C627.032532,1001.479858 627.032532,933.650757 627.345093,865.359741 
	C628.054016,864.881287 628.450378,864.864624 628.846741,864.847961 
	C628.846741,864.847961 628.937012,864.937256 628.982178,864.981934 
z"/>
<path fill="#0392A1" opacity="1.000000" stroke="none" 
	d="
M628.869629,864.436523 
	C628.450378,864.864624 628.054016,864.881287 627.359985,864.883057 
	C627.177979,862.473816 627.293640,860.079529 627.674194,857.420532 
	C628.256836,859.445557 628.574646,861.735352 628.869629,864.436523 
z"/>
<path fill="#03C1DD" opacity="1.000000" stroke="none" 
	d="
M1070.021729,483.507263 
	C1069.357178,483.828339 1068.164673,483.781891 1068.116699,483.523529 
	C1067.636719,480.930328 1067.044189,478.302460 1067.043091,475.684113 
	C1066.993042,362.034546 1066.989502,248.384933 1067.089966,134.735428 
	C1067.091553,132.835495 1068.440918,130.936752 1069.575806,129.023682 
	C1070.009766,217.725784 1070.032837,306.441650 1070.046875,395.157501 
	C1070.051514,424.452148 1070.032959,453.746765 1070.021729,483.507263 
z"/>
<path fill="#2FA6B2" opacity="1.000000" stroke="none" 
	d="
M1071.545654,128.370697 
	C1071.864990,129.044434 1071.993042,130.038559 1071.993042,131.032684 
	C1071.990234,247.367401 1071.978027,363.702118 1071.901978,480.498169 
	C1071.561768,479.370514 1071.044556,477.781616 1071.044067,476.192535 
	C1071.006348,361.678162 1071.008667,247.163803 1071.021484,132.649445 
	C1071.021606,131.329971 1071.199829,130.010544 1071.545654,128.370697 
z"/>
<path fill="#03C1DD" opacity="1.000000" stroke="none" 
	d="
M1057.145630,127.067307 
	C1009.663635,127.045990 962.181641,127.011459 914.699646,127.006172 
	C823.067078,126.995956 731.434570,127.002266 639.802002,127.001717 
	C637.758606,127.001701 635.715271,127.001709 633.671875,127.001709 
	C633.646729,126.449417 633.621582,125.897125 633.596436,125.344833 
	C635.569153,125.229622 637.541870,125.013840 639.514587,125.013573 
	C762.635437,124.997253 885.756226,124.998497 1008.877075,124.998169 
	C1023.871521,124.998123 1038.866211,124.959236 1053.859985,125.053108 
	C1055.521240,125.063507 1057.177734,125.831863 1058.612793,126.652985 
	C1057.974609,127.060616 1057.560181,127.063957 1057.145630,127.067307 
z"/>
<path fill="#2AACBB" opacity="1.000000" stroke="none" 
	d="
M1057.400269,127.334808 
	C1057.560181,127.063957 1057.974609,127.060616 1058.701904,127.053719 
	C1060.469116,127.070465 1061.923706,127.084450 1063.377808,127.121529 
	C1063.512817,127.124969 1063.644165,127.274902 1064.795166,127.983566 
	C1061.744141,127.820663 1059.699585,127.711487 1057.400269,127.334808 
z"/>
</svg>