<svg version="1.1" id="Layer_1" xmlns="http://www.w3.org/2000/svg" xmlns:xlink="http://www.w3.org/1999/xlink" x="0px" y="0px"
	 width="100%" viewBox="0 0 1204 1204" enable-background="new 0 0 1204 1204" xml:space="preserve">
<path fill="#FFFFFF" opacity="1.000000" stroke="none" 
	d="
M1204.000000,0.999979 
	C1204.333374,1.166626 1204.943726,1.315892 1204.955566,1.502750 
	C1205.038940,2.830884 1205.000000,4.166667 1205.000000,5.500000 
	C1205.000000,405.333344 1205.000000,805.166687 1205.000000,1205.000000 
	C803.666687,1205.000000 402.333344,1205.000000 1.000000,1205.000000 
	C1.000000,803.666687 1.000000,402.333344 1.510942,1.304382 
	C2.062207,1.807773 2.102529,2.006781 2.091264,2.658749 
	C2.026203,3.611145 2.000920,4.110581 2.000917,4.610018 
	C1.998846,402.894562 1.998186,801.179077 2.008804,1199.463623 
	C2.008842,1200.901001 2.171840,1202.338379 2.272388,1204.001709 
	C4.747994,1204.001709 6.892388,1204.001709 9.036781,1204.001709 
	C404.988434,1204.001831 800.940063,1204.002075 1196.891724,1204.002075 
	C1204.002319,1204.002075 1204.003174,1204.001709 1204.003174,1197.060913 
	C1204.003296,802.442444 1204.003662,407.823944 1203.997314,13.205478 
	C1203.997192,9.541918 1203.904663,5.878360 1203.904907,1.912703 
	C1203.969727,1.407070 1203.984863,1.203535 1204.000000,0.999979 
z"/>
<path fill="#C2C2C2" opacity="1.000000" stroke="none" 
	d="
M2.142851,2.205790 
	C2.102529,2.006781 2.062207,1.807773 2.010942,1.304382 
	C402.366058,1.000000 802.732117,1.000000 1203.549072,1.000000 
	C1203.984863,1.203535 1203.969727,1.407070 1203.437866,1.855273 
	C1199.778687,2.063113 1196.610718,1.778833 1193.504272,2.095791 
	C1191.993286,2.249960 1190.597046,3.527964 1188.981323,4.311357 
	C1186.380005,4.238839 1183.946167,4.152187 1181.791870,3.599652 
	C1180.864136,2.741524 1179.656982,2.349280 1178.091675,2.158361 
	C1171.659790,2.928225 1165.586060,3.496762 1159.792480,3.601390 
	C1156.836426,2.876927 1153.599976,2.616374 1150.363525,2.355819 
	C1150.404907,2.925646 1150.446411,3.495472 1150.067871,4.163754 
	C1145.601807,4.193344 1141.555420,4.124477 1137.783936,3.581980 
	C1135.901245,2.738868 1133.743774,2.045974 1131.586304,2.045663 
	C772.822449,1.994024 414.058624,1.991851 55.294769,1.994099 
	C53.798252,1.994108 52.292297,2.016376 50.816814,2.218509 
	C50.626118,2.244634 50.593067,3.421515 50.059341,4.164365 
	C43.266804,4.197839 36.901917,4.132293 30.597019,3.559713 
	C30.084644,3.050830 29.512283,3.048981 28.968891,3.027417 
	C28.997858,3.007704 28.938366,3.052663 29.059734,2.695780 
	C28.807854,2.576932 28.434605,2.814967 28.042683,3.047199 
	C28.024006,3.041396 28.015244,3.079517 27.678804,2.601928 
	C26.727655,2.443034 26.112947,2.761728 25.111115,3.278588 
	C21.110737,3.140252 17.497484,2.803750 13.221385,2.258414 
	C9.086643,2.101650 5.614747,2.153720 2.142851,2.205790 
z"/>
<path fill="#010102" opacity="1.000000" stroke="none" 
	d="
M1189.148804,4.297226 
	C1190.597046,3.527964 1191.993286,2.249960 1193.504272,2.095791 
	C1196.610718,1.778833 1199.778687,2.063113 1203.388306,2.157372 
	C1203.904663,5.878360 1203.997192,9.541918 1203.997314,13.205478 
	C1204.003662,407.823944 1204.003296,802.442444 1204.003174,1197.060913 
	C1204.003174,1204.001709 1204.002319,1204.002075 1196.891724,1204.002075 
	C800.940063,1204.002075 404.988434,1204.001831 9.036781,1204.001709 
	C6.892388,1204.001709 4.747994,1204.001709 2.272388,1204.001709 
	C2.171840,1202.338379 2.008842,1200.901001 2.008804,1199.463623 
	C1.998186,801.179077 1.998846,402.894562 2.000917,4.610018 
	C2.000920,4.110581 2.026203,3.611145 2.091264,2.658749 
	C5.614747,2.153720 9.086643,2.101650 12.594952,2.548975 
	C10.447478,3.460887 8.263594,3.873405 5.818673,4.132752 
	C5.238102,4.503495 4.918568,5.027410 4.588324,5.891683 
	C4.485714,16.532396 4.325015,26.832684 4.314806,37.133118 
	C4.284107,68.109375 4.313227,99.085693 4.316766,130.061981 
	C4.319773,156.372894 4.315647,182.683807 4.321747,208.994720 
	C4.335416,267.962250 4.353484,326.929810 4.223568,386.284241 
	C4.174837,387.479614 4.272300,388.288086 4.340671,389.557861 
	C4.330969,468.312653 4.350359,546.606079 4.222445,625.315796 
	C4.173345,627.185913 4.271548,628.639709 4.340666,630.555054 
	C4.309537,677.131165 4.305420,723.245850 4.306155,769.360474 
	C4.306675,801.993896 4.285033,834.627319 4.325964,867.260681 
	C4.367314,900.227661 4.521324,933.194580 4.540721,966.161499 
	C4.573358,1021.630737 4.546048,1077.099976 4.528435,1132.569214 
	C4.521402,1154.716553 4.473170,1176.864014 4.311509,1199.293945 
	C4.794440,1200.305420 5.409555,1201.034058 6.486359,1201.837158 
	C402.928894,1201.912476 798.909790,1201.913330 1194.890625,1201.912598 
	C1196.223633,1201.912598 1197.599121,1202.081909 1198.873901,1201.802612 
	C1199.652100,1201.632080 1200.275269,1200.754028 1201.294189,1199.872314 
	C1201.481689,1198.673706 1201.343140,1197.796509 1201.490723,1196.643311 
	C1201.726562,1173.308350 1201.676392,1150.249390 1201.681152,1126.763428 
	C1201.703857,1120.254272 1201.671631,1114.171997 1201.749146,1107.792725 
	C1201.785645,1106.034668 1201.712402,1104.573853 1201.713379,1102.665527 
	C1201.738159,1100.710327 1201.688477,1099.202271 1201.745117,1097.321045 
	C1201.780762,1089.264771 1201.710083,1081.581665 1201.713379,1073.440063 
	C1201.643433,1071.137573 1201.499268,1069.293701 1201.314819,1067.446533 
	C1201.274536,1067.443237 1201.351440,1067.416748 1201.576416,1066.993896 
	C1201.684937,1065.956421 1201.568359,1065.341553 1201.416016,1064.708374 
	C1201.380127,1064.689941 1201.444702,1064.702515 1201.604248,1064.261963 
	C1201.722290,1062.576904 1201.680786,1061.332520 1201.747070,1059.827637 
	C1201.655029,1058.782715 1201.455200,1057.998291 1201.090088,1056.952881 
	C1201.161011,1054.515259 1201.397339,1052.338745 1201.751221,1049.916260 
	C1201.739136,1047.765869 1201.609497,1045.861328 1201.194214,1043.681763 
	C1200.680054,1043.539307 1200.451538,1043.672119 1200.198730,1043.756592 
	C1200.174438,1043.708252 1200.093018,1043.636597 1200.641968,1043.626221 
	C1201.291748,1042.938477 1201.392578,1042.261108 1201.460693,1041.579590 
	C1201.428101,1041.575195 1201.492554,1041.576294 1201.661743,1041.167480 
	C1201.470581,1037.157471 1201.110229,1033.556274 1200.686523,1029.586426 
	C1200.856323,1023.348267 1201.089478,1017.479065 1201.559814,1011.285889 
	C1201.755493,1008.745544 1201.713867,1006.529053 1201.732422,1003.829590 
	C1201.741577,998.260742 1201.690430,993.174866 1201.749756,987.731018 
	C1201.786499,984.881653 1201.712891,982.390320 1201.712891,979.522217 
	C1201.737305,978.126709 1201.688232,977.108032 1201.750977,975.693665 
	C1201.637085,969.222473 1201.411621,963.146973 1201.197388,956.707397 
	C1200.993530,954.403076 1200.569214,952.459290 1200.600830,950.522949 
	C1200.718018,943.323364 1200.984985,936.126221 1201.479736,928.672729 
	C1201.571533,925.300293 1201.379272,922.183167 1201.129639,918.752930 
	C1200.853027,917.348267 1200.385986,916.240234 1200.457642,915.168091 
	C1200.759888,910.644043 1201.222778,906.130676 1201.618530,901.549194 
	C1201.609985,901.484985 1201.627197,901.356567 1201.707031,900.922058 
	C1201.737549,899.020935 1201.688354,897.554321 1201.749512,895.779175 
	C1201.811768,894.156250 1201.763916,892.841919 1201.723633,891.304810 
	C1201.731201,891.082092 1201.378784,890.809021 1201.345459,890.782837 
	C1201.312256,890.756714 1201.383423,890.766113 1201.568848,890.297974 
	C1201.715820,886.913818 1201.677490,883.997803 1201.749268,880.726440 
	C1201.785767,868.948120 1201.712280,857.525024 1201.703613,845.729248 
	C1201.721313,845.108826 1201.674194,844.861145 1201.618408,844.549194 
	C1201.609985,844.484985 1201.627197,844.356567 1201.707031,843.934326 
	C1201.737671,842.370850 1201.688477,841.229492 1201.749268,839.778198 
	C1201.785889,837.945435 1201.712646,836.422791 1201.712769,834.523193 
	C1201.737183,833.127319 1201.688232,832.108337 1201.750732,830.696777 
	C1201.816284,825.090027 1201.770386,819.875854 1201.815918,814.373901 
	C1201.862305,812.859314 1201.817383,811.632446 1201.823242,810.217407 
	C1201.815308,809.647034 1201.756470,809.264893 1201.747070,808.368713 
	C1201.743896,803.932251 1201.691528,800.009705 1201.749634,795.755737 
	C1201.786499,794.267029 1201.713013,793.109802 1201.715820,791.593140 
	C1201.741211,790.504517 1201.690430,789.775208 1201.748535,788.634888 
	C1201.776123,785.758057 1201.694946,783.292297 1201.574707,780.814697 
	C1201.535767,780.802795 1201.590820,780.790283 1201.703613,780.408325 
	C1201.757202,779.767517 1201.698120,779.508667 1201.713501,778.813110 
	C1201.738525,776.614075 1201.688843,774.851685 1201.750977,772.693726 
	C1201.788086,766.186157 1201.713623,760.074219 1201.711670,753.652588 
	C1201.735840,752.924500 1201.687622,752.506042 1201.748779,751.831970 
	C1201.785278,751.035278 1201.712402,750.494141 1201.714600,749.638123 
	C1201.739624,748.897400 1201.689697,748.471619 1201.748413,747.729980 
	C1201.784546,746.318298 1201.711792,745.222412 1201.713379,743.726868 
	C1201.738159,742.247925 1201.688721,741.168579 1201.750977,739.694214 
	C1201.787964,733.566711 1201.713379,727.834351 1201.684570,721.671997 
	C1201.594727,720.987732 1201.458984,720.733459 1201.284668,720.483093 
	C1201.245850,720.487061 1201.324341,720.490845 1201.535278,720.068970 
	C1201.710327,719.022217 1201.674316,718.397217 1201.733398,717.516235 
	C1201.765015,716.907227 1201.701782,716.554321 1201.713135,715.759460 
	C1201.738403,713.241455 1201.688843,711.165466 1201.749023,708.838745 
	C1201.785522,707.691833 1201.712402,706.795654 1201.703735,705.577271 
	C1201.721069,705.041199 1201.673950,704.827332 1201.618408,704.549194 
	C1201.609985,704.484985 1201.627197,704.356567 1201.707031,703.922119 
	C1201.737671,702.021484 1201.688477,700.555176 1201.749512,698.743652 
	C1201.786255,696.231934 1201.712769,694.065552 1201.695923,691.552917 
	C1201.672607,689.465942 1201.592651,687.725220 1201.488770,686.004883 
	C1201.464844,686.025330 1201.516113,686.013184 1201.642578,685.424744 
	C1201.654663,684.049438 1201.540283,683.262634 1201.388672,682.480347 
	C1201.351440,682.484863 1201.428223,682.488342 1201.594849,682.046204 
	C1201.717896,680.663879 1201.674194,679.723694 1201.655151,678.462036 
	C1201.415649,677.821411 1201.151489,677.502258 1201.185059,677.028320 
	C1201.476807,676.649963 1201.470947,676.426392 1201.590698,675.969910 
	C1201.392334,672.476624 1201.068359,669.216248 1200.681885,665.586060 
	C1200.818726,657.118042 1201.017944,649.019836 1201.483765,640.695007 
	C1201.713379,638.278503 1201.676270,636.088562 1201.711426,633.599976 
	C1201.735474,632.897339 1201.687378,632.493286 1201.750977,631.693359 
	C1201.870850,559.569763 1201.885376,487.842072 1201.875977,416.114380 
	C1201.875122,410.139496 1201.712891,404.164642 1201.675537,397.828278 
	C1201.696777,396.007233 1201.667969,394.547668 1201.750732,392.695923 
	C1201.407227,387.053558 1200.952271,381.803345 1200.465332,376.526306 
	C1200.433105,376.499451 1200.497437,376.445709 1200.893677,376.150543 
	C1201.487061,372.548218 1201.853271,369.241211 1201.855835,365.933899 
	C1201.896484,315.575195 1201.891479,265.216431 1201.883057,214.857697 
	C1201.882812,213.538513 1201.723999,212.219360 1201.704346,210.586395 
	C1201.725220,210.063538 1201.681152,209.854492 1201.698242,209.471924 
	C1201.759155,209.298386 1201.687500,208.937012 1201.755371,208.803467 
	C1201.823120,208.669937 1201.722778,208.387711 1201.792358,207.990250 
	C1201.502441,205.393982 1201.142944,203.195175 1200.720947,200.622101 
	C1200.661133,194.467056 1200.663452,188.686279 1200.974854,182.720001 
	C1201.399780,178.301437 1201.515747,174.068405 1201.672607,169.416901 
	C1201.688477,164.256348 1201.663452,159.514267 1201.733398,154.516098 
	C1201.765015,153.907120 1201.701660,153.554199 1201.703857,152.912079 
	C1201.725830,152.430038 1201.682495,152.237198 1201.749023,151.757965 
	C1201.785645,150.065079 1201.712524,148.658585 1201.712891,146.829163 
	C1201.737183,140.171646 1201.687866,133.937088 1201.703369,127.241638 
	C1201.597778,126.521362 1201.427490,126.261978 1201.224609,126.004791 
	C1201.192017,126.006996 1201.218140,125.878235 1201.405518,125.457733 
	C1201.608032,115.922699 1201.623413,106.808167 1201.739258,97.379684 
	C1201.434082,92.745773 1201.028442,88.425804 1200.584351,83.761589 
	C1200.715088,79.873260 1200.884033,76.329170 1201.382446,72.483894 
	C1201.630127,70.993698 1201.548340,69.804680 1201.430664,68.601334 
	C1201.394775,68.586998 1201.472656,68.589172 1201.619141,68.180481 
	C1201.723511,67.197090 1201.681396,66.622391 1201.749390,65.738266 
	C1201.462524,63.999039 1201.065430,62.569237 1200.645264,60.757935 
	C1200.960815,51.126518 1201.299561,41.876602 1201.736084,32.270966 
	C1201.715332,31.448271 1201.596436,30.981289 1201.505371,30.475224 
	C1201.533203,30.436138 1201.560059,30.277822 1201.660156,29.791174 
	C1201.639648,22.143099 1201.518799,14.981674 1201.515625,7.713137 
	C1201.677002,6.750577 1201.720947,5.895129 1201.834717,4.836500 
	C1201.383667,4.504910 1200.862671,4.376501 1200.320312,4.278364 
	C1200.298828,4.308637 1200.286621,4.381838 1199.805420,4.281790 
	C1195.932495,4.220238 1192.540649,4.258734 1189.148804,4.297226 
M1201.002319,1201.425537 
	C1201.209351,1201.488525 1201.416260,1201.551514 1201.623291,1201.614502 
	C1201.549805,1201.411011 1201.476196,1201.207520 1201.002319,1201.425537 
z"/>
<path fill="#D8D8D8" opacity="1.000000" stroke="none" 
	d="
M1201.639282,752.087585 
	C1201.687622,752.506042 1201.735840,752.924500 1201.303467,753.647827 
	C1200.338623,754.498962 1199.429199,755.051514 1199.437134,755.590637 
	C1199.502197,760.041687 1199.614990,764.500732 1199.991699,768.933655 
	C1200.112427,770.355286 1201.066406,771.706116 1201.639282,773.089294 
	C1201.688843,774.851685 1201.738525,776.614075 1201.385132,778.757751 
	C1200.633423,779.390625 1200.284668,779.642212 1199.937622,780.196350 
	C1199.937988,780.700562 1199.936768,780.902222 1199.926514,781.524536 
	C1200.491577,784.312134 1201.065552,786.679016 1201.639648,789.045959 
	C1201.690430,789.775208 1201.741211,790.504517 1201.357666,791.670288 
	C1201.161987,793.433594 1201.400635,794.760437 1201.639282,796.087219 
	C1201.691528,800.009705 1201.743896,803.932251 1201.452148,808.114502 
	C1200.727783,809.255859 1200.347656,810.137451 1199.947754,811.414307 
	C1199.886597,812.862488 1199.845459,813.915344 1199.576416,815.251343 
	C1199.539185,819.326782 1199.595337,823.133240 1199.989746,826.904297 
	C1200.139893,828.341064 1201.066406,829.696716 1201.639282,831.089294 
	C1201.688232,832.108337 1201.737183,833.127319 1201.307617,834.664673 
	C1201.098999,836.818054 1201.369141,838.453125 1201.639160,840.088196 
	C1201.688477,841.229492 1201.737671,842.370850 1201.447754,843.848999 
	C1201.040527,844.341187 1200.972046,844.496460 1200.903687,844.651733 
	C1201.144775,844.638977 1201.385864,844.626221 1201.626953,844.613403 
	C1201.674194,844.861145 1201.721313,845.108826 1201.269531,845.849487 
	C1200.502075,846.921082 1200.023438,847.490173 1199.996582,848.079956 
	C1199.621704,856.289185 1199.060303,864.502930 1199.117920,872.711548 
	C1199.137695,875.507385 1200.752930,878.291992 1201.639282,881.081726 
	C1201.677490,883.997803 1201.715820,886.913818 1201.337891,890.097351 
	C1200.606812,890.581482 1200.291870,890.798157 1199.953613,891.283813 
	C1199.928955,891.732727 1199.927734,891.912659 1199.921875,892.502380 
	C1200.491211,893.970703 1201.065186,895.029236 1201.639160,896.087769 
	C1201.688354,897.554321 1201.737549,899.020935 1201.447754,900.836731 
	C1201.040405,901.341187 1200.972046,901.496460 1200.903687,901.651733 
	C1201.144775,901.638977 1201.385864,901.626160 1201.626953,901.613403 
	C1201.222778,906.130676 1200.759888,910.644043 1200.457642,915.168091 
	C1200.385986,916.240234 1200.853027,917.348267 1200.726807,919.209717 
	C1200.652832,922.962463 1200.924316,925.945312 1201.195801,928.928162 
	C1200.984985,936.126221 1200.718018,943.323364 1200.600830,950.522949 
	C1200.569214,952.459290 1200.993530,954.403076 1200.800781,957.146423 
	C1200.244019,963.131042 1200.014282,968.312927 1200.025391,973.494202 
	C1200.027222,974.360413 1201.074951,975.224304 1201.639282,976.089294 
	C1201.688232,977.108032 1201.737305,978.126709 1201.296875,979.679749 
	C1201.084839,982.839050 1201.362061,985.464050 1201.639282,988.089050 
	C1201.690430,993.174866 1201.741577,998.260742 1201.283203,1003.880981 
	C1200.956665,1006.813477 1201.139648,1009.211670 1201.322632,1011.609802 
	C1201.089478,1017.479065 1200.856323,1023.348267 1200.168823,1029.954834 
	C1199.489746,1033.807617 1199.265137,1036.922852 1199.031738,1040.403198 
	C1199.422974,1041.780396 1199.822998,1042.792603 1200.223022,1043.804810 
	C1200.451538,1043.672119 1200.680054,1043.539307 1200.670166,1043.819580 
	C1198.809448,1046.619019 1197.381836,1048.966309 1201.633545,1050.162231 
	C1201.397339,1052.338745 1201.161011,1054.515259 1200.690796,1057.287964 
	C1200.850952,1058.618774 1201.245117,1059.353516 1201.639282,1060.088135 
	C1201.680786,1061.332520 1201.722290,1062.576904 1201.289307,1063.995850 
	C1200.549805,1064.100464 1200.284668,1064.030640 1199.834961,1063.820801 
	C1199.765625,1064.514160 1199.880859,1065.347656 1199.965332,1066.358154 
	C1199.934570,1066.535400 1199.937378,1066.895142 1200.095215,1067.154541 
	C1200.620361,1067.425903 1200.987671,1067.437866 1201.355103,1067.449829 
	C1201.499268,1069.293701 1201.643433,1071.137573 1201.289307,1073.608032 
	C1200.201660,1081.405640 1199.546997,1088.572998 1199.143188,1095.754395 
	C1199.109497,1096.352417 1200.766846,1097.045410 1201.638672,1097.694336 
	C1201.688477,1099.202271 1201.738159,1100.710327 1201.301514,1102.754761 
	C1201.089966,1104.890747 1201.364624,1106.490356 1201.639282,1108.089844 
	C1201.671631,1114.171997 1201.703857,1120.254272 1201.152954,1126.715454 
	C1200.040161,1128.687134 1199.078003,1130.273315 1199.054199,1131.873535 
	C1198.936401,1139.765625 1198.993286,1147.662720 1199.127075,1155.555786 
	C1199.334351,1167.806519 1199.612427,1180.056519 1199.978027,1192.303345 
	C1200.024170,1193.852905 1200.778442,1195.381226 1201.204590,1196.919434 
	C1201.343140,1197.796509 1201.481689,1198.673706 1200.827026,1199.473389 
	C1197.881348,1199.259277 1195.728882,1199.002441 1193.576416,1199.002319 
	C814.748718,1198.986328 435.921082,1198.989624 57.093399,1198.987305 
	C40.093994,1198.987183 23.094591,1198.943481 5.679640,1198.894531 
	C4.990625,1198.916504 4.717159,1198.963867 4.443693,1199.011353 
	C4.473170,1176.864014 4.521402,1154.716553 4.528435,1132.569214 
	C4.546048,1077.099976 4.573358,1021.630737 4.540721,966.161499 
	C4.521324,933.194580 4.367314,900.227661 4.325964,867.260681 
	C4.285033,834.627319 4.306675,801.993896 4.306155,769.360474 
	C4.305420,723.245850 4.309537,677.131165 4.613094,630.318970 
	C4.732988,628.047424 4.551368,626.473511 4.369749,624.899536 
	C4.350359,546.606079 4.330969,468.312653 4.602083,389.373840 
	C4.718313,387.784760 4.544038,386.841064 4.369762,385.897339 
	C4.353484,326.929810 4.335416,267.962250 4.321747,208.994720 
	C4.315647,182.683807 4.319773,156.372894 4.316766,130.061981 
	C4.313227,99.085693 4.284107,68.109375 4.314806,37.133118 
	C4.325015,26.832684 4.485714,16.532396 5.057468,5.687130 
	C5.718117,4.856787 5.898913,4.571355 6.079710,4.285923 
	C8.263594,3.873405 10.447478,3.460887 13.257797,2.757809 
	C17.497484,2.803750 21.110737,3.140252 25.136986,3.722436 
	C26.371735,3.671918 27.193489,3.375717 28.015244,3.079517 
	C28.015244,3.079517 28.024006,3.041396 28.262001,3.215435 
	C28.646120,3.277204 28.792242,3.164933 28.938366,3.052663 
	C28.938366,3.052663 28.997858,3.007704 28.932667,3.450293 
	C29.423994,3.950837 29.980513,4.008791 30.537033,4.066746 
	C36.901917,4.132293 43.266804,4.197839 50.521122,4.199315 
	C53.256432,4.214450 55.102310,4.293656 56.956055,4.768996 
	C59.135738,5.773240 61.307434,6.913665 63.479382,6.914145 
	C419.094513,6.992710 774.709656,6.989481 1130.324829,6.988747 
	C1131.824463,6.988743 1133.424805,7.295499 1134.789307,6.863239 
	C1135.737915,6.562753 1136.362305,5.239618 1137.206787,4.271132 
	C1137.281982,4.168933 1137.509155,4.055609 1137.509155,4.055610 
	C1141.555420,4.124477 1145.601807,4.193344 1150.567139,4.198834 
	C1154.161621,4.112074 1156.836914,4.088688 1159.512207,4.065301 
	C1165.586060,3.496762 1171.659790,2.928225 1177.821167,2.631089 
	C1179.109863,3.290167 1180.311157,3.677844 1181.512329,4.065528 
	C1183.946167,4.152187 1186.380005,4.238839 1188.981323,4.311360 
	C1192.540649,4.258734 1195.932495,4.220238 1199.557129,4.650496 
	C1199.449341,5.916892 1199.108765,6.714533 1198.768188,7.512180 
	C1199.644775,7.614872 1200.521484,7.717557 1201.398071,7.820246 
	C1201.518799,14.981674 1201.639648,22.143099 1201.378906,29.418997 
	C1200.705322,30.716722 1200.413330,31.899977 1200.512939,33.010132 
	C1201.149170,32.833584 1201.393799,32.730137 1201.638184,32.626686 
	C1201.299561,41.876602 1200.960815,51.126518 1200.146729,61.066391 
	C1198.801514,63.886494 1198.391602,65.805801 1201.639282,66.047699 
	C1201.681396,66.622391 1201.723511,67.197090 1201.328857,68.029968 
	C1200.574707,68.557556 1200.257324,68.826973 1199.941162,69.590515 
	C1200.312622,70.984787 1200.682861,71.884926 1201.053101,72.785080 
	C1200.884033,76.329170 1200.715088,79.873260 1200.083252,84.132004 
	C1199.420776,88.472992 1199.084595,92.101585 1199.144531,95.723663 
	C1199.155640,96.393898 1200.766235,97.037674 1201.638672,97.693642 
	C1201.623413,106.808167 1201.608032,115.922699 1200.988647,125.667084 
	C1200.235718,126.567421 1200.086792,126.837929 1200.153320,127.360481 
	C1200.791992,127.642532 1201.215210,127.672531 1201.638550,127.702522 
	C1201.687866,133.937088 1201.737183,140.171646 1201.288330,146.757050 
	C1198.136719,149.258377 1197.850952,151.001648 1201.639282,152.044342 
	C1201.682495,152.237198 1201.725830,152.430038 1201.351074,152.917145 
	C1201.167969,153.731644 1201.403198,154.251907 1201.638428,154.772156 
	C1201.663452,159.514267 1201.688477,164.256348 1201.137695,169.459625 
	C1198.027954,174.269653 1197.970093,178.598633 1200.665894,182.905518 
	C1200.663452,188.686279 1200.661133,194.467056 1200.214844,200.924759 
	C1199.782349,203.745056 1199.793823,205.888428 1199.849854,208.292572 
	C1199.918579,208.728073 1199.942749,208.902786 1200.173340,209.334412 
	C1200.798950,209.609344 1201.218140,209.627396 1201.637207,209.645447 
	C1201.681152,209.854492 1201.725220,210.063538 1201.294434,210.734772 
	C1200.209717,216.234634 1199.111816,221.270493 1199.092896,226.310394 
	C1199.055176,236.360672 1199.783813,246.411514 1199.880127,256.465149 
	C1200.031128,272.209106 1200.025757,287.956512 1199.895630,303.700836 
	C1199.696411,327.811554 1199.334717,351.920868 1199.035645,376.265015 
	C1199.029419,376.499207 1199.041748,376.968384 1199.021240,377.426727 
	C1198.994141,379.680267 1198.695312,381.534698 1199.044189,383.257965 
	C1199.715454,386.573914 1200.753418,389.815613 1201.639404,393.088074 
	C1201.667969,394.547668 1201.696777,396.007233 1201.147705,397.779907 
	C1200.040283,399.689178 1199.037964,401.293427 1199.065063,402.880066 
	C1199.164062,408.667389 1199.904053,414.451294 1199.856201,420.231964 
	C1199.765625,431.173676 1199.133423,442.110992 1199.050293,453.052612 
	C1199.003906,459.166199 1199.852417,465.283752 1199.877319,471.401245 
	C1199.979492,496.447327 1199.965210,521.494263 1199.877930,546.540466 
	C1199.862427,550.994263 1198.992310,555.449829 1199.044067,559.898438 
	C1199.186646,572.170776 1199.708374,584.438416 1199.889160,596.710693 
	C1200.039795,606.945068 1199.847534,617.184387 1199.996704,627.418823 
	C1200.019531,628.983276 1201.066162,630.532837 1201.639282,632.089294 
	C1201.687378,632.493286 1201.735474,632.897339 1201.270264,633.785339 
	C1200.910400,636.486755 1201.063843,638.704224 1201.217163,640.921631 
	C1201.017944,649.019836 1200.818726,657.118042 1200.163330,665.960815 
	C1199.476685,669.287537 1199.086914,671.872681 1199.134888,674.449707 
	C1199.145996,675.048279 1200.648682,675.619141 1201.465088,676.202759 
	C1201.470947,676.426392 1201.476807,676.649963 1200.962036,677.390503 
	C1200.837769,678.199585 1201.234253,678.491577 1201.630615,678.783508 
	C1201.674194,679.723694 1201.717896,680.663879 1201.397217,681.933350 
	C1201.163940,682.333618 1201.294922,682.404663 1201.426025,682.475708 
	C1201.540283,683.262634 1201.654663,684.049438 1201.395996,685.133972 
	C1200.574097,685.501038 1200.125366,685.570496 1199.676636,685.639893 
	C1199.751587,685.926270 1199.826538,686.212646 1199.901489,686.499023 
	C1200.438599,686.327454 1200.975586,686.155945 1201.512695,685.984497 
	C1201.592651,687.725220 1201.672607,689.465942 1201.282959,691.706299 
	C1201.088745,694.500244 1201.364014,696.794617 1201.639404,699.088928 
	C1201.688477,700.555176 1201.737671,702.021484 1201.447876,703.836792 
	C1201.040527,704.341187 1200.972168,704.496460 1200.903687,704.651733 
	C1201.144775,704.638977 1201.385864,704.626221 1201.626953,704.613403 
	C1201.673950,704.827332 1201.721069,705.041199 1201.316406,705.696655 
	C1201.122803,707.121948 1201.380981,708.105652 1201.639404,709.089417 
	C1201.688843,711.165466 1201.738403,713.241455 1201.360352,715.764465 
	C1201.167969,716.731689 1201.403198,717.251953 1201.638428,717.772278 
	C1201.674316,718.397217 1201.710327,719.022217 1201.359863,719.968445 
	C1201.090088,720.352905 1201.206787,720.416016 1201.323364,720.479126 
	C1201.458984,720.733459 1201.594727,720.987732 1201.250732,721.792114 
	C1200.495117,727.375549 1200.132446,732.407043 1200.025635,737.444031 
	C1200.007202,738.313965 1201.073853,739.206970 1201.639404,740.089294 
	C1201.688721,741.168579 1201.738159,742.247925 1201.343018,743.769897 
	C1201.145508,745.490356 1201.392578,746.768066 1201.639648,748.045837 
	C1201.689697,748.471619 1201.739624,748.897400 1201.394531,749.688599 
	C1201.212769,750.731873 1201.426025,751.409729 1201.639282,752.087585 
M1142.172363,58.068974 
	C1139.394043,58.049927 1136.592529,57.807999 1133.846069,58.094387 
	C1132.165283,58.269650 1130.568970,59.255875 1128.006470,59.905041 
	C1126.007446,59.919556 1124.008423,59.946785 1122.009399,59.946781 
	C771.836670,59.945686 421.663879,59.942726 71.491135,59.938702 
	C67.992920,59.938660 64.494705,59.923588 60.553421,59.453125 
	C59.807590,61.166965 58.615662,62.833618 58.428104,64.606522 
	C58.190182,66.855507 58.965496,69.190742 58.965687,71.488815 
	C58.994968,424.067749 58.997200,776.646667 58.952747,1129.225586 
	C58.952206,1133.515381 58.391361,1137.810547 57.987679,1142.093384 
	C57.696564,1145.181885 58.996002,1146.430298 62.955761,1145.984009 
	C418.148865,1145.982910 773.341919,1145.981689 1128.535034,1145.980957 
	C1130.200928,1145.980957 1131.904053,1146.196411 1133.518433,1145.910034 
	C1134.438354,1145.746826 1135.213867,1144.769775 1136.956787,1144.025879 
	C1139.384888,1144.025879 1141.812866,1144.025879 1144.192627,1144.025879 
	C1144.192627,1130.424927 1144.192139,1117.439941 1144.192627,1104.454956 
	C1144.195068,1046.476685 1144.172729,988.498352 1144.210327,930.520020 
	C1144.230957,898.747009 1144.416138,866.973999 1144.411987,835.200989 
	C1144.407471,799.904724 1144.194092,764.608398 1144.210327,729.312195 
	C1144.238281,668.508606 1144.410400,607.704956 1144.455200,546.901367 
	C1144.516357,463.930481 1144.544922,380.959564 1144.523682,297.988647 
	C1144.516479,270.178802 1144.237183,242.369064 1144.219849,214.559189 
	C1144.198120,179.774857 1144.280762,144.990295 1144.394287,110.206078 
	C1144.445923,94.393791 1144.680054,78.582092 1145.473389,62.136711 
	C1144.684692,60.819309 1143.895874,59.501907 1142.172363,58.068974 
z"/>
<path fill="#010102" opacity="1.000000" stroke="none" 
	d="
M56.948185,4.372863 
	C55.102310,4.293656 53.256432,4.214450 50.948776,4.100293 
	C50.593067,3.421515 50.626118,2.244634 50.816814,2.218509 
	C52.292297,2.016376 53.798252,1.994108 55.294769,1.994099 
	C414.058624,1.991851 772.822449,1.994024 1131.586304,2.045663 
	C1133.743774,2.045974 1135.901245,2.738868 1137.783936,3.581979 
	C1137.509155,4.055609 1137.281982,4.168933 1136.748779,4.126742 
	C1135.049561,4.063687 1133.883545,4.024549 1132.717529,4.024540 
	C775.778625,4.021852 418.839752,4.021390 61.900845,4.036292 
	C60.249954,4.036361 58.599072,4.255847 56.948185,4.372863 
z"/>
<path fill="#010102" opacity="1.000000" stroke="none" 
	d="
M1159.792480,3.601392 
	C1156.836914,4.088688 1154.161621,4.112074 1150.987061,4.100379 
	C1150.446411,3.495472 1150.404907,2.925646 1150.363525,2.355819 
	C1153.599976,2.616374 1156.836426,2.876927 1159.792480,3.601392 
z"/>
<path fill="#010102" opacity="1.000000" stroke="none" 
	d="
M1181.791870,3.599644 
	C1180.311157,3.677844 1179.109863,3.290167 1178.179199,2.429763 
	C1179.656982,2.349280 1180.864136,2.741524 1181.791870,3.599644 
z"/>
<path fill="#232323" opacity="1.000000" stroke="none" 
	d="
M27.678804,2.601929 
	C27.193489,3.375717 26.371735,3.671918 25.524109,3.524270 
	C26.112947,2.761728 26.727655,2.443034 27.678804,2.601929 
z"/>
<path fill="#232323" opacity="1.000000" stroke="none" 
	d="
M29.059734,2.695780 
	C28.792242,3.164933 28.646120,3.277204 28.280678,3.221238 
	C28.434605,2.814967 28.807854,2.576932 29.059734,2.695780 
z"/>
<path fill="#010102" opacity="1.000000" stroke="none" 
	d="
M30.597019,3.559713 
	C29.980513,4.008791 29.423994,3.950837 28.903698,3.470007 
	C29.512283,3.048981 30.084644,3.050830 30.597019,3.559713 
z"/>
<path fill="#BFBFBF" opacity="1.000000" stroke="none" 
	d="
M6.095188,1198.920044 
	C23.094591,1198.943481 40.093994,1198.987183 57.093399,1198.987305 
	C435.921082,1198.989624 814.748718,1198.986328 1193.576416,1199.002319 
	C1195.728882,1199.002441 1197.881348,1199.259277 1200.500977,1199.794922 
	C1200.275269,1200.754028 1199.652100,1201.632080 1198.873901,1201.802612 
	C1197.599121,1202.081909 1196.223633,1201.912598 1194.890625,1201.912598 
	C798.909790,1201.913330 402.928894,1201.912476 6.489059,1201.482422 
	C6.051777,1200.342163 6.073483,1199.631104 6.095188,1198.920044 
z"/>
<path fill="#BFBFBF" opacity="1.000000" stroke="none" 
	d="
M1201.750977,631.693359 
	C1201.066162,630.532837 1200.019531,628.983276 1199.996704,627.418823 
	C1199.847534,617.184387 1200.039795,606.945068 1199.889160,596.710693 
	C1199.708374,584.438416 1199.186646,572.170776 1199.044067,559.898438 
	C1198.992310,555.449829 1199.862427,550.994263 1199.877930,546.540466 
	C1199.965210,521.494263 1199.979492,496.447327 1199.877319,471.401245 
	C1199.852417,465.283752 1199.003906,459.166199 1199.050293,453.052612 
	C1199.133423,442.110992 1199.765625,431.173676 1199.856201,420.231964 
	C1199.904053,414.451294 1199.164062,408.667389 1199.065063,402.880066 
	C1199.037964,401.293427 1200.040283,399.689178 1201.097900,398.141388 
	C1201.712891,404.164642 1201.875122,410.139496 1201.875977,416.114380 
	C1201.885376,487.842072 1201.870850,559.569763 1201.750977,631.693359 
z"/>
<path fill="#BFBFBF" opacity="1.000000" stroke="none" 
	d="
M1199.041992,376.030792 
	C1199.334717,351.920868 1199.696411,327.811554 1199.895630,303.700836 
	C1200.025757,287.956512 1200.031128,272.209106 1199.880127,256.465149 
	C1199.783813,246.411514 1199.055176,236.360672 1199.092896,226.310394 
	C1199.111816,221.270493 1200.209717,216.234634 1201.229370,211.048553 
	C1201.723999,212.219360 1201.882812,213.538513 1201.883057,214.857697 
	C1201.891479,265.216431 1201.896484,315.575195 1201.855835,365.933899 
	C1201.853271,369.241211 1201.487061,372.548218 1200.536133,376.020325 
	C1199.535645,376.133789 1199.288818,376.082275 1199.041992,376.030792 
z"/>
<path fill="#BFBFBF" opacity="1.000000" stroke="none" 
	d="
M1201.490723,1196.643311 
	C1200.778442,1195.381226 1200.024170,1193.852905 1199.978027,1192.303345 
	C1199.612427,1180.056519 1199.334351,1167.806519 1199.127075,1155.555786 
	C1198.993286,1147.662720 1198.936401,1139.765625 1199.054199,1131.873535 
	C1199.078003,1130.273315 1200.040161,1128.687134 1201.097900,1127.142578 
	C1201.676392,1150.249390 1201.726562,1173.308350 1201.490723,1196.643311 
z"/>
<path fill="#BFBFBF" opacity="1.000000" stroke="none" 
	d="
M1201.749268,880.726440 
	C1200.752930,878.291992 1199.137695,875.507385 1199.117920,872.711548 
	C1199.060303,864.502930 1199.621704,856.289185 1199.996582,848.079956 
	C1200.023438,847.490173 1200.502075,846.921082 1201.204834,846.222168 
	C1201.712280,857.525024 1201.785767,868.948120 1201.749268,880.726440 
z"/>
<path fill="#BFBFBF" opacity="1.000000" stroke="none" 
	d="
M1201.745117,1097.321045 
	C1200.766846,1097.045410 1199.109497,1096.352417 1199.143188,1095.754395 
	C1199.546997,1088.572998 1200.201660,1081.405640 1201.215088,1074.066650 
	C1201.710083,1081.581665 1201.780762,1089.264771 1201.745117,1097.321045 
z"/>
<path fill="#BFBFBF" opacity="1.000000" stroke="none" 
	d="
M1201.750977,772.693726 
	C1201.066406,771.706116 1200.112427,770.355286 1199.991699,768.933655 
	C1199.614990,764.500732 1199.502197,760.041687 1199.437134,755.590637 
	C1199.429199,755.051514 1200.338623,754.498962 1201.231079,753.957458 
	C1201.713623,760.074219 1201.788086,766.186157 1201.750977,772.693726 
z"/>
<path fill="#BFBFBF" opacity="1.000000" stroke="none" 
	d="
M1201.750977,975.693665 
	C1201.074951,975.224304 1200.027222,974.360413 1200.025391,973.494202 
	C1200.014282,968.312927 1200.244019,963.131042 1200.789551,957.510376 
	C1201.411621,963.146973 1201.637085,969.222473 1201.750977,975.693665 
z"/>
<path fill="#BFBFBF" opacity="1.000000" stroke="none" 
	d="
M1201.750732,392.695923 
	C1200.753418,389.815613 1199.715454,386.573914 1199.044189,383.257965 
	C1198.695312,381.534698 1198.994141,379.680267 1199.392090,377.348328 
	C1200.021484,376.725433 1200.259521,376.639313 1200.497437,376.553162 
	C1200.952271,381.803345 1201.407227,387.053558 1201.750732,392.695923 
z"/>
<path fill="#BFBFBF" opacity="1.000000" stroke="none" 
	d="
M1201.750854,739.694214 
	C1201.073853,739.206970 1200.007202,738.313965 1200.025635,737.444031 
	C1200.132446,732.407043 1200.495117,727.375549 1201.205078,722.222046 
	C1201.713379,727.834351 1201.787964,733.566711 1201.750854,739.694214 
z"/>
<path fill="#BFBFBF" opacity="1.000000" stroke="none" 
	d="
M1201.739258,97.379700 
	C1200.766235,97.037674 1199.155640,96.393898 1199.144531,95.723663 
	C1199.084595,92.101585 1199.420776,88.472992 1200.121582,84.476242 
	C1201.028442,88.425804 1201.434082,92.745773 1201.739258,97.379700 
z"/>
<path fill="#BFBFBF" opacity="1.000000" stroke="none" 
	d="
M1201.750732,830.696777 
	C1201.066406,829.696716 1200.139893,828.341064 1199.989746,826.904297 
	C1199.595337,823.133240 1199.539185,819.326782 1200.062988,815.209473 
	C1201.093262,814.810303 1201.408936,814.735962 1201.724487,814.661682 
	C1201.770386,819.875854 1201.816284,825.090027 1201.750732,830.696777 
z"/>
<path fill="#BFBFBF" opacity="1.000000" stroke="none" 
	d="
M1200.974854,182.720001 
	C1197.970093,178.598633 1198.027954,174.269653 1201.096680,169.878082 
	C1201.515747,174.068405 1201.399780,178.301437 1200.974854,182.720001 
z"/>
<path fill="#BFBFBF" opacity="1.000000" stroke="none" 
	d="
M1199.040405,1040.038208 
	C1199.265137,1036.922852 1199.489746,1033.807617 1200.232178,1030.323730 
	C1201.110229,1033.556274 1201.470581,1037.157471 1201.379639,1040.936401 
	C1200.299072,1040.755615 1199.669678,1040.396851 1199.040405,1040.038208 
z"/>
<path fill="#BFBFBF" opacity="1.000000" stroke="none" 
	d="
M1201.590698,675.969910 
	C1200.648682,675.619141 1199.145996,675.048279 1199.134888,674.449707 
	C1199.086914,671.872681 1199.476685,669.287537 1200.225830,666.330566 
	C1201.068359,669.216248 1201.392334,672.476624 1201.590698,675.969910 
z"/>
<path fill="#BFBFBF" opacity="1.000000" stroke="none" 
	d="
M1201.748535,788.634888 
	C1201.065552,786.679016 1200.491577,784.312134 1200.343262,781.436035 
	C1201.050781,780.893433 1201.332275,780.859985 1201.613770,780.826599 
	C1201.694946,783.292297 1201.776123,785.758057 1201.748535,788.634888 
z"/>
<path fill="#BFBFBF" opacity="1.000000" stroke="none" 
	d="
M1201.749756,987.731018 
	C1201.362061,985.464050 1201.084839,982.839050 1201.223511,980.056519 
	C1201.712891,982.390320 1201.786499,984.881653 1201.749756,987.731018 
z"/>
<path fill="#BFBFBF" opacity="1.000000" stroke="none" 
	d="
M1201.479736,928.672729 
	C1200.924316,925.945312 1200.652832,922.962463 1200.784180,919.522827 
	C1201.379272,922.183167 1201.571533,925.300293 1201.479736,928.672729 
z"/>
<path fill="#BFBFBF" opacity="1.000000" stroke="none" 
	d="
M1199.805298,208.031784 
	C1199.793823,205.888428 1199.782349,203.745056 1200.277100,201.299042 
	C1201.142944,203.195175 1201.502441,205.393982 1201.320435,207.860077 
	C1200.454346,208.095505 1200.129883,208.063644 1199.805298,208.031784 
z"/>
<path fill="#BFBFBF" opacity="1.000000" stroke="none" 
	d="
M1201.751221,1049.916260 
	C1197.381836,1048.966309 1198.809448,1046.619019 1200.955566,1044.094727 
	C1201.609497,1045.861328 1201.739136,1047.765869 1201.751221,1049.916260 
z"/>
<path fill="#BFBFBF" opacity="1.000000" stroke="none" 
	d="
M1201.749023,151.757965 
	C1197.850952,151.001648 1198.136719,149.258377 1201.214844,147.180008 
	C1201.712524,148.658585 1201.785645,150.065079 1201.749023,151.757965 
z"/>
<path fill="#BFBFBF" opacity="1.000000" stroke="none" 
	d="
M1201.749512,698.743652 
	C1201.364014,696.794617 1201.088745,694.500244 1201.226318,692.052551 
	C1201.712769,694.065552 1201.786255,696.231934 1201.749512,698.743652 
z"/>
<path fill="#BFBFBF" opacity="1.000000" stroke="none" 
	d="
M1201.483765,640.695007 
	C1201.063843,638.704224 1200.910400,636.486755 1201.198242,634.083984 
	C1201.676270,636.088562 1201.713379,638.278503 1201.483765,640.695007 
z"/>
<path fill="#BFBFBF" opacity="1.000000" stroke="none" 
	d="
M1201.749390,65.738266 
	C1198.391602,65.805801 1198.801514,63.886494 1200.169800,61.447891 
	C1201.065430,62.569237 1201.462524,63.999039 1201.749390,65.738266 
z"/>
<path fill="#BFBFBF" opacity="1.000000" stroke="none" 
	d="
M1201.749146,839.778198 
	C1201.369141,838.453125 1201.098999,836.818054 1201.234131,835.041504 
	C1201.712646,836.422791 1201.785889,837.945435 1201.749146,839.778198 
z"/>
<path fill="#BFBFBF" opacity="1.000000" stroke="none" 
	d="
M1201.749146,1107.792725 
	C1201.364624,1106.490356 1201.089966,1104.890747 1201.227173,1103.202148 
	C1201.712402,1104.573853 1201.785645,1106.034668 1201.749146,1107.792725 
z"/>
<path fill="#BFBFBF" opacity="1.000000" stroke="none" 
	d="
M1201.515625,7.713134 
	C1200.521484,7.717557 1199.644775,7.614872 1198.768188,7.512180 
	C1199.108765,6.714533 1199.449341,5.916892 1200.038330,4.750545 
	C1200.286621,4.381838 1200.298828,4.308637 1200.643066,4.536966 
	C1201.246460,4.856757 1201.505737,4.948219 1201.765015,5.039680 
	C1201.720947,5.895129 1201.677002,6.750577 1201.515625,7.713134 
z"/>
<path fill="#BFBFBF" opacity="1.000000" stroke="none" 
	d="
M1201.749634,795.755737 
	C1201.400635,794.760437 1201.161987,793.433594 1201.281494,792.029663 
	C1201.713013,793.109802 1201.786499,794.267029 1201.749634,795.755737 
z"/>
<path fill="#BFBFBF" opacity="1.000000" stroke="none" 
	d="
M1201.749390,895.779175 
	C1201.065186,895.029236 1200.491211,893.970703 1200.379517,892.391907 
	C1201.133179,891.757019 1201.424683,891.642334 1201.716064,891.527588 
	C1201.763916,892.841919 1201.811768,894.156250 1201.749390,895.779175 
z"/>
<path fill="#AFAFAF" opacity="1.000000" stroke="none" 
	d="
M1201.559814,1011.285889 
	C1201.139648,1009.211670 1200.956665,1006.813477 1201.222900,1004.364014 
	C1201.713867,1006.529053 1201.755493,1008.745544 1201.559814,1011.285889 
z"/>
<path fill="#A1A1A1" opacity="1.000000" stroke="none" 
	d="
M1200.121338,33.083252 
	C1200.413330,31.899977 1200.705322,30.716722 1201.278687,29.905645 
	C1201.560059,30.277822 1201.533203,30.436138 1201.196289,30.717800 
	C1200.613403,31.694065 1200.367432,32.388672 1200.121338,33.083252 
z"/>
<path fill="#BFBFBF" opacity="1.000000" stroke="none" 
	d="
M1201.748413,747.729980 
	C1201.392578,746.768066 1201.145508,745.490356 1201.268799,744.169556 
	C1201.711792,745.222412 1201.784546,746.318298 1201.748413,747.729980 
z"/>
<path fill="#AFAFAF" opacity="1.000000" stroke="none" 
	d="
M1201.815918,814.373901 
	C1201.408936,814.735962 1201.093262,814.810303 1200.291016,814.926392 
	C1199.845459,813.915344 1199.886597,812.862488 1200.412598,811.300903 
	C1201.189087,810.663452 1201.480713,810.534546 1201.772461,810.405640 
	C1201.817383,811.632446 1201.862305,812.859314 1201.815918,814.373901 
z"/>
<path fill="#AFAFAF" opacity="1.000000" stroke="none" 
	d="
M5.679640,1198.894531 
	C6.073483,1199.631104 6.051777,1200.342163 6.027371,1201.407959 
	C5.409555,1201.034058 4.794440,1200.305420 4.311509,1199.293945 
	C4.717159,1198.963867 4.990625,1198.916504 5.679640,1198.894531 
z"/>
<path fill="#A1A1A1" opacity="1.000000" stroke="none" 
	d="
M1201.823242,810.217407 
	C1201.480713,810.534546 1201.189087,810.663452 1200.432617,810.905640 
	C1200.347656,810.137451 1200.727783,809.255859 1201.402832,808.628479 
	C1201.756470,809.264893 1201.815308,809.647034 1201.823242,810.217407 
z"/>
<path fill="#BFBFBF" opacity="1.000000" stroke="none" 
	d="
M1201.748901,708.838745 
	C1201.380981,708.105652 1201.122803,707.121948 1201.251953,706.018799 
	C1201.712402,706.795654 1201.785522,707.691833 1201.748901,708.838745 
z"/>
<path fill="#AFAFAF" opacity="1.000000" stroke="none" 
	d="
M1199.031738,1040.403198 
	C1199.669678,1040.396851 1200.299072,1040.755615 1201.210449,1041.345215 
	C1201.492554,1041.576294 1201.428101,1041.575195 1201.128906,1041.853516 
	C1200.584229,1042.633301 1200.338623,1043.135010 1200.093018,1043.636597 
	C1200.093018,1043.636597 1200.174438,1043.708252 1200.198730,1043.756592 
	C1199.822998,1042.792603 1199.422974,1041.780396 1199.031738,1040.403198 
z"/>
<path fill="#878787" opacity="1.000000" stroke="none" 
	d="
M4.222445,625.315796 
	C4.551368,626.473511 4.732988,628.047424 4.642179,629.857422 
	C4.271548,628.639709 4.173345,627.185913 4.222445,625.315796 
z"/>
<path fill="#BFBFBF" opacity="1.000000" stroke="none" 
	d="
M1201.748779,751.831970 
	C1201.426025,751.409729 1201.212769,750.731873 1201.319580,750.003540 
	C1201.712402,750.494141 1201.785278,751.035278 1201.748779,751.831970 
z"/>
<path fill="#A1A1A1" opacity="1.000000" stroke="none" 
	d="
M1201.488770,686.004883 
	C1200.975586,686.155945 1200.438599,686.327454 1199.901489,686.499023 
	C1199.826538,686.212646 1199.751587,685.926270 1199.676636,685.639893 
	C1200.125366,685.570496 1200.574097,685.501038 1201.269531,685.722412 
	C1201.516113,686.013184 1201.464844,686.025330 1201.488770,686.004883 
z"/>
<path fill="#BFBFBF" opacity="1.000000" stroke="none" 
	d="
M1201.747070,1059.827637 
	C1201.245117,1059.353516 1200.850952,1058.618774 1200.856201,1057.549072 
	C1201.455200,1057.998291 1201.655029,1058.782715 1201.747070,1059.827637 
z"/>
<path fill="#878787" opacity="1.000000" stroke="none" 
	d="
M4.223569,386.284241 
	C4.544038,386.841064 4.718313,387.784760 4.631175,388.912537 
	C4.272300,388.288086 4.174837,387.479614 4.223569,386.284241 
z"/>
<path fill="#BFBFBF" opacity="1.000000" stroke="none" 
	d="
M1201.382446,72.483887 
	C1200.682861,71.884926 1200.312622,70.984787 1200.330566,69.493469 
	C1200.968140,68.806747 1201.217407,68.711212 1201.466675,68.615669 
	C1201.548340,69.804680 1201.630127,70.993698 1201.382446,72.483887 
z"/>
<path fill="#BFBFBF" opacity="1.000000" stroke="none" 
	d="
M1201.733398,717.516235 
	C1201.403198,717.251953 1201.167969,716.731689 1201.285645,716.206421 
	C1201.701782,716.554321 1201.765015,716.907227 1201.733398,717.516235 
z"/>
<path fill="#BFBFBF" opacity="1.000000" stroke="none" 
	d="
M1199.937378,1066.895142 
	C1199.937378,1066.895142 1199.934570,1066.535400 1199.955811,1066.049561 
	C1199.973145,1065.359253 1199.969482,1065.154907 1200.340820,1064.918579 
	C1200.961182,1064.833374 1201.206543,1064.780151 1201.451782,1064.726807 
	C1201.568359,1065.341553 1201.684937,1065.956421 1201.229736,1066.845215 
	C1200.417725,1067.044556 1200.177490,1066.969849 1199.937378,1066.895142 
z"/>
<path fill="#A1A1A1" opacity="1.000000" stroke="none" 
	d="
M1201.834717,4.836501 
	C1201.505737,4.948219 1201.246460,4.856757 1200.664551,4.506693 
	C1200.862671,4.376501 1201.383667,4.504910 1201.834717,4.836501 
z"/>
<path fill="#A1A1A1" opacity="1.000000" stroke="none" 
	d="
M5.818673,4.132752 
	C5.898913,4.571355 5.718117,4.856787 5.068177,5.346771 
	C4.918568,5.027410 5.238102,4.503495 5.818673,4.132752 
z"/>
<path fill="#BFBFBF" opacity="1.000000" stroke="none" 
	d="
M1200.512939,33.010155 
	C1200.367432,32.388672 1200.613403,31.694065 1201.168579,30.756886 
	C1201.596436,30.981289 1201.715332,31.448271 1201.736206,32.270969 
	C1201.393799,32.730137 1201.149170,32.833584 1200.512939,33.010155 
z"/>
<path fill="#BFBFBF" opacity="1.000000" stroke="none" 
	d="
M1201.733398,154.516083 
	C1201.403198,154.251907 1201.167969,153.731644 1201.285645,153.206329 
	C1201.701660,153.554199 1201.765015,153.907120 1201.733398,154.516083 
z"/>
<path fill="#BFBFBF" opacity="1.000000" stroke="none" 
	d="
M1201.618408,704.549194 
	C1201.385864,704.626221 1201.144775,704.638977 1200.903687,704.651733 
	C1200.972168,704.496460 1201.040527,704.341187 1201.368042,704.271240 
	C1201.627197,704.356567 1201.609985,704.484985 1201.618408,704.549194 
z"/>
<path fill="#A1A1A1" opacity="1.000000" stroke="none" 
	d="
M1201.202393,1201.214844 
	C1201.476196,1201.207520 1201.549805,1201.411011 1201.623291,1201.614502 
	C1201.416260,1201.551514 1201.209351,1201.488525 1201.202393,1201.214844 
z"/>
<path fill="#AFAFAF" opacity="1.000000" stroke="none" 
	d="
M1199.849854,208.292572 
	C1200.129883,208.063644 1200.454346,208.095505 1201.250854,208.257538 
	C1201.722778,208.387711 1201.823120,208.669937 1201.323364,208.833023 
	C1200.538086,209.023239 1200.252441,209.050369 1199.966797,209.077515 
	C1199.942749,208.902786 1199.918579,208.728073 1199.849854,208.292572 
z"/>
<path fill="#BFBFBF" opacity="1.000000" stroke="none" 
	d="
M1200.173340,209.334412 
	C1200.252441,209.050369 1200.538086,209.023239 1201.255615,208.966553 
	C1201.687500,208.937012 1201.759155,209.298386 1201.698242,209.471924 
	C1201.218140,209.627396 1200.798950,209.609344 1200.173340,209.334412 
z"/>
<path fill="#A1A1A1" opacity="1.000000" stroke="none" 
	d="
M1201.284668,720.483093 
	C1201.206787,720.416016 1201.090088,720.352905 1201.148926,720.390259 
	C1201.324341,720.490845 1201.245850,720.487061 1201.284668,720.483093 
z"/>
<path fill="#BFBFBF" opacity="1.000000" stroke="none" 
	d="
M1199.936035,779.893799 
	C1200.284668,779.642212 1200.633423,779.390625 1201.310547,779.194397 
	C1201.698120,779.508667 1201.757202,779.767517 1201.314941,780.134399 
	C1200.520874,780.126282 1200.228394,780.010071 1199.936035,779.893799 
z"/>
<path fill="#A1A1A1" opacity="1.000000" stroke="none" 
	d="
M1200.095215,1067.154541 
	C1200.177490,1066.969849 1200.417725,1067.044556 1201.004639,1067.268066 
	C1201.351440,1067.416748 1201.274536,1067.443237 1201.314819,1067.446533 
	C1200.987671,1067.437866 1200.620361,1067.425903 1200.095215,1067.154541 
z"/>
<path fill="#A1A1A1" opacity="1.000000" stroke="none" 
	d="
M1199.937622,780.196411 
	C1200.228394,780.010071 1200.520874,780.126282 1201.202148,780.516418 
	C1201.590820,780.790283 1201.535767,780.802795 1201.574707,780.814697 
	C1201.332275,780.859985 1201.050781,780.893433 1200.352295,781.015381 
	C1199.936768,780.902222 1199.937988,780.700562 1199.937622,780.196411 
z"/>
<path fill="#AFAFAF" opacity="1.000000" stroke="none" 
	d="
M1201.416016,1064.708374 
	C1201.206543,1064.780151 1200.961182,1064.833374 1200.349487,1064.671265 
	C1199.983032,1064.455933 1200.019653,1063.960938 1200.019653,1063.960938 
	C1200.284668,1064.030640 1200.549805,1064.100464 1201.129761,1064.436401 
	C1201.444702,1064.702515 1201.380127,1064.689941 1201.416016,1064.708374 
z"/>
<path fill="#AFAFAF" opacity="1.000000" stroke="none" 
	d="
M1201.723633,891.304810 
	C1201.424683,891.642334 1201.133179,891.757019 1200.384033,891.982117 
	C1199.927734,891.912659 1199.928955,891.732727 1200.304199,891.231812 
	C1200.911621,890.876892 1201.145264,890.842957 1201.378784,890.809021 
	C1201.378784,890.809021 1201.731201,891.082092 1201.723633,891.304810 
z"/>
<path fill="#BFBFBF" opacity="1.000000" stroke="none" 
	d="
M1201.703369,127.241638 
	C1201.215210,127.672531 1200.791992,127.642532 1200.547729,127.160187 
	C1200.903687,126.472748 1201.080444,126.237671 1201.257324,126.002586 
	C1201.427490,126.261978 1201.597778,126.521362 1201.703369,127.241638 
z"/>
<path fill="#BFBFBF" opacity="1.000000" stroke="none" 
	d="
M1200.641968,1043.626221 
	C1200.338623,1043.135010 1200.584229,1042.633301 1201.161621,1041.857788 
	C1201.392578,1042.261108 1201.291748,1042.938477 1200.641968,1043.626221 
z"/>
<path fill="#AFAFAF" opacity="1.000000" stroke="none" 
	d="
M1201.388672,682.480286 
	C1201.294922,682.404663 1201.163940,682.333618 1201.230469,682.375488 
	C1201.428223,682.488342 1201.351440,682.484863 1201.388672,682.480286 
z"/>
<path fill="#BFBFBF" opacity="1.000000" stroke="none" 
	d="
M1201.655151,678.462036 
	C1201.234253,678.491577 1200.837769,678.199585 1200.664429,677.545349 
	C1201.151489,677.502258 1201.415649,677.821411 1201.655151,678.462036 
z"/>
<path fill="#AFAFAF" opacity="1.000000" stroke="none" 
	d="
M1200.465332,376.526306 
	C1200.259521,376.639313 1200.021484,376.725433 1199.412598,376.889984 
	C1199.041748,376.968384 1199.029419,376.499207 1199.035645,376.265015 
	C1199.288818,376.082275 1199.535645,376.133789 1200.139893,376.315491 
	C1200.497437,376.445709 1200.433105,376.499451 1200.465332,376.526306 
z"/>
<path fill="#A1A1A1" opacity="1.000000" stroke="none" 
	d="
M1201.224609,126.004791 
	C1201.080444,126.237671 1200.903687,126.472748 1200.332275,126.908127 
	C1200.086792,126.837929 1200.235718,126.567421 1200.801270,126.087578 
	C1201.218140,125.878235 1201.192017,126.006996 1201.224609,126.004791 
z"/>
<path fill="#BFBFBF" opacity="1.000000" stroke="none" 
	d="
M1201.618408,844.549194 
	C1201.385864,844.626221 1201.144775,844.638977 1200.903687,844.651733 
	C1200.972046,844.496460 1201.040527,844.341187 1201.368042,844.271240 
	C1201.627197,844.356567 1201.609985,844.484985 1201.618408,844.549194 
z"/>
<path fill="#AFAFAF" opacity="1.000000" stroke="none" 
	d="
M1201.430664,68.601334 
	C1201.217407,68.711212 1200.968140,68.806747 1200.329346,68.999336 
	C1200.257324,68.826973 1200.574707,68.557556 1201.182373,68.438660 
	C1201.472656,68.589172 1201.394775,68.586998 1201.430664,68.601334 
z"/>
<path fill="#BFBFBF" opacity="1.000000" stroke="none" 
	d="
M1201.618408,901.549194 
	C1201.385864,901.626160 1201.144775,901.638977 1200.903687,901.651733 
	C1200.972046,901.496460 1201.040405,901.341187 1201.368042,901.271240 
	C1201.627197,901.356567 1201.609985,901.484985 1201.618408,901.549194 
z"/>
<path fill="#A1A1A1" opacity="1.000000" stroke="none" 
	d="
M1201.345459,890.782837 
	C1201.145264,890.842957 1200.911621,890.876892 1200.327393,890.962891 
	C1200.291870,890.798157 1200.606812,890.581482 1201.152588,890.565430 
	C1201.383423,890.766113 1201.312256,890.756714 1201.345459,890.782837 
z"/>
<path fill="#010102" opacity="1.000000" stroke="none" 
	d="
M1144.831299,62.770123 
	C1144.680054,78.582092 1144.445923,94.393791 1144.394287,110.206078 
	C1144.280762,144.990295 1144.198120,179.774857 1144.219849,214.559189 
	C1144.237183,242.369064 1144.516479,270.178802 1144.523682,297.988647 
	C1144.544922,380.959564 1144.516357,463.930481 1144.455200,546.901367 
	C1144.410400,607.704956 1144.238281,668.508606 1144.210327,729.312195 
	C1144.194092,764.608398 1144.407471,799.904724 1144.411987,835.200989 
	C1144.416138,866.973999 1144.230957,898.747009 1144.210327,930.520020 
	C1144.172729,988.498352 1144.195068,1046.476685 1144.192627,1104.454956 
	C1144.192139,1117.439941 1144.192627,1130.424927 1144.192627,1144.025879 
	C1141.812866,1144.025879 1139.384888,1144.025879 1136.039795,1144.009277 
	C783.256775,1143.992310 431.390778,1143.992310 79.524742,1143.988525 
	C73.696831,1143.988403 67.868912,1143.943970 62.046944,1143.506958 
	C62.128391,1138.599121 62.269867,1134.104492 62.270000,1129.609985 
	C62.280247,776.740479 62.279961,423.871002 62.269840,71.001534 
	C62.269753,68.006088 62.125317,65.010635 62.513107,61.986412 
	C64.809799,61.967644 66.641655,61.986416 68.473518,61.986423 
	C417.657959,61.987717 766.842407,61.988449 1116.026855,61.983578 
	C1125.355591,61.983448 1134.684204,61.922123 1144.108887,62.073242 
	C1144.354126,62.500900 1144.562866,62.671894 1144.831299,62.770123 
M1140.828491,303.500061 
	C1140.828491,224.219681 1140.828491,144.939316 1140.828491,65.488770 
	C782.290283,65.488770 424.212830,65.488770 66.045868,65.488770 
	C66.045868,423.839844 66.045868,782.080933 66.045868,1140.826416 
	C68.221344,1140.826416 70.173668,1140.826416 72.125992,1140.826416 
	C245.511002,1140.827515 418.895996,1140.828613 592.281006,1140.829590 
	C773.266724,1140.830566 954.252441,1140.817993 1135.238159,1140.916138 
	C1139.482666,1140.918335 1140.932617,1140.010742 1140.930786,1135.434937 
	C1140.816895,858.456665 1140.828491,581.478394 1140.828491,303.500061 
z"/>
<path fill="#C2C2C2" opacity="1.000000" stroke="none" 
	d="
M62.048279,62.015190 
	C62.125317,65.010635 62.269753,68.006088 62.269840,71.001534 
	C62.279961,423.871002 62.280247,776.740479 62.270000,1129.609985 
	C62.269867,1134.104492 62.128391,1138.599121 62.007195,1143.849243 
	C61.981949,1145.063477 62.002396,1145.521973 62.022842,1145.980591 
	C58.996002,1146.430298 57.696564,1145.181885 57.987679,1142.093384 
	C58.391361,1137.810547 58.952206,1133.515381 58.952747,1129.225586 
	C58.997200,776.646667 58.994968,424.067749 58.965687,71.488815 
	C58.965496,69.190742 58.190182,66.855507 58.428104,64.606522 
	C58.615662,62.833618 59.807590,61.166965 60.799469,60.000336 
	C61.379776,61.036758 61.714027,61.525974 62.048279,62.015190 
z"/>
<path fill="#BFBFBF" opacity="1.000000" stroke="none" 
	d="
M56.956055,4.768996 
	C58.599072,4.255847 60.249954,4.036361 61.900845,4.036292 
	C418.839752,4.021390 775.778625,4.021852 1132.717529,4.024540 
	C1133.883545,4.024549 1135.049561,4.063687 1136.673584,4.228941 
	C1136.362305,5.239618 1135.737915,6.562753 1134.789307,6.863239 
	C1133.424805,7.295499 1131.824463,6.988743 1130.324829,6.988747 
	C774.709656,6.989481 419.094513,6.992710 63.479382,6.914145 
	C61.307434,6.913665 59.135738,5.773240 56.956055,4.768996 
z"/>
<path fill="#A1A1A1" opacity="1.000000" stroke="none" 
	d="
M62.513107,61.986412 
	C61.714027,61.525974 61.379776,61.036758 61.021004,60.231537 
	C64.494705,59.923588 67.992920,59.938660 71.491135,59.938702 
	C421.663879,59.942726 771.836670,59.945686 1122.009399,59.946781 
	C1124.008423,59.946785 1126.007446,59.919556 1128.939941,59.944679 
	C1134.257568,59.999725 1138.641846,60.015137 1143.262939,60.180435 
	C1143.670776,60.849998 1143.841919,61.369671 1144.012939,61.889339 
	C1134.684204,61.922123 1125.355591,61.983448 1116.026855,61.983578 
	C766.842407,61.988449 417.657959,61.987717 68.473518,61.986423 
	C66.641655,61.986416 64.809799,61.967644 62.513107,61.986412 
z"/>
<path fill="#A1A1A1" opacity="1.000000" stroke="none" 
	d="
M62.489304,1145.982300 
	C62.002396,1145.521973 61.981949,1145.063477 62.001251,1144.262573 
	C67.868912,1143.943970 73.696831,1143.988403 79.524742,1143.988525 
	C431.390778,1143.992310 783.256775,1143.992310 1135.588623,1144.075928 
	C1135.213867,1144.769775 1134.438354,1145.746826 1133.518433,1145.910034 
	C1131.904053,1146.196411 1130.200928,1145.980957 1128.535034,1145.980957 
	C773.341919,1145.981689 418.148865,1145.982910 62.489304,1145.982300 
z"/>
<path fill="#C2C2C2" opacity="1.000000" stroke="none" 
	d="
M1143.026123,60.030556 
	C1138.641846,60.015137 1134.257568,59.999725 1129.404053,59.931107 
	C1130.568970,59.255875 1132.165283,58.269650 1133.846069,58.094387 
	C1136.592529,57.807999 1139.394043,58.049927 1142.614746,58.431114 
	C1143.046875,59.205685 1143.036621,59.618118 1143.026123,60.030556 
z"/>
<path fill="#AFAFAF" opacity="1.000000" stroke="none" 
	d="
M1143.262939,60.180439 
	C1143.036621,59.618118 1143.046875,59.205685 1143.082275,58.488876 
	C1143.895874,59.501907 1144.684692,60.819309 1145.152344,62.453415 
	C1144.562866,62.671894 1144.354126,62.500900 1144.108887,62.073246 
	C1143.841919,61.369671 1143.670776,60.849998 1143.262939,60.180439 
z"/>
<path fill="#A1A1A1" opacity="1.000000" stroke="none" 
	d="
M1199.834961,1063.820801 
	C1200.019653,1063.960938 1199.983032,1064.455933 1199.974365,1064.703247 
	C1199.969482,1065.154907 1199.973145,1065.359253 1199.986572,1065.872314 
	C1199.880859,1065.347656 1199.765625,1064.514160 1199.834961,1063.820801 
z"/>
<path fill="#FFFFFF" opacity="1.000000" stroke="none" 
	d="
M1140.828491,304.000092 
	C1140.828491,581.478394 1140.816895,858.456665 1140.930786,1135.434937 
	C1140.932617,1140.010742 1139.482666,1140.918335 1135.238159,1140.916138 
	C954.252441,1140.817993 773.266724,1140.830566 592.281006,1140.829590 
	C418.895996,1140.828613 245.511002,1140.827515 72.125992,1140.826416 
	C70.173668,1140.826416 68.221344,1140.826416 66.045868,1140.826416 
	C66.045868,782.080933 66.045868,423.839844 66.045868,65.488770 
	C424.212830,65.488770 782.290283,65.488770 1140.828491,65.488770 
	C1140.828491,144.939316 1140.828491,224.219681 1140.828491,304.000092 
M1078.001587,994.500000 
	C1078.001587,702.412292 1078.001587,410.324554 1078.001587,118.285652 
	C761.030579,118.285652 444.630402,118.285652 128.289551,118.285652 
	C128.289551,441.644745 128.289551,764.710205 128.289551,1087.723511 
	C444.986816,1087.723511 761.385620,1087.723511 1078.001587,1087.723511 
	C1078.001587,1056.788208 1078.001587,1026.144165 1078.001587,994.500000 
z"/>
<path fill="#010102" opacity="1.000000" stroke="none" 
	d="
M1078.001587,995.000000 
	C1078.001587,1026.144165 1078.001587,1056.788208 1078.001587,1087.723511 
	C761.385620,1087.723511 444.986816,1087.723511 128.289551,1087.723511 
	C128.289551,764.710205 128.289551,441.644745 128.289551,118.285652 
	C444.630402,118.285652 761.030579,118.285652 1078.001587,118.285652 
	C1078.001587,410.324554 1078.001587,702.412292 1078.001587,995.000000 
M1072.070679,283.206360 
	C1071.981812,282.471588 1071.892944,281.736816 1071.961182,280.076294 
	C1071.970215,249.321304 1072.002075,218.566284 1071.980225,187.811310 
	C1071.966309,168.198502 1071.872803,148.585739 1071.954468,128.104721 
	C1071.894775,126.841492 1071.834961,125.578262 1071.776367,124.336967 
	C759.048035,124.336967 446.726288,124.336967 133.989075,124.336967 
	C133.989075,127.143875 133.989075,129.615692 133.989075,132.087509 
	C133.989075,278.383179 133.988525,424.678833 133.996231,570.974487 
	C133.996323,572.636841 134.103882,574.299133 134.033905,576.495605 
	C134.074524,576.674011 134.115158,576.852478 134.010681,577.954346 
	C134.004684,596.397217 133.978577,614.840088 133.997116,633.282959 
	C134.029846,665.845825 134.089798,698.408752 133.977020,731.900269 
	C133.977020,848.473206 133.977020,965.046204 133.977020,1081.638672 
	C447.021545,1081.638672 759.367371,1081.638672 1071.988525,1081.638672 
	C1071.988525,1079.459595 1071.988525,1077.644653 1071.988525,1075.829712 
	C1071.987183,866.029724 1071.986694,656.229736 1071.972778,446.429718 
	C1071.972656,444.272736 1071.794434,442.115784 1072.166138,439.233032 
	C1072.442871,437.488953 1072.959717,435.745087 1072.961304,434.000763 
	C1073.006104,385.709808 1073.007935,337.418823 1072.961182,289.127869 
	C1072.959473,287.401062 1072.392700,285.674774 1072.070679,283.206360 
z"/>
<path fill="#00C0D5" opacity="1.000000" stroke="none" 
	d="
M1071.699341,439.958801 
	C1071.794434,442.115784 1071.972656,444.272736 1071.972778,446.429718 
	C1071.986694,656.229736 1071.987183,866.029724 1071.988525,1075.829712 
	C1071.988525,1077.644653 1071.988525,1079.459595 1071.988525,1081.638672 
	C759.367371,1081.638672 447.021545,1081.638672 133.977020,1081.638672 
	C133.977020,965.046204 133.977020,848.473206 134.449478,731.446411 
	C145.869217,727.738403 156.831329,724.533325 167.760834,721.220520 
	C194.675858,713.062439 221.610870,704.967529 248.470291,696.629639 
	C267.938293,690.586304 287.269836,684.104614 306.715546,677.987915 
	C321.211365,673.428101 335.801758,669.169983 350.332764,664.721008 
	C364.249512,660.460083 378.154694,656.160828 392.045013,651.814575 
	C405.018311,647.755188 417.976196,643.645630 430.921051,639.496338 
	C443.531586,635.454163 456.075531,631.199768 468.723511,627.279846 
	C486.094635,621.896118 503.569031,616.845581 520.939392,611.459473 
	C543.721741,604.395325 566.436035,597.111633 589.198425,589.982666 
	C605.468323,584.887024 621.788635,579.952026 638.051208,574.833252 
	C655.592102,569.311951 673.062805,563.566895 690.617432,558.090332 
	C708.738159,552.437134 726.952209,547.083069 745.070251,541.421570 
	C758.683777,537.167603 772.168701,532.501770 785.785278,528.257935 
	C804.274170,522.495483 822.848328,517.007202 841.359192,511.314331 
	C856.672974,506.604645 871.931885,501.716370 887.244263,497.002014 
	C906.566101,491.053284 925.956970,485.326080 945.244324,479.268860 
	C961.906616,474.036011 978.437195,468.385071 995.080383,463.089966 
	C1006.767700,459.371674 1018.541626,455.924622 1030.285645,452.385498 
	C1044.085205,448.226898 1057.894409,444.099670 1071.699341,439.958801 
z"/>
<path fill="#00C0D5" opacity="1.000000" stroke="none" 
	d="
M1071.814941,128.972961 
	C1071.872803,148.585739 1071.966309,168.198502 1071.980225,187.811310 
	C1072.002075,218.566284 1071.970215,249.321304 1071.613281,280.579010 
	C1071.176880,282.066437 1071.088501,283.051147 1070.675171,284.191528 
	C1069.809204,284.735626 1069.322388,285.301697 1068.718994,285.486176 
	C1056.026733,289.367645 1043.280884,293.078705 1030.627930,297.083313 
	C1012.388000,302.856262 994.243103,308.929352 976.001099,314.695435 
	C963.686401,318.587952 951.260315,322.126312 938.908630,325.903412 
	C909.163513,334.999329 879.407166,344.059967 849.705872,353.297241 
	C831.681091,358.903046 813.778076,364.899292 795.769348,370.557709 
	C779.675415,375.614563 763.498962,380.407990 747.382446,385.393707 
	C734.742798,389.303833 722.148254,393.359406 709.517090,397.297089 
	C695.592468,401.637970 681.622375,405.834198 667.720886,410.247223 
	C652.606384,415.045288 637.589233,420.152161 622.453674,424.880981 
	C607.302917,429.614594 592.015808,433.911499 576.865601,438.646820 
	C557.884277,444.579651 539.017029,450.877289 520.035400,456.809052 
	C500.135376,463.027863 480.129211,468.906799 460.223450,475.107605 
	C442.665680,480.576935 425.211823,486.379517 407.658081,491.862030 
	C389.193970,497.628845 370.640320,503.109039 352.173981,508.868896 
	C338.875153,513.017029 325.691864,517.535828 312.391449,521.678589 
	C293.738678,527.488525 275.010590,533.056274 256.343781,538.821899 
	C247.992554,541.401306 239.739929,544.299438 231.393555,546.895325 
	C214.775238,552.063965 198.112625,557.090088 181.487747,562.237915 
	C165.697525,567.127197 149.932129,572.096680 134.155807,577.030884 
	C134.115158,576.852478 134.074524,576.674011 134.360275,575.912537 
	C134.791092,573.343689 134.986786,571.357910 134.986984,569.372131 
	C135.001236,424.873596 135.000000,280.375061 135.000000,135.876541 
	C135.000000,132.428864 135.000000,128.981186 135.000000,125.000000 
	C137.374359,125.000000 139.170242,125.000000 140.966141,125.000000 
	C447.463013,125.000000 753.959900,124.996353 1060.456787,125.075706 
	C1062.545166,125.076248 1064.633301,126.221741 1067.489380,127.057175 
	C1067.666992,126.888809 1068.714722,125.895706 1069.824585,124.843842 
	C1070.650269,126.556793 1071.232544,127.764885 1071.814941,128.972961 
z"/>
<path fill="#02E4FD" opacity="1.000000" stroke="none" 
	d="
M134.083252,577.492615 
	C149.932129,572.096680 165.697525,567.127197 181.487747,562.237915 
	C198.112625,557.090088 214.775238,552.063965 231.393555,546.895325 
	C239.739929,544.299438 247.992554,541.401306 256.343781,538.821899 
	C275.010590,533.056274 293.738678,527.488525 312.391449,521.678589 
	C325.691864,517.535828 338.875153,513.017029 352.173981,508.868896 
	C370.640320,503.109039 389.193970,497.628845 407.658081,491.862030 
	C425.211823,486.379517 442.665680,480.576935 460.223450,475.107605 
	C480.129211,468.906799 500.135376,463.027863 520.035400,456.809052 
	C539.017029,450.877289 557.884277,444.579651 576.865601,438.646820 
	C592.015808,433.911499 607.302917,429.614594 622.453674,424.880981 
	C637.589233,420.152161 652.606384,415.045288 667.720886,410.247223 
	C681.622375,405.834198 695.592468,401.637970 709.517090,397.297089 
	C722.148254,393.359406 734.742798,389.303833 747.382446,385.393707 
	C763.498962,380.407990 779.675415,375.614563 795.769348,370.557709 
	C813.778076,364.899292 831.681091,358.903046 849.705872,353.297241 
	C879.407166,344.059967 909.163513,334.999329 938.908630,325.903412 
	C951.260315,322.126312 963.686401,318.587952 976.001099,314.695435 
	C994.243103,308.929352 1012.388000,302.856262 1030.627930,297.083313 
	C1043.280884,293.078705 1056.026733,289.367645 1068.718994,285.486176 
	C1069.322388,285.301697 1069.809204,284.735626 1070.948975,284.188110 
	C1071.728027,284.002075 1071.908569,283.975159 1072.089233,283.948212 
	C1072.392700,285.674774 1072.959473,287.401062 1072.961182,289.127869 
	C1073.007935,337.418823 1073.006104,385.709808 1072.961304,434.000763 
	C1072.959717,435.745087 1072.442871,437.488953 1071.932739,439.595886 
	C1057.894409,444.099670 1044.085205,448.226898 1030.285645,452.385498 
	C1018.541626,455.924622 1006.767700,459.371674 995.080383,463.089966 
	C978.437195,468.385071 961.906616,474.036011 945.244324,479.268860 
	C925.956970,485.326080 906.566101,491.053284 887.244263,497.002014 
	C871.931885,501.716370 856.672974,506.604645 841.359192,511.314331 
	C822.848328,517.007202 804.274170,522.495483 785.785278,528.257935 
	C772.168701,532.501770 758.683777,537.167603 745.070251,541.421570 
	C726.952209,547.083069 708.738159,552.437134 690.617432,558.090332 
	C673.062805,563.566895 655.592102,569.311951 638.051208,574.833252 
	C621.788635,579.952026 605.468323,584.887024 589.198425,589.982666 
	C566.436035,597.111633 543.721741,604.395325 520.939392,611.459473 
	C503.569031,616.845581 486.094635,621.896118 468.723511,627.279846 
	C456.075531,631.199768 443.531586,635.454163 430.921051,639.496338 
	C417.976196,643.645630 405.018311,647.755188 392.045013,651.814575 
	C378.154694,656.160828 364.249512,660.460083 350.332764,664.721008 
	C335.801758,669.169983 321.211365,673.428101 306.715546,677.987915 
	C287.269836,684.104614 267.938293,690.586304 248.470291,696.629639 
	C221.610870,704.967529 194.675858,713.062439 167.760834,721.220520 
	C156.831329,724.533325 145.869217,727.738403 134.530136,730.982056 
	C134.089798,698.408752 134.029846,665.845825 133.997116,633.282959 
	C133.978577,614.840088 134.004684,596.397217 134.083252,577.492615 
z"/>
<path fill="#00C0D5" opacity="1.000000" stroke="none" 
	d="
M1071.884766,128.538849 
	C1071.232544,127.764885 1070.650269,126.556793 1069.824585,124.843842 
	C1068.714722,125.895706 1067.666992,126.888809 1067.489380,127.057175 
	C1064.633301,126.221741 1062.545166,125.076248 1060.456787,125.075706 
	C753.959900,124.996353 447.463013,125.000000 140.966141,125.000000 
	C139.170242,125.000000 137.374359,125.000000 135.000000,125.000000 
	C135.000000,128.981186 135.000000,132.428864 135.000000,135.876541 
	C135.000000,280.375061 135.001236,424.873596 134.986984,569.372131 
	C134.986786,571.357910 134.791092,573.343689 134.423950,575.645508 
	C134.103882,574.299133 133.996323,572.636841 133.996231,570.974487 
	C133.988525,424.678833 133.989075,278.383179 133.989075,132.087509 
	C133.989075,129.615692 133.989075,127.143875 133.989075,124.336967 
	C446.726288,124.336967 759.048035,124.336967 1071.776367,124.336967 
	C1071.834961,125.578262 1071.894775,126.841492 1071.884766,128.538849 
z"/>
<path fill="#00C0D5" opacity="1.000000" stroke="none" 
	d="
M1072.079956,283.577271 
	C1071.908569,283.975159 1071.728027,284.002075 1071.273926,284.032410 
	C1071.088501,283.051147 1071.176880,282.066437 1071.534668,281.041870 
	C1071.892944,281.736816 1071.981812,282.471588 1072.079956,283.577271 
z"/>
</svg>