<svg version="1.1" id="Layer_1" xmlns="http://www.w3.org/2000/svg" xmlns:xlink="http://www.w3.org/1999/xlink" x="0px" y="0px"
	 width="100%" viewBox="0 0 1204 1204" enable-background="new 0 0 1204 1204" xml:space="preserve">
<path fill="#FEFEFE" opacity="1.000000" stroke="none" 
	d="
M1204.000000,0.999979 
	C1204.333374,1.166626 1204.943726,1.315892 1204.955566,1.502750 
	C1205.038940,2.830884 1205.000000,4.166667 1205.000000,5.500000 
	C1205.000000,405.333344 1205.000000,805.166687 1205.000000,1205.000000 
	C803.666687,1205.000000 402.333344,1205.000000 1.000000,1205.000000 
	C1.000000,803.666687 1.000000,402.333344 1.509934,1.301352 
	C2.057760,1.800111 2.095653,1.997517 2.082071,2.648703 
	C2.018116,3.435301 1.994699,3.768119 1.994696,4.100937 
	C1.992292,402.402649 1.991442,800.704407 1.990605,1199.006104 
	C1.990602,1200.586670 1.990603,1202.167236 1.990603,1203.740967 
	C403.031555,1203.740967 803.265625,1203.740967 1204.008423,1203.740967 
	C1204.008423,1201.529297 1204.008423,1199.571045 1204.008423,1197.612915 
	C1204.008423,802.644165 1204.008789,407.675385 1204.002075,12.706618 
	C1204.001953,9.209703 1203.904297,5.712791 1203.902100,1.913480 
	C1203.967896,1.407387 1203.984009,1.203694 1204.000000,0.999979 
z"/>
<path fill="#C2C2C2" opacity="1.000000" stroke="none" 
	d="
M1203.549072,1.000000 
	C1203.984009,1.203694 1203.967896,1.407387 1203.447266,1.844027 
	C1201.110840,2.044295 1199.279175,1.983004 1197.447510,1.982983 
	C801.338867,1.978369 405.230225,1.977689 9.121559,1.986593 
	C6.792220,1.986645 4.462883,2.122490 2.133546,2.194924 
	C2.095653,1.997517 2.057760,1.800111 2.009933,1.301352 
	C402.366058,1.000000 802.732117,1.000000 1203.549072,1.000000 
z"/>
<path fill="#050505" opacity="1.000000" stroke="none" 
	d="
M2.082071,2.648703 
	C4.462883,2.122490 6.792220,1.986645 9.121559,1.986593 
	C405.230225,1.977689 801.338867,1.978369 1197.447510,1.982983 
	C1199.279175,1.983004 1201.110840,2.044295 1203.397461,2.146426 
	C1203.904297,5.712791 1204.001953,9.209703 1204.002075,12.706618 
	C1204.008789,407.675385 1204.008423,802.644165 1204.008423,1197.612915 
	C1204.008423,1199.571045 1204.008423,1201.529297 1204.008423,1203.740967 
	C803.265625,1203.740967 403.031555,1203.740967 1.990603,1203.740967 
	C1.990603,1202.167236 1.990602,1200.586670 1.990605,1199.006104 
	C1.991442,800.704407 1.992292,402.402649 1.994696,4.100937 
	C1.994699,3.768119 2.018116,3.435301 2.082071,2.648703 
M348.500000,3.962494 
	C233.880890,3.962494 119.261780,3.962494 4.521342,3.962494 
	C4.521342,403.484161 4.521342,802.633057 4.521342,1201.675049 
	C403.812744,1201.675049 802.705383,1201.675049 1201.638184,1201.675049 
	C1201.638184,802.347046 1201.638184,403.315369 1201.638184,3.962479 
	C917.389160,3.962479 633.444580,3.962479 348.500000,3.962494 
z"/>
<path fill="#ADADAD" opacity="1.000000" stroke="none" 
	d="
M349.000000,3.962487 
	C633.444580,3.962479 917.389160,3.962479 1201.638184,3.962479 
	C1201.638184,403.315369 1201.638184,802.347046 1201.638184,1201.675049 
	C802.705383,1201.675049 403.812744,1201.675049 4.521342,1201.675049 
	C4.521342,802.633057 4.521342,403.484161 4.521342,3.962494 
	C119.261780,3.962494 233.880890,3.962494 349.000000,3.962487 
M1199.019531,202.500000 
	C1199.020020,138.841019 1198.979004,75.181938 1199.113403,11.523230 
	C1199.122437,7.212470 1198.134766,5.752079 1193.602539,5.864729 
	C1171.818848,6.406166 1150.026733,6.905475 1128.237915,6.890001 
	C756.818542,6.626221 385.399200,6.283816 13.979836,5.959025 
	C11.531500,5.956884 9.083161,5.958759 6.007764,5.958759 
	C6.007764,8.362503 6.007764,10.142306 6.007766,11.922110 
	C6.008123,405.214630 6.008317,798.507141 6.010176,1191.799683 
	C6.010209,1198.885864 6.157488,1199.041138 13.336002,1199.041260 
	C406.628510,1199.043823 799.921021,1199.036499 1193.213501,1199.127808 
	C1197.640747,1199.128784 1199.146729,1198.175171 1199.144897,1193.397217 
	C1199.020264,863.431458 1199.025269,533.465759 1199.019531,202.500000 
z"/>
<path fill="#D8D8D8" opacity="1.000000" stroke="none" 
	d="
M1199.019531,203.000000 
	C1199.025269,533.465759 1199.020264,863.431458 1199.144897,1193.397217 
	C1199.146729,1198.175171 1197.640747,1199.128784 1193.213501,1199.127808 
	C799.921021,1199.036499 406.628510,1199.043823 13.336002,1199.041260 
	C6.157488,1199.041138 6.010209,1198.885864 6.010176,1191.799683 
	C6.008317,798.507141 6.008123,405.214630 6.007766,11.922110 
	C6.007764,10.142306 6.007764,8.362503 6.007764,5.958759 
	C9.083161,5.958759 11.531500,5.956884 13.979836,5.959025 
	C385.399200,6.283816 756.818542,6.626221 1128.237915,6.890001 
	C1150.026733,6.905475 1171.818848,6.406166 1193.602539,5.864729 
	C1198.134766,5.752079 1199.122437,7.212470 1199.113403,11.523230 
	C1198.979004,75.181938 1199.020020,138.841019 1199.019531,203.000000 
M1144.799438,1143.883179 
	C1145.198120,1141.874634 1145.945679,1139.866211 1145.946045,1137.857666 
	C1145.997192,780.702087 1145.995117,423.546448 1145.995239,66.390854 
	C1145.995239,65.224228 1145.901978,64.047897 1146.017822,62.892735 
	C1146.396851,59.118038 1144.593140,57.846951 1141.006348,58.025074 
	C1132.383545,58.453300 1123.752930,59.011589 1115.125366,59.012802 
	C766.636108,59.061756 418.146881,59.054581 69.657654,59.054562 
	C58.067970,59.054562 58.066879,59.054459 58.066875,70.696945 
	C58.066681,424.352661 58.066715,778.008362 58.066715,1131.664062 
	C58.066715,1136.253662 58.066715,1140.843262 58.066715,1146.022949 
	C61.436474,1146.022949 64.232323,1146.022949 67.028175,1146.022949 
	C419.183960,1146.022705 771.339722,1146.022339 1123.495483,1146.022827 
	C1126.661987,1146.022827 1129.844604,1146.223999 1132.987427,1145.954224 
	C1134.377686,1145.834717 1135.686890,1144.771851 1137.894043,1144.031616 
	C1139.924316,1144.018433 1141.954590,1144.005371 1144.799438,1143.883179 
z"/>
<path fill="#0C0C0C" opacity="1.000000" stroke="none" 
	d="
M1143.984863,1143.992310 
	C1141.954590,1144.005371 1139.924316,1144.018433 1136.996704,1144.018799 
	C1134.100952,1144.029663 1132.102417,1144.074341 1130.104004,1144.074341 
	C775.285950,1144.078857 420.467957,1144.080566 65.649933,1144.071289 
	C64.560066,1144.071289 63.470207,1143.912109 62.402187,1143.829102 
	C62.402187,783.048828 62.402187,422.640991 62.402187,62.036850 
	C423.033295,62.036850 783.443848,62.036850 1144.106934,62.036850 
	C1144.106934,63.978230 1144.106812,65.768150 1144.106812,67.558067 
	C1144.107422,422.543762 1144.108643,777.529419 1144.103760,1132.515137 
	C1144.103760,1136.340820 1144.026123,1140.166626 1143.984863,1143.992310 
M579.129822,1082.950684 
	C579.129822,1082.950684 579.227234,1083.015869 579.979065,1082.779541 
	C580.319397,1080.739746 580.957275,1078.700195 580.957764,1076.660278 
	C581.003784,874.111572 581.001648,671.562866 581.002441,469.014160 
	C581.002441,466.182495 581.181702,463.334167 580.920349,460.526886 
	C580.807190,459.311615 579.785767,458.180908 579.021118,456.084625 
	C579.076477,448.385101 579.131897,440.685608 579.927124,432.793396 
	C581.214050,429.733124 582.436646,426.678284 579.029724,423.112244 
	C579.077271,420.404449 579.124817,417.696655 579.860046,414.840424 
	C581.649536,412.944580 581.899963,411.266693 579.024902,409.255402 
	C579.073914,408.490997 579.122925,407.726593 579.693970,406.327209 
	C579.796753,397.615784 579.979126,388.904205 579.959412,380.193054 
	C579.952515,377.140778 579.448914,374.089600 579.019348,370.121399 
	C579.070312,366.401642 579.121216,362.681915 579.694031,358.327087 
	C579.785828,336.483826 579.883850,314.640533 579.935669,292.797180 
	C579.937073,292.211365 579.438232,291.624359 579.016113,290.303558 
	C578.952637,289.805847 578.889160,289.308105 578.970703,287.907440 
	C578.976562,240.259979 578.976074,192.612518 578.997192,144.965057 
	C578.999573,139.639008 579.125122,134.313004 579.890686,128.825348 
	C579.643921,126.226929 579.397156,123.628517 579.121582,120.492561 
	C579.075989,120.319008 579.030457,120.145454 578.986511,119.038116 
	C578.986511,101.120682 578.986511,83.203247 578.986511,65.395828 
	C407.660156,65.395828 236.912430,65.395828 66.155174,65.395828 
	C66.155174,423.985291 66.155174,782.199646 66.155174,1140.539551 
	C237.195648,1140.539551 407.925049,1140.539551 579.033813,1140.539551 
	C579.033813,1122.145630 579.033813,1104.015137 578.997375,1085.333862 
	C579.003235,1084.965942 579.009094,1084.598145 579.123047,1083.639526 
	C579.101074,1083.440552 579.079102,1083.241577 579.129822,1082.950684 
M584.140076,490.170532 
	C582.663757,492.319763 581.700623,494.406738 584.995483,496.922791 
	C584.995483,711.485168 584.995483,926.047546 584.995483,1140.481201 
	C770.630066,1140.481201 955.533569,1140.481201 1140.481445,1140.481201 
	C1140.481445,781.945129 1140.481445,423.736633 1140.481445,65.417435 
	C955.232727,65.417435 770.319580,65.417435 584.851440,65.417435 
	C584.851440,82.763908 584.851440,99.883026 584.286011,117.086334 
	C583.989075,117.405128 583.692200,117.723923 583.395264,118.042717 
	C583.879822,118.361122 584.364441,118.679520 585.004028,119.924141 
	C585.007568,218.958405 585.012390,317.992645 585.007385,417.026917 
	C585.007263,419.685669 584.900879,422.344452 584.110352,425.189850 
	C582.661804,427.952148 581.533264,430.684174 585.005005,433.922058 
	C584.952087,452.616516 584.899170,471.311005 584.140076,490.170532 
z"/>
<path fill="#B2B2B2" opacity="1.000000" stroke="none" 
	d="
M1144.392090,1143.937744 
	C1144.026123,1140.166626 1144.103760,1136.340820 1144.103760,1132.515137 
	C1144.108643,777.529419 1144.107422,422.543762 1144.106812,67.558067 
	C1144.106812,65.768150 1144.106934,63.978230 1144.106934,62.036850 
	C783.443848,62.036850 423.033295,62.036850 62.402187,62.036850 
	C62.402187,422.640991 62.402187,783.048828 62.402187,1143.829102 
	C63.470207,1143.912109 64.560066,1144.071289 65.649933,1144.071289 
	C420.467957,1144.080566 775.285950,1144.078857 1130.104004,1144.074341 
	C1132.102417,1144.074341 1134.100952,1144.029663 1136.566162,1144.071533 
	C1135.686890,1144.771851 1134.377686,1145.834717 1132.987427,1145.954224 
	C1129.844604,1146.223999 1126.661987,1146.022827 1123.495483,1146.022827 
	C771.339722,1146.022339 419.183960,1146.022705 67.028175,1146.022949 
	C64.232323,1146.022949 61.436474,1146.022949 58.066715,1146.022949 
	C58.066715,1140.843262 58.066715,1136.253662 58.066715,1131.664062 
	C58.066715,778.008362 58.066681,424.352661 58.066875,70.696945 
	C58.066879,59.054459 58.067970,59.054562 69.657654,59.054562 
	C418.146881,59.054581 766.636108,59.061756 1115.125366,59.012802 
	C1123.752930,59.011589 1132.383545,58.453300 1141.006348,58.025074 
	C1144.593140,57.846951 1146.396851,59.118038 1146.017822,62.892735 
	C1145.901978,64.047897 1145.995239,65.224228 1145.995239,66.390854 
	C1145.995117,423.546448 1145.997192,780.702087 1145.946045,1137.857666 
	C1145.945679,1139.866211 1145.198120,1141.874634 1144.392090,1143.937744 
z"/>
<path fill="#01BFD5" opacity="1.000000" stroke="none" 
	d="
M579.187256,432.986084 
	C579.131897,440.685608 579.076477,448.385101 579.019897,457.009827 
	C579.008484,459.433960 578.989197,460.932953 578.989380,462.431915 
	C579.016296,635.486938 579.037415,808.541931 579.079163,981.596985 
	C579.087280,1015.403259 579.175781,1049.209595 579.227234,1083.015869 
	C579.227234,1083.015869 579.129822,1082.950684 578.627991,1083.095947 
	C575.795471,1083.290649 573.464783,1083.383179 571.134094,1083.383301 
	C430.982666,1083.390137 290.831268,1083.393677 150.679840,1083.371582 
	C145.867126,1083.370728 141.054459,1083.106201 136.068451,1082.737305 
	C135.608475,1082.259399 135.321793,1082.008911 134.952484,1081.642212 
	C134.869858,1081.526001 134.973038,1081.260254 134.967438,1080.775391 
	C134.963318,984.998535 134.965225,889.706665 134.966110,794.414795 
	C134.966537,748.934570 134.983200,703.454407 134.925674,657.974243 
	C134.921616,654.761353 135.303375,652.256287 138.635345,650.606506 
	C147.992538,645.973389 157.187164,641.013489 166.489746,636.268433 
	C187.895081,625.349854 209.349838,614.528137 230.740601,603.581238 
	C251.851700,592.777344 272.885773,581.822815 293.995819,571.016846 
	C314.978577,560.275940 336.039032,549.686890 357.018616,538.939819 
	C376.403625,529.009644 395.715515,518.936707 415.080200,508.966766 
	C432.438202,500.029907 449.824402,491.147919 467.197845,482.241028 
	C478.551605,476.420227 489.901886,470.592682 501.258942,464.778381 
	C512.766724,458.886841 524.289307,453.024261 535.790100,447.119110 
	C549.235352,440.215546 562.653137,433.258179 576.134888,426.426880 
	C576.749023,426.115692 577.874939,426.814423 578.854004,427.457458 
	C579.026123,429.576782 579.106689,431.281433 579.187256,432.986084 
z"/>
<path fill="#FEFEFE" opacity="1.000000" stroke="none" 
	d="
M584.844116,425.003204 
	C584.900879,422.344452 585.007263,419.685669 585.007385,417.026917 
	C585.012390,317.992645 585.007568,218.958405 585.000610,119.131210 
	C584.948669,117.892899 584.900024,117.447525 584.851440,117.002144 
	C584.851440,99.883026 584.851440,82.763908 584.851440,65.417435 
	C770.319580,65.417435 955.232727,65.417435 1140.481445,65.417435 
	C1140.481445,423.736633 1140.481445,781.945129 1140.481445,1140.481201 
	C955.533569,1140.481201 770.630066,1140.481201 584.995483,1140.481201 
	C584.995483,926.047546 584.995483,711.485168 584.994141,496.035828 
	C584.944031,493.434418 584.895142,491.719940 584.846252,490.005463 
	C584.899170,471.311005 584.952087,452.616516 584.999634,433.019836 
	C584.944275,429.746124 584.894165,427.374664 584.844116,425.003204 
M1075.635864,724.500183 
	C1075.635864,522.735291 1075.635864,320.970367 1075.635864,118.972649 
	C924.374756,118.972649 773.634460,118.972649 622.623718,118.972649 
	C622.623718,441.734833 622.623718,764.270081 622.623718,1087.039307 
	C773.626892,1087.039307 924.364258,1087.039307 1075.635864,1087.039307 
	C1075.635864,966.375183 1075.635864,845.937744 1075.635864,724.500183 
z"/>
<path fill="#02BFD5" opacity="1.000000" stroke="none" 
	d="
M579.193481,128.986984 
	C579.125122,134.313004 578.999573,139.639008 578.997192,144.965057 
	C578.976074,192.612518 578.976562,240.259979 578.533813,288.412354 
	C577.158264,289.239502 576.165405,289.455017 575.288818,289.899628 
	C554.101318,300.646454 532.900818,311.368042 511.756897,322.199951 
	C494.453278,331.064484 477.231995,340.089508 459.950073,348.996490 
	C450.953552,353.633240 441.884064,358.128265 432.884521,362.759247 
	C418.729034,370.043427 404.638733,377.454926 390.457886,384.689026 
	C376.008392,392.060242 361.440826,399.200378 347.003906,406.595795 
	C335.650970,412.411499 324.466766,418.556396 313.119812,424.384094 
	C298.340851,431.974457 283.465363,439.376648 268.649994,446.896484 
	C258.591156,452.002045 248.565125,457.172150 238.522888,462.310486 
	C222.711288,470.400879 206.898148,478.488281 191.086136,486.577881 
	C175.133667,494.739319 159.187820,502.913757 143.223114,511.051208 
	C140.857132,512.257141 138.403397,513.291016 134.955933,514.881714 
	C134.955933,511.378296 134.955887,509.256805 134.955948,507.135315 
	C134.959091,383.312286 134.963272,259.489227 134.959427,135.666199 
	C134.959335,132.667419 134.870026,129.668640 134.743988,126.309799 
	C134.578079,124.961884 134.490509,123.974045 134.544037,122.855576 
	C134.685120,122.724945 134.912460,122.414825 135.144806,122.492355 
	C135.720963,122.508743 135.990494,122.333344 136.641998,122.072502 
	C284.175018,122.101311 431.251770,122.101311 578.625977,122.101311 
	C578.845154,124.760567 579.019348,126.873772 579.193481,128.986984 
z"/>
<path fill="#FEFEFE" opacity="1.000000" stroke="none" 
	d="
M579.033813,1085.884766 
	C579.033813,1104.015137 579.033813,1122.145630 579.033813,1140.539551 
	C407.925049,1140.539551 237.195648,1140.539551 66.155174,1140.539551 
	C66.155174,782.199646 66.155174,423.985291 66.155174,65.395828 
	C236.912430,65.395828 407.660156,65.395828 578.986511,65.395828 
	C578.986511,83.203247 578.986511,101.120682 578.776001,119.655624 
	C578.262756,120.422646 577.960022,120.572151 577.221558,120.617134 
	C431.005585,120.502586 285.225281,120.492119 139.444977,120.490837 
	C138.283936,120.490822 137.122910,120.615990 135.762085,120.506447 
	C135.241104,120.433594 134.919891,120.537010 134.226105,120.642410 
	C133.393433,121.923790 132.604691,123.185799 132.535950,124.485886 
	C132.342651,128.141769 132.433426,131.813309 132.433746,135.478683 
	C132.445419,266.295654 132.469437,397.112610 132.470993,527.929565 
	C132.473175,711.239990 132.458862,894.550415 132.451645,1077.860840 
	C132.451553,1080.288940 132.451630,1082.717163 132.451630,1085.546753 
	C135.842957,1085.546753 138.484528,1085.546631 141.126083,1085.546753 
	C285.108398,1085.553833 429.090698,1085.559570 573.072998,1085.581177 
	C575.059937,1085.581543 577.046875,1085.779175 579.033813,1085.884766 
z"/>
<path fill="#55D1E3" opacity="1.000000" stroke="none" 
	d="
M134.822327,126.669868 
	C134.870026,129.668640 134.959335,132.667419 134.959427,135.666199 
	C134.963272,259.489227 134.959091,383.312286 134.955948,507.135315 
	C134.955887,509.256805 134.955933,511.378296 134.955933,514.881714 
	C138.403397,513.291016 140.857132,512.257141 143.223114,511.051208 
	C159.187820,502.913757 175.133667,494.739319 191.086136,486.577881 
	C206.898148,478.488281 222.711288,470.400879 238.522888,462.310486 
	C248.565125,457.172150 258.591156,452.002045 268.649994,446.896484 
	C283.465363,439.376648 298.340851,431.974457 313.119812,424.384094 
	C324.466766,418.556396 335.650970,412.411499 347.003906,406.595795 
	C361.440826,399.200378 376.008392,392.060242 390.457886,384.689026 
	C404.638733,377.454926 418.729034,370.043427 432.884521,362.759247 
	C441.884064,358.128265 450.953552,353.633240 459.950073,348.996490 
	C477.231995,340.089508 494.453278,331.064484 511.756897,322.199951 
	C532.900818,311.368042 554.101318,300.646454 575.288818,289.899628 
	C576.165405,289.455017 577.158264,289.239502 578.461304,288.863831 
	C578.889160,289.308105 578.952637,289.805847 579.020874,291.131470 
	C579.074463,314.293671 579.123291,336.627899 579.172119,358.962158 
	C579.121216,362.681915 579.070312,366.401642 579.022461,371.040466 
	C579.074341,383.627075 579.123169,395.294647 579.171997,406.962189 
	C579.122925,407.726593 579.073914,408.490997 579.029175,410.043518 
	C579.079834,412.217377 579.126160,413.603119 579.172485,414.988861 
	C579.124817,417.696655 579.077271,420.404449 579.025391,423.932678 
	C578.934814,425.516357 578.848633,426.279541 578.762451,427.042755 
	C577.874939,426.814423 576.749023,426.115692 576.134888,426.426880 
	C562.653137,433.258179 549.235352,440.215546 535.790100,447.119110 
	C524.289307,453.024261 512.766724,458.886841 501.258942,464.778381 
	C489.901886,470.592682 478.551605,476.420227 467.197845,482.241028 
	C449.824402,491.147919 432.438202,500.029907 415.080200,508.966766 
	C395.715515,518.936707 376.403625,529.009644 357.018616,538.939819 
	C336.039032,549.686890 314.978577,560.275940 293.995819,571.016846 
	C272.885773,581.822815 251.851700,592.777344 230.740601,603.581238 
	C209.349838,614.528137 187.895081,625.349854 166.489746,636.268433 
	C157.187164,641.013489 147.992538,645.973389 138.635345,650.606506 
	C135.303375,652.256287 134.921616,654.761353 134.925674,657.974243 
	C134.983200,703.454407 134.966537,748.934570 134.966110,794.414795 
	C134.965225,889.706665 134.963318,984.998535 134.744400,1080.708008 
	C134.526962,1081.125732 134.098709,1080.945190 134.133331,1080.480957 
	C134.179062,888.617676 134.193512,697.218445 134.200150,505.819275 
	C134.204422,382.216248 134.197922,258.613220 134.191040,135.010178 
	C134.190887,132.345749 134.128098,129.681335 134.274323,126.925652 
	C134.454147,126.834396 134.822327,126.669868 134.822327,126.669868 
z"/>
<path fill="#020A0B" opacity="1.000000" stroke="none" 
	d="
M134.094513,127.016907 
	C134.128098,129.681335 134.190887,132.345749 134.191040,135.010178 
	C134.197922,258.613220 134.204422,382.216248 134.200150,505.819275 
	C134.193512,697.218445 134.179062,888.617676 134.046356,1080.906982 
	C134.615585,1085.884766 137.882675,1084.096069 139.927643,1084.099487 
	C202.202377,1084.203003 264.477295,1084.172363 326.752197,1084.179443 
	C410.839783,1084.189087 494.927368,1084.212646 579.014954,1084.230225 
	C579.009094,1084.598145 579.003235,1084.965942 579.015625,1085.609375 
	C577.046875,1085.779175 575.059937,1085.581543 573.072998,1085.581177 
	C429.090698,1085.559570 285.108398,1085.553833 141.126083,1085.546753 
	C138.484528,1085.546631 135.842957,1085.546753 132.451630,1085.546753 
	C132.451630,1082.717163 132.451553,1080.288940 132.451645,1077.860840 
	C132.458862,894.550415 132.473175,711.239990 132.470993,527.929565 
	C132.469437,397.112610 132.445419,266.295654 132.433746,135.478683 
	C132.433426,131.813309 132.342651,128.141769 132.535950,124.485886 
	C132.604691,123.185799 133.393433,121.923790 134.432617,120.807999 
	C135.328430,120.875305 135.645142,120.779015 135.961868,120.682724 
	C137.122910,120.615990 138.283936,120.490822 139.444977,120.490837 
	C285.225281,120.492119 431.005585,120.502586 577.575439,120.790405 
	C578.626770,121.055511 578.888550,121.042801 579.150391,121.030098 
	C579.397156,123.628517 579.643921,126.226929 579.542114,128.906158 
	C579.019348,126.873772 578.845154,124.760567 578.625977,122.101311 
	C431.251770,122.101311 284.175018,122.101311 136.405655,122.033432 
	C135.371078,121.981682 135.104218,122.131439 134.912460,122.414825 
	C134.912460,122.414825 134.685120,122.724945 134.353027,123.143280 
	C134.045471,124.713371 134.069992,125.865143 134.094513,127.016907 
z"/>
<path fill="#020A0B" opacity="1.000000" stroke="none" 
	d="
M579.603149,1082.897705 
	C579.175781,1049.209595 579.087280,1015.403259 579.079163,981.596985 
	C579.037415,808.541931 579.016296,635.486938 578.989380,462.431915 
	C578.989197,460.932953 579.008484,459.433960 579.097778,457.473389 
	C579.785767,458.180908 580.807190,459.311615 580.920349,460.526886 
	C581.181702,463.334167 581.002441,466.182495 581.002441,469.014160 
	C581.001648,671.562866 581.003784,874.111572 580.957764,1076.660278 
	C580.957275,1078.700195 580.319397,1080.739746 579.603149,1082.897705 
z"/>
<path fill="#363F40" opacity="1.000000" stroke="none" 
	d="
M579.068970,1083.934814 
	C494.927368,1084.212646 410.839783,1084.189087 326.752197,1084.179443 
	C264.477295,1084.172363 202.202377,1084.203003 139.927643,1084.099487 
	C137.882675,1084.096069 134.615585,1085.884766 134.011749,1081.371094 
	C134.098709,1080.945190 134.526962,1081.125732 134.750000,1081.192993 
	C134.973038,1081.260254 134.869858,1081.526001 134.978271,1081.982178 
	C135.471710,1082.613892 135.856735,1082.789185 136.241760,1082.964600 
	C141.054459,1083.106201 145.867126,1083.370728 150.679840,1083.371582 
	C290.831268,1083.393677 430.982666,1083.390137 571.134094,1083.383301 
	C573.464783,1083.383179 575.795471,1083.290649 578.591675,1083.141968 
	C579.079102,1083.241577 579.101074,1083.440552 579.068970,1083.934814 
z"/>
<path fill="#020A0B" opacity="1.000000" stroke="none" 
	d="
M579.433105,358.644623 
	C579.123291,336.627899 579.074463,314.293671 579.099182,291.498657 
	C579.438232,291.624359 579.937073,292.211365 579.935669,292.797180 
	C579.883850,314.640533 579.785828,336.483826 579.433105,358.644623 
z"/>
<path fill="#020A0B" opacity="1.000000" stroke="none" 
	d="
M579.432983,406.644714 
	C579.123169,395.294647 579.074341,383.627075 579.098877,371.498718 
	C579.448914,374.089600 579.952515,377.140778 579.959412,380.193054 
	C579.979126,388.904205 579.796753,397.615784 579.432983,406.644714 
z"/>
<path fill="#020A0B" opacity="1.000000" stroke="none" 
	d="
M578.854004,427.457458 
	C578.848633,426.279541 578.934814,425.516357 579.101318,424.378143 
	C582.436646,426.678284 581.214050,429.733124 579.557190,432.889740 
	C579.106689,431.281433 579.026123,429.576782 578.854004,427.457458 
z"/>
<path fill="#020A0B" opacity="1.000000" stroke="none" 
	d="
M584.477234,425.096527 
	C584.894165,427.374664 584.944275,429.746124 584.921631,432.556641 
	C581.533264,430.684174 582.661804,427.952148 584.477234,425.096527 
z"/>
<path fill="#020A0B" opacity="1.000000" stroke="none" 
	d="
M584.493164,490.088013 
	C584.895142,491.719940 584.944031,493.434418 584.919678,495.572144 
	C581.700623,494.406738 582.663757,492.319763 584.493164,490.088013 
z"/>
<path fill="#020A0B" opacity="1.000000" stroke="none" 
	d="
M579.516235,414.914642 
	C579.126160,413.603119 579.079834,412.217377 579.104736,410.420898 
	C581.899963,411.266693 581.649536,412.944580 579.516235,414.914642 
z"/>
<path fill="#020A0B" opacity="1.000000" stroke="none" 
	d="
M584.568726,117.044235 
	C584.900024,117.447525 584.948669,117.892899 584.923096,118.668098 
	C584.364441,118.679520 583.879822,118.361122 583.395264,118.042717 
	C583.692200,117.723923 583.989075,117.405128 584.568726,117.044235 
z"/>
<path fill="#363F40" opacity="1.000000" stroke="none" 
	d="
M579.135986,120.761330 
	C578.888550,121.042801 578.626770,121.055511 578.011108,120.894943 
	C577.960022,120.572151 578.262756,120.422646 578.775208,120.122520 
	C579.030457,120.145454 579.075989,120.319008 579.135986,120.761330 
z"/>
<path fill="#55D1E3" opacity="1.000000" stroke="none" 
	d="
M136.068451,1082.737305 
	C135.856735,1082.789185 135.471710,1082.613892 135.060898,1082.098389 
	C135.321793,1082.008911 135.608475,1082.259399 136.068451,1082.737305 
z"/>
<path fill="#1E2529" opacity="1.000000" stroke="none" 
	d="
M1075.635864,725.000244 
	C1075.635864,845.937744 1075.635864,966.375183 1075.635864,1087.039307 
	C924.364258,1087.039307 773.626892,1087.039307 622.623718,1087.039307 
	C622.623718,764.270081 622.623718,441.734833 622.623718,118.972649 
	C773.634460,118.972649 924.374756,118.972649 1075.635864,118.972649 
	C1075.635864,320.970367 1075.635864,522.735291 1075.635864,725.000244 
M1071.893799,624.159180 
	C1071.917358,590.893005 1071.962402,557.626892 1071.953613,524.360718 
	C1071.950317,511.890442 1071.821289,499.420227 1071.909058,486.031799 
	C1071.909058,364.971832 1071.909058,243.911880 1071.909058,122.576180 
	C1069.529541,122.407188 1067.894287,122.188599 1066.259399,122.189903 
	C1023.934875,122.223663 981.610352,122.319427 939.285828,122.325172 
	C837.304321,122.339020 735.322754,122.312958 633.341248,122.301689 
	C625.397156,122.300812 625.388123,122.296066 625.387756,130.887802 
	C625.379944,323.856232 625.372437,516.824646 625.393250,709.793091 
	C625.393433,711.585266 625.774536,713.377502 625.653015,716.023254 
	C625.619263,755.005066 625.565796,793.986938 625.571594,832.968750 
	C625.572510,839.288879 625.836792,845.609070 625.552795,852.636963 
	C625.494690,854.633362 625.386169,856.629761 625.385925,858.626160 
	C625.380066,917.279663 625.385803,975.933167 625.387512,1034.586670 
	C625.388000,1049.416748 625.473083,1064.247681 625.309509,1079.076050 
	C625.271118,1082.557861 626.461914,1083.912109 629.876953,1083.836548 
	C635.037415,1083.722168 640.202637,1083.826782 645.365845,1083.825562 
	C785.667236,1083.793091 925.968628,1083.733521 1066.269897,1083.834595 
	C1070.977173,1083.838013 1072.070679,1082.520508 1072.066772,1077.976929 
	C1071.942627,931.843140 1071.954956,785.709229 1071.934204,639.575317 
	C1071.933472,634.748779 1071.801758,629.922302 1071.893799,624.159180 
z"/>
<path fill="#363F40" opacity="1.000000" stroke="none" 
	d="
M134.274323,126.925652 
	C134.069992,125.865143 134.045471,124.713371 134.211945,123.273911 
	C134.490509,123.974045 134.578079,124.961884 134.743988,126.309799 
	C134.822327,126.669868 134.454147,126.834396 134.274323,126.925652 
z"/>
<path fill="#363F40" opacity="1.000000" stroke="none" 
	d="
M135.144806,122.492355 
	C135.104218,122.131439 135.371078,121.981682 135.949402,122.004623 
	C135.990494,122.333344 135.720963,122.508743 135.144806,122.492355 
z"/>
<path fill="#363F40" opacity="1.000000" stroke="none" 
	d="
M135.762085,120.506454 
	C135.645142,120.779015 135.328430,120.875305 134.805191,120.806015 
	C134.919891,120.537010 135.241104,120.433594 135.762085,120.506454 
z"/>
<path fill="#02BED4" opacity="1.000000" stroke="none" 
	d="
M625.977783,715.169678 
	C625.774536,713.377502 625.393433,711.585266 625.393250,709.793091 
	C625.372437,516.824646 625.379944,323.856232 625.387756,130.887802 
	C625.388123,122.296066 625.397156,122.300812 633.341248,122.301689 
	C735.322754,122.312958 837.304321,122.339020 939.285828,122.325172 
	C981.610352,122.319427 1023.934875,122.223663 1066.259399,122.189903 
	C1067.894287,122.188599 1069.529541,122.407188 1071.909058,122.576180 
	C1071.909058,243.911880 1071.909058,364.971832 1071.494873,486.557312 
	C1069.806152,487.853210 1068.573486,488.705353 1067.250732,489.381622 
	C1049.382324,498.517395 1031.481079,507.589233 1013.629150,516.757019 
	C994.874451,526.388428 976.185181,536.147339 957.426147,545.770203 
	C946.373657,551.439819 935.207642,556.888123 924.153076,562.553650 
	C910.411743,569.596191 896.758240,576.810059 883.019470,583.857483 
	C870.020020,590.525696 856.932251,597.021545 843.932922,603.689941 
	C830.344788,610.660217 816.847107,617.806946 803.252014,624.763306 
	C790.411438,631.333435 777.454407,637.676270 764.625610,644.268799 
	C753.694641,649.886108 742.925598,655.818542 731.990723,661.427979 
	C715.921448,669.671387 699.762817,677.740417 683.652466,685.903687 
	C664.421936,695.647949 645.202148,705.413391 625.977783,715.169678 
z"/>
<path fill="#54D2E4" opacity="1.000000" stroke="none" 
	d="
M625.815430,715.596436 
	C645.202148,705.413391 664.421936,695.647949 683.652466,685.903687 
	C699.762817,677.740417 715.921448,669.671387 731.990723,661.427979 
	C742.925598,655.818542 753.694641,649.886108 764.625610,644.268799 
	C777.454407,637.676270 790.411438,631.333435 803.252014,624.763306 
	C816.847107,617.806946 830.344788,610.660217 843.932922,603.689941 
	C856.932251,597.021545 870.020020,590.525696 883.019470,583.857483 
	C896.758240,576.810059 910.411743,569.596191 924.153076,562.553650 
	C935.207642,556.888123 946.373657,551.439819 957.426147,545.770203 
	C976.185181,536.147339 994.874451,526.388428 1013.629150,516.757019 
	C1031.481079,507.589233 1049.382324,498.517395 1067.250732,489.381622 
	C1068.573486,488.705353 1069.806152,487.853210 1071.415161,487.016418 
	C1071.821289,499.420227 1071.950317,511.890442 1071.953613,524.360718 
	C1071.962402,557.626892 1071.917358,590.893005 1071.457275,624.611633 
	C1060.311279,630.665588 1049.601807,636.267090 1038.906494,641.879944 
	C1038.920898,641.891296 1038.927246,641.914368 1038.554077,641.917603 
	C1036.941162,642.371094 1035.636353,642.694092 1034.471069,643.290039 
	C1008.183899,656.734558 981.891541,670.169495 955.648621,683.699951 
	C946.683411,688.322266 937.849182,693.198608 928.977600,697.960327 
	C929.000000,697.961609 928.955017,697.940369 928.592346,697.984009 
	C916.656372,703.770874 905.044067,709.437012 893.518860,715.275146 
	C875.051880,724.629822 856.608521,734.032593 838.229919,743.559204 
	C832.680359,746.435791 827.378235,749.789612 821.670715,752.940979 
	C820.893066,753.242004 820.407471,753.526794 819.553711,753.857666 
	C816.196106,755.292786 813.135132,756.547729 810.231445,758.097412 
	C803.087769,761.909973 796.016357,765.858032 788.549561,769.788818 
	C787.454651,769.935730 786.726074,770.045471 785.683533,770.273682 
	C778.202087,774.173218 771.043884,777.971863 763.865417,781.731934 
	C746.697632,790.724487 729.570862,799.797241 712.334290,808.656433 
	C689.526917,820.378723 666.648376,831.963379 643.760193,843.527466 
	C637.911316,846.482483 631.910400,849.136780 625.979370,851.929199 
	C625.836792,845.609070 625.572510,839.288879 625.571594,832.968750 
	C625.565796,793.986938 625.619263,755.005066 625.815430,715.596436 
z"/>
<path fill="#02BED4" opacity="1.000000" stroke="none" 
	d="
M625.766113,852.283081 
	C631.910400,849.136780 637.911316,846.482483 643.760193,843.527466 
	C666.648376,831.963379 689.526917,820.378723 712.334290,808.656433 
	C729.570862,799.797241 746.697632,790.724487 763.865417,781.731934 
	C771.043884,777.971863 778.202087,774.173218 785.682800,770.650024 
	C785.105530,772.059265 784.444336,773.781677 783.279236,774.249756 
	C780.333984,775.433105 778.101746,776.503906 777.799194,780.350464 
	C777.537537,783.675781 772.287354,786.657532 770.305847,784.970825 
	C766.213257,781.487366 763.842346,784.512146 761.083740,786.800537 
	C759.335022,788.251038 757.530029,790.581360 755.620667,790.718994 
	C748.985657,791.197266 744.007935,793.141663 743.556763,800.710632 
	C735.688354,798.418823 735.709839,798.440125 729.422180,804.774414 
	C728.790955,805.410400 727.696777,805.933411 726.821411,805.927246 
	C717.120728,805.859375 711.285095,814.321411 702.669312,816.811401 
	C698.933899,817.890930 695.864258,821.088318 692.243835,822.797729 
	C687.632690,824.974915 681.644348,825.469238 678.280029,828.762939 
	C673.267578,833.670105 664.633728,832.387817 661.481384,839.617981 
	C661.395996,839.813904 660.880371,839.885010 660.558350,839.905823 
	C650.471436,840.559082 642.743713,846.251709 635.172302,852.076599 
	C633.949951,853.017029 633.820618,855.378052 633.186035,857.082397 
	C634.573059,857.421570 635.956055,857.778320 637.348633,858.092834 
	C638.112183,858.265320 638.891846,858.366394 639.664246,858.499695 
	C639.861328,858.916931 640.058411,859.334229 640.255493,859.751465 
	C638.989258,860.504272 637.803040,861.648499 636.439941,861.927063 
	C633.728333,862.481140 633.833801,863.634705 634.722229,865.801880 
	C635.745178,868.296936 636.901306,870.997925 636.906433,873.611633 
	C637.027161,935.100525 637.000000,996.589722 637.000000,1058.078857 
	C637.000000,1062.854248 637.000000,1067.629761 637.000000,1072.921143 
	C634.725403,1072.753784 632.191956,1072.567505 629.426636,1072.364014 
	C629.426636,1074.576782 629.426636,1076.602051 629.426636,1079.397705 
	C631.843933,1078.828857 633.682129,1078.126099 635.547729,1078.043457 
	C637.015442,1077.978516 639.426208,1078.247925 639.838074,1079.117310 
	C641.229919,1082.055176 643.458130,1082.023438 646.046265,1082.022949 
	C782.355530,1081.996948 918.664734,1082.003784 1054.973999,1081.961792 
	C1056.917847,1081.961182 1058.880127,1081.471924 1060.800537,1081.056763 
	C1063.351440,1080.505127 1065.869507,1079.802124 1069.333740,1078.929443 
	C1069.333740,930.140564 1069.333740,780.298645 1069.333740,630.165833 
	C1067.921143,630.165833 1066.413452,629.737610 1065.345093,630.241272 
	C1061.114258,632.236023 1057.194946,635.009827 1052.829468,636.568420 
	C1048.142456,638.241699 1045.270020,644.790588 1038.892212,641.868530 
	C1049.601807,636.267090 1060.311279,630.665588 1071.375854,625.079956 
	C1071.801758,629.922302 1071.933472,634.748779 1071.934204,639.575317 
	C1071.954956,785.709229 1071.942627,931.843140 1072.066772,1077.976929 
	C1072.070679,1082.520508 1070.977173,1083.838013 1066.269897,1083.834595 
	C925.968628,1083.733521 785.667236,1083.793091 645.365845,1083.825562 
	C640.202637,1083.826782 635.037415,1083.722168 629.876953,1083.836548 
	C626.461914,1083.912109 625.271118,1082.557861 625.309509,1079.076050 
	C625.473083,1064.247681 625.388000,1049.416748 625.387512,1034.586670 
	C625.385803,975.933167 625.380066,917.279663 625.385925,858.626160 
	C625.386169,856.629761 625.494690,854.633362 625.766113,852.283081 
M629.517090,1080.412720 
	C629.517090,1080.412720 629.582764,1080.522949 629.517090,1080.412720 
z"/>
<path fill="#01BFD5" opacity="1.000000" stroke="none" 
	d="
M1038.906494,641.879883 
	C1045.270020,644.790588 1048.142456,638.241699 1052.829468,636.568420 
	C1057.194946,635.009827 1061.114258,632.236023 1065.345093,630.241272 
	C1066.413452,629.737610 1067.921143,630.165833 1069.333740,630.165833 
	C1069.333740,780.298645 1069.333740,930.140564 1069.333740,1078.929443 
	C1065.869507,1079.802124 1063.351440,1080.505127 1060.800537,1081.056763 
	C1058.880127,1081.471924 1056.917847,1081.961182 1054.973999,1081.961792 
	C918.664734,1082.003784 782.355530,1081.996948 646.046265,1082.022949 
	C643.458130,1082.023438 641.229919,1082.055176 639.838074,1079.117310 
	C639.426208,1078.247925 637.015442,1077.978516 635.547729,1078.043457 
	C633.682129,1078.126099 631.843933,1078.828857 629.426636,1079.397705 
	C629.426636,1076.602051 629.426636,1074.576782 629.426636,1072.364014 
	C632.191956,1072.567505 634.725403,1072.753784 637.000000,1072.921143 
	C637.000000,1067.629761 637.000000,1062.854248 637.000000,1058.078857 
	C637.000000,996.589722 637.027161,935.100525 636.906433,873.611633 
	C636.901306,870.997925 635.745178,868.296936 634.722229,865.801880 
	C633.833801,863.634705 633.728333,862.481140 636.439941,861.927063 
	C637.803040,861.648499 638.989258,860.504272 640.255493,859.751465 
	C640.058411,859.334229 639.861328,858.916931 639.664246,858.499695 
	C638.891846,858.366394 638.112183,858.265320 637.348633,858.092834 
	C635.956055,857.778320 634.573059,857.421570 633.186035,857.082397 
	C633.820618,855.378052 633.949951,853.017029 635.172302,852.076599 
	C642.743713,846.251709 650.471436,840.559082 660.558350,839.905823 
	C660.880371,839.885010 661.395996,839.813904 661.481384,839.617981 
	C664.633728,832.387817 673.267578,833.670105 678.280029,828.762939 
	C681.644348,825.469238 687.632690,824.974915 692.243835,822.797729 
	C695.864258,821.088318 698.933899,817.890930 702.669312,816.811401 
	C711.285095,814.321411 717.120728,805.859375 726.821411,805.927246 
	C727.696777,805.933411 728.790955,805.410400 729.422180,804.774414 
	C735.709839,798.440125 735.688354,798.418823 743.556763,800.710632 
	C744.007935,793.141663 748.985657,791.197266 755.620667,790.718994 
	C757.530029,790.581360 759.335022,788.251038 761.083740,786.800537 
	C763.842346,784.512146 766.213257,781.487366 770.305847,784.970825 
	C772.287354,786.657532 777.537537,783.675781 777.799194,780.350464 
	C778.101746,776.503906 780.333984,775.433105 783.279236,774.249756 
	C784.444336,773.781677 785.105530,772.059265 785.996826,770.531555 
	C786.726074,770.045471 787.454651,769.935730 788.575684,770.201294 
	C788.934204,771.238708 789.051697,771.955078 788.837769,772.552734 
	C788.209351,774.308350 785.313660,776.231018 788.877319,777.557190 
	C789.549866,777.807495 791.767822,775.502625 792.388184,774.009399 
	C794.684448,768.481873 805.990662,760.551270 812.646545,760.425476 
	C817.162292,760.340149 818.794128,757.439026 819.921936,753.811646 
	C820.407471,753.526794 820.893066,753.242004 821.805664,753.258911 
	C822.452637,755.000488 822.672546,756.440308 822.996033,758.558350 
	C825.027100,755.630859 826.118958,752.593994 828.268188,751.257324 
	C833.062744,748.275452 838.523560,746.385986 843.449402,743.587524 
	C847.508240,741.281738 851.029907,739.294312 853.758240,745.073120 
	C853.927002,745.430481 854.832520,745.439880 855.399536,745.612488 
	C857.210876,737.667419 862.786743,733.647339 869.433228,730.739380 
	C875.554871,728.061279 881.340271,721.936707 889.135132,729.890686 
	C889.553772,724.404419 891.176025,720.991638 895.388428,718.749451 
	C901.256104,715.626038 906.359070,710.909912 912.410217,708.334412 
	C917.608337,706.121948 923.677612,705.956421 929.375427,704.883179 
	C929.251831,702.841675 929.103455,700.390991 928.955078,697.940369 
	C928.955017,697.940369 929.000000,697.961609 929.433472,697.974731 
	C933.391907,698.530029 936.914673,699.086792 940.442505,699.609131 
	C942.829407,699.962524 944.789673,699.741455 944.738770,696.548340 
	C944.722473,695.521179 944.717651,693.967346 945.326965,693.542297 
	C949.235291,690.815857 953.071533,687.765259 957.399048,685.914124 
	C963.379272,683.356018 968.821899,678.810425 976.009949,679.768860 
	C976.391113,679.819580 976.939270,679.387634 977.255615,679.040222 
	C983.751709,671.906006 992.073425,667.368286 1000.400757,662.878906 
	C1002.698669,661.639954 1005.314331,661.002869 1007.742065,659.988770 
	C1010.066162,659.017944 1012.426819,658.077393 1014.611267,656.840698 
	C1020.627991,653.434387 1026.249878,648.980347 1032.658569,646.764893 
	C1035.838257,645.665649 1038.275024,645.525574 1038.927246,641.914368 
	C1038.927246,641.914368 1038.920898,641.891296 1038.906494,641.879883 
M1067.000000,986.500000 
	C1067.000000,871.903687 1067.000000,757.307434 1067.000000,642.711121 
	C1066.558716,642.712646 1066.117310,642.714111 1065.676025,642.715637 
	C1065.676025,785.239258 1065.676025,927.762939 1065.676025,1070.286621 
	C1066.117310,1070.287842 1066.558716,1070.289062 1067.000000,1070.290161 
	C1067.000000,1042.693481 1067.000000,1015.096741 1067.000000,986.500000 
M1066.168335,638.666931 
	C1066.849731,637.774597 1067.531128,636.882263 1068.212402,635.989868 
	C1067.516479,635.734375 1066.820679,635.478821 1066.124756,635.223328 
	C1065.926636,636.302490 1065.728638,637.381714 1066.168335,638.666931 
z"/>
<path fill="#02BED4" opacity="1.000000" stroke="none" 
	d="
M928.592407,697.984009 
	C929.103455,700.390991 929.251831,702.841675 929.375427,704.883179 
	C923.677612,705.956421 917.608337,706.121948 912.410217,708.334412 
	C906.359070,710.909912 901.256104,715.626038 895.388428,718.749451 
	C891.176025,720.991638 889.553772,724.404419 889.135132,729.890686 
	C881.340271,721.936707 875.554871,728.061279 869.433228,730.739380 
	C862.786743,733.647339 857.210876,737.667419 855.399536,745.612488 
	C854.832520,745.439880 853.927002,745.430481 853.758240,745.073120 
	C851.029907,739.294312 847.508240,741.281738 843.449402,743.587524 
	C838.523560,746.385986 833.062744,748.275452 828.268188,751.257324 
	C826.118958,752.593994 825.027100,755.630859 822.996033,758.558350 
	C822.672546,756.440308 822.452637,755.000488 822.097778,753.242737 
	C827.378235,749.789612 832.680359,746.435791 838.229919,743.559204 
	C856.608521,734.032593 875.051880,724.629822 893.518860,715.275146 
	C905.044067,709.437012 916.656372,703.770874 928.592407,697.984009 
z"/>
<path fill="#02BED4" opacity="1.000000" stroke="none" 
	d="
M1038.554077,641.917603 
	C1038.275024,645.525574 1035.838257,645.665649 1032.658569,646.764893 
	C1026.249878,648.980347 1020.627991,653.434387 1014.611267,656.840698 
	C1012.426819,658.077393 1010.066162,659.017944 1007.742065,659.988770 
	C1005.314331,661.002869 1002.698669,661.639954 1000.400757,662.878906 
	C992.073425,667.368286 983.751709,671.906006 977.255615,679.040222 
	C976.939270,679.387634 976.391113,679.819580 976.009949,679.768860 
	C968.821899,678.810425 963.379272,683.356018 957.399048,685.914124 
	C953.071533,687.765259 949.235291,690.815857 945.326965,693.542297 
	C944.717651,693.967346 944.722473,695.521179 944.738770,696.548340 
	C944.789673,699.741455 942.829407,699.962524 940.442505,699.609131 
	C936.914673,699.086792 933.391907,698.530029 929.411133,697.973450 
	C937.849182,693.198608 946.683411,688.322266 955.648621,683.699951 
	C981.891541,670.169495 1008.183899,656.734558 1034.471069,643.290039 
	C1035.636353,642.694092 1036.941162,642.371094 1038.554077,641.917603 
z"/>
<path fill="#02BED4" opacity="1.000000" stroke="none" 
	d="
M819.553711,753.857666 
	C818.794128,757.439026 817.162292,760.340149 812.646545,760.425476 
	C805.990662,760.551270 794.684448,768.481873 792.388184,774.009399 
	C791.767822,775.502625 789.549866,777.807495 788.877319,777.557190 
	C785.313660,776.231018 788.209351,774.308350 788.837769,772.552734 
	C789.051697,771.955078 788.934204,771.238708 788.942078,770.164062 
	C796.016357,765.858032 803.087769,761.909973 810.231445,758.097412 
	C813.135132,756.547729 816.196106,755.292786 819.553711,753.857666 
z"/>
<path fill="#01BFD5" opacity="1.000000" stroke="none" 
	d="
M629.549927,1080.467773 
	C629.582764,1080.522949 629.517090,1080.412720 629.549927,1080.467773 
z"/>
<path fill="#02BED4" opacity="1.000000" stroke="none" 
	d="
M1067.000000,987.000000 
	C1067.000000,1015.096741 1067.000000,1042.693481 1067.000000,1070.290161 
	C1066.558716,1070.289062 1066.117310,1070.287842 1065.676025,1070.286621 
	C1065.676025,927.762939 1065.676025,785.239258 1065.676025,642.715637 
	C1066.117310,642.714111 1066.558716,642.712646 1067.000000,642.711121 
	C1067.000000,757.307434 1067.000000,871.903687 1067.000000,987.000000 
z"/>
<path fill="#02BED4" opacity="1.000000" stroke="none" 
	d="
M1065.849365,638.563904 
	C1065.728638,637.381714 1065.926636,636.302490 1066.124756,635.223328 
	C1066.820679,635.478821 1067.516479,635.734375 1068.212402,635.989868 
	C1067.531128,636.882263 1066.849731,637.774597 1065.849365,638.563904 
z"/>
</svg>