<svg version="1.1" id="Layer_1" xmlns="http://www.w3.org/2000/svg" xmlns:xlink="http://www.w3.org/1999/xlink" x="0px" y="0px"
	 width="100%" viewBox="0 0 1204 1204" enable-background="new 0 0 1204 1204" xml:space="preserve">
<path fill="#FFFFFF" opacity="1.000000" stroke="none" 
	d="
M1204.000000,0.999979 
	C1204.333374,1.166626 1204.943726,1.315892 1204.955566,1.502750 
	C1205.038940,2.830884 1205.000000,4.166667 1205.000000,5.500000 
	C1205.000000,405.333344 1205.000000,805.166687 1205.000000,1205.000000 
	C803.666687,1205.000000 402.333344,1205.000000 1.000000,1205.000000 
	C1.000000,803.666687 1.000000,402.333344 1.501825,1.291936 
	C2.037554,1.775525 2.071458,1.967177 2.061013,2.615510 
	C2.007986,401.706848 1.999027,800.341553 2.000008,1198.976196 
	C2.000012,1200.568848 2.142108,1202.161499 2.216888,1203.734009 
	C403.037903,1203.734009 803.268616,1203.734009 1204.009766,1203.734009 
	C1204.009766,1201.355225 1204.009766,1199.230469 1204.009766,1197.105713 
	C1204.009766,802.637207 1204.010132,408.168701 1204.003418,13.700195 
	C1204.003296,9.870032 1203.907837,6.039871 1203.904785,1.908709 
	C1203.968384,1.405139 1203.984253,1.202569 1204.000000,0.999979 
z"/>
<path fill="#C1C1C1" opacity="1.000000" stroke="none" 
	d="
M2.105362,2.158830 
	C2.071458,1.967177 2.037554,1.775525 2.001825,1.291936 
	C402.366058,1.000000 802.732117,1.000000 1203.549072,1.000000 
	C1203.984253,1.202569 1203.968384,1.405139 1203.447998,1.852033 
	C1200.445312,2.057778 1197.947144,1.985431 1195.448975,1.985398 
	C799.998779,1.980160 404.548584,1.979820 9.098410,1.987268 
	C6.767393,1.987312 4.436378,2.099180 2.105362,2.158830 
z"/>
<path fill="#050505" opacity="1.000000" stroke="none" 
	d="
M2.061013,2.615510 
	C4.436378,2.099180 6.767393,1.987312 9.098410,1.987268 
	C404.548584,1.979820 799.998779,1.980160 1195.448975,1.985398 
	C1197.947144,1.985431 1200.445312,2.057778 1203.400146,2.153033 
	C1203.907837,6.039871 1204.003296,9.870032 1204.003418,13.700195 
	C1204.010132,408.168701 1204.009766,802.637207 1204.009766,1197.105713 
	C1204.009766,1199.230469 1204.009766,1201.355225 1204.009766,1203.734009 
	C803.268616,1203.734009 403.037903,1203.734009 2.216888,1203.734009 
	C2.142108,1202.161499 2.000012,1200.568848 2.000008,1198.976196 
	C1.999027,800.341553 2.007986,401.706848 2.061013,2.615510 
M56.066242,3.921516 
	C38.809719,3.921516 21.553192,3.921516 3.998914,3.921516 
	C3.998914,5.986388 3.998881,7.462324 3.998919,8.938260 
	C4.008999,404.770905 4.018055,800.603516 4.067348,1196.436157 
	C4.067536,1197.951416 4.646604,1199.466797 5.751112,1201.071655 
	C6.012764,1201.124512 6.274416,1201.177490 7.181045,1201.552124 
	C8.838456,1201.648438 10.495866,1201.829102 12.153282,1201.829102 
	C407.130341,1201.841309 802.107422,1201.840942 1197.084473,1201.840942 
	C1198.679932,1201.840942 1200.275269,1201.840820 1201.721436,1201.840820 
	C1201.721436,802.203430 1201.721436,403.144562 1201.721436,3.865752 
	C1200.375977,3.865752 1199.393311,3.865666 1198.410522,3.865764 
	C1161.079712,3.869468 1123.748779,3.876328 1086.417969,3.876419 
	C745.604431,3.877252 404.790894,3.876512 63.977371,3.885123 
	C61.648827,3.885181 59.320278,4.009495 56.066242,3.921516 
z"/>
<path fill="#010101" opacity="1.000000" stroke="none" 
	d="
M6.536069,1201.230347 
	C6.274416,1201.177490 6.012764,1201.124512 5.381723,1200.559814 
	C5.113512,1195.224731 5.303089,1190.401733 5.303268,1185.578613 
	C5.317013,814.393066 5.317862,443.207458 5.310709,72.021904 
	C5.310299,50.698730 5.228111,29.375555 5.220130,8.052369 
	C5.219784,7.127765 5.583313,6.203025 5.872327,4.825661 
	C23.024410,4.825661 40.004879,4.825661 57.450493,4.893349 
	C60.248631,4.971971 62.581619,4.992373 64.914612,4.992501 
	C441.570343,5.013041 818.226074,5.042049 1194.881836,4.939766 
	C1199.656250,4.938470 1200.623169,6.382681 1200.622192,10.836172 
	C1200.527954,403.491547 1200.534302,796.146973 1200.536133,1188.802368 
	C1200.536133,1191.800049 1200.868774,1194.841431 1200.443359,1197.774780 
	C1200.264160,1199.011108 1198.706909,1200.445312 1197.430664,1201.011963 
	C1196.176270,1201.568848 1194.484375,1201.143433 1192.984375,1201.143433 
	C800.662292,1201.143555 408.340210,1201.142944 16.018148,1201.146362 
	C12.857455,1201.146362 9.696762,1201.201172 6.536069,1201.230347 
M577.014526,65.028656 
	C425.073395,65.028656 273.132294,65.028656 121.191170,65.028656 
	C121.191345,65.338760 121.191521,65.648865 121.191704,65.958969 
	C273.444824,65.958969 425.697968,65.958969 578.559387,66.546013 
	C578.705444,69.352524 579.164551,72.186073 578.924927,74.959274 
	C578.557373,79.213646 579.714417,81.971146 584.985962,82.464691 
	C584.985962,76.944748 584.985962,71.510178 585.923462,66.018211 
	C768.898376,66.008667 951.873230,66.019875 1134.848022,65.877762 
	C1139.748413,65.873955 1140.062134,67.902885 1140.061401,71.793938 
	C1139.996216,425.746094 1140.000244,779.698242 1139.999878,1133.650391 
	C1139.999878,1135.586060 1140.000000,1137.521851 1140.000000,1140.017700 
	C954.510376,1140.017700 769.746216,1140.017700 584.974426,1139.078125 
	C584.974426,949.428589 584.974426,759.779053 584.974426,569.345459 
	C584.348816,570.267883 584.173401,570.405762 584.173340,570.543640 
	C584.117676,751.792297 584.073730,933.041016 584.028320,1114.289673 
	C584.028198,1114.789307 584.024353,1115.290039 583.991943,1115.788208 
	C583.970398,1116.118652 583.948853,1116.467651 583.827576,1116.767944 
	C583.708435,1117.062744 583.485718,1117.327881 583.263000,1117.563110 
	C583.164001,1117.667603 582.956055,1117.680298 582.793030,1117.709595 
	C582.636475,1117.737915 582.474060,1117.733887 581.530762,1117.794678 
	C581.346436,1116.373291 581.009155,1114.890137 580.987854,1113.402466 
	C580.918579,1108.572144 581.213684,1103.723999 580.896362,1098.913696 
	C580.585388,1094.198608 579.696411,1089.521484 579.102234,1084.501587 
	C579.102234,1084.501587 579.167786,1084.175415 579.907532,1083.860229 
	C580.273315,1081.661499 580.962097,1079.462158 580.958923,1077.264038 
	C580.674500,881.912415 580.304932,686.561035 580.050415,491.209412 
	C580.023743,470.764771 580.802551,450.320068 580.917175,429.873779 
	C580.970581,420.342438 580.077576,410.807953 580.047363,401.273529 
	C579.934875,365.793243 580.015137,330.312317 579.967834,294.831757 
	C579.965210,292.906921 579.460815,290.982727 579.057495,288.121948 
	C579.043335,245.726868 579.016785,203.331802 579.023865,160.936722 
	C579.025574,150.300873 579.135071,139.665054 579.921692,128.817307 
	C581.176636,126.028244 582.637085,123.215302 578.435364,120.379936 
	C577.124146,120.250740 575.812866,120.008522 574.501648,120.008377 
	C428.852417,119.991890 283.203217,119.992218 137.554001,120.009109 
	C135.798492,120.009308 134.043015,120.235817 131.995392,120.376801 
	C131.995392,122.441994 131.995407,123.927048 131.995392,125.412102 
	C131.993591,443.540558 131.990173,761.669006 132.031845,1079.797485 
	C132.032074,1081.521973 132.666061,1083.246338 132.998611,1085.001099 
	C132.998611,1085.001099 133.029114,1084.995972 133.602341,1085.600464 
	C134.913391,1085.731934 136.224411,1085.978271 137.535461,1085.978394 
	C284.689484,1085.989258 431.843536,1085.981689 579.004272,1086.915649 
	C579.009583,1102.414917 579.016052,1117.914185 579.019592,1133.413452 
	C579.021118,1140.014893 579.018311,1140.018921 572.173462,1140.018921 
	C405.678040,1140.018066 239.182587,1140.016479 72.687149,1140.014404 
	C66.020309,1140.014282 66.017197,1140.010742 66.017288,1133.234863 
	C66.021912,779.077942 66.027130,424.921021 66.032272,70.764107 
	C66.032295,69.153488 66.032272,67.542870 66.032272,65.932251 
	C65.810829,65.934273 65.589394,65.936295 65.367950,65.938316 
	C65.367950,424.134552 65.367950,782.330811 65.367950,1140.984741 
	C68.231598,1140.984741 70.698524,1140.984741 73.165459,1140.984863 
	C241.327469,1140.991089 409.489471,1141.001709 577.651489,1140.961304 
	C580.103821,1140.960693 582.555969,1140.324829 585.565735,1140.612915 
	C587.044800,1140.743530 588.523865,1140.988403 590.002930,1140.988647 
	C771.649231,1141.008911 953.295593,1141.011108 1134.941895,1141.014160 
	C1136.856567,1141.014160 1138.771240,1141.014160 1140.663574,1141.014160 
	C1140.663574,781.934509 1140.663574,423.722809 1140.663574,65.005173 
	C955.219116,65.005173 770.115479,65.005173 584.130493,64.998589 
	C582.068665,65.007858 580.006775,65.017128 577.014526,65.028656 
M622.174683,1086.739136 
	C624.159363,1087.165649 626.143921,1087.964844 628.128723,1087.965576 
	C769.823914,1088.019287 911.519043,1088.009277 1053.214233,1088.005737 
	C1059.374878,1088.005615 1065.540161,1088.146118 1071.692749,1087.927490 
	C1073.120850,1087.876709 1074.505859,1086.619995 1075.959717,1084.992310 
	C1075.970703,1084.492676 1075.991333,1083.992920 1075.991333,1083.493286 
	C1075.993774,764.060303 1075.995117,444.627258 1075.987793,125.194252 
	C1075.987671,123.732971 1075.863892,122.271690 1075.797852,120.810410 
	C1075.532715,120.813560 1075.267456,120.816704 1075.002197,120.819847 
	C1075.002197,122.945427 1075.002075,125.071007 1075.002075,127.196587 
	C1075.002075,405.138306 1075.001099,683.080017 1075.002930,961.021729 
	C1075.003174,1002.679504 1075.016235,1044.337280 1074.250732,1086.323242 
	C1072.454712,1086.539062 1070.658691,1086.943604 1068.862671,1086.943970 
	C922.339905,1086.974121 775.817078,1086.977051 629.294312,1086.933350 
	C627.188538,1086.932617 625.082886,1086.321411 622.993530,1085.058716 
	C622.993530,763.666626 622.993530,442.274567 622.993530,120.882500 
	C622.663574,120.879715 622.333618,120.876938 622.003662,120.874161 
	C622.003662,122.958023 622.003601,125.041878 622.003601,127.125740 
	C622.003601,442.891388 622.003296,758.657043 622.007141,1074.422729 
	C622.007202,1078.254639 622.060913,1082.086548 622.174683,1086.739136 
M1132.996094,1143.994995 
	C779.671631,1143.990723 426.347168,1143.986572 73.022720,1143.984375 
	C70.023544,1143.984375 67.024376,1144.013794 63.331196,1143.522095 
	C63.224659,1141.874268 63.024849,1140.226318 63.024761,1138.578491 
	C63.006271,790.536804 63.001816,442.495148 62.997101,94.453476 
	C62.996956,83.625824 62.998669,72.798172 63.936970,61.973377 
	C64.603149,61.983334 65.269333,62.002014 65.935516,62.002014 
	C416.276886,62.001877 766.618225,62.000969 1116.959595,61.996117 
	C1125.288086,61.996002 1133.616455,61.951550 1142.623779,62.057667 
	C1143.044678,61.634731 1143.465698,61.211796 1143.886597,60.788853 
	C1143.261963,60.804272 1142.637451,60.819691 1141.206665,60.744831 
	C1130.563843,60.637398 1119.921143,60.436565 1109.278320,60.436062 
	C763.252808,60.419655 417.227234,60.422626 71.201698,60.420753 
	C68.540291,60.420738 65.878891,60.393860 62.409805,60.194443 
	C61.918945,63.481831 60.998756,66.769142 60.998154,70.056618 
	C60.933216,423.881744 60.937149,777.706848 60.938354,1131.531982 
	C60.938370,1135.027100 60.891624,1138.524048 60.990082,1142.016602 
	C61.043377,1143.907227 60.648964,1146.405396 64.951080,1145.452271 
	C66.449844,1145.424561 67.948616,1145.372437 69.447380,1145.372437 
	C421.241302,1145.370483 773.035217,1145.372803 1124.829102,1145.364990 
	C1127.980591,1145.364990 1131.131958,1145.231812 1134.722290,1144.906982 
	C1134.453857,1144.640381 1134.185547,1144.373779 1132.996094,1143.994995 
M1072.694336,623.341736 
	C1072.792114,622.021423 1072.975220,620.701111 1072.975342,619.380798 
	C1072.996216,455.161102 1073.006836,290.941437 1072.962402,126.721748 
	C1072.962036,125.234550 1072.219238,123.747543 1071.375977,122.126236 
	C1071.375977,122.126236 1070.965820,121.902977 1070.366089,121.335060 
	C1068.884888,121.218864 1067.403687,121.001053 1065.922485,121.000923 
	C921.868469,120.987793 777.814514,120.987778 633.760498,121.030487 
	C631.849182,121.031052 629.938049,121.586617 627.213318,122.058281 
	C626.541199,123.124313 625.386047,124.148918 625.290405,125.264389 
	C625.035156,128.240387 625.252197,131.255447 625.252136,134.254990 
	C625.247620,449.053650 625.239197,763.852356 625.265137,1078.651001 
	C625.265259,1080.424072 625.745911,1082.197021 626.567261,1084.590698 
	C628.376282,1084.731934 630.185242,1084.996460 631.994263,1084.996704 
	C776.582275,1085.013672 921.170288,1085.013062 1065.758301,1084.969727 
	C1067.496704,1084.969238 1069.234863,1084.397217 1071.464722,1083.796143 
	C1071.718872,1083.516235 1071.973022,1083.236328 1072.757690,1082.334717 
	C1072.845947,1081.180054 1073.011597,1080.025391 1073.011597,1078.870728 
	C1073.013428,930.180359 1073.005615,781.489929 1072.962036,632.799561 
	C1072.961548,631.201782 1072.486572,629.604126 1072.115967,627.296631 
	C1072.015381,626.589294 1071.914795,625.882019 1072.022949,624.586182 
	C1072.074219,624.384521 1072.125610,624.182800 1072.694336,623.341736 
M1145.092651,435.500000 
	C1145.092651,311.509064 1145.092651,187.518158 1145.092651,63.527237 
	C1144.815918,63.527649 1144.539062,63.528061 1144.262329,63.528473 
	C1144.262329,423.428925 1144.262329,783.329346 1144.262329,1143.229736 
	C1144.539185,1143.229858 1144.815918,1143.230103 1145.092773,1143.230225 
	C1145.092773,907.653442 1145.092773,672.076721 1145.092651,435.500000 
M881.500000,119.017319 
	C945.440735,119.017319 1009.381470,119.017319 1073.322266,119.017319 
	C1073.321899,118.778358 1073.321655,118.539391 1073.321411,118.300430 
	C923.597473,118.300430 773.873535,118.300430 624.149597,118.300430 
	C624.149414,118.539406 624.149170,118.778389 624.148987,119.017365 
	C709.599304,119.017365 795.049683,119.017365 881.500000,119.017319 
z"/>
<path fill="#7F7F7F" opacity="1.000000" stroke="none" 
	d="
M6.858557,1201.391235 
	C9.696762,1201.201172 12.857455,1201.146362 16.018148,1201.146362 
	C408.340210,1201.142944 800.662292,1201.143555 1192.984375,1201.143433 
	C1194.484375,1201.143433 1196.176270,1201.568848 1197.430664,1201.011963 
	C1198.706909,1200.445312 1200.264160,1199.011108 1200.443359,1197.774780 
	C1200.868774,1194.841431 1200.536133,1191.800049 1200.536133,1188.802368 
	C1200.534302,796.146973 1200.527954,403.491547 1200.622192,10.836172 
	C1200.623169,6.382681 1199.656250,4.938470 1194.881836,4.939766 
	C818.226074,5.042049 441.570343,5.013041 64.914612,4.992501 
	C62.581619,4.992373 60.248631,4.971971 57.451340,4.705882 
	C56.987038,4.450727 56.991734,4.075789 56.991734,4.075789 
	C59.320278,4.009495 61.648827,3.885181 63.977371,3.885123 
	C404.790894,3.876512 745.604431,3.877252 1086.417969,3.876419 
	C1123.748779,3.876328 1161.079712,3.869468 1198.410522,3.865764 
	C1199.393311,3.865666 1200.375977,3.865752 1201.721436,3.865752 
	C1201.721436,403.144562 1201.721436,802.203430 1201.721436,1201.840820 
	C1200.275269,1201.840820 1198.679932,1201.840942 1197.084473,1201.840942 
	C802.107422,1201.840942 407.130341,1201.841309 12.153282,1201.829102 
	C10.495866,1201.829102 8.838456,1201.648438 6.858557,1201.391235 
z"/>
<path fill="#898989" opacity="1.000000" stroke="none" 
	d="
M56.528988,3.998652 
	C56.991734,4.075789 56.987038,4.450727 56.986191,4.638194 
	C40.004879,4.825661 23.024410,4.825661 5.872327,4.825661 
	C5.583313,6.203025 5.219784,7.127765 5.220130,8.052369 
	C5.228111,29.375555 5.310299,50.698730 5.310709,72.021904 
	C5.317862,443.207458 5.317013,814.393066 5.303268,1185.578613 
	C5.303089,1190.401733 5.113512,1195.224731 4.983825,1200.514893 
	C4.646604,1199.466797 4.067536,1197.951416 4.067348,1196.436157 
	C4.018055,800.603516 4.008999,404.770905 3.998919,8.938260 
	C3.998881,7.462324 3.998914,5.986388 3.998914,3.921516 
	C21.553192,3.921516 38.809719,3.921516 56.528988,3.998652 
z"/>
<path fill="#01BFD4" opacity="1.000000" stroke="none" 
	d="
M1070.965820,121.902985 
	C1070.965820,121.902977 1071.375977,122.126236 1071.597290,122.637268 
	C1071.856567,123.813126 1071.927856,124.477959 1071.927734,125.142792 
	C1071.921143,242.225937 1071.910767,359.309082 1071.891235,476.392212 
	C1071.890625,479.884491 1071.789185,483.376770 1071.461426,487.071045 
	C1054.132446,496.056244 1037.047485,504.782898 1020.033142,513.645020 
	C1010.643433,518.535767 1001.464966,523.837097 992.023682,528.622498 
	C980.416199,534.505920 968.571106,539.919678 956.946777,545.770935 
	C947.509888,550.521179 938.300598,555.721741 928.895691,560.537720 
	C912.056396,569.160461 895.105286,577.565002 878.277588,586.210022 
	C863.837219,593.628540 849.581604,601.408875 835.104675,608.754028 
	C813.270203,619.832275 791.234070,630.514587 769.436584,641.664185 
	C753.670288,649.728821 738.246826,658.462708 722.499084,666.565308 
	C703.053589,676.570496 683.409485,686.188843 663.892334,696.055908 
	C652.853088,701.636841 641.901062,707.390320 630.899475,713.046082 
	C627.974976,714.549561 626.815491,716.628540 626.828430,720.161194 
	C626.981140,761.980957 626.924072,803.801514 626.946228,845.621826 
	C626.947144,847.328613 627.186523,849.035217 627.392395,851.774170 
	C634.433350,848.157043 640.522888,844.955627 646.678650,841.887085 
	C652.751770,838.859741 658.891907,835.966858 665.002808,833.422241 
	C664.674377,837.713745 667.136536,837.918457 670.109558,838.140686 
	C671.382263,838.235840 672.785583,839.629517 673.635620,840.793762 
	C673.962952,841.242126 673.161926,843.306641 672.458618,843.585876 
	C668.018860,845.348450 663.436096,846.490356 658.589844,844.473389 
	C660.604919,844.146057 662.619995,843.818665 665.698303,843.318604 
	C664.413025,841.857422 663.532776,840.194824 662.937805,840.291321 
	C659.827271,840.795776 656.489563,841.214355 653.822876,842.714844 
	C651.779968,843.864441 650.697998,845.618896 647.580688,845.429504 
	C644.838318,845.262939 641.716553,847.354858 639.170654,849.059204 
	C636.620667,850.766174 634.576416,853.228638 631.499268,856.122925 
	C632.440247,859.845215 634.814880,864.903992 634.834167,869.971619 
	C635.084473,935.626648 635.000000,1001.282898 635.000000,1066.938843 
	C635.000000,1068.730591 635.000000,1070.522217 635.000000,1071.760620 
	C632.474487,1073.062744 630.607605,1074.025269 629.326782,1074.685669 
	C631.427795,1077.600830 632.796387,1079.499878 634.951782,1082.490356 
	C636.409973,1077.049683 638.814087,1072.222168 638.832520,1067.385498 
	C639.081909,1001.897095 638.996826,936.407532 639.016663,870.918213 
	C639.017212,869.139160 639.265991,867.360229 639.398926,865.581238 
	C639.932617,865.620483 640.466309,865.659729 641.000000,865.698975 
	C641.000000,867.599670 641.000000,869.500427 641.000000,871.401123 
	C641.000000,939.556641 641.044495,1007.712280 640.901367,1075.867432 
	C640.891663,1080.490356 641.828613,1082.114624 646.833252,1082.109619 
	C783.977356,1081.972656 921.121643,1082.001099 1058.265869,1081.989502 
	C1060.035278,1081.989380 1061.804810,1081.828979 1064.271973,1081.709839 
	C1064.271973,932.020020 1064.271973,782.835022 1064.271973,633.629456 
	C1057.313843,632.161194 1057.307495,632.241028 1056.797241,638.654175 
	C1056.733398,639.454712 1054.814941,640.833801 1053.975586,640.687134 
	C1052.474121,640.424927 1051.139893,639.204712 1050.816406,639.015930 
	C1046.875366,639.784180 1043.884644,640.367188 1040.980957,640.610718 
	C1050.343994,635.502197 1059.619995,630.733154 1069.126221,625.888489 
	C1069.649902,625.648499 1069.854980,625.408447 1070.279785,625.076416 
	C1070.996460,625.098206 1071.405396,625.136414 1071.814209,625.174683 
	C1071.914795,625.882019 1072.015381,626.589294 1072.048340,628.104004 
	C1071.952881,629.909729 1071.900513,630.908081 1071.900513,631.906433 
	C1071.897339,778.102722 1071.895020,924.298950 1071.911987,1070.495239 
	C1071.912354,1074.649048 1072.117432,1078.802734 1072.227051,1082.956543 
	C1071.973022,1083.236328 1071.718872,1083.516235 1070.759766,1083.861572 
	C1068.223755,1083.905884 1066.392944,1083.866089 1064.562012,1083.866089 
	C936.021790,1083.868286 807.481567,1083.870117 678.941345,1083.882568 
	C661.294983,1083.884277 643.648560,1083.939575 626.002197,1083.970215 
	C625.745911,1082.197021 625.265259,1080.424072 625.265137,1078.651001 
	C625.239197,763.852356 625.247620,449.053650 625.252136,134.254990 
	C625.252197,131.255447 625.035156,128.240387 625.290405,125.264389 
	C625.386047,124.148918 626.541199,123.124313 628.074463,122.081436 
	C771.290833,122.115883 913.646179,122.129578 1056.001465,122.128517 
	C1060.989624,122.128479 1065.977661,121.981483 1070.965820,121.902985 
M1067.000000,896.500000 
	C1067.000000,955.098083 1067.000000,1013.696228 1067.000000,1072.294312 
	C1067.680908,1072.292603 1068.361816,1072.291016 1069.042725,1072.289307 
	C1069.042725,924.429016 1069.042725,776.568726 1069.042725,628.708435 
	C1068.043945,633.308777 1067.146606,637.959290 1067.140503,642.610962 
	C1067.029785,726.907288 1067.026245,811.203613 1067.000000,896.500000 
M751.500000,127.000610 
	C854.097107,127.000610 956.694153,127.000610 1059.291260,127.000610 
	C1059.289551,126.560143 1059.287964,126.119667 1059.286255,125.679199 
	C918.094604,125.679199 776.902954,125.679199 635.711243,125.679199 
	C635.710571,126.119667 635.709900,126.560143 635.709167,127.000610 
	C673.972778,127.000610 712.236389,127.000610 751.500000,127.000610 
M1067.075073,1079.305786 
	C1067.589233,1079.569214 1068.103271,1079.832642 1068.617432,1080.096191 
	C1068.613647,1079.347168 1068.609863,1078.598145 1068.606201,1077.849121 
	C1068.094482,1078.117798 1067.582642,1078.386597 1067.075073,1079.305786 
M1063.472412,125.685310 
	C1064.020630,126.024635 1064.568726,126.363960 1065.116943,126.703293 
	C1065.252075,126.428474 1065.387207,126.153656 1065.522217,125.878830 
	C1064.985352,125.673531 1064.448608,125.468231 1063.472412,125.685310 
z"/>
<path fill="#01C0D5" opacity="1.000000" stroke="none" 
	d="
M579.195068,129.029221 
	C579.135071,139.665054 579.025574,150.300873 579.023865,160.936722 
	C579.016785,203.331802 579.043335,245.726868 579.029053,288.557892 
	C579.000549,288.993835 578.814270,288.920563 578.446411,288.945038 
	C571.065735,292.323151 563.971985,295.518738 557.054749,299.059265 
	C533.738281,310.993713 510.503601,323.087769 487.200287,335.047974 
	C471.494293,343.108887 455.692200,350.982788 439.994354,359.059387 
	C426.460663,366.022552 413.055786,373.236359 399.515717,380.186920 
	C386.857544,386.684784 374.054688,392.900726 361.392120,399.390137 
	C347.846710,406.331970 334.443146,413.551056 320.882782,420.462982 
	C303.588104,429.278320 286.152588,437.817535 268.862488,446.641724 
	C251.927216,455.284851 235.114655,464.167969 218.218582,472.888306 
	C195.847778,484.434235 173.458618,495.944824 151.052765,507.422577 
	C145.983551,510.019379 140.812958,512.418335 134.931778,515.276306 
	C134.931778,511.919067 134.931671,509.613312 134.931793,507.307587 
	C134.938004,382.990967 134.946579,258.674347 134.927582,134.357742 
	C134.927307,132.557785 134.582901,130.757904 134.309464,128.542938 
	C133.244675,122.972260 135.892639,122.134583 140.414642,122.137680 
	C284.731018,122.236542 429.047455,122.226837 573.363892,122.233505 
	C575.104797,122.233582 576.845642,122.233505 578.614380,122.233505 
	C578.855774,125.058449 579.025452,127.043831 579.195068,129.029221 
z"/>
<path fill="#55D4E5" opacity="1.000000" stroke="none" 
	d="
M1071.918579,624.880432 
	C1071.405396,625.136414 1070.996460,625.098206 1070.042969,625.136963 
	C1069.194092,625.380798 1068.993408,625.630859 1068.896118,625.964050 
	C1059.619995,630.733154 1050.343994,635.502197 1040.609131,640.624695 
	C1028.745605,646.543457 1017.251831,651.934875 1005.953552,657.708679 
	C977.874023,672.058044 949.896301,686.606384 921.851746,701.024353 
	C909.449951,707.400269 896.979126,713.641724 884.550964,719.966492 
	C869.436584,727.658325 854.330017,735.365784 839.227722,743.081421 
	C828.476990,748.573853 817.719604,754.053711 806.999939,759.606201 
	C793.623779,766.534607 780.314575,773.592773 766.918335,780.481750 
	C754.250854,786.996155 741.490967,793.330383 728.803711,799.806580 
	C717.630554,805.509888 706.485474,811.268555 695.358032,817.060669 
	C685.218567,822.338379 675.119507,827.693787 665.002625,833.015015 
	C658.891907,835.966858 652.751770,838.859741 646.678650,841.887085 
	C640.522888,844.955627 634.433350,848.157043 627.392395,851.774170 
	C627.186523,849.035217 626.947144,847.328613 626.946228,845.621826 
	C626.924072,803.801514 626.981140,761.980957 626.828430,720.161194 
	C626.815491,716.628540 627.974976,714.549561 630.899475,713.046082 
	C641.901062,707.390320 652.853088,701.636841 663.892334,696.055908 
	C683.409485,686.188843 703.053589,676.570496 722.499084,666.565308 
	C738.246826,658.462708 753.670288,649.728821 769.436584,641.664185 
	C791.234070,630.514587 813.270203,619.832275 835.104675,608.754028 
	C849.581604,601.408875 863.837219,593.628540 878.277588,586.210022 
	C895.105286,577.565002 912.056396,569.160461 928.895691,560.537720 
	C938.300598,555.721741 947.509888,550.521179 956.946777,545.770935 
	C968.571106,539.919678 980.416199,534.505920 992.023682,528.622498 
	C1001.464966,523.837097 1010.643433,518.535767 1020.033142,513.645020 
	C1037.047485,504.782898 1054.132446,496.056244 1071.534668,487.552277 
	C1071.907837,524.077393 1071.921387,560.323303 1071.969727,596.569214 
	C1071.981934,605.706543 1072.104980,614.843750 1072.177124,623.981018 
	C1072.125610,624.182800 1072.074219,624.384521 1071.918579,624.880432 
z"/>
<path fill="#242424" opacity="1.000000" stroke="none" 
	d="
M585.008240,1139.985474 
	C582.555969,1140.324829 580.103821,1140.960693 577.651489,1140.961304 
	C409.489471,1141.001709 241.327469,1140.991089 73.165459,1140.984863 
	C70.698524,1140.984741 68.231598,1140.984741 65.367950,1140.984741 
	C65.367950,782.330811 65.367950,424.134552 65.367950,65.938316 
	C65.589394,65.936295 65.810829,65.934273 66.032272,65.932251 
	C66.032272,67.542870 66.032295,69.153488 66.032272,70.764107 
	C66.027130,424.921021 66.021912,779.077942 66.017288,1133.234863 
	C66.017197,1140.010742 66.020309,1140.014282 72.687149,1140.014404 
	C239.182587,1140.016479 405.678040,1140.018066 572.173462,1140.018921 
	C579.018311,1140.018921 579.021118,1140.014893 579.019592,1133.413452 
	C579.016052,1117.914185 579.009583,1102.414917 579.000916,1086.212646 
	C578.997559,1085.509766 578.997253,1085.043945 579.006409,1084.987793 
	C579.015564,1084.931763 579.061035,1084.827759 579.061035,1084.827759 
	C579.696411,1089.521484 580.585388,1094.198608 580.896362,1098.913696 
	C581.213684,1103.723999 580.918579,1108.572144 580.987854,1113.402466 
	C581.009155,1114.890137 581.346436,1116.373291 581.530762,1117.794678 
	C582.474060,1117.733887 582.636475,1117.737915 582.793030,1117.709595 
	C582.956055,1117.680298 583.164001,1117.667603 583.263000,1117.563110 
	C583.485718,1117.327881 583.708435,1117.062744 583.827576,1116.767944 
	C583.948853,1116.467651 583.970398,1116.118652 583.991943,1115.788208 
	C584.024353,1115.290039 584.028198,1114.789307 584.028320,1114.289673 
	C584.073730,933.041016 584.117676,751.792297 584.173340,570.543640 
	C584.173401,570.405762 584.348816,570.267883 584.974426,569.345459 
	C584.974426,759.779053 584.974426,949.428589 584.986206,1139.540283 
	C584.998047,1140.002441 585.008240,1139.985474 585.008240,1139.985474 
z"/>
<path fill="#242424" opacity="1.000000" stroke="none" 
	d="
M585.011902,65.005173 
	C770.115479,65.005173 955.219116,65.005173 1140.663574,65.005173 
	C1140.663574,423.722809 1140.663574,781.934509 1140.663574,1141.014160 
	C1138.771240,1141.014160 1136.856567,1141.014160 1134.941895,1141.014160 
	C953.295593,1141.011108 771.649231,1141.008911 590.002930,1140.988647 
	C588.523865,1140.988403 587.044800,1140.743530 585.286987,1140.299194 
	C585.008240,1139.985474 584.998047,1140.002441 584.990112,1140.010010 
	C769.746216,1140.017700 954.510376,1140.017700 1140.000000,1140.017700 
	C1140.000000,1137.521851 1139.999878,1135.586060 1139.999878,1133.650391 
	C1140.000244,779.698242 1139.996216,425.746094 1140.061401,71.793938 
	C1140.062134,67.902885 1139.748413,65.873955 1134.848022,65.877762 
	C951.873230,66.019875 768.898376,66.008667 585.455811,65.778732 
	C584.996094,65.361229 585.004028,65.183205 585.011902,65.005173 
z"/>
<path fill="#545454" opacity="1.000000" stroke="none" 
	d="
M62.999512,61.970520 
	C62.998669,72.798172 62.996956,83.625824 62.997101,94.453476 
	C63.001816,442.495148 63.006271,790.536804 63.024761,1138.578491 
	C63.024849,1140.226318 63.224659,1141.874268 63.651272,1144.153320 
	C63.987316,1145.036499 64.003281,1145.288452 64.019241,1145.540283 
	C60.648964,1146.405396 61.043377,1143.907227 60.990082,1142.016602 
	C60.891624,1138.524048 60.938370,1135.027100 60.938354,1131.531982 
	C60.937149,777.706848 60.933216,423.881744 60.998154,70.056618 
	C60.998756,66.769142 61.918945,63.481831 62.780449,60.553394 
	C63.100567,61.265072 63.050037,61.617794 62.999512,61.970520 
z"/>
<path fill="#9C9C9C" opacity="1.000000" stroke="none" 
	d="
M63.468239,61.971947 
	C63.050037,61.617794 63.100567,61.265072 63.184288,60.645935 
	C65.878891,60.393860 68.540291,60.420738 71.201698,60.420753 
	C417.227234,60.422626 763.252808,60.419655 1109.278320,60.436062 
	C1119.921143,60.436565 1130.563843,60.637398 1141.611938,61.064346 
	C1141.993164,61.565170 1141.968994,61.746475 1141.944946,61.927780 
	C1133.616455,61.951550 1125.288086,61.996002 1116.959595,61.996117 
	C766.618225,62.000969 416.276886,62.001877 65.935516,62.002014 
	C65.269333,62.002014 64.603149,61.983334 63.468239,61.971947 
z"/>
<path fill="#03101D" opacity="1.000000" stroke="none" 
	d="
M579.558350,128.923264 
	C579.025452,127.043831 578.855774,125.058449 578.614380,122.233505 
	C576.845642,122.233505 575.104797,122.233582 573.363892,122.233505 
	C429.047455,122.226837 284.731018,122.236542 140.414642,122.137680 
	C135.892639,122.134583 133.244675,122.972260 134.252502,129.017731 
	C134.274277,255.904114 134.269226,381.900665 134.249481,507.897217 
	C134.241959,555.893188 134.200729,603.889099 134.098846,652.358154 
	C134.029800,655.994385 134.042953,659.157532 134.042862,662.320618 
	C134.038803,800.342346 134.030426,938.364136 134.061264,1076.385864 
	C134.061691,1078.290039 134.554596,1080.194214 134.783905,1082.114746 
	C134.750153,1082.130981 134.742798,1082.205566 134.780090,1082.560547 
	C135.237976,1083.078857 135.658569,1083.241943 136.199219,1083.421875 
	C136.319290,1083.438721 136.447556,1083.232910 136.809113,1083.516479 
	C141.330505,1083.862183 145.490356,1083.978516 149.650192,1083.978394 
	C292.750732,1083.975830 435.851288,1083.962402 579.005920,1084.006592 
	C579.059998,1084.062866 579.167786,1084.175415 579.167786,1084.175415 
	C579.167786,1084.175415 579.102234,1084.501587 579.081665,1084.664673 
	C579.061035,1084.827759 579.015564,1084.931763 578.538513,1084.963379 
	C429.717346,1084.995361 281.373230,1084.995728 133.029114,1084.995972 
	C133.029114,1084.995972 132.998611,1085.001099 132.987854,1084.520630 
	C132.977112,763.184937 132.977112,442.329773 132.977112,120.993553 
	C282.153748,120.993553 430.582947,120.993553 579.012146,120.993553 
	C582.637085,123.215302 581.176636,126.028244 579.558350,128.923264 
z"/>
<path fill="#3A3F39" opacity="1.000000" stroke="none" 
	d="
M578.723755,120.686745 
	C430.582947,120.993553 282.153748,120.993553 132.977112,120.993553 
	C132.977112,442.329773 132.977112,763.184937 132.990601,1084.505493 
	C132.666061,1083.246338 132.032074,1081.521973 132.031845,1079.797485 
	C131.990173,761.669006 131.993591,443.540558 131.995392,125.412102 
	C131.995407,123.927048 131.995392,122.441994 131.995392,120.376801 
	C134.043015,120.235817 135.798492,120.009308 137.554001,120.009109 
	C283.203217,119.992218 428.852417,119.991890 574.501648,120.008377 
	C575.812866,120.008522 577.124146,120.250740 578.723755,120.686745 
z"/>
<path fill="#03101D" opacity="1.000000" stroke="none" 
	d="
M579.095276,289.026031 
	C579.460815,290.982727 579.965210,292.906921 579.967834,294.831757 
	C580.015137,330.312317 579.934875,365.793243 580.047363,401.273529 
	C580.077576,410.807953 580.970581,420.342438 580.917175,429.873779 
	C580.802551,450.320068 580.023743,470.764771 580.050415,491.209412 
	C580.304932,686.561035 580.674500,881.912415 580.958923,1077.264038 
	C580.962097,1079.462158 580.273315,1081.661499 579.537659,1084.017822 
	C579.167786,1084.175415 579.059998,1084.062866 579.049438,1083.663330 
	C578.990295,1082.583984 578.941711,1081.904053 578.961731,1080.745850 
	C579.044861,1079.101318 579.072144,1077.935425 579.071960,1076.769409 
	C579.047058,894.191589 579.028748,711.613831 578.985718,529.036011 
	C578.977539,494.389771 578.870483,459.743500 578.880676,424.627380 
	C578.961060,408.187347 578.993469,392.217163 578.973389,376.247070 
	C578.936829,347.138214 578.869080,318.029388 578.814331,288.920563 
	C578.814270,288.920563 579.000549,288.993835 579.095276,289.026031 
z"/>
<path fill="#9C9C9C" opacity="1.000000" stroke="none" 
	d="
M1145.092773,436.000000 
	C1145.092773,672.076721 1145.092773,907.653442 1145.092773,1143.230225 
	C1144.815918,1143.230103 1144.539185,1143.229858 1144.262329,1143.229736 
	C1144.262329,783.329346 1144.262329,423.428925 1144.262329,63.528473 
	C1144.539062,63.528061 1144.815918,63.527649 1145.092651,63.527237 
	C1145.092651,187.518158 1145.092651,311.509064 1145.092773,436.000000 
z"/>
<path fill="#9C9C9C" opacity="1.000000" stroke="none" 
	d="
M64.485161,1145.496338 
	C64.003281,1145.288452 63.987316,1145.036499 63.998276,1144.407104 
	C67.024376,1144.013794 70.023544,1143.984375 73.022720,1143.984375 
	C426.347168,1143.986572 779.671631,1143.990723 1133.526733,1144.321899 
	C1134.132690,1144.819458 1134.208130,1144.990112 1134.283447,1145.160767 
	C1131.131958,1145.231812 1127.980591,1145.364990 1124.829102,1145.364990 
	C773.035217,1145.372803 421.241302,1145.370483 69.447380,1145.372437 
	C67.948616,1145.372437 66.449844,1145.424561 64.485161,1145.496338 
z"/>
<path fill="#494949" opacity="1.000000" stroke="none" 
	d="
M1075.023193,1085.995117 
	C1075.016235,1044.337280 1075.003174,1002.679504 1075.002930,961.021729 
	C1075.001099,683.080017 1075.002075,405.138306 1075.002075,127.196587 
	C1075.002075,125.071007 1075.002197,122.945427 1075.002197,120.819847 
	C1075.267456,120.816704 1075.532715,120.813560 1075.797852,120.810410 
	C1075.863892,122.271690 1075.987671,123.732971 1075.987793,125.194252 
	C1075.995117,444.627258 1075.993774,764.060303 1075.991333,1083.493286 
	C1075.991333,1083.992920 1075.970703,1084.492676 1075.714355,1085.483398 
	C1075.468994,1085.974609 1075.023193,1085.995117 1075.023193,1085.995117 
z"/>
<path fill="#494949" opacity="1.000000" stroke="none" 
	d="
M622.089478,1085.918457 
	C622.060913,1082.086548 622.007202,1078.254639 622.007141,1074.422729 
	C622.003296,758.657043 622.003601,442.891388 622.003601,127.125740 
	C622.003601,125.041878 622.003662,122.958023 622.003662,120.874161 
	C622.333618,120.876938 622.663574,120.879715 622.993530,120.882500 
	C622.993530,442.274567 622.993530,763.666626 622.762756,1085.516357 
	C622.531982,1085.973999 622.089478,1085.918457 622.089478,1085.918457 
z"/>
<path fill="#002839" opacity="1.000000" stroke="none" 
	d="
M1072.435791,623.661377 
	C1072.104980,614.843750 1071.981934,605.706543 1071.969727,596.569214 
	C1071.921387,560.323303 1071.907837,524.077393 1071.808105,487.350281 
	C1071.789185,483.376770 1071.890625,479.884491 1071.891235,476.392212 
	C1071.910767,359.309082 1071.921143,242.225937 1071.927734,125.142792 
	C1071.927856,124.477959 1071.856567,123.813126 1071.820801,122.704376 
	C1072.219238,123.747543 1072.962036,125.234550 1072.962402,126.721748 
	C1073.006836,290.941437 1072.996216,455.161102 1072.975342,619.380798 
	C1072.975220,620.701111 1072.792114,622.021423 1072.435791,623.661377 
z"/>
<path fill="#242424" opacity="1.000000" stroke="none" 
	d="
M577.951111,65.958969 
	C425.697968,65.958969 273.444824,65.958969 121.191704,65.958969 
	C121.191521,65.648865 121.191345,65.338760 121.191170,65.028656 
	C273.132294,65.028656 425.073395,65.028656 577.491333,65.260475 
	C577.968079,65.492294 577.951111,65.958969 577.951111,65.958969 
z"/>
<path fill="#242424" opacity="1.000000" stroke="none" 
	d="
M622.132080,1086.328857 
	C622.089478,1085.918457 622.531982,1085.973999 622.754578,1085.984619 
	C625.082886,1086.321411 627.188538,1086.932617 629.294312,1086.933350 
	C775.817078,1086.977051 922.339905,1086.974121 1068.862671,1086.943970 
	C1070.658691,1086.943604 1072.454712,1086.539062 1074.636963,1086.159180 
	C1075.023193,1085.995117 1075.468994,1085.974609 1075.689941,1085.946289 
	C1074.505859,1086.619995 1073.120850,1087.876709 1071.692749,1087.927490 
	C1065.540161,1088.146118 1059.374878,1088.005615 1053.214233,1088.005737 
	C911.519043,1088.009277 769.823914,1088.019287 628.128723,1087.965576 
	C626.143921,1087.964844 624.159363,1087.165649 622.132080,1086.328857 
z"/>
<path fill="#002839" opacity="1.000000" stroke="none" 
	d="
M1072.492432,1082.645630 
	C1072.117432,1078.802734 1071.912354,1074.649048 1071.911987,1070.495239 
	C1071.895020,924.298950 1071.897339,778.102722 1071.900513,631.906433 
	C1071.900513,630.908081 1071.952881,629.909729 1072.106934,628.458862 
	C1072.486572,629.604126 1072.961548,631.201782 1072.962036,632.799561 
	C1073.005615,781.489929 1073.013428,930.180359 1073.011597,1078.870728 
	C1073.011597,1080.025391 1072.845947,1081.180054 1072.492432,1082.645630 
z"/>
<path fill="#242424" opacity="1.000000" stroke="none" 
	d="
M881.000000,119.017342 
	C795.049683,119.017365 709.599304,119.017365 624.148987,119.017365 
	C624.149170,118.778389 624.149414,118.539406 624.149597,118.300430 
	C773.873535,118.300430 923.597473,118.300430 1073.321411,118.300430 
	C1073.321655,118.539391 1073.321899,118.778358 1073.322266,119.017319 
	C1009.381470,119.017319 945.440735,119.017319 881.000000,119.017342 
z"/>
<path fill="#3A3F39" opacity="1.000000" stroke="none" 
	d="
M133.315735,1085.298218 
	C281.373230,1084.995728 429.717346,1084.995361 578.529358,1085.019531 
	C578.997253,1085.043945 578.997559,1085.509766 578.997559,1085.742432 
	C431.843536,1085.981689 284.689484,1085.989258 137.535461,1085.978394 
	C136.224411,1085.978271 134.913391,1085.731934 133.315735,1085.298218 
z"/>
<path fill="#03101D" opacity="1.000000" stroke="none" 
	d="
M626.284729,1084.280518 
	C643.648560,1083.939575 661.294983,1083.884277 678.941345,1083.882568 
	C807.481567,1083.870117 936.021790,1083.868286 1064.562012,1083.866089 
	C1066.392944,1083.866089 1068.223755,1083.905884 1070.513916,1084.009521 
	C1069.234863,1084.397217 1067.496704,1084.969238 1065.758301,1084.969727 
	C921.170288,1085.013062 776.582275,1085.013672 631.994263,1084.996704 
	C630.185242,1084.996460 628.376282,1084.731934 626.284729,1084.280518 
z"/>
<path fill="#03101D" opacity="1.000000" stroke="none" 
	d="
M1070.666016,121.619019 
	C1065.977661,121.981483 1060.989624,122.128479 1056.001465,122.128517 
	C913.646179,122.129578 771.290833,122.115883 628.481201,121.993858 
	C629.938049,121.586617 631.849182,121.031052 633.760498,121.030487 
	C777.814514,120.987778 921.868469,120.987793 1065.922485,121.000923 
	C1067.403687,121.001053 1068.884888,121.218864 1070.666016,121.619019 
z"/>
<path fill="#050505" opacity="1.000000" stroke="none" 
	d="
M578.255249,66.252487 
	C577.951111,65.958969 577.968079,65.492294 577.956543,65.259346 
	C580.006775,65.017128 582.068665,65.007858 584.571167,65.001877 
	C585.004028,65.183205 584.996094,65.361229 584.987061,65.807434 
	C584.985962,71.510178 584.985962,76.944748 584.985962,82.464691 
	C579.714417,81.971146 578.557373,79.213646 578.924927,74.959274 
	C579.164551,72.186073 578.705444,69.352524 578.255249,66.252487 
z"/>
<path fill="#545454" opacity="1.000000" stroke="none" 
	d="
M1142.284424,61.992725 
	C1141.968994,61.746475 1141.993164,61.565170 1142.015015,61.109489 
	C1142.637451,60.819691 1143.261963,60.804272 1143.886597,60.788857 
	C1143.465698,61.211796 1143.044678,61.634731 1142.284424,61.992725 
z"/>
<path fill="#545454" opacity="1.000000" stroke="none" 
	d="
M1134.502930,1145.033936 
	C1134.208130,1144.990112 1134.132690,1144.819458 1133.987305,1144.377930 
	C1134.185547,1144.373779 1134.453857,1144.640381 1134.502930,1145.033936 
z"/>
<path fill="#00C0D5" opacity="1.000000" stroke="none" 
	d="
M665.002808,833.422241 
	C675.119507,827.693787 685.218567,822.338379 695.358032,817.060669 
	C706.485474,811.268555 717.630554,805.509888 728.803711,799.806580 
	C741.490967,793.330383 754.250854,786.996155 766.918335,780.481750 
	C780.314575,773.592773 793.623779,766.534607 806.999939,759.606201 
	C817.719604,754.053711 828.476990,748.573853 839.227722,743.081421 
	C854.330017,735.365784 869.436584,727.658325 884.550964,719.966492 
	C896.979126,713.641724 909.449951,707.400269 921.851746,701.024353 
	C949.896301,686.606384 977.874023,672.058044 1005.953552,657.708679 
	C1017.251831,651.934875 1028.745605,646.543457 1040.522217,640.964111 
	C1043.884644,640.367188 1046.875366,639.784180 1050.816406,639.015930 
	C1051.139893,639.204712 1052.474121,640.424927 1053.975586,640.687134 
	C1054.814941,640.833801 1056.733398,639.454712 1056.797241,638.654175 
	C1057.307495,632.241028 1057.313843,632.161194 1064.271973,633.629456 
	C1064.271973,782.835022 1064.271973,932.020020 1064.271973,1081.709839 
	C1061.804810,1081.828979 1060.035278,1081.989380 1058.265869,1081.989502 
	C921.121643,1082.001099 783.977356,1081.972656 646.833252,1082.109619 
	C641.828613,1082.114624 640.891663,1080.490356 640.901367,1075.867432 
	C641.044495,1007.712280 641.000000,939.556641 641.000000,871.401123 
	C641.000000,869.500427 641.000000,867.599670 641.000000,865.698975 
	C640.466309,865.659729 639.932617,865.620483 639.398926,865.581238 
	C639.265991,867.360229 639.017212,869.139160 639.016663,870.918213 
	C638.996826,936.407532 639.081909,1001.897095 638.832520,1067.385498 
	C638.814087,1072.222168 636.409973,1077.049683 634.951782,1082.490356 
	C632.796387,1079.499878 631.427795,1077.600830 629.326782,1074.685669 
	C630.607605,1074.025269 632.474487,1073.062744 635.000000,1071.760620 
	C635.000000,1070.522217 635.000000,1068.730591 635.000000,1066.938843 
	C635.000000,1001.282898 635.084473,935.626648 634.834167,869.971619 
	C634.814880,864.903992 632.440247,859.845215 631.499268,856.122925 
	C634.576416,853.228638 636.620667,850.766174 639.170654,849.059204 
	C641.716553,847.354858 644.838318,845.262939 647.580688,845.429504 
	C650.697998,845.618896 651.779968,843.864441 653.822876,842.714844 
	C656.489563,841.214355 659.827271,840.795776 662.937805,840.291321 
	C663.532776,840.194824 664.413025,841.857422 665.698303,843.318604 
	C662.619995,843.818665 660.604919,844.146057 658.589844,844.473389 
	C663.436096,846.490356 668.018860,845.348450 672.458618,843.585876 
	C673.161926,843.306641 673.962952,841.242126 673.635620,840.793762 
	C672.785583,839.629517 671.382263,838.235840 670.109558,838.140686 
	C667.136536,837.918457 664.674377,837.713745 665.002808,833.422241 
z"/>
<path fill="#00C0D5" opacity="1.000000" stroke="none" 
	d="
M1067.000000,896.000000 
	C1067.026245,811.203613 1067.029785,726.907288 1067.140503,642.610962 
	C1067.146606,637.959290 1068.043945,633.308777 1069.042725,628.708435 
	C1069.042725,776.568726 1069.042725,924.429016 1069.042725,1072.289307 
	C1068.361816,1072.291016 1067.680908,1072.292603 1067.000000,1072.294312 
	C1067.000000,1013.696228 1067.000000,955.098083 1067.000000,896.000000 
z"/>
<path fill="#00C0D5" opacity="1.000000" stroke="none" 
	d="
M751.000000,127.000610 
	C712.236389,127.000610 673.972778,127.000610 635.709167,127.000610 
	C635.709900,126.560143 635.710571,126.119667 635.711243,125.679199 
	C776.902954,125.679199 918.094604,125.679199 1059.286255,125.679199 
	C1059.287964,126.119667 1059.289551,126.560143 1059.291260,127.000610 
	C956.694153,127.000610 854.097107,127.000610 751.000000,127.000610 
z"/>
<path fill="#00C0D5" opacity="1.000000" stroke="none" 
	d="
M1067.072998,1078.980469 
	C1067.582642,1078.386597 1068.094482,1078.117798 1068.606201,1077.849121 
	C1068.609863,1078.598145 1068.613647,1079.347168 1068.617432,1080.096191 
	C1068.103271,1079.832642 1067.589233,1079.569214 1067.072998,1078.980469 
z"/>
<path fill="#00C0D5" opacity="1.000000" stroke="none" 
	d="
M1063.692139,125.474121 
	C1064.448608,125.468231 1064.985352,125.673531 1065.522217,125.878838 
	C1065.387207,126.153656 1065.252075,126.428474 1065.116943,126.703293 
	C1064.568726,126.363960 1064.020630,126.024635 1063.692139,125.474121 
z"/>
<path fill="#00C0D5" opacity="1.000000" stroke="none" 
	d="
M1069.126221,625.888489 
	C1068.993408,625.630859 1069.194092,625.380798 1069.735107,625.153442 
	C1069.854980,625.408447 1069.649902,625.648499 1069.126221,625.888489 
z"/>
<path fill="#55D3E4" opacity="1.000000" stroke="none" 
	d="
M578.446472,288.945038 
	C578.869080,318.029388 578.936829,347.138214 578.973389,376.247070 
	C578.993469,392.217163 578.961060,408.187347 578.539673,424.647858 
	C566.289917,431.324677 554.482971,437.569427 542.608582,443.683228 
	C526.499573,451.977417 510.335907,460.165466 494.201111,468.409790 
	C475.478394,477.976532 456.762970,487.557556 438.041870,497.127533 
	C421.983582,505.336304 405.892242,513.480957 389.868805,521.757202 
	C369.089142,532.490051 348.422394,543.442810 327.595947,554.083496 
	C306.481812,564.871094 285.189545,575.309753 264.055603,586.059021 
	C246.643906,594.915039 229.372803,604.047058 211.995071,612.970459 
	C200.371719,618.939087 188.648193,624.712280 177.010330,630.652954 
	C163.049789,637.779358 149.132721,644.990967 134.943146,652.088989 
	C134.517929,651.969849 134.346390,651.927490 134.174866,651.885071 
	C134.200729,603.889099 134.241959,555.893188 134.249481,507.897217 
	C134.269226,381.900665 134.274277,255.904114 134.342133,129.432770 
	C134.582901,130.757904 134.927307,132.557785 134.927582,134.357742 
	C134.946579,258.674347 134.938004,382.990967 134.931793,507.307587 
	C134.931671,509.613312 134.931778,511.919067 134.931778,515.276306 
	C140.812958,512.418335 145.983551,510.019379 151.052765,507.422577 
	C173.458618,495.944824 195.847778,484.434235 218.218582,472.888306 
	C235.114655,464.167969 251.927216,455.284851 268.862488,446.641724 
	C286.152588,437.817535 303.588104,429.278320 320.882782,420.462982 
	C334.443146,413.551056 347.846710,406.331970 361.392120,399.390137 
	C374.054688,392.900726 386.857544,386.684784 399.515717,380.186920 
	C413.055786,373.236359 426.460663,366.022552 439.994354,359.059387 
	C455.692200,350.982788 471.494293,343.108887 487.200287,335.047974 
	C510.503601,323.087769 533.738281,310.993713 557.054749,299.059265 
	C563.971985,295.518738 571.065735,292.323151 578.446472,288.945038 
z"/>
<path fill="#00C0D5" opacity="1.000000" stroke="none" 
	d="
M135.196838,652.165710 
	C149.132721,644.990967 163.049789,637.779358 177.010330,630.652954 
	C188.648193,624.712280 200.371719,618.939087 211.995071,612.970459 
	C229.372803,604.047058 246.643906,594.915039 264.055603,586.059021 
	C285.189545,575.309753 306.481812,564.871094 327.595947,554.083496 
	C348.422394,543.442810 369.089142,532.490051 389.868805,521.757202 
	C405.892242,513.480957 421.983582,505.336304 438.041870,497.127533 
	C456.762970,487.557556 475.478394,477.976532 494.201111,468.409790 
	C510.335907,460.165466 526.499573,451.977417 542.608582,443.683228 
	C554.482971,437.569427 566.289917,431.324677 578.468018,425.117737 
	C578.870483,459.743500 578.977539,494.389771 578.985718,529.036011 
	C579.028748,711.613831 579.047058,894.191589 579.071960,1076.769409 
	C579.072144,1077.935425 579.044861,1079.101318 578.653809,1080.947754 
	C576.106934,1082.068970 573.936768,1082.894775 571.766235,1082.895752 
	C428.820251,1082.959106 285.874237,1082.954712 142.928253,1082.969971 
	C140.768005,1082.970215 138.607788,1083.141479 136.447556,1083.232910 
	C136.447556,1083.232910 136.319290,1083.438721 136.089813,1083.107910 
	C135.487823,1082.586548 135.115311,1082.396118 134.742798,1082.205566 
	C134.742798,1082.205566 134.750153,1082.130981 134.851135,1081.643799 
	C134.969971,941.323669 134.986572,801.490723 135.013596,661.657776 
	C135.014206,658.493774 135.133118,655.329712 135.196838,652.165710 
z"/>
<path fill="#5C89A1" opacity="1.000000" stroke="none" 
	d="
M136.809113,1083.516479 
	C138.607788,1083.141479 140.768005,1082.970215 142.928253,1082.969971 
	C285.874237,1082.954712 428.820251,1082.959106 571.766235,1082.895752 
	C573.936768,1082.894775 576.106934,1082.068970 578.585144,1081.426147 
	C578.941711,1081.904053 578.990295,1082.583984 578.995361,1083.607178 
	C435.851288,1083.962402 292.750732,1083.975830 149.650192,1083.978394 
	C145.490356,1083.978516 141.330505,1083.862183 136.809113,1083.516479 
z"/>
<path fill="#5C89A1" opacity="1.000000" stroke="none" 
	d="
M134.943146,652.088989 
	C135.133118,655.329712 135.014206,658.493774 135.013596,661.657776 
	C134.986572,801.490723 134.969971,941.323669 134.884888,1081.627441 
	C134.554596,1080.194214 134.061691,1078.290039 134.061264,1076.385864 
	C134.030426,938.364136 134.038803,800.342346 134.042862,662.320618 
	C134.042953,659.157532 134.029800,655.994385 134.098846,652.358154 
	C134.346390,651.927490 134.517929,651.969849 134.943146,652.088989 
z"/>
<path fill="#5C89A1" opacity="1.000000" stroke="none" 
	d="
M134.780106,1082.560547 
	C135.115311,1082.396118 135.487823,1082.586548 135.969757,1083.091064 
	C135.658569,1083.241943 135.237976,1083.078857 134.780106,1082.560547 
z"/>
</svg>